%TF.GenerationSoftware,KiCad,Pcbnew,10.0.2*%
%TF.CreationDate,2026-10-07T13:16:21+02:00*%
%TF.ProjectId,TR-808PSU_Rev0.1,54522d38-3038-4505-9355-5f526576302e,0.1*%
%TF.SameCoordinates,Original*%
%TF.FileFunction,Copper,L1,Top*%
%TF.FilePolarity,Positive*%
%FSLAX46Y46*%
G04 Gerber Fmt 4.6, Leading zero omitted, Abs format (unit mm)*
G04 Created by KiCad (PCBNEW 10.0.2) date 2026-10-07 13:16:21*
%MOMM*%
%LPD*%
G01*
G04 APERTURE LIST*
G04 Aperture macros list*
%AMRoundRect*
0 Rectangle with rounded corners*
0 $1 Rounding radius*
0 $2 $3 $4 $5 $6 $7 $8 $9 X,Y pos of 4 corners*
0 Add a 4 corners polygon primitive as box body*
4,1,4,$2,$3,$4,$5,$6,$7,$8,$9,$2,$3,0*
0 Add four circle primitives for the rounded corners*
1,1,$1+$1,$2,$3*
1,1,$1+$1,$4,$5*
1,1,$1+$1,$6,$7*
1,1,$1+$1,$8,$9*
0 Add four rect primitives between the rounded corners*
20,1,$1+$1,$2,$3,$4,$5,0*
20,1,$1+$1,$4,$5,$6,$7,0*
20,1,$1+$1,$6,$7,$8,$9,0*
20,1,$1+$1,$8,$9,$2,$3,0*%
G04 Aperture macros list end*
%ADD10C,0.300000*%
%TA.AperFunction,NonConductor*%
%ADD11C,0.300000*%
%TD*%
%TA.AperFunction,NonConductor*%
%ADD12C,0.200000*%
%TD*%
%TA.AperFunction,ComponentPad*%
%ADD13C,1.600000*%
%TD*%
%TA.AperFunction,ComponentPad*%
%ADD14RoundRect,0.850000X-1.350000X-0.850000X1.350000X-0.850000X1.350000X0.850000X-1.350000X0.850000X0*%
%TD*%
%TA.AperFunction,ComponentPad*%
%ADD15C,2.000000*%
%TD*%
%TA.AperFunction,ComponentPad*%
%ADD16RoundRect,0.250001X-0.949999X0.949999X-0.949999X-0.949999X0.949999X-0.949999X0.949999X0.949999X0*%
%TD*%
%TA.AperFunction,ComponentPad*%
%ADD17C,2.400000*%
%TD*%
%TA.AperFunction,ComponentPad*%
%ADD18R,1.905000X2.000000*%
%TD*%
%TA.AperFunction,ComponentPad*%
%ADD19O,1.905000X2.000000*%
%TD*%
%TA.AperFunction,ComponentPad*%
%ADD20RoundRect,0.250000X-0.750000X-0.750000X0.750000X-0.750000X0.750000X0.750000X-0.750000X0.750000X0*%
%TD*%
%TA.AperFunction,ComponentPad*%
%ADD21O,4.000000X5.000000*%
%TD*%
%TA.AperFunction,ComponentPad*%
%ADD22RoundRect,0.250000X-0.550000X0.550000X-0.550000X-0.550000X0.550000X-0.550000X0.550000X0.550000X0*%
%TD*%
%TA.AperFunction,ComponentPad*%
%ADD23RoundRect,0.250001X-0.949999X-0.949999X0.949999X-0.949999X0.949999X0.949999X-0.949999X0.949999X0*%
%TD*%
%TA.AperFunction,ComponentPad*%
%ADD24R,2.000000X2.000000*%
%TD*%
%TA.AperFunction,ComponentPad*%
%ADD25O,2.000000X2.000000*%
%TD*%
%TA.AperFunction,ComponentPad*%
%ADD26RoundRect,0.250000X-0.550000X-0.550000X0.550000X-0.550000X0.550000X0.550000X-0.550000X0.550000X0*%
%TD*%
%TA.AperFunction,ViaPad*%
%ADD27C,0.560000*%
%TD*%
%TA.AperFunction,Conductor*%
%ADD28C,0.800000*%
%TD*%
%TA.AperFunction,Conductor*%
%ADD29C,0.600000*%
%TD*%
%TA.AperFunction,Conductor*%
%ADD30C,1.000000*%
%TD*%
G04 APERTURE END LIST*
D10*
D11*
X82181430Y-22466185D02*
X82252858Y-22394757D01*
X82252858Y-22394757D02*
X82395716Y-22323328D01*
X82395716Y-22323328D02*
X82752858Y-22323328D01*
X82752858Y-22323328D02*
X82895716Y-22394757D01*
X82895716Y-22394757D02*
X82967144Y-22466185D01*
X82967144Y-22466185D02*
X83038573Y-22609042D01*
X83038573Y-22609042D02*
X83038573Y-22751900D01*
X83038573Y-22751900D02*
X82967144Y-22966185D01*
X82967144Y-22966185D02*
X82110001Y-23823328D01*
X82110001Y-23823328D02*
X83038573Y-23823328D01*
X84324287Y-22323328D02*
X84038572Y-22323328D01*
X84038572Y-22323328D02*
X83895715Y-22394757D01*
X83895715Y-22394757D02*
X83824287Y-22466185D01*
X83824287Y-22466185D02*
X83681429Y-22680471D01*
X83681429Y-22680471D02*
X83610001Y-22966185D01*
X83610001Y-22966185D02*
X83610001Y-23537614D01*
X83610001Y-23537614D02*
X83681429Y-23680471D01*
X83681429Y-23680471D02*
X83752858Y-23751900D01*
X83752858Y-23751900D02*
X83895715Y-23823328D01*
X83895715Y-23823328D02*
X84181429Y-23823328D01*
X84181429Y-23823328D02*
X84324287Y-23751900D01*
X84324287Y-23751900D02*
X84395715Y-23680471D01*
X84395715Y-23680471D02*
X84467144Y-23537614D01*
X84467144Y-23537614D02*
X84467144Y-23180471D01*
X84467144Y-23180471D02*
X84395715Y-23037614D01*
X84395715Y-23037614D02*
X84324287Y-22966185D01*
X84324287Y-22966185D02*
X84181429Y-22894757D01*
X84181429Y-22894757D02*
X83895715Y-22894757D01*
X83895715Y-22894757D02*
X83752858Y-22966185D01*
X83752858Y-22966185D02*
X83681429Y-23037614D01*
X83681429Y-23037614D02*
X83610001Y-23180471D01*
X85110000Y-23680471D02*
X85181429Y-23751900D01*
X85181429Y-23751900D02*
X85110000Y-23823328D01*
X85110000Y-23823328D02*
X85038572Y-23751900D01*
X85038572Y-23751900D02*
X85110000Y-23680471D01*
X85110000Y-23680471D02*
X85110000Y-23823328D01*
X86110001Y-22323328D02*
X86252858Y-22323328D01*
X86252858Y-22323328D02*
X86395715Y-22394757D01*
X86395715Y-22394757D02*
X86467144Y-22466185D01*
X86467144Y-22466185D02*
X86538572Y-22609042D01*
X86538572Y-22609042D02*
X86610001Y-22894757D01*
X86610001Y-22894757D02*
X86610001Y-23251900D01*
X86610001Y-23251900D02*
X86538572Y-23537614D01*
X86538572Y-23537614D02*
X86467144Y-23680471D01*
X86467144Y-23680471D02*
X86395715Y-23751900D01*
X86395715Y-23751900D02*
X86252858Y-23823328D01*
X86252858Y-23823328D02*
X86110001Y-23823328D01*
X86110001Y-23823328D02*
X85967144Y-23751900D01*
X85967144Y-23751900D02*
X85895715Y-23680471D01*
X85895715Y-23680471D02*
X85824286Y-23537614D01*
X85824286Y-23537614D02*
X85752858Y-23251900D01*
X85752858Y-23251900D02*
X85752858Y-22894757D01*
X85752858Y-22894757D02*
X85824286Y-22609042D01*
X85824286Y-22609042D02*
X85895715Y-22466185D01*
X85895715Y-22466185D02*
X85967144Y-22394757D01*
X85967144Y-22394757D02*
X86110001Y-22323328D01*
X87467143Y-22966185D02*
X87324286Y-22894757D01*
X87324286Y-22894757D02*
X87252857Y-22823328D01*
X87252857Y-22823328D02*
X87181429Y-22680471D01*
X87181429Y-22680471D02*
X87181429Y-22609042D01*
X87181429Y-22609042D02*
X87252857Y-22466185D01*
X87252857Y-22466185D02*
X87324286Y-22394757D01*
X87324286Y-22394757D02*
X87467143Y-22323328D01*
X87467143Y-22323328D02*
X87752857Y-22323328D01*
X87752857Y-22323328D02*
X87895715Y-22394757D01*
X87895715Y-22394757D02*
X87967143Y-22466185D01*
X87967143Y-22466185D02*
X88038572Y-22609042D01*
X88038572Y-22609042D02*
X88038572Y-22680471D01*
X88038572Y-22680471D02*
X87967143Y-22823328D01*
X87967143Y-22823328D02*
X87895715Y-22894757D01*
X87895715Y-22894757D02*
X87752857Y-22966185D01*
X87752857Y-22966185D02*
X87467143Y-22966185D01*
X87467143Y-22966185D02*
X87324286Y-23037614D01*
X87324286Y-23037614D02*
X87252857Y-23109042D01*
X87252857Y-23109042D02*
X87181429Y-23251900D01*
X87181429Y-23251900D02*
X87181429Y-23537614D01*
X87181429Y-23537614D02*
X87252857Y-23680471D01*
X87252857Y-23680471D02*
X87324286Y-23751900D01*
X87324286Y-23751900D02*
X87467143Y-23823328D01*
X87467143Y-23823328D02*
X87752857Y-23823328D01*
X87752857Y-23823328D02*
X87895715Y-23751900D01*
X87895715Y-23751900D02*
X87967143Y-23680471D01*
X87967143Y-23680471D02*
X88038572Y-23537614D01*
X88038572Y-23537614D02*
X88038572Y-23251900D01*
X88038572Y-23251900D02*
X87967143Y-23109042D01*
X87967143Y-23109042D02*
X87895715Y-23037614D01*
X87895715Y-23037614D02*
X87752857Y-22966185D01*
X88967143Y-22323328D02*
X89110000Y-22323328D01*
X89110000Y-22323328D02*
X89252857Y-22394757D01*
X89252857Y-22394757D02*
X89324286Y-22466185D01*
X89324286Y-22466185D02*
X89395714Y-22609042D01*
X89395714Y-22609042D02*
X89467143Y-22894757D01*
X89467143Y-22894757D02*
X89467143Y-23251900D01*
X89467143Y-23251900D02*
X89395714Y-23537614D01*
X89395714Y-23537614D02*
X89324286Y-23680471D01*
X89324286Y-23680471D02*
X89252857Y-23751900D01*
X89252857Y-23751900D02*
X89110000Y-23823328D01*
X89110000Y-23823328D02*
X88967143Y-23823328D01*
X88967143Y-23823328D02*
X88824286Y-23751900D01*
X88824286Y-23751900D02*
X88752857Y-23680471D01*
X88752857Y-23680471D02*
X88681428Y-23537614D01*
X88681428Y-23537614D02*
X88610000Y-23251900D01*
X88610000Y-23251900D02*
X88610000Y-22894757D01*
X88610000Y-22894757D02*
X88681428Y-22609042D01*
X88681428Y-22609042D02*
X88752857Y-22466185D01*
X88752857Y-22466185D02*
X88824286Y-22394757D01*
X88824286Y-22394757D02*
X88967143Y-22323328D01*
X90395714Y-22323328D02*
X90538571Y-22323328D01*
X90538571Y-22323328D02*
X90681428Y-22394757D01*
X90681428Y-22394757D02*
X90752857Y-22466185D01*
X90752857Y-22466185D02*
X90824285Y-22609042D01*
X90824285Y-22609042D02*
X90895714Y-22894757D01*
X90895714Y-22894757D02*
X90895714Y-23251900D01*
X90895714Y-23251900D02*
X90824285Y-23537614D01*
X90824285Y-23537614D02*
X90752857Y-23680471D01*
X90752857Y-23680471D02*
X90681428Y-23751900D01*
X90681428Y-23751900D02*
X90538571Y-23823328D01*
X90538571Y-23823328D02*
X90395714Y-23823328D01*
X90395714Y-23823328D02*
X90252857Y-23751900D01*
X90252857Y-23751900D02*
X90181428Y-23680471D01*
X90181428Y-23680471D02*
X90109999Y-23537614D01*
X90109999Y-23537614D02*
X90038571Y-23251900D01*
X90038571Y-23251900D02*
X90038571Y-22894757D01*
X90038571Y-22894757D02*
X90109999Y-22609042D01*
X90109999Y-22609042D02*
X90181428Y-22466185D01*
X90181428Y-22466185D02*
X90252857Y-22394757D01*
X90252857Y-22394757D02*
X90395714Y-22323328D01*
X92681427Y-23823328D02*
X92681427Y-22823328D01*
X92681427Y-22966185D02*
X92752856Y-22894757D01*
X92752856Y-22894757D02*
X92895713Y-22823328D01*
X92895713Y-22823328D02*
X93109999Y-22823328D01*
X93109999Y-22823328D02*
X93252856Y-22894757D01*
X93252856Y-22894757D02*
X93324285Y-23037614D01*
X93324285Y-23037614D02*
X93324285Y-23823328D01*
X93324285Y-23037614D02*
X93395713Y-22894757D01*
X93395713Y-22894757D02*
X93538570Y-22823328D01*
X93538570Y-22823328D02*
X93752856Y-22823328D01*
X93752856Y-22823328D02*
X93895713Y-22894757D01*
X93895713Y-22894757D02*
X93967142Y-23037614D01*
X93967142Y-23037614D02*
X93967142Y-23823328D01*
X94681427Y-23823328D02*
X94681427Y-22823328D01*
X94681427Y-22966185D02*
X94752856Y-22894757D01*
X94752856Y-22894757D02*
X94895713Y-22823328D01*
X94895713Y-22823328D02*
X95109999Y-22823328D01*
X95109999Y-22823328D02*
X95252856Y-22894757D01*
X95252856Y-22894757D02*
X95324285Y-23037614D01*
X95324285Y-23037614D02*
X95324285Y-23823328D01*
X95324285Y-23037614D02*
X95395713Y-22894757D01*
X95395713Y-22894757D02*
X95538570Y-22823328D01*
X95538570Y-22823328D02*
X95752856Y-22823328D01*
X95752856Y-22823328D02*
X95895713Y-22894757D01*
X95895713Y-22894757D02*
X95967142Y-23037614D01*
X95967142Y-23037614D02*
X95967142Y-23823328D01*
D12*
X76070000Y-34145000D02*
X76070000Y-24358580D01*
X102150000Y-24358580D02*
X102150000Y-37595000D01*
X76070000Y-24945000D02*
X102150000Y-24945000D01*
X76070000Y-24945000D02*
X77196504Y-24358579D01*
X76070000Y-24945000D02*
X77196504Y-25531421D01*
X102150000Y-24945000D02*
X101023496Y-25531421D01*
X102150000Y-24945000D02*
X101023496Y-24358579D01*
D10*
D11*
X121556430Y-21966185D02*
X121627858Y-21894757D01*
X121627858Y-21894757D02*
X121770716Y-21823328D01*
X121770716Y-21823328D02*
X122127858Y-21823328D01*
X122127858Y-21823328D02*
X122270716Y-21894757D01*
X122270716Y-21894757D02*
X122342144Y-21966185D01*
X122342144Y-21966185D02*
X122413573Y-22109042D01*
X122413573Y-22109042D02*
X122413573Y-22251900D01*
X122413573Y-22251900D02*
X122342144Y-22466185D01*
X122342144Y-22466185D02*
X121485001Y-23323328D01*
X121485001Y-23323328D02*
X122413573Y-23323328D01*
X123699287Y-21823328D02*
X123413572Y-21823328D01*
X123413572Y-21823328D02*
X123270715Y-21894757D01*
X123270715Y-21894757D02*
X123199287Y-21966185D01*
X123199287Y-21966185D02*
X123056429Y-22180471D01*
X123056429Y-22180471D02*
X122985001Y-22466185D01*
X122985001Y-22466185D02*
X122985001Y-23037614D01*
X122985001Y-23037614D02*
X123056429Y-23180471D01*
X123056429Y-23180471D02*
X123127858Y-23251900D01*
X123127858Y-23251900D02*
X123270715Y-23323328D01*
X123270715Y-23323328D02*
X123556429Y-23323328D01*
X123556429Y-23323328D02*
X123699287Y-23251900D01*
X123699287Y-23251900D02*
X123770715Y-23180471D01*
X123770715Y-23180471D02*
X123842144Y-23037614D01*
X123842144Y-23037614D02*
X123842144Y-22680471D01*
X123842144Y-22680471D02*
X123770715Y-22537614D01*
X123770715Y-22537614D02*
X123699287Y-22466185D01*
X123699287Y-22466185D02*
X123556429Y-22394757D01*
X123556429Y-22394757D02*
X123270715Y-22394757D01*
X123270715Y-22394757D02*
X123127858Y-22466185D01*
X123127858Y-22466185D02*
X123056429Y-22537614D01*
X123056429Y-22537614D02*
X122985001Y-22680471D01*
X124485000Y-23180471D02*
X124556429Y-23251900D01*
X124556429Y-23251900D02*
X124485000Y-23323328D01*
X124485000Y-23323328D02*
X124413572Y-23251900D01*
X124413572Y-23251900D02*
X124485000Y-23180471D01*
X124485000Y-23180471D02*
X124485000Y-23323328D01*
X125913572Y-21823328D02*
X125199286Y-21823328D01*
X125199286Y-21823328D02*
X125127858Y-22537614D01*
X125127858Y-22537614D02*
X125199286Y-22466185D01*
X125199286Y-22466185D02*
X125342144Y-22394757D01*
X125342144Y-22394757D02*
X125699286Y-22394757D01*
X125699286Y-22394757D02*
X125842144Y-22466185D01*
X125842144Y-22466185D02*
X125913572Y-22537614D01*
X125913572Y-22537614D02*
X125985001Y-22680471D01*
X125985001Y-22680471D02*
X125985001Y-23037614D01*
X125985001Y-23037614D02*
X125913572Y-23180471D01*
X125913572Y-23180471D02*
X125842144Y-23251900D01*
X125842144Y-23251900D02*
X125699286Y-23323328D01*
X125699286Y-23323328D02*
X125342144Y-23323328D01*
X125342144Y-23323328D02*
X125199286Y-23251900D01*
X125199286Y-23251900D02*
X125127858Y-23180471D01*
X126485000Y-21823328D02*
X127485000Y-21823328D01*
X127485000Y-21823328D02*
X126842143Y-23323328D01*
X128342143Y-21823328D02*
X128485000Y-21823328D01*
X128485000Y-21823328D02*
X128627857Y-21894757D01*
X128627857Y-21894757D02*
X128699286Y-21966185D01*
X128699286Y-21966185D02*
X128770714Y-22109042D01*
X128770714Y-22109042D02*
X128842143Y-22394757D01*
X128842143Y-22394757D02*
X128842143Y-22751900D01*
X128842143Y-22751900D02*
X128770714Y-23037614D01*
X128770714Y-23037614D02*
X128699286Y-23180471D01*
X128699286Y-23180471D02*
X128627857Y-23251900D01*
X128627857Y-23251900D02*
X128485000Y-23323328D01*
X128485000Y-23323328D02*
X128342143Y-23323328D01*
X128342143Y-23323328D02*
X128199286Y-23251900D01*
X128199286Y-23251900D02*
X128127857Y-23180471D01*
X128127857Y-23180471D02*
X128056428Y-23037614D01*
X128056428Y-23037614D02*
X127985000Y-22751900D01*
X127985000Y-22751900D02*
X127985000Y-22394757D01*
X127985000Y-22394757D02*
X128056428Y-22109042D01*
X128056428Y-22109042D02*
X128127857Y-21966185D01*
X128127857Y-21966185D02*
X128199286Y-21894757D01*
X128199286Y-21894757D02*
X128342143Y-21823328D01*
X129770714Y-21823328D02*
X129913571Y-21823328D01*
X129913571Y-21823328D02*
X130056428Y-21894757D01*
X130056428Y-21894757D02*
X130127857Y-21966185D01*
X130127857Y-21966185D02*
X130199285Y-22109042D01*
X130199285Y-22109042D02*
X130270714Y-22394757D01*
X130270714Y-22394757D02*
X130270714Y-22751900D01*
X130270714Y-22751900D02*
X130199285Y-23037614D01*
X130199285Y-23037614D02*
X130127857Y-23180471D01*
X130127857Y-23180471D02*
X130056428Y-23251900D01*
X130056428Y-23251900D02*
X129913571Y-23323328D01*
X129913571Y-23323328D02*
X129770714Y-23323328D01*
X129770714Y-23323328D02*
X129627857Y-23251900D01*
X129627857Y-23251900D02*
X129556428Y-23180471D01*
X129556428Y-23180471D02*
X129484999Y-23037614D01*
X129484999Y-23037614D02*
X129413571Y-22751900D01*
X129413571Y-22751900D02*
X129413571Y-22394757D01*
X129413571Y-22394757D02*
X129484999Y-22109042D01*
X129484999Y-22109042D02*
X129556428Y-21966185D01*
X129556428Y-21966185D02*
X129627857Y-21894757D01*
X129627857Y-21894757D02*
X129770714Y-21823328D01*
X132056427Y-23323328D02*
X132056427Y-22323328D01*
X132056427Y-22466185D02*
X132127856Y-22394757D01*
X132127856Y-22394757D02*
X132270713Y-22323328D01*
X132270713Y-22323328D02*
X132484999Y-22323328D01*
X132484999Y-22323328D02*
X132627856Y-22394757D01*
X132627856Y-22394757D02*
X132699285Y-22537614D01*
X132699285Y-22537614D02*
X132699285Y-23323328D01*
X132699285Y-22537614D02*
X132770713Y-22394757D01*
X132770713Y-22394757D02*
X132913570Y-22323328D01*
X132913570Y-22323328D02*
X133127856Y-22323328D01*
X133127856Y-22323328D02*
X133270713Y-22394757D01*
X133270713Y-22394757D02*
X133342142Y-22537614D01*
X133342142Y-22537614D02*
X133342142Y-23323328D01*
X134056427Y-23323328D02*
X134056427Y-22323328D01*
X134056427Y-22466185D02*
X134127856Y-22394757D01*
X134127856Y-22394757D02*
X134270713Y-22323328D01*
X134270713Y-22323328D02*
X134484999Y-22323328D01*
X134484999Y-22323328D02*
X134627856Y-22394757D01*
X134627856Y-22394757D02*
X134699285Y-22537614D01*
X134699285Y-22537614D02*
X134699285Y-23323328D01*
X134699285Y-22537614D02*
X134770713Y-22394757D01*
X134770713Y-22394757D02*
X134913570Y-22323328D01*
X134913570Y-22323328D02*
X135127856Y-22323328D01*
X135127856Y-22323328D02*
X135270713Y-22394757D01*
X135270713Y-22394757D02*
X135342142Y-22537614D01*
X135342142Y-22537614D02*
X135342142Y-23323328D01*
D12*
X141770000Y-34145000D02*
X141770000Y-23858580D01*
X115200000Y-23858580D02*
X115200000Y-30695000D01*
X141770000Y-24445000D02*
X115200000Y-24445000D01*
X141770000Y-24445000D02*
X140643496Y-25031421D01*
X141770000Y-24445000D02*
X140643496Y-23858579D01*
X115200000Y-24445000D02*
X116326504Y-23858579D01*
X115200000Y-24445000D02*
X116326504Y-25031421D01*
D10*
D11*
X49176430Y-24266185D02*
X49247858Y-24194757D01*
X49247858Y-24194757D02*
X49390716Y-24123328D01*
X49390716Y-24123328D02*
X49747858Y-24123328D01*
X49747858Y-24123328D02*
X49890716Y-24194757D01*
X49890716Y-24194757D02*
X49962144Y-24266185D01*
X49962144Y-24266185D02*
X50033573Y-24409042D01*
X50033573Y-24409042D02*
X50033573Y-24551900D01*
X50033573Y-24551900D02*
X49962144Y-24766185D01*
X49962144Y-24766185D02*
X49105001Y-25623328D01*
X49105001Y-25623328D02*
X50033573Y-25623328D01*
X50533572Y-24123328D02*
X51533572Y-24123328D01*
X51533572Y-24123328D02*
X50890715Y-25623328D01*
X52105000Y-25480471D02*
X52176429Y-25551900D01*
X52176429Y-25551900D02*
X52105000Y-25623328D01*
X52105000Y-25623328D02*
X52033572Y-25551900D01*
X52033572Y-25551900D02*
X52105000Y-25480471D01*
X52105000Y-25480471D02*
X52105000Y-25623328D01*
X52890715Y-25623328D02*
X53176429Y-25623328D01*
X53176429Y-25623328D02*
X53319286Y-25551900D01*
X53319286Y-25551900D02*
X53390715Y-25480471D01*
X53390715Y-25480471D02*
X53533572Y-25266185D01*
X53533572Y-25266185D02*
X53605001Y-24980471D01*
X53605001Y-24980471D02*
X53605001Y-24409042D01*
X53605001Y-24409042D02*
X53533572Y-24266185D01*
X53533572Y-24266185D02*
X53462144Y-24194757D01*
X53462144Y-24194757D02*
X53319286Y-24123328D01*
X53319286Y-24123328D02*
X53033572Y-24123328D01*
X53033572Y-24123328D02*
X52890715Y-24194757D01*
X52890715Y-24194757D02*
X52819286Y-24266185D01*
X52819286Y-24266185D02*
X52747858Y-24409042D01*
X52747858Y-24409042D02*
X52747858Y-24766185D01*
X52747858Y-24766185D02*
X52819286Y-24909042D01*
X52819286Y-24909042D02*
X52890715Y-24980471D01*
X52890715Y-24980471D02*
X53033572Y-25051900D01*
X53033572Y-25051900D02*
X53319286Y-25051900D01*
X53319286Y-25051900D02*
X53462144Y-24980471D01*
X53462144Y-24980471D02*
X53533572Y-24909042D01*
X53533572Y-24909042D02*
X53605001Y-24766185D01*
X54105000Y-24123328D02*
X55033572Y-24123328D01*
X55033572Y-24123328D02*
X54533572Y-24694757D01*
X54533572Y-24694757D02*
X54747857Y-24694757D01*
X54747857Y-24694757D02*
X54890715Y-24766185D01*
X54890715Y-24766185D02*
X54962143Y-24837614D01*
X54962143Y-24837614D02*
X55033572Y-24980471D01*
X55033572Y-24980471D02*
X55033572Y-25337614D01*
X55033572Y-25337614D02*
X54962143Y-25480471D01*
X54962143Y-25480471D02*
X54890715Y-25551900D01*
X54890715Y-25551900D02*
X54747857Y-25623328D01*
X54747857Y-25623328D02*
X54319286Y-25623328D01*
X54319286Y-25623328D02*
X54176429Y-25551900D01*
X54176429Y-25551900D02*
X54105000Y-25480471D01*
X55962143Y-24123328D02*
X56105000Y-24123328D01*
X56105000Y-24123328D02*
X56247857Y-24194757D01*
X56247857Y-24194757D02*
X56319286Y-24266185D01*
X56319286Y-24266185D02*
X56390714Y-24409042D01*
X56390714Y-24409042D02*
X56462143Y-24694757D01*
X56462143Y-24694757D02*
X56462143Y-25051900D01*
X56462143Y-25051900D02*
X56390714Y-25337614D01*
X56390714Y-25337614D02*
X56319286Y-25480471D01*
X56319286Y-25480471D02*
X56247857Y-25551900D01*
X56247857Y-25551900D02*
X56105000Y-25623328D01*
X56105000Y-25623328D02*
X55962143Y-25623328D01*
X55962143Y-25623328D02*
X55819286Y-25551900D01*
X55819286Y-25551900D02*
X55747857Y-25480471D01*
X55747857Y-25480471D02*
X55676428Y-25337614D01*
X55676428Y-25337614D02*
X55605000Y-25051900D01*
X55605000Y-25051900D02*
X55605000Y-24694757D01*
X55605000Y-24694757D02*
X55676428Y-24409042D01*
X55676428Y-24409042D02*
X55747857Y-24266185D01*
X55747857Y-24266185D02*
X55819286Y-24194757D01*
X55819286Y-24194757D02*
X55962143Y-24123328D01*
X57390714Y-24123328D02*
X57533571Y-24123328D01*
X57533571Y-24123328D02*
X57676428Y-24194757D01*
X57676428Y-24194757D02*
X57747857Y-24266185D01*
X57747857Y-24266185D02*
X57819285Y-24409042D01*
X57819285Y-24409042D02*
X57890714Y-24694757D01*
X57890714Y-24694757D02*
X57890714Y-25051900D01*
X57890714Y-25051900D02*
X57819285Y-25337614D01*
X57819285Y-25337614D02*
X57747857Y-25480471D01*
X57747857Y-25480471D02*
X57676428Y-25551900D01*
X57676428Y-25551900D02*
X57533571Y-25623328D01*
X57533571Y-25623328D02*
X57390714Y-25623328D01*
X57390714Y-25623328D02*
X57247857Y-25551900D01*
X57247857Y-25551900D02*
X57176428Y-25480471D01*
X57176428Y-25480471D02*
X57104999Y-25337614D01*
X57104999Y-25337614D02*
X57033571Y-25051900D01*
X57033571Y-25051900D02*
X57033571Y-24694757D01*
X57033571Y-24694757D02*
X57104999Y-24409042D01*
X57104999Y-24409042D02*
X57176428Y-24266185D01*
X57176428Y-24266185D02*
X57247857Y-24194757D01*
X57247857Y-24194757D02*
X57390714Y-24123328D01*
X59676427Y-25623328D02*
X59676427Y-24623328D01*
X59676427Y-24766185D02*
X59747856Y-24694757D01*
X59747856Y-24694757D02*
X59890713Y-24623328D01*
X59890713Y-24623328D02*
X60104999Y-24623328D01*
X60104999Y-24623328D02*
X60247856Y-24694757D01*
X60247856Y-24694757D02*
X60319285Y-24837614D01*
X60319285Y-24837614D02*
X60319285Y-25623328D01*
X60319285Y-24837614D02*
X60390713Y-24694757D01*
X60390713Y-24694757D02*
X60533570Y-24623328D01*
X60533570Y-24623328D02*
X60747856Y-24623328D01*
X60747856Y-24623328D02*
X60890713Y-24694757D01*
X60890713Y-24694757D02*
X60962142Y-24837614D01*
X60962142Y-24837614D02*
X60962142Y-25623328D01*
X61676427Y-25623328D02*
X61676427Y-24623328D01*
X61676427Y-24766185D02*
X61747856Y-24694757D01*
X61747856Y-24694757D02*
X61890713Y-24623328D01*
X61890713Y-24623328D02*
X62104999Y-24623328D01*
X62104999Y-24623328D02*
X62247856Y-24694757D01*
X62247856Y-24694757D02*
X62319285Y-24837614D01*
X62319285Y-24837614D02*
X62319285Y-25623328D01*
X62319285Y-24837614D02*
X62390713Y-24694757D01*
X62390713Y-24694757D02*
X62533570Y-24623328D01*
X62533570Y-24623328D02*
X62747856Y-24623328D01*
X62747856Y-24623328D02*
X62890713Y-24694757D01*
X62890713Y-24694757D02*
X62962142Y-24837614D01*
X62962142Y-24837614D02*
X62962142Y-25623328D01*
D12*
X70070000Y-34145000D02*
X70070000Y-26158580D01*
X42140000Y-26158580D02*
X42140000Y-32145000D01*
X70070000Y-26745000D02*
X42140000Y-26745000D01*
X70070000Y-26745000D02*
X68943496Y-27331421D01*
X70070000Y-26745000D02*
X68943496Y-26158579D01*
X42140000Y-26745000D02*
X43266504Y-26158579D01*
X42140000Y-26745000D02*
X43266504Y-27331421D01*
D13*
%TO.P,R5,1*%
%TO.N,/COL2*%
X112670000Y-77935000D03*
%TO.P,R5,2*%
%TO.N,/-15V*%
X112670000Y-67775000D03*
%TD*%
D14*
%TO.P,P12,1*%
%TO.N,/AC15_RAW_A*%
X76910000Y-131625000D03*
%TD*%
%TO.P,P2,1*%
%TO.N,/MAINS_B*%
X27620000Y-55625000D03*
%TD*%
D15*
%TO.P,C5,1*%
%TO.N,/+15V*%
X88410000Y-59165000D03*
%TO.P,C5,2*%
%TO.N,/GND15*%
X95910000Y-59165000D03*
%TD*%
D16*
%TO.P,C13,1*%
%TO.N,/RAW15P*%
X128310000Y-75955000D03*
D17*
%TO.P,C13,2*%
%TO.N,/GND15*%
X128310000Y-83455000D03*
%TD*%
D18*
%TO.P,Q2,1*%
%TO.N,/VB2*%
X125140000Y-47135000D03*
D19*
%TO.P,Q2,2*%
%TO.N,/COL2*%
X127680000Y-47135000D03*
%TO.P,Q2,3*%
%TO.N,/RAW15N*%
X130220000Y-47135000D03*
%TD*%
D17*
%TO.P,C1,1*%
%TO.N,/SW_A*%
X43580000Y-86305000D03*
%TO.P,C1,2*%
%TO.N,/SW_B*%
X43580000Y-63805000D03*
%TD*%
D20*
%TO.P,C11,1*%
%TO.N,/GND15*%
X101880000Y-50905000D03*
D15*
%TO.P,C11,2*%
%TO.N,Net-(C11-Pad2)*%
X106880000Y-50905000D03*
%TD*%
D21*
%TO.P,F2,1*%
%TO.N,/AC5_RAW*%
X72610000Y-98065000D03*
%TO.P,F2,2*%
%TO.N,Net-(D1-Pad2)*%
X72610000Y-120565000D03*
%TD*%
D14*
%TO.P,P9,1*%
%TO.N,Net-(P9-Pad1)*%
X42040000Y-131625000D03*
%TD*%
D15*
%TO.P,C6,1*%
%TO.N,/GND15*%
X101820000Y-58765000D03*
%TO.P,C6,2*%
%TO.N,/-15V*%
X109320000Y-58765000D03*
%TD*%
D13*
%TO.P,R7,1*%
%TO.N,/RAW15P*%
X72580000Y-47290000D03*
%TO.P,R7,2*%
%TO.N,/VB1*%
X82740000Y-47290000D03*
%TD*%
D21*
%TO.P,F1,1*%
%TO.N,/SW_A*%
X43780000Y-98065000D03*
%TO.P,F1,2*%
%TO.N,/PRI_8*%
X43780000Y-120565000D03*
%TD*%
D14*
%TO.P,P8,1*%
%TO.N,/PRI_8*%
X27620000Y-117205000D03*
%TD*%
%TO.P,P4,1*%
%TO.N,/MAINS_A*%
X27620000Y-74395000D03*
%TD*%
D21*
%TO.P,F3,1*%
%TO.N,/AC15_RAW_A*%
X89740000Y-98065000D03*
%TO.P,F3,2*%
%TO.N,/AC15_A*%
X89740000Y-120565000D03*
%TD*%
D14*
%TO.P,P11,1*%
%TO.N,/AC5_B*%
X66350000Y-131625000D03*
%TD*%
D13*
%TO.P,C7,1*%
%TO.N,/COMP1*%
X94010000Y-67485000D03*
%TO.P,C7,2*%
%TO.N,/GND15*%
X99010000Y-67485000D03*
%TD*%
%TO.P,R1,1*%
%TO.N,/VB2*%
X119710000Y-90805000D03*
%TO.P,R1,2*%
%TO.N,/RAW15N*%
X119710000Y-83185000D03*
%TD*%
%TO.P,R2,1*%
%TO.N,/COL1*%
X88240000Y-76755000D03*
%TO.P,R2,2*%
%TO.N,/+15V*%
X88240000Y-66595000D03*
%TD*%
D14*
%TO.P,P19,1*%
%TO.N,/+5V*%
X151760000Y-74015000D03*
%TD*%
%TO.P,P18,1*%
%TO.N,/GND5*%
X151760000Y-83915000D03*
%TD*%
%TO.P,P22,1*%
%TO.N,/+15V*%
X151760000Y-42945000D03*
%TD*%
D13*
%TO.P,R6,1*%
%TO.N,Net-(C11-Pad2)*%
X114230000Y-57365000D03*
%TO.P,R6,2*%
%TO.N,/-15V*%
X114230000Y-49745000D03*
%TD*%
D14*
%TO.P,P6,1*%
%TO.N,/SW_B*%
X27620000Y-98325000D03*
%TD*%
%TO.P,P10,1*%
%TO.N,/AC5_RAW*%
X55800000Y-131625000D03*
%TD*%
D15*
%TO.P,C4,1*%
%TO.N,/RAW5*%
X63710000Y-76895000D03*
%TO.P,C4,2*%
%TO.N,/GND5*%
X71210000Y-76895000D03*
%TD*%
D22*
%TO.P,D3,1*%
%TO.N,/RAMV*%
X140360000Y-105990000D03*
D13*
%TO.P,D3,2*%
%TO.N,/+5V*%
X140360000Y-116150000D03*
%TD*%
D14*
%TO.P,P7,1*%
%TO.N,/SW_B*%
X27620000Y-104965000D03*
%TD*%
D18*
%TO.P,IC1,1*%
%TO.N,/RAW5*%
X51900000Y-47135000D03*
D19*
%TO.P,IC1,2*%
%TO.N,/GND5*%
X54440000Y-47135000D03*
%TO.P,IC1,3*%
%TO.N,/+5V*%
X56980000Y-47135000D03*
%TD*%
D16*
%TO.P,C12,1*%
%TO.N,/GND15*%
X127350000Y-55795000D03*
D17*
%TO.P,C12,2*%
%TO.N,/RAW15N*%
X127350000Y-63295000D03*
%TD*%
D14*
%TO.P,P3,1*%
%TO.N,/MAINS_A*%
X27620000Y-67215000D03*
%TD*%
D23*
%TO.P,C3,1*%
%TO.N,/RAW5*%
X67300000Y-65835000D03*
D17*
%TO.P,C3,2*%
%TO.N,/GND5*%
X72300000Y-65835000D03*
%TD*%
D13*
%TO.P,R3,1*%
%TO.N,/+15V*%
X88950000Y-63145000D03*
%TO.P,R3,2*%
%TO.N,/ADJ*%
X99110000Y-63145000D03*
%TD*%
D14*
%TO.P,P16,1*%
%TO.N,/BAT_P*%
X151760000Y-106865000D03*
%TD*%
%TO.P,P20,1*%
%TO.N,/-15V*%
X151760000Y-61985000D03*
%TD*%
D13*
%TO.P,C8,1*%
%TO.N,/COMP2*%
X101660000Y-65990000D03*
%TO.P,C8,2*%
%TO.N,/GND15*%
X104160000Y-65990000D03*
%TD*%
D21*
%TO.P,F4,1*%
%TO.N,/AC15_RAW_B*%
X107150000Y-98065000D03*
%TO.P,F4,2*%
%TO.N,/AC15_B*%
X107150000Y-120565000D03*
%TD*%
D14*
%TO.P,P5,1*%
%TO.N,/SW_A*%
X27620000Y-86255000D03*
%TD*%
%TO.P,P21,1*%
%TO.N,/GND15*%
X151760000Y-52415000D03*
%TD*%
D13*
%TO.P,R4,1*%
%TO.N,/ADJ*%
X101420000Y-63145000D03*
%TO.P,R4,2*%
%TO.N,/GND15*%
X111580000Y-63145000D03*
%TD*%
D22*
%TO.P,C14,1*%
%TO.N,/+15V*%
X142550000Y-47065000D03*
D13*
%TO.P,C14,2*%
%TO.N,/GND15*%
X142550000Y-49565000D03*
%TD*%
D24*
%TO.P,D2,1*%
%TO.N,/RAW15P*%
X83650000Y-85695000D03*
D25*
%TO.P,D2,2*%
%TO.N,/AC15_A*%
X83650000Y-90775000D03*
%TO.P,D2,3*%
%TO.N,/RAW15N*%
X88730000Y-90775000D03*
%TO.P,D2,4*%
%TO.N,/AC15_B*%
X88730000Y-85695000D03*
%TD*%
D14*
%TO.P,P15,1*%
%TO.N,/GND5*%
X151760000Y-116175000D03*
%TD*%
D15*
%TO.P,C9,1*%
%TO.N,/GND15*%
X112540000Y-90305000D03*
%TO.P,C9,2*%
%TO.N,/VB2*%
X112540000Y-82805000D03*
%TD*%
D22*
%TO.P,C16,1*%
%TO.N,/+5V*%
X142110000Y-77565000D03*
D13*
%TO.P,C16,2*%
%TO.N,/GND5*%
X142110000Y-80065000D03*
%TD*%
D15*
%TO.P,C2,1*%
%TO.N,/+5V*%
X58360000Y-53085000D03*
%TO.P,C2,2*%
%TO.N,/GND5*%
X68360000Y-53085000D03*
%TD*%
D22*
%TO.P,C15,1*%
%TO.N,/GND15*%
X142510000Y-57805000D03*
D13*
%TO.P,C15,2*%
%TO.N,/-15V*%
X142510000Y-60305000D03*
%TD*%
D15*
%TO.P,C10,1*%
%TO.N,/VB1*%
X94080000Y-90215000D03*
%TO.P,C10,2*%
%TO.N,/GND15*%
X94080000Y-82715000D03*
%TD*%
D14*
%TO.P,P14,1*%
%TO.N,/AC15_RAW_B*%
X98180000Y-131625000D03*
%TD*%
D26*
%TO.P,IC2,1*%
%TO.N,/GND15*%
X99880000Y-71795000D03*
D13*
%TO.P,IC2,2*%
%TO.N,/ADJ*%
X99880000Y-74335000D03*
%TO.P,IC2,3*%
%TO.N,/COMP1*%
X99880000Y-76875000D03*
%TO.P,IC2,4*%
%TO.N,/+15V*%
X99880000Y-79415000D03*
%TO.P,IC2,5*%
%TO.N,/COL1*%
X99880000Y-81955000D03*
%TO.P,IC2,6*%
%TO.N,unconnected-(IC2-NC-Pad6)*%
X99880000Y-84495000D03*
%TO.P,IC2,7*%
%TO.N,/VB1*%
X99880000Y-87035000D03*
%TO.P,IC2,8*%
%TO.N,/VB2*%
X107500000Y-87035000D03*
%TO.P,IC2,9*%
%TO.N,unconnected-(IC2-NC-Pad9)*%
X107500000Y-84495000D03*
%TO.P,IC2,10*%
%TO.N,/COL2*%
X107500000Y-81955000D03*
%TO.P,IC2,11*%
%TO.N,/-15V*%
X107500000Y-79415000D03*
%TO.P,IC2,12*%
%TO.N,/COMP2*%
X107500000Y-76875000D03*
%TO.P,IC2,13*%
%TO.N,unconnected-(IC2-NC-Pad13)*%
X107500000Y-74335000D03*
%TO.P,IC2,14*%
%TO.N,unconnected-(IC2-VOLTAGE_ADJUST-Pad14)*%
X107500000Y-71795000D03*
%TD*%
D22*
%TO.P,D4,1*%
%TO.N,/RAMV*%
X145000000Y-105955000D03*
D13*
%TO.P,D4,2*%
%TO.N,/BAT_P*%
X145000000Y-116115000D03*
%TD*%
D14*
%TO.P,P13,1*%
%TO.N,/GND15*%
X87790000Y-131625000D03*
%TD*%
D24*
%TO.P,D1,1*%
%TO.N,/RAW5*%
X62720000Y-83295000D03*
D25*
%TO.P,D1,2*%
%TO.N,Net-(D1-Pad2)*%
X62720000Y-88375000D03*
%TO.P,D1,3*%
%TO.N,/GND5*%
X67800000Y-88375000D03*
%TO.P,D1,4*%
%TO.N,/AC5_B*%
X67800000Y-83295000D03*
%TD*%
D14*
%TO.P,P17,1*%
%TO.N,/RAMV*%
X151760000Y-93435000D03*
%TD*%
%TO.P,P1,1*%
%TO.N,/MAINS_B*%
X27620000Y-48605000D03*
%TD*%
D18*
%TO.P,Q1,1*%
%TO.N,/VB1*%
X88730000Y-47135000D03*
D19*
%TO.P,Q1,2*%
%TO.N,/COL1*%
X91270000Y-47135000D03*
%TO.P,Q1,3*%
%TO.N,/RAW15P*%
X93810000Y-47135000D03*
%TD*%
D27*
%TO.N,/GND15*%
X97945000Y-88590000D03*
X96060000Y-94490000D03*
%TO.N,/GND5*%
X77625000Y-70175000D03*
%TO.N,/COMP2*%
X104930000Y-68270000D03*
%TO.N,/AC15_B*%
X100485000Y-105735000D03*
%TD*%
%TO.N,/-15V*%
D28*
X142495000Y-60290000D02*
X142510000Y-60305000D01*
X140114834Y-58744834D02*
X140160000Y-58790000D01*
X140160000Y-59190000D02*
X141260000Y-60290000D01*
X140160000Y-58790000D02*
X140160000Y-59190000D01*
D29*
X109320000Y-58765000D02*
X140069500Y-58765000D01*
D28*
X139260000Y-58765000D02*
X139280166Y-58744834D01*
X141260000Y-60290000D02*
X142495000Y-60290000D01*
X140069500Y-58765000D02*
X139260000Y-58765000D01*
X140089500Y-58745000D02*
X140069500Y-58765000D01*
X139280166Y-58744834D02*
X140114834Y-58744834D01*
%TO.N,/GND15*%
D30*
X96060000Y-94490000D02*
X96060000Y-91990000D01*
X115822200Y-89762800D02*
X121342800Y-84242200D01*
X112540000Y-90305000D02*
X114054500Y-90495000D01*
X96060000Y-91990000D02*
X97945000Y-90105000D01*
X97945000Y-90105000D02*
X97945000Y-88590000D01*
X97945000Y-87720500D02*
X97945000Y-88590000D01*
X99880000Y-71795000D02*
X94867200Y-77062800D01*
X128310000Y-83455000D02*
X123110500Y-83510000D01*
X94080000Y-82715000D02*
X97212800Y-85952800D01*
X94080000Y-82715000D02*
X94135000Y-78830500D01*
X97212800Y-85952800D02*
G75*
G02*
X97945005Y-87720500I-1767700J-1767700D01*
G01*
X94135000Y-78830500D02*
G75*
G02*
X94867204Y-77062804I2499900J0D01*
G01*
X121342800Y-84242200D02*
G75*
G02*
X123110500Y-83509995I1767700J-1767700D01*
G01*
X114054500Y-90495000D02*
G75*
G03*
X115822196Y-89762796I0J2499900D01*
G01*
%TO.N,/RAW15P*%
X104295000Y-62154500D02*
X104295000Y-58355100D01*
X103672700Y-56852700D02*
X103647300Y-56827300D01*
X82607800Y-56937200D02*
X77087200Y-62457800D01*
X116262800Y-75157800D02*
X105027200Y-63922200D01*
X83650000Y-85695000D02*
X78855000Y-85415000D01*
X128310000Y-75955000D02*
X118030500Y-75890000D01*
X76355000Y-64225500D02*
X76355000Y-82915000D01*
X102144900Y-56205000D02*
X84375500Y-56205000D01*
X84375500Y-56205000D02*
G75*
G03*
X82607804Y-56937204I0J-2499900D01*
G01*
X104295000Y-58355100D02*
G75*
G03*
X103672728Y-56852672I-2124400J200D01*
G01*
X76355000Y-82915000D02*
G75*
G03*
X78855000Y-85415000I2499900J-100D01*
G01*
X103647300Y-56827300D02*
G75*
G03*
X102144900Y-56205039I-1502200J-1502100D01*
G01*
X77087200Y-62457800D02*
G75*
G03*
X76354995Y-64225500I1767700J-1767700D01*
G01*
X105027200Y-63922200D02*
G75*
G02*
X104294995Y-62154500I1767700J1767700D01*
G01*
X118030500Y-75890000D02*
G75*
G02*
X116262804Y-75157796I0J2499900D01*
G01*
%TO.N,/AC5_B*%
X66350000Y-131625000D02*
X65560000Y-87085500D01*
X67800000Y-83295000D02*
X66292200Y-85317800D01*
X66292200Y-85317800D02*
G75*
G03*
X65559995Y-87085500I1767700J-1767700D01*
G01*
%TO.N,/+5V*%
X141359500Y-53665000D02*
X72310500Y-53665000D01*
X144300000Y-74854500D02*
X144300000Y-56605500D01*
X142110000Y-77565000D02*
X143567800Y-76622200D01*
X143567800Y-54837800D02*
X143127200Y-54397200D01*
X58360000Y-53085000D02*
X60382800Y-54837800D01*
X70542800Y-54397200D02*
X70102200Y-54837800D01*
X68334500Y-55570000D02*
X62150500Y-55570000D01*
X62150500Y-55570000D02*
G75*
G02*
X60382804Y-54837796I0J2499900D01*
G01*
X143127200Y-54397200D02*
G75*
G03*
X141359500Y-53664995I-1767700J-1767700D01*
G01*
X72310500Y-53665000D02*
G75*
G03*
X70542804Y-54397204I0J-2499900D01*
G01*
X143567800Y-76622200D02*
G75*
G03*
X144300005Y-74854500I-1767700J1767700D01*
G01*
X144300000Y-56605500D02*
G75*
G03*
X143567796Y-54837804I-2499900J0D01*
G01*
X70102200Y-54837800D02*
G75*
G02*
X68334500Y-55570005I-1767700J1767700D01*
G01*
%TO.N,/GND5*%
D28*
X108354873Y-70184873D02*
X108322728Y-70184873D01*
X109362300Y-79687300D02*
X109317244Y-79641580D01*
X108460000Y-70079746D02*
X108354873Y-70184873D01*
X109360000Y-77564900D02*
X109360000Y-70690000D01*
X108460000Y-69890000D02*
X77910000Y-69890000D01*
X109360000Y-70690000D02*
X109260000Y-70690000D01*
X108460000Y-69890000D02*
X108460000Y-70079746D01*
X108312603Y-70175278D02*
X108312603Y-70037397D01*
X109260000Y-77664900D02*
X109360000Y-77564900D01*
X77910000Y-69890000D02*
X77625000Y-70175000D01*
X109317244Y-79641580D02*
X109260000Y-79584336D01*
X109260000Y-79584336D02*
X109260000Y-77664900D01*
X109260000Y-70690000D02*
X108460000Y-69890000D01*
X142110000Y-80065000D02*
X110890100Y-80335000D01*
X109387700Y-79712700D02*
X109362300Y-79687300D01*
X108312603Y-70037397D02*
X108460000Y-69890000D01*
X110890100Y-80335000D02*
G75*
G02*
X109387672Y-79712728I-200J2124400D01*
G01*
%TO.N,/COMP2*%
D30*
X101660000Y-68270000D02*
X104930000Y-68270000D01*
X101660000Y-65985000D02*
X101660000Y-68270000D01*
%TO.N,/AC15_B*%
X90960000Y-88990500D02*
X90960000Y-93993800D01*
X93085000Y-96430000D02*
X99752800Y-103097800D01*
X100485000Y-104865500D02*
X100485000Y-105735000D01*
X93085000Y-96430000D02*
X90960000Y-93993800D01*
X88730000Y-85695000D02*
X90227800Y-87222800D01*
X90227800Y-87222800D02*
G75*
G02*
X90960005Y-88990500I-1767700J-1767700D01*
G01*
X99752800Y-103097800D02*
G75*
G02*
X100485005Y-104865500I-1767700J-1767700D01*
G01*
%TD*%
M02*
