M48
; DRILL file KiCad 10.0.2 date 2026-10-06T22:25:47
; FORMAT={-:-/ absolute / metric / decimal}
; #@! TF.CreationDate,2026-10-06T22:25:47+02:00
; #@! TF.GenerationSoftware,Kicad,Pcbnew,10.0.2
; #@! TF.FileFunction,Plated,1,2,PTH
FMAT,2
METRIC
; #@! TA.AperFunction,Plated,PTH,ViaDrill
T1C0.300
; #@! TA.AperFunction,Plated,PTH,ComponentDrill
T2C0.800
; #@! TA.AperFunction,Plated,PTH,ComponentDrill
T3C1.000
; #@! TA.AperFunction,Plated,PTH,ComponentDrill
T4C1.100
; #@! TA.AperFunction,Plated,PTH,ComponentDrill
T5C1.200
; #@! TA.AperFunction,Plated,PTH,ComponentDrill
T6C1.600
%
G90
G05
T1
X36.83Y-26.035
X38.1Y-26.035
X43.815Y-81.915
X45.72Y-81.915
X46.99Y-95.885
X46.99Y-97.155
X56.515Y-67.945
X57.785Y-67.945
X61.595Y-64.77
X63.5Y-80.01
X63.5Y-83.82
X65.405Y-81.915
X65.405Y-83.185
X73.66Y-48.895
X74.295Y-25.4
X74.295Y-83.185
X74.93Y-48.895
X76.2Y-83.185
X77.47Y-52.07
X77.47Y-61.595
X77.47Y-66.675
X78.105Y-72.39
X78.105Y-75.565
X78.74Y-67.945
X79.375Y-41.275
X79.375Y-42.545
X80.01Y-81.915
X80.01Y-83.82
X81.915Y-47.625
X90.805Y-42.545
X91.44Y-34.925
X91.44Y-36.195
X96.52Y-66.04
X99.06Y-41.275
X99.06Y-66.04
X101.6Y-41.275
X102.87Y-71.755
X103.505Y-62.865
X104.14Y-37.465
X104.14Y-71.755
X104.775Y-62.865
X105.41Y-37.465
X117.475Y-61.595
X118.745Y-61.595
T2
X53.22Y-26.44
X60.84Y-26.44
X68.6Y-48.02
X68.6Y-55.64
X69.18Y-42.7
X74.62Y-46.64
X76.8Y-42.7
X77.12Y-46.64
X80.04Y-51.15
X80.04Y-53.69
X80.04Y-56.23
X80.04Y-58.77
X80.04Y-61.31
X80.04Y-63.85
X80.04Y-66.39
X81.82Y-45.04
X84.32Y-45.04
X86.66Y-42.7
X87.66Y-51.15
X87.66Y-53.69
X87.66Y-56.23
X87.66Y-58.77
X87.66Y-61.31
X87.66Y-63.85
X87.66Y-66.39
X93.03Y-49.6
X93.03Y-57.22
X94.28Y-42.7
X94.39Y-29.1
X94.39Y-36.72
X97.87Y-61.14
X97.87Y-68.76
X120.57Y-85.71
X120.57Y-95.87
X122.27Y-56.92
X122.27Y-59.42
X122.67Y-37.16
X122.67Y-39.66
X122.71Y-26.42
X122.71Y-28.92
X125.16Y-85.31
X125.16Y-95.47
T3
X38.17Y-32.04
X42.88Y-62.65
X42.88Y-67.73
X43.87Y-56.25
X45.67Y-32.04
X47.96Y-62.65
X47.96Y-67.73
X51.37Y-56.25
X63.81Y-65.05
X63.81Y-70.13
X68.57Y-38.52
X68.89Y-65.05
X68.89Y-70.13
X74.24Y-62.07
X74.24Y-69.57
X76.07Y-38.52
X81.98Y-38.12
X82.04Y-30.26
X87.04Y-30.26
X89.48Y-38.12
X92.7Y-62.16
X92.7Y-69.66
T4
X32.06Y-28.69
X34.6Y-28.69
X37.14Y-28.69
X68.89Y-26.49
X71.43Y-26.49
X73.97Y-26.49
X105.3Y-27.29
X107.84Y-27.29
X110.38Y-27.29
T5
X23.74Y-43.16
X23.74Y-65.66
X47.46Y-45.19
X52.46Y-45.19
X107.51Y-35.15
X107.51Y-42.65
X108.47Y-55.31
X108.47Y-62.81
T6
X7.78Y-27.96
X7.78Y-34.98
X7.78Y-46.57
X7.78Y-53.75
X7.78Y-65.61
X7.78Y-77.68
X7.78Y-84.32
X7.78Y-96.56
X22.2Y-110.98
X23.94Y-76.02
X23.94Y-98.52
X35.96Y-110.98
X46.51Y-110.98
X52.77Y-78.42
X52.77Y-100.92
X57.07Y-110.98
X67.95Y-110.98
X70.3Y-77.82
X70.3Y-100.32
X78.34Y-110.98
X87.51Y-78.02
X87.51Y-100.52
X131.92Y-22.3
X131.92Y-31.77
X131.92Y-41.34
X131.92Y-53.37
X131.92Y-63.27
X131.92Y-72.79
X131.92Y-86.22
X131.92Y-95.53
M30
