%TF.GenerationSoftware,KiCad,Pcbnew,10.0.2*%
%TF.CreationDate,2026-10-06T21:33:01+02:00*%
%TF.ProjectId,TR-808PSU_Rev0.1,54522d38-3038-4505-9355-5f526576302e,rev?*%
%TF.SameCoordinates,Original*%
%TF.FileFunction,Legend,Top*%
%TF.FilePolarity,Positive*%
%FSLAX46Y46*%
G04 Gerber Fmt 4.6, Leading zero omitted, Abs format (unit mm)*
G04 Created by KiCad (PCBNEW 10.0.2) date 2026-10-06 21:33:01*
%MOMM*%
%LPD*%
G01*
G04 APERTURE LIST*
%ADD10C,0.186667*%
%ADD11C,0.150000*%
%ADD12C,0.120000*%
G04 APERTURE END LIST*
D10*
X61350000Y-117437959D02*
X62150000Y-117437959D01*
X61750000Y-118837959D02*
X61750000Y-117437959D01*
X63416667Y-118837959D02*
X62950000Y-118171293D01*
X62616667Y-118837959D02*
X62616667Y-117437959D01*
X62616667Y-117437959D02*
X63150000Y-117437959D01*
X63150000Y-117437959D02*
X63283334Y-117504626D01*
X63283334Y-117504626D02*
X63350000Y-117571293D01*
X63350000Y-117571293D02*
X63416667Y-117704626D01*
X63416667Y-117704626D02*
X63416667Y-117904626D01*
X63416667Y-117904626D02*
X63350000Y-118037959D01*
X63350000Y-118037959D02*
X63283334Y-118104626D01*
X63283334Y-118104626D02*
X63150000Y-118171293D01*
X63150000Y-118171293D02*
X62616667Y-118171293D01*
X64016667Y-118304626D02*
X65083334Y-118304626D01*
X65950000Y-118037959D02*
X65816667Y-117971293D01*
X65816667Y-117971293D02*
X65750000Y-117904626D01*
X65750000Y-117904626D02*
X65683333Y-117771293D01*
X65683333Y-117771293D02*
X65683333Y-117704626D01*
X65683333Y-117704626D02*
X65750000Y-117571293D01*
X65750000Y-117571293D02*
X65816667Y-117504626D01*
X65816667Y-117504626D02*
X65950000Y-117437959D01*
X65950000Y-117437959D02*
X66216667Y-117437959D01*
X66216667Y-117437959D02*
X66350000Y-117504626D01*
X66350000Y-117504626D02*
X66416667Y-117571293D01*
X66416667Y-117571293D02*
X66483333Y-117704626D01*
X66483333Y-117704626D02*
X66483333Y-117771293D01*
X66483333Y-117771293D02*
X66416667Y-117904626D01*
X66416667Y-117904626D02*
X66350000Y-117971293D01*
X66350000Y-117971293D02*
X66216667Y-118037959D01*
X66216667Y-118037959D02*
X65950000Y-118037959D01*
X65950000Y-118037959D02*
X65816667Y-118104626D01*
X65816667Y-118104626D02*
X65750000Y-118171293D01*
X65750000Y-118171293D02*
X65683333Y-118304626D01*
X65683333Y-118304626D02*
X65683333Y-118571293D01*
X65683333Y-118571293D02*
X65750000Y-118704626D01*
X65750000Y-118704626D02*
X65816667Y-118771293D01*
X65816667Y-118771293D02*
X65950000Y-118837959D01*
X65950000Y-118837959D02*
X66216667Y-118837959D01*
X66216667Y-118837959D02*
X66350000Y-118771293D01*
X66350000Y-118771293D02*
X66416667Y-118704626D01*
X66416667Y-118704626D02*
X66483333Y-118571293D01*
X66483333Y-118571293D02*
X66483333Y-118304626D01*
X66483333Y-118304626D02*
X66416667Y-118171293D01*
X66416667Y-118171293D02*
X66350000Y-118104626D01*
X66350000Y-118104626D02*
X66216667Y-118037959D01*
X67350000Y-117437959D02*
X67483333Y-117437959D01*
X67483333Y-117437959D02*
X67616666Y-117504626D01*
X67616666Y-117504626D02*
X67683333Y-117571293D01*
X67683333Y-117571293D02*
X67750000Y-117704626D01*
X67750000Y-117704626D02*
X67816666Y-117971293D01*
X67816666Y-117971293D02*
X67816666Y-118304626D01*
X67816666Y-118304626D02*
X67750000Y-118571293D01*
X67750000Y-118571293D02*
X67683333Y-118704626D01*
X67683333Y-118704626D02*
X67616666Y-118771293D01*
X67616666Y-118771293D02*
X67483333Y-118837959D01*
X67483333Y-118837959D02*
X67350000Y-118837959D01*
X67350000Y-118837959D02*
X67216666Y-118771293D01*
X67216666Y-118771293D02*
X67150000Y-118704626D01*
X67150000Y-118704626D02*
X67083333Y-118571293D01*
X67083333Y-118571293D02*
X67016666Y-118304626D01*
X67016666Y-118304626D02*
X67016666Y-117971293D01*
X67016666Y-117971293D02*
X67083333Y-117704626D01*
X67083333Y-117704626D02*
X67150000Y-117571293D01*
X67150000Y-117571293D02*
X67216666Y-117504626D01*
X67216666Y-117504626D02*
X67350000Y-117437959D01*
X68616666Y-118037959D02*
X68483333Y-117971293D01*
X68483333Y-117971293D02*
X68416666Y-117904626D01*
X68416666Y-117904626D02*
X68349999Y-117771293D01*
X68349999Y-117771293D02*
X68349999Y-117704626D01*
X68349999Y-117704626D02*
X68416666Y-117571293D01*
X68416666Y-117571293D02*
X68483333Y-117504626D01*
X68483333Y-117504626D02*
X68616666Y-117437959D01*
X68616666Y-117437959D02*
X68883333Y-117437959D01*
X68883333Y-117437959D02*
X69016666Y-117504626D01*
X69016666Y-117504626D02*
X69083333Y-117571293D01*
X69083333Y-117571293D02*
X69149999Y-117704626D01*
X69149999Y-117704626D02*
X69149999Y-117771293D01*
X69149999Y-117771293D02*
X69083333Y-117904626D01*
X69083333Y-117904626D02*
X69016666Y-117971293D01*
X69016666Y-117971293D02*
X68883333Y-118037959D01*
X68883333Y-118037959D02*
X68616666Y-118037959D01*
X68616666Y-118037959D02*
X68483333Y-118104626D01*
X68483333Y-118104626D02*
X68416666Y-118171293D01*
X68416666Y-118171293D02*
X68349999Y-118304626D01*
X68349999Y-118304626D02*
X68349999Y-118571293D01*
X68349999Y-118571293D02*
X68416666Y-118704626D01*
X68416666Y-118704626D02*
X68483333Y-118771293D01*
X68483333Y-118771293D02*
X68616666Y-118837959D01*
X68616666Y-118837959D02*
X68883333Y-118837959D01*
X68883333Y-118837959D02*
X69016666Y-118771293D01*
X69016666Y-118771293D02*
X69083333Y-118704626D01*
X69083333Y-118704626D02*
X69149999Y-118571293D01*
X69149999Y-118571293D02*
X69149999Y-118304626D01*
X69149999Y-118304626D02*
X69083333Y-118171293D01*
X69083333Y-118171293D02*
X69016666Y-118104626D01*
X69016666Y-118104626D02*
X68883333Y-118037959D01*
X69749999Y-118837959D02*
X69749999Y-117437959D01*
X69749999Y-117437959D02*
X70283332Y-117437959D01*
X70283332Y-117437959D02*
X70416666Y-117504626D01*
X70416666Y-117504626D02*
X70483332Y-117571293D01*
X70483332Y-117571293D02*
X70549999Y-117704626D01*
X70549999Y-117704626D02*
X70549999Y-117904626D01*
X70549999Y-117904626D02*
X70483332Y-118037959D01*
X70483332Y-118037959D02*
X70416666Y-118104626D01*
X70416666Y-118104626D02*
X70283332Y-118171293D01*
X70283332Y-118171293D02*
X69749999Y-118171293D01*
X71083332Y-118771293D02*
X71283332Y-118837959D01*
X71283332Y-118837959D02*
X71616666Y-118837959D01*
X71616666Y-118837959D02*
X71749999Y-118771293D01*
X71749999Y-118771293D02*
X71816666Y-118704626D01*
X71816666Y-118704626D02*
X71883332Y-118571293D01*
X71883332Y-118571293D02*
X71883332Y-118437959D01*
X71883332Y-118437959D02*
X71816666Y-118304626D01*
X71816666Y-118304626D02*
X71749999Y-118237959D01*
X71749999Y-118237959D02*
X71616666Y-118171293D01*
X71616666Y-118171293D02*
X71349999Y-118104626D01*
X71349999Y-118104626D02*
X71216666Y-118037959D01*
X71216666Y-118037959D02*
X71149999Y-117971293D01*
X71149999Y-117971293D02*
X71083332Y-117837959D01*
X71083332Y-117837959D02*
X71083332Y-117704626D01*
X71083332Y-117704626D02*
X71149999Y-117571293D01*
X71149999Y-117571293D02*
X71216666Y-117504626D01*
X71216666Y-117504626D02*
X71349999Y-117437959D01*
X71349999Y-117437959D02*
X71683332Y-117437959D01*
X71683332Y-117437959D02*
X71883332Y-117504626D01*
X72483332Y-117437959D02*
X72483332Y-118571293D01*
X72483332Y-118571293D02*
X72549999Y-118704626D01*
X72549999Y-118704626D02*
X72616665Y-118771293D01*
X72616665Y-118771293D02*
X72749999Y-118837959D01*
X72749999Y-118837959D02*
X73016665Y-118837959D01*
X73016665Y-118837959D02*
X73149999Y-118771293D01*
X73149999Y-118771293D02*
X73216665Y-118704626D01*
X73216665Y-118704626D02*
X73283332Y-118571293D01*
X73283332Y-118571293D02*
X73283332Y-117437959D01*
X75816666Y-118837959D02*
X75349999Y-118171293D01*
X75016666Y-118837959D02*
X75016666Y-117437959D01*
X75016666Y-117437959D02*
X75549999Y-117437959D01*
X75549999Y-117437959D02*
X75683333Y-117504626D01*
X75683333Y-117504626D02*
X75749999Y-117571293D01*
X75749999Y-117571293D02*
X75816666Y-117704626D01*
X75816666Y-117704626D02*
X75816666Y-117904626D01*
X75816666Y-117904626D02*
X75749999Y-118037959D01*
X75749999Y-118037959D02*
X75683333Y-118104626D01*
X75683333Y-118104626D02*
X75549999Y-118171293D01*
X75549999Y-118171293D02*
X75016666Y-118171293D01*
X76949999Y-118771293D02*
X76816666Y-118837959D01*
X76816666Y-118837959D02*
X76549999Y-118837959D01*
X76549999Y-118837959D02*
X76416666Y-118771293D01*
X76416666Y-118771293D02*
X76349999Y-118637959D01*
X76349999Y-118637959D02*
X76349999Y-118104626D01*
X76349999Y-118104626D02*
X76416666Y-117971293D01*
X76416666Y-117971293D02*
X76549999Y-117904626D01*
X76549999Y-117904626D02*
X76816666Y-117904626D01*
X76816666Y-117904626D02*
X76949999Y-117971293D01*
X76949999Y-117971293D02*
X77016666Y-118104626D01*
X77016666Y-118104626D02*
X77016666Y-118237959D01*
X77016666Y-118237959D02*
X76349999Y-118371293D01*
X77483333Y-117904626D02*
X77816666Y-118837959D01*
X77816666Y-118837959D02*
X78149999Y-117904626D01*
X78950000Y-117437959D02*
X79083333Y-117437959D01*
X79083333Y-117437959D02*
X79216666Y-117504626D01*
X79216666Y-117504626D02*
X79283333Y-117571293D01*
X79283333Y-117571293D02*
X79350000Y-117704626D01*
X79350000Y-117704626D02*
X79416666Y-117971293D01*
X79416666Y-117971293D02*
X79416666Y-118304626D01*
X79416666Y-118304626D02*
X79350000Y-118571293D01*
X79350000Y-118571293D02*
X79283333Y-118704626D01*
X79283333Y-118704626D02*
X79216666Y-118771293D01*
X79216666Y-118771293D02*
X79083333Y-118837959D01*
X79083333Y-118837959D02*
X78950000Y-118837959D01*
X78950000Y-118837959D02*
X78816666Y-118771293D01*
X78816666Y-118771293D02*
X78750000Y-118704626D01*
X78750000Y-118704626D02*
X78683333Y-118571293D01*
X78683333Y-118571293D02*
X78616666Y-118304626D01*
X78616666Y-118304626D02*
X78616666Y-117971293D01*
X78616666Y-117971293D02*
X78683333Y-117704626D01*
X78683333Y-117704626D02*
X78750000Y-117571293D01*
X78750000Y-117571293D02*
X78816666Y-117504626D01*
X78816666Y-117504626D02*
X78950000Y-117437959D01*
X80016666Y-118704626D02*
X80083333Y-118771293D01*
X80083333Y-118771293D02*
X80016666Y-118837959D01*
X80016666Y-118837959D02*
X79949999Y-118771293D01*
X79949999Y-118771293D02*
X80016666Y-118704626D01*
X80016666Y-118704626D02*
X80016666Y-118837959D01*
X81416666Y-118837959D02*
X80616666Y-118837959D01*
X81016666Y-118837959D02*
X81016666Y-117437959D01*
X81016666Y-117437959D02*
X80883333Y-117637959D01*
X80883333Y-117637959D02*
X80750000Y-117771293D01*
X80750000Y-117771293D02*
X80616666Y-117837959D01*
D11*
X125898095Y-86164819D02*
X125898095Y-85164819D01*
X126469523Y-86164819D02*
X126040952Y-85593390D01*
X126469523Y-85164819D02*
X125898095Y-85736247D01*
X121708095Y-86164819D02*
X121708095Y-85164819D01*
X122279523Y-86164819D02*
X121850952Y-85593390D01*
X122279523Y-85164819D02*
X121708095Y-85736247D01*
%TO.C,C16*%
D12*
X121630000Y-58010000D02*
X120101000Y-58010000D01*
X121630000Y-58050000D02*
X120105000Y-58050000D01*
X121630000Y-58090000D02*
X120110000Y-58090000D01*
X121630000Y-58130000D02*
X120115000Y-58130000D01*
X121630000Y-58170000D02*
X120121000Y-58170000D01*
X121630000Y-58210000D02*
X120127000Y-58210000D01*
X121630000Y-58250000D02*
X120134000Y-58250000D01*
X121630000Y-58290000D02*
X120142000Y-58290000D01*
X121630000Y-58330000D02*
X120151000Y-58330000D01*
X121630000Y-58370000D02*
X120160000Y-58370000D01*
X121630000Y-58410000D02*
X120169000Y-58410000D01*
X121630000Y-58450000D02*
X120180000Y-58450000D01*
X121630000Y-58490000D02*
X120191000Y-58490000D01*
X121630000Y-58530000D02*
X120203000Y-58530000D01*
X121630000Y-58570000D02*
X120215000Y-58570000D01*
X121630000Y-58610000D02*
X120228000Y-58610000D01*
X121630000Y-58650000D02*
X120242000Y-58650000D01*
X121630000Y-58690000D02*
X120257000Y-58690000D01*
X121630000Y-58730000D02*
X120272000Y-58730000D01*
X121630000Y-58770000D02*
X120288000Y-58770000D01*
X121630000Y-58810000D02*
X120305000Y-58810000D01*
X121630000Y-58850000D02*
X120323000Y-58850000D01*
X121630000Y-58890000D02*
X120341000Y-58890000D01*
X121630000Y-58930000D02*
X120361000Y-58930000D01*
X121630000Y-58970000D02*
X120381000Y-58970000D01*
X121630000Y-59010000D02*
X120402000Y-59010000D01*
X121630000Y-59050000D02*
X120424000Y-59050000D01*
X121630000Y-59090000D02*
X120447000Y-59090000D01*
X121630000Y-59130000D02*
X120471000Y-59130000D01*
X121630000Y-59170000D02*
X120495000Y-59170000D01*
X121630000Y-59210000D02*
X120521000Y-59210000D01*
X121630000Y-59250000D02*
X120548000Y-59250000D01*
X121630000Y-59290000D02*
X120576000Y-59290000D01*
X121630000Y-59330000D02*
X120605000Y-59330000D01*
X121630000Y-59370000D02*
X120635000Y-59370000D01*
X121630000Y-59410000D02*
X120667000Y-59410000D01*
X121630000Y-59450000D02*
X120700000Y-59450000D01*
X121630000Y-59490000D02*
X120734000Y-59490000D01*
X121630000Y-59530000D02*
X120769000Y-59530000D01*
X121630000Y-59570000D02*
X120806000Y-59570000D01*
X121630000Y-59610000D02*
X120845000Y-59610000D01*
X121630000Y-59650000D02*
X120885000Y-59650000D01*
X121630000Y-59690000D02*
X120927000Y-59690000D01*
X121630000Y-59730000D02*
X120971000Y-59730000D01*
X121630000Y-59770000D02*
X121018000Y-59770000D01*
X121630000Y-59810000D02*
X121066000Y-59810000D01*
X121630000Y-59850000D02*
X121117000Y-59850000D01*
X121630000Y-59890000D02*
X121171000Y-59890000D01*
X121630000Y-59930000D02*
X121227000Y-59930000D01*
X121630000Y-59970000D02*
X121287000Y-59970000D01*
X121630000Y-60010000D02*
X121351000Y-60010000D01*
X121630000Y-60050000D02*
X121419000Y-60050000D01*
X122953000Y-60370000D02*
X122387000Y-60370000D01*
X123187000Y-60330000D02*
X122153000Y-60330000D01*
X123347000Y-60290000D02*
X121993000Y-60290000D01*
X123475000Y-60250000D02*
X121865000Y-60250000D01*
X123584000Y-60210000D02*
X121756000Y-60210000D01*
X123681000Y-60170000D02*
X121659000Y-60170000D01*
X123768000Y-60130000D02*
X121572000Y-60130000D01*
X123847000Y-60090000D02*
X121493000Y-60090000D01*
X123921000Y-60050000D02*
X123710000Y-60050000D01*
X123989000Y-60010000D02*
X123710000Y-60010000D01*
X124053000Y-59970000D02*
X123710000Y-59970000D01*
X124113000Y-59930000D02*
X123710000Y-59930000D01*
X124145000Y-54965225D02*
X124145000Y-55465225D01*
X124169000Y-59890000D02*
X123710000Y-59890000D01*
X124223000Y-59850000D02*
X123710000Y-59850000D01*
X124274000Y-59810000D02*
X123710000Y-59810000D01*
X124322000Y-59770000D02*
X123710000Y-59770000D01*
X124369000Y-59730000D02*
X123710000Y-59730000D01*
X124395000Y-55215225D02*
X123895000Y-55215225D01*
X124413000Y-59690000D02*
X123710000Y-59690000D01*
X124455000Y-59650000D02*
X123710000Y-59650000D01*
X124495000Y-59610000D02*
X123710000Y-59610000D01*
X124534000Y-59570000D02*
X123710000Y-59570000D01*
X124571000Y-59530000D02*
X123710000Y-59530000D01*
X124606000Y-59490000D02*
X123710000Y-59490000D01*
X124640000Y-59450000D02*
X123710000Y-59450000D01*
X124673000Y-59410000D02*
X123710000Y-59410000D01*
X124705000Y-59370000D02*
X123710000Y-59370000D01*
X124735000Y-59330000D02*
X123710000Y-59330000D01*
X124764000Y-59290000D02*
X123710000Y-59290000D01*
X124792000Y-59250000D02*
X123710000Y-59250000D01*
X124819000Y-59210000D02*
X123710000Y-59210000D01*
X124845000Y-59170000D02*
X123710000Y-59170000D01*
X124869000Y-59130000D02*
X123710000Y-59130000D01*
X124893000Y-59090000D02*
X123710000Y-59090000D01*
X124916000Y-59050000D02*
X123710000Y-59050000D01*
X124938000Y-59010000D02*
X123710000Y-59010000D01*
X124959000Y-58970000D02*
X123710000Y-58970000D01*
X124979000Y-58930000D02*
X123710000Y-58930000D01*
X124999000Y-58890000D02*
X123710000Y-58890000D01*
X125017000Y-58850000D02*
X123710000Y-58850000D01*
X125035000Y-58810000D02*
X123710000Y-58810000D01*
X125052000Y-58770000D02*
X123710000Y-58770000D01*
X125068000Y-58730000D02*
X123710000Y-58730000D01*
X125083000Y-58690000D02*
X123710000Y-58690000D01*
X125098000Y-58650000D02*
X123710000Y-58650000D01*
X125112000Y-58610000D02*
X123710000Y-58610000D01*
X125125000Y-58570000D02*
X123710000Y-58570000D01*
X125137000Y-58530000D02*
X123710000Y-58530000D01*
X125149000Y-58490000D02*
X123710000Y-58490000D01*
X125160000Y-58450000D02*
X123710000Y-58450000D01*
X125171000Y-58410000D02*
X123710000Y-58410000D01*
X125180000Y-58370000D02*
X123710000Y-58370000D01*
X125189000Y-58330000D02*
X123710000Y-58330000D01*
X125198000Y-58290000D02*
X123710000Y-58290000D01*
X125206000Y-58250000D02*
X123710000Y-58250000D01*
X125213000Y-58210000D02*
X123710000Y-58210000D01*
X125219000Y-58170000D02*
X123710000Y-58170000D01*
X125225000Y-58130000D02*
X123710000Y-58130000D01*
X125230000Y-58090000D02*
X123710000Y-58090000D01*
X125235000Y-58050000D02*
X123710000Y-58050000D01*
X125239000Y-58010000D02*
X123710000Y-58010000D01*
X125242000Y-57970000D02*
X120098000Y-57970000D01*
X125245000Y-57930000D02*
X120095000Y-57930000D01*
X125247000Y-57890000D02*
X120093000Y-57890000D01*
X125249000Y-57850000D02*
X120091000Y-57850000D01*
X125250000Y-57770000D02*
X120090000Y-57770000D01*
X125250000Y-57810000D02*
X120090000Y-57810000D01*
X125290000Y-57770000D02*
G75*
G02*
X120050000Y-57770000I-2620000J0D01*
G01*
X120050000Y-57770000D02*
G75*
G02*
X125290000Y-57770000I2620000J0D01*
G01*
%TO.C,R7*%
X54560000Y-26270000D02*
X61100000Y-26270000D01*
X54560000Y-26600000D02*
X54560000Y-26270000D01*
X54560000Y-28680000D02*
X54560000Y-29010000D01*
X54560000Y-29010000D02*
X61100000Y-29010000D01*
X61100000Y-26270000D02*
X61100000Y-26600000D01*
X61100000Y-29010000D02*
X61100000Y-28680000D01*
%TO.C,R2*%
X67230000Y-47760000D02*
X67560000Y-47760000D01*
X67230000Y-54300000D02*
X67230000Y-47760000D01*
X67560000Y-54300000D02*
X67230000Y-54300000D01*
X69640000Y-54300000D02*
X69970000Y-54300000D01*
X69970000Y-47760000D02*
X69640000Y-47760000D01*
X69970000Y-54300000D02*
X69970000Y-47760000D01*
%TO.C,R6*%
X91820000Y-29640000D02*
X92150000Y-29640000D01*
X91820000Y-36180000D02*
X91820000Y-29640000D01*
X92150000Y-36180000D02*
X91820000Y-36180000D01*
X94230000Y-36180000D02*
X94560000Y-36180000D01*
X94560000Y-29640000D02*
X94230000Y-29640000D01*
X94560000Y-36180000D02*
X94560000Y-29640000D01*
%TO.C,R1*%
X96500000Y-61680000D02*
X96830000Y-61680000D01*
X96500000Y-68220000D02*
X96500000Y-61680000D01*
X96830000Y-68220000D02*
X96500000Y-68220000D01*
X98910000Y-68220000D02*
X99240000Y-68220000D01*
X99240000Y-61680000D02*
X98910000Y-61680000D01*
X99240000Y-68220000D02*
X99240000Y-61680000D01*
%TO.C,C1*%
X19570000Y-38040000D02*
X28310000Y-38040000D01*
X19570000Y-64780000D02*
X19570000Y-38040000D01*
X28310000Y-38040000D02*
X28310000Y-64780000D01*
X28310000Y-64780000D02*
X19570000Y-64780000D01*
%TO.C,C4*%
X41950000Y-54830000D02*
X52490000Y-54830000D01*
X41950000Y-60070000D02*
X41950000Y-54830000D01*
X52490000Y-54830000D02*
X52490000Y-60070000D01*
X52490000Y-60070000D02*
X41950000Y-60070000D01*
%TO.C,C10*%
X70820000Y-60550000D02*
X76060000Y-60550000D01*
X70820000Y-71090000D02*
X70820000Y-60550000D01*
X76060000Y-60550000D02*
X76060000Y-71090000D01*
X76060000Y-71090000D02*
X70820000Y-71090000D01*
%TO.C,C6*%
X80460000Y-35900000D02*
X91000000Y-35900000D01*
X80460000Y-41140000D02*
X80460000Y-35900000D01*
X91000000Y-35900000D02*
X91000000Y-41140000D01*
X91000000Y-41140000D02*
X80460000Y-41140000D01*
%TO.C,C11*%
X78460354Y-27585000D02*
X79460354Y-27585000D01*
X78960354Y-27085000D02*
X78960354Y-28085000D01*
X83940000Y-25380000D02*
X83940000Y-35540000D01*
X83980000Y-25380000D02*
X83980000Y-35540000D01*
X84020000Y-25381000D02*
X84020000Y-35539000D01*
X84060000Y-25381000D02*
X84060000Y-35539000D01*
X84100000Y-25383000D02*
X84100000Y-35537000D01*
X84140000Y-25384000D02*
X84140000Y-35536000D01*
X84180000Y-25386000D02*
X84180000Y-35534000D01*
X84220000Y-25388000D02*
X84220000Y-35532000D01*
X84260000Y-25390000D02*
X84260000Y-35530000D01*
X84300000Y-25393000D02*
X84300000Y-35527000D01*
X84340000Y-25396000D02*
X84340000Y-35524000D01*
X84380000Y-25399000D02*
X84380000Y-35521000D01*
X84420000Y-25403000D02*
X84420000Y-35517000D01*
X84460000Y-25406000D02*
X84460000Y-35514000D01*
X84500000Y-25411000D02*
X84500000Y-35509000D01*
X84540000Y-25415000D02*
X84540000Y-35505000D01*
X84580000Y-25420000D02*
X84580000Y-35500000D01*
X84620000Y-25425000D02*
X84620000Y-35495000D01*
X84660000Y-25431000D02*
X84660000Y-35489000D01*
X84700000Y-25437000D02*
X84700000Y-35483000D01*
X84740000Y-25443000D02*
X84740000Y-35477000D01*
X84780000Y-25449000D02*
X84780000Y-35471000D01*
X84820000Y-25456000D02*
X84820000Y-35464000D01*
X84860000Y-25463000D02*
X84860000Y-35457000D01*
X84900000Y-25471000D02*
X84900000Y-35449000D01*
X84940000Y-25479000D02*
X84940000Y-35441000D01*
X84980000Y-25487000D02*
X84980000Y-35433000D01*
X85020000Y-25495000D02*
X85020000Y-35425000D01*
X85060000Y-25504000D02*
X85060000Y-35416000D01*
X85100000Y-25513000D02*
X85100000Y-35407000D01*
X85140000Y-25523000D02*
X85140000Y-35397000D01*
X85180000Y-25532000D02*
X85180000Y-35388000D01*
X85220000Y-25543000D02*
X85220000Y-29220000D01*
X85220000Y-31700000D02*
X85220000Y-35377000D01*
X85260000Y-25553000D02*
X85260000Y-29220000D01*
X85260000Y-31700000D02*
X85260000Y-35367000D01*
X85300000Y-25564000D02*
X85300000Y-29220000D01*
X85300000Y-31700000D02*
X85300000Y-35356000D01*
X85340000Y-25575000D02*
X85340000Y-29220000D01*
X85340000Y-31700000D02*
X85340000Y-35345000D01*
X85380000Y-25587000D02*
X85380000Y-29220000D01*
X85380000Y-31700000D02*
X85380000Y-35333000D01*
X85420000Y-25599000D02*
X85420000Y-29220000D01*
X85420000Y-31700000D02*
X85420000Y-35321000D01*
X85460000Y-25611000D02*
X85460000Y-29220000D01*
X85460000Y-31700000D02*
X85460000Y-35309000D01*
X85500000Y-25623000D02*
X85500000Y-29220000D01*
X85500000Y-31700000D02*
X85500000Y-35297000D01*
X85540000Y-25636000D02*
X85540000Y-29220000D01*
X85540000Y-31700000D02*
X85540000Y-35284000D01*
X85580000Y-25650000D02*
X85580000Y-29220000D01*
X85580000Y-31700000D02*
X85580000Y-35270000D01*
X85620000Y-25663000D02*
X85620000Y-29220000D01*
X85620000Y-31700000D02*
X85620000Y-35257000D01*
X85660000Y-25678000D02*
X85660000Y-29220000D01*
X85660000Y-31700000D02*
X85660000Y-35242000D01*
X85700000Y-25692000D02*
X85700000Y-29220000D01*
X85700000Y-31700000D02*
X85700000Y-35228000D01*
X85740000Y-25707000D02*
X85740000Y-29220000D01*
X85740000Y-31700000D02*
X85740000Y-35213000D01*
X85780000Y-25722000D02*
X85780000Y-29220000D01*
X85780000Y-31700000D02*
X85780000Y-35198000D01*
X85820000Y-25738000D02*
X85820000Y-29220000D01*
X85820000Y-31700000D02*
X85820000Y-35182000D01*
X85860000Y-25754000D02*
X85860000Y-29220000D01*
X85860000Y-31700000D02*
X85860000Y-35166000D01*
X85900000Y-25770000D02*
X85900000Y-29220000D01*
X85900000Y-31700000D02*
X85900000Y-35150000D01*
X85940000Y-25787000D02*
X85940000Y-29220000D01*
X85940000Y-31700000D02*
X85940000Y-35133000D01*
X85980000Y-25804000D02*
X85980000Y-29220000D01*
X85980000Y-31700000D02*
X85980000Y-35116000D01*
X86020000Y-25822000D02*
X86020000Y-29220000D01*
X86020000Y-31700000D02*
X86020000Y-35098000D01*
X86060000Y-25840000D02*
X86060000Y-29220000D01*
X86060000Y-31700000D02*
X86060000Y-35080000D01*
X86100000Y-25858000D02*
X86100000Y-29220000D01*
X86100000Y-31700000D02*
X86100000Y-35062000D01*
X86140000Y-25877000D02*
X86140000Y-29220000D01*
X86140000Y-31700000D02*
X86140000Y-35043000D01*
X86180000Y-25896000D02*
X86180000Y-29220000D01*
X86180000Y-31700000D02*
X86180000Y-35024000D01*
X86220000Y-25916000D02*
X86220000Y-29220000D01*
X86220000Y-31700000D02*
X86220000Y-35004000D01*
X86260000Y-25936000D02*
X86260000Y-29220000D01*
X86260000Y-31700000D02*
X86260000Y-34984000D01*
X86300000Y-25956000D02*
X86300000Y-29220000D01*
X86300000Y-31700000D02*
X86300000Y-34964000D01*
X86340000Y-25977000D02*
X86340000Y-29220000D01*
X86340000Y-31700000D02*
X86340000Y-34943000D01*
X86380000Y-25999000D02*
X86380000Y-29220000D01*
X86380000Y-31700000D02*
X86380000Y-34921000D01*
X86420000Y-26021000D02*
X86420000Y-29220000D01*
X86420000Y-31700000D02*
X86420000Y-34899000D01*
X86460000Y-26043000D02*
X86460000Y-29220000D01*
X86460000Y-31700000D02*
X86460000Y-34877000D01*
X86500000Y-26066000D02*
X86500000Y-29220000D01*
X86500000Y-31700000D02*
X86500000Y-34854000D01*
X86540000Y-26089000D02*
X86540000Y-29220000D01*
X86540000Y-31700000D02*
X86540000Y-34831000D01*
X86580000Y-26113000D02*
X86580000Y-29220000D01*
X86580000Y-31700000D02*
X86580000Y-34807000D01*
X86620000Y-26137000D02*
X86620000Y-29220000D01*
X86620000Y-31700000D02*
X86620000Y-34783000D01*
X86660000Y-26162000D02*
X86660000Y-29220000D01*
X86660000Y-31700000D02*
X86660000Y-34758000D01*
X86700000Y-26188000D02*
X86700000Y-29220000D01*
X86700000Y-31700000D02*
X86700000Y-34732000D01*
X86740000Y-26213000D02*
X86740000Y-29220000D01*
X86740000Y-31700000D02*
X86740000Y-34707000D01*
X86780000Y-26240000D02*
X86780000Y-29220000D01*
X86780000Y-31700000D02*
X86780000Y-34680000D01*
X86820000Y-26267000D02*
X86820000Y-29220000D01*
X86820000Y-31700000D02*
X86820000Y-34653000D01*
X86860000Y-26294000D02*
X86860000Y-29220000D01*
X86860000Y-31700000D02*
X86860000Y-34626000D01*
X86900000Y-26322000D02*
X86900000Y-29220000D01*
X86900000Y-31700000D02*
X86900000Y-34598000D01*
X86940000Y-26351000D02*
X86940000Y-29220000D01*
X86940000Y-31700000D02*
X86940000Y-34569000D01*
X86980000Y-26380000D02*
X86980000Y-29220000D01*
X86980000Y-31700000D02*
X86980000Y-34540000D01*
X87020000Y-26410000D02*
X87020000Y-29220000D01*
X87020000Y-31700000D02*
X87020000Y-34510000D01*
X87060000Y-26440000D02*
X87060000Y-29220000D01*
X87060000Y-31700000D02*
X87060000Y-34480000D01*
X87100000Y-26472000D02*
X87100000Y-29220000D01*
X87100000Y-31700000D02*
X87100000Y-34448000D01*
X87140000Y-26503000D02*
X87140000Y-29220000D01*
X87140000Y-31700000D02*
X87140000Y-34417000D01*
X87180000Y-26536000D02*
X87180000Y-29220000D01*
X87180000Y-31700000D02*
X87180000Y-34384000D01*
X87220000Y-26569000D02*
X87220000Y-29220000D01*
X87220000Y-31700000D02*
X87220000Y-34351000D01*
X87260000Y-26602000D02*
X87260000Y-29220000D01*
X87260000Y-31700000D02*
X87260000Y-34318000D01*
X87300000Y-26637000D02*
X87300000Y-29220000D01*
X87300000Y-31700000D02*
X87300000Y-34283000D01*
X87340000Y-26672000D02*
X87340000Y-29220000D01*
X87340000Y-31700000D02*
X87340000Y-34248000D01*
X87380000Y-26708000D02*
X87380000Y-29220000D01*
X87380000Y-31700000D02*
X87380000Y-34212000D01*
X87420000Y-26744000D02*
X87420000Y-29220000D01*
X87420000Y-31700000D02*
X87420000Y-34176000D01*
X87460000Y-26782000D02*
X87460000Y-29220000D01*
X87460000Y-31700000D02*
X87460000Y-34138000D01*
X87500000Y-26820000D02*
X87500000Y-29220000D01*
X87500000Y-31700000D02*
X87500000Y-34100000D01*
X87540000Y-26859000D02*
X87540000Y-29220000D01*
X87540000Y-31700000D02*
X87540000Y-34061000D01*
X87580000Y-26899000D02*
X87580000Y-29220000D01*
X87580000Y-31700000D02*
X87580000Y-34021000D01*
X87620000Y-26940000D02*
X87620000Y-29220000D01*
X87620000Y-31700000D02*
X87620000Y-33980000D01*
X87660000Y-26982000D02*
X87660000Y-29220000D01*
X87660000Y-31700000D02*
X87660000Y-33938000D01*
X87700000Y-27025000D02*
X87700000Y-33895000D01*
X87740000Y-27069000D02*
X87740000Y-33851000D01*
X87780000Y-27113000D02*
X87780000Y-33807000D01*
X87820000Y-27159000D02*
X87820000Y-33761000D01*
X87860000Y-27206000D02*
X87860000Y-33714000D01*
X87900000Y-27255000D02*
X87900000Y-33665000D01*
X87940000Y-27304000D02*
X87940000Y-33616000D01*
X87980000Y-27355000D02*
X87980000Y-33565000D01*
X88020000Y-27407000D02*
X88020000Y-33513000D01*
X88060000Y-27460000D02*
X88060000Y-33460000D01*
X88100000Y-27515000D02*
X88100000Y-33405000D01*
X88140000Y-27572000D02*
X88140000Y-33348000D01*
X88180000Y-27630000D02*
X88180000Y-33290000D01*
X88220000Y-27690000D02*
X88220000Y-33230000D01*
X88260000Y-27752000D02*
X88260000Y-33168000D01*
X88300000Y-27816000D02*
X88300000Y-33104000D01*
X88340000Y-27882000D02*
X88340000Y-33038000D01*
X88380000Y-27950000D02*
X88380000Y-32970000D01*
X88420000Y-28021000D02*
X88420000Y-32899000D01*
X88460000Y-28095000D02*
X88460000Y-32825000D01*
X88500000Y-28172000D02*
X88500000Y-32748000D01*
X88540000Y-28252000D02*
X88540000Y-32668000D01*
X88580000Y-28336000D02*
X88580000Y-32584000D01*
X88620000Y-28423000D02*
X88620000Y-32497000D01*
X88660000Y-28516000D02*
X88660000Y-32404000D01*
X88700000Y-28614000D02*
X88700000Y-32306000D01*
X88740000Y-28718000D02*
X88740000Y-32202000D01*
X88780000Y-28830000D02*
X88780000Y-32090000D01*
X88820000Y-28951000D02*
X88820000Y-31969000D01*
X88860000Y-29083000D02*
X88860000Y-31837000D01*
X88900000Y-29230000D02*
X88900000Y-31690000D01*
X88940000Y-29398000D02*
X88940000Y-31522000D01*
X88980000Y-29598000D02*
X88980000Y-31322000D01*
X89020000Y-29861000D02*
X89020000Y-31059000D01*
X89060000Y-30460000D02*
G75*
G02*
X78820000Y-30460000I-5120000J0D01*
G01*
X78820000Y-30460000D02*
G75*
G02*
X89060000Y-30460000I5120000J0D01*
G01*
%TO.C,D4*%
X124360000Y-86750000D02*
X124360000Y-88670000D01*
X124360000Y-94830000D02*
X124360000Y-92910000D01*
X125480000Y-89270000D02*
X123240000Y-89270000D01*
X125480000Y-89390000D02*
X123240000Y-89390000D01*
X125480000Y-89510000D02*
X123240000Y-89510000D01*
X123240000Y-88670000D02*
X125480000Y-88670000D01*
X125480000Y-92910000D01*
X123240000Y-92910000D01*
X123240000Y-88670000D01*
%TO.C,R5*%
X91060000Y-48740000D02*
X91390000Y-48740000D01*
X91060000Y-55280000D02*
X91060000Y-48740000D01*
X91390000Y-55280000D02*
X91060000Y-55280000D01*
X93470000Y-55280000D02*
X93800000Y-55280000D01*
X93800000Y-48740000D02*
X93470000Y-48740000D01*
X93800000Y-55280000D02*
X93800000Y-48740000D01*
%TO.C,C3*%
X42742918Y-42015000D02*
X43992918Y-42015000D01*
X43367918Y-41390000D02*
X43367918Y-42640000D01*
X49560000Y-39260000D02*
X49560000Y-51920000D01*
X49600000Y-39260000D02*
X49600000Y-51920000D01*
X49640000Y-39261000D02*
X49640000Y-51919000D01*
X49680000Y-39261000D02*
X49680000Y-51919000D01*
X49720000Y-39262000D02*
X49720000Y-51918000D01*
X49760000Y-39263000D02*
X49760000Y-51917000D01*
X49800000Y-39265000D02*
X49800000Y-51915000D01*
X49840000Y-39266000D02*
X49840000Y-51914000D01*
X49880000Y-39268000D02*
X49880000Y-51912000D01*
X49920000Y-39270000D02*
X49920000Y-51910000D01*
X49960000Y-39273000D02*
X49960000Y-51907000D01*
X50000000Y-39275000D02*
X50000000Y-51905000D01*
X50040000Y-39278000D02*
X50040000Y-51902000D01*
X50080000Y-39281000D02*
X50080000Y-51899000D01*
X50120000Y-39285000D02*
X50120000Y-51895000D01*
X50160000Y-39288000D02*
X50160000Y-51892000D01*
X50200000Y-39292000D02*
X50200000Y-51888000D01*
X50240000Y-39296000D02*
X50240000Y-51884000D01*
X50280000Y-39301000D02*
X50280000Y-51879000D01*
X50320000Y-39306000D02*
X50320000Y-51874000D01*
X50360000Y-39310000D02*
X50360000Y-51870000D01*
X50400000Y-39316000D02*
X50400000Y-51864000D01*
X50440000Y-39321000D02*
X50440000Y-51859000D01*
X50480000Y-39327000D02*
X50480000Y-51853000D01*
X50520000Y-39333000D02*
X50520000Y-51847000D01*
X50560000Y-39339000D02*
X50560000Y-51841000D01*
X50600000Y-39345000D02*
X50600000Y-51835000D01*
X50640000Y-39352000D02*
X50640000Y-44150000D01*
X50640000Y-47030000D02*
X50640000Y-51828000D01*
X50680000Y-39359000D02*
X50680000Y-44150000D01*
X50680000Y-47030000D02*
X50680000Y-51821000D01*
X50720000Y-39367000D02*
X50720000Y-44150000D01*
X50720000Y-47030000D02*
X50720000Y-51813000D01*
X50760000Y-39374000D02*
X50760000Y-44150000D01*
X50760000Y-47030000D02*
X50760000Y-51806000D01*
X50800000Y-39382000D02*
X50800000Y-44150000D01*
X50800000Y-47030000D02*
X50800000Y-51798000D01*
X50840000Y-39390000D02*
X50840000Y-44150000D01*
X50840000Y-47030000D02*
X50840000Y-51790000D01*
X50880000Y-39398000D02*
X50880000Y-44150000D01*
X50880000Y-47030000D02*
X50880000Y-51782000D01*
X50920000Y-39407000D02*
X50920000Y-44150000D01*
X50920000Y-47030000D02*
X50920000Y-51773000D01*
X50960000Y-39416000D02*
X50960000Y-44150000D01*
X50960000Y-47030000D02*
X50960000Y-51764000D01*
X51000000Y-39425000D02*
X51000000Y-44150000D01*
X51000000Y-47030000D02*
X51000000Y-51755000D01*
X51040000Y-39434000D02*
X51040000Y-44150000D01*
X51040000Y-47030000D02*
X51040000Y-51746000D01*
X51080000Y-39444000D02*
X51080000Y-44150000D01*
X51080000Y-47030000D02*
X51080000Y-51736000D01*
X51120000Y-39454000D02*
X51120000Y-44150000D01*
X51120000Y-47030000D02*
X51120000Y-51726000D01*
X51160000Y-39464000D02*
X51160000Y-44150000D01*
X51160000Y-47030000D02*
X51160000Y-51716000D01*
X51200000Y-39475000D02*
X51200000Y-44150000D01*
X51200000Y-47030000D02*
X51200000Y-51705000D01*
X51240000Y-39486000D02*
X51240000Y-44150000D01*
X51240000Y-47030000D02*
X51240000Y-51694000D01*
X51280000Y-39497000D02*
X51280000Y-44150000D01*
X51280000Y-47030000D02*
X51280000Y-51683000D01*
X51320000Y-39508000D02*
X51320000Y-44150000D01*
X51320000Y-47030000D02*
X51320000Y-51672000D01*
X51360000Y-39520000D02*
X51360000Y-44150000D01*
X51360000Y-47030000D02*
X51360000Y-51660000D01*
X51400000Y-39532000D02*
X51400000Y-44150000D01*
X51400000Y-47030000D02*
X51400000Y-51648000D01*
X51440000Y-39544000D02*
X51440000Y-44150000D01*
X51440000Y-47030000D02*
X51440000Y-51636000D01*
X51480000Y-39556000D02*
X51480000Y-44150000D01*
X51480000Y-47030000D02*
X51480000Y-51624000D01*
X51520000Y-39569000D02*
X51520000Y-44150000D01*
X51520000Y-47030000D02*
X51520000Y-51611000D01*
X51560000Y-39582000D02*
X51560000Y-44150000D01*
X51560000Y-47030000D02*
X51560000Y-51598000D01*
X51600000Y-39595000D02*
X51600000Y-44150000D01*
X51600000Y-47030000D02*
X51600000Y-51585000D01*
X51640000Y-39609000D02*
X51640000Y-44150000D01*
X51640000Y-47030000D02*
X51640000Y-51571000D01*
X51680000Y-39623000D02*
X51680000Y-44150000D01*
X51680000Y-47030000D02*
X51680000Y-51557000D01*
X51720000Y-39637000D02*
X51720000Y-44150000D01*
X51720000Y-47030000D02*
X51720000Y-51543000D01*
X51760000Y-39652000D02*
X51760000Y-44150000D01*
X51760000Y-47030000D02*
X51760000Y-51528000D01*
X51800000Y-39667000D02*
X51800000Y-44150000D01*
X51800000Y-47030000D02*
X51800000Y-51513000D01*
X51840000Y-39682000D02*
X51840000Y-44150000D01*
X51840000Y-47030000D02*
X51840000Y-51498000D01*
X51880000Y-39698000D02*
X51880000Y-44150000D01*
X51880000Y-47030000D02*
X51880000Y-51482000D01*
X51920000Y-39713000D02*
X51920000Y-44150000D01*
X51920000Y-47030000D02*
X51920000Y-51467000D01*
X51960000Y-39729000D02*
X51960000Y-44150000D01*
X51960000Y-47030000D02*
X51960000Y-51451000D01*
X52000000Y-39746000D02*
X52000000Y-44150000D01*
X52000000Y-47030000D02*
X52000000Y-51434000D01*
X52040000Y-39763000D02*
X52040000Y-44150000D01*
X52040000Y-47030000D02*
X52040000Y-51417000D01*
X52080000Y-39780000D02*
X52080000Y-44150000D01*
X52080000Y-47030000D02*
X52080000Y-51400000D01*
X52120000Y-39797000D02*
X52120000Y-44150000D01*
X52120000Y-47030000D02*
X52120000Y-51383000D01*
X52160000Y-39815000D02*
X52160000Y-44150000D01*
X52160000Y-47030000D02*
X52160000Y-51365000D01*
X52200000Y-39833000D02*
X52200000Y-44150000D01*
X52200000Y-47030000D02*
X52200000Y-51347000D01*
X52240000Y-39851000D02*
X52240000Y-44150000D01*
X52240000Y-47030000D02*
X52240000Y-51329000D01*
X52280000Y-39870000D02*
X52280000Y-44150000D01*
X52280000Y-47030000D02*
X52280000Y-51310000D01*
X52320000Y-39889000D02*
X52320000Y-44150000D01*
X52320000Y-47030000D02*
X52320000Y-51291000D01*
X52360000Y-39908000D02*
X52360000Y-44150000D01*
X52360000Y-47030000D02*
X52360000Y-51272000D01*
X52400000Y-39928000D02*
X52400000Y-44150000D01*
X52400000Y-47030000D02*
X52400000Y-51252000D01*
X52440000Y-39948000D02*
X52440000Y-44150000D01*
X52440000Y-47030000D02*
X52440000Y-51232000D01*
X52480000Y-39969000D02*
X52480000Y-44150000D01*
X52480000Y-47030000D02*
X52480000Y-51211000D01*
X52520000Y-39989000D02*
X52520000Y-44150000D01*
X52520000Y-47030000D02*
X52520000Y-51191000D01*
X52560000Y-40011000D02*
X52560000Y-44150000D01*
X52560000Y-47030000D02*
X52560000Y-51169000D01*
X52600000Y-40032000D02*
X52600000Y-44150000D01*
X52600000Y-47030000D02*
X52600000Y-51148000D01*
X52640000Y-40054000D02*
X52640000Y-44150000D01*
X52640000Y-47030000D02*
X52640000Y-51126000D01*
X52680000Y-40076000D02*
X52680000Y-44150000D01*
X52680000Y-47030000D02*
X52680000Y-51104000D01*
X52720000Y-40099000D02*
X52720000Y-44150000D01*
X52720000Y-47030000D02*
X52720000Y-51081000D01*
X52760000Y-40122000D02*
X52760000Y-44150000D01*
X52760000Y-47030000D02*
X52760000Y-51058000D01*
X52800000Y-40146000D02*
X52800000Y-44150000D01*
X52800000Y-47030000D02*
X52800000Y-51034000D01*
X52840000Y-40169000D02*
X52840000Y-44150000D01*
X52840000Y-47030000D02*
X52840000Y-51011000D01*
X52880000Y-40194000D02*
X52880000Y-44150000D01*
X52880000Y-47030000D02*
X52880000Y-50986000D01*
X52920000Y-40218000D02*
X52920000Y-44150000D01*
X52920000Y-47030000D02*
X52920000Y-50962000D01*
X52960000Y-40243000D02*
X52960000Y-44150000D01*
X52960000Y-47030000D02*
X52960000Y-50937000D01*
X53000000Y-40269000D02*
X53000000Y-44150000D01*
X53000000Y-47030000D02*
X53000000Y-50911000D01*
X53040000Y-40295000D02*
X53040000Y-44150000D01*
X53040000Y-47030000D02*
X53040000Y-50885000D01*
X53080000Y-40321000D02*
X53080000Y-44150000D01*
X53080000Y-47030000D02*
X53080000Y-50859000D01*
X53120000Y-40348000D02*
X53120000Y-44150000D01*
X53120000Y-47030000D02*
X53120000Y-50832000D01*
X53160000Y-40375000D02*
X53160000Y-44150000D01*
X53160000Y-47030000D02*
X53160000Y-50805000D01*
X53200000Y-40402000D02*
X53200000Y-44150000D01*
X53200000Y-47030000D02*
X53200000Y-50778000D01*
X53240000Y-40431000D02*
X53240000Y-44150000D01*
X53240000Y-47030000D02*
X53240000Y-50749000D01*
X53280000Y-40459000D02*
X53280000Y-44150000D01*
X53280000Y-47030000D02*
X53280000Y-50721000D01*
X53320000Y-40488000D02*
X53320000Y-44150000D01*
X53320000Y-47030000D02*
X53320000Y-50692000D01*
X53360000Y-40518000D02*
X53360000Y-44150000D01*
X53360000Y-47030000D02*
X53360000Y-50662000D01*
X53400000Y-40548000D02*
X53400000Y-44150000D01*
X53400000Y-47030000D02*
X53400000Y-50632000D01*
X53440000Y-40578000D02*
X53440000Y-44150000D01*
X53440000Y-47030000D02*
X53440000Y-50602000D01*
X53480000Y-40609000D02*
X53480000Y-44150000D01*
X53480000Y-47030000D02*
X53480000Y-50571000D01*
X53520000Y-40640000D02*
X53520000Y-50540000D01*
X53560000Y-40672000D02*
X53560000Y-50508000D01*
X53600000Y-40705000D02*
X53600000Y-50475000D01*
X53640000Y-40738000D02*
X53640000Y-50442000D01*
X53680000Y-40772000D02*
X53680000Y-50408000D01*
X53720000Y-40806000D02*
X53720000Y-50374000D01*
X53760000Y-40841000D02*
X53760000Y-50339000D01*
X53800000Y-40876000D02*
X53800000Y-50304000D01*
X53840000Y-40912000D02*
X53840000Y-50268000D01*
X53880000Y-40949000D02*
X53880000Y-50231000D01*
X53920000Y-40986000D02*
X53920000Y-50194000D01*
X53960000Y-41024000D02*
X53960000Y-50156000D01*
X54000000Y-41062000D02*
X54000000Y-50118000D01*
X54040000Y-41102000D02*
X54040000Y-50078000D01*
X54080000Y-41142000D02*
X54080000Y-50038000D01*
X54120000Y-41182000D02*
X54120000Y-49998000D01*
X54160000Y-41224000D02*
X54160000Y-49956000D01*
X54200000Y-41266000D02*
X54200000Y-49914000D01*
X54240000Y-41309000D02*
X54240000Y-49871000D01*
X54280000Y-41352000D02*
X54280000Y-49828000D01*
X54320000Y-41397000D02*
X54320000Y-49783000D01*
X54360000Y-41442000D02*
X54360000Y-49738000D01*
X54400000Y-41489000D02*
X54400000Y-49691000D01*
X54440000Y-41536000D02*
X54440000Y-49644000D01*
X54480000Y-41584000D02*
X54480000Y-49596000D01*
X54520000Y-41633000D02*
X54520000Y-49547000D01*
X54560000Y-41683000D02*
X54560000Y-49497000D01*
X54600000Y-41734000D02*
X54600000Y-49446000D01*
X54640000Y-41787000D02*
X54640000Y-49393000D01*
X54680000Y-41840000D02*
X54680000Y-49340000D01*
X54720000Y-41895000D02*
X54720000Y-49285000D01*
X54760000Y-41951000D02*
X54760000Y-49229000D01*
X54800000Y-42008000D02*
X54800000Y-49172000D01*
X54840000Y-42067000D02*
X54840000Y-49113000D01*
X54880000Y-42127000D02*
X54880000Y-49053000D01*
X54920000Y-42188000D02*
X54920000Y-48992000D01*
X54960000Y-42251000D02*
X54960000Y-48929000D01*
X55000000Y-42316000D02*
X55000000Y-48864000D01*
X55040000Y-42382000D02*
X55040000Y-48798000D01*
X55080000Y-42451000D02*
X55080000Y-48729000D01*
X55120000Y-42521000D02*
X55120000Y-48659000D01*
X55160000Y-42594000D02*
X55160000Y-48586000D01*
X55200000Y-42669000D02*
X55200000Y-48511000D01*
X55240000Y-42747000D02*
X55240000Y-48433000D01*
X55280000Y-42827000D02*
X55280000Y-48353000D01*
X55320000Y-42910000D02*
X55320000Y-48270000D01*
X55360000Y-42996000D02*
X55360000Y-48184000D01*
X55400000Y-43086000D02*
X55400000Y-48094000D01*
X55440000Y-43180000D02*
X55440000Y-48000000D01*
X55480000Y-43278000D02*
X55480000Y-47902000D01*
X55520000Y-43382000D02*
X55520000Y-47798000D01*
X55560000Y-43491000D02*
X55560000Y-47689000D01*
X55600000Y-43606000D02*
X55600000Y-47574000D01*
X55640000Y-43730000D02*
X55640000Y-47450000D01*
X55680000Y-43863000D02*
X55680000Y-47317000D01*
X55720000Y-44008000D02*
X55720000Y-47172000D01*
X55760000Y-44168000D02*
X55760000Y-47012000D01*
X55800000Y-44350000D02*
X55800000Y-46830000D01*
X55840000Y-44563000D02*
X55840000Y-46617000D01*
X55880000Y-44833000D02*
X55880000Y-46347000D01*
X55920000Y-45273000D02*
X55920000Y-45907000D01*
X55930000Y-45590000D02*
G75*
G02*
X43190000Y-45590000I-6370000J0D01*
G01*
X43190000Y-45590000D02*
G75*
G02*
X55930000Y-45590000I6370000J0D01*
G01*
%TO.C,C8*%
X82650000Y-45120000D02*
X85890000Y-45120000D01*
X82650000Y-45268000D02*
X82650000Y-45120000D01*
X82650000Y-47360000D02*
X82650000Y-47212000D01*
X85890000Y-45120000D02*
X85890000Y-45268000D01*
X85890000Y-47212000D02*
X85890000Y-47360000D01*
X85890000Y-47360000D02*
X82650000Y-47360000D01*
%TO.C,IC1*%
X29490000Y-25030000D02*
X39710000Y-25030000D01*
X29490000Y-26410000D02*
X39710000Y-26410000D01*
X29490000Y-29650000D02*
X29490000Y-25030000D01*
X32750000Y-25030000D02*
X32750000Y-26410000D01*
X36450000Y-25030000D02*
X36450000Y-26410000D01*
X39710000Y-25030000D02*
X39710000Y-29650000D01*
X39710000Y-29650000D02*
X29490000Y-29650000D01*
%TO.C,R4*%
X83390000Y-41330000D02*
X89930000Y-41330000D01*
X83390000Y-41660000D02*
X83390000Y-41330000D01*
X83390000Y-43740000D02*
X83390000Y-44070000D01*
X83390000Y-44070000D02*
X89930000Y-44070000D01*
X89930000Y-41330000D02*
X89930000Y-41660000D01*
X89930000Y-44070000D02*
X89930000Y-43740000D01*
%TO.C,C2*%
X38250000Y-30620000D02*
X48790000Y-30620000D01*
X38250000Y-35860000D02*
X38250000Y-30620000D01*
X48790000Y-30620000D02*
X48790000Y-35860000D01*
X48790000Y-35860000D02*
X38250000Y-35860000D01*
%TO.C,D3*%
X120170000Y-86750000D02*
X120170000Y-88670000D01*
X120170000Y-94830000D02*
X120170000Y-92910000D01*
X121290000Y-89270000D02*
X119050000Y-89270000D01*
X121290000Y-89390000D02*
X119050000Y-89390000D01*
X121290000Y-89510000D02*
X119050000Y-89510000D01*
X119050000Y-88670000D02*
X121290000Y-88670000D01*
X121290000Y-92910000D01*
X119050000Y-92910000D01*
X119050000Y-88670000D01*
%TO.C,D1*%
X43156000Y-63069000D02*
X43156000Y-68911000D01*
X44299000Y-61926000D02*
G75*
G02*
X43156000Y-68911000I2921000J-4064000D01*
G01*
%TO.C,C7*%
X74650000Y-45120000D02*
X77890000Y-45120000D01*
X74650000Y-45268000D02*
X74650000Y-45120000D01*
X74650000Y-47360000D02*
X74650000Y-47212000D01*
X77890000Y-45120000D02*
X77890000Y-45268000D01*
X77890000Y-47212000D02*
X77890000Y-47360000D01*
X77890000Y-47360000D02*
X74650000Y-47360000D01*
%TO.C,C12*%
X106270000Y-41220000D02*
X99968000Y-41220000D01*
X106270000Y-41260000D02*
X99981000Y-41260000D01*
X106270000Y-41300000D02*
X99993000Y-41300000D01*
X106270000Y-41340000D02*
X100005000Y-41340000D01*
X106270000Y-41380000D02*
X100018000Y-41380000D01*
X106270000Y-41420000D02*
X100031000Y-41420000D01*
X106270000Y-41460000D02*
X100044000Y-41460000D01*
X106270000Y-41500000D02*
X100058000Y-41500000D01*
X106270000Y-41540000D02*
X100071000Y-41540000D01*
X106270000Y-41580000D02*
X100085000Y-41580000D01*
X106270000Y-41620000D02*
X100099000Y-41620000D01*
X106270000Y-41660000D02*
X100113000Y-41660000D01*
X106270000Y-41700000D02*
X100128000Y-41700000D01*
X106270000Y-41740000D02*
X100143000Y-41740000D01*
X106270000Y-41780000D02*
X100158000Y-41780000D01*
X106270000Y-41820000D02*
X100173000Y-41820000D01*
X106270000Y-41860000D02*
X100189000Y-41860000D01*
X106270000Y-41900000D02*
X100205000Y-41900000D01*
X106270000Y-41940000D02*
X100221000Y-41940000D01*
X106270000Y-41980000D02*
X100237000Y-41980000D01*
X106270000Y-42020000D02*
X100253000Y-42020000D01*
X106270000Y-42060000D02*
X100270000Y-42060000D01*
X106270000Y-42100000D02*
X100287000Y-42100000D01*
X106270000Y-42140000D02*
X100304000Y-42140000D01*
X106270000Y-42180000D02*
X100322000Y-42180000D01*
X106270000Y-42220000D02*
X100340000Y-42220000D01*
X106270000Y-42260000D02*
X100358000Y-42260000D01*
X106270000Y-42300000D02*
X100376000Y-42300000D01*
X106270000Y-42340000D02*
X100395000Y-42340000D01*
X106270000Y-42380000D02*
X100414000Y-42380000D01*
X106270000Y-42420000D02*
X100433000Y-42420000D01*
X106270000Y-42460000D02*
X100452000Y-42460000D01*
X106270000Y-42500000D02*
X100472000Y-42500000D01*
X106270000Y-42540000D02*
X100492000Y-42540000D01*
X106270000Y-42580000D02*
X100512000Y-42580000D01*
X106270000Y-42620000D02*
X100532000Y-42620000D01*
X106270000Y-42660000D02*
X100553000Y-42660000D01*
X106270000Y-42700000D02*
X100574000Y-42700000D01*
X106270000Y-42740000D02*
X100595000Y-42740000D01*
X106270000Y-42780000D02*
X100617000Y-42780000D01*
X106270000Y-42820000D02*
X100639000Y-42820000D01*
X106270000Y-42860000D02*
X100661000Y-42860000D01*
X106270000Y-42900000D02*
X100684000Y-42900000D01*
X106270000Y-42940000D02*
X100706000Y-42940000D01*
X106270000Y-42980000D02*
X100729000Y-42980000D01*
X106270000Y-43020000D02*
X100753000Y-43020000D01*
X106270000Y-43060000D02*
X100777000Y-43060000D01*
X106270000Y-43100000D02*
X100801000Y-43100000D01*
X106270000Y-43140000D02*
X100825000Y-43140000D01*
X106270000Y-43180000D02*
X100850000Y-43180000D01*
X106270000Y-43220000D02*
X100875000Y-43220000D01*
X106270000Y-43260000D02*
X100900000Y-43260000D01*
X106270000Y-43300000D02*
X100925000Y-43300000D01*
X106270000Y-43340000D02*
X100951000Y-43340000D01*
X106270000Y-43380000D02*
X100978000Y-43380000D01*
X106270000Y-43420000D02*
X101004000Y-43420000D01*
X106270000Y-43460000D02*
X101031000Y-43460000D01*
X106270000Y-43500000D02*
X101059000Y-43500000D01*
X106270000Y-43540000D02*
X101086000Y-43540000D01*
X106270000Y-43580000D02*
X101114000Y-43580000D01*
X106270000Y-43620000D02*
X101143000Y-43620000D01*
X106270000Y-43660000D02*
X101171000Y-43660000D01*
X106270000Y-43700000D02*
X101201000Y-43700000D01*
X106270000Y-43740000D02*
X101230000Y-43740000D01*
X106270000Y-43780000D02*
X101260000Y-43780000D01*
X106270000Y-43820000D02*
X101290000Y-43820000D01*
X106270000Y-43860000D02*
X101321000Y-43860000D01*
X106270000Y-43900000D02*
X101352000Y-43900000D01*
X106270000Y-43940000D02*
X101383000Y-43940000D01*
X106270000Y-43980000D02*
X101415000Y-43980000D01*
X106270000Y-44020000D02*
X101448000Y-44020000D01*
X106270000Y-44060000D02*
X101480000Y-44060000D01*
X108475000Y-46980000D02*
X106945000Y-46980000D01*
X108807000Y-46940000D02*
X106613000Y-46940000D01*
X109061000Y-46900000D02*
X106359000Y-46900000D01*
X109274000Y-46860000D02*
X106146000Y-46860000D01*
X109461000Y-46820000D02*
X105959000Y-46820000D01*
X109630000Y-46780000D02*
X105790000Y-46780000D01*
X109784000Y-46740000D02*
X105636000Y-46740000D01*
X109927000Y-46700000D02*
X105493000Y-46700000D01*
X110061000Y-46660000D02*
X105359000Y-46660000D01*
X110187000Y-46620000D02*
X105233000Y-46620000D01*
X110307000Y-46580000D02*
X105113000Y-46580000D01*
X110420000Y-46540000D02*
X105000000Y-46540000D01*
X110529000Y-46500000D02*
X104891000Y-46500000D01*
X110633000Y-46460000D02*
X104787000Y-46460000D01*
X110733000Y-46420000D02*
X104687000Y-46420000D01*
X110830000Y-46380000D02*
X104590000Y-46380000D01*
X110923000Y-46340000D02*
X104497000Y-46340000D01*
X111013000Y-46300000D02*
X104407000Y-46300000D01*
X111100000Y-46260000D02*
X104320000Y-46260000D01*
X111185000Y-46220000D02*
X104235000Y-46220000D01*
X111267000Y-46180000D02*
X104153000Y-46180000D01*
X111347000Y-46140000D02*
X104073000Y-46140000D01*
X111424000Y-46100000D02*
X103996000Y-46100000D01*
X111500000Y-46060000D02*
X103920000Y-46060000D01*
X111574000Y-46020000D02*
X103846000Y-46020000D01*
X111646000Y-45980000D02*
X103774000Y-45980000D01*
X111716000Y-45940000D02*
X103704000Y-45940000D01*
X111785000Y-45900000D02*
X103635000Y-45900000D01*
X111852000Y-45860000D02*
X103568000Y-45860000D01*
X111918000Y-45820000D02*
X103502000Y-45820000D01*
X111983000Y-45780000D02*
X103437000Y-45780000D01*
X112046000Y-45740000D02*
X103374000Y-45740000D01*
X112108000Y-45700000D02*
X103312000Y-45700000D01*
X112169000Y-45660000D02*
X103251000Y-45660000D01*
X112228000Y-45620000D02*
X103192000Y-45620000D01*
X112265000Y-30210509D02*
X112265000Y-31810509D01*
X112286000Y-45580000D02*
X103134000Y-45580000D01*
X112344000Y-45540000D02*
X103076000Y-45540000D01*
X112400000Y-45500000D02*
X103020000Y-45500000D01*
X112455000Y-45460000D02*
X102965000Y-45460000D01*
X112510000Y-45420000D02*
X102910000Y-45420000D01*
X112563000Y-45380000D02*
X102857000Y-45380000D01*
X112616000Y-45340000D02*
X102804000Y-45340000D01*
X112667000Y-45300000D02*
X102753000Y-45300000D01*
X112718000Y-45260000D02*
X102702000Y-45260000D01*
X112768000Y-45220000D02*
X102652000Y-45220000D01*
X112817000Y-45180000D02*
X102603000Y-45180000D01*
X112866000Y-45140000D02*
X102554000Y-45140000D01*
X112914000Y-45100000D02*
X102506000Y-45100000D01*
X112960000Y-45060000D02*
X102460000Y-45060000D01*
X113007000Y-45020000D02*
X102413000Y-45020000D01*
X113052000Y-44980000D02*
X102368000Y-44980000D01*
X113065000Y-31010509D02*
X111465000Y-31010509D01*
X113097000Y-44940000D02*
X102323000Y-44940000D01*
X113141000Y-44900000D02*
X102279000Y-44900000D01*
X113185000Y-44860000D02*
X102235000Y-44860000D01*
X113228000Y-44820000D02*
X102192000Y-44820000D01*
X113270000Y-44780000D02*
X102150000Y-44780000D01*
X113312000Y-44740000D02*
X102108000Y-44740000D01*
X113353000Y-44700000D02*
X102067000Y-44700000D01*
X113393000Y-44660000D02*
X102027000Y-44660000D01*
X113433000Y-44620000D02*
X101987000Y-44620000D01*
X113473000Y-44580000D02*
X101947000Y-44580000D01*
X113512000Y-44540000D02*
X101908000Y-44540000D01*
X113550000Y-44500000D02*
X101870000Y-44500000D01*
X113588000Y-44460000D02*
X101832000Y-44460000D01*
X113625000Y-44420000D02*
X101795000Y-44420000D01*
X113662000Y-44380000D02*
X101758000Y-44380000D01*
X113698000Y-44340000D02*
X101722000Y-44340000D01*
X113734000Y-44300000D02*
X101686000Y-44300000D01*
X113770000Y-44260000D02*
X101650000Y-44260000D01*
X113804000Y-44220000D02*
X101616000Y-44220000D01*
X113839000Y-44180000D02*
X101581000Y-44180000D01*
X113873000Y-44140000D02*
X101547000Y-44140000D01*
X113907000Y-44100000D02*
X101513000Y-44100000D01*
X113940000Y-44060000D02*
X109150000Y-44060000D01*
X113972000Y-44020000D02*
X109150000Y-44020000D01*
X114005000Y-43980000D02*
X109150000Y-43980000D01*
X114037000Y-43940000D02*
X109150000Y-43940000D01*
X114068000Y-43900000D02*
X109150000Y-43900000D01*
X114099000Y-43860000D02*
X109150000Y-43860000D01*
X114130000Y-43820000D02*
X109150000Y-43820000D01*
X114160000Y-43780000D02*
X109150000Y-43780000D01*
X114190000Y-43740000D02*
X109150000Y-43740000D01*
X114219000Y-43700000D02*
X109150000Y-43700000D01*
X114249000Y-43660000D02*
X109150000Y-43660000D01*
X114277000Y-43620000D02*
X109150000Y-43620000D01*
X114306000Y-43580000D02*
X109150000Y-43580000D01*
X114334000Y-43540000D02*
X109150000Y-43540000D01*
X114361000Y-43500000D02*
X109150000Y-43500000D01*
X114389000Y-43460000D02*
X109150000Y-43460000D01*
X114416000Y-43420000D02*
X109150000Y-43420000D01*
X114442000Y-43380000D02*
X109150000Y-43380000D01*
X114469000Y-43340000D02*
X109150000Y-43340000D01*
X114495000Y-43300000D02*
X109150000Y-43300000D01*
X114520000Y-43260000D02*
X109150000Y-43260000D01*
X114545000Y-43220000D02*
X109150000Y-43220000D01*
X114570000Y-43180000D02*
X109150000Y-43180000D01*
X114595000Y-43140000D02*
X109150000Y-43140000D01*
X114619000Y-43100000D02*
X109150000Y-43100000D01*
X114643000Y-43060000D02*
X109150000Y-43060000D01*
X114667000Y-43020000D02*
X109150000Y-43020000D01*
X114691000Y-42980000D02*
X109150000Y-42980000D01*
X114714000Y-42940000D02*
X109150000Y-42940000D01*
X114736000Y-42900000D02*
X109150000Y-42900000D01*
X114759000Y-42860000D02*
X109150000Y-42860000D01*
X114781000Y-42820000D02*
X109150000Y-42820000D01*
X114803000Y-42780000D02*
X109150000Y-42780000D01*
X114825000Y-42740000D02*
X109150000Y-42740000D01*
X114846000Y-42700000D02*
X109150000Y-42700000D01*
X114867000Y-42660000D02*
X109150000Y-42660000D01*
X114888000Y-42620000D02*
X109150000Y-42620000D01*
X114908000Y-42580000D02*
X109150000Y-42580000D01*
X114928000Y-42540000D02*
X109150000Y-42540000D01*
X114948000Y-42500000D02*
X109150000Y-42500000D01*
X114968000Y-42460000D02*
X109150000Y-42460000D01*
X114987000Y-42420000D02*
X109150000Y-42420000D01*
X115006000Y-42380000D02*
X109150000Y-42380000D01*
X115025000Y-42340000D02*
X109150000Y-42340000D01*
X115044000Y-42300000D02*
X109150000Y-42300000D01*
X115062000Y-42260000D02*
X109150000Y-42260000D01*
X115080000Y-42220000D02*
X109150000Y-42220000D01*
X115098000Y-42180000D02*
X109150000Y-42180000D01*
X115116000Y-42140000D02*
X109150000Y-42140000D01*
X115133000Y-42100000D02*
X109150000Y-42100000D01*
X115150000Y-42060000D02*
X109150000Y-42060000D01*
X115167000Y-42020000D02*
X109150000Y-42020000D01*
X115183000Y-41980000D02*
X109150000Y-41980000D01*
X115199000Y-41940000D02*
X109150000Y-41940000D01*
X115215000Y-41900000D02*
X109150000Y-41900000D01*
X115231000Y-41860000D02*
X109150000Y-41860000D01*
X115247000Y-41820000D02*
X109150000Y-41820000D01*
X115262000Y-41780000D02*
X109150000Y-41780000D01*
X115277000Y-41740000D02*
X109150000Y-41740000D01*
X115292000Y-41700000D02*
X109150000Y-41700000D01*
X115307000Y-41660000D02*
X109150000Y-41660000D01*
X115321000Y-41620000D02*
X109150000Y-41620000D01*
X115335000Y-41580000D02*
X109150000Y-41580000D01*
X115349000Y-41540000D02*
X109150000Y-41540000D01*
X115362000Y-41500000D02*
X109150000Y-41500000D01*
X115376000Y-41460000D02*
X109150000Y-41460000D01*
X115389000Y-41420000D02*
X109150000Y-41420000D01*
X115402000Y-41380000D02*
X109150000Y-41380000D01*
X115415000Y-41340000D02*
X109150000Y-41340000D01*
X115427000Y-41300000D02*
X109150000Y-41300000D01*
X115439000Y-41260000D02*
X109150000Y-41260000D01*
X115452000Y-41220000D02*
X109150000Y-41220000D01*
X115463000Y-41180000D02*
X99957000Y-41180000D01*
X115475000Y-41140000D02*
X99945000Y-41140000D01*
X115486000Y-41100000D02*
X99934000Y-41100000D01*
X115497000Y-41060000D02*
X99923000Y-41060000D01*
X115508000Y-41020000D02*
X99912000Y-41020000D01*
X115519000Y-40980000D02*
X99901000Y-40980000D01*
X115530000Y-40940000D02*
X99890000Y-40940000D01*
X115540000Y-40900000D02*
X99880000Y-40900000D01*
X115550000Y-40860000D02*
X99870000Y-40860000D01*
X115560000Y-40820000D02*
X99860000Y-40820000D01*
X115569000Y-40780000D02*
X99851000Y-40780000D01*
X115579000Y-40740000D02*
X99841000Y-40740000D01*
X115588000Y-40700000D02*
X99832000Y-40700000D01*
X115597000Y-40660000D02*
X99823000Y-40660000D01*
X115606000Y-40620000D02*
X99814000Y-40620000D01*
X115614000Y-40580000D02*
X99806000Y-40580000D01*
X115623000Y-40540000D02*
X99797000Y-40540000D01*
X115631000Y-40500000D02*
X99789000Y-40500000D01*
X115639000Y-40460000D02*
X99781000Y-40460000D01*
X115646000Y-40420000D02*
X99774000Y-40420000D01*
X115654000Y-40380000D02*
X99766000Y-40380000D01*
X115661000Y-40340000D02*
X99759000Y-40340000D01*
X115668000Y-40300000D02*
X99752000Y-40300000D01*
X115675000Y-40260000D02*
X99745000Y-40260000D01*
X115682000Y-40220000D02*
X99738000Y-40220000D01*
X115688000Y-40180000D02*
X99732000Y-40180000D01*
X115695000Y-40140000D02*
X99725000Y-40140000D01*
X115701000Y-40100000D02*
X99719000Y-40100000D01*
X115707000Y-40060000D02*
X99713000Y-40060000D01*
X115712000Y-40020000D02*
X99708000Y-40020000D01*
X115718000Y-39980000D02*
X99702000Y-39980000D01*
X115723000Y-39940000D02*
X99697000Y-39940000D01*
X115728000Y-39900000D02*
X99692000Y-39900000D01*
X115733000Y-39860000D02*
X99687000Y-39860000D01*
X115738000Y-39820000D02*
X99682000Y-39820000D01*
X115742000Y-39780000D02*
X99678000Y-39780000D01*
X115746000Y-39740000D02*
X99674000Y-39740000D01*
X115750000Y-39700000D02*
X99670000Y-39700000D01*
X115754000Y-39660000D02*
X99666000Y-39660000D01*
X115758000Y-39620000D02*
X99662000Y-39620000D01*
X115761000Y-39580000D02*
X99659000Y-39580000D01*
X115765000Y-39540000D02*
X99655000Y-39540000D01*
X115768000Y-39500000D02*
X99652000Y-39500000D01*
X115771000Y-39460000D02*
X99649000Y-39460000D01*
X115773000Y-39420000D02*
X99647000Y-39420000D01*
X115776000Y-39380000D02*
X99644000Y-39380000D01*
X115778000Y-39340000D02*
X99642000Y-39340000D01*
X115780000Y-39300000D02*
X99640000Y-39300000D01*
X115782000Y-39260000D02*
X99638000Y-39260000D01*
X115784000Y-39220000D02*
X99636000Y-39220000D01*
X115785000Y-39180000D02*
X99635000Y-39180000D01*
X115786000Y-39140000D02*
X99634000Y-39140000D01*
X115788000Y-39060000D02*
X99632000Y-39060000D01*
X115788000Y-39100000D02*
X99632000Y-39100000D01*
X115789000Y-39020000D02*
X99631000Y-39020000D01*
X115790000Y-38900000D02*
X99630000Y-38900000D01*
X115790000Y-38940000D02*
X99630000Y-38940000D01*
X115790000Y-38980000D02*
X99630000Y-38980000D01*
X115830000Y-38900000D02*
G75*
G02*
X99590000Y-38900000I-8120000J0D01*
G01*
X99590000Y-38900000D02*
G75*
G02*
X115830000Y-38900000I8120000J0D01*
G01*
%TO.C,C14*%
X121470000Y-29510000D02*
X119941000Y-29510000D01*
X121470000Y-29550000D02*
X119945000Y-29550000D01*
X121470000Y-29590000D02*
X119950000Y-29590000D01*
X121470000Y-29630000D02*
X119955000Y-29630000D01*
X121470000Y-29670000D02*
X119961000Y-29670000D01*
X121470000Y-29710000D02*
X119967000Y-29710000D01*
X121470000Y-29750000D02*
X119974000Y-29750000D01*
X121470000Y-29790000D02*
X119982000Y-29790000D01*
X121470000Y-29830000D02*
X119991000Y-29830000D01*
X121470000Y-29870000D02*
X120000000Y-29870000D01*
X121470000Y-29910000D02*
X120009000Y-29910000D01*
X121470000Y-29950000D02*
X120020000Y-29950000D01*
X121470000Y-29990000D02*
X120031000Y-29990000D01*
X121470000Y-30030000D02*
X120043000Y-30030000D01*
X121470000Y-30070000D02*
X120055000Y-30070000D01*
X121470000Y-30110000D02*
X120068000Y-30110000D01*
X121470000Y-30150000D02*
X120082000Y-30150000D01*
X121470000Y-30190000D02*
X120097000Y-30190000D01*
X121470000Y-30230000D02*
X120112000Y-30230000D01*
X121470000Y-30270000D02*
X120128000Y-30270000D01*
X121470000Y-30310000D02*
X120145000Y-30310000D01*
X121470000Y-30350000D02*
X120163000Y-30350000D01*
X121470000Y-30390000D02*
X120181000Y-30390000D01*
X121470000Y-30430000D02*
X120201000Y-30430000D01*
X121470000Y-30470000D02*
X120221000Y-30470000D01*
X121470000Y-30510000D02*
X120242000Y-30510000D01*
X121470000Y-30550000D02*
X120264000Y-30550000D01*
X121470000Y-30590000D02*
X120287000Y-30590000D01*
X121470000Y-30630000D02*
X120311000Y-30630000D01*
X121470000Y-30670000D02*
X120335000Y-30670000D01*
X121470000Y-30710000D02*
X120361000Y-30710000D01*
X121470000Y-30750000D02*
X120388000Y-30750000D01*
X121470000Y-30790000D02*
X120416000Y-30790000D01*
X121470000Y-30830000D02*
X120445000Y-30830000D01*
X121470000Y-30870000D02*
X120475000Y-30870000D01*
X121470000Y-30910000D02*
X120507000Y-30910000D01*
X121470000Y-30950000D02*
X120540000Y-30950000D01*
X121470000Y-30990000D02*
X120574000Y-30990000D01*
X121470000Y-31030000D02*
X120609000Y-31030000D01*
X121470000Y-31070000D02*
X120646000Y-31070000D01*
X121470000Y-31110000D02*
X120685000Y-31110000D01*
X121470000Y-31150000D02*
X120725000Y-31150000D01*
X121470000Y-31190000D02*
X120767000Y-31190000D01*
X121470000Y-31230000D02*
X120811000Y-31230000D01*
X121470000Y-31270000D02*
X120858000Y-31270000D01*
X121470000Y-31310000D02*
X120906000Y-31310000D01*
X121470000Y-31350000D02*
X120957000Y-31350000D01*
X121470000Y-31390000D02*
X121011000Y-31390000D01*
X121470000Y-31430000D02*
X121067000Y-31430000D01*
X121470000Y-31470000D02*
X121127000Y-31470000D01*
X121470000Y-31510000D02*
X121191000Y-31510000D01*
X121470000Y-31550000D02*
X121259000Y-31550000D01*
X122793000Y-31870000D02*
X122227000Y-31870000D01*
X123027000Y-31830000D02*
X121993000Y-31830000D01*
X123187000Y-31790000D02*
X121833000Y-31790000D01*
X123315000Y-31750000D02*
X121705000Y-31750000D01*
X123424000Y-31710000D02*
X121596000Y-31710000D01*
X123521000Y-31670000D02*
X121499000Y-31670000D01*
X123608000Y-31630000D02*
X121412000Y-31630000D01*
X123687000Y-31590000D02*
X121333000Y-31590000D01*
X123761000Y-31550000D02*
X123550000Y-31550000D01*
X123829000Y-31510000D02*
X123550000Y-31510000D01*
X123893000Y-31470000D02*
X123550000Y-31470000D01*
X123953000Y-31430000D02*
X123550000Y-31430000D01*
X123985000Y-26465225D02*
X123985000Y-26965225D01*
X124009000Y-31390000D02*
X123550000Y-31390000D01*
X124063000Y-31350000D02*
X123550000Y-31350000D01*
X124114000Y-31310000D02*
X123550000Y-31310000D01*
X124162000Y-31270000D02*
X123550000Y-31270000D01*
X124209000Y-31230000D02*
X123550000Y-31230000D01*
X124235000Y-26715225D02*
X123735000Y-26715225D01*
X124253000Y-31190000D02*
X123550000Y-31190000D01*
X124295000Y-31150000D02*
X123550000Y-31150000D01*
X124335000Y-31110000D02*
X123550000Y-31110000D01*
X124374000Y-31070000D02*
X123550000Y-31070000D01*
X124411000Y-31030000D02*
X123550000Y-31030000D01*
X124446000Y-30990000D02*
X123550000Y-30990000D01*
X124480000Y-30950000D02*
X123550000Y-30950000D01*
X124513000Y-30910000D02*
X123550000Y-30910000D01*
X124545000Y-30870000D02*
X123550000Y-30870000D01*
X124575000Y-30830000D02*
X123550000Y-30830000D01*
X124604000Y-30790000D02*
X123550000Y-30790000D01*
X124632000Y-30750000D02*
X123550000Y-30750000D01*
X124659000Y-30710000D02*
X123550000Y-30710000D01*
X124685000Y-30670000D02*
X123550000Y-30670000D01*
X124709000Y-30630000D02*
X123550000Y-30630000D01*
X124733000Y-30590000D02*
X123550000Y-30590000D01*
X124756000Y-30550000D02*
X123550000Y-30550000D01*
X124778000Y-30510000D02*
X123550000Y-30510000D01*
X124799000Y-30470000D02*
X123550000Y-30470000D01*
X124819000Y-30430000D02*
X123550000Y-30430000D01*
X124839000Y-30390000D02*
X123550000Y-30390000D01*
X124857000Y-30350000D02*
X123550000Y-30350000D01*
X124875000Y-30310000D02*
X123550000Y-30310000D01*
X124892000Y-30270000D02*
X123550000Y-30270000D01*
X124908000Y-30230000D02*
X123550000Y-30230000D01*
X124923000Y-30190000D02*
X123550000Y-30190000D01*
X124938000Y-30150000D02*
X123550000Y-30150000D01*
X124952000Y-30110000D02*
X123550000Y-30110000D01*
X124965000Y-30070000D02*
X123550000Y-30070000D01*
X124977000Y-30030000D02*
X123550000Y-30030000D01*
X124989000Y-29990000D02*
X123550000Y-29990000D01*
X125000000Y-29950000D02*
X123550000Y-29950000D01*
X125011000Y-29910000D02*
X123550000Y-29910000D01*
X125020000Y-29870000D02*
X123550000Y-29870000D01*
X125029000Y-29830000D02*
X123550000Y-29830000D01*
X125038000Y-29790000D02*
X123550000Y-29790000D01*
X125046000Y-29750000D02*
X123550000Y-29750000D01*
X125053000Y-29710000D02*
X123550000Y-29710000D01*
X125059000Y-29670000D02*
X123550000Y-29670000D01*
X125065000Y-29630000D02*
X123550000Y-29630000D01*
X125070000Y-29590000D02*
X123550000Y-29590000D01*
X125075000Y-29550000D02*
X123550000Y-29550000D01*
X125079000Y-29510000D02*
X123550000Y-29510000D01*
X125082000Y-29470000D02*
X119938000Y-29470000D01*
X125085000Y-29430000D02*
X119935000Y-29430000D01*
X125087000Y-29390000D02*
X119933000Y-29390000D01*
X125089000Y-29350000D02*
X119931000Y-29350000D01*
X125090000Y-29270000D02*
X119930000Y-29270000D01*
X125090000Y-29310000D02*
X119930000Y-29310000D01*
X125130000Y-29270000D02*
G75*
G02*
X119890000Y-29270000I-2620000J0D01*
G01*
X119890000Y-29270000D02*
G75*
G02*
X125130000Y-29270000I2620000J0D01*
G01*
%TO.C,C13*%
X107630000Y-62980000D02*
X101328000Y-62980000D01*
X107630000Y-63020000D02*
X101341000Y-63020000D01*
X107630000Y-63060000D02*
X101353000Y-63060000D01*
X107630000Y-63100000D02*
X101365000Y-63100000D01*
X107630000Y-63140000D02*
X101378000Y-63140000D01*
X107630000Y-63180000D02*
X101391000Y-63180000D01*
X107630000Y-63220000D02*
X101404000Y-63220000D01*
X107630000Y-63260000D02*
X101418000Y-63260000D01*
X107630000Y-63300000D02*
X101431000Y-63300000D01*
X107630000Y-63340000D02*
X101445000Y-63340000D01*
X107630000Y-63380000D02*
X101459000Y-63380000D01*
X107630000Y-63420000D02*
X101473000Y-63420000D01*
X107630000Y-63460000D02*
X101488000Y-63460000D01*
X107630000Y-63500000D02*
X101503000Y-63500000D01*
X107630000Y-63540000D02*
X101518000Y-63540000D01*
X107630000Y-63580000D02*
X101533000Y-63580000D01*
X107630000Y-63620000D02*
X101549000Y-63620000D01*
X107630000Y-63660000D02*
X101565000Y-63660000D01*
X107630000Y-63700000D02*
X101581000Y-63700000D01*
X107630000Y-63740000D02*
X101597000Y-63740000D01*
X107630000Y-63780000D02*
X101613000Y-63780000D01*
X107630000Y-63820000D02*
X101630000Y-63820000D01*
X107630000Y-63860000D02*
X101647000Y-63860000D01*
X107630000Y-63900000D02*
X101664000Y-63900000D01*
X107630000Y-63940000D02*
X101682000Y-63940000D01*
X107630000Y-63980000D02*
X101700000Y-63980000D01*
X107630000Y-64020000D02*
X101718000Y-64020000D01*
X107630000Y-64060000D02*
X101736000Y-64060000D01*
X107630000Y-64100000D02*
X101755000Y-64100000D01*
X107630000Y-64140000D02*
X101774000Y-64140000D01*
X107630000Y-64180000D02*
X101793000Y-64180000D01*
X107630000Y-64220000D02*
X101812000Y-64220000D01*
X107630000Y-64260000D02*
X101832000Y-64260000D01*
X107630000Y-64300000D02*
X101852000Y-64300000D01*
X107630000Y-64340000D02*
X101872000Y-64340000D01*
X107630000Y-64380000D02*
X101892000Y-64380000D01*
X107630000Y-64420000D02*
X101913000Y-64420000D01*
X107630000Y-64460000D02*
X101934000Y-64460000D01*
X107630000Y-64500000D02*
X101955000Y-64500000D01*
X107630000Y-64540000D02*
X101977000Y-64540000D01*
X107630000Y-64580000D02*
X101999000Y-64580000D01*
X107630000Y-64620000D02*
X102021000Y-64620000D01*
X107630000Y-64660000D02*
X102044000Y-64660000D01*
X107630000Y-64700000D02*
X102066000Y-64700000D01*
X107630000Y-64740000D02*
X102089000Y-64740000D01*
X107630000Y-64780000D02*
X102113000Y-64780000D01*
X107630000Y-64820000D02*
X102137000Y-64820000D01*
X107630000Y-64860000D02*
X102161000Y-64860000D01*
X107630000Y-64900000D02*
X102185000Y-64900000D01*
X107630000Y-64940000D02*
X102210000Y-64940000D01*
X107630000Y-64980000D02*
X102235000Y-64980000D01*
X107630000Y-65020000D02*
X102260000Y-65020000D01*
X107630000Y-65060000D02*
X102285000Y-65060000D01*
X107630000Y-65100000D02*
X102311000Y-65100000D01*
X107630000Y-65140000D02*
X102338000Y-65140000D01*
X107630000Y-65180000D02*
X102364000Y-65180000D01*
X107630000Y-65220000D02*
X102391000Y-65220000D01*
X107630000Y-65260000D02*
X102419000Y-65260000D01*
X107630000Y-65300000D02*
X102446000Y-65300000D01*
X107630000Y-65340000D02*
X102474000Y-65340000D01*
X107630000Y-65380000D02*
X102503000Y-65380000D01*
X107630000Y-65420000D02*
X102531000Y-65420000D01*
X107630000Y-65460000D02*
X102561000Y-65460000D01*
X107630000Y-65500000D02*
X102590000Y-65500000D01*
X107630000Y-65540000D02*
X102620000Y-65540000D01*
X107630000Y-65580000D02*
X102650000Y-65580000D01*
X107630000Y-65620000D02*
X102681000Y-65620000D01*
X107630000Y-65660000D02*
X102712000Y-65660000D01*
X107630000Y-65700000D02*
X102743000Y-65700000D01*
X107630000Y-65740000D02*
X102775000Y-65740000D01*
X107630000Y-65780000D02*
X102808000Y-65780000D01*
X107630000Y-65820000D02*
X102840000Y-65820000D01*
X109835000Y-68740000D02*
X108305000Y-68740000D01*
X110167000Y-68700000D02*
X107973000Y-68700000D01*
X110421000Y-68660000D02*
X107719000Y-68660000D01*
X110634000Y-68620000D02*
X107506000Y-68620000D01*
X110821000Y-68580000D02*
X107319000Y-68580000D01*
X110990000Y-68540000D02*
X107150000Y-68540000D01*
X111144000Y-68500000D02*
X106996000Y-68500000D01*
X111287000Y-68460000D02*
X106853000Y-68460000D01*
X111421000Y-68420000D02*
X106719000Y-68420000D01*
X111547000Y-68380000D02*
X106593000Y-68380000D01*
X111667000Y-68340000D02*
X106473000Y-68340000D01*
X111780000Y-68300000D02*
X106360000Y-68300000D01*
X111889000Y-68260000D02*
X106251000Y-68260000D01*
X111993000Y-68220000D02*
X106147000Y-68220000D01*
X112093000Y-68180000D02*
X106047000Y-68180000D01*
X112190000Y-68140000D02*
X105950000Y-68140000D01*
X112283000Y-68100000D02*
X105857000Y-68100000D01*
X112373000Y-68060000D02*
X105767000Y-68060000D01*
X112460000Y-68020000D02*
X105680000Y-68020000D01*
X112545000Y-67980000D02*
X105595000Y-67980000D01*
X112627000Y-67940000D02*
X105513000Y-67940000D01*
X112707000Y-67900000D02*
X105433000Y-67900000D01*
X112784000Y-67860000D02*
X105356000Y-67860000D01*
X112860000Y-67820000D02*
X105280000Y-67820000D01*
X112934000Y-67780000D02*
X105206000Y-67780000D01*
X113006000Y-67740000D02*
X105134000Y-67740000D01*
X113076000Y-67700000D02*
X105064000Y-67700000D01*
X113145000Y-67660000D02*
X104995000Y-67660000D01*
X113212000Y-67620000D02*
X104928000Y-67620000D01*
X113278000Y-67580000D02*
X104862000Y-67580000D01*
X113343000Y-67540000D02*
X104797000Y-67540000D01*
X113406000Y-67500000D02*
X104734000Y-67500000D01*
X113468000Y-67460000D02*
X104672000Y-67460000D01*
X113529000Y-67420000D02*
X104611000Y-67420000D01*
X113588000Y-67380000D02*
X104552000Y-67380000D01*
X113625000Y-51970509D02*
X113625000Y-53570509D01*
X113646000Y-67340000D02*
X104494000Y-67340000D01*
X113704000Y-67300000D02*
X104436000Y-67300000D01*
X113760000Y-67260000D02*
X104380000Y-67260000D01*
X113815000Y-67220000D02*
X104325000Y-67220000D01*
X113870000Y-67180000D02*
X104270000Y-67180000D01*
X113923000Y-67140000D02*
X104217000Y-67140000D01*
X113976000Y-67100000D02*
X104164000Y-67100000D01*
X114027000Y-67060000D02*
X104113000Y-67060000D01*
X114078000Y-67020000D02*
X104062000Y-67020000D01*
X114128000Y-66980000D02*
X104012000Y-66980000D01*
X114177000Y-66940000D02*
X103963000Y-66940000D01*
X114226000Y-66900000D02*
X103914000Y-66900000D01*
X114274000Y-66860000D02*
X103866000Y-66860000D01*
X114320000Y-66820000D02*
X103820000Y-66820000D01*
X114367000Y-66780000D02*
X103773000Y-66780000D01*
X114412000Y-66740000D02*
X103728000Y-66740000D01*
X114425000Y-52770509D02*
X112825000Y-52770509D01*
X114457000Y-66700000D02*
X103683000Y-66700000D01*
X114501000Y-66660000D02*
X103639000Y-66660000D01*
X114545000Y-66620000D02*
X103595000Y-66620000D01*
X114588000Y-66580000D02*
X103552000Y-66580000D01*
X114630000Y-66540000D02*
X103510000Y-66540000D01*
X114672000Y-66500000D02*
X103468000Y-66500000D01*
X114713000Y-66460000D02*
X103427000Y-66460000D01*
X114753000Y-66420000D02*
X103387000Y-66420000D01*
X114793000Y-66380000D02*
X103347000Y-66380000D01*
X114833000Y-66340000D02*
X103307000Y-66340000D01*
X114872000Y-66300000D02*
X103268000Y-66300000D01*
X114910000Y-66260000D02*
X103230000Y-66260000D01*
X114948000Y-66220000D02*
X103192000Y-66220000D01*
X114985000Y-66180000D02*
X103155000Y-66180000D01*
X115022000Y-66140000D02*
X103118000Y-66140000D01*
X115058000Y-66100000D02*
X103082000Y-66100000D01*
X115094000Y-66060000D02*
X103046000Y-66060000D01*
X115130000Y-66020000D02*
X103010000Y-66020000D01*
X115164000Y-65980000D02*
X102976000Y-65980000D01*
X115199000Y-65940000D02*
X102941000Y-65940000D01*
X115233000Y-65900000D02*
X102907000Y-65900000D01*
X115267000Y-65860000D02*
X102873000Y-65860000D01*
X115300000Y-65820000D02*
X110510000Y-65820000D01*
X115332000Y-65780000D02*
X110510000Y-65780000D01*
X115365000Y-65740000D02*
X110510000Y-65740000D01*
X115397000Y-65700000D02*
X110510000Y-65700000D01*
X115428000Y-65660000D02*
X110510000Y-65660000D01*
X115459000Y-65620000D02*
X110510000Y-65620000D01*
X115490000Y-65580000D02*
X110510000Y-65580000D01*
X115520000Y-65540000D02*
X110510000Y-65540000D01*
X115550000Y-65500000D02*
X110510000Y-65500000D01*
X115579000Y-65460000D02*
X110510000Y-65460000D01*
X115609000Y-65420000D02*
X110510000Y-65420000D01*
X115637000Y-65380000D02*
X110510000Y-65380000D01*
X115666000Y-65340000D02*
X110510000Y-65340000D01*
X115694000Y-65300000D02*
X110510000Y-65300000D01*
X115721000Y-65260000D02*
X110510000Y-65260000D01*
X115749000Y-65220000D02*
X110510000Y-65220000D01*
X115776000Y-65180000D02*
X110510000Y-65180000D01*
X115802000Y-65140000D02*
X110510000Y-65140000D01*
X115829000Y-65100000D02*
X110510000Y-65100000D01*
X115855000Y-65060000D02*
X110510000Y-65060000D01*
X115880000Y-65020000D02*
X110510000Y-65020000D01*
X115905000Y-64980000D02*
X110510000Y-64980000D01*
X115930000Y-64940000D02*
X110510000Y-64940000D01*
X115955000Y-64900000D02*
X110510000Y-64900000D01*
X115979000Y-64860000D02*
X110510000Y-64860000D01*
X116003000Y-64820000D02*
X110510000Y-64820000D01*
X116027000Y-64780000D02*
X110510000Y-64780000D01*
X116051000Y-64740000D02*
X110510000Y-64740000D01*
X116074000Y-64700000D02*
X110510000Y-64700000D01*
X116096000Y-64660000D02*
X110510000Y-64660000D01*
X116119000Y-64620000D02*
X110510000Y-64620000D01*
X116141000Y-64580000D02*
X110510000Y-64580000D01*
X116163000Y-64540000D02*
X110510000Y-64540000D01*
X116185000Y-64500000D02*
X110510000Y-64500000D01*
X116206000Y-64460000D02*
X110510000Y-64460000D01*
X116227000Y-64420000D02*
X110510000Y-64420000D01*
X116248000Y-64380000D02*
X110510000Y-64380000D01*
X116268000Y-64340000D02*
X110510000Y-64340000D01*
X116288000Y-64300000D02*
X110510000Y-64300000D01*
X116308000Y-64260000D02*
X110510000Y-64260000D01*
X116328000Y-64220000D02*
X110510000Y-64220000D01*
X116347000Y-64180000D02*
X110510000Y-64180000D01*
X116366000Y-64140000D02*
X110510000Y-64140000D01*
X116385000Y-64100000D02*
X110510000Y-64100000D01*
X116404000Y-64060000D02*
X110510000Y-64060000D01*
X116422000Y-64020000D02*
X110510000Y-64020000D01*
X116440000Y-63980000D02*
X110510000Y-63980000D01*
X116458000Y-63940000D02*
X110510000Y-63940000D01*
X116476000Y-63900000D02*
X110510000Y-63900000D01*
X116493000Y-63860000D02*
X110510000Y-63860000D01*
X116510000Y-63820000D02*
X110510000Y-63820000D01*
X116527000Y-63780000D02*
X110510000Y-63780000D01*
X116543000Y-63740000D02*
X110510000Y-63740000D01*
X116559000Y-63700000D02*
X110510000Y-63700000D01*
X116575000Y-63660000D02*
X110510000Y-63660000D01*
X116591000Y-63620000D02*
X110510000Y-63620000D01*
X116607000Y-63580000D02*
X110510000Y-63580000D01*
X116622000Y-63540000D02*
X110510000Y-63540000D01*
X116637000Y-63500000D02*
X110510000Y-63500000D01*
X116652000Y-63460000D02*
X110510000Y-63460000D01*
X116667000Y-63420000D02*
X110510000Y-63420000D01*
X116681000Y-63380000D02*
X110510000Y-63380000D01*
X116695000Y-63340000D02*
X110510000Y-63340000D01*
X116709000Y-63300000D02*
X110510000Y-63300000D01*
X116722000Y-63260000D02*
X110510000Y-63260000D01*
X116736000Y-63220000D02*
X110510000Y-63220000D01*
X116749000Y-63180000D02*
X110510000Y-63180000D01*
X116762000Y-63140000D02*
X110510000Y-63140000D01*
X116775000Y-63100000D02*
X110510000Y-63100000D01*
X116787000Y-63060000D02*
X110510000Y-63060000D01*
X116799000Y-63020000D02*
X110510000Y-63020000D01*
X116812000Y-62980000D02*
X110510000Y-62980000D01*
X116823000Y-62940000D02*
X101317000Y-62940000D01*
X116835000Y-62900000D02*
X101305000Y-62900000D01*
X116846000Y-62860000D02*
X101294000Y-62860000D01*
X116857000Y-62820000D02*
X101283000Y-62820000D01*
X116868000Y-62780000D02*
X101272000Y-62780000D01*
X116879000Y-62740000D02*
X101261000Y-62740000D01*
X116890000Y-62700000D02*
X101250000Y-62700000D01*
X116900000Y-62660000D02*
X101240000Y-62660000D01*
X116910000Y-62620000D02*
X101230000Y-62620000D01*
X116920000Y-62580000D02*
X101220000Y-62580000D01*
X116929000Y-62540000D02*
X101211000Y-62540000D01*
X116939000Y-62500000D02*
X101201000Y-62500000D01*
X116948000Y-62460000D02*
X101192000Y-62460000D01*
X116957000Y-62420000D02*
X101183000Y-62420000D01*
X116966000Y-62380000D02*
X101174000Y-62380000D01*
X116974000Y-62340000D02*
X101166000Y-62340000D01*
X116983000Y-62300000D02*
X101157000Y-62300000D01*
X116991000Y-62260000D02*
X101149000Y-62260000D01*
X116999000Y-62220000D02*
X101141000Y-62220000D01*
X117006000Y-62180000D02*
X101134000Y-62180000D01*
X117014000Y-62140000D02*
X101126000Y-62140000D01*
X117021000Y-62100000D02*
X101119000Y-62100000D01*
X117028000Y-62060000D02*
X101112000Y-62060000D01*
X117035000Y-62020000D02*
X101105000Y-62020000D01*
X117042000Y-61980000D02*
X101098000Y-61980000D01*
X117048000Y-61940000D02*
X101092000Y-61940000D01*
X117055000Y-61900000D02*
X101085000Y-61900000D01*
X117061000Y-61860000D02*
X101079000Y-61860000D01*
X117067000Y-61820000D02*
X101073000Y-61820000D01*
X117072000Y-61780000D02*
X101068000Y-61780000D01*
X117078000Y-61740000D02*
X101062000Y-61740000D01*
X117083000Y-61700000D02*
X101057000Y-61700000D01*
X117088000Y-61660000D02*
X101052000Y-61660000D01*
X117093000Y-61620000D02*
X101047000Y-61620000D01*
X117098000Y-61580000D02*
X101042000Y-61580000D01*
X117102000Y-61540000D02*
X101038000Y-61540000D01*
X117106000Y-61500000D02*
X101034000Y-61500000D01*
X117110000Y-61460000D02*
X101030000Y-61460000D01*
X117114000Y-61420000D02*
X101026000Y-61420000D01*
X117118000Y-61380000D02*
X101022000Y-61380000D01*
X117121000Y-61340000D02*
X101019000Y-61340000D01*
X117125000Y-61300000D02*
X101015000Y-61300000D01*
X117128000Y-61260000D02*
X101012000Y-61260000D01*
X117131000Y-61220000D02*
X101009000Y-61220000D01*
X117133000Y-61180000D02*
X101007000Y-61180000D01*
X117136000Y-61140000D02*
X101004000Y-61140000D01*
X117138000Y-61100000D02*
X101002000Y-61100000D01*
X117140000Y-61060000D02*
X101000000Y-61060000D01*
X117142000Y-61020000D02*
X100998000Y-61020000D01*
X117144000Y-60980000D02*
X100996000Y-60980000D01*
X117145000Y-60940000D02*
X100995000Y-60940000D01*
X117146000Y-60900000D02*
X100994000Y-60900000D01*
X117148000Y-60820000D02*
X100992000Y-60820000D01*
X117148000Y-60860000D02*
X100992000Y-60860000D01*
X117149000Y-60780000D02*
X100991000Y-60780000D01*
X117150000Y-60660000D02*
X100990000Y-60660000D01*
X117150000Y-60700000D02*
X100990000Y-60700000D01*
X117150000Y-60740000D02*
X100990000Y-60740000D01*
X117190000Y-60660000D02*
G75*
G02*
X100950000Y-60660000I-8120000J0D01*
G01*
X100950000Y-60660000D02*
G75*
G02*
X117190000Y-60660000I8120000J0D01*
G01*
%TO.C,C15*%
X121630000Y-38650000D02*
X120101000Y-38650000D01*
X121630000Y-38690000D02*
X120105000Y-38690000D01*
X121630000Y-38730000D02*
X120110000Y-38730000D01*
X121630000Y-38770000D02*
X120115000Y-38770000D01*
X121630000Y-38810000D02*
X120121000Y-38810000D01*
X121630000Y-38850000D02*
X120127000Y-38850000D01*
X121630000Y-38890000D02*
X120134000Y-38890000D01*
X121630000Y-38930000D02*
X120142000Y-38930000D01*
X121630000Y-38970000D02*
X120151000Y-38970000D01*
X121630000Y-39010000D02*
X120160000Y-39010000D01*
X121630000Y-39050000D02*
X120169000Y-39050000D01*
X121630000Y-39090000D02*
X120180000Y-39090000D01*
X121630000Y-39130000D02*
X120191000Y-39130000D01*
X121630000Y-39170000D02*
X120203000Y-39170000D01*
X121630000Y-39210000D02*
X120215000Y-39210000D01*
X121630000Y-39250000D02*
X120228000Y-39250000D01*
X121630000Y-39290000D02*
X120242000Y-39290000D01*
X121630000Y-39330000D02*
X120257000Y-39330000D01*
X121630000Y-39370000D02*
X120272000Y-39370000D01*
X121630000Y-39410000D02*
X120288000Y-39410000D01*
X121630000Y-39450000D02*
X120305000Y-39450000D01*
X121630000Y-39490000D02*
X120323000Y-39490000D01*
X121630000Y-39530000D02*
X120341000Y-39530000D01*
X121630000Y-39570000D02*
X120361000Y-39570000D01*
X121630000Y-39610000D02*
X120381000Y-39610000D01*
X121630000Y-39650000D02*
X120402000Y-39650000D01*
X121630000Y-39690000D02*
X120424000Y-39690000D01*
X121630000Y-39730000D02*
X120447000Y-39730000D01*
X121630000Y-39770000D02*
X120471000Y-39770000D01*
X121630000Y-39810000D02*
X120495000Y-39810000D01*
X121630000Y-39850000D02*
X120521000Y-39850000D01*
X121630000Y-39890000D02*
X120548000Y-39890000D01*
X121630000Y-39930000D02*
X120576000Y-39930000D01*
X121630000Y-39970000D02*
X120605000Y-39970000D01*
X121630000Y-40010000D02*
X120635000Y-40010000D01*
X121630000Y-40050000D02*
X120667000Y-40050000D01*
X121630000Y-40090000D02*
X120700000Y-40090000D01*
X121630000Y-40130000D02*
X120734000Y-40130000D01*
X121630000Y-40170000D02*
X120769000Y-40170000D01*
X121630000Y-40210000D02*
X120806000Y-40210000D01*
X121630000Y-40250000D02*
X120845000Y-40250000D01*
X121630000Y-40290000D02*
X120885000Y-40290000D01*
X121630000Y-40330000D02*
X120927000Y-40330000D01*
X121630000Y-40370000D02*
X120971000Y-40370000D01*
X121630000Y-40410000D02*
X121018000Y-40410000D01*
X121630000Y-40450000D02*
X121066000Y-40450000D01*
X121630000Y-40490000D02*
X121117000Y-40490000D01*
X121630000Y-40530000D02*
X121171000Y-40530000D01*
X121630000Y-40570000D02*
X121227000Y-40570000D01*
X121630000Y-40610000D02*
X121287000Y-40610000D01*
X121630000Y-40650000D02*
X121351000Y-40650000D01*
X121630000Y-40690000D02*
X121419000Y-40690000D01*
X122953000Y-41010000D02*
X122387000Y-41010000D01*
X123187000Y-40970000D02*
X122153000Y-40970000D01*
X123347000Y-40930000D02*
X121993000Y-40930000D01*
X123475000Y-40890000D02*
X121865000Y-40890000D01*
X123584000Y-40850000D02*
X121756000Y-40850000D01*
X123681000Y-40810000D02*
X121659000Y-40810000D01*
X123768000Y-40770000D02*
X121572000Y-40770000D01*
X123847000Y-40730000D02*
X121493000Y-40730000D01*
X123921000Y-40690000D02*
X123710000Y-40690000D01*
X123989000Y-40650000D02*
X123710000Y-40650000D01*
X124053000Y-40610000D02*
X123710000Y-40610000D01*
X124113000Y-40570000D02*
X123710000Y-40570000D01*
X124145000Y-35605225D02*
X124145000Y-36105225D01*
X124169000Y-40530000D02*
X123710000Y-40530000D01*
X124223000Y-40490000D02*
X123710000Y-40490000D01*
X124274000Y-40450000D02*
X123710000Y-40450000D01*
X124322000Y-40410000D02*
X123710000Y-40410000D01*
X124369000Y-40370000D02*
X123710000Y-40370000D01*
X124395000Y-35855225D02*
X123895000Y-35855225D01*
X124413000Y-40330000D02*
X123710000Y-40330000D01*
X124455000Y-40290000D02*
X123710000Y-40290000D01*
X124495000Y-40250000D02*
X123710000Y-40250000D01*
X124534000Y-40210000D02*
X123710000Y-40210000D01*
X124571000Y-40170000D02*
X123710000Y-40170000D01*
X124606000Y-40130000D02*
X123710000Y-40130000D01*
X124640000Y-40090000D02*
X123710000Y-40090000D01*
X124673000Y-40050000D02*
X123710000Y-40050000D01*
X124705000Y-40010000D02*
X123710000Y-40010000D01*
X124735000Y-39970000D02*
X123710000Y-39970000D01*
X124764000Y-39930000D02*
X123710000Y-39930000D01*
X124792000Y-39890000D02*
X123710000Y-39890000D01*
X124819000Y-39850000D02*
X123710000Y-39850000D01*
X124845000Y-39810000D02*
X123710000Y-39810000D01*
X124869000Y-39770000D02*
X123710000Y-39770000D01*
X124893000Y-39730000D02*
X123710000Y-39730000D01*
X124916000Y-39690000D02*
X123710000Y-39690000D01*
X124938000Y-39650000D02*
X123710000Y-39650000D01*
X124959000Y-39610000D02*
X123710000Y-39610000D01*
X124979000Y-39570000D02*
X123710000Y-39570000D01*
X124999000Y-39530000D02*
X123710000Y-39530000D01*
X125017000Y-39490000D02*
X123710000Y-39490000D01*
X125035000Y-39450000D02*
X123710000Y-39450000D01*
X125052000Y-39410000D02*
X123710000Y-39410000D01*
X125068000Y-39370000D02*
X123710000Y-39370000D01*
X125083000Y-39330000D02*
X123710000Y-39330000D01*
X125098000Y-39290000D02*
X123710000Y-39290000D01*
X125112000Y-39250000D02*
X123710000Y-39250000D01*
X125125000Y-39210000D02*
X123710000Y-39210000D01*
X125137000Y-39170000D02*
X123710000Y-39170000D01*
X125149000Y-39130000D02*
X123710000Y-39130000D01*
X125160000Y-39090000D02*
X123710000Y-39090000D01*
X125171000Y-39050000D02*
X123710000Y-39050000D01*
X125180000Y-39010000D02*
X123710000Y-39010000D01*
X125189000Y-38970000D02*
X123710000Y-38970000D01*
X125198000Y-38930000D02*
X123710000Y-38930000D01*
X125206000Y-38890000D02*
X123710000Y-38890000D01*
X125213000Y-38850000D02*
X123710000Y-38850000D01*
X125219000Y-38810000D02*
X123710000Y-38810000D01*
X125225000Y-38770000D02*
X123710000Y-38770000D01*
X125230000Y-38730000D02*
X123710000Y-38730000D01*
X125235000Y-38690000D02*
X123710000Y-38690000D01*
X125239000Y-38650000D02*
X123710000Y-38650000D01*
X125242000Y-38610000D02*
X120098000Y-38610000D01*
X125245000Y-38570000D02*
X120095000Y-38570000D01*
X125247000Y-38530000D02*
X120093000Y-38530000D01*
X125249000Y-38490000D02*
X120091000Y-38490000D01*
X125250000Y-38410000D02*
X120090000Y-38410000D01*
X125250000Y-38450000D02*
X120090000Y-38450000D01*
X125290000Y-38410000D02*
G75*
G02*
X120050000Y-38410000I-2620000J0D01*
G01*
X120050000Y-38410000D02*
G75*
G02*
X125290000Y-38410000I2620000J0D01*
G01*
%TO.C,D2*%
X61486000Y-63069000D02*
X61486000Y-68911000D01*
X62629000Y-61926000D02*
G75*
G02*
X61486000Y-68911000I2921000J-4064000D01*
G01*
%TO.C,C9*%
X89480000Y-61040000D02*
X94720000Y-61040000D01*
X89480000Y-71580000D02*
X89480000Y-61040000D01*
X94720000Y-61040000D02*
X94720000Y-71580000D01*
X94720000Y-71580000D02*
X89480000Y-71580000D01*
%TO.C,Q2*%
X102330000Y-25030000D02*
X112550000Y-25030000D01*
X102330000Y-26410000D02*
X112550000Y-26410000D01*
X102330000Y-29650000D02*
X102330000Y-25030000D01*
X105590000Y-25030000D02*
X105590000Y-26410000D01*
X109290000Y-25030000D02*
X109290000Y-26410000D01*
X112550000Y-25030000D02*
X112550000Y-29650000D01*
X112550000Y-29650000D02*
X102330000Y-29650000D01*
%TO.C,R3*%
X70120000Y-41330000D02*
X76660000Y-41330000D01*
X70120000Y-41660000D02*
X70120000Y-41330000D01*
X70120000Y-43740000D02*
X70120000Y-44070000D01*
X70120000Y-44070000D02*
X76660000Y-44070000D01*
X76660000Y-41330000D02*
X76660000Y-41660000D01*
X76660000Y-44070000D02*
X76660000Y-43740000D01*
%TO.C,Q1*%
X65720000Y-25030000D02*
X75940000Y-25030000D01*
X65720000Y-26410000D02*
X75940000Y-26410000D01*
X65720000Y-29650000D02*
X65720000Y-25030000D01*
X68980000Y-25030000D02*
X68980000Y-26410000D01*
X72680000Y-25030000D02*
X72680000Y-26410000D01*
X75940000Y-25030000D02*
X75940000Y-29650000D01*
X75940000Y-29650000D02*
X65720000Y-29650000D01*
%TO.C,C5*%
X66650000Y-35900000D02*
X77190000Y-35900000D01*
X66650000Y-41140000D02*
X66650000Y-35900000D01*
X77190000Y-35900000D02*
X77190000Y-41140000D01*
X77190000Y-41140000D02*
X66650000Y-41140000D01*
%TO.C,IC2*%
X80200000Y-50020000D02*
X80200000Y-67920000D01*
X80200000Y-67920000D02*
X85500000Y-67920000D01*
X81850000Y-50020000D02*
X80200000Y-50020000D01*
X85500000Y-50020000D02*
X83850000Y-50020000D01*
X85500000Y-67920000D02*
X85500000Y-50020000D01*
X83850000Y-50020000D02*
G75*
G02*
X81850000Y-50020000I-1000000J0D01*
G01*
%TD*%
M02*
