%TF.GenerationSoftware,KiCad,Pcbnew,10.0.2*%
%TF.CreationDate,2026-10-06T21:33:01+02:00*%
%TF.ProjectId,TR-808PSU_Rev0.1,54522d38-3038-4505-9355-5f526576302e,rev?*%
%TF.SameCoordinates,Original*%
%TF.FileFunction,Soldermask,Bot*%
%TF.FilePolarity,Negative*%
%FSLAX46Y46*%
G04 Gerber Fmt 4.6, Leading zero omitted, Abs format (unit mm)*
G04 Created by KiCad (PCBNEW 10.0.2) date 2026-10-06 21:33:01*
%MOMM*%
%LPD*%
G01*
G04 APERTURE LIST*
G04 Aperture macros list*
%AMRoundRect*
0 Rectangle with rounded corners*
0 $1 Rounding radius*
0 $2 $3 $4 $5 $6 $7 $8 $9 X,Y pos of 4 corners*
0 Add a 4 corners polygon primitive as box body*
4,1,4,$2,$3,$4,$5,$6,$7,$8,$9,$2,$3,0*
0 Add four circle primitives for the rounded corners*
1,1,$1+$1,$2,$3*
1,1,$1+$1,$4,$5*
1,1,$1+$1,$6,$7*
1,1,$1+$1,$8,$9*
0 Add four rect primitives between the rounded corners*
20,1,$1+$1,$2,$3,$4,$5,0*
20,1,$1+$1,$4,$5,$6,$7,0*
20,1,$1+$1,$6,$7,$8,$9,0*
20,1,$1+$1,$8,$9,$2,$3,0*%
G04 Aperture macros list end*
%ADD10RoundRect,0.250000X-0.550000X0.550000X-0.550000X-0.550000X0.550000X-0.550000X0.550000X0.550000X0*%
%ADD11C,1.600000*%
%ADD12RoundRect,0.850000X-1.350000X-0.850000X1.350000X-0.850000X1.350000X0.850000X-1.350000X0.850000X0*%
%ADD13C,3.200000*%
%ADD14C,2.400000*%
%ADD15C,2.000000*%
%ADD16RoundRect,0.250000X-0.750000X-0.750000X0.750000X-0.750000X0.750000X0.750000X-0.750000X0.750000X0*%
%ADD17O,4.000000X5.000000*%
%ADD18RoundRect,0.250001X-0.949999X-0.949999X0.949999X-0.949999X0.949999X0.949999X-0.949999X0.949999X0*%
%ADD19R,1.905000X2.000000*%
%ADD20O,1.905000X2.000000*%
%ADD21R,2.000000X2.000000*%
%ADD22O,2.000000X2.000000*%
%ADD23RoundRect,0.250001X-0.949999X0.949999X-0.949999X-0.949999X0.949999X-0.949999X0.949999X0.949999X0*%
%ADD24RoundRect,0.250000X-0.550000X-0.550000X0.550000X-0.550000X0.550000X0.550000X-0.550000X0.550000X0*%
G04 APERTURE END LIST*
D10*
%TO.C,C16*%
X122670000Y-56520000D03*
D11*
X122670000Y-59020000D03*
%TD*%
D12*
%TO.C,P10*%
X35960000Y-110980000D03*
%TD*%
%TO.C,P6*%
X7780000Y-77680000D03*
%TD*%
D11*
%TO.C,R7*%
X54020000Y-27640000D03*
X61640000Y-27640000D03*
%TD*%
%TO.C,R2*%
X68600000Y-54840000D03*
X68600000Y-47220000D03*
%TD*%
%TO.C,R6*%
X93190000Y-36720000D03*
X93190000Y-29100000D03*
%TD*%
D13*
%TO.C,H9*%
X95360000Y-14310000D03*
%TD*%
D11*
%TO.C,R1*%
X97870000Y-68760000D03*
X97870000Y-61140000D03*
%TD*%
D14*
%TO.C,C1*%
X23940000Y-62660000D03*
X23940000Y-40160000D03*
%TD*%
D15*
%TO.C,C4*%
X43470000Y-57450000D03*
X50970000Y-57450000D03*
%TD*%
%TO.C,C10*%
X73440000Y-69570000D03*
X73440000Y-62070000D03*
%TD*%
D13*
%TO.C,H8*%
X82310000Y-14420000D03*
%TD*%
D15*
%TO.C,C6*%
X81980000Y-38520000D03*
X89480000Y-38520000D03*
%TD*%
D13*
%TO.C,H5*%
X22300000Y-14420000D03*
%TD*%
%TO.C,H2*%
X131920000Y-9520000D03*
%TD*%
D16*
%TO.C,C11*%
X81440000Y-30460000D03*
D15*
X86440000Y-30460000D03*
%TD*%
D17*
%TO.C,F2*%
X52770000Y-77420000D03*
X52770000Y-99920000D03*
%TD*%
D10*
%TO.C,D4*%
X124360000Y-85710000D03*
D11*
X124360000Y-95870000D03*
%TD*%
D13*
%TO.C,H4*%
X131650000Y-108470000D03*
%TD*%
D12*
%TO.C,P2*%
X7780000Y-34980000D03*
%TD*%
D11*
%TO.C,R5*%
X92430000Y-55820000D03*
X92430000Y-48200000D03*
%TD*%
D18*
%TO.C,C3*%
X47060000Y-45590000D03*
D14*
X52060000Y-45590000D03*
%TD*%
D11*
%TO.C,C8*%
X83020000Y-46240000D03*
X85520000Y-46240000D03*
%TD*%
D13*
%TO.C,H6*%
X46780000Y-14420000D03*
%TD*%
%TO.C,H10*%
X118480000Y-14310000D03*
%TD*%
D19*
%TO.C,IC1*%
X32060000Y-28290000D03*
D20*
X34600000Y-28290000D03*
X37140000Y-28290000D03*
%TD*%
D17*
%TO.C,F1*%
X23940000Y-77420000D03*
X23940000Y-99920000D03*
%TD*%
D11*
%TO.C,R4*%
X82850000Y-42700000D03*
X90470000Y-42700000D03*
%TD*%
D17*
%TO.C,F4*%
X87310000Y-77420000D03*
X87310000Y-99920000D03*
%TD*%
D15*
%TO.C,C2*%
X39770000Y-33240000D03*
X47270000Y-33240000D03*
%TD*%
D12*
%TO.C,P11*%
X46510000Y-110980000D03*
%TD*%
D10*
%TO.C,D3*%
X120170000Y-85710000D03*
D11*
X120170000Y-95870000D03*
%TD*%
D12*
%TO.C,P15*%
X131920000Y-95530000D03*
%TD*%
D13*
%TO.C,H7*%
X59680000Y-14140000D03*
%TD*%
D12*
%TO.C,P8*%
X7780000Y-96560000D03*
%TD*%
%TO.C,P1*%
X7780000Y-27960000D03*
%TD*%
D21*
%TO.C,D1*%
X44680000Y-63450000D03*
D22*
X44680000Y-68530000D03*
X49760000Y-68530000D03*
X49760000Y-63450000D03*
%TD*%
D12*
%TO.C,P9*%
X22200000Y-110980000D03*
%TD*%
%TO.C,P20*%
X131920000Y-41340000D03*
%TD*%
D17*
%TO.C,F3*%
X69900000Y-77420000D03*
X69900000Y-99920000D03*
%TD*%
D12*
%TO.C,P18*%
X131920000Y-63270000D03*
%TD*%
D11*
%TO.C,C7*%
X75020000Y-46240000D03*
X77520000Y-46240000D03*
%TD*%
D13*
%TO.C,H3*%
X9680000Y-109130000D03*
%TD*%
D23*
%TO.C,C12*%
X107710000Y-35150000D03*
D14*
X107710000Y-42650000D03*
%TD*%
D12*
%TO.C,P12*%
X57070000Y-110980000D03*
%TD*%
%TO.C,P13*%
X67950000Y-110980000D03*
%TD*%
D10*
%TO.C,C14*%
X122510000Y-28020000D03*
D11*
X122510000Y-30520000D03*
%TD*%
D12*
%TO.C,P14*%
X78340000Y-110980000D03*
%TD*%
%TO.C,P4*%
X7780000Y-53750000D03*
%TD*%
%TO.C,P17*%
X131920000Y-72790000D03*
%TD*%
D13*
%TO.C,H1*%
X9250000Y-9790000D03*
%TD*%
D23*
%TO.C,C13*%
X109070000Y-56910000D03*
D14*
X109070000Y-64410000D03*
%TD*%
D12*
%TO.C,P5*%
X7780000Y-65610000D03*
%TD*%
D10*
%TO.C,C15*%
X122670000Y-37160000D03*
D11*
X122670000Y-39660000D03*
%TD*%
D12*
%TO.C,P19*%
X131920000Y-53370000D03*
%TD*%
D21*
%TO.C,D2*%
X63010000Y-63450000D03*
D22*
X63010000Y-68530000D03*
X68090000Y-68530000D03*
X68090000Y-63450000D03*
%TD*%
D12*
%TO.C,P3*%
X7780000Y-46570000D03*
%TD*%
%TO.C,P21*%
X131920000Y-31770000D03*
%TD*%
%TO.C,P22*%
X131920000Y-22300000D03*
%TD*%
%TO.C,P7*%
X7780000Y-84320000D03*
%TD*%
D15*
%TO.C,C9*%
X92100000Y-70060000D03*
X92100000Y-62560000D03*
%TD*%
D12*
%TO.C,P16*%
X131920000Y-86220000D03*
%TD*%
D19*
%TO.C,Q2*%
X104900000Y-28290000D03*
D20*
X107440000Y-28290000D03*
X109980000Y-28290000D03*
%TD*%
D11*
%TO.C,R3*%
X69580000Y-42700000D03*
X77200000Y-42700000D03*
%TD*%
D19*
%TO.C,Q1*%
X68290000Y-28290000D03*
D20*
X70830000Y-28290000D03*
X73370000Y-28290000D03*
%TD*%
D15*
%TO.C,C5*%
X68170000Y-38520000D03*
X75670000Y-38520000D03*
%TD*%
D24*
%TO.C,IC2*%
X79040000Y-51350000D03*
D11*
X79040000Y-53890000D03*
X79040000Y-56430000D03*
X79040000Y-58970000D03*
X79040000Y-61510000D03*
X79040000Y-64050000D03*
X79040000Y-66590000D03*
X86660000Y-66590000D03*
X86660000Y-64050000D03*
X86660000Y-61510000D03*
X86660000Y-58970000D03*
X86660000Y-56430000D03*
X86660000Y-53890000D03*
X86660000Y-51350000D03*
%TD*%
M02*
