%TF.GenerationSoftware,KiCad,Pcbnew,10.0.2*%
%TF.CreationDate,2026-10-07T13:05:35+02:00*%
%TF.ProjectId,TR-808PSU_Rev0.1,54522d38-3038-4505-9355-5f526576302e,0.1*%
%TF.SameCoordinates,Original*%
%TF.FileFunction,Legend,Top*%
%TF.FilePolarity,Positive*%
%FSLAX46Y46*%
G04 Gerber Fmt 4.6, Leading zero omitted, Abs format (unit mm)*
G04 Created by KiCad (PCBNEW 10.0.2) date 2026-10-07 13:05:35*
%MOMM*%
%LPD*%
G01*
G04 APERTURE LIST*
%ADD10C,0.186667*%
%ADD11C,0.150000*%
%ADD12C,0.120000*%
%ADD13C,1.400000*%
%ADD14C,0.400000*%
G04 APERTURE END LIST*
D10*
X63023331Y-138082959D02*
X63823331Y-138082959D01*
X63423331Y-139482959D02*
X63423331Y-138082959D01*
X65089998Y-139482959D02*
X64623331Y-138816293D01*
X64289998Y-139482959D02*
X64289998Y-138082959D01*
X64289998Y-138082959D02*
X64823331Y-138082959D01*
X64823331Y-138082959D02*
X64956665Y-138149626D01*
X64956665Y-138149626D02*
X65023331Y-138216293D01*
X65023331Y-138216293D02*
X65089998Y-138349626D01*
X65089998Y-138349626D02*
X65089998Y-138549626D01*
X65089998Y-138549626D02*
X65023331Y-138682959D01*
X65023331Y-138682959D02*
X64956665Y-138749626D01*
X64956665Y-138749626D02*
X64823331Y-138816293D01*
X64823331Y-138816293D02*
X64289998Y-138816293D01*
X65689998Y-138949626D02*
X66756665Y-138949626D01*
X67623331Y-138682959D02*
X67489998Y-138616293D01*
X67489998Y-138616293D02*
X67423331Y-138549626D01*
X67423331Y-138549626D02*
X67356664Y-138416293D01*
X67356664Y-138416293D02*
X67356664Y-138349626D01*
X67356664Y-138349626D02*
X67423331Y-138216293D01*
X67423331Y-138216293D02*
X67489998Y-138149626D01*
X67489998Y-138149626D02*
X67623331Y-138082959D01*
X67623331Y-138082959D02*
X67889998Y-138082959D01*
X67889998Y-138082959D02*
X68023331Y-138149626D01*
X68023331Y-138149626D02*
X68089998Y-138216293D01*
X68089998Y-138216293D02*
X68156664Y-138349626D01*
X68156664Y-138349626D02*
X68156664Y-138416293D01*
X68156664Y-138416293D02*
X68089998Y-138549626D01*
X68089998Y-138549626D02*
X68023331Y-138616293D01*
X68023331Y-138616293D02*
X67889998Y-138682959D01*
X67889998Y-138682959D02*
X67623331Y-138682959D01*
X67623331Y-138682959D02*
X67489998Y-138749626D01*
X67489998Y-138749626D02*
X67423331Y-138816293D01*
X67423331Y-138816293D02*
X67356664Y-138949626D01*
X67356664Y-138949626D02*
X67356664Y-139216293D01*
X67356664Y-139216293D02*
X67423331Y-139349626D01*
X67423331Y-139349626D02*
X67489998Y-139416293D01*
X67489998Y-139416293D02*
X67623331Y-139482959D01*
X67623331Y-139482959D02*
X67889998Y-139482959D01*
X67889998Y-139482959D02*
X68023331Y-139416293D01*
X68023331Y-139416293D02*
X68089998Y-139349626D01*
X68089998Y-139349626D02*
X68156664Y-139216293D01*
X68156664Y-139216293D02*
X68156664Y-138949626D01*
X68156664Y-138949626D02*
X68089998Y-138816293D01*
X68089998Y-138816293D02*
X68023331Y-138749626D01*
X68023331Y-138749626D02*
X67889998Y-138682959D01*
X69023331Y-138082959D02*
X69156664Y-138082959D01*
X69156664Y-138082959D02*
X69289997Y-138149626D01*
X69289997Y-138149626D02*
X69356664Y-138216293D01*
X69356664Y-138216293D02*
X69423331Y-138349626D01*
X69423331Y-138349626D02*
X69489997Y-138616293D01*
X69489997Y-138616293D02*
X69489997Y-138949626D01*
X69489997Y-138949626D02*
X69423331Y-139216293D01*
X69423331Y-139216293D02*
X69356664Y-139349626D01*
X69356664Y-139349626D02*
X69289997Y-139416293D01*
X69289997Y-139416293D02*
X69156664Y-139482959D01*
X69156664Y-139482959D02*
X69023331Y-139482959D01*
X69023331Y-139482959D02*
X68889997Y-139416293D01*
X68889997Y-139416293D02*
X68823331Y-139349626D01*
X68823331Y-139349626D02*
X68756664Y-139216293D01*
X68756664Y-139216293D02*
X68689997Y-138949626D01*
X68689997Y-138949626D02*
X68689997Y-138616293D01*
X68689997Y-138616293D02*
X68756664Y-138349626D01*
X68756664Y-138349626D02*
X68823331Y-138216293D01*
X68823331Y-138216293D02*
X68889997Y-138149626D01*
X68889997Y-138149626D02*
X69023331Y-138082959D01*
X70289997Y-138682959D02*
X70156664Y-138616293D01*
X70156664Y-138616293D02*
X70089997Y-138549626D01*
X70089997Y-138549626D02*
X70023330Y-138416293D01*
X70023330Y-138416293D02*
X70023330Y-138349626D01*
X70023330Y-138349626D02*
X70089997Y-138216293D01*
X70089997Y-138216293D02*
X70156664Y-138149626D01*
X70156664Y-138149626D02*
X70289997Y-138082959D01*
X70289997Y-138082959D02*
X70556664Y-138082959D01*
X70556664Y-138082959D02*
X70689997Y-138149626D01*
X70689997Y-138149626D02*
X70756664Y-138216293D01*
X70756664Y-138216293D02*
X70823330Y-138349626D01*
X70823330Y-138349626D02*
X70823330Y-138416293D01*
X70823330Y-138416293D02*
X70756664Y-138549626D01*
X70756664Y-138549626D02*
X70689997Y-138616293D01*
X70689997Y-138616293D02*
X70556664Y-138682959D01*
X70556664Y-138682959D02*
X70289997Y-138682959D01*
X70289997Y-138682959D02*
X70156664Y-138749626D01*
X70156664Y-138749626D02*
X70089997Y-138816293D01*
X70089997Y-138816293D02*
X70023330Y-138949626D01*
X70023330Y-138949626D02*
X70023330Y-139216293D01*
X70023330Y-139216293D02*
X70089997Y-139349626D01*
X70089997Y-139349626D02*
X70156664Y-139416293D01*
X70156664Y-139416293D02*
X70289997Y-139482959D01*
X70289997Y-139482959D02*
X70556664Y-139482959D01*
X70556664Y-139482959D02*
X70689997Y-139416293D01*
X70689997Y-139416293D02*
X70756664Y-139349626D01*
X70756664Y-139349626D02*
X70823330Y-139216293D01*
X70823330Y-139216293D02*
X70823330Y-138949626D01*
X70823330Y-138949626D02*
X70756664Y-138816293D01*
X70756664Y-138816293D02*
X70689997Y-138749626D01*
X70689997Y-138749626D02*
X70556664Y-138682959D01*
X71423330Y-139482959D02*
X71423330Y-138082959D01*
X71423330Y-138082959D02*
X71956663Y-138082959D01*
X71956663Y-138082959D02*
X72089997Y-138149626D01*
X72089997Y-138149626D02*
X72156663Y-138216293D01*
X72156663Y-138216293D02*
X72223330Y-138349626D01*
X72223330Y-138349626D02*
X72223330Y-138549626D01*
X72223330Y-138549626D02*
X72156663Y-138682959D01*
X72156663Y-138682959D02*
X72089997Y-138749626D01*
X72089997Y-138749626D02*
X71956663Y-138816293D01*
X71956663Y-138816293D02*
X71423330Y-138816293D01*
X72756663Y-139416293D02*
X72956663Y-139482959D01*
X72956663Y-139482959D02*
X73289997Y-139482959D01*
X73289997Y-139482959D02*
X73423330Y-139416293D01*
X73423330Y-139416293D02*
X73489997Y-139349626D01*
X73489997Y-139349626D02*
X73556663Y-139216293D01*
X73556663Y-139216293D02*
X73556663Y-139082959D01*
X73556663Y-139082959D02*
X73489997Y-138949626D01*
X73489997Y-138949626D02*
X73423330Y-138882959D01*
X73423330Y-138882959D02*
X73289997Y-138816293D01*
X73289997Y-138816293D02*
X73023330Y-138749626D01*
X73023330Y-138749626D02*
X72889997Y-138682959D01*
X72889997Y-138682959D02*
X72823330Y-138616293D01*
X72823330Y-138616293D02*
X72756663Y-138482959D01*
X72756663Y-138482959D02*
X72756663Y-138349626D01*
X72756663Y-138349626D02*
X72823330Y-138216293D01*
X72823330Y-138216293D02*
X72889997Y-138149626D01*
X72889997Y-138149626D02*
X73023330Y-138082959D01*
X73023330Y-138082959D02*
X73356663Y-138082959D01*
X73356663Y-138082959D02*
X73556663Y-138149626D01*
X74156663Y-138082959D02*
X74156663Y-139216293D01*
X74156663Y-139216293D02*
X74223330Y-139349626D01*
X74223330Y-139349626D02*
X74289996Y-139416293D01*
X74289996Y-139416293D02*
X74423330Y-139482959D01*
X74423330Y-139482959D02*
X74689996Y-139482959D01*
X74689996Y-139482959D02*
X74823330Y-139416293D01*
X74823330Y-139416293D02*
X74889996Y-139349626D01*
X74889996Y-139349626D02*
X74956663Y-139216293D01*
X74956663Y-139216293D02*
X74956663Y-138082959D01*
X77489997Y-139482959D02*
X77023330Y-138816293D01*
X76689997Y-139482959D02*
X76689997Y-138082959D01*
X76689997Y-138082959D02*
X77223330Y-138082959D01*
X77223330Y-138082959D02*
X77356664Y-138149626D01*
X77356664Y-138149626D02*
X77423330Y-138216293D01*
X77423330Y-138216293D02*
X77489997Y-138349626D01*
X77489997Y-138349626D02*
X77489997Y-138549626D01*
X77489997Y-138549626D02*
X77423330Y-138682959D01*
X77423330Y-138682959D02*
X77356664Y-138749626D01*
X77356664Y-138749626D02*
X77223330Y-138816293D01*
X77223330Y-138816293D02*
X76689997Y-138816293D01*
X78623330Y-139416293D02*
X78489997Y-139482959D01*
X78489997Y-139482959D02*
X78223330Y-139482959D01*
X78223330Y-139482959D02*
X78089997Y-139416293D01*
X78089997Y-139416293D02*
X78023330Y-139282959D01*
X78023330Y-139282959D02*
X78023330Y-138749626D01*
X78023330Y-138749626D02*
X78089997Y-138616293D01*
X78089997Y-138616293D02*
X78223330Y-138549626D01*
X78223330Y-138549626D02*
X78489997Y-138549626D01*
X78489997Y-138549626D02*
X78623330Y-138616293D01*
X78623330Y-138616293D02*
X78689997Y-138749626D01*
X78689997Y-138749626D02*
X78689997Y-138882959D01*
X78689997Y-138882959D02*
X78023330Y-139016293D01*
X79156664Y-138549626D02*
X79489997Y-139482959D01*
X79489997Y-139482959D02*
X79823330Y-138549626D01*
X80623331Y-138082959D02*
X80756664Y-138082959D01*
X80756664Y-138082959D02*
X80889997Y-138149626D01*
X80889997Y-138149626D02*
X80956664Y-138216293D01*
X80956664Y-138216293D02*
X81023331Y-138349626D01*
X81023331Y-138349626D02*
X81089997Y-138616293D01*
X81089997Y-138616293D02*
X81089997Y-138949626D01*
X81089997Y-138949626D02*
X81023331Y-139216293D01*
X81023331Y-139216293D02*
X80956664Y-139349626D01*
X80956664Y-139349626D02*
X80889997Y-139416293D01*
X80889997Y-139416293D02*
X80756664Y-139482959D01*
X80756664Y-139482959D02*
X80623331Y-139482959D01*
X80623331Y-139482959D02*
X80489997Y-139416293D01*
X80489997Y-139416293D02*
X80423331Y-139349626D01*
X80423331Y-139349626D02*
X80356664Y-139216293D01*
X80356664Y-139216293D02*
X80289997Y-138949626D01*
X80289997Y-138949626D02*
X80289997Y-138616293D01*
X80289997Y-138616293D02*
X80356664Y-138349626D01*
X80356664Y-138349626D02*
X80423331Y-138216293D01*
X80423331Y-138216293D02*
X80489997Y-138149626D01*
X80489997Y-138149626D02*
X80623331Y-138082959D01*
X81689997Y-139349626D02*
X81756664Y-139416293D01*
X81756664Y-139416293D02*
X81689997Y-139482959D01*
X81689997Y-139482959D02*
X81623330Y-139416293D01*
X81623330Y-139416293D02*
X81689997Y-139349626D01*
X81689997Y-139349626D02*
X81689997Y-139482959D01*
X83089997Y-139482959D02*
X82289997Y-139482959D01*
X82689997Y-139482959D02*
X82689997Y-138082959D01*
X82689997Y-138082959D02*
X82556664Y-138282959D01*
X82556664Y-138282959D02*
X82423331Y-138416293D01*
X82423331Y-138416293D02*
X82289997Y-138482959D01*
X84756664Y-139482959D02*
X84756664Y-138082959D01*
X84756664Y-138616293D02*
X84889997Y-138549626D01*
X84889997Y-138549626D02*
X85156664Y-138549626D01*
X85156664Y-138549626D02*
X85289997Y-138616293D01*
X85289997Y-138616293D02*
X85356664Y-138682959D01*
X85356664Y-138682959D02*
X85423331Y-138816293D01*
X85423331Y-138816293D02*
X85423331Y-139216293D01*
X85423331Y-139216293D02*
X85356664Y-139349626D01*
X85356664Y-139349626D02*
X85289997Y-139416293D01*
X85289997Y-139416293D02*
X85156664Y-139482959D01*
X85156664Y-139482959D02*
X84889997Y-139482959D01*
X84889997Y-139482959D02*
X84756664Y-139416293D01*
X85889998Y-138549626D02*
X86223331Y-139482959D01*
X86556664Y-138549626D02*
X86223331Y-139482959D01*
X86223331Y-139482959D02*
X86089998Y-139816293D01*
X86089998Y-139816293D02*
X86023331Y-139882959D01*
X86023331Y-139882959D02*
X85889998Y-139949626D01*
X88156665Y-139482959D02*
X88156665Y-138082959D01*
X88156665Y-138082959D02*
X88489998Y-138082959D01*
X88489998Y-138082959D02*
X88689998Y-138149626D01*
X88689998Y-138149626D02*
X88823332Y-138282959D01*
X88823332Y-138282959D02*
X88889998Y-138416293D01*
X88889998Y-138416293D02*
X88956665Y-138682959D01*
X88956665Y-138682959D02*
X88956665Y-138882959D01*
X88956665Y-138882959D02*
X88889998Y-139149626D01*
X88889998Y-139149626D02*
X88823332Y-139282959D01*
X88823332Y-139282959D02*
X88689998Y-139416293D01*
X88689998Y-139416293D02*
X88489998Y-139482959D01*
X88489998Y-139482959D02*
X88156665Y-139482959D01*
X89489998Y-139416293D02*
X89689998Y-139482959D01*
X89689998Y-139482959D02*
X90023332Y-139482959D01*
X90023332Y-139482959D02*
X90156665Y-139416293D01*
X90156665Y-139416293D02*
X90223332Y-139349626D01*
X90223332Y-139349626D02*
X90289998Y-139216293D01*
X90289998Y-139216293D02*
X90289998Y-139082959D01*
X90289998Y-139082959D02*
X90223332Y-138949626D01*
X90223332Y-138949626D02*
X90156665Y-138882959D01*
X90156665Y-138882959D02*
X90023332Y-138816293D01*
X90023332Y-138816293D02*
X89756665Y-138749626D01*
X89756665Y-138749626D02*
X89623332Y-138682959D01*
X89623332Y-138682959D02*
X89556665Y-138616293D01*
X89556665Y-138616293D02*
X89489998Y-138482959D01*
X89489998Y-138482959D02*
X89489998Y-138349626D01*
X89489998Y-138349626D02*
X89556665Y-138216293D01*
X89556665Y-138216293D02*
X89623332Y-138149626D01*
X89623332Y-138149626D02*
X89756665Y-138082959D01*
X89756665Y-138082959D02*
X90089998Y-138082959D01*
X90089998Y-138082959D02*
X90289998Y-138149626D01*
X91556665Y-139482959D02*
X90889998Y-139482959D01*
X90889998Y-139482959D02*
X90889998Y-138082959D01*
X92023331Y-138949626D02*
X93089998Y-138949626D01*
X93756664Y-139482959D02*
X93756664Y-138549626D01*
X93756664Y-138682959D02*
X93823331Y-138616293D01*
X93823331Y-138616293D02*
X93956664Y-138549626D01*
X93956664Y-138549626D02*
X94156664Y-138549626D01*
X94156664Y-138549626D02*
X94289997Y-138616293D01*
X94289997Y-138616293D02*
X94356664Y-138749626D01*
X94356664Y-138749626D02*
X94356664Y-139482959D01*
X94356664Y-138749626D02*
X94423331Y-138616293D01*
X94423331Y-138616293D02*
X94556664Y-138549626D01*
X94556664Y-138549626D02*
X94756664Y-138549626D01*
X94756664Y-138549626D02*
X94889997Y-138616293D01*
X94889997Y-138616293D02*
X94956664Y-138749626D01*
X94956664Y-138749626D02*
X94956664Y-139482959D01*
X96223331Y-139482959D02*
X96223331Y-138749626D01*
X96223331Y-138749626D02*
X96156664Y-138616293D01*
X96156664Y-138616293D02*
X96023331Y-138549626D01*
X96023331Y-138549626D02*
X95756664Y-138549626D01*
X95756664Y-138549626D02*
X95623331Y-138616293D01*
X96223331Y-139416293D02*
X96089998Y-139482959D01*
X96089998Y-139482959D02*
X95756664Y-139482959D01*
X95756664Y-139482959D02*
X95623331Y-139416293D01*
X95623331Y-139416293D02*
X95556664Y-139282959D01*
X95556664Y-139282959D02*
X95556664Y-139149626D01*
X95556664Y-139149626D02*
X95623331Y-139016293D01*
X95623331Y-139016293D02*
X95756664Y-138949626D01*
X95756664Y-138949626D02*
X96089998Y-138949626D01*
X96089998Y-138949626D02*
X96223331Y-138882959D01*
X96889998Y-138549626D02*
X96889998Y-139482959D01*
X96889998Y-138682959D02*
X96956665Y-138616293D01*
X96956665Y-138616293D02*
X97089998Y-138549626D01*
X97089998Y-138549626D02*
X97289998Y-138549626D01*
X97289998Y-138549626D02*
X97423331Y-138616293D01*
X97423331Y-138616293D02*
X97489998Y-138749626D01*
X97489998Y-138749626D02*
X97489998Y-139482959D01*
X98156665Y-139349626D02*
X98223332Y-139416293D01*
X98223332Y-139416293D02*
X98156665Y-139482959D01*
X98156665Y-139482959D02*
X98089998Y-139416293D01*
X98089998Y-139416293D02*
X98156665Y-139349626D01*
X98156665Y-139349626D02*
X98156665Y-139482959D01*
X99423332Y-139482959D02*
X99423332Y-138082959D01*
X99423332Y-139416293D02*
X99289999Y-139482959D01*
X99289999Y-139482959D02*
X99023332Y-139482959D01*
X99023332Y-139482959D02*
X98889999Y-139416293D01*
X98889999Y-139416293D02*
X98823332Y-139349626D01*
X98823332Y-139349626D02*
X98756665Y-139216293D01*
X98756665Y-139216293D02*
X98756665Y-138816293D01*
X98756665Y-138816293D02*
X98823332Y-138682959D01*
X98823332Y-138682959D02*
X98889999Y-138616293D01*
X98889999Y-138616293D02*
X99023332Y-138549626D01*
X99023332Y-138549626D02*
X99289999Y-138549626D01*
X99289999Y-138549626D02*
X99423332Y-138616293D01*
X100623332Y-139416293D02*
X100489999Y-139482959D01*
X100489999Y-139482959D02*
X100223332Y-139482959D01*
X100223332Y-139482959D02*
X100089999Y-139416293D01*
X100089999Y-139416293D02*
X100023332Y-139282959D01*
X100023332Y-139282959D02*
X100023332Y-138749626D01*
X100023332Y-138749626D02*
X100089999Y-138616293D01*
X100089999Y-138616293D02*
X100223332Y-138549626D01*
X100223332Y-138549626D02*
X100489999Y-138549626D01*
X100489999Y-138549626D02*
X100623332Y-138616293D01*
X100623332Y-138616293D02*
X100689999Y-138749626D01*
X100689999Y-138749626D02*
X100689999Y-138882959D01*
X100689999Y-138882959D02*
X100023332Y-139016293D01*
X102956666Y-139482959D02*
X102956666Y-138749626D01*
X102956666Y-138749626D02*
X102889999Y-138616293D01*
X102889999Y-138616293D02*
X102756666Y-138549626D01*
X102756666Y-138549626D02*
X102489999Y-138549626D01*
X102489999Y-138549626D02*
X102356666Y-138616293D01*
X102956666Y-139416293D02*
X102823333Y-139482959D01*
X102823333Y-139482959D02*
X102489999Y-139482959D01*
X102489999Y-139482959D02*
X102356666Y-139416293D01*
X102356666Y-139416293D02*
X102289999Y-139282959D01*
X102289999Y-139282959D02*
X102289999Y-139149626D01*
X102289999Y-139149626D02*
X102356666Y-139016293D01*
X102356666Y-139016293D02*
X102489999Y-138949626D01*
X102489999Y-138949626D02*
X102823333Y-138949626D01*
X102823333Y-138949626D02*
X102956666Y-138882959D01*
X103623333Y-139482959D02*
X103623333Y-138082959D01*
X103756666Y-138949626D02*
X104156666Y-139482959D01*
X104156666Y-138549626D02*
X103623333Y-139082959D01*
X105356666Y-139482959D02*
X105356666Y-138749626D01*
X105356666Y-138749626D02*
X105289999Y-138616293D01*
X105289999Y-138616293D02*
X105156666Y-138549626D01*
X105156666Y-138549626D02*
X104889999Y-138549626D01*
X104889999Y-138549626D02*
X104756666Y-138616293D01*
X105356666Y-139416293D02*
X105223333Y-139482959D01*
X105223333Y-139482959D02*
X104889999Y-139482959D01*
X104889999Y-139482959D02*
X104756666Y-139416293D01*
X104756666Y-139416293D02*
X104689999Y-139282959D01*
X104689999Y-139282959D02*
X104689999Y-139149626D01*
X104689999Y-139149626D02*
X104756666Y-139016293D01*
X104756666Y-139016293D02*
X104889999Y-138949626D01*
X104889999Y-138949626D02*
X105223333Y-138949626D01*
X105223333Y-138949626D02*
X105356666Y-138882959D01*
X107090000Y-139482959D02*
X107090000Y-138082959D01*
X107090000Y-138082959D02*
X107423333Y-138082959D01*
X107423333Y-138082959D02*
X107623333Y-138149626D01*
X107623333Y-138149626D02*
X107756667Y-138282959D01*
X107756667Y-138282959D02*
X107823333Y-138416293D01*
X107823333Y-138416293D02*
X107890000Y-138682959D01*
X107890000Y-138682959D02*
X107890000Y-138882959D01*
X107890000Y-138882959D02*
X107823333Y-139149626D01*
X107823333Y-139149626D02*
X107756667Y-139282959D01*
X107756667Y-139282959D02*
X107623333Y-139416293D01*
X107623333Y-139416293D02*
X107423333Y-139482959D01*
X107423333Y-139482959D02*
X107090000Y-139482959D01*
X108490000Y-139482959D02*
X108490000Y-138082959D01*
X109423334Y-138816293D02*
X109423334Y-139482959D01*
X108956667Y-138082959D02*
X109423334Y-138816293D01*
X109423334Y-138816293D02*
X109890000Y-138082959D01*
X110290000Y-139416293D02*
X110490000Y-139482959D01*
X110490000Y-139482959D02*
X110823334Y-139482959D01*
X110823334Y-139482959D02*
X110956667Y-139416293D01*
X110956667Y-139416293D02*
X111023334Y-139349626D01*
X111023334Y-139349626D02*
X111090000Y-139216293D01*
X111090000Y-139216293D02*
X111090000Y-139082959D01*
X111090000Y-139082959D02*
X111023334Y-138949626D01*
X111023334Y-138949626D02*
X110956667Y-138882959D01*
X110956667Y-138882959D02*
X110823334Y-138816293D01*
X110823334Y-138816293D02*
X110556667Y-138749626D01*
X110556667Y-138749626D02*
X110423334Y-138682959D01*
X110423334Y-138682959D02*
X110356667Y-138616293D01*
X110356667Y-138616293D02*
X110290000Y-138482959D01*
X110290000Y-138482959D02*
X110290000Y-138349626D01*
X110290000Y-138349626D02*
X110356667Y-138216293D01*
X110356667Y-138216293D02*
X110423334Y-138149626D01*
X110423334Y-138149626D02*
X110556667Y-138082959D01*
X110556667Y-138082959D02*
X110890000Y-138082959D01*
X110890000Y-138082959D02*
X111090000Y-138149626D01*
X111956667Y-138816293D02*
X111956667Y-139482959D01*
X111490000Y-138082959D02*
X111956667Y-138816293D01*
X111956667Y-138816293D02*
X112423333Y-138082959D01*
X112890000Y-139482959D02*
X112890000Y-138082959D01*
X112890000Y-138082959D02*
X113690000Y-139482959D01*
X113690000Y-139482959D02*
X113690000Y-138082959D01*
X114156667Y-138082959D02*
X114956667Y-138082959D01*
X114556667Y-139482959D02*
X114556667Y-138082959D01*
X115423334Y-139482959D02*
X115423334Y-138082959D01*
X115423334Y-138749626D02*
X116223334Y-138749626D01*
X116223334Y-139482959D02*
X116223334Y-138082959D01*
X116890001Y-139349626D02*
X116956668Y-139416293D01*
X116956668Y-139416293D02*
X116890001Y-139482959D01*
X116890001Y-139482959D02*
X116823334Y-139416293D01*
X116823334Y-139416293D02*
X116890001Y-139349626D01*
X116890001Y-139349626D02*
X116890001Y-139482959D01*
X118156668Y-139482959D02*
X118156668Y-138082959D01*
X118156668Y-139416293D02*
X118023335Y-139482959D01*
X118023335Y-139482959D02*
X117756668Y-139482959D01*
X117756668Y-139482959D02*
X117623335Y-139416293D01*
X117623335Y-139416293D02*
X117556668Y-139349626D01*
X117556668Y-139349626D02*
X117490001Y-139216293D01*
X117490001Y-139216293D02*
X117490001Y-138816293D01*
X117490001Y-138816293D02*
X117556668Y-138682959D01*
X117556668Y-138682959D02*
X117623335Y-138616293D01*
X117623335Y-138616293D02*
X117756668Y-138549626D01*
X117756668Y-138549626D02*
X118023335Y-138549626D01*
X118023335Y-138549626D02*
X118156668Y-138616293D01*
X119356668Y-139416293D02*
X119223335Y-139482959D01*
X119223335Y-139482959D02*
X118956668Y-139482959D01*
X118956668Y-139482959D02*
X118823335Y-139416293D01*
X118823335Y-139416293D02*
X118756668Y-139282959D01*
X118756668Y-139282959D02*
X118756668Y-138749626D01*
X118756668Y-138749626D02*
X118823335Y-138616293D01*
X118823335Y-138616293D02*
X118956668Y-138549626D01*
X118956668Y-138549626D02*
X119223335Y-138549626D01*
X119223335Y-138549626D02*
X119356668Y-138616293D01*
X119356668Y-138616293D02*
X119423335Y-138749626D01*
X119423335Y-138749626D02*
X119423335Y-138882959D01*
X119423335Y-138882959D02*
X118756668Y-139016293D01*
D11*
X115623333Y-66029819D02*
X115290000Y-65553628D01*
X115051905Y-66029819D02*
X115051905Y-65029819D01*
X115051905Y-65029819D02*
X115432857Y-65029819D01*
X115432857Y-65029819D02*
X115528095Y-65077438D01*
X115528095Y-65077438D02*
X115575714Y-65125057D01*
X115575714Y-65125057D02*
X115623333Y-65220295D01*
X115623333Y-65220295D02*
X115623333Y-65363152D01*
X115623333Y-65363152D02*
X115575714Y-65458390D01*
X115575714Y-65458390D02*
X115528095Y-65506009D01*
X115528095Y-65506009D02*
X115432857Y-65553628D01*
X115432857Y-65553628D02*
X115051905Y-65553628D01*
X116528095Y-65029819D02*
X116051905Y-65029819D01*
X116051905Y-65029819D02*
X116004286Y-65506009D01*
X116004286Y-65506009D02*
X116051905Y-65458390D01*
X116051905Y-65458390D02*
X116147143Y-65410771D01*
X116147143Y-65410771D02*
X116385238Y-65410771D01*
X116385238Y-65410771D02*
X116480476Y-65458390D01*
X116480476Y-65458390D02*
X116528095Y-65506009D01*
X116528095Y-65506009D02*
X116575714Y-65601247D01*
X116575714Y-65601247D02*
X116575714Y-65839342D01*
X116575714Y-65839342D02*
X116528095Y-65934580D01*
X116528095Y-65934580D02*
X116480476Y-65982200D01*
X116480476Y-65982200D02*
X116385238Y-66029819D01*
X116385238Y-66029819D02*
X116147143Y-66029819D01*
X116147143Y-66029819D02*
X116051905Y-65982200D01*
X116051905Y-65982200D02*
X116004286Y-65934580D01*
X75695714Y-135329819D02*
X75695714Y-134329819D01*
X75695714Y-134329819D02*
X76076666Y-134329819D01*
X76076666Y-134329819D02*
X76171904Y-134377438D01*
X76171904Y-134377438D02*
X76219523Y-134425057D01*
X76219523Y-134425057D02*
X76267142Y-134520295D01*
X76267142Y-134520295D02*
X76267142Y-134663152D01*
X76267142Y-134663152D02*
X76219523Y-134758390D01*
X76219523Y-134758390D02*
X76171904Y-134806009D01*
X76171904Y-134806009D02*
X76076666Y-134853628D01*
X76076666Y-134853628D02*
X75695714Y-134853628D01*
X77219523Y-135329819D02*
X76648095Y-135329819D01*
X76933809Y-135329819D02*
X76933809Y-134329819D01*
X76933809Y-134329819D02*
X76838571Y-134472676D01*
X76838571Y-134472676D02*
X76743333Y-134567914D01*
X76743333Y-134567914D02*
X76648095Y-134615533D01*
X77600476Y-134425057D02*
X77648095Y-134377438D01*
X77648095Y-134377438D02*
X77743333Y-134329819D01*
X77743333Y-134329819D02*
X77981428Y-134329819D01*
X77981428Y-134329819D02*
X78076666Y-134377438D01*
X78076666Y-134377438D02*
X78124285Y-134425057D01*
X78124285Y-134425057D02*
X78171904Y-134520295D01*
X78171904Y-134520295D02*
X78171904Y-134615533D01*
X78171904Y-134615533D02*
X78124285Y-134758390D01*
X78124285Y-134758390D02*
X77552857Y-135329819D01*
X77552857Y-135329819D02*
X78171904Y-135329819D01*
X26881905Y-59329819D02*
X26881905Y-58329819D01*
X26881905Y-58329819D02*
X27262857Y-58329819D01*
X27262857Y-58329819D02*
X27358095Y-58377438D01*
X27358095Y-58377438D02*
X27405714Y-58425057D01*
X27405714Y-58425057D02*
X27453333Y-58520295D01*
X27453333Y-58520295D02*
X27453333Y-58663152D01*
X27453333Y-58663152D02*
X27405714Y-58758390D01*
X27405714Y-58758390D02*
X27358095Y-58806009D01*
X27358095Y-58806009D02*
X27262857Y-58853628D01*
X27262857Y-58853628D02*
X26881905Y-58853628D01*
X27834286Y-58425057D02*
X27881905Y-58377438D01*
X27881905Y-58377438D02*
X27977143Y-58329819D01*
X27977143Y-58329819D02*
X28215238Y-58329819D01*
X28215238Y-58329819D02*
X28310476Y-58377438D01*
X28310476Y-58377438D02*
X28358095Y-58425057D01*
X28358095Y-58425057D02*
X28405714Y-58520295D01*
X28405714Y-58520295D02*
X28405714Y-58615533D01*
X28405714Y-58615533D02*
X28358095Y-58758390D01*
X28358095Y-58758390D02*
X27786667Y-59329819D01*
X27786667Y-59329819D02*
X28405714Y-59329819D01*
X80463333Y-51124580D02*
X80415714Y-51172200D01*
X80415714Y-51172200D02*
X80272857Y-51219819D01*
X80272857Y-51219819D02*
X80177619Y-51219819D01*
X80177619Y-51219819D02*
X80034762Y-51172200D01*
X80034762Y-51172200D02*
X79939524Y-51076961D01*
X79939524Y-51076961D02*
X79891905Y-50981723D01*
X79891905Y-50981723D02*
X79844286Y-50791247D01*
X79844286Y-50791247D02*
X79844286Y-50648390D01*
X79844286Y-50648390D02*
X79891905Y-50457914D01*
X79891905Y-50457914D02*
X79939524Y-50362676D01*
X79939524Y-50362676D02*
X80034762Y-50267438D01*
X80034762Y-50267438D02*
X80177619Y-50219819D01*
X80177619Y-50219819D02*
X80272857Y-50219819D01*
X80272857Y-50219819D02*
X80415714Y-50267438D01*
X80415714Y-50267438D02*
X80463333Y-50315057D01*
X81368095Y-50219819D02*
X80891905Y-50219819D01*
X80891905Y-50219819D02*
X80844286Y-50696009D01*
X80844286Y-50696009D02*
X80891905Y-50648390D01*
X80891905Y-50648390D02*
X80987143Y-50600771D01*
X80987143Y-50600771D02*
X81225238Y-50600771D01*
X81225238Y-50600771D02*
X81320476Y-50648390D01*
X81320476Y-50648390D02*
X81368095Y-50696009D01*
X81368095Y-50696009D02*
X81415714Y-50791247D01*
X81415714Y-50791247D02*
X81415714Y-51029342D01*
X81415714Y-51029342D02*
X81368095Y-51124580D01*
X81368095Y-51124580D02*
X81320476Y-51172200D01*
X81320476Y-51172200D02*
X81225238Y-51219819D01*
X81225238Y-51219819D02*
X80987143Y-51219819D01*
X80987143Y-51219819D02*
X80891905Y-51172200D01*
X80891905Y-51172200D02*
X80844286Y-51124580D01*
X127667142Y-89464580D02*
X127619523Y-89512200D01*
X127619523Y-89512200D02*
X127476666Y-89559819D01*
X127476666Y-89559819D02*
X127381428Y-89559819D01*
X127381428Y-89559819D02*
X127238571Y-89512200D01*
X127238571Y-89512200D02*
X127143333Y-89416961D01*
X127143333Y-89416961D02*
X127095714Y-89321723D01*
X127095714Y-89321723D02*
X127048095Y-89131247D01*
X127048095Y-89131247D02*
X127048095Y-88988390D01*
X127048095Y-88988390D02*
X127095714Y-88797914D01*
X127095714Y-88797914D02*
X127143333Y-88702676D01*
X127143333Y-88702676D02*
X127238571Y-88607438D01*
X127238571Y-88607438D02*
X127381428Y-88559819D01*
X127381428Y-88559819D02*
X127476666Y-88559819D01*
X127476666Y-88559819D02*
X127619523Y-88607438D01*
X127619523Y-88607438D02*
X127667142Y-88655057D01*
X128619523Y-89559819D02*
X128048095Y-89559819D01*
X128333809Y-89559819D02*
X128333809Y-88559819D01*
X128333809Y-88559819D02*
X128238571Y-88702676D01*
X128238571Y-88702676D02*
X128143333Y-88797914D01*
X128143333Y-88797914D02*
X128048095Y-88845533D01*
X128952857Y-88559819D02*
X129571904Y-88559819D01*
X129571904Y-88559819D02*
X129238571Y-88940771D01*
X129238571Y-88940771D02*
X129381428Y-88940771D01*
X129381428Y-88940771D02*
X129476666Y-88988390D01*
X129476666Y-88988390D02*
X129524285Y-89036009D01*
X129524285Y-89036009D02*
X129571904Y-89131247D01*
X129571904Y-89131247D02*
X129571904Y-89369342D01*
X129571904Y-89369342D02*
X129524285Y-89464580D01*
X129524285Y-89464580D02*
X129476666Y-89512200D01*
X129476666Y-89512200D02*
X129381428Y-89559819D01*
X129381428Y-89559819D02*
X129095714Y-89559819D01*
X129095714Y-89559819D02*
X129000476Y-89512200D01*
X129000476Y-89512200D02*
X128952857Y-89464580D01*
X135754761Y-46735057D02*
X135659523Y-46687438D01*
X135659523Y-46687438D02*
X135564285Y-46592200D01*
X135564285Y-46592200D02*
X135421428Y-46449342D01*
X135421428Y-46449342D02*
X135326190Y-46401723D01*
X135326190Y-46401723D02*
X135230952Y-46401723D01*
X135278571Y-46639819D02*
X135183333Y-46592200D01*
X135183333Y-46592200D02*
X135088095Y-46496961D01*
X135088095Y-46496961D02*
X135040476Y-46306485D01*
X135040476Y-46306485D02*
X135040476Y-45973152D01*
X135040476Y-45973152D02*
X135088095Y-45782676D01*
X135088095Y-45782676D02*
X135183333Y-45687438D01*
X135183333Y-45687438D02*
X135278571Y-45639819D01*
X135278571Y-45639819D02*
X135469047Y-45639819D01*
X135469047Y-45639819D02*
X135564285Y-45687438D01*
X135564285Y-45687438D02*
X135659523Y-45782676D01*
X135659523Y-45782676D02*
X135707142Y-45973152D01*
X135707142Y-45973152D02*
X135707142Y-46306485D01*
X135707142Y-46306485D02*
X135659523Y-46496961D01*
X135659523Y-46496961D02*
X135564285Y-46592200D01*
X135564285Y-46592200D02*
X135469047Y-46639819D01*
X135469047Y-46639819D02*
X135278571Y-46639819D01*
X136088095Y-45735057D02*
X136135714Y-45687438D01*
X136135714Y-45687438D02*
X136230952Y-45639819D01*
X136230952Y-45639819D02*
X136469047Y-45639819D01*
X136469047Y-45639819D02*
X136564285Y-45687438D01*
X136564285Y-45687438D02*
X136611904Y-45735057D01*
X136611904Y-45735057D02*
X136659523Y-45830295D01*
X136659523Y-45830295D02*
X136659523Y-45925533D01*
X136659523Y-45925533D02*
X136611904Y-46068390D01*
X136611904Y-46068390D02*
X136040476Y-46639819D01*
X136040476Y-46639819D02*
X136659523Y-46639819D01*
X43413333Y-60764580D02*
X43365714Y-60812200D01*
X43365714Y-60812200D02*
X43222857Y-60859819D01*
X43222857Y-60859819D02*
X43127619Y-60859819D01*
X43127619Y-60859819D02*
X42984762Y-60812200D01*
X42984762Y-60812200D02*
X42889524Y-60716961D01*
X42889524Y-60716961D02*
X42841905Y-60621723D01*
X42841905Y-60621723D02*
X42794286Y-60431247D01*
X42794286Y-60431247D02*
X42794286Y-60288390D01*
X42794286Y-60288390D02*
X42841905Y-60097914D01*
X42841905Y-60097914D02*
X42889524Y-60002676D01*
X42889524Y-60002676D02*
X42984762Y-59907438D01*
X42984762Y-59907438D02*
X43127619Y-59859819D01*
X43127619Y-59859819D02*
X43222857Y-59859819D01*
X43222857Y-59859819D02*
X43365714Y-59907438D01*
X43365714Y-59907438D02*
X43413333Y-59955057D01*
X44365714Y-60859819D02*
X43794286Y-60859819D01*
X44080000Y-60859819D02*
X44080000Y-59859819D01*
X44080000Y-59859819D02*
X43984762Y-60002676D01*
X43984762Y-60002676D02*
X43889524Y-60097914D01*
X43889524Y-60097914D02*
X43794286Y-60145533D01*
X110917142Y-44864580D02*
X110869523Y-44912200D01*
X110869523Y-44912200D02*
X110726666Y-44959819D01*
X110726666Y-44959819D02*
X110631428Y-44959819D01*
X110631428Y-44959819D02*
X110488571Y-44912200D01*
X110488571Y-44912200D02*
X110393333Y-44816961D01*
X110393333Y-44816961D02*
X110345714Y-44721723D01*
X110345714Y-44721723D02*
X110298095Y-44531247D01*
X110298095Y-44531247D02*
X110298095Y-44388390D01*
X110298095Y-44388390D02*
X110345714Y-44197914D01*
X110345714Y-44197914D02*
X110393333Y-44102676D01*
X110393333Y-44102676D02*
X110488571Y-44007438D01*
X110488571Y-44007438D02*
X110631428Y-43959819D01*
X110631428Y-43959819D02*
X110726666Y-43959819D01*
X110726666Y-43959819D02*
X110869523Y-44007438D01*
X110869523Y-44007438D02*
X110917142Y-44055057D01*
X111869523Y-44959819D02*
X111298095Y-44959819D01*
X111583809Y-44959819D02*
X111583809Y-43959819D01*
X111583809Y-43959819D02*
X111488571Y-44102676D01*
X111488571Y-44102676D02*
X111393333Y-44197914D01*
X111393333Y-44197914D02*
X111298095Y-44245533D01*
X112821904Y-44959819D02*
X112250476Y-44959819D01*
X112536190Y-44959819D02*
X112536190Y-43959819D01*
X112536190Y-43959819D02*
X112440952Y-44102676D01*
X112440952Y-44102676D02*
X112345714Y-44197914D01*
X112345714Y-44197914D02*
X112250476Y-44245533D01*
X72276666Y-109246009D02*
X71943333Y-109246009D01*
X71943333Y-109769819D02*
X71943333Y-108769819D01*
X71943333Y-108769819D02*
X72419523Y-108769819D01*
X72752857Y-108865057D02*
X72800476Y-108817438D01*
X72800476Y-108817438D02*
X72895714Y-108769819D01*
X72895714Y-108769819D02*
X73133809Y-108769819D01*
X73133809Y-108769819D02*
X73229047Y-108817438D01*
X73229047Y-108817438D02*
X73276666Y-108865057D01*
X73276666Y-108865057D02*
X73324285Y-108960295D01*
X73324285Y-108960295D02*
X73324285Y-109055533D01*
X73324285Y-109055533D02*
X73276666Y-109198390D01*
X73276666Y-109198390D02*
X72705238Y-109769819D01*
X72705238Y-109769819D02*
X73324285Y-109769819D01*
X41301905Y-135329819D02*
X41301905Y-134329819D01*
X41301905Y-134329819D02*
X41682857Y-134329819D01*
X41682857Y-134329819D02*
X41778095Y-134377438D01*
X41778095Y-134377438D02*
X41825714Y-134425057D01*
X41825714Y-134425057D02*
X41873333Y-134520295D01*
X41873333Y-134520295D02*
X41873333Y-134663152D01*
X41873333Y-134663152D02*
X41825714Y-134758390D01*
X41825714Y-134758390D02*
X41778095Y-134806009D01*
X41778095Y-134806009D02*
X41682857Y-134853628D01*
X41682857Y-134853628D02*
X41301905Y-134853628D01*
X42349524Y-135329819D02*
X42540000Y-135329819D01*
X42540000Y-135329819D02*
X42635238Y-135282200D01*
X42635238Y-135282200D02*
X42682857Y-135234580D01*
X42682857Y-135234580D02*
X42778095Y-135091723D01*
X42778095Y-135091723D02*
X42825714Y-134901247D01*
X42825714Y-134901247D02*
X42825714Y-134520295D01*
X42825714Y-134520295D02*
X42778095Y-134425057D01*
X42778095Y-134425057D02*
X42730476Y-134377438D01*
X42730476Y-134377438D02*
X42635238Y-134329819D01*
X42635238Y-134329819D02*
X42444762Y-134329819D01*
X42444762Y-134329819D02*
X42349524Y-134377438D01*
X42349524Y-134377438D02*
X42301905Y-134425057D01*
X42301905Y-134425057D02*
X42254286Y-134520295D01*
X42254286Y-134520295D02*
X42254286Y-134758390D01*
X42254286Y-134758390D02*
X42301905Y-134853628D01*
X42301905Y-134853628D02*
X42349524Y-134901247D01*
X42349524Y-134901247D02*
X42444762Y-134948866D01*
X42444762Y-134948866D02*
X42635238Y-134948866D01*
X42635238Y-134948866D02*
X42730476Y-134901247D01*
X42730476Y-134901247D02*
X42778095Y-134853628D01*
X42778095Y-134853628D02*
X42825714Y-134758390D01*
X116923333Y-67524580D02*
X116875714Y-67572200D01*
X116875714Y-67572200D02*
X116732857Y-67619819D01*
X116732857Y-67619819D02*
X116637619Y-67619819D01*
X116637619Y-67619819D02*
X116494762Y-67572200D01*
X116494762Y-67572200D02*
X116399524Y-67476961D01*
X116399524Y-67476961D02*
X116351905Y-67381723D01*
X116351905Y-67381723D02*
X116304286Y-67191247D01*
X116304286Y-67191247D02*
X116304286Y-67048390D01*
X116304286Y-67048390D02*
X116351905Y-66857914D01*
X116351905Y-66857914D02*
X116399524Y-66762676D01*
X116399524Y-66762676D02*
X116494762Y-66667438D01*
X116494762Y-66667438D02*
X116637619Y-66619819D01*
X116637619Y-66619819D02*
X116732857Y-66619819D01*
X116732857Y-66619819D02*
X116875714Y-66667438D01*
X116875714Y-66667438D02*
X116923333Y-66715057D01*
X117780476Y-66619819D02*
X117590000Y-66619819D01*
X117590000Y-66619819D02*
X117494762Y-66667438D01*
X117494762Y-66667438D02*
X117447143Y-66715057D01*
X117447143Y-66715057D02*
X117351905Y-66857914D01*
X117351905Y-66857914D02*
X117304286Y-67048390D01*
X117304286Y-67048390D02*
X117304286Y-67429342D01*
X117304286Y-67429342D02*
X117351905Y-67524580D01*
X117351905Y-67524580D02*
X117399524Y-67572200D01*
X117399524Y-67572200D02*
X117494762Y-67619819D01*
X117494762Y-67619819D02*
X117685238Y-67619819D01*
X117685238Y-67619819D02*
X117780476Y-67572200D01*
X117780476Y-67572200D02*
X117828095Y-67524580D01*
X117828095Y-67524580D02*
X117875714Y-67429342D01*
X117875714Y-67429342D02*
X117875714Y-67191247D01*
X117875714Y-67191247D02*
X117828095Y-67096009D01*
X117828095Y-67096009D02*
X117780476Y-67048390D01*
X117780476Y-67048390D02*
X117685238Y-67000771D01*
X117685238Y-67000771D02*
X117494762Y-67000771D01*
X117494762Y-67000771D02*
X117399524Y-67048390D01*
X117399524Y-67048390D02*
X117351905Y-67096009D01*
X117351905Y-67096009D02*
X117304286Y-67191247D01*
X77493333Y-50394819D02*
X77160000Y-49918628D01*
X76921905Y-50394819D02*
X76921905Y-49394819D01*
X76921905Y-49394819D02*
X77302857Y-49394819D01*
X77302857Y-49394819D02*
X77398095Y-49442438D01*
X77398095Y-49442438D02*
X77445714Y-49490057D01*
X77445714Y-49490057D02*
X77493333Y-49585295D01*
X77493333Y-49585295D02*
X77493333Y-49728152D01*
X77493333Y-49728152D02*
X77445714Y-49823390D01*
X77445714Y-49823390D02*
X77398095Y-49871009D01*
X77398095Y-49871009D02*
X77302857Y-49918628D01*
X77302857Y-49918628D02*
X76921905Y-49918628D01*
X77826667Y-49394819D02*
X78493333Y-49394819D01*
X78493333Y-49394819D02*
X78064762Y-50394819D01*
X43446666Y-109246009D02*
X43113333Y-109246009D01*
X43113333Y-109769819D02*
X43113333Y-108769819D01*
X43113333Y-108769819D02*
X43589523Y-108769819D01*
X44494285Y-109769819D02*
X43922857Y-109769819D01*
X44208571Y-109769819D02*
X44208571Y-108769819D01*
X44208571Y-108769819D02*
X44113333Y-108912676D01*
X44113333Y-108912676D02*
X44018095Y-109007914D01*
X44018095Y-109007914D02*
X43922857Y-109055533D01*
X26881905Y-114409819D02*
X26881905Y-113409819D01*
X26881905Y-113409819D02*
X27262857Y-113409819D01*
X27262857Y-113409819D02*
X27358095Y-113457438D01*
X27358095Y-113457438D02*
X27405714Y-113505057D01*
X27405714Y-113505057D02*
X27453333Y-113600295D01*
X27453333Y-113600295D02*
X27453333Y-113743152D01*
X27453333Y-113743152D02*
X27405714Y-113838390D01*
X27405714Y-113838390D02*
X27358095Y-113886009D01*
X27358095Y-113886009D02*
X27262857Y-113933628D01*
X27262857Y-113933628D02*
X26881905Y-113933628D01*
X28024762Y-113838390D02*
X27929524Y-113790771D01*
X27929524Y-113790771D02*
X27881905Y-113743152D01*
X27881905Y-113743152D02*
X27834286Y-113647914D01*
X27834286Y-113647914D02*
X27834286Y-113600295D01*
X27834286Y-113600295D02*
X27881905Y-113505057D01*
X27881905Y-113505057D02*
X27929524Y-113457438D01*
X27929524Y-113457438D02*
X28024762Y-113409819D01*
X28024762Y-113409819D02*
X28215238Y-113409819D01*
X28215238Y-113409819D02*
X28310476Y-113457438D01*
X28310476Y-113457438D02*
X28358095Y-113505057D01*
X28358095Y-113505057D02*
X28405714Y-113600295D01*
X28405714Y-113600295D02*
X28405714Y-113647914D01*
X28405714Y-113647914D02*
X28358095Y-113743152D01*
X28358095Y-113743152D02*
X28310476Y-113790771D01*
X28310476Y-113790771D02*
X28215238Y-113838390D01*
X28215238Y-113838390D02*
X28024762Y-113838390D01*
X28024762Y-113838390D02*
X27929524Y-113886009D01*
X27929524Y-113886009D02*
X27881905Y-113933628D01*
X27881905Y-113933628D02*
X27834286Y-114028866D01*
X27834286Y-114028866D02*
X27834286Y-114219342D01*
X27834286Y-114219342D02*
X27881905Y-114314580D01*
X27881905Y-114314580D02*
X27929524Y-114362200D01*
X27929524Y-114362200D02*
X28024762Y-114409819D01*
X28024762Y-114409819D02*
X28215238Y-114409819D01*
X28215238Y-114409819D02*
X28310476Y-114362200D01*
X28310476Y-114362200D02*
X28358095Y-114314580D01*
X28358095Y-114314580D02*
X28405714Y-114219342D01*
X28405714Y-114219342D02*
X28405714Y-114028866D01*
X28405714Y-114028866D02*
X28358095Y-113933628D01*
X28358095Y-113933628D02*
X28310476Y-113886009D01*
X28310476Y-113886009D02*
X28215238Y-113838390D01*
X26881905Y-78099819D02*
X26881905Y-77099819D01*
X26881905Y-77099819D02*
X27262857Y-77099819D01*
X27262857Y-77099819D02*
X27358095Y-77147438D01*
X27358095Y-77147438D02*
X27405714Y-77195057D01*
X27405714Y-77195057D02*
X27453333Y-77290295D01*
X27453333Y-77290295D02*
X27453333Y-77433152D01*
X27453333Y-77433152D02*
X27405714Y-77528390D01*
X27405714Y-77528390D02*
X27358095Y-77576009D01*
X27358095Y-77576009D02*
X27262857Y-77623628D01*
X27262857Y-77623628D02*
X26881905Y-77623628D01*
X28310476Y-77433152D02*
X28310476Y-78099819D01*
X28072381Y-77052200D02*
X27834286Y-77766485D01*
X27834286Y-77766485D02*
X28453333Y-77766485D01*
X89406666Y-109246009D02*
X89073333Y-109246009D01*
X89073333Y-109769819D02*
X89073333Y-108769819D01*
X89073333Y-108769819D02*
X89549523Y-108769819D01*
X89835238Y-108769819D02*
X90454285Y-108769819D01*
X90454285Y-108769819D02*
X90120952Y-109150771D01*
X90120952Y-109150771D02*
X90263809Y-109150771D01*
X90263809Y-109150771D02*
X90359047Y-109198390D01*
X90359047Y-109198390D02*
X90406666Y-109246009D01*
X90406666Y-109246009D02*
X90454285Y-109341247D01*
X90454285Y-109341247D02*
X90454285Y-109579342D01*
X90454285Y-109579342D02*
X90406666Y-109674580D01*
X90406666Y-109674580D02*
X90359047Y-109722200D01*
X90359047Y-109722200D02*
X90263809Y-109769819D01*
X90263809Y-109769819D02*
X89978095Y-109769819D01*
X89978095Y-109769819D02*
X89882857Y-109722200D01*
X89882857Y-109722200D02*
X89835238Y-109674580D01*
X65135714Y-135329819D02*
X65135714Y-134329819D01*
X65135714Y-134329819D02*
X65516666Y-134329819D01*
X65516666Y-134329819D02*
X65611904Y-134377438D01*
X65611904Y-134377438D02*
X65659523Y-134425057D01*
X65659523Y-134425057D02*
X65707142Y-134520295D01*
X65707142Y-134520295D02*
X65707142Y-134663152D01*
X65707142Y-134663152D02*
X65659523Y-134758390D01*
X65659523Y-134758390D02*
X65611904Y-134806009D01*
X65611904Y-134806009D02*
X65516666Y-134853628D01*
X65516666Y-134853628D02*
X65135714Y-134853628D01*
X66659523Y-135329819D02*
X66088095Y-135329819D01*
X66373809Y-135329819D02*
X66373809Y-134329819D01*
X66373809Y-134329819D02*
X66278571Y-134472676D01*
X66278571Y-134472676D02*
X66183333Y-134567914D01*
X66183333Y-134567914D02*
X66088095Y-134615533D01*
X67611904Y-135329819D02*
X67040476Y-135329819D01*
X67326190Y-135329819D02*
X67326190Y-134329819D01*
X67326190Y-134329819D02*
X67230952Y-134472676D01*
X67230952Y-134472676D02*
X67135714Y-134567914D01*
X67135714Y-134567914D02*
X67040476Y-134615533D01*
X91173333Y-67844580D02*
X91125714Y-67892200D01*
X91125714Y-67892200D02*
X90982857Y-67939819D01*
X90982857Y-67939819D02*
X90887619Y-67939819D01*
X90887619Y-67939819D02*
X90744762Y-67892200D01*
X90744762Y-67892200D02*
X90649524Y-67796961D01*
X90649524Y-67796961D02*
X90601905Y-67701723D01*
X90601905Y-67701723D02*
X90554286Y-67511247D01*
X90554286Y-67511247D02*
X90554286Y-67368390D01*
X90554286Y-67368390D02*
X90601905Y-67177914D01*
X90601905Y-67177914D02*
X90649524Y-67082676D01*
X90649524Y-67082676D02*
X90744762Y-66987438D01*
X90744762Y-66987438D02*
X90887619Y-66939819D01*
X90887619Y-66939819D02*
X90982857Y-66939819D01*
X90982857Y-66939819D02*
X91125714Y-66987438D01*
X91125714Y-66987438D02*
X91173333Y-67035057D01*
X91506667Y-66939819D02*
X92173333Y-66939819D01*
X92173333Y-66939819D02*
X91744762Y-67939819D01*
X123163333Y-93959819D02*
X122830000Y-93483628D01*
X122591905Y-93959819D02*
X122591905Y-92959819D01*
X122591905Y-92959819D02*
X122972857Y-92959819D01*
X122972857Y-92959819D02*
X123068095Y-93007438D01*
X123068095Y-93007438D02*
X123115714Y-93055057D01*
X123115714Y-93055057D02*
X123163333Y-93150295D01*
X123163333Y-93150295D02*
X123163333Y-93293152D01*
X123163333Y-93293152D02*
X123115714Y-93388390D01*
X123115714Y-93388390D02*
X123068095Y-93436009D01*
X123068095Y-93436009D02*
X122972857Y-93483628D01*
X122972857Y-93483628D02*
X122591905Y-93483628D01*
X124115714Y-93959819D02*
X123544286Y-93959819D01*
X123830000Y-93959819D02*
X123830000Y-92959819D01*
X123830000Y-92959819D02*
X123734762Y-93102676D01*
X123734762Y-93102676D02*
X123639524Y-93197914D01*
X123639524Y-93197914D02*
X123544286Y-93245533D01*
X77453333Y-57349819D02*
X77120000Y-56873628D01*
X76881905Y-57349819D02*
X76881905Y-56349819D01*
X76881905Y-56349819D02*
X77262857Y-56349819D01*
X77262857Y-56349819D02*
X77358095Y-56397438D01*
X77358095Y-56397438D02*
X77405714Y-56445057D01*
X77405714Y-56445057D02*
X77453333Y-56540295D01*
X77453333Y-56540295D02*
X77453333Y-56683152D01*
X77453333Y-56683152D02*
X77405714Y-56778390D01*
X77405714Y-56778390D02*
X77358095Y-56826009D01*
X77358095Y-56826009D02*
X77262857Y-56873628D01*
X77262857Y-56873628D02*
X76881905Y-56873628D01*
X77834286Y-56445057D02*
X77881905Y-56397438D01*
X77881905Y-56397438D02*
X77977143Y-56349819D01*
X77977143Y-56349819D02*
X78215238Y-56349819D01*
X78215238Y-56349819D02*
X78310476Y-56397438D01*
X78310476Y-56397438D02*
X78358095Y-56445057D01*
X78358095Y-56445057D02*
X78405714Y-56540295D01*
X78405714Y-56540295D02*
X78405714Y-56635533D01*
X78405714Y-56635533D02*
X78358095Y-56778390D01*
X78358095Y-56778390D02*
X77786667Y-57349819D01*
X77786667Y-57349819D02*
X78405714Y-57349819D01*
X138515714Y-74469819D02*
X138515714Y-73469819D01*
X138515714Y-73469819D02*
X138896666Y-73469819D01*
X138896666Y-73469819D02*
X138991904Y-73517438D01*
X138991904Y-73517438D02*
X139039523Y-73565057D01*
X139039523Y-73565057D02*
X139087142Y-73660295D01*
X139087142Y-73660295D02*
X139087142Y-73803152D01*
X139087142Y-73803152D02*
X139039523Y-73898390D01*
X139039523Y-73898390D02*
X138991904Y-73946009D01*
X138991904Y-73946009D02*
X138896666Y-73993628D01*
X138896666Y-73993628D02*
X138515714Y-73993628D01*
X140039523Y-74469819D02*
X139468095Y-74469819D01*
X139753809Y-74469819D02*
X139753809Y-73469819D01*
X139753809Y-73469819D02*
X139658571Y-73612676D01*
X139658571Y-73612676D02*
X139563333Y-73707914D01*
X139563333Y-73707914D02*
X139468095Y-73755533D01*
X140515714Y-74469819D02*
X140706190Y-74469819D01*
X140706190Y-74469819D02*
X140801428Y-74422200D01*
X140801428Y-74422200D02*
X140849047Y-74374580D01*
X140849047Y-74374580D02*
X140944285Y-74231723D01*
X140944285Y-74231723D02*
X140991904Y-74041247D01*
X140991904Y-74041247D02*
X140991904Y-73660295D01*
X140991904Y-73660295D02*
X140944285Y-73565057D01*
X140944285Y-73565057D02*
X140896666Y-73517438D01*
X140896666Y-73517438D02*
X140801428Y-73469819D01*
X140801428Y-73469819D02*
X140610952Y-73469819D01*
X140610952Y-73469819D02*
X140515714Y-73517438D01*
X140515714Y-73517438D02*
X140468095Y-73565057D01*
X140468095Y-73565057D02*
X140420476Y-73660295D01*
X140420476Y-73660295D02*
X140420476Y-73898390D01*
X140420476Y-73898390D02*
X140468095Y-73993628D01*
X140468095Y-73993628D02*
X140515714Y-74041247D01*
X140515714Y-74041247D02*
X140610952Y-74088866D01*
X140610952Y-74088866D02*
X140801428Y-74088866D01*
X140801428Y-74088866D02*
X140896666Y-74041247D01*
X140896666Y-74041247D02*
X140944285Y-73993628D01*
X140944285Y-73993628D02*
X140991904Y-73898390D01*
X138515714Y-84369819D02*
X138515714Y-83369819D01*
X138515714Y-83369819D02*
X138896666Y-83369819D01*
X138896666Y-83369819D02*
X138991904Y-83417438D01*
X138991904Y-83417438D02*
X139039523Y-83465057D01*
X139039523Y-83465057D02*
X139087142Y-83560295D01*
X139087142Y-83560295D02*
X139087142Y-83703152D01*
X139087142Y-83703152D02*
X139039523Y-83798390D01*
X139039523Y-83798390D02*
X138991904Y-83846009D01*
X138991904Y-83846009D02*
X138896666Y-83893628D01*
X138896666Y-83893628D02*
X138515714Y-83893628D01*
X140039523Y-84369819D02*
X139468095Y-84369819D01*
X139753809Y-84369819D02*
X139753809Y-83369819D01*
X139753809Y-83369819D02*
X139658571Y-83512676D01*
X139658571Y-83512676D02*
X139563333Y-83607914D01*
X139563333Y-83607914D02*
X139468095Y-83655533D01*
X140610952Y-83798390D02*
X140515714Y-83750771D01*
X140515714Y-83750771D02*
X140468095Y-83703152D01*
X140468095Y-83703152D02*
X140420476Y-83607914D01*
X140420476Y-83607914D02*
X140420476Y-83560295D01*
X140420476Y-83560295D02*
X140468095Y-83465057D01*
X140468095Y-83465057D02*
X140515714Y-83417438D01*
X140515714Y-83417438D02*
X140610952Y-83369819D01*
X140610952Y-83369819D02*
X140801428Y-83369819D01*
X140801428Y-83369819D02*
X140896666Y-83417438D01*
X140896666Y-83417438D02*
X140944285Y-83465057D01*
X140944285Y-83465057D02*
X140991904Y-83560295D01*
X140991904Y-83560295D02*
X140991904Y-83607914D01*
X140991904Y-83607914D02*
X140944285Y-83703152D01*
X140944285Y-83703152D02*
X140896666Y-83750771D01*
X140896666Y-83750771D02*
X140801428Y-83798390D01*
X140801428Y-83798390D02*
X140610952Y-83798390D01*
X140610952Y-83798390D02*
X140515714Y-83846009D01*
X140515714Y-83846009D02*
X140468095Y-83893628D01*
X140468095Y-83893628D02*
X140420476Y-83988866D01*
X140420476Y-83988866D02*
X140420476Y-84179342D01*
X140420476Y-84179342D02*
X140468095Y-84274580D01*
X140468095Y-84274580D02*
X140515714Y-84322200D01*
X140515714Y-84322200D02*
X140610952Y-84369819D01*
X140610952Y-84369819D02*
X140801428Y-84369819D01*
X140801428Y-84369819D02*
X140896666Y-84322200D01*
X140896666Y-84322200D02*
X140944285Y-84274580D01*
X140944285Y-84274580D02*
X140991904Y-84179342D01*
X140991904Y-84179342D02*
X140991904Y-83988866D01*
X140991904Y-83988866D02*
X140944285Y-83893628D01*
X140944285Y-83893628D02*
X140896666Y-83846009D01*
X140896666Y-83846009D02*
X140801428Y-83798390D01*
X138515714Y-43399819D02*
X138515714Y-42399819D01*
X138515714Y-42399819D02*
X138896666Y-42399819D01*
X138896666Y-42399819D02*
X138991904Y-42447438D01*
X138991904Y-42447438D02*
X139039523Y-42495057D01*
X139039523Y-42495057D02*
X139087142Y-42590295D01*
X139087142Y-42590295D02*
X139087142Y-42733152D01*
X139087142Y-42733152D02*
X139039523Y-42828390D01*
X139039523Y-42828390D02*
X138991904Y-42876009D01*
X138991904Y-42876009D02*
X138896666Y-42923628D01*
X138896666Y-42923628D02*
X138515714Y-42923628D01*
X139468095Y-42495057D02*
X139515714Y-42447438D01*
X139515714Y-42447438D02*
X139610952Y-42399819D01*
X139610952Y-42399819D02*
X139849047Y-42399819D01*
X139849047Y-42399819D02*
X139944285Y-42447438D01*
X139944285Y-42447438D02*
X139991904Y-42495057D01*
X139991904Y-42495057D02*
X140039523Y-42590295D01*
X140039523Y-42590295D02*
X140039523Y-42685533D01*
X140039523Y-42685533D02*
X139991904Y-42828390D01*
X139991904Y-42828390D02*
X139420476Y-43399819D01*
X139420476Y-43399819D02*
X140039523Y-43399819D01*
X140420476Y-42495057D02*
X140468095Y-42447438D01*
X140468095Y-42447438D02*
X140563333Y-42399819D01*
X140563333Y-42399819D02*
X140801428Y-42399819D01*
X140801428Y-42399819D02*
X140896666Y-42447438D01*
X140896666Y-42447438D02*
X140944285Y-42495057D01*
X140944285Y-42495057D02*
X140991904Y-42590295D01*
X140991904Y-42590295D02*
X140991904Y-42685533D01*
X140991904Y-42685533D02*
X140944285Y-42828390D01*
X140944285Y-42828390D02*
X140372857Y-43399819D01*
X140372857Y-43399819D02*
X140991904Y-43399819D01*
X114063333Y-47999819D02*
X113730000Y-47523628D01*
X113491905Y-47999819D02*
X113491905Y-46999819D01*
X113491905Y-46999819D02*
X113872857Y-46999819D01*
X113872857Y-46999819D02*
X113968095Y-47047438D01*
X113968095Y-47047438D02*
X114015714Y-47095057D01*
X114015714Y-47095057D02*
X114063333Y-47190295D01*
X114063333Y-47190295D02*
X114063333Y-47333152D01*
X114063333Y-47333152D02*
X114015714Y-47428390D01*
X114015714Y-47428390D02*
X113968095Y-47476009D01*
X113968095Y-47476009D02*
X113872857Y-47523628D01*
X113872857Y-47523628D02*
X113491905Y-47523628D01*
X114920476Y-46999819D02*
X114730000Y-46999819D01*
X114730000Y-46999819D02*
X114634762Y-47047438D01*
X114634762Y-47047438D02*
X114587143Y-47095057D01*
X114587143Y-47095057D02*
X114491905Y-47237914D01*
X114491905Y-47237914D02*
X114444286Y-47428390D01*
X114444286Y-47428390D02*
X114444286Y-47809342D01*
X114444286Y-47809342D02*
X114491905Y-47904580D01*
X114491905Y-47904580D02*
X114539524Y-47952200D01*
X114539524Y-47952200D02*
X114634762Y-47999819D01*
X114634762Y-47999819D02*
X114825238Y-47999819D01*
X114825238Y-47999819D02*
X114920476Y-47952200D01*
X114920476Y-47952200D02*
X114968095Y-47904580D01*
X114968095Y-47904580D02*
X115015714Y-47809342D01*
X115015714Y-47809342D02*
X115015714Y-47571247D01*
X115015714Y-47571247D02*
X114968095Y-47476009D01*
X114968095Y-47476009D02*
X114920476Y-47428390D01*
X114920476Y-47428390D02*
X114825238Y-47380771D01*
X114825238Y-47380771D02*
X114634762Y-47380771D01*
X114634762Y-47380771D02*
X114539524Y-47428390D01*
X114539524Y-47428390D02*
X114491905Y-47476009D01*
X114491905Y-47476009D02*
X114444286Y-47571247D01*
X26881905Y-95529819D02*
X26881905Y-94529819D01*
X26881905Y-94529819D02*
X27262857Y-94529819D01*
X27262857Y-94529819D02*
X27358095Y-94577438D01*
X27358095Y-94577438D02*
X27405714Y-94625057D01*
X27405714Y-94625057D02*
X27453333Y-94720295D01*
X27453333Y-94720295D02*
X27453333Y-94863152D01*
X27453333Y-94863152D02*
X27405714Y-94958390D01*
X27405714Y-94958390D02*
X27358095Y-95006009D01*
X27358095Y-95006009D02*
X27262857Y-95053628D01*
X27262857Y-95053628D02*
X26881905Y-95053628D01*
X28310476Y-94529819D02*
X28120000Y-94529819D01*
X28120000Y-94529819D02*
X28024762Y-94577438D01*
X28024762Y-94577438D02*
X27977143Y-94625057D01*
X27977143Y-94625057D02*
X27881905Y-94767914D01*
X27881905Y-94767914D02*
X27834286Y-94958390D01*
X27834286Y-94958390D02*
X27834286Y-95339342D01*
X27834286Y-95339342D02*
X27881905Y-95434580D01*
X27881905Y-95434580D02*
X27929524Y-95482200D01*
X27929524Y-95482200D02*
X28024762Y-95529819D01*
X28024762Y-95529819D02*
X28215238Y-95529819D01*
X28215238Y-95529819D02*
X28310476Y-95482200D01*
X28310476Y-95482200D02*
X28358095Y-95434580D01*
X28358095Y-95434580D02*
X28405714Y-95339342D01*
X28405714Y-95339342D02*
X28405714Y-95101247D01*
X28405714Y-95101247D02*
X28358095Y-95006009D01*
X28358095Y-95006009D02*
X28310476Y-94958390D01*
X28310476Y-94958390D02*
X28215238Y-94910771D01*
X28215238Y-94910771D02*
X28024762Y-94910771D01*
X28024762Y-94910771D02*
X27929524Y-94958390D01*
X27929524Y-94958390D02*
X27881905Y-95006009D01*
X27881905Y-95006009D02*
X27834286Y-95101247D01*
X54585714Y-135329819D02*
X54585714Y-134329819D01*
X54585714Y-134329819D02*
X54966666Y-134329819D01*
X54966666Y-134329819D02*
X55061904Y-134377438D01*
X55061904Y-134377438D02*
X55109523Y-134425057D01*
X55109523Y-134425057D02*
X55157142Y-134520295D01*
X55157142Y-134520295D02*
X55157142Y-134663152D01*
X55157142Y-134663152D02*
X55109523Y-134758390D01*
X55109523Y-134758390D02*
X55061904Y-134806009D01*
X55061904Y-134806009D02*
X54966666Y-134853628D01*
X54966666Y-134853628D02*
X54585714Y-134853628D01*
X56109523Y-135329819D02*
X55538095Y-135329819D01*
X55823809Y-135329819D02*
X55823809Y-134329819D01*
X55823809Y-134329819D02*
X55728571Y-134472676D01*
X55728571Y-134472676D02*
X55633333Y-134567914D01*
X55633333Y-134567914D02*
X55538095Y-134615533D01*
X56728571Y-134329819D02*
X56823809Y-134329819D01*
X56823809Y-134329819D02*
X56919047Y-134377438D01*
X56919047Y-134377438D02*
X56966666Y-134425057D01*
X56966666Y-134425057D02*
X57014285Y-134520295D01*
X57014285Y-134520295D02*
X57061904Y-134710771D01*
X57061904Y-134710771D02*
X57061904Y-134948866D01*
X57061904Y-134948866D02*
X57014285Y-135139342D01*
X57014285Y-135139342D02*
X56966666Y-135234580D01*
X56966666Y-135234580D02*
X56919047Y-135282200D01*
X56919047Y-135282200D02*
X56823809Y-135329819D01*
X56823809Y-135329819D02*
X56728571Y-135329819D01*
X56728571Y-135329819D02*
X56633333Y-135282200D01*
X56633333Y-135282200D02*
X56585714Y-135234580D01*
X56585714Y-135234580D02*
X56538095Y-135139342D01*
X56538095Y-135139342D02*
X56490476Y-134948866D01*
X56490476Y-134948866D02*
X56490476Y-134710771D01*
X56490476Y-134710771D02*
X56538095Y-134520295D01*
X56538095Y-134520295D02*
X56585714Y-134425057D01*
X56585714Y-134425057D02*
X56633333Y-134377438D01*
X56633333Y-134377438D02*
X56728571Y-134329819D01*
X74313333Y-77254580D02*
X74265714Y-77302200D01*
X74265714Y-77302200D02*
X74122857Y-77349819D01*
X74122857Y-77349819D02*
X74027619Y-77349819D01*
X74027619Y-77349819D02*
X73884762Y-77302200D01*
X73884762Y-77302200D02*
X73789524Y-77206961D01*
X73789524Y-77206961D02*
X73741905Y-77111723D01*
X73741905Y-77111723D02*
X73694286Y-76921247D01*
X73694286Y-76921247D02*
X73694286Y-76778390D01*
X73694286Y-76778390D02*
X73741905Y-76587914D01*
X73741905Y-76587914D02*
X73789524Y-76492676D01*
X73789524Y-76492676D02*
X73884762Y-76397438D01*
X73884762Y-76397438D02*
X74027619Y-76349819D01*
X74027619Y-76349819D02*
X74122857Y-76349819D01*
X74122857Y-76349819D02*
X74265714Y-76397438D01*
X74265714Y-76397438D02*
X74313333Y-76445057D01*
X75170476Y-76683152D02*
X75170476Y-77349819D01*
X74932381Y-76302200D02*
X74694286Y-77016485D01*
X74694286Y-77016485D02*
X75313333Y-77016485D01*
X139621905Y-104244819D02*
X139621905Y-103244819D01*
X139621905Y-103244819D02*
X139860000Y-103244819D01*
X139860000Y-103244819D02*
X140002857Y-103292438D01*
X140002857Y-103292438D02*
X140098095Y-103387676D01*
X140098095Y-103387676D02*
X140145714Y-103482914D01*
X140145714Y-103482914D02*
X140193333Y-103673390D01*
X140193333Y-103673390D02*
X140193333Y-103816247D01*
X140193333Y-103816247D02*
X140145714Y-104006723D01*
X140145714Y-104006723D02*
X140098095Y-104101961D01*
X140098095Y-104101961D02*
X140002857Y-104197200D01*
X140002857Y-104197200D02*
X139860000Y-104244819D01*
X139860000Y-104244819D02*
X139621905Y-104244819D01*
X140526667Y-103244819D02*
X141145714Y-103244819D01*
X141145714Y-103244819D02*
X140812381Y-103625771D01*
X140812381Y-103625771D02*
X140955238Y-103625771D01*
X140955238Y-103625771D02*
X141050476Y-103673390D01*
X141050476Y-103673390D02*
X141098095Y-103721009D01*
X141098095Y-103721009D02*
X141145714Y-103816247D01*
X141145714Y-103816247D02*
X141145714Y-104054342D01*
X141145714Y-104054342D02*
X141098095Y-104149580D01*
X141098095Y-104149580D02*
X141050476Y-104197200D01*
X141050476Y-104197200D02*
X140955238Y-104244819D01*
X140955238Y-104244819D02*
X140669524Y-104244819D01*
X140669524Y-104244819D02*
X140574286Y-104197200D01*
X140574286Y-104197200D02*
X140526667Y-104149580D01*
X141898095Y-106444819D02*
X141898095Y-105444819D01*
X142469523Y-106444819D02*
X142040952Y-105873390D01*
X142469523Y-105444819D02*
X141898095Y-106016247D01*
X26881905Y-108669819D02*
X26881905Y-107669819D01*
X26881905Y-107669819D02*
X27262857Y-107669819D01*
X27262857Y-107669819D02*
X27358095Y-107717438D01*
X27358095Y-107717438D02*
X27405714Y-107765057D01*
X27405714Y-107765057D02*
X27453333Y-107860295D01*
X27453333Y-107860295D02*
X27453333Y-108003152D01*
X27453333Y-108003152D02*
X27405714Y-108098390D01*
X27405714Y-108098390D02*
X27358095Y-108146009D01*
X27358095Y-108146009D02*
X27262857Y-108193628D01*
X27262857Y-108193628D02*
X26881905Y-108193628D01*
X27786667Y-107669819D02*
X28453333Y-107669819D01*
X28453333Y-107669819D02*
X28024762Y-108669819D01*
X53463810Y-45239819D02*
X53463810Y-44239819D01*
X54511428Y-45144580D02*
X54463809Y-45192200D01*
X54463809Y-45192200D02*
X54320952Y-45239819D01*
X54320952Y-45239819D02*
X54225714Y-45239819D01*
X54225714Y-45239819D02*
X54082857Y-45192200D01*
X54082857Y-45192200D02*
X53987619Y-45096961D01*
X53987619Y-45096961D02*
X53940000Y-45001723D01*
X53940000Y-45001723D02*
X53892381Y-44811247D01*
X53892381Y-44811247D02*
X53892381Y-44668390D01*
X53892381Y-44668390D02*
X53940000Y-44477914D01*
X53940000Y-44477914D02*
X53987619Y-44382676D01*
X53987619Y-44382676D02*
X54082857Y-44287438D01*
X54082857Y-44287438D02*
X54225714Y-44239819D01*
X54225714Y-44239819D02*
X54320952Y-44239819D01*
X54320952Y-44239819D02*
X54463809Y-44287438D01*
X54463809Y-44287438D02*
X54511428Y-44335057D01*
X55463809Y-45239819D02*
X54892381Y-45239819D01*
X55178095Y-45239819D02*
X55178095Y-44239819D01*
X55178095Y-44239819D02*
X55082857Y-44382676D01*
X55082857Y-44382676D02*
X54987619Y-44477914D01*
X54987619Y-44477914D02*
X54892381Y-44525533D01*
X136887142Y-69304580D02*
X136839523Y-69352200D01*
X136839523Y-69352200D02*
X136696666Y-69399819D01*
X136696666Y-69399819D02*
X136601428Y-69399819D01*
X136601428Y-69399819D02*
X136458571Y-69352200D01*
X136458571Y-69352200D02*
X136363333Y-69256961D01*
X136363333Y-69256961D02*
X136315714Y-69161723D01*
X136315714Y-69161723D02*
X136268095Y-68971247D01*
X136268095Y-68971247D02*
X136268095Y-68828390D01*
X136268095Y-68828390D02*
X136315714Y-68637914D01*
X136315714Y-68637914D02*
X136363333Y-68542676D01*
X136363333Y-68542676D02*
X136458571Y-68447438D01*
X136458571Y-68447438D02*
X136601428Y-68399819D01*
X136601428Y-68399819D02*
X136696666Y-68399819D01*
X136696666Y-68399819D02*
X136839523Y-68447438D01*
X136839523Y-68447438D02*
X136887142Y-68495057D01*
X137839523Y-69399819D02*
X137268095Y-69399819D01*
X137553809Y-69399819D02*
X137553809Y-68399819D01*
X137553809Y-68399819D02*
X137458571Y-68542676D01*
X137458571Y-68542676D02*
X137363333Y-68637914D01*
X137363333Y-68637914D02*
X137268095Y-68685533D01*
X138220476Y-68495057D02*
X138268095Y-68447438D01*
X138268095Y-68447438D02*
X138363333Y-68399819D01*
X138363333Y-68399819D02*
X138601428Y-68399819D01*
X138601428Y-68399819D02*
X138696666Y-68447438D01*
X138696666Y-68447438D02*
X138744285Y-68495057D01*
X138744285Y-68495057D02*
X138791904Y-68590295D01*
X138791904Y-68590295D02*
X138791904Y-68685533D01*
X138791904Y-68685533D02*
X138744285Y-68828390D01*
X138744285Y-68828390D02*
X138172857Y-69399819D01*
X138172857Y-69399819D02*
X138791904Y-69399819D01*
X26881905Y-64419819D02*
X26881905Y-63419819D01*
X26881905Y-63419819D02*
X27262857Y-63419819D01*
X27262857Y-63419819D02*
X27358095Y-63467438D01*
X27358095Y-63467438D02*
X27405714Y-63515057D01*
X27405714Y-63515057D02*
X27453333Y-63610295D01*
X27453333Y-63610295D02*
X27453333Y-63753152D01*
X27453333Y-63753152D02*
X27405714Y-63848390D01*
X27405714Y-63848390D02*
X27358095Y-63896009D01*
X27358095Y-63896009D02*
X27262857Y-63943628D01*
X27262857Y-63943628D02*
X26881905Y-63943628D01*
X27786667Y-63419819D02*
X28405714Y-63419819D01*
X28405714Y-63419819D02*
X28072381Y-63800771D01*
X28072381Y-63800771D02*
X28215238Y-63800771D01*
X28215238Y-63800771D02*
X28310476Y-63848390D01*
X28310476Y-63848390D02*
X28358095Y-63896009D01*
X28358095Y-63896009D02*
X28405714Y-63991247D01*
X28405714Y-63991247D02*
X28405714Y-64229342D01*
X28405714Y-64229342D02*
X28358095Y-64324580D01*
X28358095Y-64324580D02*
X28310476Y-64372200D01*
X28310476Y-64372200D02*
X28215238Y-64419819D01*
X28215238Y-64419819D02*
X27929524Y-64419819D01*
X27929524Y-64419819D02*
X27834286Y-64372200D01*
X27834286Y-64372200D02*
X27786667Y-64324580D01*
X69633333Y-73844580D02*
X69585714Y-73892200D01*
X69585714Y-73892200D02*
X69442857Y-73939819D01*
X69442857Y-73939819D02*
X69347619Y-73939819D01*
X69347619Y-73939819D02*
X69204762Y-73892200D01*
X69204762Y-73892200D02*
X69109524Y-73796961D01*
X69109524Y-73796961D02*
X69061905Y-73701723D01*
X69061905Y-73701723D02*
X69014286Y-73511247D01*
X69014286Y-73511247D02*
X69014286Y-73368390D01*
X69014286Y-73368390D02*
X69061905Y-73177914D01*
X69061905Y-73177914D02*
X69109524Y-73082676D01*
X69109524Y-73082676D02*
X69204762Y-72987438D01*
X69204762Y-72987438D02*
X69347619Y-72939819D01*
X69347619Y-72939819D02*
X69442857Y-72939819D01*
X69442857Y-72939819D02*
X69585714Y-72987438D01*
X69585714Y-72987438D02*
X69633333Y-73035057D01*
X69966667Y-72939819D02*
X70585714Y-72939819D01*
X70585714Y-72939819D02*
X70252381Y-73320771D01*
X70252381Y-73320771D02*
X70395238Y-73320771D01*
X70395238Y-73320771D02*
X70490476Y-73368390D01*
X70490476Y-73368390D02*
X70538095Y-73416009D01*
X70538095Y-73416009D02*
X70585714Y-73511247D01*
X70585714Y-73511247D02*
X70585714Y-73749342D01*
X70585714Y-73749342D02*
X70538095Y-73844580D01*
X70538095Y-73844580D02*
X70490476Y-73892200D01*
X70490476Y-73892200D02*
X70395238Y-73939819D01*
X70395238Y-73939819D02*
X70109524Y-73939819D01*
X70109524Y-73939819D02*
X70014286Y-73892200D01*
X70014286Y-73892200D02*
X69966667Y-73844580D01*
X86113333Y-63599819D02*
X85780000Y-63123628D01*
X85541905Y-63599819D02*
X85541905Y-62599819D01*
X85541905Y-62599819D02*
X85922857Y-62599819D01*
X85922857Y-62599819D02*
X86018095Y-62647438D01*
X86018095Y-62647438D02*
X86065714Y-62695057D01*
X86065714Y-62695057D02*
X86113333Y-62790295D01*
X86113333Y-62790295D02*
X86113333Y-62933152D01*
X86113333Y-62933152D02*
X86065714Y-63028390D01*
X86065714Y-63028390D02*
X86018095Y-63076009D01*
X86018095Y-63076009D02*
X85922857Y-63123628D01*
X85922857Y-63123628D02*
X85541905Y-63123628D01*
X86446667Y-62599819D02*
X87065714Y-62599819D01*
X87065714Y-62599819D02*
X86732381Y-62980771D01*
X86732381Y-62980771D02*
X86875238Y-62980771D01*
X86875238Y-62980771D02*
X86970476Y-63028390D01*
X86970476Y-63028390D02*
X87018095Y-63076009D01*
X87018095Y-63076009D02*
X87065714Y-63171247D01*
X87065714Y-63171247D02*
X87065714Y-63409342D01*
X87065714Y-63409342D02*
X87018095Y-63504580D01*
X87018095Y-63504580D02*
X86970476Y-63552200D01*
X86970476Y-63552200D02*
X86875238Y-63599819D01*
X86875238Y-63599819D02*
X86589524Y-63599819D01*
X86589524Y-63599819D02*
X86494286Y-63552200D01*
X86494286Y-63552200D02*
X86446667Y-63504580D01*
X138515714Y-96569819D02*
X138515714Y-95569819D01*
X138515714Y-95569819D02*
X138896666Y-95569819D01*
X138896666Y-95569819D02*
X138991904Y-95617438D01*
X138991904Y-95617438D02*
X139039523Y-95665057D01*
X139039523Y-95665057D02*
X139087142Y-95760295D01*
X139087142Y-95760295D02*
X139087142Y-95903152D01*
X139087142Y-95903152D02*
X139039523Y-95998390D01*
X139039523Y-95998390D02*
X138991904Y-96046009D01*
X138991904Y-96046009D02*
X138896666Y-96093628D01*
X138896666Y-96093628D02*
X138515714Y-96093628D01*
X140039523Y-96569819D02*
X139468095Y-96569819D01*
X139753809Y-96569819D02*
X139753809Y-95569819D01*
X139753809Y-95569819D02*
X139658571Y-95712676D01*
X139658571Y-95712676D02*
X139563333Y-95807914D01*
X139563333Y-95807914D02*
X139468095Y-95855533D01*
X140896666Y-95569819D02*
X140706190Y-95569819D01*
X140706190Y-95569819D02*
X140610952Y-95617438D01*
X140610952Y-95617438D02*
X140563333Y-95665057D01*
X140563333Y-95665057D02*
X140468095Y-95807914D01*
X140468095Y-95807914D02*
X140420476Y-95998390D01*
X140420476Y-95998390D02*
X140420476Y-96379342D01*
X140420476Y-96379342D02*
X140468095Y-96474580D01*
X140468095Y-96474580D02*
X140515714Y-96522200D01*
X140515714Y-96522200D02*
X140610952Y-96569819D01*
X140610952Y-96569819D02*
X140801428Y-96569819D01*
X140801428Y-96569819D02*
X140896666Y-96522200D01*
X140896666Y-96522200D02*
X140944285Y-96474580D01*
X140944285Y-96474580D02*
X140991904Y-96379342D01*
X140991904Y-96379342D02*
X140991904Y-96141247D01*
X140991904Y-96141247D02*
X140944285Y-96046009D01*
X140944285Y-96046009D02*
X140896666Y-95998390D01*
X140896666Y-95998390D02*
X140801428Y-95950771D01*
X140801428Y-95950771D02*
X140610952Y-95950771D01*
X140610952Y-95950771D02*
X140515714Y-95998390D01*
X140515714Y-95998390D02*
X140468095Y-96046009D01*
X140468095Y-96046009D02*
X140420476Y-96141247D01*
X150545714Y-65689819D02*
X150545714Y-64689819D01*
X150545714Y-64689819D02*
X150926666Y-64689819D01*
X150926666Y-64689819D02*
X151021904Y-64737438D01*
X151021904Y-64737438D02*
X151069523Y-64785057D01*
X151069523Y-64785057D02*
X151117142Y-64880295D01*
X151117142Y-64880295D02*
X151117142Y-65023152D01*
X151117142Y-65023152D02*
X151069523Y-65118390D01*
X151069523Y-65118390D02*
X151021904Y-65166009D01*
X151021904Y-65166009D02*
X150926666Y-65213628D01*
X150926666Y-65213628D02*
X150545714Y-65213628D01*
X151498095Y-64785057D02*
X151545714Y-64737438D01*
X151545714Y-64737438D02*
X151640952Y-64689819D01*
X151640952Y-64689819D02*
X151879047Y-64689819D01*
X151879047Y-64689819D02*
X151974285Y-64737438D01*
X151974285Y-64737438D02*
X152021904Y-64785057D01*
X152021904Y-64785057D02*
X152069523Y-64880295D01*
X152069523Y-64880295D02*
X152069523Y-64975533D01*
X152069523Y-64975533D02*
X152021904Y-65118390D01*
X152021904Y-65118390D02*
X151450476Y-65689819D01*
X151450476Y-65689819D02*
X152069523Y-65689819D01*
X152688571Y-64689819D02*
X152783809Y-64689819D01*
X152783809Y-64689819D02*
X152879047Y-64737438D01*
X152879047Y-64737438D02*
X152926666Y-64785057D01*
X152926666Y-64785057D02*
X152974285Y-64880295D01*
X152974285Y-64880295D02*
X153021904Y-65070771D01*
X153021904Y-65070771D02*
X153021904Y-65308866D01*
X153021904Y-65308866D02*
X152974285Y-65499342D01*
X152974285Y-65499342D02*
X152926666Y-65594580D01*
X152926666Y-65594580D02*
X152879047Y-65642200D01*
X152879047Y-65642200D02*
X152783809Y-65689819D01*
X152783809Y-65689819D02*
X152688571Y-65689819D01*
X152688571Y-65689819D02*
X152593333Y-65642200D01*
X152593333Y-65642200D02*
X152545714Y-65594580D01*
X152545714Y-65594580D02*
X152498095Y-65499342D01*
X152498095Y-65499342D02*
X152450476Y-65308866D01*
X152450476Y-65308866D02*
X152450476Y-65070771D01*
X152450476Y-65070771D02*
X152498095Y-64880295D01*
X152498095Y-64880295D02*
X152545714Y-64785057D01*
X152545714Y-64785057D02*
X152593333Y-64737438D01*
X152593333Y-64737438D02*
X152688571Y-64689819D01*
X91323333Y-66349580D02*
X91275714Y-66397200D01*
X91275714Y-66397200D02*
X91132857Y-66444819D01*
X91132857Y-66444819D02*
X91037619Y-66444819D01*
X91037619Y-66444819D02*
X90894762Y-66397200D01*
X90894762Y-66397200D02*
X90799524Y-66301961D01*
X90799524Y-66301961D02*
X90751905Y-66206723D01*
X90751905Y-66206723D02*
X90704286Y-66016247D01*
X90704286Y-66016247D02*
X90704286Y-65873390D01*
X90704286Y-65873390D02*
X90751905Y-65682914D01*
X90751905Y-65682914D02*
X90799524Y-65587676D01*
X90799524Y-65587676D02*
X90894762Y-65492438D01*
X90894762Y-65492438D02*
X91037619Y-65444819D01*
X91037619Y-65444819D02*
X91132857Y-65444819D01*
X91132857Y-65444819D02*
X91275714Y-65492438D01*
X91275714Y-65492438D02*
X91323333Y-65540057D01*
X91894762Y-65873390D02*
X91799524Y-65825771D01*
X91799524Y-65825771D02*
X91751905Y-65778152D01*
X91751905Y-65778152D02*
X91704286Y-65682914D01*
X91704286Y-65682914D02*
X91704286Y-65635295D01*
X91704286Y-65635295D02*
X91751905Y-65540057D01*
X91751905Y-65540057D02*
X91799524Y-65492438D01*
X91799524Y-65492438D02*
X91894762Y-65444819D01*
X91894762Y-65444819D02*
X92085238Y-65444819D01*
X92085238Y-65444819D02*
X92180476Y-65492438D01*
X92180476Y-65492438D02*
X92228095Y-65540057D01*
X92228095Y-65540057D02*
X92275714Y-65635295D01*
X92275714Y-65635295D02*
X92275714Y-65682914D01*
X92275714Y-65682914D02*
X92228095Y-65778152D01*
X92228095Y-65778152D02*
X92180476Y-65825771D01*
X92180476Y-65825771D02*
X92085238Y-65873390D01*
X92085238Y-65873390D02*
X91894762Y-65873390D01*
X91894762Y-65873390D02*
X91799524Y-65921009D01*
X91799524Y-65921009D02*
X91751905Y-65968628D01*
X91751905Y-65968628D02*
X91704286Y-66063866D01*
X91704286Y-66063866D02*
X91704286Y-66254342D01*
X91704286Y-66254342D02*
X91751905Y-66349580D01*
X91751905Y-66349580D02*
X91799524Y-66397200D01*
X91799524Y-66397200D02*
X91894762Y-66444819D01*
X91894762Y-66444819D02*
X92085238Y-66444819D01*
X92085238Y-66444819D02*
X92180476Y-66397200D01*
X92180476Y-66397200D02*
X92228095Y-66349580D01*
X92228095Y-66349580D02*
X92275714Y-66254342D01*
X92275714Y-66254342D02*
X92275714Y-66063866D01*
X92275714Y-66063866D02*
X92228095Y-65968628D01*
X92228095Y-65968628D02*
X92180476Y-65921009D01*
X92180476Y-65921009D02*
X92085238Y-65873390D01*
X106816666Y-109246009D02*
X106483333Y-109246009D01*
X106483333Y-109769819D02*
X106483333Y-108769819D01*
X106483333Y-108769819D02*
X106959523Y-108769819D01*
X107769047Y-109103152D02*
X107769047Y-109769819D01*
X107530952Y-108722200D02*
X107292857Y-109436485D01*
X107292857Y-109436485D02*
X107911904Y-109436485D01*
X26881905Y-89959819D02*
X26881905Y-88959819D01*
X26881905Y-88959819D02*
X27262857Y-88959819D01*
X27262857Y-88959819D02*
X27358095Y-89007438D01*
X27358095Y-89007438D02*
X27405714Y-89055057D01*
X27405714Y-89055057D02*
X27453333Y-89150295D01*
X27453333Y-89150295D02*
X27453333Y-89293152D01*
X27453333Y-89293152D02*
X27405714Y-89388390D01*
X27405714Y-89388390D02*
X27358095Y-89436009D01*
X27358095Y-89436009D02*
X27262857Y-89483628D01*
X27262857Y-89483628D02*
X26881905Y-89483628D01*
X28358095Y-88959819D02*
X27881905Y-88959819D01*
X27881905Y-88959819D02*
X27834286Y-89436009D01*
X27834286Y-89436009D02*
X27881905Y-89388390D01*
X27881905Y-89388390D02*
X27977143Y-89340771D01*
X27977143Y-89340771D02*
X28215238Y-89340771D01*
X28215238Y-89340771D02*
X28310476Y-89388390D01*
X28310476Y-89388390D02*
X28358095Y-89436009D01*
X28358095Y-89436009D02*
X28405714Y-89531247D01*
X28405714Y-89531247D02*
X28405714Y-89769342D01*
X28405714Y-89769342D02*
X28358095Y-89864580D01*
X28358095Y-89864580D02*
X28310476Y-89912200D01*
X28310476Y-89912200D02*
X28215238Y-89959819D01*
X28215238Y-89959819D02*
X27977143Y-89959819D01*
X27977143Y-89959819D02*
X27881905Y-89912200D01*
X27881905Y-89912200D02*
X27834286Y-89864580D01*
X138515714Y-52869819D02*
X138515714Y-51869819D01*
X138515714Y-51869819D02*
X138896666Y-51869819D01*
X138896666Y-51869819D02*
X138991904Y-51917438D01*
X138991904Y-51917438D02*
X139039523Y-51965057D01*
X139039523Y-51965057D02*
X139087142Y-52060295D01*
X139087142Y-52060295D02*
X139087142Y-52203152D01*
X139087142Y-52203152D02*
X139039523Y-52298390D01*
X139039523Y-52298390D02*
X138991904Y-52346009D01*
X138991904Y-52346009D02*
X138896666Y-52393628D01*
X138896666Y-52393628D02*
X138515714Y-52393628D01*
X139468095Y-51965057D02*
X139515714Y-51917438D01*
X139515714Y-51917438D02*
X139610952Y-51869819D01*
X139610952Y-51869819D02*
X139849047Y-51869819D01*
X139849047Y-51869819D02*
X139944285Y-51917438D01*
X139944285Y-51917438D02*
X139991904Y-51965057D01*
X139991904Y-51965057D02*
X140039523Y-52060295D01*
X140039523Y-52060295D02*
X140039523Y-52155533D01*
X140039523Y-52155533D02*
X139991904Y-52298390D01*
X139991904Y-52298390D02*
X139420476Y-52869819D01*
X139420476Y-52869819D02*
X140039523Y-52869819D01*
X140991904Y-52869819D02*
X140420476Y-52869819D01*
X140706190Y-52869819D02*
X140706190Y-51869819D01*
X140706190Y-51869819D02*
X140610952Y-52012676D01*
X140610952Y-52012676D02*
X140515714Y-52107914D01*
X140515714Y-52107914D02*
X140420476Y-52155533D01*
X114583333Y-60449819D02*
X114250000Y-59973628D01*
X114011905Y-60449819D02*
X114011905Y-59449819D01*
X114011905Y-59449819D02*
X114392857Y-59449819D01*
X114392857Y-59449819D02*
X114488095Y-59497438D01*
X114488095Y-59497438D02*
X114535714Y-59545057D01*
X114535714Y-59545057D02*
X114583333Y-59640295D01*
X114583333Y-59640295D02*
X114583333Y-59783152D01*
X114583333Y-59783152D02*
X114535714Y-59878390D01*
X114535714Y-59878390D02*
X114488095Y-59926009D01*
X114488095Y-59926009D02*
X114392857Y-59973628D01*
X114392857Y-59973628D02*
X114011905Y-59973628D01*
X115440476Y-59783152D02*
X115440476Y-60449819D01*
X115202381Y-59402200D02*
X114964286Y-60116485D01*
X114964286Y-60116485D02*
X115583333Y-60116485D01*
X137227142Y-48674580D02*
X137179523Y-48722200D01*
X137179523Y-48722200D02*
X137036666Y-48769819D01*
X137036666Y-48769819D02*
X136941428Y-48769819D01*
X136941428Y-48769819D02*
X136798571Y-48722200D01*
X136798571Y-48722200D02*
X136703333Y-48626961D01*
X136703333Y-48626961D02*
X136655714Y-48531723D01*
X136655714Y-48531723D02*
X136608095Y-48341247D01*
X136608095Y-48341247D02*
X136608095Y-48198390D01*
X136608095Y-48198390D02*
X136655714Y-48007914D01*
X136655714Y-48007914D02*
X136703333Y-47912676D01*
X136703333Y-47912676D02*
X136798571Y-47817438D01*
X136798571Y-47817438D02*
X136941428Y-47769819D01*
X136941428Y-47769819D02*
X137036666Y-47769819D01*
X137036666Y-47769819D02*
X137179523Y-47817438D01*
X137179523Y-47817438D02*
X137227142Y-47865057D01*
X138179523Y-48769819D02*
X137608095Y-48769819D01*
X137893809Y-48769819D02*
X137893809Y-47769819D01*
X137893809Y-47769819D02*
X137798571Y-47912676D01*
X137798571Y-47912676D02*
X137703333Y-48007914D01*
X137703333Y-48007914D02*
X137608095Y-48055533D01*
X139036666Y-48103152D02*
X139036666Y-48769819D01*
X138798571Y-47722200D02*
X138560476Y-48436485D01*
X138560476Y-48436485D02*
X139179523Y-48436485D01*
X79641905Y-88694819D02*
X79641905Y-87694819D01*
X79641905Y-87694819D02*
X79880000Y-87694819D01*
X79880000Y-87694819D02*
X80022857Y-87742438D01*
X80022857Y-87742438D02*
X80118095Y-87837676D01*
X80118095Y-87837676D02*
X80165714Y-87932914D01*
X80165714Y-87932914D02*
X80213333Y-88123390D01*
X80213333Y-88123390D02*
X80213333Y-88266247D01*
X80213333Y-88266247D02*
X80165714Y-88456723D01*
X80165714Y-88456723D02*
X80118095Y-88551961D01*
X80118095Y-88551961D02*
X80022857Y-88647200D01*
X80022857Y-88647200D02*
X79880000Y-88694819D01*
X79880000Y-88694819D02*
X79641905Y-88694819D01*
X80594286Y-87790057D02*
X80641905Y-87742438D01*
X80641905Y-87742438D02*
X80737143Y-87694819D01*
X80737143Y-87694819D02*
X80975238Y-87694819D01*
X80975238Y-87694819D02*
X81070476Y-87742438D01*
X81070476Y-87742438D02*
X81118095Y-87790057D01*
X81118095Y-87790057D02*
X81165714Y-87885295D01*
X81165714Y-87885295D02*
X81165714Y-87980533D01*
X81165714Y-87980533D02*
X81118095Y-88123390D01*
X81118095Y-88123390D02*
X80546667Y-88694819D01*
X80546667Y-88694819D02*
X81165714Y-88694819D01*
X150545714Y-119879819D02*
X150545714Y-118879819D01*
X150545714Y-118879819D02*
X150926666Y-118879819D01*
X150926666Y-118879819D02*
X151021904Y-118927438D01*
X151021904Y-118927438D02*
X151069523Y-118975057D01*
X151069523Y-118975057D02*
X151117142Y-119070295D01*
X151117142Y-119070295D02*
X151117142Y-119213152D01*
X151117142Y-119213152D02*
X151069523Y-119308390D01*
X151069523Y-119308390D02*
X151021904Y-119356009D01*
X151021904Y-119356009D02*
X150926666Y-119403628D01*
X150926666Y-119403628D02*
X150545714Y-119403628D01*
X152069523Y-119879819D02*
X151498095Y-119879819D01*
X151783809Y-119879819D02*
X151783809Y-118879819D01*
X151783809Y-118879819D02*
X151688571Y-119022676D01*
X151688571Y-119022676D02*
X151593333Y-119117914D01*
X151593333Y-119117914D02*
X151498095Y-119165533D01*
X152974285Y-118879819D02*
X152498095Y-118879819D01*
X152498095Y-118879819D02*
X152450476Y-119356009D01*
X152450476Y-119356009D02*
X152498095Y-119308390D01*
X152498095Y-119308390D02*
X152593333Y-119260771D01*
X152593333Y-119260771D02*
X152831428Y-119260771D01*
X152831428Y-119260771D02*
X152926666Y-119308390D01*
X152926666Y-119308390D02*
X152974285Y-119356009D01*
X152974285Y-119356009D02*
X153021904Y-119451247D01*
X153021904Y-119451247D02*
X153021904Y-119689342D01*
X153021904Y-119689342D02*
X152974285Y-119784580D01*
X152974285Y-119784580D02*
X152926666Y-119832200D01*
X152926666Y-119832200D02*
X152831428Y-119879819D01*
X152831428Y-119879819D02*
X152593333Y-119879819D01*
X152593333Y-119879819D02*
X152498095Y-119832200D01*
X152498095Y-119832200D02*
X152450476Y-119784580D01*
X118043333Y-94774580D02*
X117995714Y-94822200D01*
X117995714Y-94822200D02*
X117852857Y-94869819D01*
X117852857Y-94869819D02*
X117757619Y-94869819D01*
X117757619Y-94869819D02*
X117614762Y-94822200D01*
X117614762Y-94822200D02*
X117519524Y-94726961D01*
X117519524Y-94726961D02*
X117471905Y-94631723D01*
X117471905Y-94631723D02*
X117424286Y-94441247D01*
X117424286Y-94441247D02*
X117424286Y-94298390D01*
X117424286Y-94298390D02*
X117471905Y-94107914D01*
X117471905Y-94107914D02*
X117519524Y-94012676D01*
X117519524Y-94012676D02*
X117614762Y-93917438D01*
X117614762Y-93917438D02*
X117757619Y-93869819D01*
X117757619Y-93869819D02*
X117852857Y-93869819D01*
X117852857Y-93869819D02*
X117995714Y-93917438D01*
X117995714Y-93917438D02*
X118043333Y-93965057D01*
X118519524Y-94869819D02*
X118710000Y-94869819D01*
X118710000Y-94869819D02*
X118805238Y-94822200D01*
X118805238Y-94822200D02*
X118852857Y-94774580D01*
X118852857Y-94774580D02*
X118948095Y-94631723D01*
X118948095Y-94631723D02*
X118995714Y-94441247D01*
X118995714Y-94441247D02*
X118995714Y-94060295D01*
X118995714Y-94060295D02*
X118948095Y-93965057D01*
X118948095Y-93965057D02*
X118900476Y-93917438D01*
X118900476Y-93917438D02*
X118805238Y-93869819D01*
X118805238Y-93869819D02*
X118614762Y-93869819D01*
X118614762Y-93869819D02*
X118519524Y-93917438D01*
X118519524Y-93917438D02*
X118471905Y-93965057D01*
X118471905Y-93965057D02*
X118424286Y-94060295D01*
X118424286Y-94060295D02*
X118424286Y-94298390D01*
X118424286Y-94298390D02*
X118471905Y-94393628D01*
X118471905Y-94393628D02*
X118519524Y-94441247D01*
X118519524Y-94441247D02*
X118614762Y-94488866D01*
X118614762Y-94488866D02*
X118805238Y-94488866D01*
X118805238Y-94488866D02*
X118900476Y-94441247D01*
X118900476Y-94441247D02*
X118948095Y-94393628D01*
X118948095Y-94393628D02*
X118995714Y-94298390D01*
X132287142Y-70774580D02*
X132239523Y-70822200D01*
X132239523Y-70822200D02*
X132096666Y-70869819D01*
X132096666Y-70869819D02*
X132001428Y-70869819D01*
X132001428Y-70869819D02*
X131858571Y-70822200D01*
X131858571Y-70822200D02*
X131763333Y-70726961D01*
X131763333Y-70726961D02*
X131715714Y-70631723D01*
X131715714Y-70631723D02*
X131668095Y-70441247D01*
X131668095Y-70441247D02*
X131668095Y-70298390D01*
X131668095Y-70298390D02*
X131715714Y-70107914D01*
X131715714Y-70107914D02*
X131763333Y-70012676D01*
X131763333Y-70012676D02*
X131858571Y-69917438D01*
X131858571Y-69917438D02*
X132001428Y-69869819D01*
X132001428Y-69869819D02*
X132096666Y-69869819D01*
X132096666Y-69869819D02*
X132239523Y-69917438D01*
X132239523Y-69917438D02*
X132287142Y-69965057D01*
X133239523Y-70869819D02*
X132668095Y-70869819D01*
X132953809Y-70869819D02*
X132953809Y-69869819D01*
X132953809Y-69869819D02*
X132858571Y-70012676D01*
X132858571Y-70012676D02*
X132763333Y-70107914D01*
X132763333Y-70107914D02*
X132668095Y-70155533D01*
X134096666Y-69869819D02*
X133906190Y-69869819D01*
X133906190Y-69869819D02*
X133810952Y-69917438D01*
X133810952Y-69917438D02*
X133763333Y-69965057D01*
X133763333Y-69965057D02*
X133668095Y-70107914D01*
X133668095Y-70107914D02*
X133620476Y-70298390D01*
X133620476Y-70298390D02*
X133620476Y-70679342D01*
X133620476Y-70679342D02*
X133668095Y-70774580D01*
X133668095Y-70774580D02*
X133715714Y-70822200D01*
X133715714Y-70822200D02*
X133810952Y-70869819D01*
X133810952Y-70869819D02*
X134001428Y-70869819D01*
X134001428Y-70869819D02*
X134096666Y-70822200D01*
X134096666Y-70822200D02*
X134144285Y-70774580D01*
X134144285Y-70774580D02*
X134191904Y-70679342D01*
X134191904Y-70679342D02*
X134191904Y-70441247D01*
X134191904Y-70441247D02*
X134144285Y-70346009D01*
X134144285Y-70346009D02*
X134096666Y-70298390D01*
X134096666Y-70298390D02*
X134001428Y-70250771D01*
X134001428Y-70250771D02*
X133810952Y-70250771D01*
X133810952Y-70250771D02*
X133715714Y-70298390D01*
X133715714Y-70298390D02*
X133668095Y-70346009D01*
X133668095Y-70346009D02*
X133620476Y-70441247D01*
X63193333Y-50044580D02*
X63145714Y-50092200D01*
X63145714Y-50092200D02*
X63002857Y-50139819D01*
X63002857Y-50139819D02*
X62907619Y-50139819D01*
X62907619Y-50139819D02*
X62764762Y-50092200D01*
X62764762Y-50092200D02*
X62669524Y-49996961D01*
X62669524Y-49996961D02*
X62621905Y-49901723D01*
X62621905Y-49901723D02*
X62574286Y-49711247D01*
X62574286Y-49711247D02*
X62574286Y-49568390D01*
X62574286Y-49568390D02*
X62621905Y-49377914D01*
X62621905Y-49377914D02*
X62669524Y-49282676D01*
X62669524Y-49282676D02*
X62764762Y-49187438D01*
X62764762Y-49187438D02*
X62907619Y-49139819D01*
X62907619Y-49139819D02*
X63002857Y-49139819D01*
X63002857Y-49139819D02*
X63145714Y-49187438D01*
X63145714Y-49187438D02*
X63193333Y-49235057D01*
X63574286Y-49235057D02*
X63621905Y-49187438D01*
X63621905Y-49187438D02*
X63717143Y-49139819D01*
X63717143Y-49139819D02*
X63955238Y-49139819D01*
X63955238Y-49139819D02*
X64050476Y-49187438D01*
X64050476Y-49187438D02*
X64098095Y-49235057D01*
X64098095Y-49235057D02*
X64145714Y-49330295D01*
X64145714Y-49330295D02*
X64145714Y-49425533D01*
X64145714Y-49425533D02*
X64098095Y-49568390D01*
X64098095Y-49568390D02*
X63526667Y-50139819D01*
X63526667Y-50139819D02*
X64145714Y-50139819D01*
X137187142Y-63314580D02*
X137139523Y-63362200D01*
X137139523Y-63362200D02*
X136996666Y-63409819D01*
X136996666Y-63409819D02*
X136901428Y-63409819D01*
X136901428Y-63409819D02*
X136758571Y-63362200D01*
X136758571Y-63362200D02*
X136663333Y-63266961D01*
X136663333Y-63266961D02*
X136615714Y-63171723D01*
X136615714Y-63171723D02*
X136568095Y-62981247D01*
X136568095Y-62981247D02*
X136568095Y-62838390D01*
X136568095Y-62838390D02*
X136615714Y-62647914D01*
X136615714Y-62647914D02*
X136663333Y-62552676D01*
X136663333Y-62552676D02*
X136758571Y-62457438D01*
X136758571Y-62457438D02*
X136901428Y-62409819D01*
X136901428Y-62409819D02*
X136996666Y-62409819D01*
X136996666Y-62409819D02*
X137139523Y-62457438D01*
X137139523Y-62457438D02*
X137187142Y-62505057D01*
X138139523Y-63409819D02*
X137568095Y-63409819D01*
X137853809Y-63409819D02*
X137853809Y-62409819D01*
X137853809Y-62409819D02*
X137758571Y-62552676D01*
X137758571Y-62552676D02*
X137663333Y-62647914D01*
X137663333Y-62647914D02*
X137568095Y-62695533D01*
X139044285Y-62409819D02*
X138568095Y-62409819D01*
X138568095Y-62409819D02*
X138520476Y-62886009D01*
X138520476Y-62886009D02*
X138568095Y-62838390D01*
X138568095Y-62838390D02*
X138663333Y-62790771D01*
X138663333Y-62790771D02*
X138901428Y-62790771D01*
X138901428Y-62790771D02*
X138996666Y-62838390D01*
X138996666Y-62838390D02*
X139044285Y-62886009D01*
X139044285Y-62886009D02*
X139091904Y-62981247D01*
X139091904Y-62981247D02*
X139091904Y-63219342D01*
X139091904Y-63219342D02*
X139044285Y-63314580D01*
X139044285Y-63314580D02*
X138996666Y-63362200D01*
X138996666Y-63362200D02*
X138901428Y-63409819D01*
X138901428Y-63409819D02*
X138663333Y-63409819D01*
X138663333Y-63409819D02*
X138568095Y-63362200D01*
X138568095Y-63362200D02*
X138520476Y-63314580D01*
X88757142Y-80274580D02*
X88709523Y-80322200D01*
X88709523Y-80322200D02*
X88566666Y-80369819D01*
X88566666Y-80369819D02*
X88471428Y-80369819D01*
X88471428Y-80369819D02*
X88328571Y-80322200D01*
X88328571Y-80322200D02*
X88233333Y-80226961D01*
X88233333Y-80226961D02*
X88185714Y-80131723D01*
X88185714Y-80131723D02*
X88138095Y-79941247D01*
X88138095Y-79941247D02*
X88138095Y-79798390D01*
X88138095Y-79798390D02*
X88185714Y-79607914D01*
X88185714Y-79607914D02*
X88233333Y-79512676D01*
X88233333Y-79512676D02*
X88328571Y-79417438D01*
X88328571Y-79417438D02*
X88471428Y-79369819D01*
X88471428Y-79369819D02*
X88566666Y-79369819D01*
X88566666Y-79369819D02*
X88709523Y-79417438D01*
X88709523Y-79417438D02*
X88757142Y-79465057D01*
X89709523Y-80369819D02*
X89138095Y-80369819D01*
X89423809Y-80369819D02*
X89423809Y-79369819D01*
X89423809Y-79369819D02*
X89328571Y-79512676D01*
X89328571Y-79512676D02*
X89233333Y-79607914D01*
X89233333Y-79607914D02*
X89138095Y-79655533D01*
X90328571Y-79369819D02*
X90423809Y-79369819D01*
X90423809Y-79369819D02*
X90519047Y-79417438D01*
X90519047Y-79417438D02*
X90566666Y-79465057D01*
X90566666Y-79465057D02*
X90614285Y-79560295D01*
X90614285Y-79560295D02*
X90661904Y-79750771D01*
X90661904Y-79750771D02*
X90661904Y-79988866D01*
X90661904Y-79988866D02*
X90614285Y-80179342D01*
X90614285Y-80179342D02*
X90566666Y-80274580D01*
X90566666Y-80274580D02*
X90519047Y-80322200D01*
X90519047Y-80322200D02*
X90423809Y-80369819D01*
X90423809Y-80369819D02*
X90328571Y-80369819D01*
X90328571Y-80369819D02*
X90233333Y-80322200D01*
X90233333Y-80322200D02*
X90185714Y-80274580D01*
X90185714Y-80274580D02*
X90138095Y-80179342D01*
X90138095Y-80179342D02*
X90090476Y-79988866D01*
X90090476Y-79988866D02*
X90090476Y-79750771D01*
X90090476Y-79750771D02*
X90138095Y-79560295D01*
X90138095Y-79560295D02*
X90185714Y-79465057D01*
X90185714Y-79465057D02*
X90233333Y-79417438D01*
X90233333Y-79417438D02*
X90328571Y-79369819D01*
X96965714Y-135329819D02*
X96965714Y-134329819D01*
X96965714Y-134329819D02*
X97346666Y-134329819D01*
X97346666Y-134329819D02*
X97441904Y-134377438D01*
X97441904Y-134377438D02*
X97489523Y-134425057D01*
X97489523Y-134425057D02*
X97537142Y-134520295D01*
X97537142Y-134520295D02*
X97537142Y-134663152D01*
X97537142Y-134663152D02*
X97489523Y-134758390D01*
X97489523Y-134758390D02*
X97441904Y-134806009D01*
X97441904Y-134806009D02*
X97346666Y-134853628D01*
X97346666Y-134853628D02*
X96965714Y-134853628D01*
X98489523Y-135329819D02*
X97918095Y-135329819D01*
X98203809Y-135329819D02*
X98203809Y-134329819D01*
X98203809Y-134329819D02*
X98108571Y-134472676D01*
X98108571Y-134472676D02*
X98013333Y-134567914D01*
X98013333Y-134567914D02*
X97918095Y-134615533D01*
X99346666Y-134663152D02*
X99346666Y-135329819D01*
X99108571Y-134282200D02*
X98870476Y-134996485D01*
X98870476Y-134996485D02*
X99489523Y-134996485D01*
X114003810Y-94669819D02*
X114003810Y-93669819D01*
X115051428Y-94574580D02*
X115003809Y-94622200D01*
X115003809Y-94622200D02*
X114860952Y-94669819D01*
X114860952Y-94669819D02*
X114765714Y-94669819D01*
X114765714Y-94669819D02*
X114622857Y-94622200D01*
X114622857Y-94622200D02*
X114527619Y-94526961D01*
X114527619Y-94526961D02*
X114480000Y-94431723D01*
X114480000Y-94431723D02*
X114432381Y-94241247D01*
X114432381Y-94241247D02*
X114432381Y-94098390D01*
X114432381Y-94098390D02*
X114480000Y-93907914D01*
X114480000Y-93907914D02*
X114527619Y-93812676D01*
X114527619Y-93812676D02*
X114622857Y-93717438D01*
X114622857Y-93717438D02*
X114765714Y-93669819D01*
X114765714Y-93669819D02*
X114860952Y-93669819D01*
X114860952Y-93669819D02*
X115003809Y-93717438D01*
X115003809Y-93717438D02*
X115051428Y-93765057D01*
X115432381Y-93765057D02*
X115480000Y-93717438D01*
X115480000Y-93717438D02*
X115575238Y-93669819D01*
X115575238Y-93669819D02*
X115813333Y-93669819D01*
X115813333Y-93669819D02*
X115908571Y-93717438D01*
X115908571Y-93717438D02*
X115956190Y-93765057D01*
X115956190Y-93765057D02*
X116003809Y-93860295D01*
X116003809Y-93860295D02*
X116003809Y-93955533D01*
X116003809Y-93955533D02*
X115956190Y-94098390D01*
X115956190Y-94098390D02*
X115384762Y-94669819D01*
X115384762Y-94669819D02*
X116003809Y-94669819D01*
X133891905Y-111489819D02*
X133891905Y-110489819D01*
X133891905Y-110489819D02*
X134130000Y-110489819D01*
X134130000Y-110489819D02*
X134272857Y-110537438D01*
X134272857Y-110537438D02*
X134368095Y-110632676D01*
X134368095Y-110632676D02*
X134415714Y-110727914D01*
X134415714Y-110727914D02*
X134463333Y-110918390D01*
X134463333Y-110918390D02*
X134463333Y-111061247D01*
X134463333Y-111061247D02*
X134415714Y-111251723D01*
X134415714Y-111251723D02*
X134368095Y-111346961D01*
X134368095Y-111346961D02*
X134272857Y-111442200D01*
X134272857Y-111442200D02*
X134130000Y-111489819D01*
X134130000Y-111489819D02*
X133891905Y-111489819D01*
X135320476Y-110823152D02*
X135320476Y-111489819D01*
X135082381Y-110442200D02*
X134844286Y-111156485D01*
X134844286Y-111156485D02*
X135463333Y-111156485D01*
X146538095Y-106409819D02*
X146538095Y-105409819D01*
X147109523Y-106409819D02*
X146680952Y-105838390D01*
X147109523Y-105409819D02*
X146538095Y-105981247D01*
X86575714Y-135329819D02*
X86575714Y-134329819D01*
X86575714Y-134329819D02*
X86956666Y-134329819D01*
X86956666Y-134329819D02*
X87051904Y-134377438D01*
X87051904Y-134377438D02*
X87099523Y-134425057D01*
X87099523Y-134425057D02*
X87147142Y-134520295D01*
X87147142Y-134520295D02*
X87147142Y-134663152D01*
X87147142Y-134663152D02*
X87099523Y-134758390D01*
X87099523Y-134758390D02*
X87051904Y-134806009D01*
X87051904Y-134806009D02*
X86956666Y-134853628D01*
X86956666Y-134853628D02*
X86575714Y-134853628D01*
X88099523Y-135329819D02*
X87528095Y-135329819D01*
X87813809Y-135329819D02*
X87813809Y-134329819D01*
X87813809Y-134329819D02*
X87718571Y-134472676D01*
X87718571Y-134472676D02*
X87623333Y-134567914D01*
X87623333Y-134567914D02*
X87528095Y-134615533D01*
X88432857Y-134329819D02*
X89051904Y-134329819D01*
X89051904Y-134329819D02*
X88718571Y-134710771D01*
X88718571Y-134710771D02*
X88861428Y-134710771D01*
X88861428Y-134710771D02*
X88956666Y-134758390D01*
X88956666Y-134758390D02*
X89004285Y-134806009D01*
X89004285Y-134806009D02*
X89051904Y-134901247D01*
X89051904Y-134901247D02*
X89051904Y-135139342D01*
X89051904Y-135139342D02*
X89004285Y-135234580D01*
X89004285Y-135234580D02*
X88956666Y-135282200D01*
X88956666Y-135282200D02*
X88861428Y-135329819D01*
X88861428Y-135329819D02*
X88575714Y-135329819D01*
X88575714Y-135329819D02*
X88480476Y-135282200D01*
X88480476Y-135282200D02*
X88432857Y-135234580D01*
X58711905Y-86294819D02*
X58711905Y-85294819D01*
X58711905Y-85294819D02*
X58950000Y-85294819D01*
X58950000Y-85294819D02*
X59092857Y-85342438D01*
X59092857Y-85342438D02*
X59188095Y-85437676D01*
X59188095Y-85437676D02*
X59235714Y-85532914D01*
X59235714Y-85532914D02*
X59283333Y-85723390D01*
X59283333Y-85723390D02*
X59283333Y-85866247D01*
X59283333Y-85866247D02*
X59235714Y-86056723D01*
X59235714Y-86056723D02*
X59188095Y-86151961D01*
X59188095Y-86151961D02*
X59092857Y-86247200D01*
X59092857Y-86247200D02*
X58950000Y-86294819D01*
X58950000Y-86294819D02*
X58711905Y-86294819D01*
X60235714Y-86294819D02*
X59664286Y-86294819D01*
X59950000Y-86294819D02*
X59950000Y-85294819D01*
X59950000Y-85294819D02*
X59854762Y-85437676D01*
X59854762Y-85437676D02*
X59759524Y-85532914D01*
X59759524Y-85532914D02*
X59664286Y-85580533D01*
X138515714Y-93889819D02*
X138515714Y-92889819D01*
X138515714Y-92889819D02*
X138896666Y-92889819D01*
X138896666Y-92889819D02*
X138991904Y-92937438D01*
X138991904Y-92937438D02*
X139039523Y-92985057D01*
X139039523Y-92985057D02*
X139087142Y-93080295D01*
X139087142Y-93080295D02*
X139087142Y-93223152D01*
X139087142Y-93223152D02*
X139039523Y-93318390D01*
X139039523Y-93318390D02*
X138991904Y-93366009D01*
X138991904Y-93366009D02*
X138896666Y-93413628D01*
X138896666Y-93413628D02*
X138515714Y-93413628D01*
X140039523Y-93889819D02*
X139468095Y-93889819D01*
X139753809Y-93889819D02*
X139753809Y-92889819D01*
X139753809Y-92889819D02*
X139658571Y-93032676D01*
X139658571Y-93032676D02*
X139563333Y-93127914D01*
X139563333Y-93127914D02*
X139468095Y-93175533D01*
X140372857Y-92889819D02*
X141039523Y-92889819D01*
X141039523Y-92889819D02*
X140610952Y-93889819D01*
X26881905Y-45809819D02*
X26881905Y-44809819D01*
X26881905Y-44809819D02*
X27262857Y-44809819D01*
X27262857Y-44809819D02*
X27358095Y-44857438D01*
X27358095Y-44857438D02*
X27405714Y-44905057D01*
X27405714Y-44905057D02*
X27453333Y-45000295D01*
X27453333Y-45000295D02*
X27453333Y-45143152D01*
X27453333Y-45143152D02*
X27405714Y-45238390D01*
X27405714Y-45238390D02*
X27358095Y-45286009D01*
X27358095Y-45286009D02*
X27262857Y-45333628D01*
X27262857Y-45333628D02*
X26881905Y-45333628D01*
X28405714Y-45809819D02*
X27834286Y-45809819D01*
X28120000Y-45809819D02*
X28120000Y-44809819D01*
X28120000Y-44809819D02*
X28024762Y-44952676D01*
X28024762Y-44952676D02*
X27929524Y-45047914D01*
X27929524Y-45047914D02*
X27834286Y-45095533D01*
X91174761Y-42635057D02*
X91079523Y-42587438D01*
X91079523Y-42587438D02*
X90984285Y-42492200D01*
X90984285Y-42492200D02*
X90841428Y-42349342D01*
X90841428Y-42349342D02*
X90746190Y-42301723D01*
X90746190Y-42301723D02*
X90650952Y-42301723D01*
X90698571Y-42539819D02*
X90603333Y-42492200D01*
X90603333Y-42492200D02*
X90508095Y-42396961D01*
X90508095Y-42396961D02*
X90460476Y-42206485D01*
X90460476Y-42206485D02*
X90460476Y-41873152D01*
X90460476Y-41873152D02*
X90508095Y-41682676D01*
X90508095Y-41682676D02*
X90603333Y-41587438D01*
X90603333Y-41587438D02*
X90698571Y-41539819D01*
X90698571Y-41539819D02*
X90889047Y-41539819D01*
X90889047Y-41539819D02*
X90984285Y-41587438D01*
X90984285Y-41587438D02*
X91079523Y-41682676D01*
X91079523Y-41682676D02*
X91127142Y-41873152D01*
X91127142Y-41873152D02*
X91127142Y-42206485D01*
X91127142Y-42206485D02*
X91079523Y-42396961D01*
X91079523Y-42396961D02*
X90984285Y-42492200D01*
X90984285Y-42492200D02*
X90889047Y-42539819D01*
X90889047Y-42539819D02*
X90698571Y-42539819D01*
X92079523Y-42539819D02*
X91508095Y-42539819D01*
X91793809Y-42539819D02*
X91793809Y-41539819D01*
X91793809Y-41539819D02*
X91698571Y-41682676D01*
X91698571Y-41682676D02*
X91603333Y-41777914D01*
X91603333Y-41777914D02*
X91508095Y-41825533D01*
%TO.C,R5*%
D12*
X112670000Y-68815000D02*
X112670000Y-69585000D01*
X112670000Y-76895000D02*
X112670000Y-76125000D01*
X111300000Y-69585000D02*
X114040000Y-69585000D01*
X114040000Y-76125000D01*
X111300000Y-76125000D01*
X111300000Y-69585000D01*
%TO.C,C5*%
X86890000Y-56545000D02*
X97430000Y-56545000D01*
X86890000Y-61785000D02*
X86890000Y-56545000D01*
X97430000Y-56545000D02*
X97430000Y-61785000D01*
X97430000Y-61785000D02*
X86890000Y-61785000D01*
%TO.C,C13*%
X132865000Y-71015509D02*
X132865000Y-72615509D01*
X133665000Y-71815509D02*
X132065000Y-71815509D01*
D13*
X132136000Y-85828000D02*
G75*
G02*
X124484000Y-85828000I-3826000J6123460D01*
G01*
D12*
X136430000Y-79705000D02*
G75*
G02*
X120190000Y-79705000I-8120000J0D01*
G01*
X120190000Y-79705000D02*
G75*
G02*
X136430000Y-79705000I8120000J0D01*
G01*
%TO.C,Q2*%
X122570000Y-43875000D02*
X132790000Y-43875000D01*
X122570000Y-45255000D02*
X132790000Y-45255000D01*
X122570000Y-48495000D02*
X122570000Y-43875000D01*
X125830000Y-43875000D02*
X125830000Y-45255000D01*
X129530000Y-43875000D02*
X129530000Y-45255000D01*
X132790000Y-43875000D02*
X132790000Y-48495000D01*
X132790000Y-48495000D02*
X122570000Y-48495000D01*
%TO.C,C1*%
X39210000Y-61685000D02*
X47950000Y-61685000D01*
X39210000Y-88425000D02*
X39210000Y-61685000D01*
X47950000Y-61685000D02*
X47950000Y-88425000D01*
X47950000Y-88425000D02*
X39210000Y-88425000D01*
%TO.C,C11*%
X98900354Y-48030000D02*
X99900354Y-48030000D01*
X99400354Y-47530000D02*
X99400354Y-48530000D01*
D13*
X107959000Y-48669000D02*
G75*
G02*
X107959000Y-53141000I-3579420J-2236000D01*
G01*
D12*
X109500000Y-50905000D02*
G75*
G02*
X99260000Y-50905000I-5120000J0D01*
G01*
X99260000Y-50905000D02*
G75*
G02*
X109500000Y-50905000I5120000J0D01*
G01*
%TO.C,F2*%
X69110000Y-94265000D02*
X76110000Y-94265000D01*
X76110000Y-124365000D01*
X69110000Y-124365000D01*
X69110000Y-94265000D01*
%TO.C,C6*%
X100300000Y-56145000D02*
X110840000Y-56145000D01*
X100300000Y-61385000D02*
X100300000Y-56145000D01*
X110840000Y-56145000D02*
X110840000Y-61385000D01*
X110840000Y-61385000D02*
X100300000Y-61385000D01*
%TO.C,R7*%
X73620000Y-47290000D02*
X74390000Y-47290000D01*
X81700000Y-47290000D02*
X80930000Y-47290000D01*
X74390000Y-45920000D02*
X80930000Y-45920000D01*
X80930000Y-48660000D01*
X74390000Y-48660000D01*
X74390000Y-45920000D01*
%TO.C,F1*%
X40280000Y-94265000D02*
X47280000Y-94265000D01*
X47280000Y-124365000D01*
X40280000Y-124365000D01*
X40280000Y-94265000D01*
%TO.C,F3*%
X86240000Y-94265000D02*
X93240000Y-94265000D01*
X93240000Y-124365000D01*
X86240000Y-124365000D01*
X86240000Y-94265000D01*
%TO.C,C7*%
X93890000Y-66115000D02*
X99130000Y-66115000D01*
X93890000Y-66452000D02*
X93890000Y-66115000D01*
X93890000Y-68855000D02*
X93890000Y-68518000D01*
X99130000Y-66115000D02*
X99130000Y-66452000D01*
X99130000Y-68518000D02*
X99130000Y-68855000D01*
X99130000Y-68855000D02*
X93890000Y-68855000D01*
%TO.C,R1*%
X118340000Y-83725000D02*
X118670000Y-83725000D01*
X118340000Y-90265000D02*
X118340000Y-83725000D01*
X118670000Y-90265000D02*
X118340000Y-90265000D01*
X120750000Y-90265000D02*
X121080000Y-90265000D01*
X121080000Y-83725000D02*
X120750000Y-83725000D01*
X121080000Y-90265000D02*
X121080000Y-83725000D01*
%TO.C,R2*%
X88240000Y-67635000D02*
X88240000Y-68405000D01*
X88240000Y-75715000D02*
X88240000Y-74945000D01*
X86870000Y-68405000D02*
X89610000Y-68405000D01*
X89610000Y-74945000D01*
X86870000Y-74945000D01*
X86870000Y-68405000D01*
%TO.C,R6*%
X112860000Y-50285000D02*
X113190000Y-50285000D01*
X112860000Y-56825000D02*
X112860000Y-50285000D01*
X113190000Y-56825000D02*
X112860000Y-56825000D01*
X115270000Y-56825000D02*
X115600000Y-56825000D01*
X115600000Y-50285000D02*
X115270000Y-50285000D01*
X115600000Y-56825000D02*
X115600000Y-50285000D01*
%TO.C,C4*%
X62190000Y-74275000D02*
X72730000Y-74275000D01*
X62190000Y-79515000D02*
X62190000Y-74275000D01*
X72730000Y-74275000D02*
X72730000Y-79515000D01*
X72730000Y-79515000D02*
X62190000Y-79515000D01*
%TO.C,D3*%
X140360000Y-107030000D02*
X140360000Y-108950000D01*
X140360000Y-115110000D02*
X140360000Y-113190000D01*
X141480000Y-109550000D02*
X139240000Y-109550000D01*
X141480000Y-109670000D02*
X139240000Y-109670000D01*
X141480000Y-109790000D02*
X139240000Y-109790000D01*
X139240000Y-108950000D02*
X141480000Y-108950000D01*
X141480000Y-113190000D01*
X139240000Y-113190000D01*
X139240000Y-108950000D01*
%TO.C,IC1*%
X49330000Y-46075000D02*
X59550000Y-46075000D01*
X49330000Y-47455000D02*
X59550000Y-47455000D01*
X49330000Y-50695000D02*
X49330000Y-46075000D01*
X52590000Y-46075000D02*
X52590000Y-47455000D01*
X56290000Y-46075000D02*
X56290000Y-47455000D01*
X59550000Y-46075000D02*
X59550000Y-50695000D01*
X59550000Y-50695000D02*
X49330000Y-50695000D01*
%TO.C,C12*%
X131905000Y-50855509D02*
X131905000Y-52455509D01*
X132705000Y-51655509D02*
X131105000Y-51655509D01*
D13*
X131176000Y-65668000D02*
G75*
G02*
X123524000Y-65668000I-3826000J6123460D01*
G01*
D12*
X135470000Y-59545000D02*
G75*
G02*
X119230000Y-59545000I-8120000J0D01*
G01*
X119230000Y-59545000D02*
G75*
G02*
X135470000Y-59545000I8120000J0D01*
G01*
%TO.C,C3*%
X62982918Y-62260000D02*
X64232918Y-62260000D01*
X63607918Y-61635000D02*
X63607918Y-62885000D01*
D13*
X74439000Y-62936000D02*
G75*
G02*
X74439000Y-68734000I-4641180J-2899000D01*
G01*
D12*
X76170000Y-65835000D02*
G75*
G02*
X63430000Y-65835000I-6370000J0D01*
G01*
X63430000Y-65835000D02*
G75*
G02*
X76170000Y-65835000I6370000J0D01*
G01*
%TO.C,R3*%
X89990000Y-63145000D02*
X90760000Y-63145000D01*
X98070000Y-63145000D02*
X97300000Y-63145000D01*
X90760000Y-61775000D02*
X97300000Y-61775000D01*
X97300000Y-64515000D01*
X90760000Y-64515000D01*
X90760000Y-61775000D01*
%TO.C,C8*%
X101290000Y-64870000D02*
X104530000Y-64870000D01*
X101290000Y-65018000D02*
X101290000Y-64870000D01*
X101290000Y-67110000D02*
X101290000Y-66962000D01*
X104530000Y-64870000D02*
X104530000Y-65018000D01*
X104530000Y-66962000D02*
X104530000Y-67110000D01*
X104530000Y-67110000D02*
X101290000Y-67110000D01*
%TO.C,F4*%
X103650000Y-94265000D02*
X110650000Y-94265000D01*
X110650000Y-124365000D01*
X103650000Y-124365000D01*
X103650000Y-94265000D01*
%TO.C,R4*%
X102460000Y-63145000D02*
X103230000Y-63145000D01*
X110540000Y-63145000D02*
X109770000Y-63145000D01*
X103230000Y-61775000D02*
X109770000Y-61775000D01*
X109770000Y-64515000D01*
X103230000Y-64515000D01*
X103230000Y-61775000D01*
%TO.C,C14*%
X144025000Y-45510225D02*
X144025000Y-46010225D01*
X144275000Y-45760225D02*
X143775000Y-45760225D01*
D14*
X143847000Y-50238000D02*
G75*
G02*
X141253000Y-50238000I-1297000J1920150D01*
G01*
D12*
X145170000Y-48315000D02*
G75*
G02*
X139930000Y-48315000I-2620000J0D01*
G01*
X139930000Y-48315000D02*
G75*
G02*
X145170000Y-48315000I2620000J0D01*
G01*
%TO.C,D2*%
X82126000Y-85314000D02*
X82126000Y-91156000D01*
X83269000Y-84171000D02*
G75*
G02*
X82126000Y-91156000I2921000J-4064000D01*
G01*
%TO.C,C9*%
X109920000Y-81285000D02*
X115160000Y-81285000D01*
X109920000Y-91825000D02*
X109920000Y-81285000D01*
X115160000Y-81285000D02*
X115160000Y-91825000D01*
X115160000Y-91825000D02*
X109920000Y-91825000D01*
%TO.C,C16*%
X143585000Y-76010225D02*
X143585000Y-76510225D01*
X143835000Y-76260225D02*
X143335000Y-76260225D01*
D14*
X143407000Y-80738000D02*
G75*
G02*
X140813000Y-80738000I-1297000J1920150D01*
G01*
D12*
X144730000Y-78815000D02*
G75*
G02*
X139490000Y-78815000I-2620000J0D01*
G01*
X139490000Y-78815000D02*
G75*
G02*
X144730000Y-78815000I2620000J0D01*
G01*
%TO.C,C2*%
X56740000Y-50965000D02*
X69980000Y-50965000D01*
X56740000Y-55205000D02*
X56740000Y-50965000D01*
X69980000Y-50965000D02*
X69980000Y-55205000D01*
X69980000Y-55205000D02*
X56740000Y-55205000D01*
%TO.C,C15*%
X143985000Y-56250225D02*
X143985000Y-56750225D01*
X144235000Y-56500225D02*
X143735000Y-56500225D01*
D14*
X143807000Y-60978000D02*
G75*
G02*
X141213000Y-60978000I-1297000J1920150D01*
G01*
D12*
X145130000Y-59055000D02*
G75*
G02*
X139890000Y-59055000I-2620000J0D01*
G01*
X139890000Y-59055000D02*
G75*
G02*
X145130000Y-59055000I2620000J0D01*
G01*
%TO.C,C10*%
X91460000Y-81195000D02*
X96700000Y-81195000D01*
X91460000Y-91735000D02*
X91460000Y-81195000D01*
X96700000Y-81195000D02*
X96700000Y-91735000D01*
X96700000Y-91735000D02*
X91460000Y-91735000D01*
%TO.C,IC2*%
X101040000Y-70465000D02*
X101040000Y-88365000D01*
X101040000Y-88365000D02*
X106340000Y-88365000D01*
X102690000Y-70465000D02*
X101040000Y-70465000D01*
X106340000Y-70465000D02*
X104690000Y-70465000D01*
X106340000Y-88365000D02*
X106340000Y-70465000D01*
X104690000Y-70465000D02*
G75*
G02*
X102690000Y-70465000I-1000000J0D01*
G01*
%TO.C,D4*%
X145000000Y-106995000D02*
X145000000Y-108915000D01*
X145000000Y-115075000D02*
X145000000Y-113155000D01*
X146120000Y-109515000D02*
X143880000Y-109515000D01*
X146120000Y-109635000D02*
X143880000Y-109635000D01*
X146120000Y-109755000D02*
X143880000Y-109755000D01*
X143880000Y-108915000D02*
X146120000Y-108915000D01*
X146120000Y-113155000D01*
X143880000Y-113155000D01*
X143880000Y-108915000D01*
%TO.C,D1*%
X61196000Y-82914000D02*
X61196000Y-88756000D01*
X62339000Y-81771000D02*
G75*
G02*
X61196000Y-88756000I2921000J-4064000D01*
G01*
%TO.C,Q1*%
X86160000Y-43875000D02*
X96380000Y-43875000D01*
X86160000Y-45255000D02*
X96380000Y-45255000D01*
X86160000Y-48495000D02*
X86160000Y-43875000D01*
X89420000Y-43875000D02*
X89420000Y-45255000D01*
X93120000Y-43875000D02*
X93120000Y-45255000D01*
X96380000Y-43875000D02*
X96380000Y-48495000D01*
X96380000Y-48495000D02*
X86160000Y-48495000D01*
%TD*%
M02*
