M48
; DRILL file KiCad 10.0.2 date 2026-10-06T21:33:01
; FORMAT={-:-/ absolute / metric / decimal}
; #@! TF.CreationDate,2026-10-06T21:33:01+02:00
; #@! TF.GenerationSoftware,Kicad,Pcbnew,10.0.2
; #@! TF.FileFunction,Plated,1,2,PTH
FMAT,2
METRIC
; #@! TA.AperFunction,Plated,PTH,ViaDrill
T1C0.300
; #@! TA.AperFunction,Plated,PTH,ViaDrill
T2C0.350
; #@! TA.AperFunction,Plated,PTH,ComponentDrill
T3C0.800
; #@! TA.AperFunction,Plated,PTH,ComponentDrill
T4C1.000
; #@! TA.AperFunction,Plated,PTH,ComponentDrill
T5C1.100
; #@! TA.AperFunction,Plated,PTH,ComponentDrill
T6C1.200
; #@! TA.AperFunction,Plated,PTH,ComponentDrill
T7C1.600
%
G90
G05
T1
X7.62Y-75.565
X46.99Y-90.17
X52.07Y-94.615
X62.23Y-77.47
X63.5Y-64.77
X67.31Y-29.21
X68.58Y-37.465
X69.215Y-35.56
X95.25Y-47.625
X95.885Y-39.37
X104.14Y-47.625
X104.775Y-34.29
T2
X1.25Y-1.25
X69.75Y-59.75
X77.75Y-26.75
X108.75Y-30.25
T3
X54.02Y-27.64
X61.64Y-27.64
X68.6Y-47.22
X68.6Y-54.84
X69.58Y-42.7
X75.02Y-46.24
X77.2Y-42.7
X77.52Y-46.24
X79.04Y-51.35
X79.04Y-53.89
X79.04Y-56.43
X79.04Y-58.97
X79.04Y-61.51
X79.04Y-64.05
X79.04Y-66.59
X82.85Y-42.7
X83.02Y-46.24
X85.52Y-46.24
X86.66Y-51.35
X86.66Y-53.89
X86.66Y-56.43
X86.66Y-58.97
X86.66Y-61.51
X86.66Y-64.05
X86.66Y-66.59
X90.47Y-42.7
X92.43Y-48.2
X92.43Y-55.82
X93.19Y-29.1
X93.19Y-36.72
X97.87Y-61.14
X97.87Y-68.76
X120.17Y-85.71
X120.17Y-95.87
X122.51Y-28.02
X122.51Y-30.52
X122.67Y-37.16
X122.67Y-39.66
X122.67Y-56.52
X122.67Y-59.02
X124.36Y-85.71
X124.36Y-95.87
T4
X39.77Y-33.24
X43.47Y-57.45
X44.68Y-63.45
X44.68Y-68.53
X47.27Y-33.24
X49.76Y-63.45
X49.76Y-68.53
X50.97Y-57.45
X63.01Y-63.45
X63.01Y-68.53
X68.09Y-63.45
X68.09Y-68.53
X68.17Y-38.52
X73.44Y-62.07
X73.44Y-69.57
X75.67Y-38.52
X81.44Y-30.46
X81.98Y-38.52
X86.44Y-30.46
X89.48Y-38.52
X92.1Y-62.56
X92.1Y-70.06
T5
X32.06Y-28.29
X34.6Y-28.29
X37.14Y-28.29
X68.29Y-28.29
X70.83Y-28.29
X73.37Y-28.29
X104.9Y-28.29
X107.44Y-28.29
X109.98Y-28.29
T6
X23.94Y-40.16
X23.94Y-62.66
X47.06Y-45.59
X52.06Y-45.59
X107.71Y-35.15
X107.71Y-42.65
X109.07Y-56.91
X109.07Y-64.41
T7
X7.78Y-27.96
X7.78Y-34.98
X7.78Y-46.57
X7.78Y-53.75
X7.78Y-65.61
X7.78Y-77.68
X7.78Y-84.32
X7.78Y-96.56
X22.2Y-110.98
X23.94Y-77.42
X23.94Y-99.92
X35.96Y-110.98
X46.51Y-110.98
X52.77Y-77.42
X52.77Y-99.92
X57.07Y-110.98
X67.95Y-110.98
X69.9Y-77.42
X69.9Y-99.92
X78.34Y-110.98
X87.31Y-77.42
X87.31Y-99.92
X131.92Y-22.3
X131.92Y-31.77
X131.92Y-41.34
X131.92Y-53.37
X131.92Y-63.27
X131.92Y-72.79
X131.92Y-86.22
X131.92Y-95.53
M30
