%TF.GenerationSoftware,KiCad,Pcbnew,10.0.2*%
%TF.CreationDate,2026-10-07T08:59:10+02:00*%
%TF.ProjectId,TR-808PSU_Rev0.1,54522d38-3038-4505-9355-5f526576302e,rev?*%
%TF.SameCoordinates,Original*%
%TF.FileFunction,Copper,L2,Bot*%
%TF.FilePolarity,Positive*%
%FSLAX46Y46*%
G04 Gerber Fmt 4.6, Leading zero omitted, Abs format (unit mm)*
G04 Created by KiCad (PCBNEW 10.0.2) date 2026-10-07 08:59:10*
%MOMM*%
%LPD*%
G01*
G04 APERTURE LIST*
G04 Aperture macros list*
%AMRoundRect*
0 Rectangle with rounded corners*
0 $1 Rounding radius*
0 $2 $3 $4 $5 $6 $7 $8 $9 X,Y pos of 4 corners*
0 Add a 4 corners polygon primitive as box body*
4,1,4,$2,$3,$4,$5,$6,$7,$8,$9,$2,$3,0*
0 Add four circle primitives for the rounded corners*
1,1,$1+$1,$2,$3*
1,1,$1+$1,$4,$5*
1,1,$1+$1,$6,$7*
1,1,$1+$1,$8,$9*
0 Add four rect primitives between the rounded corners*
20,1,$1+$1,$2,$3,$4,$5,0*
20,1,$1+$1,$4,$5,$6,$7,0*
20,1,$1+$1,$6,$7,$8,$9,0*
20,1,$1+$1,$8,$9,$2,$3,0*%
G04 Aperture macros list end*
%TA.AperFunction,ComponentPad*%
%ADD10RoundRect,0.850000X-1.350000X-0.850000X1.350000X-0.850000X1.350000X0.850000X-1.350000X0.850000X0*%
%TD*%
%TA.AperFunction,ComponentPad*%
%ADD11RoundRect,0.250000X-0.550000X0.550000X-0.550000X-0.550000X0.550000X-0.550000X0.550000X0.550000X0*%
%TD*%
%TA.AperFunction,ComponentPad*%
%ADD12C,1.600000*%
%TD*%
%TA.AperFunction,ComponentPad*%
%ADD13RoundRect,0.250001X-0.949999X-0.949999X0.949999X-0.949999X0.949999X0.949999X-0.949999X0.949999X0*%
%TD*%
%TA.AperFunction,ComponentPad*%
%ADD14C,2.400000*%
%TD*%
%TA.AperFunction,ComponentPad*%
%ADD15O,4.000000X5.000000*%
%TD*%
%TA.AperFunction,ComponentPad*%
%ADD16C,2.000000*%
%TD*%
%TA.AperFunction,ComponentPad*%
%ADD17RoundRect,0.250000X-0.750000X-0.750000X0.750000X-0.750000X0.750000X0.750000X-0.750000X0.750000X0*%
%TD*%
%TA.AperFunction,ComponentPad*%
%ADD18R,2.000000X2.000000*%
%TD*%
%TA.AperFunction,ComponentPad*%
%ADD19O,2.000000X2.000000*%
%TD*%
%TA.AperFunction,ComponentPad*%
%ADD20RoundRect,0.250001X-0.949999X0.949999X-0.949999X-0.949999X0.949999X-0.949999X0.949999X0.949999X0*%
%TD*%
%TA.AperFunction,ComponentPad*%
%ADD21R,1.905000X2.000000*%
%TD*%
%TA.AperFunction,ComponentPad*%
%ADD22O,1.905000X2.000000*%
%TD*%
%TA.AperFunction,ComponentPad*%
%ADD23RoundRect,0.250000X-0.550000X-0.550000X0.550000X-0.550000X0.550000X0.550000X-0.550000X0.550000X0*%
%TD*%
%TA.AperFunction,ViaPad*%
%ADD24C,0.560000*%
%TD*%
%TA.AperFunction,Conductor*%
%ADD25C,1.000000*%
%TD*%
%TA.AperFunction,Conductor*%
%ADD26C,0.600000*%
%TD*%
%TA.AperFunction,Conductor*%
%ADD27C,0.500000*%
%TD*%
G04 APERTURE END LIST*
D10*
%TO.P,P22,1*%
%TO.N,/+15V*%
X131920000Y-22300000D03*
%TD*%
D11*
%TO.P,D3,1*%
%TO.N,/RAMV*%
X120570000Y-85710000D03*
D12*
%TO.P,D3,2*%
%TO.N,/+5V*%
X120570000Y-95870000D03*
%TD*%
D13*
%TO.P,C3,1*%
%TO.N,/RAW5*%
X47460000Y-45190000D03*
D14*
%TO.P,C3,2*%
%TO.N,/GND5*%
X52460000Y-45190000D03*
%TD*%
D15*
%TO.P,F1,1*%
%TO.N,/SW_A*%
X23940000Y-77420000D03*
%TO.P,F1,2*%
%TO.N,/PRI_8*%
X23940000Y-99920000D03*
%TD*%
D10*
%TO.P,P15,1*%
%TO.N,/GND5*%
X131920000Y-95530000D03*
%TD*%
D12*
%TO.P,R1,1*%
%TO.N,/VB2*%
X99870000Y-70160000D03*
%TO.P,R1,2*%
%TO.N,/RAW15N*%
X99870000Y-62540000D03*
%TD*%
%TO.P,R5,1*%
%TO.N,/COL2*%
X92830000Y-57290000D03*
%TO.P,R5,2*%
%TO.N,/-15V*%
X92830000Y-47130000D03*
%TD*%
D10*
%TO.P,P21,1*%
%TO.N,/GND15*%
X131920000Y-31770000D03*
%TD*%
%TO.P,P17,1*%
%TO.N,/RAMV*%
X131920000Y-72790000D03*
%TD*%
D16*
%TO.P,C4,1*%
%TO.N,/RAW5*%
X43870000Y-56250000D03*
%TO.P,C4,2*%
%TO.N,/GND5*%
X51370000Y-56250000D03*
%TD*%
D14*
%TO.P,C1,1*%
%TO.N,/SW_A*%
X23740000Y-65660000D03*
%TO.P,C1,2*%
%TO.N,/SW_B*%
X23740000Y-43160000D03*
%TD*%
D17*
%TO.P,C11,1*%
%TO.N,/GND15*%
X82040000Y-30260000D03*
D16*
%TO.P,C11,2*%
%TO.N,Net-(C11-Pad2)*%
X87040000Y-30260000D03*
%TD*%
D10*
%TO.P,P12,1*%
%TO.N,/AC15_RAW_A*%
X57070000Y-110980000D03*
%TD*%
D16*
%TO.P,C2,1*%
%TO.N,/+5V*%
X38520000Y-32440000D03*
%TO.P,C2,2*%
%TO.N,/GND5*%
X48520000Y-32440000D03*
%TD*%
D18*
%TO.P,D2,1*%
%TO.N,/RAW15P*%
X63810000Y-65050000D03*
D19*
%TO.P,D2,2*%
%TO.N,/AC15_A*%
X63810000Y-70130000D03*
%TO.P,D2,3*%
%TO.N,/RAW15N*%
X68890000Y-70130000D03*
%TO.P,D2,4*%
%TO.N,/AC15_B*%
X68890000Y-65050000D03*
%TD*%
D15*
%TO.P,F4,1*%
%TO.N,/AC15_RAW_B*%
X87310000Y-77420000D03*
%TO.P,F4,2*%
%TO.N,/AC15_B*%
X87310000Y-99920000D03*
%TD*%
D20*
%TO.P,C12,1*%
%TO.N,/GND15*%
X107510000Y-35150000D03*
D14*
%TO.P,C12,2*%
%TO.N,/RAW15N*%
X107510000Y-42650000D03*
%TD*%
D12*
%TO.P,C8,1*%
%TO.N,/COMP2*%
X81820000Y-45040000D03*
%TO.P,C8,2*%
%TO.N,/GND15*%
X84320000Y-45040000D03*
%TD*%
%TO.P,R7,1*%
%TO.N,/RAW15P*%
X52750000Y-26440000D03*
%TO.P,R7,2*%
%TO.N,/VB1*%
X62910000Y-26440000D03*
%TD*%
D16*
%TO.P,C5,1*%
%TO.N,/+15V*%
X68570000Y-38520000D03*
%TO.P,C5,2*%
%TO.N,/GND15*%
X76070000Y-38520000D03*
%TD*%
%TO.P,C9,1*%
%TO.N,/GND15*%
X92700000Y-69660000D03*
%TO.P,C9,2*%
%TO.N,/VB2*%
X92700000Y-62160000D03*
%TD*%
D10*
%TO.P,P18,1*%
%TO.N,/GND5*%
X131920000Y-63270000D03*
%TD*%
%TO.P,P9,1*%
%TO.N,Net-(P9-Pad1)*%
X22200000Y-110980000D03*
%TD*%
D21*
%TO.P,IC1,1*%
%TO.N,/RAW5*%
X32060000Y-28690000D03*
D22*
%TO.P,IC1,2*%
%TO.N,/GND5*%
X34600000Y-28690000D03*
%TO.P,IC1,3*%
%TO.N,/+5V*%
X37140000Y-28690000D03*
%TD*%
D12*
%TO.P,R6,1*%
%TO.N,Net-(C11-Pad2)*%
X94390000Y-36720000D03*
%TO.P,R6,2*%
%TO.N,/-15V*%
X94390000Y-29100000D03*
%TD*%
D10*
%TO.P,P10,1*%
%TO.N,/AC5_RAW*%
X35960000Y-110980000D03*
%TD*%
%TO.P,P8,1*%
%TO.N,/PRI_8*%
X7780000Y-96560000D03*
%TD*%
%TO.P,P19,1*%
%TO.N,/+5V*%
X131920000Y-53370000D03*
%TD*%
%TO.P,P20,1*%
%TO.N,/-15V*%
X131920000Y-41340000D03*
%TD*%
%TO.P,P11,1*%
%TO.N,/AC5_B*%
X46510000Y-110980000D03*
%TD*%
D11*
%TO.P,D4,1*%
%TO.N,/RAMV*%
X125160000Y-85310000D03*
D12*
%TO.P,D4,2*%
%TO.N,/BAT_P*%
X125160000Y-95470000D03*
%TD*%
%TO.P,R4,1*%
%TO.N,/ADJ*%
X81580000Y-42500000D03*
%TO.P,R4,2*%
%TO.N,/GND15*%
X91740000Y-42500000D03*
%TD*%
D10*
%TO.P,P7,1*%
%TO.N,/SW_B*%
X7780000Y-84320000D03*
%TD*%
D16*
%TO.P,C6,1*%
%TO.N,/GND15*%
X81980000Y-38120000D03*
%TO.P,C6,2*%
%TO.N,/-15V*%
X89480000Y-38120000D03*
%TD*%
D12*
%TO.P,R3,1*%
%TO.N,/+15V*%
X69110000Y-42500000D03*
%TO.P,R3,2*%
%TO.N,/ADJ*%
X79270000Y-42500000D03*
%TD*%
D16*
%TO.P,C10,1*%
%TO.N,/VB1*%
X74240000Y-69570000D03*
%TO.P,C10,2*%
%TO.N,/GND15*%
X74240000Y-62070000D03*
%TD*%
D10*
%TO.P,P4,1*%
%TO.N,/MAINS_A*%
X7780000Y-53750000D03*
%TD*%
%TO.P,P3,1*%
%TO.N,/MAINS_A*%
X7780000Y-46570000D03*
%TD*%
%TO.P,P16,1*%
%TO.N,/BAT_P*%
X131920000Y-86220000D03*
%TD*%
%TO.P,P1,1*%
%TO.N,/MAINS_B*%
X7780000Y-27960000D03*
%TD*%
D21*
%TO.P,Q1,1*%
%TO.N,/VB1*%
X68890000Y-26490000D03*
D22*
%TO.P,Q1,2*%
%TO.N,/COL1*%
X71430000Y-26490000D03*
%TO.P,Q1,3*%
%TO.N,/RAW15P*%
X73970000Y-26490000D03*
%TD*%
D12*
%TO.P,C7,1*%
%TO.N,/COMP1*%
X74170000Y-46840000D03*
%TO.P,C7,2*%
%TO.N,/GND15*%
X79170000Y-46840000D03*
%TD*%
D18*
%TO.P,D1,1*%
%TO.N,/RAW5*%
X42880000Y-62650000D03*
D19*
%TO.P,D1,2*%
%TO.N,Net-(D1-Pad2)*%
X42880000Y-67730000D03*
%TO.P,D1,3*%
%TO.N,/GND5*%
X47960000Y-67730000D03*
%TO.P,D1,4*%
%TO.N,/AC5_B*%
X47960000Y-62650000D03*
%TD*%
D12*
%TO.P,R2,1*%
%TO.N,/COL1*%
X68400000Y-56110000D03*
%TO.P,R2,2*%
%TO.N,/+15V*%
X68400000Y-45950000D03*
%TD*%
D10*
%TO.P,P6,1*%
%TO.N,/SW_B*%
X7780000Y-77680000D03*
%TD*%
D21*
%TO.P,Q2,1*%
%TO.N,/VB2*%
X105300000Y-27290000D03*
D22*
%TO.P,Q2,2*%
%TO.N,/COL2*%
X107840000Y-27290000D03*
%TO.P,Q2,3*%
%TO.N,/RAW15N*%
X110380000Y-27290000D03*
%TD*%
D23*
%TO.P,IC2,1*%
%TO.N,/GND15*%
X80040000Y-51150000D03*
D12*
%TO.P,IC2,2*%
%TO.N,/ADJ*%
X80040000Y-53690000D03*
%TO.P,IC2,3*%
%TO.N,/COMP1*%
X80040000Y-56230000D03*
%TO.P,IC2,4*%
%TO.N,/+15V*%
X80040000Y-58770000D03*
%TO.P,IC2,5*%
%TO.N,/COL1*%
X80040000Y-61310000D03*
%TO.P,IC2,6*%
%TO.N,unconnected-(IC2-NC-Pad6)*%
X80040000Y-63850000D03*
%TO.P,IC2,7*%
%TO.N,/VB1*%
X80040000Y-66390000D03*
%TO.P,IC2,8*%
%TO.N,/VB2*%
X87660000Y-66390000D03*
%TO.P,IC2,9*%
%TO.N,unconnected-(IC2-NC-Pad9)*%
X87660000Y-63850000D03*
%TO.P,IC2,10*%
%TO.N,/COL2*%
X87660000Y-61310000D03*
%TO.P,IC2,11*%
%TO.N,/-15V*%
X87660000Y-58770000D03*
%TO.P,IC2,12*%
%TO.N,/COMP2*%
X87660000Y-56230000D03*
%TO.P,IC2,13*%
%TO.N,unconnected-(IC2-NC-Pad13)*%
X87660000Y-53690000D03*
%TO.P,IC2,14*%
%TO.N,unconnected-(IC2-VOLTAGE_ADJUST-Pad14)*%
X87660000Y-51150000D03*
%TD*%
D20*
%TO.P,C13,1*%
%TO.N,/RAW15P*%
X108470000Y-55310000D03*
D14*
%TO.P,C13,2*%
%TO.N,/GND15*%
X108470000Y-62810000D03*
%TD*%
D11*
%TO.P,C16,1*%
%TO.N,/+5V*%
X122270000Y-56920000D03*
D12*
%TO.P,C16,2*%
%TO.N,/GND5*%
X122270000Y-59420000D03*
%TD*%
D10*
%TO.P,P14,1*%
%TO.N,/AC15_RAW_B*%
X78340000Y-110980000D03*
%TD*%
%TO.P,P13,1*%
%TO.N,/GND15*%
X67950000Y-110980000D03*
%TD*%
D15*
%TO.P,F2,1*%
%TO.N,/AC5_RAW*%
X52770000Y-77420000D03*
%TO.P,F2,2*%
%TO.N,Net-(D1-Pad2)*%
X52770000Y-99920000D03*
%TD*%
D10*
%TO.P,P2,1*%
%TO.N,/MAINS_B*%
X7780000Y-34980000D03*
%TD*%
D11*
%TO.P,C15,1*%
%TO.N,/GND15*%
X122670000Y-37160000D03*
D12*
%TO.P,C15,2*%
%TO.N,/-15V*%
X122670000Y-39660000D03*
%TD*%
D11*
%TO.P,C14,1*%
%TO.N,/+15V*%
X122710000Y-26420000D03*
D12*
%TO.P,C14,2*%
%TO.N,/GND15*%
X122710000Y-28920000D03*
%TD*%
D10*
%TO.P,P5,1*%
%TO.N,/SW_A*%
X7780000Y-65610000D03*
%TD*%
D15*
%TO.P,F3,1*%
%TO.N,/AC15_RAW_A*%
X69900000Y-77420000D03*
%TO.P,F3,2*%
%TO.N,/AC15_A*%
X69900000Y-99920000D03*
%TD*%
D24*
%TO.N,/GND5*%
X97155000Y-67310000D03*
X60325000Y-56515000D03*
%TO.N,/-15V*%
X106680000Y-39370000D03*
%TO.N,/GND15*%
X76200000Y-81915000D03*
X78740000Y-68580000D03*
%TO.N,/AC15_A*%
X63500000Y-85725000D03*
%TO.N,/COMP2*%
X81915000Y-47625000D03*
%TO.N,Net-(D1-Pad2)*%
X47625000Y-99695000D03*
%TD*%
%TO.N,/+15V*%
D25*
X79180000Y-8255000D02*
X125290000Y-8255000D01*
X69312200Y-50262200D02*
X77372800Y-58322800D01*
X125095000Y-23094500D02*
X125095000Y-22860000D01*
X78105000Y-28174500D02*
X78105000Y-8060000D01*
X125418900Y-8566200D02*
X125406100Y-8578900D01*
X78416200Y-7931200D02*
X78428900Y-7943900D01*
X125095000Y-22860000D02*
X125107700Y-22847300D01*
X125095000Y-23094500D02*
X125095000Y-22860000D01*
X125095000Y-9330000D02*
X125095000Y-22860000D01*
X125107700Y-22847300D02*
G75*
G02*
X126610100Y-22225039I1502200J-1502100D01*
G01*
X78428900Y-7943900D02*
G75*
G03*
X79180000Y-8255011I751300J751600D01*
G01*
X77372800Y-58322800D02*
G75*
G03*
X79140500Y-59055005I1767700J1767700D01*
G01*
X124362800Y-24862200D02*
G75*
G03*
X125095005Y-23094500I-1767700J1767700D01*
G01*
X77372800Y-29942200D02*
G75*
G03*
X78105005Y-28174500I-1767700J1767700D01*
G01*
X125406100Y-8578900D02*
G75*
G03*
X125094989Y-9330000I751600J-751300D01*
G01*
X124362800Y-24862200D02*
G75*
G03*
X125095005Y-23094500I-1767700J1767700D01*
G01*
X69202300Y-42532300D02*
G75*
G02*
X68580039Y-41029900I1502100J1502200D01*
G01*
X68580000Y-48494500D02*
G75*
G03*
X69312204Y-50262196I2499900J0D01*
G01*
X78105000Y-8060000D02*
G75*
G02*
X78416135Y-7931265I182200J0D01*
G01*
X125290000Y-8255000D02*
G75*
G02*
X125418906Y-8566206I0J-182300D01*
G01*
%TO.N,/RAMV*%
X131347800Y-78837200D02*
G75*
G03*
X132080005Y-77069500I-1767700J1767700D01*
G01*
%TO.N,/+5V*%
X118745000Y-61360500D02*
X118745000Y-94018100D01*
X119477200Y-59592800D02*
G75*
G03*
X118744995Y-61360500I1767700J-1767700D01*
G01*
X38087300Y-31737300D02*
G75*
G02*
X37465039Y-30234900I1502100J1502200D01*
G01*
X118745000Y-94018100D02*
G75*
G03*
X120611900Y-95885000I1866900J0D01*
G01*
X126267800Y-53437200D02*
G75*
G02*
X128035500Y-52704995I1767700J-1767700D01*
G01*
%TO.N,/RAW5*%
X40542800Y-44352800D02*
X32482200Y-36292200D01*
X46892800Y-53437200D02*
G75*
G03*
X47625005Y-51669500I-1767700J1767700D01*
G01*
X42310500Y-45085000D02*
G75*
G02*
X40542804Y-44352796I0J2499900D01*
G01*
X43802300Y-56527700D02*
G75*
G03*
X43180039Y-58030100I1502100J-1502200D01*
G01*
X32482200Y-36292200D02*
G75*
G02*
X31749995Y-34524500I1767700J1767700D01*
G01*
%TO.N,/GND5*%
X65405000Y-63201600D02*
X65405000Y-63163400D01*
X60325000Y-56527700D02*
X60325000Y-56515000D01*
X71755000Y-71132700D02*
X71755000Y-71107300D01*
D26*
X134620000Y-66285100D02*
X134620000Y-89134500D01*
D25*
X133887800Y-90902200D02*
X133447200Y-91342800D01*
X36097800Y-34192800D02*
X35022200Y-33117200D01*
X91674500Y-71755000D02*
X72377300Y-71755000D01*
X71315000Y-70045000D02*
X66065000Y-64795000D01*
X64745000Y-61570000D02*
X60765000Y-57590000D01*
D27*
X97155000Y-67310000D02*
X93442200Y-71022800D01*
D25*
X44684500Y-34925000D02*
X37865500Y-34925000D01*
X65405000Y-63163400D02*
G75*
G03*
X64745024Y-61569976I-2253300J100D01*
G01*
X134620000Y-89134500D02*
G75*
G02*
X133887796Y-90902196I-2499900J0D01*
G01*
X51435000Y-63734500D02*
G75*
G02*
X50702796Y-65502196I-2499900J0D01*
G01*
X37865500Y-34925000D02*
G75*
G02*
X36097804Y-34192796I0J2499900D01*
G01*
X71755000Y-71107300D02*
G75*
G03*
X71315011Y-70044989I-1502900J-200D01*
G01*
X133997700Y-64782700D02*
G75*
G02*
X134619961Y-66285100I-1502100J-1502200D01*
G01*
X133447200Y-91342800D02*
G75*
G03*
X132714995Y-93110500I1767700J-1767700D01*
G01*
X72377300Y-71755000D02*
G75*
G02*
X71755000Y-71132700I100J622400D01*
G01*
D26*
X93442200Y-71022800D02*
G75*
G02*
X91674500Y-71755005I-1767700J1767700D01*
G01*
D25*
X48992200Y-41372200D02*
G75*
G02*
X48259995Y-39604500I1767700J1767700D01*
G01*
X35022200Y-33117200D02*
G75*
G02*
X34289995Y-31349500I1767700J1767700D01*
G01*
X66065000Y-64795000D02*
G75*
G02*
X65405034Y-63201600I1593300J1593300D01*
G01*
X46452200Y-34192800D02*
G75*
G02*
X44684500Y-34925005I-1767700J1767700D01*
G01*
X52607800Y-55342200D02*
G75*
G03*
X53340005Y-53574500I-1767700J1767700D01*
G01*
X60765000Y-57590000D02*
G75*
G02*
X60325015Y-56527700I1062900J1062500D01*
G01*
X125632800Y-62767800D02*
G75*
G03*
X127400500Y-63500005I1767700J1767700D01*
G01*
%TO.N,/PRI_8*%
X22957200Y-98522200D02*
G75*
G03*
X21189500Y-97789995I-1767700J-1767700D01*
G01*
%TO.N,/VB2*%
X96920500Y-66040000D02*
X97544900Y-66040000D01*
X101697200Y-29747800D02*
X103407800Y-28037200D01*
X99047300Y-66662300D02*
X99072700Y-66687700D01*
X100965000Y-52939500D02*
X100965000Y-31515500D01*
X100232800Y-54707200D02*
G75*
G03*
X100965005Y-52939500I-1767700J1767700D01*
G01*
X100965000Y-31515500D02*
G75*
G02*
X101697204Y-29747804I2499900J0D01*
G01*
X103407800Y-28037200D02*
G75*
G02*
X105175500Y-27304995I1767700J-1767700D01*
G01*
X99072700Y-66687700D02*
G75*
G02*
X99694961Y-68190100I-1502100J-1502200D01*
G01*
X95152800Y-65307800D02*
G75*
G03*
X96920500Y-66040005I1767700J1767700D01*
G01*
X88705000Y-66235000D02*
G75*
G02*
X87642700Y-66674985I-1062500J1062900D01*
G01*
X97544900Y-66040000D02*
G75*
G02*
X99047328Y-66662272I200J-2124400D01*
G01*
%TO.N,/RAW15N*%
X99449900Y-73025000D02*
X71080000Y-73025000D01*
X101612700Y-61582300D02*
X101405000Y-61790000D01*
X104775000Y-38969500D02*
X104775000Y-32670700D01*
X102235000Y-49930500D02*
X102235000Y-60079900D01*
X108682200Y-30382800D02*
X109757800Y-29307200D01*
X106330700Y-31115000D02*
X106914500Y-31115000D01*
X100977700Y-72377300D02*
X100952300Y-72402700D01*
X101600000Y-65170500D02*
X101600000Y-70874900D01*
X101600000Y-70874900D02*
G75*
G02*
X100977728Y-72377328I-2124400J-200D01*
G01*
X104775000Y-32670700D02*
G75*
G02*
X106330700Y-31115000I1555900J-200D01*
G01*
X100952300Y-72402700D02*
G75*
G02*
X99449900Y-73024961I-1502200J1502100D01*
G01*
X105507200Y-40737200D02*
G75*
G02*
X104774995Y-38969500I1767700J1767700D01*
G01*
X102967200Y-48162800D02*
G75*
G03*
X102234995Y-49930500I1767700J-1767700D01*
G01*
X106914500Y-31115000D02*
G75*
G03*
X108682196Y-30382796I0J2499900D01*
G01*
X101405000Y-61790000D02*
G75*
G02*
X100342700Y-62229985I-1062500J1062900D01*
G01*
X71080000Y-73025000D02*
G75*
G02*
X68580000Y-70525000I-100J2499900D01*
G01*
X100867800Y-63402800D02*
G75*
G02*
X101600005Y-65170500I-1767700J-1767700D01*
G01*
X109757800Y-29307200D02*
G75*
G03*
X110490005Y-27539500I-1767700J1767700D01*
G01*
X102235000Y-60079900D02*
G75*
G02*
X101612728Y-61582328I-2124400J-200D01*
G01*
%TO.N,/COL2*%
X103905500Y-24765000D02*
X105460800Y-24765000D01*
X99695000Y-48494500D02*
X99695000Y-28975500D01*
X100427200Y-27207800D02*
X102137800Y-25497200D01*
X99695000Y-28975500D02*
G75*
G02*
X100427204Y-27207804I2499900J0D01*
G01*
X105460800Y-24765000D02*
G75*
G02*
X107950000Y-27254200I-100J-2489300D01*
G01*
X98962800Y-50262200D02*
G75*
G03*
X99695005Y-48494500I-1767700J1767700D01*
G01*
X102137800Y-25497200D02*
G75*
G02*
X103905500Y-24764995I1767700J-1767700D01*
G01*
%TO.N,/-15V*%
X121039900Y-39370000D02*
X106680000Y-39370000D01*
X93345000Y-42427800D02*
X93345000Y-45280000D01*
X93345000Y-45280000D02*
G75*
G02*
X93033896Y-46031196I-1063200J300D01*
G01*
X122542300Y-39992300D02*
G75*
G03*
X121039900Y-39370039I-1502200J-1502100D01*
G01*
X123092800Y-40542800D02*
G75*
G03*
X124860500Y-41275005I1767700J1767700D01*
G01*
X93247800Y-34387200D02*
G75*
G03*
X93980005Y-32619500I-1767700J1767700D01*
G01*
X92978900Y-41543900D02*
G75*
G02*
X93345018Y-42427800I-884400J-884100D01*
G01*
X93021100Y-46043800D02*
G75*
G03*
X92709994Y-46795000I752100J-751500D01*
G01*
%TO.N,/GND15*%
X115570000Y-25634500D02*
X115570000Y-20280000D01*
X76200000Y-81915000D02*
X76200000Y-101834500D01*
X113070000Y-17780000D02*
X95015500Y-17780000D01*
X78740000Y-68580000D02*
X79277800Y-69117800D01*
X83185000Y-42779500D02*
X83185000Y-39370000D01*
X83185000Y-39370000D02*
X85627800Y-41812800D01*
X82990000Y-39175000D02*
G75*
G02*
X82550015Y-38112700I1062900J1062500D01*
G01*
X83917200Y-44547200D02*
G75*
G02*
X83184995Y-42779500I1767700J1767700D01*
G01*
X124997800Y-31017800D02*
G75*
G03*
X126765500Y-31750005I1767700J1767700D01*
G01*
D26*
X82149500Y-46355000D02*
G75*
G03*
X83917196Y-45622796I0J2499900D01*
G01*
D25*
X81902300Y-38112700D02*
G75*
G02*
X80399900Y-38734961I-1502200J1502100D01*
G01*
X115570000Y-20280000D02*
G75*
G03*
X113070000Y-17780000I-2499900J100D01*
G01*
X95015500Y-17780000D02*
G75*
G03*
X93247804Y-18512204I0J-2499900D01*
G01*
X76200000Y-101834500D02*
G75*
G02*
X75467796Y-103602196I-2499900J0D01*
G01*
X121382200Y-36292200D02*
G75*
G03*
X119614500Y-35559995I-1767700J-1767700D01*
G01*
X85627800Y-41812800D02*
G75*
G03*
X87395500Y-42545005I1767700J1767700D01*
G01*
X114837800Y-27402200D02*
G75*
G03*
X115570005Y-25634500I-1767700J1767700D01*
G01*
X79997300Y-51422300D02*
G75*
G02*
X79375039Y-49919900I1502100J1502200D01*
G01*
X79277800Y-69117800D02*
G75*
G03*
X81045500Y-69850005I1767700J1767700D01*
G01*
X86897800Y-43277200D02*
G75*
G02*
X88665500Y-42544995I1767700J-1767700D01*
G01*
%TO.N,/SW_B*%
X26670000Y-47390500D02*
X26670000Y-83225000D01*
X26670000Y-83225000D02*
G75*
G02*
X24170000Y-85725000I-2499900J-100D01*
G01*
X25937800Y-45622800D02*
G75*
G02*
X26670005Y-47390500I-1767700J-1767700D01*
G01*
%TO.N,/RAW15P*%
X71509900Y-24130000D02*
X56280500Y-24130000D01*
X53987700Y-34302700D02*
X53962300Y-34277300D01*
X73037700Y-24777700D02*
X73012300Y-24752300D01*
X54610000Y-54844500D02*
X54610000Y-35805100D01*
X69449500Y-22225000D02*
X58185500Y-22225000D01*
X72927800Y-24667800D02*
X71217200Y-22957200D01*
X58185500Y-22225000D02*
G75*
G03*
X56417804Y-22957204I0J-2499900D01*
G01*
X56280500Y-24130000D02*
G75*
G03*
X54512804Y-24862204I0J-2499900D01*
G01*
X71217200Y-22957200D02*
G75*
G03*
X69449500Y-22224995I-1767700J-1767700D01*
G01*
X55342200Y-56612200D02*
G75*
G02*
X54609995Y-54844500I1767700J1767700D01*
G01*
X73660000Y-26280100D02*
G75*
G03*
X73037728Y-24777672I-2124400J200D01*
G01*
X54610000Y-35805100D02*
G75*
G03*
X53987728Y-34302672I-2124400J200D01*
G01*
X53962300Y-34277300D02*
G75*
G02*
X53340039Y-32774900I1502100J1502200D01*
G01*
X73660000Y-26435500D02*
G75*
G03*
X72927796Y-24667804I-2499900J0D01*
G01*
X73012300Y-24752300D02*
G75*
G03*
X71509900Y-24130039I-1502200J-1502100D01*
G01*
%TO.N,/AC15_A*%
X63500000Y-85725000D02*
X69117800Y-91342800D01*
X69117800Y-91342800D02*
G75*
G02*
X69850005Y-93110500I-1767700J-1767700D01*
G01*
%TO.N,/AC15_RAW_B*%
X78837200Y-84992800D02*
G75*
G03*
X78104995Y-86760500I1767700J-1767700D01*
G01*
%TO.N,/COMP2*%
X81915000Y-47625000D02*
X81915000Y-49764500D01*
X81915000Y-49764500D02*
G75*
G03*
X82647204Y-51532196I2499900J0D01*
G01*
%TO.N,/VB1*%
X73562800Y-67212800D02*
X62852300Y-56502300D01*
X62852300Y-55257700D02*
X62877700Y-55232300D01*
X62852300Y-56502300D02*
G75*
G02*
X62852300Y-55257700I622200J622300D01*
G01*
X74295000Y-68980500D02*
G75*
G03*
X73562796Y-67212804I-2499900J0D01*
G01*
X76737800Y-67407200D02*
G75*
G02*
X78505500Y-66674995I1767700J-1767700D01*
G01*
X62877700Y-55232300D02*
G75*
G03*
X63499961Y-53729900I-1502100J1502200D01*
G01*
%TO.N,/AC5_RAW*%
X49530000Y-85490500D02*
X49530000Y-113050000D01*
X48280000Y-114300000D02*
X40405500Y-114300000D01*
X50262200Y-83722800D02*
G75*
G03*
X49529995Y-85490500I1767700J-1767700D01*
G01*
X40405500Y-114300000D02*
G75*
G02*
X38637804Y-113567796I0J2499900D01*
G01*
X49530000Y-113050000D02*
G75*
G02*
X48280000Y-114300000I-1249900J-100D01*
G01*
%TO.N,/BAT_P*%
X129442800Y-90902200D02*
G75*
G03*
X130175005Y-89134500I-1767700J1767700D01*
G01*
%TO.N,/ADJ*%
X77470000Y-50399500D02*
X77470000Y-43620000D01*
X77781100Y-42868900D02*
X77793800Y-42856100D01*
X77793800Y-42856100D02*
G75*
G02*
X78545000Y-42544994I751500J-752100D01*
G01*
X77470000Y-43620000D02*
G75*
G02*
X77781108Y-42868908I1062700J-200D01*
G01*
X78202200Y-52167200D02*
G75*
G02*
X77469995Y-50399500I1767700J1767700D01*
G01*
%TO.N,/COL1*%
X76102800Y-60227800D02*
X72487200Y-56612200D01*
X66675000Y-52939500D02*
X66675000Y-32150500D01*
X67407200Y-30382800D02*
X67847800Y-29942200D01*
X69615500Y-29210000D02*
X69875400Y-29210000D01*
X67847800Y-29942200D02*
G75*
G02*
X69615500Y-29209995I1767700J-1767700D01*
G01*
X66675000Y-32150500D02*
G75*
G02*
X67407204Y-30382804I2499900J0D01*
G01*
X67407200Y-54707200D02*
G75*
G02*
X66674995Y-52939500I1767700J1767700D01*
G01*
X69875400Y-29210000D02*
G75*
G03*
X71120000Y-27965400I100J1244500D01*
G01*
X72487200Y-56612200D02*
G75*
G03*
X70719500Y-55879995I-1767700J-1767700D01*
G01*
X77870500Y-60960000D02*
G75*
G02*
X76102804Y-60227796I0J2499900D01*
G01*
%TO.N,/COMP1*%
X74295000Y-49764500D02*
G75*
G03*
X75027204Y-51532196I2499900J0D01*
G01*
%TO.N,Net-(D1-Pad2)*%
X47625000Y-73425500D02*
X47625000Y-99695000D01*
X46892800Y-71657800D02*
G75*
G02*
X47625005Y-73425500I-1767700J-1767700D01*
G01*
%TO.N,/+15V*%
X131920000Y-22300000D02*
X126610100Y-22225000D01*
%TO.N,/RAMV*%
X120570000Y-85710000D02*
X125095000Y-85090000D01*
%TO.N,/RAW5*%
X47460000Y-45190000D02*
X42310500Y-45085000D01*
X47460000Y-45190000D02*
X47625000Y-51669500D01*
%TO.N,/GND5*%
X52460000Y-45190000D02*
X48992200Y-41372200D01*
X52460000Y-45190000D02*
X53340000Y-53574500D01*
%TO.N,/SW_A*%
X23940000Y-77420000D02*
X24130000Y-66675000D01*
%TO.N,/GND5*%
X131920000Y-95530000D02*
X132715000Y-93110500D01*
%TO.N,/VB2*%
X99870000Y-70160000D02*
X99695000Y-68190100D01*
%TO.N,/RAW15N*%
X99870000Y-62540000D02*
X100867800Y-63402800D01*
%TO.N,/COL2*%
X92830000Y-57290000D02*
X98962800Y-50262200D01*
X92830000Y-57290000D02*
X87630000Y-61595000D01*
%TO.N,/GND15*%
X131920000Y-31770000D02*
X126765500Y-31750000D01*
%TO.N,/RAMV*%
X131920000Y-72790000D02*
X132080000Y-77069500D01*
%TO.N,/RAW5*%
X43870000Y-56250000D02*
X46892800Y-53437200D01*
%TO.N,/GND5*%
X51370000Y-56250000D02*
X51435000Y-63734500D01*
X51370000Y-56250000D02*
X52607800Y-55342200D01*
%TO.N,/SW_A*%
X23740000Y-65660000D02*
X7620000Y-65405000D01*
%TO.N,/SW_B*%
X23740000Y-43160000D02*
X25937800Y-45622800D01*
%TO.N,/GND15*%
X82040000Y-30260000D02*
X93247800Y-18512200D01*
X82040000Y-30260000D02*
X82550000Y-38100000D01*
X82040000Y-30260000D02*
X81915000Y-38100000D01*
%TO.N,/GND5*%
X48520000Y-32440000D02*
X46452200Y-34192800D01*
X48520000Y-32440000D02*
X48260000Y-39604500D01*
%TO.N,/RAW15P*%
X63810000Y-65050000D02*
X55342200Y-56612200D01*
%TO.N,/AC15_RAW_B*%
X87310000Y-77420000D02*
X78837200Y-84992800D01*
%TO.N,/GND15*%
X107510000Y-35150000D02*
X119614500Y-35560000D01*
X107510000Y-35150000D02*
X114837800Y-27402200D01*
%TO.N,/RAW15N*%
X107510000Y-42650000D02*
X102967200Y-48162800D01*
X107510000Y-42650000D02*
X105507200Y-40737200D01*
%TO.N,/GND15*%
X84320000Y-45040000D02*
X86897800Y-43277200D01*
%TO.N,/RAW15P*%
X52750000Y-26440000D02*
X53340000Y-32774900D01*
X52750000Y-26440000D02*
X56417800Y-22957200D01*
X52750000Y-26440000D02*
X54512800Y-24862200D01*
%TO.N,/VB1*%
X62910000Y-26440000D02*
X68580000Y-26670000D01*
X62910000Y-26440000D02*
X63500000Y-53729900D01*
%TO.N,/+15V*%
X68570000Y-38520000D02*
X68580000Y-41029900D01*
X68570000Y-38520000D02*
X77372800Y-29942200D01*
%TO.N,/GND15*%
X76070000Y-38520000D02*
X80399900Y-38735000D01*
X92700000Y-69660000D02*
X81045500Y-69850000D01*
%TO.N,/VB2*%
X92700000Y-62160000D02*
X88705000Y-66235000D01*
X92700000Y-62160000D02*
X95152800Y-65307800D01*
X92700000Y-62160000D02*
X100232800Y-54707200D01*
%TO.N,/GND5*%
X131920000Y-63270000D02*
X127400500Y-63500000D01*
%TO.N,/RAW5*%
X32060000Y-28690000D02*
X31750000Y-34524500D01*
%TO.N,/GND5*%
X34600000Y-28690000D02*
X34290000Y-31349500D01*
%TO.N,/+5V*%
X37140000Y-28690000D02*
X37465000Y-30234900D01*
%TO.N,/-15V*%
X94390000Y-29100000D02*
X93980000Y-32619500D01*
%TO.N,/AC5_RAW*%
X35960000Y-110980000D02*
X38637800Y-113567800D01*
%TO.N,/PRI_8*%
X7780000Y-96560000D02*
X21189500Y-97790000D01*
%TO.N,/+5V*%
X131920000Y-53370000D02*
X128035500Y-52705000D01*
%TO.N,/-15V*%
X131920000Y-41340000D02*
X124860500Y-41275000D01*
%TO.N,/RAMV*%
X125160000Y-85310000D02*
X131347800Y-78837200D01*
%TO.N,/BAT_P*%
X125160000Y-95470000D02*
X129442800Y-90902200D01*
%TO.N,/ADJ*%
X81580000Y-42500000D02*
X79375000Y-42545000D01*
%TO.N,/GND15*%
X91740000Y-42500000D02*
X87395500Y-42545000D01*
X91740000Y-42500000D02*
X88665500Y-42545000D01*
%TO.N,/SW_B*%
X7780000Y-84320000D02*
X24170000Y-85725000D01*
X7780000Y-84320000D02*
X8890000Y-77470000D01*
X7780000Y-84320000D02*
X7620000Y-77470000D01*
%TO.N,/GND15*%
X81980000Y-38120000D02*
X83185000Y-39370000D01*
%TO.N,/-15V*%
X89480000Y-38120000D02*
X93247800Y-34387200D01*
X89480000Y-38120000D02*
X92978900Y-41543900D01*
%TO.N,/+15V*%
X69110000Y-42500000D02*
X68580000Y-45720000D01*
%TO.N,/VB1*%
X74240000Y-69570000D02*
X76737800Y-67407200D01*
%TO.N,/MAINS_A*%
X7780000Y-53750000D02*
X7620000Y-46355000D01*
%TO.N,/BAT_P*%
X131920000Y-86220000D02*
X130175000Y-89134500D01*
%TO.N,/MAINS_B*%
X7780000Y-27960000D02*
X7620000Y-34925000D01*
%TO.N,/COL1*%
X71430000Y-26490000D02*
X71120000Y-27965400D01*
%TO.N,/COMP1*%
X74170000Y-46840000D02*
X74295000Y-49764500D01*
%TO.N,/GND15*%
D26*
X79170000Y-46840000D02*
X82149500Y-46355000D01*
D25*
X79170000Y-46840000D02*
X79375000Y-49919900D01*
%TO.N,/RAW5*%
X42880000Y-62650000D02*
X43180000Y-58030100D01*
%TO.N,Net-(D1-Pad2)*%
X42880000Y-67730000D02*
X46892800Y-71657800D01*
%TO.N,/GND5*%
X47960000Y-67730000D02*
X50702800Y-65502200D01*
%TO.N,/COL1*%
X68400000Y-56110000D02*
X70719500Y-55880000D01*
X68400000Y-56110000D02*
X67407200Y-54707200D01*
%TO.N,/+15V*%
X68400000Y-45950000D02*
X68580000Y-48494500D01*
%TO.N,/ADJ*%
X80040000Y-53690000D02*
X78202200Y-52167200D01*
%TO.N,/COMP1*%
X80040000Y-56230000D02*
X75027200Y-51532200D01*
%TO.N,/COL1*%
X80040000Y-61310000D02*
X77870500Y-60960000D01*
%TO.N,/VB1*%
X80040000Y-66390000D02*
X78505500Y-66675000D01*
%TO.N,/COMP2*%
X87660000Y-56230000D02*
X82647200Y-51532200D01*
%TO.N,/+5V*%
X122270000Y-56920000D02*
X126267800Y-53437200D01*
X122270000Y-56920000D02*
X119477200Y-59592800D01*
%TO.N,/GND5*%
X122270000Y-59420000D02*
X125632800Y-62767800D01*
%TO.N,/AC15_RAW_B*%
X78340000Y-110980000D02*
X78105000Y-86760500D01*
%TO.N,/GND15*%
X67950000Y-110980000D02*
X75467800Y-103602200D01*
%TO.N,/AC5_RAW*%
X52770000Y-77420000D02*
X50262200Y-83722800D01*
%TO.N,/GND15*%
X122670000Y-37160000D02*
X121382200Y-36292200D01*
X122670000Y-37160000D02*
X122555000Y-29210000D01*
%TO.N,/+15V*%
X122710000Y-26420000D02*
X124362800Y-24862200D01*
%TO.N,/GND15*%
X122710000Y-28920000D02*
X124997800Y-31017800D01*
%TO.N,/AC15_A*%
X69900000Y-99920000D02*
X69850000Y-93110500D01*
%TD*%
M02*
