M48
; DRILL file KiCad 10.0.2 date 2026-10-07T09:46:01
; FORMAT={-:-/ absolute / metric / decimal}
; #@! TF.CreationDate,2026-10-07T09:46:01+02:00
; #@! TF.GenerationSoftware,Kicad,Pcbnew,10.0.2
; #@! TF.FileFunction,Plated,1,2,PTH
FMAT,2
METRIC
; #@! TA.AperFunction,Plated,PTH,ViaDrill
T1C0.300
; #@! TA.AperFunction,Plated,PTH,ComponentDrill
T2C0.800
; #@! TA.AperFunction,Plated,PTH,ComponentDrill
T3C1.000
; #@! TA.AperFunction,Plated,PTH,ComponentDrill
T4C1.100
; #@! TA.AperFunction,Plated,PTH,ComponentDrill
T5C1.200
; #@! TA.AperFunction,Plated,PTH,ComponentDrill
T6C1.600
%
G90
G05
T1
X57.785Y-49.53
X73.66Y-74.295
X78.105Y-67.945
X80.645Y-85.09
X85.09Y-47.625
T2
X52.75Y-26.44
X62.91Y-26.44
X68.4Y-45.95
X68.4Y-56.11
X69.11Y-42.5
X74.17Y-46.84
X79.17Y-46.84
X79.27Y-42.5
X80.04Y-51.15
X80.04Y-53.69
X80.04Y-56.23
X80.04Y-58.77
X80.04Y-61.31
X80.04Y-63.85
X80.04Y-66.39
X81.58Y-42.5
X81.82Y-45.04
X84.32Y-45.04
X87.66Y-51.15
X87.66Y-53.69
X87.66Y-56.23
X87.66Y-58.77
X87.66Y-61.31
X87.66Y-63.85
X87.66Y-66.39
X91.74Y-42.5
X92.83Y-47.13
X92.83Y-57.29
X94.39Y-29.1
X94.39Y-36.72
X99.87Y-62.54
X99.87Y-70.16
X120.57Y-85.71
X120.57Y-95.87
X122.27Y-56.92
X122.27Y-59.42
X122.67Y-37.16
X122.67Y-39.66
X122.71Y-26.42
X122.71Y-28.92
X125.16Y-85.31
X125.16Y-95.47
T3
X38.52Y-32.44
X42.88Y-62.65
X42.88Y-67.73
X43.87Y-56.25
X47.96Y-62.65
X47.96Y-67.73
X48.52Y-32.44
X51.37Y-56.25
X63.81Y-65.05
X63.81Y-70.13
X68.57Y-38.52
X68.89Y-65.05
X68.89Y-70.13
X74.24Y-62.07
X74.24Y-69.57
X76.07Y-38.52
X81.98Y-38.12
X82.04Y-30.26
X87.04Y-30.26
X89.48Y-38.12
X92.7Y-62.16
X92.7Y-69.66
T4
X32.06Y-28.69
X34.6Y-28.69
X37.14Y-28.69
X68.89Y-26.49
X71.43Y-26.49
X73.97Y-26.49
X105.3Y-27.29
X107.84Y-27.29
X110.38Y-27.29
T5
X23.74Y-43.16
X23.74Y-65.66
X47.46Y-45.19
X52.46Y-45.19
X107.51Y-35.15
X107.51Y-42.65
X108.47Y-55.31
X108.47Y-62.81
T6
X7.78Y-27.96
X7.78Y-34.98
X7.78Y-46.57
X7.78Y-53.75
X7.78Y-65.61
X7.78Y-77.68
X7.78Y-84.32
X7.78Y-96.56
X22.2Y-110.98
X23.94Y-77.42
X23.94Y-99.92
X35.96Y-110.98
X46.51Y-110.98
X52.77Y-77.42
X52.77Y-99.92
X57.07Y-110.98
X67.95Y-110.98
X69.9Y-77.42
X69.9Y-99.92
X78.34Y-110.98
X87.31Y-77.42
X87.31Y-99.92
X131.92Y-22.3
X131.92Y-31.77
X131.92Y-41.34
X131.92Y-53.37
X131.92Y-63.27
X131.92Y-72.79
X131.92Y-86.22
X131.92Y-95.53
M30
