%TF.GenerationSoftware,KiCad,Pcbnew,10.0.2*%
%TF.CreationDate,2026-10-07T08:59:11+02:00*%
%TF.ProjectId,TR-808PSU_Rev0.1,54522d38-3038-4505-9355-5f526576302e,rev?*%
%TF.SameCoordinates,Original*%
%TF.FileFunction,Drillmap*%
%TF.FilePolarity,Positive*%
%FSLAX45Y45*%
G04 Gerber Fmt 4.5, Leading zero omitted, Abs format (unit mm)*
G04 Created by KiCad (PCBNEW 10.0.2) date 2026-10-07 08:59:11*
%MOMM*%
%LPD*%
G01*
G04 APERTURE LIST*
%ADD10C,0.100000*%
%ADD11C,0.200000*%
%ADD12C,0.110000*%
%ADD13C,0.120000*%
%ADD14C,0.160000*%
G04 APERTURE END LIST*
D10*
X0Y0D02*
X14290000Y0D01*
X0Y-11940000D02*
X0Y0D01*
X14290000Y0D02*
X14290000Y-11940000D01*
X14290000Y-11940000D02*
X0Y-11940000D01*
D11*
D10*
X4747500Y-9954500D02*
X4777500Y-9984500D01*
X4777500Y-9954500D02*
X4747500Y-9984500D01*
X6017500Y-5636500D02*
X6047500Y-5666500D01*
X6047500Y-5636500D02*
X6017500Y-5666500D01*
X6335000Y-8557500D02*
X6365000Y-8587500D01*
X6365000Y-8557500D02*
X6335000Y-8587500D01*
X7605000Y-8176500D02*
X7635000Y-8206500D01*
X7635000Y-8176500D02*
X7605000Y-8206500D01*
X7859000Y-6843000D02*
X7889000Y-6873000D01*
X7889000Y-6843000D02*
X7859000Y-6873000D01*
X8176500Y-4747500D02*
X8206500Y-4777500D01*
X8206500Y-4747500D02*
X8176500Y-4777500D01*
X9700500Y-6716000D02*
X9730500Y-6746000D01*
X9730500Y-6716000D02*
X9700500Y-6746000D01*
X10653000Y-3922000D02*
X10683000Y-3952000D01*
X10683000Y-3922000D02*
X10653000Y-3952000D01*
X5315000Y-2644000D02*
G75*
G02*
X5235000Y-2644000I-40000J0D01*
G01*
X5235000Y-2644000D02*
G75*
G02*
X5315000Y-2644000I40000J0D01*
G01*
X6331000Y-2644000D02*
G75*
G02*
X6251000Y-2644000I-40000J0D01*
G01*
X6251000Y-2644000D02*
G75*
G02*
X6331000Y-2644000I40000J0D01*
G01*
X6880000Y-4595000D02*
G75*
G02*
X6800000Y-4595000I-40000J0D01*
G01*
X6800000Y-4595000D02*
G75*
G02*
X6880000Y-4595000I40000J0D01*
G01*
X6880000Y-5611000D02*
G75*
G02*
X6800000Y-5611000I-40000J0D01*
G01*
X6800000Y-5611000D02*
G75*
G02*
X6880000Y-5611000I40000J0D01*
G01*
X6951000Y-4250000D02*
G75*
G02*
X6871000Y-4250000I-40000J0D01*
G01*
X6871000Y-4250000D02*
G75*
G02*
X6951000Y-4250000I40000J0D01*
G01*
X7457000Y-4684000D02*
G75*
G02*
X7377000Y-4684000I-40000J0D01*
G01*
X7377000Y-4684000D02*
G75*
G02*
X7457000Y-4684000I40000J0D01*
G01*
X7957000Y-4684000D02*
G75*
G02*
X7877000Y-4684000I-40000J0D01*
G01*
X7877000Y-4684000D02*
G75*
G02*
X7957000Y-4684000I40000J0D01*
G01*
X7967000Y-4250000D02*
G75*
G02*
X7887000Y-4250000I-40000J0D01*
G01*
X7887000Y-4250000D02*
G75*
G02*
X7967000Y-4250000I40000J0D01*
G01*
X8044000Y-5115000D02*
G75*
G02*
X7964000Y-5115000I-40000J0D01*
G01*
X7964000Y-5115000D02*
G75*
G02*
X8044000Y-5115000I40000J0D01*
G01*
X8044000Y-5369000D02*
G75*
G02*
X7964000Y-5369000I-40000J0D01*
G01*
X7964000Y-5369000D02*
G75*
G02*
X8044000Y-5369000I40000J0D01*
G01*
X8044000Y-5623000D02*
G75*
G02*
X7964000Y-5623000I-40000J0D01*
G01*
X7964000Y-5623000D02*
G75*
G02*
X8044000Y-5623000I40000J0D01*
G01*
X8044000Y-5877000D02*
G75*
G02*
X7964000Y-5877000I-40000J0D01*
G01*
X7964000Y-5877000D02*
G75*
G02*
X8044000Y-5877000I40000J0D01*
G01*
X8044000Y-6131000D02*
G75*
G02*
X7964000Y-6131000I-40000J0D01*
G01*
X7964000Y-6131000D02*
G75*
G02*
X8044000Y-6131000I40000J0D01*
G01*
X8044000Y-6385000D02*
G75*
G02*
X7964000Y-6385000I-40000J0D01*
G01*
X7964000Y-6385000D02*
G75*
G02*
X8044000Y-6385000I40000J0D01*
G01*
X8044000Y-6639000D02*
G75*
G02*
X7964000Y-6639000I-40000J0D01*
G01*
X7964000Y-6639000D02*
G75*
G02*
X8044000Y-6639000I40000J0D01*
G01*
X8198000Y-4250000D02*
G75*
G02*
X8118000Y-4250000I-40000J0D01*
G01*
X8118000Y-4250000D02*
G75*
G02*
X8198000Y-4250000I40000J0D01*
G01*
X8222000Y-4504000D02*
G75*
G02*
X8142000Y-4504000I-40000J0D01*
G01*
X8142000Y-4504000D02*
G75*
G02*
X8222000Y-4504000I40000J0D01*
G01*
X8472000Y-4504000D02*
G75*
G02*
X8392000Y-4504000I-40000J0D01*
G01*
X8392000Y-4504000D02*
G75*
G02*
X8472000Y-4504000I40000J0D01*
G01*
X8806000Y-5115000D02*
G75*
G02*
X8726000Y-5115000I-40000J0D01*
G01*
X8726000Y-5115000D02*
G75*
G02*
X8806000Y-5115000I40000J0D01*
G01*
X8806000Y-5369000D02*
G75*
G02*
X8726000Y-5369000I-40000J0D01*
G01*
X8726000Y-5369000D02*
G75*
G02*
X8806000Y-5369000I40000J0D01*
G01*
X8806000Y-5623000D02*
G75*
G02*
X8726000Y-5623000I-40000J0D01*
G01*
X8726000Y-5623000D02*
G75*
G02*
X8806000Y-5623000I40000J0D01*
G01*
X8806000Y-5877000D02*
G75*
G02*
X8726000Y-5877000I-40000J0D01*
G01*
X8726000Y-5877000D02*
G75*
G02*
X8806000Y-5877000I40000J0D01*
G01*
X8806000Y-6131000D02*
G75*
G02*
X8726000Y-6131000I-40000J0D01*
G01*
X8726000Y-6131000D02*
G75*
G02*
X8806000Y-6131000I40000J0D01*
G01*
X8806000Y-6385000D02*
G75*
G02*
X8726000Y-6385000I-40000J0D01*
G01*
X8726000Y-6385000D02*
G75*
G02*
X8806000Y-6385000I40000J0D01*
G01*
X8806000Y-6639000D02*
G75*
G02*
X8726000Y-6639000I-40000J0D01*
G01*
X8726000Y-6639000D02*
G75*
G02*
X8806000Y-6639000I40000J0D01*
G01*
X9214000Y-4250000D02*
G75*
G02*
X9134000Y-4250000I-40000J0D01*
G01*
X9134000Y-4250000D02*
G75*
G02*
X9214000Y-4250000I40000J0D01*
G01*
X9323000Y-4713000D02*
G75*
G02*
X9243000Y-4713000I-40000J0D01*
G01*
X9243000Y-4713000D02*
G75*
G02*
X9323000Y-4713000I40000J0D01*
G01*
X9323000Y-5729000D02*
G75*
G02*
X9243000Y-5729000I-40000J0D01*
G01*
X9243000Y-5729000D02*
G75*
G02*
X9323000Y-5729000I40000J0D01*
G01*
X9479000Y-2910000D02*
G75*
G02*
X9399000Y-2910000I-40000J0D01*
G01*
X9399000Y-2910000D02*
G75*
G02*
X9479000Y-2910000I40000J0D01*
G01*
X9479000Y-3672000D02*
G75*
G02*
X9399000Y-3672000I-40000J0D01*
G01*
X9399000Y-3672000D02*
G75*
G02*
X9479000Y-3672000I40000J0D01*
G01*
X10027000Y-6254000D02*
G75*
G02*
X9947000Y-6254000I-40000J0D01*
G01*
X9947000Y-6254000D02*
G75*
G02*
X10027000Y-6254000I40000J0D01*
G01*
X10027000Y-7016000D02*
G75*
G02*
X9947000Y-7016000I-40000J0D01*
G01*
X9947000Y-7016000D02*
G75*
G02*
X10027000Y-7016000I40000J0D01*
G01*
X12097000Y-8571000D02*
G75*
G02*
X12017000Y-8571000I-40000J0D01*
G01*
X12017000Y-8571000D02*
G75*
G02*
X12097000Y-8571000I40000J0D01*
G01*
X12097000Y-9587000D02*
G75*
G02*
X12017000Y-9587000I-40000J0D01*
G01*
X12017000Y-9587000D02*
G75*
G02*
X12097000Y-9587000I40000J0D01*
G01*
X12267000Y-5692000D02*
G75*
G02*
X12187000Y-5692000I-40000J0D01*
G01*
X12187000Y-5692000D02*
G75*
G02*
X12267000Y-5692000I40000J0D01*
G01*
X12267000Y-5942000D02*
G75*
G02*
X12187000Y-5942000I-40000J0D01*
G01*
X12187000Y-5942000D02*
G75*
G02*
X12267000Y-5942000I40000J0D01*
G01*
X12307000Y-3716000D02*
G75*
G02*
X12227000Y-3716000I-40000J0D01*
G01*
X12227000Y-3716000D02*
G75*
G02*
X12307000Y-3716000I40000J0D01*
G01*
X12307000Y-3966000D02*
G75*
G02*
X12227000Y-3966000I-40000J0D01*
G01*
X12227000Y-3966000D02*
G75*
G02*
X12307000Y-3966000I40000J0D01*
G01*
X12311000Y-2642000D02*
G75*
G02*
X12231000Y-2642000I-40000J0D01*
G01*
X12231000Y-2642000D02*
G75*
G02*
X12311000Y-2642000I40000J0D01*
G01*
X12311000Y-2892000D02*
G75*
G02*
X12231000Y-2892000I-40000J0D01*
G01*
X12231000Y-2892000D02*
G75*
G02*
X12311000Y-2892000I40000J0D01*
G01*
X12556000Y-8531000D02*
G75*
G02*
X12476000Y-8531000I-40000J0D01*
G01*
X12476000Y-8531000D02*
G75*
G02*
X12556000Y-8531000I40000J0D01*
G01*
X12556000Y-9547000D02*
G75*
G02*
X12476000Y-9547000I-40000J0D01*
G01*
X12476000Y-9547000D02*
G75*
G02*
X12556000Y-9547000I40000J0D01*
G01*
X3852000Y-3194000D02*
X3852000Y-3294000D01*
X3802000Y-3244000D02*
X3902000Y-3244000D01*
X4288000Y-6215000D02*
X4288000Y-6315000D01*
X4238000Y-6265000D02*
X4338000Y-6265000D01*
X4288000Y-6723000D02*
X4288000Y-6823000D01*
X4238000Y-6773000D02*
X4338000Y-6773000D01*
X4387000Y-5575000D02*
X4387000Y-5675000D01*
X4337000Y-5625000D02*
X4437000Y-5625000D01*
X4796000Y-6215000D02*
X4796000Y-6315000D01*
X4746000Y-6265000D02*
X4846000Y-6265000D01*
X4796000Y-6723000D02*
X4796000Y-6823000D01*
X4746000Y-6773000D02*
X4846000Y-6773000D01*
X4852000Y-3194000D02*
X4852000Y-3294000D01*
X4802000Y-3244000D02*
X4902000Y-3244000D01*
X5137000Y-5575000D02*
X5137000Y-5675000D01*
X5087000Y-5625000D02*
X5187000Y-5625000D01*
X6381000Y-6455000D02*
X6381000Y-6555000D01*
X6331000Y-6505000D02*
X6431000Y-6505000D01*
X6381000Y-6963000D02*
X6381000Y-7063000D01*
X6331000Y-7013000D02*
X6431000Y-7013000D01*
X6857000Y-3802000D02*
X6857000Y-3902000D01*
X6807000Y-3852000D02*
X6907000Y-3852000D01*
X6889000Y-6455000D02*
X6889000Y-6555000D01*
X6839000Y-6505000D02*
X6939000Y-6505000D01*
X6889000Y-6963000D02*
X6889000Y-7063000D01*
X6839000Y-7013000D02*
X6939000Y-7013000D01*
X7424000Y-6157000D02*
X7424000Y-6257000D01*
X7374000Y-6207000D02*
X7474000Y-6207000D01*
X7424000Y-6907000D02*
X7424000Y-7007000D01*
X7374000Y-6957000D02*
X7474000Y-6957000D01*
X7607000Y-3802000D02*
X7607000Y-3902000D01*
X7557000Y-3852000D02*
X7657000Y-3852000D01*
X8198000Y-3762000D02*
X8198000Y-3862000D01*
X8148000Y-3812000D02*
X8248000Y-3812000D01*
X8204000Y-2976000D02*
X8204000Y-3076000D01*
X8154000Y-3026000D02*
X8254000Y-3026000D01*
X8704000Y-2976000D02*
X8704000Y-3076000D01*
X8654000Y-3026000D02*
X8754000Y-3026000D01*
X8948000Y-3762000D02*
X8948000Y-3862000D01*
X8898000Y-3812000D02*
X8998000Y-3812000D01*
X9270000Y-6166000D02*
X9270000Y-6266000D01*
X9220000Y-6216000D02*
X9320000Y-6216000D01*
X9270000Y-6916000D02*
X9270000Y-7016000D01*
X9220000Y-6966000D02*
X9320000Y-6966000D01*
D12*
X3244891Y-2907891D02*
X3244891Y-2830109D01*
X3167109Y-2830109D01*
X3167109Y-2907891D01*
X3244891Y-2907891D01*
X3498891Y-2907891D02*
X3498891Y-2830109D01*
X3421109Y-2830109D01*
X3421109Y-2907891D01*
X3498891Y-2907891D01*
X3752891Y-2907891D02*
X3752891Y-2830109D01*
X3675109Y-2830109D01*
X3675109Y-2907891D01*
X3752891Y-2907891D01*
X6927891Y-2687891D02*
X6927891Y-2610109D01*
X6850109Y-2610109D01*
X6850109Y-2687891D01*
X6927891Y-2687891D01*
X7181891Y-2687891D02*
X7181891Y-2610109D01*
X7104109Y-2610109D01*
X7104109Y-2687891D01*
X7181891Y-2687891D01*
X7435891Y-2687891D02*
X7435891Y-2610109D01*
X7358109Y-2610109D01*
X7358109Y-2687891D01*
X7435891Y-2687891D01*
X10568891Y-2767891D02*
X10568891Y-2690109D01*
X10491109Y-2690109D01*
X10491109Y-2767891D01*
X10568891Y-2767891D01*
X10822891Y-2767891D02*
X10822891Y-2690109D01*
X10745109Y-2690109D01*
X10745109Y-2767891D01*
X10822891Y-2767891D01*
X11076891Y-2767891D02*
X11076891Y-2690109D01*
X10999109Y-2690109D01*
X10999109Y-2767891D01*
X11076891Y-2767891D01*
D13*
X2374000Y-4376000D02*
X2434000Y-4316000D01*
X2374000Y-4256000D01*
X2314000Y-4316000D01*
X2374000Y-4376000D01*
X2374000Y-6626000D02*
X2434000Y-6566000D01*
X2374000Y-6506000D01*
X2314000Y-6566000D01*
X2374000Y-6626000D01*
X4746000Y-4579000D02*
X4806000Y-4519000D01*
X4746000Y-4459000D01*
X4686000Y-4519000D01*
X4746000Y-4579000D01*
X5246000Y-4579000D02*
X5306000Y-4519000D01*
X5246000Y-4459000D01*
X5186000Y-4519000D01*
X5246000Y-4579000D01*
X10751000Y-3575000D02*
X10811000Y-3515000D01*
X10751000Y-3455000D01*
X10691000Y-3515000D01*
X10751000Y-3575000D01*
X10751000Y-4325000D02*
X10811000Y-4265000D01*
X10751000Y-4205000D01*
X10691000Y-4265000D01*
X10751000Y-4325000D01*
X10847000Y-5591000D02*
X10907000Y-5531000D01*
X10847000Y-5471000D01*
X10787000Y-5531000D01*
X10847000Y-5591000D01*
X10847000Y-6341000D02*
X10907000Y-6281000D01*
X10847000Y-6221000D01*
X10787000Y-6281000D01*
X10847000Y-6341000D01*
D14*
X698000Y-2716000D02*
X858000Y-2876000D01*
X858000Y-2716000D02*
X698000Y-2876000D01*
X858000Y-2796000D02*
G75*
G02*
X698000Y-2796000I-80000J0D01*
G01*
X698000Y-2796000D02*
G75*
G02*
X858000Y-2796000I80000J0D01*
G01*
X698000Y-3418000D02*
X858000Y-3578000D01*
X858000Y-3418000D02*
X698000Y-3578000D01*
X858000Y-3498000D02*
G75*
G02*
X698000Y-3498000I-80000J0D01*
G01*
X698000Y-3498000D02*
G75*
G02*
X858000Y-3498000I80000J0D01*
G01*
X698000Y-4577000D02*
X858000Y-4737000D01*
X858000Y-4577000D02*
X698000Y-4737000D01*
X858000Y-4657000D02*
G75*
G02*
X698000Y-4657000I-80000J0D01*
G01*
X698000Y-4657000D02*
G75*
G02*
X858000Y-4657000I80000J0D01*
G01*
X698000Y-5295000D02*
X858000Y-5455000D01*
X858000Y-5295000D02*
X698000Y-5455000D01*
X858000Y-5375000D02*
G75*
G02*
X698000Y-5375000I-80000J0D01*
G01*
X698000Y-5375000D02*
G75*
G02*
X858000Y-5375000I80000J0D01*
G01*
X698000Y-6481000D02*
X858000Y-6641000D01*
X858000Y-6481000D02*
X698000Y-6641000D01*
X858000Y-6561000D02*
G75*
G02*
X698000Y-6561000I-80000J0D01*
G01*
X698000Y-6561000D02*
G75*
G02*
X858000Y-6561000I80000J0D01*
G01*
X698000Y-7688000D02*
X858000Y-7848000D01*
X858000Y-7688000D02*
X698000Y-7848000D01*
X858000Y-7768000D02*
G75*
G02*
X698000Y-7768000I-80000J0D01*
G01*
X698000Y-7768000D02*
G75*
G02*
X858000Y-7768000I80000J0D01*
G01*
X698000Y-8352000D02*
X858000Y-8512000D01*
X858000Y-8352000D02*
X698000Y-8512000D01*
X858000Y-8432000D02*
G75*
G02*
X698000Y-8432000I-80000J0D01*
G01*
X698000Y-8432000D02*
G75*
G02*
X858000Y-8432000I80000J0D01*
G01*
X698000Y-9576000D02*
X858000Y-9736000D01*
X858000Y-9576000D02*
X698000Y-9736000D01*
X858000Y-9656000D02*
G75*
G02*
X698000Y-9656000I-80000J0D01*
G01*
X698000Y-9656000D02*
G75*
G02*
X858000Y-9656000I80000J0D01*
G01*
X2140000Y-11018000D02*
X2300000Y-11178000D01*
X2300000Y-11018000D02*
X2140000Y-11178000D01*
X2300000Y-11098000D02*
G75*
G02*
X2140000Y-11098000I-80000J0D01*
G01*
X2140000Y-11098000D02*
G75*
G02*
X2300000Y-11098000I80000J0D01*
G01*
X2314000Y-7662000D02*
X2474000Y-7822000D01*
X2474000Y-7662000D02*
X2314000Y-7822000D01*
X2474000Y-7742000D02*
G75*
G02*
X2314000Y-7742000I-80000J0D01*
G01*
X2314000Y-7742000D02*
G75*
G02*
X2474000Y-7742000I80000J0D01*
G01*
X2314000Y-9912000D02*
X2474000Y-10072000D01*
X2474000Y-9912000D02*
X2314000Y-10072000D01*
X2474000Y-9992000D02*
G75*
G02*
X2314000Y-9992000I-80000J0D01*
G01*
X2314000Y-9992000D02*
G75*
G02*
X2474000Y-9992000I80000J0D01*
G01*
X3516000Y-11018000D02*
X3676000Y-11178000D01*
X3676000Y-11018000D02*
X3516000Y-11178000D01*
X3676000Y-11098000D02*
G75*
G02*
X3516000Y-11098000I-80000J0D01*
G01*
X3516000Y-11098000D02*
G75*
G02*
X3676000Y-11098000I80000J0D01*
G01*
X4571000Y-11018000D02*
X4731000Y-11178000D01*
X4731000Y-11018000D02*
X4571000Y-11178000D01*
X4731000Y-11098000D02*
G75*
G02*
X4571000Y-11098000I-80000J0D01*
G01*
X4571000Y-11098000D02*
G75*
G02*
X4731000Y-11098000I80000J0D01*
G01*
X5197000Y-7662000D02*
X5357000Y-7822000D01*
X5357000Y-7662000D02*
X5197000Y-7822000D01*
X5357000Y-7742000D02*
G75*
G02*
X5197000Y-7742000I-80000J0D01*
G01*
X5197000Y-7742000D02*
G75*
G02*
X5357000Y-7742000I80000J0D01*
G01*
X5197000Y-9912000D02*
X5357000Y-10072000D01*
X5357000Y-9912000D02*
X5197000Y-10072000D01*
X5357000Y-9992000D02*
G75*
G02*
X5197000Y-9992000I-80000J0D01*
G01*
X5197000Y-9992000D02*
G75*
G02*
X5357000Y-9992000I80000J0D01*
G01*
X5627000Y-11018000D02*
X5787000Y-11178000D01*
X5787000Y-11018000D02*
X5627000Y-11178000D01*
X5787000Y-11098000D02*
G75*
G02*
X5627000Y-11098000I-80000J0D01*
G01*
X5627000Y-11098000D02*
G75*
G02*
X5787000Y-11098000I80000J0D01*
G01*
X6715000Y-11018000D02*
X6875000Y-11178000D01*
X6875000Y-11018000D02*
X6715000Y-11178000D01*
X6875000Y-11098000D02*
G75*
G02*
X6715000Y-11098000I-80000J0D01*
G01*
X6715000Y-11098000D02*
G75*
G02*
X6875000Y-11098000I80000J0D01*
G01*
X6910000Y-7662000D02*
X7070000Y-7822000D01*
X7070000Y-7662000D02*
X6910000Y-7822000D01*
X7070000Y-7742000D02*
G75*
G02*
X6910000Y-7742000I-80000J0D01*
G01*
X6910000Y-7742000D02*
G75*
G02*
X7070000Y-7742000I80000J0D01*
G01*
X6910000Y-9912000D02*
X7070000Y-10072000D01*
X7070000Y-9912000D02*
X6910000Y-10072000D01*
X7070000Y-9992000D02*
G75*
G02*
X6910000Y-9992000I-80000J0D01*
G01*
X6910000Y-9992000D02*
G75*
G02*
X7070000Y-9992000I80000J0D01*
G01*
X7754000Y-11018000D02*
X7914000Y-11178000D01*
X7914000Y-11018000D02*
X7754000Y-11178000D01*
X7914000Y-11098000D02*
G75*
G02*
X7754000Y-11098000I-80000J0D01*
G01*
X7754000Y-11098000D02*
G75*
G02*
X7914000Y-11098000I80000J0D01*
G01*
X8651000Y-7662000D02*
X8811000Y-7822000D01*
X8811000Y-7662000D02*
X8651000Y-7822000D01*
X8811000Y-7742000D02*
G75*
G02*
X8651000Y-7742000I-80000J0D01*
G01*
X8651000Y-7742000D02*
G75*
G02*
X8811000Y-7742000I80000J0D01*
G01*
X8651000Y-9912000D02*
X8811000Y-10072000D01*
X8811000Y-9912000D02*
X8651000Y-10072000D01*
X8811000Y-9992000D02*
G75*
G02*
X8651000Y-9992000I-80000J0D01*
G01*
X8651000Y-9992000D02*
G75*
G02*
X8811000Y-9992000I80000J0D01*
G01*
X13112000Y-2150000D02*
X13272000Y-2310000D01*
X13272000Y-2150000D02*
X13112000Y-2310000D01*
X13272000Y-2230000D02*
G75*
G02*
X13112000Y-2230000I-80000J0D01*
G01*
X13112000Y-2230000D02*
G75*
G02*
X13272000Y-2230000I80000J0D01*
G01*
X13112000Y-3097000D02*
X13272000Y-3257000D01*
X13272000Y-3097000D02*
X13112000Y-3257000D01*
X13272000Y-3177000D02*
G75*
G02*
X13112000Y-3177000I-80000J0D01*
G01*
X13112000Y-3177000D02*
G75*
G02*
X13272000Y-3177000I80000J0D01*
G01*
X13112000Y-4054000D02*
X13272000Y-4214000D01*
X13272000Y-4054000D02*
X13112000Y-4214000D01*
X13272000Y-4134000D02*
G75*
G02*
X13112000Y-4134000I-80000J0D01*
G01*
X13112000Y-4134000D02*
G75*
G02*
X13272000Y-4134000I80000J0D01*
G01*
X13112000Y-5257000D02*
X13272000Y-5417000D01*
X13272000Y-5257000D02*
X13112000Y-5417000D01*
X13272000Y-5337000D02*
G75*
G02*
X13112000Y-5337000I-80000J0D01*
G01*
X13112000Y-5337000D02*
G75*
G02*
X13272000Y-5337000I80000J0D01*
G01*
X13112000Y-6247000D02*
X13272000Y-6407000D01*
X13272000Y-6247000D02*
X13112000Y-6407000D01*
X13272000Y-6327000D02*
G75*
G02*
X13112000Y-6327000I-80000J0D01*
G01*
X13112000Y-6327000D02*
G75*
G02*
X13272000Y-6327000I80000J0D01*
G01*
X13112000Y-7199000D02*
X13272000Y-7359000D01*
X13272000Y-7199000D02*
X13112000Y-7359000D01*
X13272000Y-7279000D02*
G75*
G02*
X13112000Y-7279000I-80000J0D01*
G01*
X13112000Y-7279000D02*
G75*
G02*
X13272000Y-7279000I80000J0D01*
G01*
X13112000Y-8542000D02*
X13272000Y-8702000D01*
X13272000Y-8542000D02*
X13112000Y-8702000D01*
X13272000Y-8622000D02*
G75*
G02*
X13112000Y-8622000I-80000J0D01*
G01*
X13112000Y-8622000D02*
G75*
G02*
X13272000Y-8622000I80000J0D01*
G01*
X13112000Y-9473000D02*
X13272000Y-9633000D01*
X13272000Y-9473000D02*
X13112000Y-9633000D01*
X13272000Y-9553000D02*
G75*
G02*
X13112000Y-9553000I-80000J0D01*
G01*
X13112000Y-9553000D02*
G75*
G02*
X13272000Y-9553000I80000J0D01*
G01*
D11*
X255777Y-12256484D02*
X255777Y-12056484D01*
X255777Y-12056484D02*
X303396Y-12056484D01*
X303396Y-12056484D02*
X331967Y-12066008D01*
X331967Y-12066008D02*
X351015Y-12085055D01*
X351015Y-12085055D02*
X360539Y-12104103D01*
X360539Y-12104103D02*
X370062Y-12142198D01*
X370062Y-12142198D02*
X370062Y-12170769D01*
X370062Y-12170769D02*
X360539Y-12208865D01*
X360539Y-12208865D02*
X351015Y-12227912D01*
X351015Y-12227912D02*
X331967Y-12246960D01*
X331967Y-12246960D02*
X303396Y-12256484D01*
X303396Y-12256484D02*
X255777Y-12256484D01*
X455777Y-12256484D02*
X455777Y-12123150D01*
X455777Y-12161246D02*
X465301Y-12142198D01*
X465301Y-12142198D02*
X474824Y-12132674D01*
X474824Y-12132674D02*
X493872Y-12123150D01*
X493872Y-12123150D02*
X512920Y-12123150D01*
X579586Y-12256484D02*
X579586Y-12123150D01*
X579586Y-12056484D02*
X570063Y-12066008D01*
X570063Y-12066008D02*
X579586Y-12075531D01*
X579586Y-12075531D02*
X589110Y-12066008D01*
X589110Y-12066008D02*
X579586Y-12056484D01*
X579586Y-12056484D02*
X579586Y-12075531D01*
X703396Y-12256484D02*
X684348Y-12246960D01*
X684348Y-12246960D02*
X674824Y-12227912D01*
X674824Y-12227912D02*
X674824Y-12056484D01*
X808158Y-12256484D02*
X789110Y-12246960D01*
X789110Y-12246960D02*
X779586Y-12227912D01*
X779586Y-12227912D02*
X779586Y-12056484D01*
X1036729Y-12256484D02*
X1036729Y-12056484D01*
X1036729Y-12056484D02*
X1103396Y-12199341D01*
X1103396Y-12199341D02*
X1170063Y-12056484D01*
X1170063Y-12056484D02*
X1170063Y-12256484D01*
X1351015Y-12256484D02*
X1351015Y-12151722D01*
X1351015Y-12151722D02*
X1341491Y-12132674D01*
X1341491Y-12132674D02*
X1322444Y-12123150D01*
X1322444Y-12123150D02*
X1284348Y-12123150D01*
X1284348Y-12123150D02*
X1265301Y-12132674D01*
X1351015Y-12246960D02*
X1331967Y-12256484D01*
X1331967Y-12256484D02*
X1284348Y-12256484D01*
X1284348Y-12256484D02*
X1265301Y-12246960D01*
X1265301Y-12246960D02*
X1255777Y-12227912D01*
X1255777Y-12227912D02*
X1255777Y-12208865D01*
X1255777Y-12208865D02*
X1265301Y-12189817D01*
X1265301Y-12189817D02*
X1284348Y-12180293D01*
X1284348Y-12180293D02*
X1331967Y-12180293D01*
X1331967Y-12180293D02*
X1351015Y-12170769D01*
X1446253Y-12123150D02*
X1446253Y-12323150D01*
X1446253Y-12132674D02*
X1465301Y-12123150D01*
X1465301Y-12123150D02*
X1503396Y-12123150D01*
X1503396Y-12123150D02*
X1522443Y-12132674D01*
X1522443Y-12132674D02*
X1531967Y-12142198D01*
X1531967Y-12142198D02*
X1541491Y-12161246D01*
X1541491Y-12161246D02*
X1541491Y-12218388D01*
X1541491Y-12218388D02*
X1531967Y-12237436D01*
X1531967Y-12237436D02*
X1522443Y-12246960D01*
X1522443Y-12246960D02*
X1503396Y-12256484D01*
X1503396Y-12256484D02*
X1465301Y-12256484D01*
X1465301Y-12256484D02*
X1446253Y-12246960D01*
X1627205Y-12237436D02*
X1636729Y-12246960D01*
X1636729Y-12246960D02*
X1627205Y-12256484D01*
X1627205Y-12256484D02*
X1617682Y-12246960D01*
X1617682Y-12246960D02*
X1627205Y-12237436D01*
X1627205Y-12237436D02*
X1627205Y-12256484D01*
X1627205Y-12132674D02*
X1636729Y-12142198D01*
X1636729Y-12142198D02*
X1627205Y-12151722D01*
X1627205Y-12151722D02*
X1617682Y-12142198D01*
X1617682Y-12142198D02*
X1627205Y-12132674D01*
X1627205Y-12132674D02*
X1627205Y-12151722D01*
D10*
X-35000Y-12570000D02*
X-5000Y-12600000D01*
X-5000Y-12570000D02*
X-35000Y-12600000D01*
D11*
X293872Y-12476484D02*
X312920Y-12476484D01*
X312920Y-12476484D02*
X331967Y-12486008D01*
X331967Y-12486008D02*
X341491Y-12495531D01*
X341491Y-12495531D02*
X351015Y-12514579D01*
X351015Y-12514579D02*
X360539Y-12552674D01*
X360539Y-12552674D02*
X360539Y-12600293D01*
X360539Y-12600293D02*
X351015Y-12638388D01*
X351015Y-12638388D02*
X341491Y-12657436D01*
X341491Y-12657436D02*
X331967Y-12666960D01*
X331967Y-12666960D02*
X312920Y-12676484D01*
X312920Y-12676484D02*
X293872Y-12676484D01*
X293872Y-12676484D02*
X274824Y-12666960D01*
X274824Y-12666960D02*
X265301Y-12657436D01*
X265301Y-12657436D02*
X255777Y-12638388D01*
X255777Y-12638388D02*
X246253Y-12600293D01*
X246253Y-12600293D02*
X246253Y-12552674D01*
X246253Y-12552674D02*
X255777Y-12514579D01*
X255777Y-12514579D02*
X265301Y-12495531D01*
X265301Y-12495531D02*
X274824Y-12486008D01*
X274824Y-12486008D02*
X293872Y-12476484D01*
X446253Y-12657436D02*
X455777Y-12666960D01*
X455777Y-12666960D02*
X446253Y-12676484D01*
X446253Y-12676484D02*
X436729Y-12666960D01*
X436729Y-12666960D02*
X446253Y-12657436D01*
X446253Y-12657436D02*
X446253Y-12676484D01*
X522443Y-12476484D02*
X646253Y-12476484D01*
X646253Y-12476484D02*
X579586Y-12552674D01*
X579586Y-12552674D02*
X608158Y-12552674D01*
X608158Y-12552674D02*
X627205Y-12562198D01*
X627205Y-12562198D02*
X636729Y-12571722D01*
X636729Y-12571722D02*
X646253Y-12590769D01*
X646253Y-12590769D02*
X646253Y-12638388D01*
X646253Y-12638388D02*
X636729Y-12657436D01*
X636729Y-12657436D02*
X627205Y-12666960D01*
X627205Y-12666960D02*
X608158Y-12676484D01*
X608158Y-12676484D02*
X551015Y-12676484D01*
X551015Y-12676484D02*
X531967Y-12666960D01*
X531967Y-12666960D02*
X522443Y-12657436D01*
X770062Y-12476484D02*
X789110Y-12476484D01*
X789110Y-12476484D02*
X808158Y-12486008D01*
X808158Y-12486008D02*
X817682Y-12495531D01*
X817682Y-12495531D02*
X827205Y-12514579D01*
X827205Y-12514579D02*
X836729Y-12552674D01*
X836729Y-12552674D02*
X836729Y-12600293D01*
X836729Y-12600293D02*
X827205Y-12638388D01*
X827205Y-12638388D02*
X817682Y-12657436D01*
X817682Y-12657436D02*
X808158Y-12666960D01*
X808158Y-12666960D02*
X789110Y-12676484D01*
X789110Y-12676484D02*
X770062Y-12676484D01*
X770062Y-12676484D02*
X751015Y-12666960D01*
X751015Y-12666960D02*
X741491Y-12657436D01*
X741491Y-12657436D02*
X731967Y-12638388D01*
X731967Y-12638388D02*
X722443Y-12600293D01*
X722443Y-12600293D02*
X722443Y-12552674D01*
X722443Y-12552674D02*
X731967Y-12514579D01*
X731967Y-12514579D02*
X741491Y-12495531D01*
X741491Y-12495531D02*
X751015Y-12486008D01*
X751015Y-12486008D02*
X770062Y-12476484D01*
X960539Y-12476484D02*
X979586Y-12476484D01*
X979586Y-12476484D02*
X998634Y-12486008D01*
X998634Y-12486008D02*
X1008158Y-12495531D01*
X1008158Y-12495531D02*
X1017682Y-12514579D01*
X1017682Y-12514579D02*
X1027205Y-12552674D01*
X1027205Y-12552674D02*
X1027205Y-12600293D01*
X1027205Y-12600293D02*
X1017682Y-12638388D01*
X1017682Y-12638388D02*
X1008158Y-12657436D01*
X1008158Y-12657436D02*
X998634Y-12666960D01*
X998634Y-12666960D02*
X979586Y-12676484D01*
X979586Y-12676484D02*
X960539Y-12676484D01*
X960539Y-12676484D02*
X941491Y-12666960D01*
X941491Y-12666960D02*
X931967Y-12657436D01*
X931967Y-12657436D02*
X922443Y-12638388D01*
X922443Y-12638388D02*
X912920Y-12600293D01*
X912920Y-12600293D02*
X912920Y-12552674D01*
X912920Y-12552674D02*
X922443Y-12514579D01*
X922443Y-12514579D02*
X931967Y-12495531D01*
X931967Y-12495531D02*
X941491Y-12486008D01*
X941491Y-12486008D02*
X960539Y-12476484D01*
X1112920Y-12676484D02*
X1112920Y-12543150D01*
X1112920Y-12562198D02*
X1122444Y-12552674D01*
X1122444Y-12552674D02*
X1141491Y-12543150D01*
X1141491Y-12543150D02*
X1170063Y-12543150D01*
X1170063Y-12543150D02*
X1189110Y-12552674D01*
X1189110Y-12552674D02*
X1198634Y-12571722D01*
X1198634Y-12571722D02*
X1198634Y-12676484D01*
X1198634Y-12571722D02*
X1208158Y-12552674D01*
X1208158Y-12552674D02*
X1227205Y-12543150D01*
X1227205Y-12543150D02*
X1255777Y-12543150D01*
X1255777Y-12543150D02*
X1274825Y-12552674D01*
X1274825Y-12552674D02*
X1284348Y-12571722D01*
X1284348Y-12571722D02*
X1284348Y-12676484D01*
X1379586Y-12676484D02*
X1379586Y-12543150D01*
X1379586Y-12562198D02*
X1389110Y-12552674D01*
X1389110Y-12552674D02*
X1408158Y-12543150D01*
X1408158Y-12543150D02*
X1436729Y-12543150D01*
X1436729Y-12543150D02*
X1455777Y-12552674D01*
X1455777Y-12552674D02*
X1465301Y-12571722D01*
X1465301Y-12571722D02*
X1465301Y-12676484D01*
X1465301Y-12571722D02*
X1474824Y-12552674D01*
X1474824Y-12552674D02*
X1493872Y-12543150D01*
X1493872Y-12543150D02*
X1522443Y-12543150D01*
X1522443Y-12543150D02*
X1541491Y-12552674D01*
X1541491Y-12552674D02*
X1551015Y-12571722D01*
X1551015Y-12571722D02*
X1551015Y-12676484D01*
X1941491Y-12466960D02*
X1770063Y-12724103D01*
X2198634Y-12476484D02*
X2217682Y-12476484D01*
X2217682Y-12476484D02*
X2236729Y-12486008D01*
X2236729Y-12486008D02*
X2246253Y-12495531D01*
X2246253Y-12495531D02*
X2255777Y-12514579D01*
X2255777Y-12514579D02*
X2265301Y-12552674D01*
X2265301Y-12552674D02*
X2265301Y-12600293D01*
X2265301Y-12600293D02*
X2255777Y-12638388D01*
X2255777Y-12638388D02*
X2246253Y-12657436D01*
X2246253Y-12657436D02*
X2236729Y-12666960D01*
X2236729Y-12666960D02*
X2217682Y-12676484D01*
X2217682Y-12676484D02*
X2198634Y-12676484D01*
X2198634Y-12676484D02*
X2179587Y-12666960D01*
X2179587Y-12666960D02*
X2170063Y-12657436D01*
X2170063Y-12657436D02*
X2160539Y-12638388D01*
X2160539Y-12638388D02*
X2151015Y-12600293D01*
X2151015Y-12600293D02*
X2151015Y-12552674D01*
X2151015Y-12552674D02*
X2160539Y-12514579D01*
X2160539Y-12514579D02*
X2170063Y-12495531D01*
X2170063Y-12495531D02*
X2179587Y-12486008D01*
X2179587Y-12486008D02*
X2198634Y-12476484D01*
X2351015Y-12657436D02*
X2360539Y-12666960D01*
X2360539Y-12666960D02*
X2351015Y-12676484D01*
X2351015Y-12676484D02*
X2341491Y-12666960D01*
X2341491Y-12666960D02*
X2351015Y-12657436D01*
X2351015Y-12657436D02*
X2351015Y-12676484D01*
X2484348Y-12476484D02*
X2503396Y-12476484D01*
X2503396Y-12476484D02*
X2522444Y-12486008D01*
X2522444Y-12486008D02*
X2531968Y-12495531D01*
X2531968Y-12495531D02*
X2541491Y-12514579D01*
X2541491Y-12514579D02*
X2551015Y-12552674D01*
X2551015Y-12552674D02*
X2551015Y-12600293D01*
X2551015Y-12600293D02*
X2541491Y-12638388D01*
X2541491Y-12638388D02*
X2531968Y-12657436D01*
X2531968Y-12657436D02*
X2522444Y-12666960D01*
X2522444Y-12666960D02*
X2503396Y-12676484D01*
X2503396Y-12676484D02*
X2484348Y-12676484D01*
X2484348Y-12676484D02*
X2465301Y-12666960D01*
X2465301Y-12666960D02*
X2455777Y-12657436D01*
X2455777Y-12657436D02*
X2446253Y-12638388D01*
X2446253Y-12638388D02*
X2436729Y-12600293D01*
X2436729Y-12600293D02*
X2436729Y-12552674D01*
X2436729Y-12552674D02*
X2446253Y-12514579D01*
X2446253Y-12514579D02*
X2455777Y-12495531D01*
X2455777Y-12495531D02*
X2465301Y-12486008D01*
X2465301Y-12486008D02*
X2484348Y-12476484D01*
X2741491Y-12676484D02*
X2627206Y-12676484D01*
X2684348Y-12676484D02*
X2684348Y-12476484D01*
X2684348Y-12476484D02*
X2665301Y-12505055D01*
X2665301Y-12505055D02*
X2646253Y-12524103D01*
X2646253Y-12524103D02*
X2627206Y-12533627D01*
X2931967Y-12676484D02*
X2817682Y-12676484D01*
X2874825Y-12676484D02*
X2874825Y-12476484D01*
X2874825Y-12476484D02*
X2855777Y-12505055D01*
X2855777Y-12505055D02*
X2836729Y-12524103D01*
X2836729Y-12524103D02*
X2817682Y-12533627D01*
X3046253Y-12562198D02*
X3027206Y-12552674D01*
X3027206Y-12552674D02*
X3017682Y-12543150D01*
X3017682Y-12543150D02*
X3008158Y-12524103D01*
X3008158Y-12524103D02*
X3008158Y-12514579D01*
X3008158Y-12514579D02*
X3017682Y-12495531D01*
X3017682Y-12495531D02*
X3027206Y-12486008D01*
X3027206Y-12486008D02*
X3046253Y-12476484D01*
X3046253Y-12476484D02*
X3084348Y-12476484D01*
X3084348Y-12476484D02*
X3103396Y-12486008D01*
X3103396Y-12486008D02*
X3112920Y-12495531D01*
X3112920Y-12495531D02*
X3122444Y-12514579D01*
X3122444Y-12514579D02*
X3122444Y-12524103D01*
X3122444Y-12524103D02*
X3112920Y-12543150D01*
X3112920Y-12543150D02*
X3103396Y-12552674D01*
X3103396Y-12552674D02*
X3084348Y-12562198D01*
X3084348Y-12562198D02*
X3046253Y-12562198D01*
X3046253Y-12562198D02*
X3027206Y-12571722D01*
X3027206Y-12571722D02*
X3017682Y-12581246D01*
X3017682Y-12581246D02*
X3008158Y-12600293D01*
X3008158Y-12600293D02*
X3008158Y-12638388D01*
X3008158Y-12638388D02*
X3017682Y-12657436D01*
X3017682Y-12657436D02*
X3027206Y-12666960D01*
X3027206Y-12666960D02*
X3046253Y-12676484D01*
X3046253Y-12676484D02*
X3084348Y-12676484D01*
X3084348Y-12676484D02*
X3103396Y-12666960D01*
X3103396Y-12666960D02*
X3112920Y-12657436D01*
X3112920Y-12657436D02*
X3122444Y-12638388D01*
X3122444Y-12638388D02*
X3122444Y-12600293D01*
X3122444Y-12600293D02*
X3112920Y-12581246D01*
X3112920Y-12581246D02*
X3103396Y-12571722D01*
X3103396Y-12571722D02*
X3084348Y-12562198D01*
X3198634Y-12476484D02*
X3198634Y-12514579D01*
X3274825Y-12476484D02*
X3274825Y-12514579D01*
X3570063Y-12752674D02*
X3560539Y-12743150D01*
X3560539Y-12743150D02*
X3541491Y-12714579D01*
X3541491Y-12714579D02*
X3531968Y-12695531D01*
X3531968Y-12695531D02*
X3522444Y-12666960D01*
X3522444Y-12666960D02*
X3512920Y-12619341D01*
X3512920Y-12619341D02*
X3512920Y-12581246D01*
X3512920Y-12581246D02*
X3522444Y-12533627D01*
X3522444Y-12533627D02*
X3531968Y-12505055D01*
X3531968Y-12505055D02*
X3541491Y-12486008D01*
X3541491Y-12486008D02*
X3560539Y-12457436D01*
X3560539Y-12457436D02*
X3570063Y-12447912D01*
X3674825Y-12562198D02*
X3655777Y-12552674D01*
X3655777Y-12552674D02*
X3646253Y-12543150D01*
X3646253Y-12543150D02*
X3636729Y-12524103D01*
X3636729Y-12524103D02*
X3636729Y-12514579D01*
X3636729Y-12514579D02*
X3646253Y-12495531D01*
X3646253Y-12495531D02*
X3655777Y-12486008D01*
X3655777Y-12486008D02*
X3674825Y-12476484D01*
X3674825Y-12476484D02*
X3712920Y-12476484D01*
X3712920Y-12476484D02*
X3731968Y-12486008D01*
X3731968Y-12486008D02*
X3741491Y-12495531D01*
X3741491Y-12495531D02*
X3751015Y-12514579D01*
X3751015Y-12514579D02*
X3751015Y-12524103D01*
X3751015Y-12524103D02*
X3741491Y-12543150D01*
X3741491Y-12543150D02*
X3731968Y-12552674D01*
X3731968Y-12552674D02*
X3712920Y-12562198D01*
X3712920Y-12562198D02*
X3674825Y-12562198D01*
X3674825Y-12562198D02*
X3655777Y-12571722D01*
X3655777Y-12571722D02*
X3646253Y-12581246D01*
X3646253Y-12581246D02*
X3636729Y-12600293D01*
X3636729Y-12600293D02*
X3636729Y-12638388D01*
X3636729Y-12638388D02*
X3646253Y-12657436D01*
X3646253Y-12657436D02*
X3655777Y-12666960D01*
X3655777Y-12666960D02*
X3674825Y-12676484D01*
X3674825Y-12676484D02*
X3712920Y-12676484D01*
X3712920Y-12676484D02*
X3731968Y-12666960D01*
X3731968Y-12666960D02*
X3741491Y-12657436D01*
X3741491Y-12657436D02*
X3751015Y-12638388D01*
X3751015Y-12638388D02*
X3751015Y-12600293D01*
X3751015Y-12600293D02*
X3741491Y-12581246D01*
X3741491Y-12581246D02*
X3731968Y-12571722D01*
X3731968Y-12571722D02*
X3712920Y-12562198D01*
X3989110Y-12676484D02*
X3989110Y-12476484D01*
X4074825Y-12676484D02*
X4074825Y-12571722D01*
X4074825Y-12571722D02*
X4065301Y-12552674D01*
X4065301Y-12552674D02*
X4046253Y-12543150D01*
X4046253Y-12543150D02*
X4017682Y-12543150D01*
X4017682Y-12543150D02*
X3998634Y-12552674D01*
X3998634Y-12552674D02*
X3989110Y-12562198D01*
X4198634Y-12676484D02*
X4179587Y-12666960D01*
X4179587Y-12666960D02*
X4170063Y-12657436D01*
X4170063Y-12657436D02*
X4160539Y-12638388D01*
X4160539Y-12638388D02*
X4160539Y-12581246D01*
X4160539Y-12581246D02*
X4170063Y-12562198D01*
X4170063Y-12562198D02*
X4179587Y-12552674D01*
X4179587Y-12552674D02*
X4198634Y-12543150D01*
X4198634Y-12543150D02*
X4227206Y-12543150D01*
X4227206Y-12543150D02*
X4246253Y-12552674D01*
X4246253Y-12552674D02*
X4255777Y-12562198D01*
X4255777Y-12562198D02*
X4265301Y-12581246D01*
X4265301Y-12581246D02*
X4265301Y-12638388D01*
X4265301Y-12638388D02*
X4255777Y-12657436D01*
X4255777Y-12657436D02*
X4246253Y-12666960D01*
X4246253Y-12666960D02*
X4227206Y-12676484D01*
X4227206Y-12676484D02*
X4198634Y-12676484D01*
X4379587Y-12676484D02*
X4360539Y-12666960D01*
X4360539Y-12666960D02*
X4351015Y-12647912D01*
X4351015Y-12647912D02*
X4351015Y-12476484D01*
X4531968Y-12666960D02*
X4512920Y-12676484D01*
X4512920Y-12676484D02*
X4474825Y-12676484D01*
X4474825Y-12676484D02*
X4455777Y-12666960D01*
X4455777Y-12666960D02*
X4446253Y-12647912D01*
X4446253Y-12647912D02*
X4446253Y-12571722D01*
X4446253Y-12571722D02*
X4455777Y-12552674D01*
X4455777Y-12552674D02*
X4474825Y-12543150D01*
X4474825Y-12543150D02*
X4512920Y-12543150D01*
X4512920Y-12543150D02*
X4531968Y-12552674D01*
X4531968Y-12552674D02*
X4541492Y-12571722D01*
X4541492Y-12571722D02*
X4541492Y-12590769D01*
X4541492Y-12590769D02*
X4446253Y-12609817D01*
X4617682Y-12666960D02*
X4636730Y-12676484D01*
X4636730Y-12676484D02*
X4674825Y-12676484D01*
X4674825Y-12676484D02*
X4693873Y-12666960D01*
X4693873Y-12666960D02*
X4703396Y-12647912D01*
X4703396Y-12647912D02*
X4703396Y-12638388D01*
X4703396Y-12638388D02*
X4693873Y-12619341D01*
X4693873Y-12619341D02*
X4674825Y-12609817D01*
X4674825Y-12609817D02*
X4646253Y-12609817D01*
X4646253Y-12609817D02*
X4627206Y-12600293D01*
X4627206Y-12600293D02*
X4617682Y-12581246D01*
X4617682Y-12581246D02*
X4617682Y-12571722D01*
X4617682Y-12571722D02*
X4627206Y-12552674D01*
X4627206Y-12552674D02*
X4646253Y-12543150D01*
X4646253Y-12543150D02*
X4674825Y-12543150D01*
X4674825Y-12543150D02*
X4693873Y-12552674D01*
X4770063Y-12752674D02*
X4779587Y-12743150D01*
X4779587Y-12743150D02*
X4798634Y-12714579D01*
X4798634Y-12714579D02*
X4808158Y-12695531D01*
X4808158Y-12695531D02*
X4817682Y-12666960D01*
X4817682Y-12666960D02*
X4827206Y-12619341D01*
X4827206Y-12619341D02*
X4827206Y-12581246D01*
X4827206Y-12581246D02*
X4817682Y-12533627D01*
X4817682Y-12533627D02*
X4808158Y-12505055D01*
X4808158Y-12505055D02*
X4798634Y-12486008D01*
X4798634Y-12486008D02*
X4779587Y-12457436D01*
X4779587Y-12457436D02*
X4770063Y-12447912D01*
D10*
X-5000Y-12849000D02*
G75*
G02*
X-85000Y-12849000I-40000J0D01*
G01*
X-85000Y-12849000D02*
G75*
G02*
X-5000Y-12849000I40000J0D01*
G01*
D11*
X293872Y-12740484D02*
X312920Y-12740484D01*
X312920Y-12740484D02*
X331967Y-12750008D01*
X331967Y-12750008D02*
X341491Y-12759531D01*
X341491Y-12759531D02*
X351015Y-12778579D01*
X351015Y-12778579D02*
X360539Y-12816674D01*
X360539Y-12816674D02*
X360539Y-12864293D01*
X360539Y-12864293D02*
X351015Y-12902388D01*
X351015Y-12902388D02*
X341491Y-12921436D01*
X341491Y-12921436D02*
X331967Y-12930960D01*
X331967Y-12930960D02*
X312920Y-12940484D01*
X312920Y-12940484D02*
X293872Y-12940484D01*
X293872Y-12940484D02*
X274824Y-12930960D01*
X274824Y-12930960D02*
X265301Y-12921436D01*
X265301Y-12921436D02*
X255777Y-12902388D01*
X255777Y-12902388D02*
X246253Y-12864293D01*
X246253Y-12864293D02*
X246253Y-12816674D01*
X246253Y-12816674D02*
X255777Y-12778579D01*
X255777Y-12778579D02*
X265301Y-12759531D01*
X265301Y-12759531D02*
X274824Y-12750008D01*
X274824Y-12750008D02*
X293872Y-12740484D01*
X446253Y-12921436D02*
X455777Y-12930960D01*
X455777Y-12930960D02*
X446253Y-12940484D01*
X446253Y-12940484D02*
X436729Y-12930960D01*
X436729Y-12930960D02*
X446253Y-12921436D01*
X446253Y-12921436D02*
X446253Y-12940484D01*
X570063Y-12826198D02*
X551015Y-12816674D01*
X551015Y-12816674D02*
X541491Y-12807150D01*
X541491Y-12807150D02*
X531967Y-12788103D01*
X531967Y-12788103D02*
X531967Y-12778579D01*
X531967Y-12778579D02*
X541491Y-12759531D01*
X541491Y-12759531D02*
X551015Y-12750008D01*
X551015Y-12750008D02*
X570063Y-12740484D01*
X570063Y-12740484D02*
X608158Y-12740484D01*
X608158Y-12740484D02*
X627205Y-12750008D01*
X627205Y-12750008D02*
X636729Y-12759531D01*
X636729Y-12759531D02*
X646253Y-12778579D01*
X646253Y-12778579D02*
X646253Y-12788103D01*
X646253Y-12788103D02*
X636729Y-12807150D01*
X636729Y-12807150D02*
X627205Y-12816674D01*
X627205Y-12816674D02*
X608158Y-12826198D01*
X608158Y-12826198D02*
X570063Y-12826198D01*
X570063Y-12826198D02*
X551015Y-12835722D01*
X551015Y-12835722D02*
X541491Y-12845246D01*
X541491Y-12845246D02*
X531967Y-12864293D01*
X531967Y-12864293D02*
X531967Y-12902388D01*
X531967Y-12902388D02*
X541491Y-12921436D01*
X541491Y-12921436D02*
X551015Y-12930960D01*
X551015Y-12930960D02*
X570063Y-12940484D01*
X570063Y-12940484D02*
X608158Y-12940484D01*
X608158Y-12940484D02*
X627205Y-12930960D01*
X627205Y-12930960D02*
X636729Y-12921436D01*
X636729Y-12921436D02*
X646253Y-12902388D01*
X646253Y-12902388D02*
X646253Y-12864293D01*
X646253Y-12864293D02*
X636729Y-12845246D01*
X636729Y-12845246D02*
X627205Y-12835722D01*
X627205Y-12835722D02*
X608158Y-12826198D01*
X770062Y-12740484D02*
X789110Y-12740484D01*
X789110Y-12740484D02*
X808158Y-12750008D01*
X808158Y-12750008D02*
X817682Y-12759531D01*
X817682Y-12759531D02*
X827205Y-12778579D01*
X827205Y-12778579D02*
X836729Y-12816674D01*
X836729Y-12816674D02*
X836729Y-12864293D01*
X836729Y-12864293D02*
X827205Y-12902388D01*
X827205Y-12902388D02*
X817682Y-12921436D01*
X817682Y-12921436D02*
X808158Y-12930960D01*
X808158Y-12930960D02*
X789110Y-12940484D01*
X789110Y-12940484D02*
X770062Y-12940484D01*
X770062Y-12940484D02*
X751015Y-12930960D01*
X751015Y-12930960D02*
X741491Y-12921436D01*
X741491Y-12921436D02*
X731967Y-12902388D01*
X731967Y-12902388D02*
X722443Y-12864293D01*
X722443Y-12864293D02*
X722443Y-12816674D01*
X722443Y-12816674D02*
X731967Y-12778579D01*
X731967Y-12778579D02*
X741491Y-12759531D01*
X741491Y-12759531D02*
X751015Y-12750008D01*
X751015Y-12750008D02*
X770062Y-12740484D01*
X960539Y-12740484D02*
X979586Y-12740484D01*
X979586Y-12740484D02*
X998634Y-12750008D01*
X998634Y-12750008D02*
X1008158Y-12759531D01*
X1008158Y-12759531D02*
X1017682Y-12778579D01*
X1017682Y-12778579D02*
X1027205Y-12816674D01*
X1027205Y-12816674D02*
X1027205Y-12864293D01*
X1027205Y-12864293D02*
X1017682Y-12902388D01*
X1017682Y-12902388D02*
X1008158Y-12921436D01*
X1008158Y-12921436D02*
X998634Y-12930960D01*
X998634Y-12930960D02*
X979586Y-12940484D01*
X979586Y-12940484D02*
X960539Y-12940484D01*
X960539Y-12940484D02*
X941491Y-12930960D01*
X941491Y-12930960D02*
X931967Y-12921436D01*
X931967Y-12921436D02*
X922443Y-12902388D01*
X922443Y-12902388D02*
X912920Y-12864293D01*
X912920Y-12864293D02*
X912920Y-12816674D01*
X912920Y-12816674D02*
X922443Y-12778579D01*
X922443Y-12778579D02*
X931967Y-12759531D01*
X931967Y-12759531D02*
X941491Y-12750008D01*
X941491Y-12750008D02*
X960539Y-12740484D01*
X1112920Y-12940484D02*
X1112920Y-12807150D01*
X1112920Y-12826198D02*
X1122444Y-12816674D01*
X1122444Y-12816674D02*
X1141491Y-12807150D01*
X1141491Y-12807150D02*
X1170063Y-12807150D01*
X1170063Y-12807150D02*
X1189110Y-12816674D01*
X1189110Y-12816674D02*
X1198634Y-12835722D01*
X1198634Y-12835722D02*
X1198634Y-12940484D01*
X1198634Y-12835722D02*
X1208158Y-12816674D01*
X1208158Y-12816674D02*
X1227205Y-12807150D01*
X1227205Y-12807150D02*
X1255777Y-12807150D01*
X1255777Y-12807150D02*
X1274825Y-12816674D01*
X1274825Y-12816674D02*
X1284348Y-12835722D01*
X1284348Y-12835722D02*
X1284348Y-12940484D01*
X1379586Y-12940484D02*
X1379586Y-12807150D01*
X1379586Y-12826198D02*
X1389110Y-12816674D01*
X1389110Y-12816674D02*
X1408158Y-12807150D01*
X1408158Y-12807150D02*
X1436729Y-12807150D01*
X1436729Y-12807150D02*
X1455777Y-12816674D01*
X1455777Y-12816674D02*
X1465301Y-12835722D01*
X1465301Y-12835722D02*
X1465301Y-12940484D01*
X1465301Y-12835722D02*
X1474824Y-12816674D01*
X1474824Y-12816674D02*
X1493872Y-12807150D01*
X1493872Y-12807150D02*
X1522443Y-12807150D01*
X1522443Y-12807150D02*
X1541491Y-12816674D01*
X1541491Y-12816674D02*
X1551015Y-12835722D01*
X1551015Y-12835722D02*
X1551015Y-12940484D01*
X1941491Y-12730960D02*
X1770063Y-12988103D01*
X2198634Y-12740484D02*
X2217682Y-12740484D01*
X2217682Y-12740484D02*
X2236729Y-12750008D01*
X2236729Y-12750008D02*
X2246253Y-12759531D01*
X2246253Y-12759531D02*
X2255777Y-12778579D01*
X2255777Y-12778579D02*
X2265301Y-12816674D01*
X2265301Y-12816674D02*
X2265301Y-12864293D01*
X2265301Y-12864293D02*
X2255777Y-12902388D01*
X2255777Y-12902388D02*
X2246253Y-12921436D01*
X2246253Y-12921436D02*
X2236729Y-12930960D01*
X2236729Y-12930960D02*
X2217682Y-12940484D01*
X2217682Y-12940484D02*
X2198634Y-12940484D01*
X2198634Y-12940484D02*
X2179587Y-12930960D01*
X2179587Y-12930960D02*
X2170063Y-12921436D01*
X2170063Y-12921436D02*
X2160539Y-12902388D01*
X2160539Y-12902388D02*
X2151015Y-12864293D01*
X2151015Y-12864293D02*
X2151015Y-12816674D01*
X2151015Y-12816674D02*
X2160539Y-12778579D01*
X2160539Y-12778579D02*
X2170063Y-12759531D01*
X2170063Y-12759531D02*
X2179587Y-12750008D01*
X2179587Y-12750008D02*
X2198634Y-12740484D01*
X2351015Y-12921436D02*
X2360539Y-12930960D01*
X2360539Y-12930960D02*
X2351015Y-12940484D01*
X2351015Y-12940484D02*
X2341491Y-12930960D01*
X2341491Y-12930960D02*
X2351015Y-12921436D01*
X2351015Y-12921436D02*
X2351015Y-12940484D01*
X2484348Y-12740484D02*
X2503396Y-12740484D01*
X2503396Y-12740484D02*
X2522444Y-12750008D01*
X2522444Y-12750008D02*
X2531968Y-12759531D01*
X2531968Y-12759531D02*
X2541491Y-12778579D01*
X2541491Y-12778579D02*
X2551015Y-12816674D01*
X2551015Y-12816674D02*
X2551015Y-12864293D01*
X2551015Y-12864293D02*
X2541491Y-12902388D01*
X2541491Y-12902388D02*
X2531968Y-12921436D01*
X2531968Y-12921436D02*
X2522444Y-12930960D01*
X2522444Y-12930960D02*
X2503396Y-12940484D01*
X2503396Y-12940484D02*
X2484348Y-12940484D01*
X2484348Y-12940484D02*
X2465301Y-12930960D01*
X2465301Y-12930960D02*
X2455777Y-12921436D01*
X2455777Y-12921436D02*
X2446253Y-12902388D01*
X2446253Y-12902388D02*
X2436729Y-12864293D01*
X2436729Y-12864293D02*
X2436729Y-12816674D01*
X2436729Y-12816674D02*
X2446253Y-12778579D01*
X2446253Y-12778579D02*
X2455777Y-12759531D01*
X2455777Y-12759531D02*
X2465301Y-12750008D01*
X2465301Y-12750008D02*
X2484348Y-12740484D01*
X2617682Y-12740484D02*
X2741491Y-12740484D01*
X2741491Y-12740484D02*
X2674825Y-12816674D01*
X2674825Y-12816674D02*
X2703396Y-12816674D01*
X2703396Y-12816674D02*
X2722444Y-12826198D01*
X2722444Y-12826198D02*
X2731968Y-12835722D01*
X2731968Y-12835722D02*
X2741491Y-12854769D01*
X2741491Y-12854769D02*
X2741491Y-12902388D01*
X2741491Y-12902388D02*
X2731968Y-12921436D01*
X2731968Y-12921436D02*
X2722444Y-12930960D01*
X2722444Y-12930960D02*
X2703396Y-12940484D01*
X2703396Y-12940484D02*
X2646253Y-12940484D01*
X2646253Y-12940484D02*
X2627206Y-12930960D01*
X2627206Y-12930960D02*
X2617682Y-12921436D01*
X2931967Y-12940484D02*
X2817682Y-12940484D01*
X2874825Y-12940484D02*
X2874825Y-12740484D01*
X2874825Y-12740484D02*
X2855777Y-12769055D01*
X2855777Y-12769055D02*
X2836729Y-12788103D01*
X2836729Y-12788103D02*
X2817682Y-12797627D01*
X3112920Y-12740484D02*
X3017682Y-12740484D01*
X3017682Y-12740484D02*
X3008158Y-12835722D01*
X3008158Y-12835722D02*
X3017682Y-12826198D01*
X3017682Y-12826198D02*
X3036729Y-12816674D01*
X3036729Y-12816674D02*
X3084348Y-12816674D01*
X3084348Y-12816674D02*
X3103396Y-12826198D01*
X3103396Y-12826198D02*
X3112920Y-12835722D01*
X3112920Y-12835722D02*
X3122444Y-12854769D01*
X3122444Y-12854769D02*
X3122444Y-12902388D01*
X3122444Y-12902388D02*
X3112920Y-12921436D01*
X3112920Y-12921436D02*
X3103396Y-12930960D01*
X3103396Y-12930960D02*
X3084348Y-12940484D01*
X3084348Y-12940484D02*
X3036729Y-12940484D01*
X3036729Y-12940484D02*
X3017682Y-12930960D01*
X3017682Y-12930960D02*
X3008158Y-12921436D01*
X3198634Y-12740484D02*
X3198634Y-12778579D01*
X3274825Y-12740484D02*
X3274825Y-12778579D01*
X3570063Y-13016674D02*
X3560539Y-13007150D01*
X3560539Y-13007150D02*
X3541491Y-12978579D01*
X3541491Y-12978579D02*
X3531968Y-12959531D01*
X3531968Y-12959531D02*
X3522444Y-12930960D01*
X3522444Y-12930960D02*
X3512920Y-12883341D01*
X3512920Y-12883341D02*
X3512920Y-12845246D01*
X3512920Y-12845246D02*
X3522444Y-12797627D01*
X3522444Y-12797627D02*
X3531968Y-12769055D01*
X3531968Y-12769055D02*
X3541491Y-12750008D01*
X3541491Y-12750008D02*
X3560539Y-12721436D01*
X3560539Y-12721436D02*
X3570063Y-12711912D01*
X3731968Y-12807150D02*
X3731968Y-12940484D01*
X3684348Y-12730960D02*
X3636729Y-12873817D01*
X3636729Y-12873817D02*
X3760539Y-12873817D01*
X3827206Y-12759531D02*
X3836729Y-12750008D01*
X3836729Y-12750008D02*
X3855777Y-12740484D01*
X3855777Y-12740484D02*
X3903396Y-12740484D01*
X3903396Y-12740484D02*
X3922444Y-12750008D01*
X3922444Y-12750008D02*
X3931968Y-12759531D01*
X3931968Y-12759531D02*
X3941491Y-12778579D01*
X3941491Y-12778579D02*
X3941491Y-12797627D01*
X3941491Y-12797627D02*
X3931968Y-12826198D01*
X3931968Y-12826198D02*
X3817682Y-12940484D01*
X3817682Y-12940484D02*
X3941491Y-12940484D01*
X4179587Y-12940484D02*
X4179587Y-12740484D01*
X4265301Y-12940484D02*
X4265301Y-12835722D01*
X4265301Y-12835722D02*
X4255777Y-12816674D01*
X4255777Y-12816674D02*
X4236730Y-12807150D01*
X4236730Y-12807150D02*
X4208158Y-12807150D01*
X4208158Y-12807150D02*
X4189110Y-12816674D01*
X4189110Y-12816674D02*
X4179587Y-12826198D01*
X4389111Y-12940484D02*
X4370063Y-12930960D01*
X4370063Y-12930960D02*
X4360539Y-12921436D01*
X4360539Y-12921436D02*
X4351015Y-12902388D01*
X4351015Y-12902388D02*
X4351015Y-12845246D01*
X4351015Y-12845246D02*
X4360539Y-12826198D01*
X4360539Y-12826198D02*
X4370063Y-12816674D01*
X4370063Y-12816674D02*
X4389111Y-12807150D01*
X4389111Y-12807150D02*
X4417682Y-12807150D01*
X4417682Y-12807150D02*
X4436730Y-12816674D01*
X4436730Y-12816674D02*
X4446253Y-12826198D01*
X4446253Y-12826198D02*
X4455777Y-12845246D01*
X4455777Y-12845246D02*
X4455777Y-12902388D01*
X4455777Y-12902388D02*
X4446253Y-12921436D01*
X4446253Y-12921436D02*
X4436730Y-12930960D01*
X4436730Y-12930960D02*
X4417682Y-12940484D01*
X4417682Y-12940484D02*
X4389111Y-12940484D01*
X4570063Y-12940484D02*
X4551015Y-12930960D01*
X4551015Y-12930960D02*
X4541492Y-12911912D01*
X4541492Y-12911912D02*
X4541492Y-12740484D01*
X4722444Y-12930960D02*
X4703396Y-12940484D01*
X4703396Y-12940484D02*
X4665301Y-12940484D01*
X4665301Y-12940484D02*
X4646253Y-12930960D01*
X4646253Y-12930960D02*
X4636730Y-12911912D01*
X4636730Y-12911912D02*
X4636730Y-12835722D01*
X4636730Y-12835722D02*
X4646253Y-12816674D01*
X4646253Y-12816674D02*
X4665301Y-12807150D01*
X4665301Y-12807150D02*
X4703396Y-12807150D01*
X4703396Y-12807150D02*
X4722444Y-12816674D01*
X4722444Y-12816674D02*
X4731968Y-12835722D01*
X4731968Y-12835722D02*
X4731968Y-12854769D01*
X4731968Y-12854769D02*
X4636730Y-12873817D01*
X4808158Y-12930960D02*
X4827206Y-12940484D01*
X4827206Y-12940484D02*
X4865301Y-12940484D01*
X4865301Y-12940484D02*
X4884349Y-12930960D01*
X4884349Y-12930960D02*
X4893873Y-12911912D01*
X4893873Y-12911912D02*
X4893873Y-12902388D01*
X4893873Y-12902388D02*
X4884349Y-12883341D01*
X4884349Y-12883341D02*
X4865301Y-12873817D01*
X4865301Y-12873817D02*
X4836730Y-12873817D01*
X4836730Y-12873817D02*
X4817682Y-12864293D01*
X4817682Y-12864293D02*
X4808158Y-12845246D01*
X4808158Y-12845246D02*
X4808158Y-12835722D01*
X4808158Y-12835722D02*
X4817682Y-12816674D01*
X4817682Y-12816674D02*
X4836730Y-12807150D01*
X4836730Y-12807150D02*
X4865301Y-12807150D01*
X4865301Y-12807150D02*
X4884349Y-12816674D01*
X4960539Y-13016674D02*
X4970063Y-13007150D01*
X4970063Y-13007150D02*
X4989111Y-12978579D01*
X4989111Y-12978579D02*
X4998634Y-12959531D01*
X4998634Y-12959531D02*
X5008158Y-12930960D01*
X5008158Y-12930960D02*
X5017682Y-12883341D01*
X5017682Y-12883341D02*
X5017682Y-12845246D01*
X5017682Y-12845246D02*
X5008158Y-12797627D01*
X5008158Y-12797627D02*
X4998634Y-12769055D01*
X4998634Y-12769055D02*
X4989111Y-12750008D01*
X4989111Y-12750008D02*
X4970063Y-12721436D01*
X4970063Y-12721436D02*
X4960539Y-12711912D01*
D10*
X-55000Y-13063000D02*
X-55000Y-13163000D01*
X-105000Y-13113000D02*
X-5000Y-13113000D01*
D11*
X360539Y-13204484D02*
X246253Y-13204484D01*
X303396Y-13204484D02*
X303396Y-13004484D01*
X303396Y-13004484D02*
X284348Y-13033055D01*
X284348Y-13033055D02*
X265301Y-13052103D01*
X265301Y-13052103D02*
X246253Y-13061627D01*
X446253Y-13185436D02*
X455777Y-13194960D01*
X455777Y-13194960D02*
X446253Y-13204484D01*
X446253Y-13204484D02*
X436729Y-13194960D01*
X436729Y-13194960D02*
X446253Y-13185436D01*
X446253Y-13185436D02*
X446253Y-13204484D01*
X579586Y-13004484D02*
X598634Y-13004484D01*
X598634Y-13004484D02*
X617682Y-13014008D01*
X617682Y-13014008D02*
X627205Y-13023531D01*
X627205Y-13023531D02*
X636729Y-13042579D01*
X636729Y-13042579D02*
X646253Y-13080674D01*
X646253Y-13080674D02*
X646253Y-13128293D01*
X646253Y-13128293D02*
X636729Y-13166388D01*
X636729Y-13166388D02*
X627205Y-13185436D01*
X627205Y-13185436D02*
X617682Y-13194960D01*
X617682Y-13194960D02*
X598634Y-13204484D01*
X598634Y-13204484D02*
X579586Y-13204484D01*
X579586Y-13204484D02*
X560539Y-13194960D01*
X560539Y-13194960D02*
X551015Y-13185436D01*
X551015Y-13185436D02*
X541491Y-13166388D01*
X541491Y-13166388D02*
X531967Y-13128293D01*
X531967Y-13128293D02*
X531967Y-13080674D01*
X531967Y-13080674D02*
X541491Y-13042579D01*
X541491Y-13042579D02*
X551015Y-13023531D01*
X551015Y-13023531D02*
X560539Y-13014008D01*
X560539Y-13014008D02*
X579586Y-13004484D01*
X770062Y-13004484D02*
X789110Y-13004484D01*
X789110Y-13004484D02*
X808158Y-13014008D01*
X808158Y-13014008D02*
X817682Y-13023531D01*
X817682Y-13023531D02*
X827205Y-13042579D01*
X827205Y-13042579D02*
X836729Y-13080674D01*
X836729Y-13080674D02*
X836729Y-13128293D01*
X836729Y-13128293D02*
X827205Y-13166388D01*
X827205Y-13166388D02*
X817682Y-13185436D01*
X817682Y-13185436D02*
X808158Y-13194960D01*
X808158Y-13194960D02*
X789110Y-13204484D01*
X789110Y-13204484D02*
X770062Y-13204484D01*
X770062Y-13204484D02*
X751015Y-13194960D01*
X751015Y-13194960D02*
X741491Y-13185436D01*
X741491Y-13185436D02*
X731967Y-13166388D01*
X731967Y-13166388D02*
X722443Y-13128293D01*
X722443Y-13128293D02*
X722443Y-13080674D01*
X722443Y-13080674D02*
X731967Y-13042579D01*
X731967Y-13042579D02*
X741491Y-13023531D01*
X741491Y-13023531D02*
X751015Y-13014008D01*
X751015Y-13014008D02*
X770062Y-13004484D01*
X960539Y-13004484D02*
X979586Y-13004484D01*
X979586Y-13004484D02*
X998634Y-13014008D01*
X998634Y-13014008D02*
X1008158Y-13023531D01*
X1008158Y-13023531D02*
X1017682Y-13042579D01*
X1017682Y-13042579D02*
X1027205Y-13080674D01*
X1027205Y-13080674D02*
X1027205Y-13128293D01*
X1027205Y-13128293D02*
X1017682Y-13166388D01*
X1017682Y-13166388D02*
X1008158Y-13185436D01*
X1008158Y-13185436D02*
X998634Y-13194960D01*
X998634Y-13194960D02*
X979586Y-13204484D01*
X979586Y-13204484D02*
X960539Y-13204484D01*
X960539Y-13204484D02*
X941491Y-13194960D01*
X941491Y-13194960D02*
X931967Y-13185436D01*
X931967Y-13185436D02*
X922443Y-13166388D01*
X922443Y-13166388D02*
X912920Y-13128293D01*
X912920Y-13128293D02*
X912920Y-13080674D01*
X912920Y-13080674D02*
X922443Y-13042579D01*
X922443Y-13042579D02*
X931967Y-13023531D01*
X931967Y-13023531D02*
X941491Y-13014008D01*
X941491Y-13014008D02*
X960539Y-13004484D01*
X1112920Y-13204484D02*
X1112920Y-13071150D01*
X1112920Y-13090198D02*
X1122444Y-13080674D01*
X1122444Y-13080674D02*
X1141491Y-13071150D01*
X1141491Y-13071150D02*
X1170063Y-13071150D01*
X1170063Y-13071150D02*
X1189110Y-13080674D01*
X1189110Y-13080674D02*
X1198634Y-13099722D01*
X1198634Y-13099722D02*
X1198634Y-13204484D01*
X1198634Y-13099722D02*
X1208158Y-13080674D01*
X1208158Y-13080674D02*
X1227205Y-13071150D01*
X1227205Y-13071150D02*
X1255777Y-13071150D01*
X1255777Y-13071150D02*
X1274825Y-13080674D01*
X1274825Y-13080674D02*
X1284348Y-13099722D01*
X1284348Y-13099722D02*
X1284348Y-13204484D01*
X1379586Y-13204484D02*
X1379586Y-13071150D01*
X1379586Y-13090198D02*
X1389110Y-13080674D01*
X1389110Y-13080674D02*
X1408158Y-13071150D01*
X1408158Y-13071150D02*
X1436729Y-13071150D01*
X1436729Y-13071150D02*
X1455777Y-13080674D01*
X1455777Y-13080674D02*
X1465301Y-13099722D01*
X1465301Y-13099722D02*
X1465301Y-13204484D01*
X1465301Y-13099722D02*
X1474824Y-13080674D01*
X1474824Y-13080674D02*
X1493872Y-13071150D01*
X1493872Y-13071150D02*
X1522443Y-13071150D01*
X1522443Y-13071150D02*
X1541491Y-13080674D01*
X1541491Y-13080674D02*
X1551015Y-13099722D01*
X1551015Y-13099722D02*
X1551015Y-13204484D01*
X1941491Y-12994960D02*
X1770063Y-13252103D01*
X2198634Y-13004484D02*
X2217682Y-13004484D01*
X2217682Y-13004484D02*
X2236729Y-13014008D01*
X2236729Y-13014008D02*
X2246253Y-13023531D01*
X2246253Y-13023531D02*
X2255777Y-13042579D01*
X2255777Y-13042579D02*
X2265301Y-13080674D01*
X2265301Y-13080674D02*
X2265301Y-13128293D01*
X2265301Y-13128293D02*
X2255777Y-13166388D01*
X2255777Y-13166388D02*
X2246253Y-13185436D01*
X2246253Y-13185436D02*
X2236729Y-13194960D01*
X2236729Y-13194960D02*
X2217682Y-13204484D01*
X2217682Y-13204484D02*
X2198634Y-13204484D01*
X2198634Y-13204484D02*
X2179587Y-13194960D01*
X2179587Y-13194960D02*
X2170063Y-13185436D01*
X2170063Y-13185436D02*
X2160539Y-13166388D01*
X2160539Y-13166388D02*
X2151015Y-13128293D01*
X2151015Y-13128293D02*
X2151015Y-13080674D01*
X2151015Y-13080674D02*
X2160539Y-13042579D01*
X2160539Y-13042579D02*
X2170063Y-13023531D01*
X2170063Y-13023531D02*
X2179587Y-13014008D01*
X2179587Y-13014008D02*
X2198634Y-13004484D01*
X2351015Y-13185436D02*
X2360539Y-13194960D01*
X2360539Y-13194960D02*
X2351015Y-13204484D01*
X2351015Y-13204484D02*
X2341491Y-13194960D01*
X2341491Y-13194960D02*
X2351015Y-13185436D01*
X2351015Y-13185436D02*
X2351015Y-13204484D01*
X2484348Y-13004484D02*
X2503396Y-13004484D01*
X2503396Y-13004484D02*
X2522444Y-13014008D01*
X2522444Y-13014008D02*
X2531968Y-13023531D01*
X2531968Y-13023531D02*
X2541491Y-13042579D01*
X2541491Y-13042579D02*
X2551015Y-13080674D01*
X2551015Y-13080674D02*
X2551015Y-13128293D01*
X2551015Y-13128293D02*
X2541491Y-13166388D01*
X2541491Y-13166388D02*
X2531968Y-13185436D01*
X2531968Y-13185436D02*
X2522444Y-13194960D01*
X2522444Y-13194960D02*
X2503396Y-13204484D01*
X2503396Y-13204484D02*
X2484348Y-13204484D01*
X2484348Y-13204484D02*
X2465301Y-13194960D01*
X2465301Y-13194960D02*
X2455777Y-13185436D01*
X2455777Y-13185436D02*
X2446253Y-13166388D01*
X2446253Y-13166388D02*
X2436729Y-13128293D01*
X2436729Y-13128293D02*
X2436729Y-13080674D01*
X2436729Y-13080674D02*
X2446253Y-13042579D01*
X2446253Y-13042579D02*
X2455777Y-13023531D01*
X2455777Y-13023531D02*
X2465301Y-13014008D01*
X2465301Y-13014008D02*
X2484348Y-13004484D01*
X2617682Y-13004484D02*
X2741491Y-13004484D01*
X2741491Y-13004484D02*
X2674825Y-13080674D01*
X2674825Y-13080674D02*
X2703396Y-13080674D01*
X2703396Y-13080674D02*
X2722444Y-13090198D01*
X2722444Y-13090198D02*
X2731968Y-13099722D01*
X2731968Y-13099722D02*
X2741491Y-13118769D01*
X2741491Y-13118769D02*
X2741491Y-13166388D01*
X2741491Y-13166388D02*
X2731968Y-13185436D01*
X2731968Y-13185436D02*
X2722444Y-13194960D01*
X2722444Y-13194960D02*
X2703396Y-13204484D01*
X2703396Y-13204484D02*
X2646253Y-13204484D01*
X2646253Y-13204484D02*
X2627206Y-13194960D01*
X2627206Y-13194960D02*
X2617682Y-13185436D01*
X2836729Y-13204484D02*
X2874825Y-13204484D01*
X2874825Y-13204484D02*
X2893872Y-13194960D01*
X2893872Y-13194960D02*
X2903396Y-13185436D01*
X2903396Y-13185436D02*
X2922444Y-13156865D01*
X2922444Y-13156865D02*
X2931967Y-13118769D01*
X2931967Y-13118769D02*
X2931967Y-13042579D01*
X2931967Y-13042579D02*
X2922444Y-13023531D01*
X2922444Y-13023531D02*
X2912920Y-13014008D01*
X2912920Y-13014008D02*
X2893872Y-13004484D01*
X2893872Y-13004484D02*
X2855777Y-13004484D01*
X2855777Y-13004484D02*
X2836729Y-13014008D01*
X2836729Y-13014008D02*
X2827206Y-13023531D01*
X2827206Y-13023531D02*
X2817682Y-13042579D01*
X2817682Y-13042579D02*
X2817682Y-13090198D01*
X2817682Y-13090198D02*
X2827206Y-13109246D01*
X2827206Y-13109246D02*
X2836729Y-13118769D01*
X2836729Y-13118769D02*
X2855777Y-13128293D01*
X2855777Y-13128293D02*
X2893872Y-13128293D01*
X2893872Y-13128293D02*
X2912920Y-13118769D01*
X2912920Y-13118769D02*
X2922444Y-13109246D01*
X2922444Y-13109246D02*
X2931967Y-13090198D01*
X3103396Y-13071150D02*
X3103396Y-13204484D01*
X3055777Y-12994960D02*
X3008158Y-13137817D01*
X3008158Y-13137817D02*
X3131967Y-13137817D01*
X3198634Y-13004484D02*
X3198634Y-13042579D01*
X3274825Y-13004484D02*
X3274825Y-13042579D01*
X3570063Y-13280674D02*
X3560539Y-13271150D01*
X3560539Y-13271150D02*
X3541491Y-13242579D01*
X3541491Y-13242579D02*
X3531968Y-13223531D01*
X3531968Y-13223531D02*
X3522444Y-13194960D01*
X3522444Y-13194960D02*
X3512920Y-13147341D01*
X3512920Y-13147341D02*
X3512920Y-13109246D01*
X3512920Y-13109246D02*
X3522444Y-13061627D01*
X3522444Y-13061627D02*
X3531968Y-13033055D01*
X3531968Y-13033055D02*
X3541491Y-13014008D01*
X3541491Y-13014008D02*
X3560539Y-12985436D01*
X3560539Y-12985436D02*
X3570063Y-12975912D01*
X3636729Y-13023531D02*
X3646253Y-13014008D01*
X3646253Y-13014008D02*
X3665301Y-13004484D01*
X3665301Y-13004484D02*
X3712920Y-13004484D01*
X3712920Y-13004484D02*
X3731968Y-13014008D01*
X3731968Y-13014008D02*
X3741491Y-13023531D01*
X3741491Y-13023531D02*
X3751015Y-13042579D01*
X3751015Y-13042579D02*
X3751015Y-13061627D01*
X3751015Y-13061627D02*
X3741491Y-13090198D01*
X3741491Y-13090198D02*
X3627206Y-13204484D01*
X3627206Y-13204484D02*
X3751015Y-13204484D01*
X3827206Y-13023531D02*
X3836729Y-13014008D01*
X3836729Y-13014008D02*
X3855777Y-13004484D01*
X3855777Y-13004484D02*
X3903396Y-13004484D01*
X3903396Y-13004484D02*
X3922444Y-13014008D01*
X3922444Y-13014008D02*
X3931968Y-13023531D01*
X3931968Y-13023531D02*
X3941491Y-13042579D01*
X3941491Y-13042579D02*
X3941491Y-13061627D01*
X3941491Y-13061627D02*
X3931968Y-13090198D01*
X3931968Y-13090198D02*
X3817682Y-13204484D01*
X3817682Y-13204484D02*
X3941491Y-13204484D01*
X4179587Y-13204484D02*
X4179587Y-13004484D01*
X4265301Y-13204484D02*
X4265301Y-13099722D01*
X4265301Y-13099722D02*
X4255777Y-13080674D01*
X4255777Y-13080674D02*
X4236730Y-13071150D01*
X4236730Y-13071150D02*
X4208158Y-13071150D01*
X4208158Y-13071150D02*
X4189110Y-13080674D01*
X4189110Y-13080674D02*
X4179587Y-13090198D01*
X4389111Y-13204484D02*
X4370063Y-13194960D01*
X4370063Y-13194960D02*
X4360539Y-13185436D01*
X4360539Y-13185436D02*
X4351015Y-13166388D01*
X4351015Y-13166388D02*
X4351015Y-13109246D01*
X4351015Y-13109246D02*
X4360539Y-13090198D01*
X4360539Y-13090198D02*
X4370063Y-13080674D01*
X4370063Y-13080674D02*
X4389111Y-13071150D01*
X4389111Y-13071150D02*
X4417682Y-13071150D01*
X4417682Y-13071150D02*
X4436730Y-13080674D01*
X4436730Y-13080674D02*
X4446253Y-13090198D01*
X4446253Y-13090198D02*
X4455777Y-13109246D01*
X4455777Y-13109246D02*
X4455777Y-13166388D01*
X4455777Y-13166388D02*
X4446253Y-13185436D01*
X4446253Y-13185436D02*
X4436730Y-13194960D01*
X4436730Y-13194960D02*
X4417682Y-13204484D01*
X4417682Y-13204484D02*
X4389111Y-13204484D01*
X4570063Y-13204484D02*
X4551015Y-13194960D01*
X4551015Y-13194960D02*
X4541492Y-13175912D01*
X4541492Y-13175912D02*
X4541492Y-13004484D01*
X4722444Y-13194960D02*
X4703396Y-13204484D01*
X4703396Y-13204484D02*
X4665301Y-13204484D01*
X4665301Y-13204484D02*
X4646253Y-13194960D01*
X4646253Y-13194960D02*
X4636730Y-13175912D01*
X4636730Y-13175912D02*
X4636730Y-13099722D01*
X4636730Y-13099722D02*
X4646253Y-13080674D01*
X4646253Y-13080674D02*
X4665301Y-13071150D01*
X4665301Y-13071150D02*
X4703396Y-13071150D01*
X4703396Y-13071150D02*
X4722444Y-13080674D01*
X4722444Y-13080674D02*
X4731968Y-13099722D01*
X4731968Y-13099722D02*
X4731968Y-13118769D01*
X4731968Y-13118769D02*
X4636730Y-13137817D01*
X4808158Y-13194960D02*
X4827206Y-13204484D01*
X4827206Y-13204484D02*
X4865301Y-13204484D01*
X4865301Y-13204484D02*
X4884349Y-13194960D01*
X4884349Y-13194960D02*
X4893873Y-13175912D01*
X4893873Y-13175912D02*
X4893873Y-13166388D01*
X4893873Y-13166388D02*
X4884349Y-13147341D01*
X4884349Y-13147341D02*
X4865301Y-13137817D01*
X4865301Y-13137817D02*
X4836730Y-13137817D01*
X4836730Y-13137817D02*
X4817682Y-13128293D01*
X4817682Y-13128293D02*
X4808158Y-13109246D01*
X4808158Y-13109246D02*
X4808158Y-13099722D01*
X4808158Y-13099722D02*
X4817682Y-13080674D01*
X4817682Y-13080674D02*
X4836730Y-13071150D01*
X4836730Y-13071150D02*
X4865301Y-13071150D01*
X4865301Y-13071150D02*
X4884349Y-13080674D01*
X4960539Y-13280674D02*
X4970063Y-13271150D01*
X4970063Y-13271150D02*
X4989111Y-13242579D01*
X4989111Y-13242579D02*
X4998634Y-13223531D01*
X4998634Y-13223531D02*
X5008158Y-13194960D01*
X5008158Y-13194960D02*
X5017682Y-13147341D01*
X5017682Y-13147341D02*
X5017682Y-13109246D01*
X5017682Y-13109246D02*
X5008158Y-13061627D01*
X5008158Y-13061627D02*
X4998634Y-13033055D01*
X4998634Y-13033055D02*
X4989111Y-13014008D01*
X4989111Y-13014008D02*
X4970063Y-12985436D01*
X4970063Y-12985436D02*
X4960539Y-12975912D01*
D12*
X-21109Y-13415891D02*
X-21109Y-13338109D01*
X-98891Y-13338109D01*
X-98891Y-13415891D01*
X-21109Y-13415891D01*
D11*
X360539Y-13468484D02*
X246253Y-13468484D01*
X303396Y-13468484D02*
X303396Y-13268484D01*
X303396Y-13268484D02*
X284348Y-13297055D01*
X284348Y-13297055D02*
X265301Y-13316103D01*
X265301Y-13316103D02*
X246253Y-13325627D01*
X446253Y-13449436D02*
X455777Y-13458960D01*
X455777Y-13458960D02*
X446253Y-13468484D01*
X446253Y-13468484D02*
X436729Y-13458960D01*
X436729Y-13458960D02*
X446253Y-13449436D01*
X446253Y-13449436D02*
X446253Y-13468484D01*
X646253Y-13468484D02*
X531967Y-13468484D01*
X589110Y-13468484D02*
X589110Y-13268484D01*
X589110Y-13268484D02*
X570063Y-13297055D01*
X570063Y-13297055D02*
X551015Y-13316103D01*
X551015Y-13316103D02*
X531967Y-13325627D01*
X770062Y-13268484D02*
X789110Y-13268484D01*
X789110Y-13268484D02*
X808158Y-13278008D01*
X808158Y-13278008D02*
X817682Y-13287531D01*
X817682Y-13287531D02*
X827205Y-13306579D01*
X827205Y-13306579D02*
X836729Y-13344674D01*
X836729Y-13344674D02*
X836729Y-13392293D01*
X836729Y-13392293D02*
X827205Y-13430388D01*
X827205Y-13430388D02*
X817682Y-13449436D01*
X817682Y-13449436D02*
X808158Y-13458960D01*
X808158Y-13458960D02*
X789110Y-13468484D01*
X789110Y-13468484D02*
X770062Y-13468484D01*
X770062Y-13468484D02*
X751015Y-13458960D01*
X751015Y-13458960D02*
X741491Y-13449436D01*
X741491Y-13449436D02*
X731967Y-13430388D01*
X731967Y-13430388D02*
X722443Y-13392293D01*
X722443Y-13392293D02*
X722443Y-13344674D01*
X722443Y-13344674D02*
X731967Y-13306579D01*
X731967Y-13306579D02*
X741491Y-13287531D01*
X741491Y-13287531D02*
X751015Y-13278008D01*
X751015Y-13278008D02*
X770062Y-13268484D01*
X960539Y-13268484D02*
X979586Y-13268484D01*
X979586Y-13268484D02*
X998634Y-13278008D01*
X998634Y-13278008D02*
X1008158Y-13287531D01*
X1008158Y-13287531D02*
X1017682Y-13306579D01*
X1017682Y-13306579D02*
X1027205Y-13344674D01*
X1027205Y-13344674D02*
X1027205Y-13392293D01*
X1027205Y-13392293D02*
X1017682Y-13430388D01*
X1017682Y-13430388D02*
X1008158Y-13449436D01*
X1008158Y-13449436D02*
X998634Y-13458960D01*
X998634Y-13458960D02*
X979586Y-13468484D01*
X979586Y-13468484D02*
X960539Y-13468484D01*
X960539Y-13468484D02*
X941491Y-13458960D01*
X941491Y-13458960D02*
X931967Y-13449436D01*
X931967Y-13449436D02*
X922443Y-13430388D01*
X922443Y-13430388D02*
X912920Y-13392293D01*
X912920Y-13392293D02*
X912920Y-13344674D01*
X912920Y-13344674D02*
X922443Y-13306579D01*
X922443Y-13306579D02*
X931967Y-13287531D01*
X931967Y-13287531D02*
X941491Y-13278008D01*
X941491Y-13278008D02*
X960539Y-13268484D01*
X1112920Y-13468484D02*
X1112920Y-13335150D01*
X1112920Y-13354198D02*
X1122444Y-13344674D01*
X1122444Y-13344674D02*
X1141491Y-13335150D01*
X1141491Y-13335150D02*
X1170063Y-13335150D01*
X1170063Y-13335150D02*
X1189110Y-13344674D01*
X1189110Y-13344674D02*
X1198634Y-13363722D01*
X1198634Y-13363722D02*
X1198634Y-13468484D01*
X1198634Y-13363722D02*
X1208158Y-13344674D01*
X1208158Y-13344674D02*
X1227205Y-13335150D01*
X1227205Y-13335150D02*
X1255777Y-13335150D01*
X1255777Y-13335150D02*
X1274825Y-13344674D01*
X1274825Y-13344674D02*
X1284348Y-13363722D01*
X1284348Y-13363722D02*
X1284348Y-13468484D01*
X1379586Y-13468484D02*
X1379586Y-13335150D01*
X1379586Y-13354198D02*
X1389110Y-13344674D01*
X1389110Y-13344674D02*
X1408158Y-13335150D01*
X1408158Y-13335150D02*
X1436729Y-13335150D01*
X1436729Y-13335150D02*
X1455777Y-13344674D01*
X1455777Y-13344674D02*
X1465301Y-13363722D01*
X1465301Y-13363722D02*
X1465301Y-13468484D01*
X1465301Y-13363722D02*
X1474824Y-13344674D01*
X1474824Y-13344674D02*
X1493872Y-13335150D01*
X1493872Y-13335150D02*
X1522443Y-13335150D01*
X1522443Y-13335150D02*
X1541491Y-13344674D01*
X1541491Y-13344674D02*
X1551015Y-13363722D01*
X1551015Y-13363722D02*
X1551015Y-13468484D01*
X1941491Y-13258960D02*
X1770063Y-13516103D01*
X2198634Y-13268484D02*
X2217682Y-13268484D01*
X2217682Y-13268484D02*
X2236729Y-13278008D01*
X2236729Y-13278008D02*
X2246253Y-13287531D01*
X2246253Y-13287531D02*
X2255777Y-13306579D01*
X2255777Y-13306579D02*
X2265301Y-13344674D01*
X2265301Y-13344674D02*
X2265301Y-13392293D01*
X2265301Y-13392293D02*
X2255777Y-13430388D01*
X2255777Y-13430388D02*
X2246253Y-13449436D01*
X2246253Y-13449436D02*
X2236729Y-13458960D01*
X2236729Y-13458960D02*
X2217682Y-13468484D01*
X2217682Y-13468484D02*
X2198634Y-13468484D01*
X2198634Y-13468484D02*
X2179587Y-13458960D01*
X2179587Y-13458960D02*
X2170063Y-13449436D01*
X2170063Y-13449436D02*
X2160539Y-13430388D01*
X2160539Y-13430388D02*
X2151015Y-13392293D01*
X2151015Y-13392293D02*
X2151015Y-13344674D01*
X2151015Y-13344674D02*
X2160539Y-13306579D01*
X2160539Y-13306579D02*
X2170063Y-13287531D01*
X2170063Y-13287531D02*
X2179587Y-13278008D01*
X2179587Y-13278008D02*
X2198634Y-13268484D01*
X2351015Y-13449436D02*
X2360539Y-13458960D01*
X2360539Y-13458960D02*
X2351015Y-13468484D01*
X2351015Y-13468484D02*
X2341491Y-13458960D01*
X2341491Y-13458960D02*
X2351015Y-13449436D01*
X2351015Y-13449436D02*
X2351015Y-13468484D01*
X2484348Y-13268484D02*
X2503396Y-13268484D01*
X2503396Y-13268484D02*
X2522444Y-13278008D01*
X2522444Y-13278008D02*
X2531968Y-13287531D01*
X2531968Y-13287531D02*
X2541491Y-13306579D01*
X2541491Y-13306579D02*
X2551015Y-13344674D01*
X2551015Y-13344674D02*
X2551015Y-13392293D01*
X2551015Y-13392293D02*
X2541491Y-13430388D01*
X2541491Y-13430388D02*
X2531968Y-13449436D01*
X2531968Y-13449436D02*
X2522444Y-13458960D01*
X2522444Y-13458960D02*
X2503396Y-13468484D01*
X2503396Y-13468484D02*
X2484348Y-13468484D01*
X2484348Y-13468484D02*
X2465301Y-13458960D01*
X2465301Y-13458960D02*
X2455777Y-13449436D01*
X2455777Y-13449436D02*
X2446253Y-13430388D01*
X2446253Y-13430388D02*
X2436729Y-13392293D01*
X2436729Y-13392293D02*
X2436729Y-13344674D01*
X2436729Y-13344674D02*
X2446253Y-13306579D01*
X2446253Y-13306579D02*
X2455777Y-13287531D01*
X2455777Y-13287531D02*
X2465301Y-13278008D01*
X2465301Y-13278008D02*
X2484348Y-13268484D01*
X2722444Y-13335150D02*
X2722444Y-13468484D01*
X2674825Y-13258960D02*
X2627206Y-13401817D01*
X2627206Y-13401817D02*
X2751015Y-13401817D01*
X2808158Y-13268484D02*
X2931967Y-13268484D01*
X2931967Y-13268484D02*
X2865301Y-13344674D01*
X2865301Y-13344674D02*
X2893872Y-13344674D01*
X2893872Y-13344674D02*
X2912920Y-13354198D01*
X2912920Y-13354198D02*
X2922444Y-13363722D01*
X2922444Y-13363722D02*
X2931967Y-13382769D01*
X2931967Y-13382769D02*
X2931967Y-13430388D01*
X2931967Y-13430388D02*
X2922444Y-13449436D01*
X2922444Y-13449436D02*
X2912920Y-13458960D01*
X2912920Y-13458960D02*
X2893872Y-13468484D01*
X2893872Y-13468484D02*
X2836729Y-13468484D01*
X2836729Y-13468484D02*
X2817682Y-13458960D01*
X2817682Y-13458960D02*
X2808158Y-13449436D01*
X2998634Y-13268484D02*
X3122444Y-13268484D01*
X3122444Y-13268484D02*
X3055777Y-13344674D01*
X3055777Y-13344674D02*
X3084348Y-13344674D01*
X3084348Y-13344674D02*
X3103396Y-13354198D01*
X3103396Y-13354198D02*
X3112920Y-13363722D01*
X3112920Y-13363722D02*
X3122444Y-13382769D01*
X3122444Y-13382769D02*
X3122444Y-13430388D01*
X3122444Y-13430388D02*
X3112920Y-13449436D01*
X3112920Y-13449436D02*
X3103396Y-13458960D01*
X3103396Y-13458960D02*
X3084348Y-13468484D01*
X3084348Y-13468484D02*
X3027206Y-13468484D01*
X3027206Y-13468484D02*
X3008158Y-13458960D01*
X3008158Y-13458960D02*
X2998634Y-13449436D01*
X3198634Y-13268484D02*
X3198634Y-13306579D01*
X3274825Y-13268484D02*
X3274825Y-13306579D01*
X3570063Y-13544674D02*
X3560539Y-13535150D01*
X3560539Y-13535150D02*
X3541491Y-13506579D01*
X3541491Y-13506579D02*
X3531968Y-13487531D01*
X3531968Y-13487531D02*
X3522444Y-13458960D01*
X3522444Y-13458960D02*
X3512920Y-13411341D01*
X3512920Y-13411341D02*
X3512920Y-13373246D01*
X3512920Y-13373246D02*
X3522444Y-13325627D01*
X3522444Y-13325627D02*
X3531968Y-13297055D01*
X3531968Y-13297055D02*
X3541491Y-13278008D01*
X3541491Y-13278008D02*
X3560539Y-13249436D01*
X3560539Y-13249436D02*
X3570063Y-13239912D01*
X3655777Y-13468484D02*
X3693872Y-13468484D01*
X3693872Y-13468484D02*
X3712920Y-13458960D01*
X3712920Y-13458960D02*
X3722444Y-13449436D01*
X3722444Y-13449436D02*
X3741491Y-13420865D01*
X3741491Y-13420865D02*
X3751015Y-13382769D01*
X3751015Y-13382769D02*
X3751015Y-13306579D01*
X3751015Y-13306579D02*
X3741491Y-13287531D01*
X3741491Y-13287531D02*
X3731968Y-13278008D01*
X3731968Y-13278008D02*
X3712920Y-13268484D01*
X3712920Y-13268484D02*
X3674825Y-13268484D01*
X3674825Y-13268484D02*
X3655777Y-13278008D01*
X3655777Y-13278008D02*
X3646253Y-13287531D01*
X3646253Y-13287531D02*
X3636729Y-13306579D01*
X3636729Y-13306579D02*
X3636729Y-13354198D01*
X3636729Y-13354198D02*
X3646253Y-13373246D01*
X3646253Y-13373246D02*
X3655777Y-13382769D01*
X3655777Y-13382769D02*
X3674825Y-13392293D01*
X3674825Y-13392293D02*
X3712920Y-13392293D01*
X3712920Y-13392293D02*
X3731968Y-13382769D01*
X3731968Y-13382769D02*
X3741491Y-13373246D01*
X3741491Y-13373246D02*
X3751015Y-13354198D01*
X3989110Y-13468484D02*
X3989110Y-13268484D01*
X4074825Y-13468484D02*
X4074825Y-13363722D01*
X4074825Y-13363722D02*
X4065301Y-13344674D01*
X4065301Y-13344674D02*
X4046253Y-13335150D01*
X4046253Y-13335150D02*
X4017682Y-13335150D01*
X4017682Y-13335150D02*
X3998634Y-13344674D01*
X3998634Y-13344674D02*
X3989110Y-13354198D01*
X4198634Y-13468484D02*
X4179587Y-13458960D01*
X4179587Y-13458960D02*
X4170063Y-13449436D01*
X4170063Y-13449436D02*
X4160539Y-13430388D01*
X4160539Y-13430388D02*
X4160539Y-13373246D01*
X4160539Y-13373246D02*
X4170063Y-13354198D01*
X4170063Y-13354198D02*
X4179587Y-13344674D01*
X4179587Y-13344674D02*
X4198634Y-13335150D01*
X4198634Y-13335150D02*
X4227206Y-13335150D01*
X4227206Y-13335150D02*
X4246253Y-13344674D01*
X4246253Y-13344674D02*
X4255777Y-13354198D01*
X4255777Y-13354198D02*
X4265301Y-13373246D01*
X4265301Y-13373246D02*
X4265301Y-13430388D01*
X4265301Y-13430388D02*
X4255777Y-13449436D01*
X4255777Y-13449436D02*
X4246253Y-13458960D01*
X4246253Y-13458960D02*
X4227206Y-13468484D01*
X4227206Y-13468484D02*
X4198634Y-13468484D01*
X4379587Y-13468484D02*
X4360539Y-13458960D01*
X4360539Y-13458960D02*
X4351015Y-13439912D01*
X4351015Y-13439912D02*
X4351015Y-13268484D01*
X4531968Y-13458960D02*
X4512920Y-13468484D01*
X4512920Y-13468484D02*
X4474825Y-13468484D01*
X4474825Y-13468484D02*
X4455777Y-13458960D01*
X4455777Y-13458960D02*
X4446253Y-13439912D01*
X4446253Y-13439912D02*
X4446253Y-13363722D01*
X4446253Y-13363722D02*
X4455777Y-13344674D01*
X4455777Y-13344674D02*
X4474825Y-13335150D01*
X4474825Y-13335150D02*
X4512920Y-13335150D01*
X4512920Y-13335150D02*
X4531968Y-13344674D01*
X4531968Y-13344674D02*
X4541492Y-13363722D01*
X4541492Y-13363722D02*
X4541492Y-13382769D01*
X4541492Y-13382769D02*
X4446253Y-13401817D01*
X4617682Y-13458960D02*
X4636730Y-13468484D01*
X4636730Y-13468484D02*
X4674825Y-13468484D01*
X4674825Y-13468484D02*
X4693873Y-13458960D01*
X4693873Y-13458960D02*
X4703396Y-13439912D01*
X4703396Y-13439912D02*
X4703396Y-13430388D01*
X4703396Y-13430388D02*
X4693873Y-13411341D01*
X4693873Y-13411341D02*
X4674825Y-13401817D01*
X4674825Y-13401817D02*
X4646253Y-13401817D01*
X4646253Y-13401817D02*
X4627206Y-13392293D01*
X4627206Y-13392293D02*
X4617682Y-13373246D01*
X4617682Y-13373246D02*
X4617682Y-13363722D01*
X4617682Y-13363722D02*
X4627206Y-13344674D01*
X4627206Y-13344674D02*
X4646253Y-13335150D01*
X4646253Y-13335150D02*
X4674825Y-13335150D01*
X4674825Y-13335150D02*
X4693873Y-13344674D01*
X4770063Y-13544674D02*
X4779587Y-13535150D01*
X4779587Y-13535150D02*
X4798634Y-13506579D01*
X4798634Y-13506579D02*
X4808158Y-13487531D01*
X4808158Y-13487531D02*
X4817682Y-13458960D01*
X4817682Y-13458960D02*
X4827206Y-13411341D01*
X4827206Y-13411341D02*
X4827206Y-13373246D01*
X4827206Y-13373246D02*
X4817682Y-13325627D01*
X4817682Y-13325627D02*
X4808158Y-13297055D01*
X4808158Y-13297055D02*
X4798634Y-13278008D01*
X4798634Y-13278008D02*
X4779587Y-13249436D01*
X4779587Y-13249436D02*
X4770063Y-13239912D01*
D13*
X-65000Y-13701000D02*
X-5000Y-13641000D01*
X-65000Y-13581000D01*
X-125000Y-13641000D01*
X-65000Y-13701000D01*
D11*
X360539Y-13732484D02*
X246253Y-13732484D01*
X303396Y-13732484D02*
X303396Y-13532484D01*
X303396Y-13532484D02*
X284348Y-13561055D01*
X284348Y-13561055D02*
X265301Y-13580103D01*
X265301Y-13580103D02*
X246253Y-13589627D01*
X446253Y-13713436D02*
X455777Y-13722960D01*
X455777Y-13722960D02*
X446253Y-13732484D01*
X446253Y-13732484D02*
X436729Y-13722960D01*
X436729Y-13722960D02*
X446253Y-13713436D01*
X446253Y-13713436D02*
X446253Y-13732484D01*
X531967Y-13551531D02*
X541491Y-13542008D01*
X541491Y-13542008D02*
X560539Y-13532484D01*
X560539Y-13532484D02*
X608158Y-13532484D01*
X608158Y-13532484D02*
X627205Y-13542008D01*
X627205Y-13542008D02*
X636729Y-13551531D01*
X636729Y-13551531D02*
X646253Y-13570579D01*
X646253Y-13570579D02*
X646253Y-13589627D01*
X646253Y-13589627D02*
X636729Y-13618198D01*
X636729Y-13618198D02*
X522443Y-13732484D01*
X522443Y-13732484D02*
X646253Y-13732484D01*
X770062Y-13532484D02*
X789110Y-13532484D01*
X789110Y-13532484D02*
X808158Y-13542008D01*
X808158Y-13542008D02*
X817682Y-13551531D01*
X817682Y-13551531D02*
X827205Y-13570579D01*
X827205Y-13570579D02*
X836729Y-13608674D01*
X836729Y-13608674D02*
X836729Y-13656293D01*
X836729Y-13656293D02*
X827205Y-13694388D01*
X827205Y-13694388D02*
X817682Y-13713436D01*
X817682Y-13713436D02*
X808158Y-13722960D01*
X808158Y-13722960D02*
X789110Y-13732484D01*
X789110Y-13732484D02*
X770062Y-13732484D01*
X770062Y-13732484D02*
X751015Y-13722960D01*
X751015Y-13722960D02*
X741491Y-13713436D01*
X741491Y-13713436D02*
X731967Y-13694388D01*
X731967Y-13694388D02*
X722443Y-13656293D01*
X722443Y-13656293D02*
X722443Y-13608674D01*
X722443Y-13608674D02*
X731967Y-13570579D01*
X731967Y-13570579D02*
X741491Y-13551531D01*
X741491Y-13551531D02*
X751015Y-13542008D01*
X751015Y-13542008D02*
X770062Y-13532484D01*
X960539Y-13532484D02*
X979586Y-13532484D01*
X979586Y-13532484D02*
X998634Y-13542008D01*
X998634Y-13542008D02*
X1008158Y-13551531D01*
X1008158Y-13551531D02*
X1017682Y-13570579D01*
X1017682Y-13570579D02*
X1027205Y-13608674D01*
X1027205Y-13608674D02*
X1027205Y-13656293D01*
X1027205Y-13656293D02*
X1017682Y-13694388D01*
X1017682Y-13694388D02*
X1008158Y-13713436D01*
X1008158Y-13713436D02*
X998634Y-13722960D01*
X998634Y-13722960D02*
X979586Y-13732484D01*
X979586Y-13732484D02*
X960539Y-13732484D01*
X960539Y-13732484D02*
X941491Y-13722960D01*
X941491Y-13722960D02*
X931967Y-13713436D01*
X931967Y-13713436D02*
X922443Y-13694388D01*
X922443Y-13694388D02*
X912920Y-13656293D01*
X912920Y-13656293D02*
X912920Y-13608674D01*
X912920Y-13608674D02*
X922443Y-13570579D01*
X922443Y-13570579D02*
X931967Y-13551531D01*
X931967Y-13551531D02*
X941491Y-13542008D01*
X941491Y-13542008D02*
X960539Y-13532484D01*
X1112920Y-13732484D02*
X1112920Y-13599150D01*
X1112920Y-13618198D02*
X1122444Y-13608674D01*
X1122444Y-13608674D02*
X1141491Y-13599150D01*
X1141491Y-13599150D02*
X1170063Y-13599150D01*
X1170063Y-13599150D02*
X1189110Y-13608674D01*
X1189110Y-13608674D02*
X1198634Y-13627722D01*
X1198634Y-13627722D02*
X1198634Y-13732484D01*
X1198634Y-13627722D02*
X1208158Y-13608674D01*
X1208158Y-13608674D02*
X1227205Y-13599150D01*
X1227205Y-13599150D02*
X1255777Y-13599150D01*
X1255777Y-13599150D02*
X1274825Y-13608674D01*
X1274825Y-13608674D02*
X1284348Y-13627722D01*
X1284348Y-13627722D02*
X1284348Y-13732484D01*
X1379586Y-13732484D02*
X1379586Y-13599150D01*
X1379586Y-13618198D02*
X1389110Y-13608674D01*
X1389110Y-13608674D02*
X1408158Y-13599150D01*
X1408158Y-13599150D02*
X1436729Y-13599150D01*
X1436729Y-13599150D02*
X1455777Y-13608674D01*
X1455777Y-13608674D02*
X1465301Y-13627722D01*
X1465301Y-13627722D02*
X1465301Y-13732484D01*
X1465301Y-13627722D02*
X1474824Y-13608674D01*
X1474824Y-13608674D02*
X1493872Y-13599150D01*
X1493872Y-13599150D02*
X1522443Y-13599150D01*
X1522443Y-13599150D02*
X1541491Y-13608674D01*
X1541491Y-13608674D02*
X1551015Y-13627722D01*
X1551015Y-13627722D02*
X1551015Y-13732484D01*
X1941491Y-13522960D02*
X1770063Y-13780103D01*
X2198634Y-13532484D02*
X2217682Y-13532484D01*
X2217682Y-13532484D02*
X2236729Y-13542008D01*
X2236729Y-13542008D02*
X2246253Y-13551531D01*
X2246253Y-13551531D02*
X2255777Y-13570579D01*
X2255777Y-13570579D02*
X2265301Y-13608674D01*
X2265301Y-13608674D02*
X2265301Y-13656293D01*
X2265301Y-13656293D02*
X2255777Y-13694388D01*
X2255777Y-13694388D02*
X2246253Y-13713436D01*
X2246253Y-13713436D02*
X2236729Y-13722960D01*
X2236729Y-13722960D02*
X2217682Y-13732484D01*
X2217682Y-13732484D02*
X2198634Y-13732484D01*
X2198634Y-13732484D02*
X2179587Y-13722960D01*
X2179587Y-13722960D02*
X2170063Y-13713436D01*
X2170063Y-13713436D02*
X2160539Y-13694388D01*
X2160539Y-13694388D02*
X2151015Y-13656293D01*
X2151015Y-13656293D02*
X2151015Y-13608674D01*
X2151015Y-13608674D02*
X2160539Y-13570579D01*
X2160539Y-13570579D02*
X2170063Y-13551531D01*
X2170063Y-13551531D02*
X2179587Y-13542008D01*
X2179587Y-13542008D02*
X2198634Y-13532484D01*
X2351015Y-13713436D02*
X2360539Y-13722960D01*
X2360539Y-13722960D02*
X2351015Y-13732484D01*
X2351015Y-13732484D02*
X2341491Y-13722960D01*
X2341491Y-13722960D02*
X2351015Y-13713436D01*
X2351015Y-13713436D02*
X2351015Y-13732484D01*
X2484348Y-13532484D02*
X2503396Y-13532484D01*
X2503396Y-13532484D02*
X2522444Y-13542008D01*
X2522444Y-13542008D02*
X2531968Y-13551531D01*
X2531968Y-13551531D02*
X2541491Y-13570579D01*
X2541491Y-13570579D02*
X2551015Y-13608674D01*
X2551015Y-13608674D02*
X2551015Y-13656293D01*
X2551015Y-13656293D02*
X2541491Y-13694388D01*
X2541491Y-13694388D02*
X2531968Y-13713436D01*
X2531968Y-13713436D02*
X2522444Y-13722960D01*
X2522444Y-13722960D02*
X2503396Y-13732484D01*
X2503396Y-13732484D02*
X2484348Y-13732484D01*
X2484348Y-13732484D02*
X2465301Y-13722960D01*
X2465301Y-13722960D02*
X2455777Y-13713436D01*
X2455777Y-13713436D02*
X2446253Y-13694388D01*
X2446253Y-13694388D02*
X2436729Y-13656293D01*
X2436729Y-13656293D02*
X2436729Y-13608674D01*
X2436729Y-13608674D02*
X2446253Y-13570579D01*
X2446253Y-13570579D02*
X2455777Y-13551531D01*
X2455777Y-13551531D02*
X2465301Y-13542008D01*
X2465301Y-13542008D02*
X2484348Y-13532484D01*
X2722444Y-13599150D02*
X2722444Y-13732484D01*
X2674825Y-13522960D02*
X2627206Y-13665817D01*
X2627206Y-13665817D02*
X2751015Y-13665817D01*
X2808158Y-13532484D02*
X2941491Y-13532484D01*
X2941491Y-13532484D02*
X2855777Y-13732484D01*
X3008158Y-13551531D02*
X3017682Y-13542008D01*
X3017682Y-13542008D02*
X3036729Y-13532484D01*
X3036729Y-13532484D02*
X3084348Y-13532484D01*
X3084348Y-13532484D02*
X3103396Y-13542008D01*
X3103396Y-13542008D02*
X3112920Y-13551531D01*
X3112920Y-13551531D02*
X3122444Y-13570579D01*
X3122444Y-13570579D02*
X3122444Y-13589627D01*
X3122444Y-13589627D02*
X3112920Y-13618198D01*
X3112920Y-13618198D02*
X2998634Y-13732484D01*
X2998634Y-13732484D02*
X3122444Y-13732484D01*
X3198634Y-13532484D02*
X3198634Y-13570579D01*
X3274825Y-13532484D02*
X3274825Y-13570579D01*
X3570063Y-13808674D02*
X3560539Y-13799150D01*
X3560539Y-13799150D02*
X3541491Y-13770579D01*
X3541491Y-13770579D02*
X3531968Y-13751531D01*
X3531968Y-13751531D02*
X3522444Y-13722960D01*
X3522444Y-13722960D02*
X3512920Y-13675341D01*
X3512920Y-13675341D02*
X3512920Y-13637246D01*
X3512920Y-13637246D02*
X3522444Y-13589627D01*
X3522444Y-13589627D02*
X3531968Y-13561055D01*
X3531968Y-13561055D02*
X3541491Y-13542008D01*
X3541491Y-13542008D02*
X3560539Y-13513436D01*
X3560539Y-13513436D02*
X3570063Y-13503912D01*
X3674825Y-13618198D02*
X3655777Y-13608674D01*
X3655777Y-13608674D02*
X3646253Y-13599150D01*
X3646253Y-13599150D02*
X3636729Y-13580103D01*
X3636729Y-13580103D02*
X3636729Y-13570579D01*
X3636729Y-13570579D02*
X3646253Y-13551531D01*
X3646253Y-13551531D02*
X3655777Y-13542008D01*
X3655777Y-13542008D02*
X3674825Y-13532484D01*
X3674825Y-13532484D02*
X3712920Y-13532484D01*
X3712920Y-13532484D02*
X3731968Y-13542008D01*
X3731968Y-13542008D02*
X3741491Y-13551531D01*
X3741491Y-13551531D02*
X3751015Y-13570579D01*
X3751015Y-13570579D02*
X3751015Y-13580103D01*
X3751015Y-13580103D02*
X3741491Y-13599150D01*
X3741491Y-13599150D02*
X3731968Y-13608674D01*
X3731968Y-13608674D02*
X3712920Y-13618198D01*
X3712920Y-13618198D02*
X3674825Y-13618198D01*
X3674825Y-13618198D02*
X3655777Y-13627722D01*
X3655777Y-13627722D02*
X3646253Y-13637246D01*
X3646253Y-13637246D02*
X3636729Y-13656293D01*
X3636729Y-13656293D02*
X3636729Y-13694388D01*
X3636729Y-13694388D02*
X3646253Y-13713436D01*
X3646253Y-13713436D02*
X3655777Y-13722960D01*
X3655777Y-13722960D02*
X3674825Y-13732484D01*
X3674825Y-13732484D02*
X3712920Y-13732484D01*
X3712920Y-13732484D02*
X3731968Y-13722960D01*
X3731968Y-13722960D02*
X3741491Y-13713436D01*
X3741491Y-13713436D02*
X3751015Y-13694388D01*
X3751015Y-13694388D02*
X3751015Y-13656293D01*
X3751015Y-13656293D02*
X3741491Y-13637246D01*
X3741491Y-13637246D02*
X3731968Y-13627722D01*
X3731968Y-13627722D02*
X3712920Y-13618198D01*
X3989110Y-13732484D02*
X3989110Y-13532484D01*
X4074825Y-13732484D02*
X4074825Y-13627722D01*
X4074825Y-13627722D02*
X4065301Y-13608674D01*
X4065301Y-13608674D02*
X4046253Y-13599150D01*
X4046253Y-13599150D02*
X4017682Y-13599150D01*
X4017682Y-13599150D02*
X3998634Y-13608674D01*
X3998634Y-13608674D02*
X3989110Y-13618198D01*
X4198634Y-13732484D02*
X4179587Y-13722960D01*
X4179587Y-13722960D02*
X4170063Y-13713436D01*
X4170063Y-13713436D02*
X4160539Y-13694388D01*
X4160539Y-13694388D02*
X4160539Y-13637246D01*
X4160539Y-13637246D02*
X4170063Y-13618198D01*
X4170063Y-13618198D02*
X4179587Y-13608674D01*
X4179587Y-13608674D02*
X4198634Y-13599150D01*
X4198634Y-13599150D02*
X4227206Y-13599150D01*
X4227206Y-13599150D02*
X4246253Y-13608674D01*
X4246253Y-13608674D02*
X4255777Y-13618198D01*
X4255777Y-13618198D02*
X4265301Y-13637246D01*
X4265301Y-13637246D02*
X4265301Y-13694388D01*
X4265301Y-13694388D02*
X4255777Y-13713436D01*
X4255777Y-13713436D02*
X4246253Y-13722960D01*
X4246253Y-13722960D02*
X4227206Y-13732484D01*
X4227206Y-13732484D02*
X4198634Y-13732484D01*
X4379587Y-13732484D02*
X4360539Y-13722960D01*
X4360539Y-13722960D02*
X4351015Y-13703912D01*
X4351015Y-13703912D02*
X4351015Y-13532484D01*
X4531968Y-13722960D02*
X4512920Y-13732484D01*
X4512920Y-13732484D02*
X4474825Y-13732484D01*
X4474825Y-13732484D02*
X4455777Y-13722960D01*
X4455777Y-13722960D02*
X4446253Y-13703912D01*
X4446253Y-13703912D02*
X4446253Y-13627722D01*
X4446253Y-13627722D02*
X4455777Y-13608674D01*
X4455777Y-13608674D02*
X4474825Y-13599150D01*
X4474825Y-13599150D02*
X4512920Y-13599150D01*
X4512920Y-13599150D02*
X4531968Y-13608674D01*
X4531968Y-13608674D02*
X4541492Y-13627722D01*
X4541492Y-13627722D02*
X4541492Y-13646769D01*
X4541492Y-13646769D02*
X4446253Y-13665817D01*
X4617682Y-13722960D02*
X4636730Y-13732484D01*
X4636730Y-13732484D02*
X4674825Y-13732484D01*
X4674825Y-13732484D02*
X4693873Y-13722960D01*
X4693873Y-13722960D02*
X4703396Y-13703912D01*
X4703396Y-13703912D02*
X4703396Y-13694388D01*
X4703396Y-13694388D02*
X4693873Y-13675341D01*
X4693873Y-13675341D02*
X4674825Y-13665817D01*
X4674825Y-13665817D02*
X4646253Y-13665817D01*
X4646253Y-13665817D02*
X4627206Y-13656293D01*
X4627206Y-13656293D02*
X4617682Y-13637246D01*
X4617682Y-13637246D02*
X4617682Y-13627722D01*
X4617682Y-13627722D02*
X4627206Y-13608674D01*
X4627206Y-13608674D02*
X4646253Y-13599150D01*
X4646253Y-13599150D02*
X4674825Y-13599150D01*
X4674825Y-13599150D02*
X4693873Y-13608674D01*
X4770063Y-13808674D02*
X4779587Y-13799150D01*
X4779587Y-13799150D02*
X4798634Y-13770579D01*
X4798634Y-13770579D02*
X4808158Y-13751531D01*
X4808158Y-13751531D02*
X4817682Y-13722960D01*
X4817682Y-13722960D02*
X4827206Y-13675341D01*
X4827206Y-13675341D02*
X4827206Y-13637246D01*
X4827206Y-13637246D02*
X4817682Y-13589627D01*
X4817682Y-13589627D02*
X4808158Y-13561055D01*
X4808158Y-13561055D02*
X4798634Y-13542008D01*
X4798634Y-13542008D02*
X4779587Y-13513436D01*
X4779587Y-13513436D02*
X4770063Y-13503912D01*
D14*
X-165000Y-13825000D02*
X-5000Y-13985000D01*
X-5000Y-13825000D02*
X-165000Y-13985000D01*
X-5000Y-13905000D02*
G75*
G02*
X-165000Y-13905000I-80000J0D01*
G01*
X-165000Y-13905000D02*
G75*
G02*
X-5000Y-13905000I80000J0D01*
G01*
D11*
X360539Y-13996484D02*
X246253Y-13996484D01*
X303396Y-13996484D02*
X303396Y-13796484D01*
X303396Y-13796484D02*
X284348Y-13825055D01*
X284348Y-13825055D02*
X265301Y-13844103D01*
X265301Y-13844103D02*
X246253Y-13853627D01*
X446253Y-13977436D02*
X455777Y-13986960D01*
X455777Y-13986960D02*
X446253Y-13996484D01*
X446253Y-13996484D02*
X436729Y-13986960D01*
X436729Y-13986960D02*
X446253Y-13977436D01*
X446253Y-13977436D02*
X446253Y-13996484D01*
X627205Y-13796484D02*
X589110Y-13796484D01*
X589110Y-13796484D02*
X570063Y-13806008D01*
X570063Y-13806008D02*
X560539Y-13815531D01*
X560539Y-13815531D02*
X541491Y-13844103D01*
X541491Y-13844103D02*
X531967Y-13882198D01*
X531967Y-13882198D02*
X531967Y-13958388D01*
X531967Y-13958388D02*
X541491Y-13977436D01*
X541491Y-13977436D02*
X551015Y-13986960D01*
X551015Y-13986960D02*
X570063Y-13996484D01*
X570063Y-13996484D02*
X608158Y-13996484D01*
X608158Y-13996484D02*
X627205Y-13986960D01*
X627205Y-13986960D02*
X636729Y-13977436D01*
X636729Y-13977436D02*
X646253Y-13958388D01*
X646253Y-13958388D02*
X646253Y-13910769D01*
X646253Y-13910769D02*
X636729Y-13891722D01*
X636729Y-13891722D02*
X627205Y-13882198D01*
X627205Y-13882198D02*
X608158Y-13872674D01*
X608158Y-13872674D02*
X570063Y-13872674D01*
X570063Y-13872674D02*
X551015Y-13882198D01*
X551015Y-13882198D02*
X541491Y-13891722D01*
X541491Y-13891722D02*
X531967Y-13910769D01*
X770062Y-13796484D02*
X789110Y-13796484D01*
X789110Y-13796484D02*
X808158Y-13806008D01*
X808158Y-13806008D02*
X817682Y-13815531D01*
X817682Y-13815531D02*
X827205Y-13834579D01*
X827205Y-13834579D02*
X836729Y-13872674D01*
X836729Y-13872674D02*
X836729Y-13920293D01*
X836729Y-13920293D02*
X827205Y-13958388D01*
X827205Y-13958388D02*
X817682Y-13977436D01*
X817682Y-13977436D02*
X808158Y-13986960D01*
X808158Y-13986960D02*
X789110Y-13996484D01*
X789110Y-13996484D02*
X770062Y-13996484D01*
X770062Y-13996484D02*
X751015Y-13986960D01*
X751015Y-13986960D02*
X741491Y-13977436D01*
X741491Y-13977436D02*
X731967Y-13958388D01*
X731967Y-13958388D02*
X722443Y-13920293D01*
X722443Y-13920293D02*
X722443Y-13872674D01*
X722443Y-13872674D02*
X731967Y-13834579D01*
X731967Y-13834579D02*
X741491Y-13815531D01*
X741491Y-13815531D02*
X751015Y-13806008D01*
X751015Y-13806008D02*
X770062Y-13796484D01*
X960539Y-13796484D02*
X979586Y-13796484D01*
X979586Y-13796484D02*
X998634Y-13806008D01*
X998634Y-13806008D02*
X1008158Y-13815531D01*
X1008158Y-13815531D02*
X1017682Y-13834579D01*
X1017682Y-13834579D02*
X1027205Y-13872674D01*
X1027205Y-13872674D02*
X1027205Y-13920293D01*
X1027205Y-13920293D02*
X1017682Y-13958388D01*
X1017682Y-13958388D02*
X1008158Y-13977436D01*
X1008158Y-13977436D02*
X998634Y-13986960D01*
X998634Y-13986960D02*
X979586Y-13996484D01*
X979586Y-13996484D02*
X960539Y-13996484D01*
X960539Y-13996484D02*
X941491Y-13986960D01*
X941491Y-13986960D02*
X931967Y-13977436D01*
X931967Y-13977436D02*
X922443Y-13958388D01*
X922443Y-13958388D02*
X912920Y-13920293D01*
X912920Y-13920293D02*
X912920Y-13872674D01*
X912920Y-13872674D02*
X922443Y-13834579D01*
X922443Y-13834579D02*
X931967Y-13815531D01*
X931967Y-13815531D02*
X941491Y-13806008D01*
X941491Y-13806008D02*
X960539Y-13796484D01*
X1112920Y-13996484D02*
X1112920Y-13863150D01*
X1112920Y-13882198D02*
X1122444Y-13872674D01*
X1122444Y-13872674D02*
X1141491Y-13863150D01*
X1141491Y-13863150D02*
X1170063Y-13863150D01*
X1170063Y-13863150D02*
X1189110Y-13872674D01*
X1189110Y-13872674D02*
X1198634Y-13891722D01*
X1198634Y-13891722D02*
X1198634Y-13996484D01*
X1198634Y-13891722D02*
X1208158Y-13872674D01*
X1208158Y-13872674D02*
X1227205Y-13863150D01*
X1227205Y-13863150D02*
X1255777Y-13863150D01*
X1255777Y-13863150D02*
X1274825Y-13872674D01*
X1274825Y-13872674D02*
X1284348Y-13891722D01*
X1284348Y-13891722D02*
X1284348Y-13996484D01*
X1379586Y-13996484D02*
X1379586Y-13863150D01*
X1379586Y-13882198D02*
X1389110Y-13872674D01*
X1389110Y-13872674D02*
X1408158Y-13863150D01*
X1408158Y-13863150D02*
X1436729Y-13863150D01*
X1436729Y-13863150D02*
X1455777Y-13872674D01*
X1455777Y-13872674D02*
X1465301Y-13891722D01*
X1465301Y-13891722D02*
X1465301Y-13996484D01*
X1465301Y-13891722D02*
X1474824Y-13872674D01*
X1474824Y-13872674D02*
X1493872Y-13863150D01*
X1493872Y-13863150D02*
X1522443Y-13863150D01*
X1522443Y-13863150D02*
X1541491Y-13872674D01*
X1541491Y-13872674D02*
X1551015Y-13891722D01*
X1551015Y-13891722D02*
X1551015Y-13996484D01*
X1941491Y-13786960D02*
X1770063Y-14044103D01*
X2198634Y-13796484D02*
X2217682Y-13796484D01*
X2217682Y-13796484D02*
X2236729Y-13806008D01*
X2236729Y-13806008D02*
X2246253Y-13815531D01*
X2246253Y-13815531D02*
X2255777Y-13834579D01*
X2255777Y-13834579D02*
X2265301Y-13872674D01*
X2265301Y-13872674D02*
X2265301Y-13920293D01*
X2265301Y-13920293D02*
X2255777Y-13958388D01*
X2255777Y-13958388D02*
X2246253Y-13977436D01*
X2246253Y-13977436D02*
X2236729Y-13986960D01*
X2236729Y-13986960D02*
X2217682Y-13996484D01*
X2217682Y-13996484D02*
X2198634Y-13996484D01*
X2198634Y-13996484D02*
X2179587Y-13986960D01*
X2179587Y-13986960D02*
X2170063Y-13977436D01*
X2170063Y-13977436D02*
X2160539Y-13958388D01*
X2160539Y-13958388D02*
X2151015Y-13920293D01*
X2151015Y-13920293D02*
X2151015Y-13872674D01*
X2151015Y-13872674D02*
X2160539Y-13834579D01*
X2160539Y-13834579D02*
X2170063Y-13815531D01*
X2170063Y-13815531D02*
X2179587Y-13806008D01*
X2179587Y-13806008D02*
X2198634Y-13796484D01*
X2351015Y-13977436D02*
X2360539Y-13986960D01*
X2360539Y-13986960D02*
X2351015Y-13996484D01*
X2351015Y-13996484D02*
X2341491Y-13986960D01*
X2341491Y-13986960D02*
X2351015Y-13977436D01*
X2351015Y-13977436D02*
X2351015Y-13996484D01*
X2484348Y-13796484D02*
X2503396Y-13796484D01*
X2503396Y-13796484D02*
X2522444Y-13806008D01*
X2522444Y-13806008D02*
X2531968Y-13815531D01*
X2531968Y-13815531D02*
X2541491Y-13834579D01*
X2541491Y-13834579D02*
X2551015Y-13872674D01*
X2551015Y-13872674D02*
X2551015Y-13920293D01*
X2551015Y-13920293D02*
X2541491Y-13958388D01*
X2541491Y-13958388D02*
X2531968Y-13977436D01*
X2531968Y-13977436D02*
X2522444Y-13986960D01*
X2522444Y-13986960D02*
X2503396Y-13996484D01*
X2503396Y-13996484D02*
X2484348Y-13996484D01*
X2484348Y-13996484D02*
X2465301Y-13986960D01*
X2465301Y-13986960D02*
X2455777Y-13977436D01*
X2455777Y-13977436D02*
X2446253Y-13958388D01*
X2446253Y-13958388D02*
X2436729Y-13920293D01*
X2436729Y-13920293D02*
X2436729Y-13872674D01*
X2436729Y-13872674D02*
X2446253Y-13834579D01*
X2446253Y-13834579D02*
X2455777Y-13815531D01*
X2455777Y-13815531D02*
X2465301Y-13806008D01*
X2465301Y-13806008D02*
X2484348Y-13796484D01*
X2722444Y-13796484D02*
X2684348Y-13796484D01*
X2684348Y-13796484D02*
X2665301Y-13806008D01*
X2665301Y-13806008D02*
X2655777Y-13815531D01*
X2655777Y-13815531D02*
X2636729Y-13844103D01*
X2636729Y-13844103D02*
X2627206Y-13882198D01*
X2627206Y-13882198D02*
X2627206Y-13958388D01*
X2627206Y-13958388D02*
X2636729Y-13977436D01*
X2636729Y-13977436D02*
X2646253Y-13986960D01*
X2646253Y-13986960D02*
X2665301Y-13996484D01*
X2665301Y-13996484D02*
X2703396Y-13996484D01*
X2703396Y-13996484D02*
X2722444Y-13986960D01*
X2722444Y-13986960D02*
X2731968Y-13977436D01*
X2731968Y-13977436D02*
X2741491Y-13958388D01*
X2741491Y-13958388D02*
X2741491Y-13910769D01*
X2741491Y-13910769D02*
X2731968Y-13891722D01*
X2731968Y-13891722D02*
X2722444Y-13882198D01*
X2722444Y-13882198D02*
X2703396Y-13872674D01*
X2703396Y-13872674D02*
X2665301Y-13872674D01*
X2665301Y-13872674D02*
X2646253Y-13882198D01*
X2646253Y-13882198D02*
X2636729Y-13891722D01*
X2636729Y-13891722D02*
X2627206Y-13910769D01*
X2808158Y-13796484D02*
X2931967Y-13796484D01*
X2931967Y-13796484D02*
X2865301Y-13872674D01*
X2865301Y-13872674D02*
X2893872Y-13872674D01*
X2893872Y-13872674D02*
X2912920Y-13882198D01*
X2912920Y-13882198D02*
X2922444Y-13891722D01*
X2922444Y-13891722D02*
X2931967Y-13910769D01*
X2931967Y-13910769D02*
X2931967Y-13958388D01*
X2931967Y-13958388D02*
X2922444Y-13977436D01*
X2922444Y-13977436D02*
X2912920Y-13986960D01*
X2912920Y-13986960D02*
X2893872Y-13996484D01*
X2893872Y-13996484D02*
X2836729Y-13996484D01*
X2836729Y-13996484D02*
X2817682Y-13986960D01*
X2817682Y-13986960D02*
X2808158Y-13977436D01*
X3055777Y-13796484D02*
X3074825Y-13796484D01*
X3074825Y-13796484D02*
X3093872Y-13806008D01*
X3093872Y-13806008D02*
X3103396Y-13815531D01*
X3103396Y-13815531D02*
X3112920Y-13834579D01*
X3112920Y-13834579D02*
X3122444Y-13872674D01*
X3122444Y-13872674D02*
X3122444Y-13920293D01*
X3122444Y-13920293D02*
X3112920Y-13958388D01*
X3112920Y-13958388D02*
X3103396Y-13977436D01*
X3103396Y-13977436D02*
X3093872Y-13986960D01*
X3093872Y-13986960D02*
X3074825Y-13996484D01*
X3074825Y-13996484D02*
X3055777Y-13996484D01*
X3055777Y-13996484D02*
X3036729Y-13986960D01*
X3036729Y-13986960D02*
X3027206Y-13977436D01*
X3027206Y-13977436D02*
X3017682Y-13958388D01*
X3017682Y-13958388D02*
X3008158Y-13920293D01*
X3008158Y-13920293D02*
X3008158Y-13872674D01*
X3008158Y-13872674D02*
X3017682Y-13834579D01*
X3017682Y-13834579D02*
X3027206Y-13815531D01*
X3027206Y-13815531D02*
X3036729Y-13806008D01*
X3036729Y-13806008D02*
X3055777Y-13796484D01*
X3198634Y-13796484D02*
X3198634Y-13834579D01*
X3274825Y-13796484D02*
X3274825Y-13834579D01*
X3570063Y-14072674D02*
X3560539Y-14063150D01*
X3560539Y-14063150D02*
X3541491Y-14034579D01*
X3541491Y-14034579D02*
X3531968Y-14015531D01*
X3531968Y-14015531D02*
X3522444Y-13986960D01*
X3522444Y-13986960D02*
X3512920Y-13939341D01*
X3512920Y-13939341D02*
X3512920Y-13901246D01*
X3512920Y-13901246D02*
X3522444Y-13853627D01*
X3522444Y-13853627D02*
X3531968Y-13825055D01*
X3531968Y-13825055D02*
X3541491Y-13806008D01*
X3541491Y-13806008D02*
X3560539Y-13777436D01*
X3560539Y-13777436D02*
X3570063Y-13767912D01*
X3627206Y-13796484D02*
X3751015Y-13796484D01*
X3751015Y-13796484D02*
X3684348Y-13872674D01*
X3684348Y-13872674D02*
X3712920Y-13872674D01*
X3712920Y-13872674D02*
X3731968Y-13882198D01*
X3731968Y-13882198D02*
X3741491Y-13891722D01*
X3741491Y-13891722D02*
X3751015Y-13910769D01*
X3751015Y-13910769D02*
X3751015Y-13958388D01*
X3751015Y-13958388D02*
X3741491Y-13977436D01*
X3741491Y-13977436D02*
X3731968Y-13986960D01*
X3731968Y-13986960D02*
X3712920Y-13996484D01*
X3712920Y-13996484D02*
X3655777Y-13996484D01*
X3655777Y-13996484D02*
X3636729Y-13986960D01*
X3636729Y-13986960D02*
X3627206Y-13977436D01*
X3874825Y-13796484D02*
X3893872Y-13796484D01*
X3893872Y-13796484D02*
X3912920Y-13806008D01*
X3912920Y-13806008D02*
X3922444Y-13815531D01*
X3922444Y-13815531D02*
X3931968Y-13834579D01*
X3931968Y-13834579D02*
X3941491Y-13872674D01*
X3941491Y-13872674D02*
X3941491Y-13920293D01*
X3941491Y-13920293D02*
X3931968Y-13958388D01*
X3931968Y-13958388D02*
X3922444Y-13977436D01*
X3922444Y-13977436D02*
X3912920Y-13986960D01*
X3912920Y-13986960D02*
X3893872Y-13996484D01*
X3893872Y-13996484D02*
X3874825Y-13996484D01*
X3874825Y-13996484D02*
X3855777Y-13986960D01*
X3855777Y-13986960D02*
X3846253Y-13977436D01*
X3846253Y-13977436D02*
X3836729Y-13958388D01*
X3836729Y-13958388D02*
X3827206Y-13920293D01*
X3827206Y-13920293D02*
X3827206Y-13872674D01*
X3827206Y-13872674D02*
X3836729Y-13834579D01*
X3836729Y-13834579D02*
X3846253Y-13815531D01*
X3846253Y-13815531D02*
X3855777Y-13806008D01*
X3855777Y-13806008D02*
X3874825Y-13796484D01*
X4179587Y-13996484D02*
X4179587Y-13796484D01*
X4265301Y-13996484D02*
X4265301Y-13891722D01*
X4265301Y-13891722D02*
X4255777Y-13872674D01*
X4255777Y-13872674D02*
X4236730Y-13863150D01*
X4236730Y-13863150D02*
X4208158Y-13863150D01*
X4208158Y-13863150D02*
X4189110Y-13872674D01*
X4189110Y-13872674D02*
X4179587Y-13882198D01*
X4389111Y-13996484D02*
X4370063Y-13986960D01*
X4370063Y-13986960D02*
X4360539Y-13977436D01*
X4360539Y-13977436D02*
X4351015Y-13958388D01*
X4351015Y-13958388D02*
X4351015Y-13901246D01*
X4351015Y-13901246D02*
X4360539Y-13882198D01*
X4360539Y-13882198D02*
X4370063Y-13872674D01*
X4370063Y-13872674D02*
X4389111Y-13863150D01*
X4389111Y-13863150D02*
X4417682Y-13863150D01*
X4417682Y-13863150D02*
X4436730Y-13872674D01*
X4436730Y-13872674D02*
X4446253Y-13882198D01*
X4446253Y-13882198D02*
X4455777Y-13901246D01*
X4455777Y-13901246D02*
X4455777Y-13958388D01*
X4455777Y-13958388D02*
X4446253Y-13977436D01*
X4446253Y-13977436D02*
X4436730Y-13986960D01*
X4436730Y-13986960D02*
X4417682Y-13996484D01*
X4417682Y-13996484D02*
X4389111Y-13996484D01*
X4570063Y-13996484D02*
X4551015Y-13986960D01*
X4551015Y-13986960D02*
X4541492Y-13967912D01*
X4541492Y-13967912D02*
X4541492Y-13796484D01*
X4722444Y-13986960D02*
X4703396Y-13996484D01*
X4703396Y-13996484D02*
X4665301Y-13996484D01*
X4665301Y-13996484D02*
X4646253Y-13986960D01*
X4646253Y-13986960D02*
X4636730Y-13967912D01*
X4636730Y-13967912D02*
X4636730Y-13891722D01*
X4636730Y-13891722D02*
X4646253Y-13872674D01*
X4646253Y-13872674D02*
X4665301Y-13863150D01*
X4665301Y-13863150D02*
X4703396Y-13863150D01*
X4703396Y-13863150D02*
X4722444Y-13872674D01*
X4722444Y-13872674D02*
X4731968Y-13891722D01*
X4731968Y-13891722D02*
X4731968Y-13910769D01*
X4731968Y-13910769D02*
X4636730Y-13929817D01*
X4808158Y-13986960D02*
X4827206Y-13996484D01*
X4827206Y-13996484D02*
X4865301Y-13996484D01*
X4865301Y-13996484D02*
X4884349Y-13986960D01*
X4884349Y-13986960D02*
X4893873Y-13967912D01*
X4893873Y-13967912D02*
X4893873Y-13958388D01*
X4893873Y-13958388D02*
X4884349Y-13939341D01*
X4884349Y-13939341D02*
X4865301Y-13929817D01*
X4865301Y-13929817D02*
X4836730Y-13929817D01*
X4836730Y-13929817D02*
X4817682Y-13920293D01*
X4817682Y-13920293D02*
X4808158Y-13901246D01*
X4808158Y-13901246D02*
X4808158Y-13891722D01*
X4808158Y-13891722D02*
X4817682Y-13872674D01*
X4817682Y-13872674D02*
X4836730Y-13863150D01*
X4836730Y-13863150D02*
X4865301Y-13863150D01*
X4865301Y-13863150D02*
X4884349Y-13872674D01*
X4960539Y-14072674D02*
X4970063Y-14063150D01*
X4970063Y-14063150D02*
X4989111Y-14034579D01*
X4989111Y-14034579D02*
X4998634Y-14015531D01*
X4998634Y-14015531D02*
X5008158Y-13986960D01*
X5008158Y-13986960D02*
X5017682Y-13939341D01*
X5017682Y-13939341D02*
X5017682Y-13901246D01*
X5017682Y-13901246D02*
X5008158Y-13853627D01*
X5008158Y-13853627D02*
X4998634Y-13825055D01*
X4998634Y-13825055D02*
X4989111Y-13806008D01*
X4989111Y-13806008D02*
X4970063Y-13777436D01*
X4970063Y-13777436D02*
X4960539Y-13767912D01*
M02*
