%TF.GenerationSoftware,KiCad,Pcbnew,10.0.2*%
%TF.CreationDate,2026-10-07T08:42:46+02:00*%
%TF.ProjectId,TR-808PSU_Rev0.1,54522d38-3038-4505-9355-5f526576302e,rev?*%
%TF.SameCoordinates,Original*%
%TF.FileFunction,Legend,Top*%
%TF.FilePolarity,Positive*%
%FSLAX46Y46*%
G04 Gerber Fmt 4.6, Leading zero omitted, Abs format (unit mm)*
G04 Created by KiCad (PCBNEW 10.0.2) date 2026-10-07 08:42:46*
%MOMM*%
%LPD*%
G01*
G04 APERTURE LIST*
%ADD10C,0.186667*%
%ADD11C,0.150000*%
%ADD12C,0.120000*%
G04 APERTURE END LIST*
D10*
X61350000Y-117437959D02*
X62150000Y-117437959D01*
X61750000Y-118837959D02*
X61750000Y-117437959D01*
X63416667Y-118837959D02*
X62950000Y-118171293D01*
X62616667Y-118837959D02*
X62616667Y-117437959D01*
X62616667Y-117437959D02*
X63150000Y-117437959D01*
X63150000Y-117437959D02*
X63283334Y-117504626D01*
X63283334Y-117504626D02*
X63350000Y-117571293D01*
X63350000Y-117571293D02*
X63416667Y-117704626D01*
X63416667Y-117704626D02*
X63416667Y-117904626D01*
X63416667Y-117904626D02*
X63350000Y-118037959D01*
X63350000Y-118037959D02*
X63283334Y-118104626D01*
X63283334Y-118104626D02*
X63150000Y-118171293D01*
X63150000Y-118171293D02*
X62616667Y-118171293D01*
X64016667Y-118304626D02*
X65083334Y-118304626D01*
X65950000Y-118037959D02*
X65816667Y-117971293D01*
X65816667Y-117971293D02*
X65750000Y-117904626D01*
X65750000Y-117904626D02*
X65683333Y-117771293D01*
X65683333Y-117771293D02*
X65683333Y-117704626D01*
X65683333Y-117704626D02*
X65750000Y-117571293D01*
X65750000Y-117571293D02*
X65816667Y-117504626D01*
X65816667Y-117504626D02*
X65950000Y-117437959D01*
X65950000Y-117437959D02*
X66216667Y-117437959D01*
X66216667Y-117437959D02*
X66350000Y-117504626D01*
X66350000Y-117504626D02*
X66416667Y-117571293D01*
X66416667Y-117571293D02*
X66483333Y-117704626D01*
X66483333Y-117704626D02*
X66483333Y-117771293D01*
X66483333Y-117771293D02*
X66416667Y-117904626D01*
X66416667Y-117904626D02*
X66350000Y-117971293D01*
X66350000Y-117971293D02*
X66216667Y-118037959D01*
X66216667Y-118037959D02*
X65950000Y-118037959D01*
X65950000Y-118037959D02*
X65816667Y-118104626D01*
X65816667Y-118104626D02*
X65750000Y-118171293D01*
X65750000Y-118171293D02*
X65683333Y-118304626D01*
X65683333Y-118304626D02*
X65683333Y-118571293D01*
X65683333Y-118571293D02*
X65750000Y-118704626D01*
X65750000Y-118704626D02*
X65816667Y-118771293D01*
X65816667Y-118771293D02*
X65950000Y-118837959D01*
X65950000Y-118837959D02*
X66216667Y-118837959D01*
X66216667Y-118837959D02*
X66350000Y-118771293D01*
X66350000Y-118771293D02*
X66416667Y-118704626D01*
X66416667Y-118704626D02*
X66483333Y-118571293D01*
X66483333Y-118571293D02*
X66483333Y-118304626D01*
X66483333Y-118304626D02*
X66416667Y-118171293D01*
X66416667Y-118171293D02*
X66350000Y-118104626D01*
X66350000Y-118104626D02*
X66216667Y-118037959D01*
X67350000Y-117437959D02*
X67483333Y-117437959D01*
X67483333Y-117437959D02*
X67616666Y-117504626D01*
X67616666Y-117504626D02*
X67683333Y-117571293D01*
X67683333Y-117571293D02*
X67750000Y-117704626D01*
X67750000Y-117704626D02*
X67816666Y-117971293D01*
X67816666Y-117971293D02*
X67816666Y-118304626D01*
X67816666Y-118304626D02*
X67750000Y-118571293D01*
X67750000Y-118571293D02*
X67683333Y-118704626D01*
X67683333Y-118704626D02*
X67616666Y-118771293D01*
X67616666Y-118771293D02*
X67483333Y-118837959D01*
X67483333Y-118837959D02*
X67350000Y-118837959D01*
X67350000Y-118837959D02*
X67216666Y-118771293D01*
X67216666Y-118771293D02*
X67150000Y-118704626D01*
X67150000Y-118704626D02*
X67083333Y-118571293D01*
X67083333Y-118571293D02*
X67016666Y-118304626D01*
X67016666Y-118304626D02*
X67016666Y-117971293D01*
X67016666Y-117971293D02*
X67083333Y-117704626D01*
X67083333Y-117704626D02*
X67150000Y-117571293D01*
X67150000Y-117571293D02*
X67216666Y-117504626D01*
X67216666Y-117504626D02*
X67350000Y-117437959D01*
X68616666Y-118037959D02*
X68483333Y-117971293D01*
X68483333Y-117971293D02*
X68416666Y-117904626D01*
X68416666Y-117904626D02*
X68349999Y-117771293D01*
X68349999Y-117771293D02*
X68349999Y-117704626D01*
X68349999Y-117704626D02*
X68416666Y-117571293D01*
X68416666Y-117571293D02*
X68483333Y-117504626D01*
X68483333Y-117504626D02*
X68616666Y-117437959D01*
X68616666Y-117437959D02*
X68883333Y-117437959D01*
X68883333Y-117437959D02*
X69016666Y-117504626D01*
X69016666Y-117504626D02*
X69083333Y-117571293D01*
X69083333Y-117571293D02*
X69149999Y-117704626D01*
X69149999Y-117704626D02*
X69149999Y-117771293D01*
X69149999Y-117771293D02*
X69083333Y-117904626D01*
X69083333Y-117904626D02*
X69016666Y-117971293D01*
X69016666Y-117971293D02*
X68883333Y-118037959D01*
X68883333Y-118037959D02*
X68616666Y-118037959D01*
X68616666Y-118037959D02*
X68483333Y-118104626D01*
X68483333Y-118104626D02*
X68416666Y-118171293D01*
X68416666Y-118171293D02*
X68349999Y-118304626D01*
X68349999Y-118304626D02*
X68349999Y-118571293D01*
X68349999Y-118571293D02*
X68416666Y-118704626D01*
X68416666Y-118704626D02*
X68483333Y-118771293D01*
X68483333Y-118771293D02*
X68616666Y-118837959D01*
X68616666Y-118837959D02*
X68883333Y-118837959D01*
X68883333Y-118837959D02*
X69016666Y-118771293D01*
X69016666Y-118771293D02*
X69083333Y-118704626D01*
X69083333Y-118704626D02*
X69149999Y-118571293D01*
X69149999Y-118571293D02*
X69149999Y-118304626D01*
X69149999Y-118304626D02*
X69083333Y-118171293D01*
X69083333Y-118171293D02*
X69016666Y-118104626D01*
X69016666Y-118104626D02*
X68883333Y-118037959D01*
X69749999Y-118837959D02*
X69749999Y-117437959D01*
X69749999Y-117437959D02*
X70283332Y-117437959D01*
X70283332Y-117437959D02*
X70416666Y-117504626D01*
X70416666Y-117504626D02*
X70483332Y-117571293D01*
X70483332Y-117571293D02*
X70549999Y-117704626D01*
X70549999Y-117704626D02*
X70549999Y-117904626D01*
X70549999Y-117904626D02*
X70483332Y-118037959D01*
X70483332Y-118037959D02*
X70416666Y-118104626D01*
X70416666Y-118104626D02*
X70283332Y-118171293D01*
X70283332Y-118171293D02*
X69749999Y-118171293D01*
X71083332Y-118771293D02*
X71283332Y-118837959D01*
X71283332Y-118837959D02*
X71616666Y-118837959D01*
X71616666Y-118837959D02*
X71749999Y-118771293D01*
X71749999Y-118771293D02*
X71816666Y-118704626D01*
X71816666Y-118704626D02*
X71883332Y-118571293D01*
X71883332Y-118571293D02*
X71883332Y-118437959D01*
X71883332Y-118437959D02*
X71816666Y-118304626D01*
X71816666Y-118304626D02*
X71749999Y-118237959D01*
X71749999Y-118237959D02*
X71616666Y-118171293D01*
X71616666Y-118171293D02*
X71349999Y-118104626D01*
X71349999Y-118104626D02*
X71216666Y-118037959D01*
X71216666Y-118037959D02*
X71149999Y-117971293D01*
X71149999Y-117971293D02*
X71083332Y-117837959D01*
X71083332Y-117837959D02*
X71083332Y-117704626D01*
X71083332Y-117704626D02*
X71149999Y-117571293D01*
X71149999Y-117571293D02*
X71216666Y-117504626D01*
X71216666Y-117504626D02*
X71349999Y-117437959D01*
X71349999Y-117437959D02*
X71683332Y-117437959D01*
X71683332Y-117437959D02*
X71883332Y-117504626D01*
X72483332Y-117437959D02*
X72483332Y-118571293D01*
X72483332Y-118571293D02*
X72549999Y-118704626D01*
X72549999Y-118704626D02*
X72616665Y-118771293D01*
X72616665Y-118771293D02*
X72749999Y-118837959D01*
X72749999Y-118837959D02*
X73016665Y-118837959D01*
X73016665Y-118837959D02*
X73149999Y-118771293D01*
X73149999Y-118771293D02*
X73216665Y-118704626D01*
X73216665Y-118704626D02*
X73283332Y-118571293D01*
X73283332Y-118571293D02*
X73283332Y-117437959D01*
X75816666Y-118837959D02*
X75349999Y-118171293D01*
X75016666Y-118837959D02*
X75016666Y-117437959D01*
X75016666Y-117437959D02*
X75549999Y-117437959D01*
X75549999Y-117437959D02*
X75683333Y-117504626D01*
X75683333Y-117504626D02*
X75749999Y-117571293D01*
X75749999Y-117571293D02*
X75816666Y-117704626D01*
X75816666Y-117704626D02*
X75816666Y-117904626D01*
X75816666Y-117904626D02*
X75749999Y-118037959D01*
X75749999Y-118037959D02*
X75683333Y-118104626D01*
X75683333Y-118104626D02*
X75549999Y-118171293D01*
X75549999Y-118171293D02*
X75016666Y-118171293D01*
X76949999Y-118771293D02*
X76816666Y-118837959D01*
X76816666Y-118837959D02*
X76549999Y-118837959D01*
X76549999Y-118837959D02*
X76416666Y-118771293D01*
X76416666Y-118771293D02*
X76349999Y-118637959D01*
X76349999Y-118637959D02*
X76349999Y-118104626D01*
X76349999Y-118104626D02*
X76416666Y-117971293D01*
X76416666Y-117971293D02*
X76549999Y-117904626D01*
X76549999Y-117904626D02*
X76816666Y-117904626D01*
X76816666Y-117904626D02*
X76949999Y-117971293D01*
X76949999Y-117971293D02*
X77016666Y-118104626D01*
X77016666Y-118104626D02*
X77016666Y-118237959D01*
X77016666Y-118237959D02*
X76349999Y-118371293D01*
X77483333Y-117904626D02*
X77816666Y-118837959D01*
X77816666Y-118837959D02*
X78149999Y-117904626D01*
X78950000Y-117437959D02*
X79083333Y-117437959D01*
X79083333Y-117437959D02*
X79216666Y-117504626D01*
X79216666Y-117504626D02*
X79283333Y-117571293D01*
X79283333Y-117571293D02*
X79350000Y-117704626D01*
X79350000Y-117704626D02*
X79416666Y-117971293D01*
X79416666Y-117971293D02*
X79416666Y-118304626D01*
X79416666Y-118304626D02*
X79350000Y-118571293D01*
X79350000Y-118571293D02*
X79283333Y-118704626D01*
X79283333Y-118704626D02*
X79216666Y-118771293D01*
X79216666Y-118771293D02*
X79083333Y-118837959D01*
X79083333Y-118837959D02*
X78950000Y-118837959D01*
X78950000Y-118837959D02*
X78816666Y-118771293D01*
X78816666Y-118771293D02*
X78750000Y-118704626D01*
X78750000Y-118704626D02*
X78683333Y-118571293D01*
X78683333Y-118571293D02*
X78616666Y-118304626D01*
X78616666Y-118304626D02*
X78616666Y-117971293D01*
X78616666Y-117971293D02*
X78683333Y-117704626D01*
X78683333Y-117704626D02*
X78750000Y-117571293D01*
X78750000Y-117571293D02*
X78816666Y-117504626D01*
X78816666Y-117504626D02*
X78950000Y-117437959D01*
X80016666Y-118704626D02*
X80083333Y-118771293D01*
X80083333Y-118771293D02*
X80016666Y-118837959D01*
X80016666Y-118837959D02*
X79949999Y-118771293D01*
X79949999Y-118771293D02*
X80016666Y-118704626D01*
X80016666Y-118704626D02*
X80016666Y-118837959D01*
X81416666Y-118837959D02*
X80616666Y-118837959D01*
X81016666Y-118837959D02*
X81016666Y-117437959D01*
X81016666Y-117437959D02*
X80883333Y-117637959D01*
X80883333Y-117637959D02*
X80750000Y-117771293D01*
X80750000Y-117771293D02*
X80616666Y-117837959D01*
D11*
X23606666Y-87201009D02*
X23273333Y-87201009D01*
X23273333Y-87724819D02*
X23273333Y-86724819D01*
X23273333Y-86724819D02*
X23749523Y-86724819D01*
X24654285Y-87724819D02*
X24082857Y-87724819D01*
X24368571Y-87724819D02*
X24368571Y-86724819D01*
X24368571Y-86724819D02*
X24273333Y-86867676D01*
X24273333Y-86867676D02*
X24178095Y-86962914D01*
X24178095Y-86962914D02*
X24082857Y-87010533D01*
X21461905Y-114684819D02*
X21461905Y-113684819D01*
X21461905Y-113684819D02*
X21842857Y-113684819D01*
X21842857Y-113684819D02*
X21938095Y-113732438D01*
X21938095Y-113732438D02*
X21985714Y-113780057D01*
X21985714Y-113780057D02*
X22033333Y-113875295D01*
X22033333Y-113875295D02*
X22033333Y-114018152D01*
X22033333Y-114018152D02*
X21985714Y-114113390D01*
X21985714Y-114113390D02*
X21938095Y-114161009D01*
X21938095Y-114161009D02*
X21842857Y-114208628D01*
X21842857Y-114208628D02*
X21461905Y-114208628D01*
X22509524Y-114684819D02*
X22700000Y-114684819D01*
X22700000Y-114684819D02*
X22795238Y-114637200D01*
X22795238Y-114637200D02*
X22842857Y-114589580D01*
X22842857Y-114589580D02*
X22938095Y-114446723D01*
X22938095Y-114446723D02*
X22985714Y-114256247D01*
X22985714Y-114256247D02*
X22985714Y-113875295D01*
X22985714Y-113875295D02*
X22938095Y-113780057D01*
X22938095Y-113780057D02*
X22890476Y-113732438D01*
X22890476Y-113732438D02*
X22795238Y-113684819D01*
X22795238Y-113684819D02*
X22604762Y-113684819D01*
X22604762Y-113684819D02*
X22509524Y-113732438D01*
X22509524Y-113732438D02*
X22461905Y-113780057D01*
X22461905Y-113780057D02*
X22414286Y-113875295D01*
X22414286Y-113875295D02*
X22414286Y-114113390D01*
X22414286Y-114113390D02*
X22461905Y-114208628D01*
X22461905Y-114208628D02*
X22509524Y-114256247D01*
X22509524Y-114256247D02*
X22604762Y-114303866D01*
X22604762Y-114303866D02*
X22795238Y-114303866D01*
X22795238Y-114303866D02*
X22890476Y-114256247D01*
X22890476Y-114256247D02*
X22938095Y-114208628D01*
X22938095Y-114208628D02*
X22985714Y-114113390D01*
X69966666Y-89001009D02*
X69633333Y-89001009D01*
X69633333Y-89524819D02*
X69633333Y-88524819D01*
X69633333Y-88524819D02*
X70109523Y-88524819D01*
X70395238Y-88524819D02*
X71014285Y-88524819D01*
X71014285Y-88524819D02*
X70680952Y-88905771D01*
X70680952Y-88905771D02*
X70823809Y-88905771D01*
X70823809Y-88905771D02*
X70919047Y-88953390D01*
X70919047Y-88953390D02*
X70966666Y-89001009D01*
X70966666Y-89001009D02*
X71014285Y-89096247D01*
X71014285Y-89096247D02*
X71014285Y-89334342D01*
X71014285Y-89334342D02*
X70966666Y-89429580D01*
X70966666Y-89429580D02*
X70919047Y-89477200D01*
X70919047Y-89477200D02*
X70823809Y-89524819D01*
X70823809Y-89524819D02*
X70538095Y-89524819D01*
X70538095Y-89524819D02*
X70442857Y-89477200D01*
X70442857Y-89477200D02*
X70395238Y-89429580D01*
X97703333Y-71414819D02*
X97370000Y-70938628D01*
X97131905Y-71414819D02*
X97131905Y-70414819D01*
X97131905Y-70414819D02*
X97512857Y-70414819D01*
X97512857Y-70414819D02*
X97608095Y-70462438D01*
X97608095Y-70462438D02*
X97655714Y-70510057D01*
X97655714Y-70510057D02*
X97703333Y-70605295D01*
X97703333Y-70605295D02*
X97703333Y-70748152D01*
X97703333Y-70748152D02*
X97655714Y-70843390D01*
X97655714Y-70843390D02*
X97608095Y-70891009D01*
X97608095Y-70891009D02*
X97512857Y-70938628D01*
X97512857Y-70938628D02*
X97131905Y-70938628D01*
X98655714Y-71414819D02*
X98084286Y-71414819D01*
X98370000Y-71414819D02*
X98370000Y-70414819D01*
X98370000Y-70414819D02*
X98274762Y-70557676D01*
X98274762Y-70557676D02*
X98179524Y-70652914D01*
X98179524Y-70652914D02*
X98084286Y-70700533D01*
X56863333Y-29544819D02*
X56530000Y-29068628D01*
X56291905Y-29544819D02*
X56291905Y-28544819D01*
X56291905Y-28544819D02*
X56672857Y-28544819D01*
X56672857Y-28544819D02*
X56768095Y-28592438D01*
X56768095Y-28592438D02*
X56815714Y-28640057D01*
X56815714Y-28640057D02*
X56863333Y-28735295D01*
X56863333Y-28735295D02*
X56863333Y-28878152D01*
X56863333Y-28878152D02*
X56815714Y-28973390D01*
X56815714Y-28973390D02*
X56768095Y-29021009D01*
X56768095Y-29021009D02*
X56672857Y-29068628D01*
X56672857Y-29068628D02*
X56291905Y-29068628D01*
X57196667Y-28544819D02*
X57863333Y-28544819D01*
X57863333Y-28544819D02*
X57434762Y-29544819D01*
X66096905Y-61744819D02*
X66096905Y-60744819D01*
X66096905Y-60744819D02*
X66335000Y-60744819D01*
X66335000Y-60744819D02*
X66477857Y-60792438D01*
X66477857Y-60792438D02*
X66573095Y-60887676D01*
X66573095Y-60887676D02*
X66620714Y-60982914D01*
X66620714Y-60982914D02*
X66668333Y-61173390D01*
X66668333Y-61173390D02*
X66668333Y-61316247D01*
X66668333Y-61316247D02*
X66620714Y-61506723D01*
X66620714Y-61506723D02*
X66573095Y-61601961D01*
X66573095Y-61601961D02*
X66477857Y-61697200D01*
X66477857Y-61697200D02*
X66335000Y-61744819D01*
X66335000Y-61744819D02*
X66096905Y-61744819D01*
X67049286Y-60840057D02*
X67096905Y-60792438D01*
X67096905Y-60792438D02*
X67192143Y-60744819D01*
X67192143Y-60744819D02*
X67430238Y-60744819D01*
X67430238Y-60744819D02*
X67525476Y-60792438D01*
X67525476Y-60792438D02*
X67573095Y-60840057D01*
X67573095Y-60840057D02*
X67620714Y-60935295D01*
X67620714Y-60935295D02*
X67620714Y-61030533D01*
X67620714Y-61030533D02*
X67573095Y-61173390D01*
X67573095Y-61173390D02*
X67001667Y-61744819D01*
X67001667Y-61744819D02*
X67620714Y-61744819D01*
X92533333Y-72829580D02*
X92485714Y-72877200D01*
X92485714Y-72877200D02*
X92342857Y-72924819D01*
X92342857Y-72924819D02*
X92247619Y-72924819D01*
X92247619Y-72924819D02*
X92104762Y-72877200D01*
X92104762Y-72877200D02*
X92009524Y-72781961D01*
X92009524Y-72781961D02*
X91961905Y-72686723D01*
X91961905Y-72686723D02*
X91914286Y-72496247D01*
X91914286Y-72496247D02*
X91914286Y-72353390D01*
X91914286Y-72353390D02*
X91961905Y-72162914D01*
X91961905Y-72162914D02*
X92009524Y-72067676D01*
X92009524Y-72067676D02*
X92104762Y-71972438D01*
X92104762Y-71972438D02*
X92247619Y-71924819D01*
X92247619Y-71924819D02*
X92342857Y-71924819D01*
X92342857Y-71924819D02*
X92485714Y-71972438D01*
X92485714Y-71972438D02*
X92533333Y-72020057D01*
X93009524Y-72924819D02*
X93200000Y-72924819D01*
X93200000Y-72924819D02*
X93295238Y-72877200D01*
X93295238Y-72877200D02*
X93342857Y-72829580D01*
X93342857Y-72829580D02*
X93438095Y-72686723D01*
X93438095Y-72686723D02*
X93485714Y-72496247D01*
X93485714Y-72496247D02*
X93485714Y-72115295D01*
X93485714Y-72115295D02*
X93438095Y-72020057D01*
X93438095Y-72020057D02*
X93390476Y-71972438D01*
X93390476Y-71972438D02*
X93295238Y-71924819D01*
X93295238Y-71924819D02*
X93104762Y-71924819D01*
X93104762Y-71924819D02*
X93009524Y-71972438D01*
X93009524Y-71972438D02*
X92961905Y-72020057D01*
X92961905Y-72020057D02*
X92914286Y-72115295D01*
X92914286Y-72115295D02*
X92914286Y-72353390D01*
X92914286Y-72353390D02*
X92961905Y-72448628D01*
X92961905Y-72448628D02*
X93009524Y-72496247D01*
X93009524Y-72496247D02*
X93104762Y-72543866D01*
X93104762Y-72543866D02*
X93295238Y-72543866D01*
X93295238Y-72543866D02*
X93390476Y-72496247D01*
X93390476Y-72496247D02*
X93438095Y-72448628D01*
X93438095Y-72448628D02*
X93485714Y-72353390D01*
X92863333Y-59874819D02*
X92530000Y-59398628D01*
X92291905Y-59874819D02*
X92291905Y-58874819D01*
X92291905Y-58874819D02*
X92672857Y-58874819D01*
X92672857Y-58874819D02*
X92768095Y-58922438D01*
X92768095Y-58922438D02*
X92815714Y-58970057D01*
X92815714Y-58970057D02*
X92863333Y-59065295D01*
X92863333Y-59065295D02*
X92863333Y-59208152D01*
X92863333Y-59208152D02*
X92815714Y-59303390D01*
X92815714Y-59303390D02*
X92768095Y-59351009D01*
X92768095Y-59351009D02*
X92672857Y-59398628D01*
X92672857Y-59398628D02*
X92291905Y-59398628D01*
X93768095Y-58874819D02*
X93291905Y-58874819D01*
X93291905Y-58874819D02*
X93244286Y-59351009D01*
X93244286Y-59351009D02*
X93291905Y-59303390D01*
X93291905Y-59303390D02*
X93387143Y-59255771D01*
X93387143Y-59255771D02*
X93625238Y-59255771D01*
X93625238Y-59255771D02*
X93720476Y-59303390D01*
X93720476Y-59303390D02*
X93768095Y-59351009D01*
X93768095Y-59351009D02*
X93815714Y-59446247D01*
X93815714Y-59446247D02*
X93815714Y-59684342D01*
X93815714Y-59684342D02*
X93768095Y-59779580D01*
X93768095Y-59779580D02*
X93720476Y-59827200D01*
X93720476Y-59827200D02*
X93625238Y-59874819D01*
X93625238Y-59874819D02*
X93387143Y-59874819D01*
X93387143Y-59874819D02*
X93291905Y-59827200D01*
X93291905Y-59827200D02*
X93244286Y-59779580D01*
X79303333Y-43154819D02*
X78970000Y-42678628D01*
X78731905Y-43154819D02*
X78731905Y-42154819D01*
X78731905Y-42154819D02*
X79112857Y-42154819D01*
X79112857Y-42154819D02*
X79208095Y-42202438D01*
X79208095Y-42202438D02*
X79255714Y-42250057D01*
X79255714Y-42250057D02*
X79303333Y-42345295D01*
X79303333Y-42345295D02*
X79303333Y-42488152D01*
X79303333Y-42488152D02*
X79255714Y-42583390D01*
X79255714Y-42583390D02*
X79208095Y-42631009D01*
X79208095Y-42631009D02*
X79112857Y-42678628D01*
X79112857Y-42678628D02*
X78731905Y-42678628D01*
X79636667Y-42154819D02*
X80255714Y-42154819D01*
X80255714Y-42154819D02*
X79922381Y-42535771D01*
X79922381Y-42535771D02*
X80065238Y-42535771D01*
X80065238Y-42535771D02*
X80160476Y-42583390D01*
X80160476Y-42583390D02*
X80208095Y-42631009D01*
X80208095Y-42631009D02*
X80255714Y-42726247D01*
X80255714Y-42726247D02*
X80255714Y-42964342D01*
X80255714Y-42964342D02*
X80208095Y-43059580D01*
X80208095Y-43059580D02*
X80160476Y-43107200D01*
X80160476Y-43107200D02*
X80065238Y-43154819D01*
X80065238Y-43154819D02*
X79779524Y-43154819D01*
X79779524Y-43154819D02*
X79684286Y-43107200D01*
X79684286Y-43107200D02*
X79636667Y-43059580D01*
X72148333Y-34979580D02*
X72100714Y-35027200D01*
X72100714Y-35027200D02*
X71957857Y-35074819D01*
X71957857Y-35074819D02*
X71862619Y-35074819D01*
X71862619Y-35074819D02*
X71719762Y-35027200D01*
X71719762Y-35027200D02*
X71624524Y-34931961D01*
X71624524Y-34931961D02*
X71576905Y-34836723D01*
X71576905Y-34836723D02*
X71529286Y-34646247D01*
X71529286Y-34646247D02*
X71529286Y-34503390D01*
X71529286Y-34503390D02*
X71576905Y-34312914D01*
X71576905Y-34312914D02*
X71624524Y-34217676D01*
X71624524Y-34217676D02*
X71719762Y-34122438D01*
X71719762Y-34122438D02*
X71862619Y-34074819D01*
X71862619Y-34074819D02*
X71957857Y-34074819D01*
X71957857Y-34074819D02*
X72100714Y-34122438D01*
X72100714Y-34122438D02*
X72148333Y-34170057D01*
X73053095Y-34074819D02*
X72576905Y-34074819D01*
X72576905Y-34074819D02*
X72529286Y-34551009D01*
X72529286Y-34551009D02*
X72576905Y-34503390D01*
X72576905Y-34503390D02*
X72672143Y-34455771D01*
X72672143Y-34455771D02*
X72910238Y-34455771D01*
X72910238Y-34455771D02*
X73005476Y-34503390D01*
X73005476Y-34503390D02*
X73053095Y-34551009D01*
X73053095Y-34551009D02*
X73100714Y-34646247D01*
X73100714Y-34646247D02*
X73100714Y-34884342D01*
X73100714Y-34884342D02*
X73053095Y-34979580D01*
X73053095Y-34979580D02*
X73005476Y-35027200D01*
X73005476Y-35027200D02*
X72910238Y-35074819D01*
X72910238Y-35074819D02*
X72672143Y-35074819D01*
X72672143Y-35074819D02*
X72576905Y-35027200D01*
X72576905Y-35027200D02*
X72529286Y-34979580D01*
X130705714Y-76494819D02*
X130705714Y-75494819D01*
X130705714Y-75494819D02*
X131086666Y-75494819D01*
X131086666Y-75494819D02*
X131181904Y-75542438D01*
X131181904Y-75542438D02*
X131229523Y-75590057D01*
X131229523Y-75590057D02*
X131277142Y-75685295D01*
X131277142Y-75685295D02*
X131277142Y-75828152D01*
X131277142Y-75828152D02*
X131229523Y-75923390D01*
X131229523Y-75923390D02*
X131181904Y-75971009D01*
X131181904Y-75971009D02*
X131086666Y-76018628D01*
X131086666Y-76018628D02*
X130705714Y-76018628D01*
X132229523Y-76494819D02*
X131658095Y-76494819D01*
X131943809Y-76494819D02*
X131943809Y-75494819D01*
X131943809Y-75494819D02*
X131848571Y-75637676D01*
X131848571Y-75637676D02*
X131753333Y-75732914D01*
X131753333Y-75732914D02*
X131658095Y-75780533D01*
X132562857Y-75494819D02*
X133229523Y-75494819D01*
X133229523Y-75494819D02*
X132800952Y-76494819D01*
X7041905Y-38684819D02*
X7041905Y-37684819D01*
X7041905Y-37684819D02*
X7422857Y-37684819D01*
X7422857Y-37684819D02*
X7518095Y-37732438D01*
X7518095Y-37732438D02*
X7565714Y-37780057D01*
X7565714Y-37780057D02*
X7613333Y-37875295D01*
X7613333Y-37875295D02*
X7613333Y-38018152D01*
X7613333Y-38018152D02*
X7565714Y-38113390D01*
X7565714Y-38113390D02*
X7518095Y-38161009D01*
X7518095Y-38161009D02*
X7422857Y-38208628D01*
X7422857Y-38208628D02*
X7041905Y-38208628D01*
X7994286Y-37780057D02*
X8041905Y-37732438D01*
X8041905Y-37732438D02*
X8137143Y-37684819D01*
X8137143Y-37684819D02*
X8375238Y-37684819D01*
X8375238Y-37684819D02*
X8470476Y-37732438D01*
X8470476Y-37732438D02*
X8518095Y-37780057D01*
X8518095Y-37780057D02*
X8565714Y-37875295D01*
X8565714Y-37875295D02*
X8565714Y-37970533D01*
X8565714Y-37970533D02*
X8518095Y-38113390D01*
X8518095Y-38113390D02*
X7946667Y-38684819D01*
X7946667Y-38684819D02*
X8565714Y-38684819D01*
X121627142Y-62429580D02*
X121579523Y-62477200D01*
X121579523Y-62477200D02*
X121436666Y-62524819D01*
X121436666Y-62524819D02*
X121341428Y-62524819D01*
X121341428Y-62524819D02*
X121198571Y-62477200D01*
X121198571Y-62477200D02*
X121103333Y-62381961D01*
X121103333Y-62381961D02*
X121055714Y-62286723D01*
X121055714Y-62286723D02*
X121008095Y-62096247D01*
X121008095Y-62096247D02*
X121008095Y-61953390D01*
X121008095Y-61953390D02*
X121055714Y-61762914D01*
X121055714Y-61762914D02*
X121103333Y-61667676D01*
X121103333Y-61667676D02*
X121198571Y-61572438D01*
X121198571Y-61572438D02*
X121341428Y-61524819D01*
X121341428Y-61524819D02*
X121436666Y-61524819D01*
X121436666Y-61524819D02*
X121579523Y-61572438D01*
X121579523Y-61572438D02*
X121627142Y-61620057D01*
X122579523Y-62524819D02*
X122008095Y-62524819D01*
X122293809Y-62524819D02*
X122293809Y-61524819D01*
X122293809Y-61524819D02*
X122198571Y-61667676D01*
X122198571Y-61667676D02*
X122103333Y-61762914D01*
X122103333Y-61762914D02*
X122008095Y-61810533D01*
X123436666Y-61524819D02*
X123246190Y-61524819D01*
X123246190Y-61524819D02*
X123150952Y-61572438D01*
X123150952Y-61572438D02*
X123103333Y-61620057D01*
X123103333Y-61620057D02*
X123008095Y-61762914D01*
X123008095Y-61762914D02*
X122960476Y-61953390D01*
X122960476Y-61953390D02*
X122960476Y-62334342D01*
X122960476Y-62334342D02*
X123008095Y-62429580D01*
X123008095Y-62429580D02*
X123055714Y-62477200D01*
X123055714Y-62477200D02*
X123150952Y-62524819D01*
X123150952Y-62524819D02*
X123341428Y-62524819D01*
X123341428Y-62524819D02*
X123436666Y-62477200D01*
X123436666Y-62477200D02*
X123484285Y-62429580D01*
X123484285Y-62429580D02*
X123531904Y-62334342D01*
X123531904Y-62334342D02*
X123531904Y-62096247D01*
X123531904Y-62096247D02*
X123484285Y-62001009D01*
X123484285Y-62001009D02*
X123436666Y-61953390D01*
X123436666Y-61953390D02*
X123341428Y-61905771D01*
X123341428Y-61905771D02*
X123150952Y-61905771D01*
X123150952Y-61905771D02*
X123055714Y-61953390D01*
X123055714Y-61953390D02*
X123008095Y-62001009D01*
X123008095Y-62001009D02*
X122960476Y-62096247D01*
X77233333Y-33279580D02*
X77185714Y-33327200D01*
X77185714Y-33327200D02*
X77042857Y-33374819D01*
X77042857Y-33374819D02*
X76947619Y-33374819D01*
X76947619Y-33374819D02*
X76804762Y-33327200D01*
X76804762Y-33327200D02*
X76709524Y-33231961D01*
X76709524Y-33231961D02*
X76661905Y-33136723D01*
X76661905Y-33136723D02*
X76614286Y-32946247D01*
X76614286Y-32946247D02*
X76614286Y-32803390D01*
X76614286Y-32803390D02*
X76661905Y-32612914D01*
X76661905Y-32612914D02*
X76709524Y-32517676D01*
X76709524Y-32517676D02*
X76804762Y-32422438D01*
X76804762Y-32422438D02*
X76947619Y-32374819D01*
X76947619Y-32374819D02*
X77042857Y-32374819D01*
X77042857Y-32374819D02*
X77185714Y-32422438D01*
X77185714Y-32422438D02*
X77233333Y-32470057D01*
X78090476Y-32374819D02*
X77900000Y-32374819D01*
X77900000Y-32374819D02*
X77804762Y-32422438D01*
X77804762Y-32422438D02*
X77757143Y-32470057D01*
X77757143Y-32470057D02*
X77661905Y-32612914D01*
X77661905Y-32612914D02*
X77614286Y-32803390D01*
X77614286Y-32803390D02*
X77614286Y-33184342D01*
X77614286Y-33184342D02*
X77661905Y-33279580D01*
X77661905Y-33279580D02*
X77709524Y-33327200D01*
X77709524Y-33327200D02*
X77804762Y-33374819D01*
X77804762Y-33374819D02*
X77995238Y-33374819D01*
X77995238Y-33374819D02*
X78090476Y-33327200D01*
X78090476Y-33327200D02*
X78138095Y-33279580D01*
X78138095Y-33279580D02*
X78185714Y-33184342D01*
X78185714Y-33184342D02*
X78185714Y-32946247D01*
X78185714Y-32946247D02*
X78138095Y-32851009D01*
X78138095Y-32851009D02*
X78090476Y-32803390D01*
X78090476Y-32803390D02*
X77995238Y-32755771D01*
X77995238Y-32755771D02*
X77804762Y-32755771D01*
X77804762Y-32755771D02*
X77709524Y-32803390D01*
X77709524Y-32803390D02*
X77661905Y-32851009D01*
X77661905Y-32851009D02*
X77614286Y-32946247D01*
X47448333Y-52709580D02*
X47400714Y-52757200D01*
X47400714Y-52757200D02*
X47257857Y-52804819D01*
X47257857Y-52804819D02*
X47162619Y-52804819D01*
X47162619Y-52804819D02*
X47019762Y-52757200D01*
X47019762Y-52757200D02*
X46924524Y-52661961D01*
X46924524Y-52661961D02*
X46876905Y-52566723D01*
X46876905Y-52566723D02*
X46829286Y-52376247D01*
X46829286Y-52376247D02*
X46829286Y-52233390D01*
X46829286Y-52233390D02*
X46876905Y-52042914D01*
X46876905Y-52042914D02*
X46924524Y-51947676D01*
X46924524Y-51947676D02*
X47019762Y-51852438D01*
X47019762Y-51852438D02*
X47162619Y-51804819D01*
X47162619Y-51804819D02*
X47257857Y-51804819D01*
X47257857Y-51804819D02*
X47400714Y-51852438D01*
X47400714Y-51852438D02*
X47448333Y-51900057D01*
X48305476Y-52138152D02*
X48305476Y-52804819D01*
X48067381Y-51757200D02*
X47829286Y-52471485D01*
X47829286Y-52471485D02*
X48448333Y-52471485D01*
X130705714Y-89924819D02*
X130705714Y-88924819D01*
X130705714Y-88924819D02*
X131086666Y-88924819D01*
X131086666Y-88924819D02*
X131181904Y-88972438D01*
X131181904Y-88972438D02*
X131229523Y-89020057D01*
X131229523Y-89020057D02*
X131277142Y-89115295D01*
X131277142Y-89115295D02*
X131277142Y-89258152D01*
X131277142Y-89258152D02*
X131229523Y-89353390D01*
X131229523Y-89353390D02*
X131181904Y-89401009D01*
X131181904Y-89401009D02*
X131086666Y-89448628D01*
X131086666Y-89448628D02*
X130705714Y-89448628D01*
X132229523Y-89924819D02*
X131658095Y-89924819D01*
X131943809Y-89924819D02*
X131943809Y-88924819D01*
X131943809Y-88924819D02*
X131848571Y-89067676D01*
X131848571Y-89067676D02*
X131753333Y-89162914D01*
X131753333Y-89162914D02*
X131658095Y-89210533D01*
X133086666Y-88924819D02*
X132896190Y-88924819D01*
X132896190Y-88924819D02*
X132800952Y-88972438D01*
X132800952Y-88972438D02*
X132753333Y-89020057D01*
X132753333Y-89020057D02*
X132658095Y-89162914D01*
X132658095Y-89162914D02*
X132610476Y-89353390D01*
X132610476Y-89353390D02*
X132610476Y-89734342D01*
X132610476Y-89734342D02*
X132658095Y-89829580D01*
X132658095Y-89829580D02*
X132705714Y-89877200D01*
X132705714Y-89877200D02*
X132800952Y-89924819D01*
X132800952Y-89924819D02*
X132991428Y-89924819D01*
X132991428Y-89924819D02*
X133086666Y-89877200D01*
X133086666Y-89877200D02*
X133134285Y-89829580D01*
X133134285Y-89829580D02*
X133181904Y-89734342D01*
X133181904Y-89734342D02*
X133181904Y-89496247D01*
X133181904Y-89496247D02*
X133134285Y-89401009D01*
X133134285Y-89401009D02*
X133086666Y-89353390D01*
X133086666Y-89353390D02*
X132991428Y-89305771D01*
X132991428Y-89305771D02*
X132800952Y-89305771D01*
X132800952Y-89305771D02*
X132705714Y-89353390D01*
X132705714Y-89353390D02*
X132658095Y-89401009D01*
X132658095Y-89401009D02*
X132610476Y-89496247D01*
X82868810Y-69524819D02*
X82868810Y-68524819D01*
X83916428Y-69429580D02*
X83868809Y-69477200D01*
X83868809Y-69477200D02*
X83725952Y-69524819D01*
X83725952Y-69524819D02*
X83630714Y-69524819D01*
X83630714Y-69524819D02*
X83487857Y-69477200D01*
X83487857Y-69477200D02*
X83392619Y-69381961D01*
X83392619Y-69381961D02*
X83345000Y-69286723D01*
X83345000Y-69286723D02*
X83297381Y-69096247D01*
X83297381Y-69096247D02*
X83297381Y-68953390D01*
X83297381Y-68953390D02*
X83345000Y-68762914D01*
X83345000Y-68762914D02*
X83392619Y-68667676D01*
X83392619Y-68667676D02*
X83487857Y-68572438D01*
X83487857Y-68572438D02*
X83630714Y-68524819D01*
X83630714Y-68524819D02*
X83725952Y-68524819D01*
X83725952Y-68524819D02*
X83868809Y-68572438D01*
X83868809Y-68572438D02*
X83916428Y-68620057D01*
X84297381Y-68620057D02*
X84345000Y-68572438D01*
X84345000Y-68572438D02*
X84440238Y-68524819D01*
X84440238Y-68524819D02*
X84678333Y-68524819D01*
X84678333Y-68524819D02*
X84773571Y-68572438D01*
X84773571Y-68572438D02*
X84821190Y-68620057D01*
X84821190Y-68620057D02*
X84868809Y-68715295D01*
X84868809Y-68715295D02*
X84868809Y-68810533D01*
X84868809Y-68810533D02*
X84821190Y-68953390D01*
X84821190Y-68953390D02*
X84249762Y-69524819D01*
X84249762Y-69524819D02*
X84868809Y-69524819D01*
X107744761Y-30490057D02*
X107649523Y-30442438D01*
X107649523Y-30442438D02*
X107554285Y-30347200D01*
X107554285Y-30347200D02*
X107411428Y-30204342D01*
X107411428Y-30204342D02*
X107316190Y-30156723D01*
X107316190Y-30156723D02*
X107220952Y-30156723D01*
X107268571Y-30394819D02*
X107173333Y-30347200D01*
X107173333Y-30347200D02*
X107078095Y-30251961D01*
X107078095Y-30251961D02*
X107030476Y-30061485D01*
X107030476Y-30061485D02*
X107030476Y-29728152D01*
X107030476Y-29728152D02*
X107078095Y-29537676D01*
X107078095Y-29537676D02*
X107173333Y-29442438D01*
X107173333Y-29442438D02*
X107268571Y-29394819D01*
X107268571Y-29394819D02*
X107459047Y-29394819D01*
X107459047Y-29394819D02*
X107554285Y-29442438D01*
X107554285Y-29442438D02*
X107649523Y-29537676D01*
X107649523Y-29537676D02*
X107697142Y-29728152D01*
X107697142Y-29728152D02*
X107697142Y-30061485D01*
X107697142Y-30061485D02*
X107649523Y-30251961D01*
X107649523Y-30251961D02*
X107554285Y-30347200D01*
X107554285Y-30347200D02*
X107459047Y-30394819D01*
X107459047Y-30394819D02*
X107268571Y-30394819D01*
X108078095Y-29490057D02*
X108125714Y-29442438D01*
X108125714Y-29442438D02*
X108220952Y-29394819D01*
X108220952Y-29394819D02*
X108459047Y-29394819D01*
X108459047Y-29394819D02*
X108554285Y-29442438D01*
X108554285Y-29442438D02*
X108601904Y-29490057D01*
X108601904Y-29490057D02*
X108649523Y-29585295D01*
X108649523Y-29585295D02*
X108649523Y-29680533D01*
X108649523Y-29680533D02*
X108601904Y-29823390D01*
X108601904Y-29823390D02*
X108030476Y-30394819D01*
X108030476Y-30394819D02*
X108649523Y-30394819D01*
X45166905Y-71954819D02*
X45166905Y-70954819D01*
X45166905Y-70954819D02*
X45405000Y-70954819D01*
X45405000Y-70954819D02*
X45547857Y-71002438D01*
X45547857Y-71002438D02*
X45643095Y-71097676D01*
X45643095Y-71097676D02*
X45690714Y-71192914D01*
X45690714Y-71192914D02*
X45738333Y-71383390D01*
X45738333Y-71383390D02*
X45738333Y-71526247D01*
X45738333Y-71526247D02*
X45690714Y-71716723D01*
X45690714Y-71716723D02*
X45643095Y-71811961D01*
X45643095Y-71811961D02*
X45547857Y-71907200D01*
X45547857Y-71907200D02*
X45405000Y-71954819D01*
X45405000Y-71954819D02*
X45166905Y-71954819D01*
X46690714Y-71954819D02*
X46119286Y-71954819D01*
X46405000Y-71954819D02*
X46405000Y-70954819D01*
X46405000Y-70954819D02*
X46309762Y-71097676D01*
X46309762Y-71097676D02*
X46214524Y-71192914D01*
X46214524Y-71192914D02*
X46119286Y-71240533D01*
X130705714Y-99234819D02*
X130705714Y-98234819D01*
X130705714Y-98234819D02*
X131086666Y-98234819D01*
X131086666Y-98234819D02*
X131181904Y-98282438D01*
X131181904Y-98282438D02*
X131229523Y-98330057D01*
X131229523Y-98330057D02*
X131277142Y-98425295D01*
X131277142Y-98425295D02*
X131277142Y-98568152D01*
X131277142Y-98568152D02*
X131229523Y-98663390D01*
X131229523Y-98663390D02*
X131181904Y-98711009D01*
X131181904Y-98711009D02*
X131086666Y-98758628D01*
X131086666Y-98758628D02*
X130705714Y-98758628D01*
X132229523Y-99234819D02*
X131658095Y-99234819D01*
X131943809Y-99234819D02*
X131943809Y-98234819D01*
X131943809Y-98234819D02*
X131848571Y-98377676D01*
X131848571Y-98377676D02*
X131753333Y-98472914D01*
X131753333Y-98472914D02*
X131658095Y-98520533D01*
X133134285Y-98234819D02*
X132658095Y-98234819D01*
X132658095Y-98234819D02*
X132610476Y-98711009D01*
X132610476Y-98711009D02*
X132658095Y-98663390D01*
X132658095Y-98663390D02*
X132753333Y-98615771D01*
X132753333Y-98615771D02*
X132991428Y-98615771D01*
X132991428Y-98615771D02*
X133086666Y-98663390D01*
X133086666Y-98663390D02*
X133134285Y-98711009D01*
X133134285Y-98711009D02*
X133181904Y-98806247D01*
X133181904Y-98806247D02*
X133181904Y-99044342D01*
X133181904Y-99044342D02*
X133134285Y-99139580D01*
X133134285Y-99139580D02*
X133086666Y-99187200D01*
X133086666Y-99187200D02*
X132991428Y-99234819D01*
X132991428Y-99234819D02*
X132753333Y-99234819D01*
X132753333Y-99234819D02*
X132658095Y-99187200D01*
X132658095Y-99187200D02*
X132610476Y-99139580D01*
X71334761Y-29690057D02*
X71239523Y-29642438D01*
X71239523Y-29642438D02*
X71144285Y-29547200D01*
X71144285Y-29547200D02*
X71001428Y-29404342D01*
X71001428Y-29404342D02*
X70906190Y-29356723D01*
X70906190Y-29356723D02*
X70810952Y-29356723D01*
X70858571Y-29594819D02*
X70763333Y-29547200D01*
X70763333Y-29547200D02*
X70668095Y-29451961D01*
X70668095Y-29451961D02*
X70620476Y-29261485D01*
X70620476Y-29261485D02*
X70620476Y-28928152D01*
X70620476Y-28928152D02*
X70668095Y-28737676D01*
X70668095Y-28737676D02*
X70763333Y-28642438D01*
X70763333Y-28642438D02*
X70858571Y-28594819D01*
X70858571Y-28594819D02*
X71049047Y-28594819D01*
X71049047Y-28594819D02*
X71144285Y-28642438D01*
X71144285Y-28642438D02*
X71239523Y-28737676D01*
X71239523Y-28737676D02*
X71287142Y-28928152D01*
X71287142Y-28928152D02*
X71287142Y-29261485D01*
X71287142Y-29261485D02*
X71239523Y-29451961D01*
X71239523Y-29451961D02*
X71144285Y-29547200D01*
X71144285Y-29547200D02*
X71049047Y-29594819D01*
X71049047Y-29594819D02*
X70858571Y-29594819D01*
X72239523Y-29594819D02*
X71668095Y-29594819D01*
X71953809Y-29594819D02*
X71953809Y-28594819D01*
X71953809Y-28594819D02*
X71858571Y-28737676D01*
X71858571Y-28737676D02*
X71763333Y-28832914D01*
X71763333Y-28832914D02*
X71668095Y-28880533D01*
X23573333Y-69419580D02*
X23525714Y-69467200D01*
X23525714Y-69467200D02*
X23382857Y-69514819D01*
X23382857Y-69514819D02*
X23287619Y-69514819D01*
X23287619Y-69514819D02*
X23144762Y-69467200D01*
X23144762Y-69467200D02*
X23049524Y-69371961D01*
X23049524Y-69371961D02*
X23001905Y-69276723D01*
X23001905Y-69276723D02*
X22954286Y-69086247D01*
X22954286Y-69086247D02*
X22954286Y-68943390D01*
X22954286Y-68943390D02*
X23001905Y-68752914D01*
X23001905Y-68752914D02*
X23049524Y-68657676D01*
X23049524Y-68657676D02*
X23144762Y-68562438D01*
X23144762Y-68562438D02*
X23287619Y-68514819D01*
X23287619Y-68514819D02*
X23382857Y-68514819D01*
X23382857Y-68514819D02*
X23525714Y-68562438D01*
X23525714Y-68562438D02*
X23573333Y-68610057D01*
X24525714Y-69514819D02*
X23954286Y-69514819D01*
X24240000Y-69514819D02*
X24240000Y-68514819D01*
X24240000Y-68514819D02*
X24144762Y-68657676D01*
X24144762Y-68657676D02*
X24049524Y-68752914D01*
X24049524Y-68752914D02*
X23954286Y-68800533D01*
X41748333Y-36299580D02*
X41700714Y-36347200D01*
X41700714Y-36347200D02*
X41557857Y-36394819D01*
X41557857Y-36394819D02*
X41462619Y-36394819D01*
X41462619Y-36394819D02*
X41319762Y-36347200D01*
X41319762Y-36347200D02*
X41224524Y-36251961D01*
X41224524Y-36251961D02*
X41176905Y-36156723D01*
X41176905Y-36156723D02*
X41129286Y-35966247D01*
X41129286Y-35966247D02*
X41129286Y-35823390D01*
X41129286Y-35823390D02*
X41176905Y-35632914D01*
X41176905Y-35632914D02*
X41224524Y-35537676D01*
X41224524Y-35537676D02*
X41319762Y-35442438D01*
X41319762Y-35442438D02*
X41462619Y-35394819D01*
X41462619Y-35394819D02*
X41557857Y-35394819D01*
X41557857Y-35394819D02*
X41700714Y-35442438D01*
X41700714Y-35442438D02*
X41748333Y-35490057D01*
X42129286Y-35490057D02*
X42176905Y-35442438D01*
X42176905Y-35442438D02*
X42272143Y-35394819D01*
X42272143Y-35394819D02*
X42510238Y-35394819D01*
X42510238Y-35394819D02*
X42605476Y-35442438D01*
X42605476Y-35442438D02*
X42653095Y-35490057D01*
X42653095Y-35490057D02*
X42700714Y-35585295D01*
X42700714Y-35585295D02*
X42700714Y-35680533D01*
X42700714Y-35680533D02*
X42653095Y-35823390D01*
X42653095Y-35823390D02*
X42081667Y-36394819D01*
X42081667Y-36394819D02*
X42700714Y-36394819D01*
X68433333Y-58294819D02*
X68100000Y-57818628D01*
X67861905Y-58294819D02*
X67861905Y-57294819D01*
X67861905Y-57294819D02*
X68242857Y-57294819D01*
X68242857Y-57294819D02*
X68338095Y-57342438D01*
X68338095Y-57342438D02*
X68385714Y-57390057D01*
X68385714Y-57390057D02*
X68433333Y-57485295D01*
X68433333Y-57485295D02*
X68433333Y-57628152D01*
X68433333Y-57628152D02*
X68385714Y-57723390D01*
X68385714Y-57723390D02*
X68338095Y-57771009D01*
X68338095Y-57771009D02*
X68242857Y-57818628D01*
X68242857Y-57818628D02*
X67861905Y-57818628D01*
X68814286Y-57390057D02*
X68861905Y-57342438D01*
X68861905Y-57342438D02*
X68957143Y-57294819D01*
X68957143Y-57294819D02*
X69195238Y-57294819D01*
X69195238Y-57294819D02*
X69290476Y-57342438D01*
X69290476Y-57342438D02*
X69338095Y-57390057D01*
X69338095Y-57390057D02*
X69385714Y-57485295D01*
X69385714Y-57485295D02*
X69385714Y-57580533D01*
X69385714Y-57580533D02*
X69338095Y-57723390D01*
X69338095Y-57723390D02*
X68766667Y-58294819D01*
X68766667Y-58294819D02*
X69385714Y-58294819D01*
X130705714Y-45044819D02*
X130705714Y-44044819D01*
X130705714Y-44044819D02*
X131086666Y-44044819D01*
X131086666Y-44044819D02*
X131181904Y-44092438D01*
X131181904Y-44092438D02*
X131229523Y-44140057D01*
X131229523Y-44140057D02*
X131277142Y-44235295D01*
X131277142Y-44235295D02*
X131277142Y-44378152D01*
X131277142Y-44378152D02*
X131229523Y-44473390D01*
X131229523Y-44473390D02*
X131181904Y-44521009D01*
X131181904Y-44521009D02*
X131086666Y-44568628D01*
X131086666Y-44568628D02*
X130705714Y-44568628D01*
X131658095Y-44140057D02*
X131705714Y-44092438D01*
X131705714Y-44092438D02*
X131800952Y-44044819D01*
X131800952Y-44044819D02*
X132039047Y-44044819D01*
X132039047Y-44044819D02*
X132134285Y-44092438D01*
X132134285Y-44092438D02*
X132181904Y-44140057D01*
X132181904Y-44140057D02*
X132229523Y-44235295D01*
X132229523Y-44235295D02*
X132229523Y-44330533D01*
X132229523Y-44330533D02*
X132181904Y-44473390D01*
X132181904Y-44473390D02*
X131610476Y-45044819D01*
X131610476Y-45044819D02*
X132229523Y-45044819D01*
X132848571Y-44044819D02*
X132943809Y-44044819D01*
X132943809Y-44044819D02*
X133039047Y-44092438D01*
X133039047Y-44092438D02*
X133086666Y-44140057D01*
X133086666Y-44140057D02*
X133134285Y-44235295D01*
X133134285Y-44235295D02*
X133181904Y-44425771D01*
X133181904Y-44425771D02*
X133181904Y-44663866D01*
X133181904Y-44663866D02*
X133134285Y-44854342D01*
X133134285Y-44854342D02*
X133086666Y-44949580D01*
X133086666Y-44949580D02*
X133039047Y-44997200D01*
X133039047Y-44997200D02*
X132943809Y-45044819D01*
X132943809Y-45044819D02*
X132848571Y-45044819D01*
X132848571Y-45044819D02*
X132753333Y-44997200D01*
X132753333Y-44997200D02*
X132705714Y-44949580D01*
X132705714Y-44949580D02*
X132658095Y-44854342D01*
X132658095Y-44854342D02*
X132610476Y-44663866D01*
X132610476Y-44663866D02*
X132610476Y-44425771D01*
X132610476Y-44425771D02*
X132658095Y-44235295D01*
X132658095Y-44235295D02*
X132705714Y-44140057D01*
X132705714Y-44140057D02*
X132753333Y-44092438D01*
X132753333Y-44092438D02*
X132848571Y-44044819D01*
X107827142Y-68819580D02*
X107779523Y-68867200D01*
X107779523Y-68867200D02*
X107636666Y-68914819D01*
X107636666Y-68914819D02*
X107541428Y-68914819D01*
X107541428Y-68914819D02*
X107398571Y-68867200D01*
X107398571Y-68867200D02*
X107303333Y-68771961D01*
X107303333Y-68771961D02*
X107255714Y-68676723D01*
X107255714Y-68676723D02*
X107208095Y-68486247D01*
X107208095Y-68486247D02*
X107208095Y-68343390D01*
X107208095Y-68343390D02*
X107255714Y-68152914D01*
X107255714Y-68152914D02*
X107303333Y-68057676D01*
X107303333Y-68057676D02*
X107398571Y-67962438D01*
X107398571Y-67962438D02*
X107541428Y-67914819D01*
X107541428Y-67914819D02*
X107636666Y-67914819D01*
X107636666Y-67914819D02*
X107779523Y-67962438D01*
X107779523Y-67962438D02*
X107827142Y-68010057D01*
X108779523Y-68914819D02*
X108208095Y-68914819D01*
X108493809Y-68914819D02*
X108493809Y-67914819D01*
X108493809Y-67914819D02*
X108398571Y-68057676D01*
X108398571Y-68057676D02*
X108303333Y-68152914D01*
X108303333Y-68152914D02*
X108208095Y-68200533D01*
X109112857Y-67914819D02*
X109731904Y-67914819D01*
X109731904Y-67914819D02*
X109398571Y-68295771D01*
X109398571Y-68295771D02*
X109541428Y-68295771D01*
X109541428Y-68295771D02*
X109636666Y-68343390D01*
X109636666Y-68343390D02*
X109684285Y-68391009D01*
X109684285Y-68391009D02*
X109731904Y-68486247D01*
X109731904Y-68486247D02*
X109731904Y-68724342D01*
X109731904Y-68724342D02*
X109684285Y-68819580D01*
X109684285Y-68819580D02*
X109636666Y-68867200D01*
X109636666Y-68867200D02*
X109541428Y-68914819D01*
X109541428Y-68914819D02*
X109255714Y-68914819D01*
X109255714Y-68914819D02*
X109160476Y-68867200D01*
X109160476Y-68867200D02*
X109112857Y-68819580D01*
X73597142Y-72739580D02*
X73549523Y-72787200D01*
X73549523Y-72787200D02*
X73406666Y-72834819D01*
X73406666Y-72834819D02*
X73311428Y-72834819D01*
X73311428Y-72834819D02*
X73168571Y-72787200D01*
X73168571Y-72787200D02*
X73073333Y-72691961D01*
X73073333Y-72691961D02*
X73025714Y-72596723D01*
X73025714Y-72596723D02*
X72978095Y-72406247D01*
X72978095Y-72406247D02*
X72978095Y-72263390D01*
X72978095Y-72263390D02*
X73025714Y-72072914D01*
X73025714Y-72072914D02*
X73073333Y-71977676D01*
X73073333Y-71977676D02*
X73168571Y-71882438D01*
X73168571Y-71882438D02*
X73311428Y-71834819D01*
X73311428Y-71834819D02*
X73406666Y-71834819D01*
X73406666Y-71834819D02*
X73549523Y-71882438D01*
X73549523Y-71882438D02*
X73597142Y-71930057D01*
X74549523Y-72834819D02*
X73978095Y-72834819D01*
X74263809Y-72834819D02*
X74263809Y-71834819D01*
X74263809Y-71834819D02*
X74168571Y-71977676D01*
X74168571Y-71977676D02*
X74073333Y-72072914D01*
X74073333Y-72072914D02*
X73978095Y-72120533D01*
X75168571Y-71834819D02*
X75263809Y-71834819D01*
X75263809Y-71834819D02*
X75359047Y-71882438D01*
X75359047Y-71882438D02*
X75406666Y-71930057D01*
X75406666Y-71930057D02*
X75454285Y-72025295D01*
X75454285Y-72025295D02*
X75501904Y-72215771D01*
X75501904Y-72215771D02*
X75501904Y-72453866D01*
X75501904Y-72453866D02*
X75454285Y-72644342D01*
X75454285Y-72644342D02*
X75406666Y-72739580D01*
X75406666Y-72739580D02*
X75359047Y-72787200D01*
X75359047Y-72787200D02*
X75263809Y-72834819D01*
X75263809Y-72834819D02*
X75168571Y-72834819D01*
X75168571Y-72834819D02*
X75073333Y-72787200D01*
X75073333Y-72787200D02*
X75025714Y-72739580D01*
X75025714Y-72739580D02*
X74978095Y-72644342D01*
X74978095Y-72644342D02*
X74930476Y-72453866D01*
X74930476Y-72453866D02*
X74930476Y-72215771D01*
X74930476Y-72215771D02*
X74978095Y-72025295D01*
X74978095Y-72025295D02*
X75025714Y-71930057D01*
X75025714Y-71930057D02*
X75073333Y-71882438D01*
X75073333Y-71882438D02*
X75168571Y-71834819D01*
X106867142Y-48659580D02*
X106819523Y-48707200D01*
X106819523Y-48707200D02*
X106676666Y-48754819D01*
X106676666Y-48754819D02*
X106581428Y-48754819D01*
X106581428Y-48754819D02*
X106438571Y-48707200D01*
X106438571Y-48707200D02*
X106343333Y-48611961D01*
X106343333Y-48611961D02*
X106295714Y-48516723D01*
X106295714Y-48516723D02*
X106248095Y-48326247D01*
X106248095Y-48326247D02*
X106248095Y-48183390D01*
X106248095Y-48183390D02*
X106295714Y-47992914D01*
X106295714Y-47992914D02*
X106343333Y-47897676D01*
X106343333Y-47897676D02*
X106438571Y-47802438D01*
X106438571Y-47802438D02*
X106581428Y-47754819D01*
X106581428Y-47754819D02*
X106676666Y-47754819D01*
X106676666Y-47754819D02*
X106819523Y-47802438D01*
X106819523Y-47802438D02*
X106867142Y-47850057D01*
X107819523Y-48754819D02*
X107248095Y-48754819D01*
X107533809Y-48754819D02*
X107533809Y-47754819D01*
X107533809Y-47754819D02*
X107438571Y-47897676D01*
X107438571Y-47897676D02*
X107343333Y-47992914D01*
X107343333Y-47992914D02*
X107248095Y-48040533D01*
X108200476Y-47850057D02*
X108248095Y-47802438D01*
X108248095Y-47802438D02*
X108343333Y-47754819D01*
X108343333Y-47754819D02*
X108581428Y-47754819D01*
X108581428Y-47754819D02*
X108676666Y-47802438D01*
X108676666Y-47802438D02*
X108724285Y-47850057D01*
X108724285Y-47850057D02*
X108771904Y-47945295D01*
X108771904Y-47945295D02*
X108771904Y-48040533D01*
X108771904Y-48040533D02*
X108724285Y-48183390D01*
X108724285Y-48183390D02*
X108152857Y-48754819D01*
X108152857Y-48754819D02*
X108771904Y-48754819D01*
X7041905Y-88024819D02*
X7041905Y-87024819D01*
X7041905Y-87024819D02*
X7422857Y-87024819D01*
X7422857Y-87024819D02*
X7518095Y-87072438D01*
X7518095Y-87072438D02*
X7565714Y-87120057D01*
X7565714Y-87120057D02*
X7613333Y-87215295D01*
X7613333Y-87215295D02*
X7613333Y-87358152D01*
X7613333Y-87358152D02*
X7565714Y-87453390D01*
X7565714Y-87453390D02*
X7518095Y-87501009D01*
X7518095Y-87501009D02*
X7422857Y-87548628D01*
X7422857Y-87548628D02*
X7041905Y-87548628D01*
X7946667Y-87024819D02*
X8613333Y-87024819D01*
X8613333Y-87024819D02*
X8184762Y-88024819D01*
X45295714Y-114684819D02*
X45295714Y-113684819D01*
X45295714Y-113684819D02*
X45676666Y-113684819D01*
X45676666Y-113684819D02*
X45771904Y-113732438D01*
X45771904Y-113732438D02*
X45819523Y-113780057D01*
X45819523Y-113780057D02*
X45867142Y-113875295D01*
X45867142Y-113875295D02*
X45867142Y-114018152D01*
X45867142Y-114018152D02*
X45819523Y-114113390D01*
X45819523Y-114113390D02*
X45771904Y-114161009D01*
X45771904Y-114161009D02*
X45676666Y-114208628D01*
X45676666Y-114208628D02*
X45295714Y-114208628D01*
X46819523Y-114684819D02*
X46248095Y-114684819D01*
X46533809Y-114684819D02*
X46533809Y-113684819D01*
X46533809Y-113684819D02*
X46438571Y-113827676D01*
X46438571Y-113827676D02*
X46343333Y-113922914D01*
X46343333Y-113922914D02*
X46248095Y-113970533D01*
X47771904Y-114684819D02*
X47200476Y-114684819D01*
X47486190Y-114684819D02*
X47486190Y-113684819D01*
X47486190Y-113684819D02*
X47390952Y-113827676D01*
X47390952Y-113827676D02*
X47295714Y-113922914D01*
X47295714Y-113922914D02*
X47200476Y-113970533D01*
X55855714Y-114684819D02*
X55855714Y-113684819D01*
X55855714Y-113684819D02*
X56236666Y-113684819D01*
X56236666Y-113684819D02*
X56331904Y-113732438D01*
X56331904Y-113732438D02*
X56379523Y-113780057D01*
X56379523Y-113780057D02*
X56427142Y-113875295D01*
X56427142Y-113875295D02*
X56427142Y-114018152D01*
X56427142Y-114018152D02*
X56379523Y-114113390D01*
X56379523Y-114113390D02*
X56331904Y-114161009D01*
X56331904Y-114161009D02*
X56236666Y-114208628D01*
X56236666Y-114208628D02*
X55855714Y-114208628D01*
X57379523Y-114684819D02*
X56808095Y-114684819D01*
X57093809Y-114684819D02*
X57093809Y-113684819D01*
X57093809Y-113684819D02*
X56998571Y-113827676D01*
X56998571Y-113827676D02*
X56903333Y-113922914D01*
X56903333Y-113922914D02*
X56808095Y-113970533D01*
X57760476Y-113780057D02*
X57808095Y-113732438D01*
X57808095Y-113732438D02*
X57903333Y-113684819D01*
X57903333Y-113684819D02*
X58141428Y-113684819D01*
X58141428Y-113684819D02*
X58236666Y-113732438D01*
X58236666Y-113732438D02*
X58284285Y-113780057D01*
X58284285Y-113780057D02*
X58331904Y-113875295D01*
X58331904Y-113875295D02*
X58331904Y-113970533D01*
X58331904Y-113970533D02*
X58284285Y-114113390D01*
X58284285Y-114113390D02*
X57712857Y-114684819D01*
X57712857Y-114684819D02*
X58331904Y-114684819D01*
X130705714Y-26004819D02*
X130705714Y-25004819D01*
X130705714Y-25004819D02*
X131086666Y-25004819D01*
X131086666Y-25004819D02*
X131181904Y-25052438D01*
X131181904Y-25052438D02*
X131229523Y-25100057D01*
X131229523Y-25100057D02*
X131277142Y-25195295D01*
X131277142Y-25195295D02*
X131277142Y-25338152D01*
X131277142Y-25338152D02*
X131229523Y-25433390D01*
X131229523Y-25433390D02*
X131181904Y-25481009D01*
X131181904Y-25481009D02*
X131086666Y-25528628D01*
X131086666Y-25528628D02*
X130705714Y-25528628D01*
X131658095Y-25100057D02*
X131705714Y-25052438D01*
X131705714Y-25052438D02*
X131800952Y-25004819D01*
X131800952Y-25004819D02*
X132039047Y-25004819D01*
X132039047Y-25004819D02*
X132134285Y-25052438D01*
X132134285Y-25052438D02*
X132181904Y-25100057D01*
X132181904Y-25100057D02*
X132229523Y-25195295D01*
X132229523Y-25195295D02*
X132229523Y-25290533D01*
X132229523Y-25290533D02*
X132181904Y-25433390D01*
X132181904Y-25433390D02*
X131610476Y-26004819D01*
X131610476Y-26004819D02*
X132229523Y-26004819D01*
X132610476Y-25100057D02*
X132658095Y-25052438D01*
X132658095Y-25052438D02*
X132753333Y-25004819D01*
X132753333Y-25004819D02*
X132991428Y-25004819D01*
X132991428Y-25004819D02*
X133086666Y-25052438D01*
X133086666Y-25052438D02*
X133134285Y-25100057D01*
X133134285Y-25100057D02*
X133181904Y-25195295D01*
X133181904Y-25195295D02*
X133181904Y-25290533D01*
X133181904Y-25290533D02*
X133134285Y-25433390D01*
X133134285Y-25433390D02*
X132562857Y-26004819D01*
X132562857Y-26004819D02*
X133181904Y-26004819D01*
X7041905Y-100264819D02*
X7041905Y-99264819D01*
X7041905Y-99264819D02*
X7422857Y-99264819D01*
X7422857Y-99264819D02*
X7518095Y-99312438D01*
X7518095Y-99312438D02*
X7565714Y-99360057D01*
X7565714Y-99360057D02*
X7613333Y-99455295D01*
X7613333Y-99455295D02*
X7613333Y-99598152D01*
X7613333Y-99598152D02*
X7565714Y-99693390D01*
X7565714Y-99693390D02*
X7518095Y-99741009D01*
X7518095Y-99741009D02*
X7422857Y-99788628D01*
X7422857Y-99788628D02*
X7041905Y-99788628D01*
X8184762Y-99693390D02*
X8089524Y-99645771D01*
X8089524Y-99645771D02*
X8041905Y-99598152D01*
X8041905Y-99598152D02*
X7994286Y-99502914D01*
X7994286Y-99502914D02*
X7994286Y-99455295D01*
X7994286Y-99455295D02*
X8041905Y-99360057D01*
X8041905Y-99360057D02*
X8089524Y-99312438D01*
X8089524Y-99312438D02*
X8184762Y-99264819D01*
X8184762Y-99264819D02*
X8375238Y-99264819D01*
X8375238Y-99264819D02*
X8470476Y-99312438D01*
X8470476Y-99312438D02*
X8518095Y-99360057D01*
X8518095Y-99360057D02*
X8565714Y-99455295D01*
X8565714Y-99455295D02*
X8565714Y-99502914D01*
X8565714Y-99502914D02*
X8518095Y-99598152D01*
X8518095Y-99598152D02*
X8470476Y-99645771D01*
X8470476Y-99645771D02*
X8375238Y-99693390D01*
X8375238Y-99693390D02*
X8184762Y-99693390D01*
X8184762Y-99693390D02*
X8089524Y-99741009D01*
X8089524Y-99741009D02*
X8041905Y-99788628D01*
X8041905Y-99788628D02*
X7994286Y-99883866D01*
X7994286Y-99883866D02*
X7994286Y-100074342D01*
X7994286Y-100074342D02*
X8041905Y-100169580D01*
X8041905Y-100169580D02*
X8089524Y-100217200D01*
X8089524Y-100217200D02*
X8184762Y-100264819D01*
X8184762Y-100264819D02*
X8375238Y-100264819D01*
X8375238Y-100264819D02*
X8470476Y-100217200D01*
X8470476Y-100217200D02*
X8518095Y-100169580D01*
X8518095Y-100169580D02*
X8565714Y-100074342D01*
X8565714Y-100074342D02*
X8565714Y-99883866D01*
X8565714Y-99883866D02*
X8518095Y-99788628D01*
X8518095Y-99788628D02*
X8470476Y-99741009D01*
X8470476Y-99741009D02*
X8375238Y-99693390D01*
X7041905Y-57454819D02*
X7041905Y-56454819D01*
X7041905Y-56454819D02*
X7422857Y-56454819D01*
X7422857Y-56454819D02*
X7518095Y-56502438D01*
X7518095Y-56502438D02*
X7565714Y-56550057D01*
X7565714Y-56550057D02*
X7613333Y-56645295D01*
X7613333Y-56645295D02*
X7613333Y-56788152D01*
X7613333Y-56788152D02*
X7565714Y-56883390D01*
X7565714Y-56883390D02*
X7518095Y-56931009D01*
X7518095Y-56931009D02*
X7422857Y-56978628D01*
X7422857Y-56978628D02*
X7041905Y-56978628D01*
X8470476Y-56788152D02*
X8470476Y-57454819D01*
X8232381Y-56407200D02*
X7994286Y-57121485D01*
X7994286Y-57121485D02*
X8613333Y-57121485D01*
X77125714Y-114684819D02*
X77125714Y-113684819D01*
X77125714Y-113684819D02*
X77506666Y-113684819D01*
X77506666Y-113684819D02*
X77601904Y-113732438D01*
X77601904Y-113732438D02*
X77649523Y-113780057D01*
X77649523Y-113780057D02*
X77697142Y-113875295D01*
X77697142Y-113875295D02*
X77697142Y-114018152D01*
X77697142Y-114018152D02*
X77649523Y-114113390D01*
X77649523Y-114113390D02*
X77601904Y-114161009D01*
X77601904Y-114161009D02*
X77506666Y-114208628D01*
X77506666Y-114208628D02*
X77125714Y-114208628D01*
X78649523Y-114684819D02*
X78078095Y-114684819D01*
X78363809Y-114684819D02*
X78363809Y-113684819D01*
X78363809Y-113684819D02*
X78268571Y-113827676D01*
X78268571Y-113827676D02*
X78173333Y-113922914D01*
X78173333Y-113922914D02*
X78078095Y-113970533D01*
X79506666Y-114018152D02*
X79506666Y-114684819D01*
X79268571Y-113637200D02*
X79030476Y-114351485D01*
X79030476Y-114351485D02*
X79649523Y-114351485D01*
X119831905Y-98524819D02*
X119831905Y-97524819D01*
X119831905Y-97524819D02*
X120070000Y-97524819D01*
X120070000Y-97524819D02*
X120212857Y-97572438D01*
X120212857Y-97572438D02*
X120308095Y-97667676D01*
X120308095Y-97667676D02*
X120355714Y-97762914D01*
X120355714Y-97762914D02*
X120403333Y-97953390D01*
X120403333Y-97953390D02*
X120403333Y-98096247D01*
X120403333Y-98096247D02*
X120355714Y-98286723D01*
X120355714Y-98286723D02*
X120308095Y-98381961D01*
X120308095Y-98381961D02*
X120212857Y-98477200D01*
X120212857Y-98477200D02*
X120070000Y-98524819D01*
X120070000Y-98524819D02*
X119831905Y-98524819D01*
X120736667Y-97524819D02*
X121355714Y-97524819D01*
X121355714Y-97524819D02*
X121022381Y-97905771D01*
X121022381Y-97905771D02*
X121165238Y-97905771D01*
X121165238Y-97905771D02*
X121260476Y-97953390D01*
X121260476Y-97953390D02*
X121308095Y-98001009D01*
X121308095Y-98001009D02*
X121355714Y-98096247D01*
X121355714Y-98096247D02*
X121355714Y-98334342D01*
X121355714Y-98334342D02*
X121308095Y-98429580D01*
X121308095Y-98429580D02*
X121260476Y-98477200D01*
X121260476Y-98477200D02*
X121165238Y-98524819D01*
X121165238Y-98524819D02*
X120879524Y-98524819D01*
X120879524Y-98524819D02*
X120784286Y-98477200D01*
X120784286Y-98477200D02*
X120736667Y-98429580D01*
X122108095Y-86164819D02*
X122108095Y-85164819D01*
X122679523Y-86164819D02*
X122250952Y-85593390D01*
X122679523Y-85164819D02*
X122108095Y-85736247D01*
X7041905Y-81384819D02*
X7041905Y-80384819D01*
X7041905Y-80384819D02*
X7422857Y-80384819D01*
X7422857Y-80384819D02*
X7518095Y-80432438D01*
X7518095Y-80432438D02*
X7565714Y-80480057D01*
X7565714Y-80480057D02*
X7613333Y-80575295D01*
X7613333Y-80575295D02*
X7613333Y-80718152D01*
X7613333Y-80718152D02*
X7565714Y-80813390D01*
X7565714Y-80813390D02*
X7518095Y-80861009D01*
X7518095Y-80861009D02*
X7422857Y-80908628D01*
X7422857Y-80908628D02*
X7041905Y-80908628D01*
X8470476Y-80384819D02*
X8280000Y-80384819D01*
X8280000Y-80384819D02*
X8184762Y-80432438D01*
X8184762Y-80432438D02*
X8137143Y-80480057D01*
X8137143Y-80480057D02*
X8041905Y-80622914D01*
X8041905Y-80622914D02*
X7994286Y-80813390D01*
X7994286Y-80813390D02*
X7994286Y-81194342D01*
X7994286Y-81194342D02*
X8041905Y-81289580D01*
X8041905Y-81289580D02*
X8089524Y-81337200D01*
X8089524Y-81337200D02*
X8184762Y-81384819D01*
X8184762Y-81384819D02*
X8375238Y-81384819D01*
X8375238Y-81384819D02*
X8470476Y-81337200D01*
X8470476Y-81337200D02*
X8518095Y-81289580D01*
X8518095Y-81289580D02*
X8565714Y-81194342D01*
X8565714Y-81194342D02*
X8565714Y-80956247D01*
X8565714Y-80956247D02*
X8518095Y-80861009D01*
X8518095Y-80861009D02*
X8470476Y-80813390D01*
X8470476Y-80813390D02*
X8375238Y-80765771D01*
X8375238Y-80765771D02*
X8184762Y-80765771D01*
X8184762Y-80765771D02*
X8089524Y-80813390D01*
X8089524Y-80813390D02*
X8041905Y-80861009D01*
X8041905Y-80861009D02*
X7994286Y-80956247D01*
X75703333Y-49399580D02*
X75655714Y-49447200D01*
X75655714Y-49447200D02*
X75512857Y-49494819D01*
X75512857Y-49494819D02*
X75417619Y-49494819D01*
X75417619Y-49494819D02*
X75274762Y-49447200D01*
X75274762Y-49447200D02*
X75179524Y-49351961D01*
X75179524Y-49351961D02*
X75131905Y-49256723D01*
X75131905Y-49256723D02*
X75084286Y-49066247D01*
X75084286Y-49066247D02*
X75084286Y-48923390D01*
X75084286Y-48923390D02*
X75131905Y-48732914D01*
X75131905Y-48732914D02*
X75179524Y-48637676D01*
X75179524Y-48637676D02*
X75274762Y-48542438D01*
X75274762Y-48542438D02*
X75417619Y-48494819D01*
X75417619Y-48494819D02*
X75512857Y-48494819D01*
X75512857Y-48494819D02*
X75655714Y-48542438D01*
X75655714Y-48542438D02*
X75703333Y-48590057D01*
X76036667Y-48494819D02*
X76703333Y-48494819D01*
X76703333Y-48494819D02*
X76274762Y-49494819D01*
X7041905Y-69314819D02*
X7041905Y-68314819D01*
X7041905Y-68314819D02*
X7422857Y-68314819D01*
X7422857Y-68314819D02*
X7518095Y-68362438D01*
X7518095Y-68362438D02*
X7565714Y-68410057D01*
X7565714Y-68410057D02*
X7613333Y-68505295D01*
X7613333Y-68505295D02*
X7613333Y-68648152D01*
X7613333Y-68648152D02*
X7565714Y-68743390D01*
X7565714Y-68743390D02*
X7518095Y-68791009D01*
X7518095Y-68791009D02*
X7422857Y-68838628D01*
X7422857Y-68838628D02*
X7041905Y-68838628D01*
X8518095Y-68314819D02*
X8041905Y-68314819D01*
X8041905Y-68314819D02*
X7994286Y-68791009D01*
X7994286Y-68791009D02*
X8041905Y-68743390D01*
X8041905Y-68743390D02*
X8137143Y-68695771D01*
X8137143Y-68695771D02*
X8375238Y-68695771D01*
X8375238Y-68695771D02*
X8470476Y-68743390D01*
X8470476Y-68743390D02*
X8518095Y-68791009D01*
X8518095Y-68791009D02*
X8565714Y-68886247D01*
X8565714Y-68886247D02*
X8565714Y-69124342D01*
X8565714Y-69124342D02*
X8518095Y-69219580D01*
X8518095Y-69219580D02*
X8470476Y-69267200D01*
X8470476Y-69267200D02*
X8375238Y-69314819D01*
X8375238Y-69314819D02*
X8137143Y-69314819D01*
X8137143Y-69314819D02*
X8041905Y-69267200D01*
X8041905Y-69267200D02*
X7994286Y-69219580D01*
X124421905Y-98124819D02*
X124421905Y-97124819D01*
X124421905Y-97124819D02*
X124660000Y-97124819D01*
X124660000Y-97124819D02*
X124802857Y-97172438D01*
X124802857Y-97172438D02*
X124898095Y-97267676D01*
X124898095Y-97267676D02*
X124945714Y-97362914D01*
X124945714Y-97362914D02*
X124993333Y-97553390D01*
X124993333Y-97553390D02*
X124993333Y-97696247D01*
X124993333Y-97696247D02*
X124945714Y-97886723D01*
X124945714Y-97886723D02*
X124898095Y-97981961D01*
X124898095Y-97981961D02*
X124802857Y-98077200D01*
X124802857Y-98077200D02*
X124660000Y-98124819D01*
X124660000Y-98124819D02*
X124421905Y-98124819D01*
X125850476Y-97458152D02*
X125850476Y-98124819D01*
X125612381Y-97077200D02*
X125374286Y-97791485D01*
X125374286Y-97791485D02*
X125993333Y-97791485D01*
X126698095Y-85764819D02*
X126698095Y-84764819D01*
X127269523Y-85764819D02*
X126840952Y-85193390D01*
X127269523Y-84764819D02*
X126698095Y-85336247D01*
X122027142Y-42669580D02*
X121979523Y-42717200D01*
X121979523Y-42717200D02*
X121836666Y-42764819D01*
X121836666Y-42764819D02*
X121741428Y-42764819D01*
X121741428Y-42764819D02*
X121598571Y-42717200D01*
X121598571Y-42717200D02*
X121503333Y-42621961D01*
X121503333Y-42621961D02*
X121455714Y-42526723D01*
X121455714Y-42526723D02*
X121408095Y-42336247D01*
X121408095Y-42336247D02*
X121408095Y-42193390D01*
X121408095Y-42193390D02*
X121455714Y-42002914D01*
X121455714Y-42002914D02*
X121503333Y-41907676D01*
X121503333Y-41907676D02*
X121598571Y-41812438D01*
X121598571Y-41812438D02*
X121741428Y-41764819D01*
X121741428Y-41764819D02*
X121836666Y-41764819D01*
X121836666Y-41764819D02*
X121979523Y-41812438D01*
X121979523Y-41812438D02*
X122027142Y-41860057D01*
X122979523Y-42764819D02*
X122408095Y-42764819D01*
X122693809Y-42764819D02*
X122693809Y-41764819D01*
X122693809Y-41764819D02*
X122598571Y-41907676D01*
X122598571Y-41907676D02*
X122503333Y-42002914D01*
X122503333Y-42002914D02*
X122408095Y-42050533D01*
X123884285Y-41764819D02*
X123408095Y-41764819D01*
X123408095Y-41764819D02*
X123360476Y-42241009D01*
X123360476Y-42241009D02*
X123408095Y-42193390D01*
X123408095Y-42193390D02*
X123503333Y-42145771D01*
X123503333Y-42145771D02*
X123741428Y-42145771D01*
X123741428Y-42145771D02*
X123836666Y-42193390D01*
X123836666Y-42193390D02*
X123884285Y-42241009D01*
X123884285Y-42241009D02*
X123931904Y-42336247D01*
X123931904Y-42336247D02*
X123931904Y-42574342D01*
X123931904Y-42574342D02*
X123884285Y-42669580D01*
X123884285Y-42669580D02*
X123836666Y-42717200D01*
X123836666Y-42717200D02*
X123741428Y-42764819D01*
X123741428Y-42764819D02*
X123503333Y-42764819D01*
X123503333Y-42764819D02*
X123408095Y-42717200D01*
X123408095Y-42717200D02*
X123360476Y-42669580D01*
X49793333Y-53199580D02*
X49745714Y-53247200D01*
X49745714Y-53247200D02*
X49602857Y-53294819D01*
X49602857Y-53294819D02*
X49507619Y-53294819D01*
X49507619Y-53294819D02*
X49364762Y-53247200D01*
X49364762Y-53247200D02*
X49269524Y-53151961D01*
X49269524Y-53151961D02*
X49221905Y-53056723D01*
X49221905Y-53056723D02*
X49174286Y-52866247D01*
X49174286Y-52866247D02*
X49174286Y-52723390D01*
X49174286Y-52723390D02*
X49221905Y-52532914D01*
X49221905Y-52532914D02*
X49269524Y-52437676D01*
X49269524Y-52437676D02*
X49364762Y-52342438D01*
X49364762Y-52342438D02*
X49507619Y-52294819D01*
X49507619Y-52294819D02*
X49602857Y-52294819D01*
X49602857Y-52294819D02*
X49745714Y-52342438D01*
X49745714Y-52342438D02*
X49793333Y-52390057D01*
X50126667Y-52294819D02*
X50745714Y-52294819D01*
X50745714Y-52294819D02*
X50412381Y-52675771D01*
X50412381Y-52675771D02*
X50555238Y-52675771D01*
X50555238Y-52675771D02*
X50650476Y-52723390D01*
X50650476Y-52723390D02*
X50698095Y-52771009D01*
X50698095Y-52771009D02*
X50745714Y-52866247D01*
X50745714Y-52866247D02*
X50745714Y-53104342D01*
X50745714Y-53104342D02*
X50698095Y-53199580D01*
X50698095Y-53199580D02*
X50650476Y-53247200D01*
X50650476Y-53247200D02*
X50555238Y-53294819D01*
X50555238Y-53294819D02*
X50269524Y-53294819D01*
X50269524Y-53294819D02*
X50174286Y-53247200D01*
X50174286Y-53247200D02*
X50126667Y-53199580D01*
X7041905Y-50274819D02*
X7041905Y-49274819D01*
X7041905Y-49274819D02*
X7422857Y-49274819D01*
X7422857Y-49274819D02*
X7518095Y-49322438D01*
X7518095Y-49322438D02*
X7565714Y-49370057D01*
X7565714Y-49370057D02*
X7613333Y-49465295D01*
X7613333Y-49465295D02*
X7613333Y-49608152D01*
X7613333Y-49608152D02*
X7565714Y-49703390D01*
X7565714Y-49703390D02*
X7518095Y-49751009D01*
X7518095Y-49751009D02*
X7422857Y-49798628D01*
X7422857Y-49798628D02*
X7041905Y-49798628D01*
X7946667Y-49274819D02*
X8565714Y-49274819D01*
X8565714Y-49274819D02*
X8232381Y-49655771D01*
X8232381Y-49655771D02*
X8375238Y-49655771D01*
X8375238Y-49655771D02*
X8470476Y-49703390D01*
X8470476Y-49703390D02*
X8518095Y-49751009D01*
X8518095Y-49751009D02*
X8565714Y-49846247D01*
X8565714Y-49846247D02*
X8565714Y-50084342D01*
X8565714Y-50084342D02*
X8518095Y-50179580D01*
X8518095Y-50179580D02*
X8470476Y-50227200D01*
X8470476Y-50227200D02*
X8375238Y-50274819D01*
X8375238Y-50274819D02*
X8089524Y-50274819D01*
X8089524Y-50274819D02*
X7994286Y-50227200D01*
X7994286Y-50227200D02*
X7946667Y-50179580D01*
X82903333Y-47799580D02*
X82855714Y-47847200D01*
X82855714Y-47847200D02*
X82712857Y-47894819D01*
X82712857Y-47894819D02*
X82617619Y-47894819D01*
X82617619Y-47894819D02*
X82474762Y-47847200D01*
X82474762Y-47847200D02*
X82379524Y-47751961D01*
X82379524Y-47751961D02*
X82331905Y-47656723D01*
X82331905Y-47656723D02*
X82284286Y-47466247D01*
X82284286Y-47466247D02*
X82284286Y-47323390D01*
X82284286Y-47323390D02*
X82331905Y-47132914D01*
X82331905Y-47132914D02*
X82379524Y-47037676D01*
X82379524Y-47037676D02*
X82474762Y-46942438D01*
X82474762Y-46942438D02*
X82617619Y-46894819D01*
X82617619Y-46894819D02*
X82712857Y-46894819D01*
X82712857Y-46894819D02*
X82855714Y-46942438D01*
X82855714Y-46942438D02*
X82903333Y-46990057D01*
X83474762Y-47323390D02*
X83379524Y-47275771D01*
X83379524Y-47275771D02*
X83331905Y-47228152D01*
X83331905Y-47228152D02*
X83284286Y-47132914D01*
X83284286Y-47132914D02*
X83284286Y-47085295D01*
X83284286Y-47085295D02*
X83331905Y-46990057D01*
X83331905Y-46990057D02*
X83379524Y-46942438D01*
X83379524Y-46942438D02*
X83474762Y-46894819D01*
X83474762Y-46894819D02*
X83665238Y-46894819D01*
X83665238Y-46894819D02*
X83760476Y-46942438D01*
X83760476Y-46942438D02*
X83808095Y-46990057D01*
X83808095Y-46990057D02*
X83855714Y-47085295D01*
X83855714Y-47085295D02*
X83855714Y-47132914D01*
X83855714Y-47132914D02*
X83808095Y-47228152D01*
X83808095Y-47228152D02*
X83760476Y-47275771D01*
X83760476Y-47275771D02*
X83665238Y-47323390D01*
X83665238Y-47323390D02*
X83474762Y-47323390D01*
X83474762Y-47323390D02*
X83379524Y-47371009D01*
X83379524Y-47371009D02*
X83331905Y-47418628D01*
X83331905Y-47418628D02*
X83284286Y-47513866D01*
X83284286Y-47513866D02*
X83284286Y-47704342D01*
X83284286Y-47704342D02*
X83331905Y-47799580D01*
X83331905Y-47799580D02*
X83379524Y-47847200D01*
X83379524Y-47847200D02*
X83474762Y-47894819D01*
X83474762Y-47894819D02*
X83665238Y-47894819D01*
X83665238Y-47894819D02*
X83760476Y-47847200D01*
X83760476Y-47847200D02*
X83808095Y-47799580D01*
X83808095Y-47799580D02*
X83855714Y-47704342D01*
X83855714Y-47704342D02*
X83855714Y-47513866D01*
X83855714Y-47513866D02*
X83808095Y-47418628D01*
X83808095Y-47418628D02*
X83760476Y-47371009D01*
X83760476Y-47371009D02*
X83665238Y-47323390D01*
X90303333Y-45804819D02*
X89970000Y-45328628D01*
X89731905Y-45804819D02*
X89731905Y-44804819D01*
X89731905Y-44804819D02*
X90112857Y-44804819D01*
X90112857Y-44804819D02*
X90208095Y-44852438D01*
X90208095Y-44852438D02*
X90255714Y-44900057D01*
X90255714Y-44900057D02*
X90303333Y-44995295D01*
X90303333Y-44995295D02*
X90303333Y-45138152D01*
X90303333Y-45138152D02*
X90255714Y-45233390D01*
X90255714Y-45233390D02*
X90208095Y-45281009D01*
X90208095Y-45281009D02*
X90112857Y-45328628D01*
X90112857Y-45328628D02*
X89731905Y-45328628D01*
X91160476Y-45138152D02*
X91160476Y-45804819D01*
X90922381Y-44757200D02*
X90684286Y-45471485D01*
X90684286Y-45471485D02*
X91303333Y-45471485D01*
X130705714Y-66974819D02*
X130705714Y-65974819D01*
X130705714Y-65974819D02*
X131086666Y-65974819D01*
X131086666Y-65974819D02*
X131181904Y-66022438D01*
X131181904Y-66022438D02*
X131229523Y-66070057D01*
X131229523Y-66070057D02*
X131277142Y-66165295D01*
X131277142Y-66165295D02*
X131277142Y-66308152D01*
X131277142Y-66308152D02*
X131229523Y-66403390D01*
X131229523Y-66403390D02*
X131181904Y-66451009D01*
X131181904Y-66451009D02*
X131086666Y-66498628D01*
X131086666Y-66498628D02*
X130705714Y-66498628D01*
X132229523Y-66974819D02*
X131658095Y-66974819D01*
X131943809Y-66974819D02*
X131943809Y-65974819D01*
X131943809Y-65974819D02*
X131848571Y-66117676D01*
X131848571Y-66117676D02*
X131753333Y-66212914D01*
X131753333Y-66212914D02*
X131658095Y-66260533D01*
X132800952Y-66403390D02*
X132705714Y-66355771D01*
X132705714Y-66355771D02*
X132658095Y-66308152D01*
X132658095Y-66308152D02*
X132610476Y-66212914D01*
X132610476Y-66212914D02*
X132610476Y-66165295D01*
X132610476Y-66165295D02*
X132658095Y-66070057D01*
X132658095Y-66070057D02*
X132705714Y-66022438D01*
X132705714Y-66022438D02*
X132800952Y-65974819D01*
X132800952Y-65974819D02*
X132991428Y-65974819D01*
X132991428Y-65974819D02*
X133086666Y-66022438D01*
X133086666Y-66022438D02*
X133134285Y-66070057D01*
X133134285Y-66070057D02*
X133181904Y-66165295D01*
X133181904Y-66165295D02*
X133181904Y-66212914D01*
X133181904Y-66212914D02*
X133134285Y-66308152D01*
X133134285Y-66308152D02*
X133086666Y-66355771D01*
X133086666Y-66355771D02*
X132991428Y-66403390D01*
X132991428Y-66403390D02*
X132800952Y-66403390D01*
X132800952Y-66403390D02*
X132705714Y-66451009D01*
X132705714Y-66451009D02*
X132658095Y-66498628D01*
X132658095Y-66498628D02*
X132610476Y-66593866D01*
X132610476Y-66593866D02*
X132610476Y-66784342D01*
X132610476Y-66784342D02*
X132658095Y-66879580D01*
X132658095Y-66879580D02*
X132705714Y-66927200D01*
X132705714Y-66927200D02*
X132800952Y-66974819D01*
X132800952Y-66974819D02*
X132991428Y-66974819D01*
X132991428Y-66974819D02*
X133086666Y-66927200D01*
X133086666Y-66927200D02*
X133134285Y-66879580D01*
X133134285Y-66879580D02*
X133181904Y-66784342D01*
X133181904Y-66784342D02*
X133181904Y-66593866D01*
X133181904Y-66593866D02*
X133134285Y-66498628D01*
X133134285Y-66498628D02*
X133086666Y-66451009D01*
X133086666Y-66451009D02*
X132991428Y-66403390D01*
X122067142Y-31929580D02*
X122019523Y-31977200D01*
X122019523Y-31977200D02*
X121876666Y-32024819D01*
X121876666Y-32024819D02*
X121781428Y-32024819D01*
X121781428Y-32024819D02*
X121638571Y-31977200D01*
X121638571Y-31977200D02*
X121543333Y-31881961D01*
X121543333Y-31881961D02*
X121495714Y-31786723D01*
X121495714Y-31786723D02*
X121448095Y-31596247D01*
X121448095Y-31596247D02*
X121448095Y-31453390D01*
X121448095Y-31453390D02*
X121495714Y-31262914D01*
X121495714Y-31262914D02*
X121543333Y-31167676D01*
X121543333Y-31167676D02*
X121638571Y-31072438D01*
X121638571Y-31072438D02*
X121781428Y-31024819D01*
X121781428Y-31024819D02*
X121876666Y-31024819D01*
X121876666Y-31024819D02*
X122019523Y-31072438D01*
X122019523Y-31072438D02*
X122067142Y-31120057D01*
X123019523Y-32024819D02*
X122448095Y-32024819D01*
X122733809Y-32024819D02*
X122733809Y-31024819D01*
X122733809Y-31024819D02*
X122638571Y-31167676D01*
X122638571Y-31167676D02*
X122543333Y-31262914D01*
X122543333Y-31262914D02*
X122448095Y-31310533D01*
X123876666Y-31358152D02*
X123876666Y-32024819D01*
X123638571Y-30977200D02*
X123400476Y-31691485D01*
X123400476Y-31691485D02*
X124019523Y-31691485D01*
X34745714Y-114684819D02*
X34745714Y-113684819D01*
X34745714Y-113684819D02*
X35126666Y-113684819D01*
X35126666Y-113684819D02*
X35221904Y-113732438D01*
X35221904Y-113732438D02*
X35269523Y-113780057D01*
X35269523Y-113780057D02*
X35317142Y-113875295D01*
X35317142Y-113875295D02*
X35317142Y-114018152D01*
X35317142Y-114018152D02*
X35269523Y-114113390D01*
X35269523Y-114113390D02*
X35221904Y-114161009D01*
X35221904Y-114161009D02*
X35126666Y-114208628D01*
X35126666Y-114208628D02*
X34745714Y-114208628D01*
X36269523Y-114684819D02*
X35698095Y-114684819D01*
X35983809Y-114684819D02*
X35983809Y-113684819D01*
X35983809Y-113684819D02*
X35888571Y-113827676D01*
X35888571Y-113827676D02*
X35793333Y-113922914D01*
X35793333Y-113922914D02*
X35698095Y-113970533D01*
X36888571Y-113684819D02*
X36983809Y-113684819D01*
X36983809Y-113684819D02*
X37079047Y-113732438D01*
X37079047Y-113732438D02*
X37126666Y-113780057D01*
X37126666Y-113780057D02*
X37174285Y-113875295D01*
X37174285Y-113875295D02*
X37221904Y-114065771D01*
X37221904Y-114065771D02*
X37221904Y-114303866D01*
X37221904Y-114303866D02*
X37174285Y-114494342D01*
X37174285Y-114494342D02*
X37126666Y-114589580D01*
X37126666Y-114589580D02*
X37079047Y-114637200D01*
X37079047Y-114637200D02*
X36983809Y-114684819D01*
X36983809Y-114684819D02*
X36888571Y-114684819D01*
X36888571Y-114684819D02*
X36793333Y-114637200D01*
X36793333Y-114637200D02*
X36745714Y-114589580D01*
X36745714Y-114589580D02*
X36698095Y-114494342D01*
X36698095Y-114494342D02*
X36650476Y-114303866D01*
X36650476Y-114303866D02*
X36650476Y-114065771D01*
X36650476Y-114065771D02*
X36698095Y-113875295D01*
X36698095Y-113875295D02*
X36745714Y-113780057D01*
X36745714Y-113780057D02*
X36793333Y-113732438D01*
X36793333Y-113732438D02*
X36888571Y-113684819D01*
X33623810Y-31794819D02*
X33623810Y-30794819D01*
X34671428Y-31699580D02*
X34623809Y-31747200D01*
X34623809Y-31747200D02*
X34480952Y-31794819D01*
X34480952Y-31794819D02*
X34385714Y-31794819D01*
X34385714Y-31794819D02*
X34242857Y-31747200D01*
X34242857Y-31747200D02*
X34147619Y-31651961D01*
X34147619Y-31651961D02*
X34100000Y-31556723D01*
X34100000Y-31556723D02*
X34052381Y-31366247D01*
X34052381Y-31366247D02*
X34052381Y-31223390D01*
X34052381Y-31223390D02*
X34100000Y-31032914D01*
X34100000Y-31032914D02*
X34147619Y-30937676D01*
X34147619Y-30937676D02*
X34242857Y-30842438D01*
X34242857Y-30842438D02*
X34385714Y-30794819D01*
X34385714Y-30794819D02*
X34480952Y-30794819D01*
X34480952Y-30794819D02*
X34623809Y-30842438D01*
X34623809Y-30842438D02*
X34671428Y-30890057D01*
X35623809Y-31794819D02*
X35052381Y-31794819D01*
X35338095Y-31794819D02*
X35338095Y-30794819D01*
X35338095Y-30794819D02*
X35242857Y-30937676D01*
X35242857Y-30937676D02*
X35147619Y-31032914D01*
X35147619Y-31032914D02*
X35052381Y-31080533D01*
X7041905Y-31664819D02*
X7041905Y-30664819D01*
X7041905Y-30664819D02*
X7422857Y-30664819D01*
X7422857Y-30664819D02*
X7518095Y-30712438D01*
X7518095Y-30712438D02*
X7565714Y-30760057D01*
X7565714Y-30760057D02*
X7613333Y-30855295D01*
X7613333Y-30855295D02*
X7613333Y-30998152D01*
X7613333Y-30998152D02*
X7565714Y-31093390D01*
X7565714Y-31093390D02*
X7518095Y-31141009D01*
X7518095Y-31141009D02*
X7422857Y-31188628D01*
X7422857Y-31188628D02*
X7041905Y-31188628D01*
X8565714Y-31664819D02*
X7994286Y-31664819D01*
X8280000Y-31664819D02*
X8280000Y-30664819D01*
X8280000Y-30664819D02*
X8184762Y-30807676D01*
X8184762Y-30807676D02*
X8089524Y-30902914D01*
X8089524Y-30902914D02*
X7994286Y-30950533D01*
X130705714Y-35474819D02*
X130705714Y-34474819D01*
X130705714Y-34474819D02*
X131086666Y-34474819D01*
X131086666Y-34474819D02*
X131181904Y-34522438D01*
X131181904Y-34522438D02*
X131229523Y-34570057D01*
X131229523Y-34570057D02*
X131277142Y-34665295D01*
X131277142Y-34665295D02*
X131277142Y-34808152D01*
X131277142Y-34808152D02*
X131229523Y-34903390D01*
X131229523Y-34903390D02*
X131181904Y-34951009D01*
X131181904Y-34951009D02*
X131086666Y-34998628D01*
X131086666Y-34998628D02*
X130705714Y-34998628D01*
X131658095Y-34570057D02*
X131705714Y-34522438D01*
X131705714Y-34522438D02*
X131800952Y-34474819D01*
X131800952Y-34474819D02*
X132039047Y-34474819D01*
X132039047Y-34474819D02*
X132134285Y-34522438D01*
X132134285Y-34522438D02*
X132181904Y-34570057D01*
X132181904Y-34570057D02*
X132229523Y-34665295D01*
X132229523Y-34665295D02*
X132229523Y-34760533D01*
X132229523Y-34760533D02*
X132181904Y-34903390D01*
X132181904Y-34903390D02*
X131610476Y-35474819D01*
X131610476Y-35474819D02*
X132229523Y-35474819D01*
X133181904Y-35474819D02*
X132610476Y-35474819D01*
X132896190Y-35474819D02*
X132896190Y-34474819D01*
X132896190Y-34474819D02*
X132800952Y-34617676D01*
X132800952Y-34617676D02*
X132705714Y-34712914D01*
X132705714Y-34712914D02*
X132610476Y-34760533D01*
X130705714Y-57074819D02*
X130705714Y-56074819D01*
X130705714Y-56074819D02*
X131086666Y-56074819D01*
X131086666Y-56074819D02*
X131181904Y-56122438D01*
X131181904Y-56122438D02*
X131229523Y-56170057D01*
X131229523Y-56170057D02*
X131277142Y-56265295D01*
X131277142Y-56265295D02*
X131277142Y-56408152D01*
X131277142Y-56408152D02*
X131229523Y-56503390D01*
X131229523Y-56503390D02*
X131181904Y-56551009D01*
X131181904Y-56551009D02*
X131086666Y-56598628D01*
X131086666Y-56598628D02*
X130705714Y-56598628D01*
X132229523Y-57074819D02*
X131658095Y-57074819D01*
X131943809Y-57074819D02*
X131943809Y-56074819D01*
X131943809Y-56074819D02*
X131848571Y-56217676D01*
X131848571Y-56217676D02*
X131753333Y-56312914D01*
X131753333Y-56312914D02*
X131658095Y-56360533D01*
X132705714Y-57074819D02*
X132896190Y-57074819D01*
X132896190Y-57074819D02*
X132991428Y-57027200D01*
X132991428Y-57027200D02*
X133039047Y-56979580D01*
X133039047Y-56979580D02*
X133134285Y-56836723D01*
X133134285Y-56836723D02*
X133181904Y-56646247D01*
X133181904Y-56646247D02*
X133181904Y-56265295D01*
X133181904Y-56265295D02*
X133134285Y-56170057D01*
X133134285Y-56170057D02*
X133086666Y-56122438D01*
X133086666Y-56122438D02*
X132991428Y-56074819D01*
X132991428Y-56074819D02*
X132800952Y-56074819D01*
X132800952Y-56074819D02*
X132705714Y-56122438D01*
X132705714Y-56122438D02*
X132658095Y-56170057D01*
X132658095Y-56170057D02*
X132610476Y-56265295D01*
X132610476Y-56265295D02*
X132610476Y-56503390D01*
X132610476Y-56503390D02*
X132658095Y-56598628D01*
X132658095Y-56598628D02*
X132705714Y-56646247D01*
X132705714Y-56646247D02*
X132800952Y-56693866D01*
X132800952Y-56693866D02*
X132991428Y-56693866D01*
X132991428Y-56693866D02*
X133086666Y-56646247D01*
X133086666Y-56646247D02*
X133134285Y-56598628D01*
X133134285Y-56598628D02*
X133181904Y-56503390D01*
X87176666Y-89201009D02*
X86843333Y-89201009D01*
X86843333Y-89724819D02*
X86843333Y-88724819D01*
X86843333Y-88724819D02*
X87319523Y-88724819D01*
X88129047Y-89058152D02*
X88129047Y-89724819D01*
X87890952Y-88677200D02*
X87652857Y-89391485D01*
X87652857Y-89391485D02*
X88271904Y-89391485D01*
X83897142Y-24219580D02*
X83849523Y-24267200D01*
X83849523Y-24267200D02*
X83706666Y-24314819D01*
X83706666Y-24314819D02*
X83611428Y-24314819D01*
X83611428Y-24314819D02*
X83468571Y-24267200D01*
X83468571Y-24267200D02*
X83373333Y-24171961D01*
X83373333Y-24171961D02*
X83325714Y-24076723D01*
X83325714Y-24076723D02*
X83278095Y-23886247D01*
X83278095Y-23886247D02*
X83278095Y-23743390D01*
X83278095Y-23743390D02*
X83325714Y-23552914D01*
X83325714Y-23552914D02*
X83373333Y-23457676D01*
X83373333Y-23457676D02*
X83468571Y-23362438D01*
X83468571Y-23362438D02*
X83611428Y-23314819D01*
X83611428Y-23314819D02*
X83706666Y-23314819D01*
X83706666Y-23314819D02*
X83849523Y-23362438D01*
X83849523Y-23362438D02*
X83897142Y-23410057D01*
X84849523Y-24314819D02*
X84278095Y-24314819D01*
X84563809Y-24314819D02*
X84563809Y-23314819D01*
X84563809Y-23314819D02*
X84468571Y-23457676D01*
X84468571Y-23457676D02*
X84373333Y-23552914D01*
X84373333Y-23552914D02*
X84278095Y-23600533D01*
X85801904Y-24314819D02*
X85230476Y-24314819D01*
X85516190Y-24314819D02*
X85516190Y-23314819D01*
X85516190Y-23314819D02*
X85420952Y-23457676D01*
X85420952Y-23457676D02*
X85325714Y-23552914D01*
X85325714Y-23552914D02*
X85230476Y-23600533D01*
X52436666Y-89601009D02*
X52103333Y-89601009D01*
X52103333Y-90124819D02*
X52103333Y-89124819D01*
X52103333Y-89124819D02*
X52579523Y-89124819D01*
X52912857Y-89220057D02*
X52960476Y-89172438D01*
X52960476Y-89172438D02*
X53055714Y-89124819D01*
X53055714Y-89124819D02*
X53293809Y-89124819D01*
X53293809Y-89124819D02*
X53389047Y-89172438D01*
X53389047Y-89172438D02*
X53436666Y-89220057D01*
X53436666Y-89220057D02*
X53484285Y-89315295D01*
X53484285Y-89315295D02*
X53484285Y-89410533D01*
X53484285Y-89410533D02*
X53436666Y-89553390D01*
X53436666Y-89553390D02*
X52865238Y-90124819D01*
X52865238Y-90124819D02*
X53484285Y-90124819D01*
X94223333Y-39374819D02*
X93890000Y-38898628D01*
X93651905Y-39374819D02*
X93651905Y-38374819D01*
X93651905Y-38374819D02*
X94032857Y-38374819D01*
X94032857Y-38374819D02*
X94128095Y-38422438D01*
X94128095Y-38422438D02*
X94175714Y-38470057D01*
X94175714Y-38470057D02*
X94223333Y-38565295D01*
X94223333Y-38565295D02*
X94223333Y-38708152D01*
X94223333Y-38708152D02*
X94175714Y-38803390D01*
X94175714Y-38803390D02*
X94128095Y-38851009D01*
X94128095Y-38851009D02*
X94032857Y-38898628D01*
X94032857Y-38898628D02*
X93651905Y-38898628D01*
X95080476Y-38374819D02*
X94890000Y-38374819D01*
X94890000Y-38374819D02*
X94794762Y-38422438D01*
X94794762Y-38422438D02*
X94747143Y-38470057D01*
X94747143Y-38470057D02*
X94651905Y-38612914D01*
X94651905Y-38612914D02*
X94604286Y-38803390D01*
X94604286Y-38803390D02*
X94604286Y-39184342D01*
X94604286Y-39184342D02*
X94651905Y-39279580D01*
X94651905Y-39279580D02*
X94699524Y-39327200D01*
X94699524Y-39327200D02*
X94794762Y-39374819D01*
X94794762Y-39374819D02*
X94985238Y-39374819D01*
X94985238Y-39374819D02*
X95080476Y-39327200D01*
X95080476Y-39327200D02*
X95128095Y-39279580D01*
X95128095Y-39279580D02*
X95175714Y-39184342D01*
X95175714Y-39184342D02*
X95175714Y-38946247D01*
X95175714Y-38946247D02*
X95128095Y-38851009D01*
X95128095Y-38851009D02*
X95080476Y-38803390D01*
X95080476Y-38803390D02*
X94985238Y-38755771D01*
X94985238Y-38755771D02*
X94794762Y-38755771D01*
X94794762Y-38755771D02*
X94699524Y-38803390D01*
X94699524Y-38803390D02*
X94651905Y-38851009D01*
X94651905Y-38851009D02*
X94604286Y-38946247D01*
X66735714Y-114684819D02*
X66735714Y-113684819D01*
X66735714Y-113684819D02*
X67116666Y-113684819D01*
X67116666Y-113684819D02*
X67211904Y-113732438D01*
X67211904Y-113732438D02*
X67259523Y-113780057D01*
X67259523Y-113780057D02*
X67307142Y-113875295D01*
X67307142Y-113875295D02*
X67307142Y-114018152D01*
X67307142Y-114018152D02*
X67259523Y-114113390D01*
X67259523Y-114113390D02*
X67211904Y-114161009D01*
X67211904Y-114161009D02*
X67116666Y-114208628D01*
X67116666Y-114208628D02*
X66735714Y-114208628D01*
X68259523Y-114684819D02*
X67688095Y-114684819D01*
X67973809Y-114684819D02*
X67973809Y-113684819D01*
X67973809Y-113684819D02*
X67878571Y-113827676D01*
X67878571Y-113827676D02*
X67783333Y-113922914D01*
X67783333Y-113922914D02*
X67688095Y-113970533D01*
X68592857Y-113684819D02*
X69211904Y-113684819D01*
X69211904Y-113684819D02*
X68878571Y-114065771D01*
X68878571Y-114065771D02*
X69021428Y-114065771D01*
X69021428Y-114065771D02*
X69116666Y-114113390D01*
X69116666Y-114113390D02*
X69164285Y-114161009D01*
X69164285Y-114161009D02*
X69211904Y-114256247D01*
X69211904Y-114256247D02*
X69211904Y-114494342D01*
X69211904Y-114494342D02*
X69164285Y-114589580D01*
X69164285Y-114589580D02*
X69116666Y-114637200D01*
X69116666Y-114637200D02*
X69021428Y-114684819D01*
X69021428Y-114684819D02*
X68735714Y-114684819D01*
X68735714Y-114684819D02*
X68640476Y-114637200D01*
X68640476Y-114637200D02*
X68592857Y-114589580D01*
%TO.C,F1*%
D12*
X20440000Y-72220000D02*
X27440000Y-72220000D01*
X27440000Y-102320000D01*
X20440000Y-102320000D01*
X20440000Y-72220000D01*
%TO.C,F3*%
X66800000Y-74020000D02*
X73800000Y-74020000D01*
X73800000Y-104120000D01*
X66800000Y-104120000D01*
X66800000Y-74020000D01*
%TO.C,R1*%
X96500000Y-61680000D02*
X96830000Y-61680000D01*
X96500000Y-68220000D02*
X96500000Y-61680000D01*
X96830000Y-68220000D02*
X96500000Y-68220000D01*
X98910000Y-68220000D02*
X99240000Y-68220000D01*
X99240000Y-61680000D02*
X98910000Y-61680000D01*
X99240000Y-68220000D02*
X99240000Y-61680000D01*
%TO.C,R7*%
X53760000Y-25070000D02*
X60300000Y-25070000D01*
X53760000Y-25400000D02*
X53760000Y-25070000D01*
X53760000Y-27480000D02*
X53760000Y-27810000D01*
X53760000Y-27810000D02*
X60300000Y-27810000D01*
X60300000Y-25070000D02*
X60300000Y-25400000D01*
X60300000Y-27810000D02*
X60300000Y-27480000D01*
%TO.C,D2*%
X62286000Y-64669000D02*
X62286000Y-70511000D01*
X63429000Y-63526000D02*
G75*
G02*
X62286000Y-70511000I2921000J-4064000D01*
G01*
%TO.C,C9*%
X90080000Y-60640000D02*
X95320000Y-60640000D01*
X90080000Y-71180000D02*
X90080000Y-60640000D01*
X95320000Y-60640000D02*
X95320000Y-71180000D01*
X95320000Y-71180000D02*
X90080000Y-71180000D01*
%TO.C,R5*%
X91660000Y-50140000D02*
X91990000Y-50140000D01*
X91660000Y-56680000D02*
X91660000Y-50140000D01*
X91990000Y-56680000D02*
X91660000Y-56680000D01*
X94070000Y-56680000D02*
X94400000Y-56680000D01*
X94400000Y-50140000D02*
X94070000Y-50140000D01*
X94400000Y-56680000D02*
X94400000Y-50140000D01*
%TO.C,R3*%
X69720000Y-41330000D02*
X76260000Y-41330000D01*
X69720000Y-41660000D02*
X69720000Y-41330000D01*
X69720000Y-43740000D02*
X69720000Y-44070000D01*
X69720000Y-44070000D02*
X76260000Y-44070000D01*
X76260000Y-41330000D02*
X76260000Y-41660000D01*
X76260000Y-44070000D02*
X76260000Y-43740000D01*
%TO.C,C5*%
X67050000Y-35900000D02*
X77590000Y-35900000D01*
X67050000Y-41140000D02*
X67050000Y-35900000D01*
X77590000Y-35900000D02*
X77590000Y-41140000D01*
X77590000Y-41140000D02*
X67050000Y-41140000D01*
%TO.C,C16*%
X121230000Y-58410000D02*
X119701000Y-58410000D01*
X121230000Y-58450000D02*
X119705000Y-58450000D01*
X121230000Y-58490000D02*
X119710000Y-58490000D01*
X121230000Y-58530000D02*
X119715000Y-58530000D01*
X121230000Y-58570000D02*
X119721000Y-58570000D01*
X121230000Y-58610000D02*
X119727000Y-58610000D01*
X121230000Y-58650000D02*
X119734000Y-58650000D01*
X121230000Y-58690000D02*
X119742000Y-58690000D01*
X121230000Y-58730000D02*
X119751000Y-58730000D01*
X121230000Y-58770000D02*
X119760000Y-58770000D01*
X121230000Y-58810000D02*
X119769000Y-58810000D01*
X121230000Y-58850000D02*
X119780000Y-58850000D01*
X121230000Y-58890000D02*
X119791000Y-58890000D01*
X121230000Y-58930000D02*
X119803000Y-58930000D01*
X121230000Y-58970000D02*
X119815000Y-58970000D01*
X121230000Y-59010000D02*
X119828000Y-59010000D01*
X121230000Y-59050000D02*
X119842000Y-59050000D01*
X121230000Y-59090000D02*
X119857000Y-59090000D01*
X121230000Y-59130000D02*
X119872000Y-59130000D01*
X121230000Y-59170000D02*
X119888000Y-59170000D01*
X121230000Y-59210000D02*
X119905000Y-59210000D01*
X121230000Y-59250000D02*
X119923000Y-59250000D01*
X121230000Y-59290000D02*
X119941000Y-59290000D01*
X121230000Y-59330000D02*
X119961000Y-59330000D01*
X121230000Y-59370000D02*
X119981000Y-59370000D01*
X121230000Y-59410000D02*
X120002000Y-59410000D01*
X121230000Y-59450000D02*
X120024000Y-59450000D01*
X121230000Y-59490000D02*
X120047000Y-59490000D01*
X121230000Y-59530000D02*
X120071000Y-59530000D01*
X121230000Y-59570000D02*
X120095000Y-59570000D01*
X121230000Y-59610000D02*
X120121000Y-59610000D01*
X121230000Y-59650000D02*
X120148000Y-59650000D01*
X121230000Y-59690000D02*
X120176000Y-59690000D01*
X121230000Y-59730000D02*
X120205000Y-59730000D01*
X121230000Y-59770000D02*
X120235000Y-59770000D01*
X121230000Y-59810000D02*
X120267000Y-59810000D01*
X121230000Y-59850000D02*
X120300000Y-59850000D01*
X121230000Y-59890000D02*
X120334000Y-59890000D01*
X121230000Y-59930000D02*
X120369000Y-59930000D01*
X121230000Y-59970000D02*
X120406000Y-59970000D01*
X121230000Y-60010000D02*
X120445000Y-60010000D01*
X121230000Y-60050000D02*
X120485000Y-60050000D01*
X121230000Y-60090000D02*
X120527000Y-60090000D01*
X121230000Y-60130000D02*
X120571000Y-60130000D01*
X121230000Y-60170000D02*
X120618000Y-60170000D01*
X121230000Y-60210000D02*
X120666000Y-60210000D01*
X121230000Y-60250000D02*
X120717000Y-60250000D01*
X121230000Y-60290000D02*
X120771000Y-60290000D01*
X121230000Y-60330000D02*
X120827000Y-60330000D01*
X121230000Y-60370000D02*
X120887000Y-60370000D01*
X121230000Y-60410000D02*
X120951000Y-60410000D01*
X121230000Y-60450000D02*
X121019000Y-60450000D01*
X122553000Y-60770000D02*
X121987000Y-60770000D01*
X122787000Y-60730000D02*
X121753000Y-60730000D01*
X122947000Y-60690000D02*
X121593000Y-60690000D01*
X123075000Y-60650000D02*
X121465000Y-60650000D01*
X123184000Y-60610000D02*
X121356000Y-60610000D01*
X123281000Y-60570000D02*
X121259000Y-60570000D01*
X123368000Y-60530000D02*
X121172000Y-60530000D01*
X123447000Y-60490000D02*
X121093000Y-60490000D01*
X123521000Y-60450000D02*
X123310000Y-60450000D01*
X123589000Y-60410000D02*
X123310000Y-60410000D01*
X123653000Y-60370000D02*
X123310000Y-60370000D01*
X123713000Y-60330000D02*
X123310000Y-60330000D01*
X123745000Y-55365225D02*
X123745000Y-55865225D01*
X123769000Y-60290000D02*
X123310000Y-60290000D01*
X123823000Y-60250000D02*
X123310000Y-60250000D01*
X123874000Y-60210000D02*
X123310000Y-60210000D01*
X123922000Y-60170000D02*
X123310000Y-60170000D01*
X123969000Y-60130000D02*
X123310000Y-60130000D01*
X123995000Y-55615225D02*
X123495000Y-55615225D01*
X124013000Y-60090000D02*
X123310000Y-60090000D01*
X124055000Y-60050000D02*
X123310000Y-60050000D01*
X124095000Y-60010000D02*
X123310000Y-60010000D01*
X124134000Y-59970000D02*
X123310000Y-59970000D01*
X124171000Y-59930000D02*
X123310000Y-59930000D01*
X124206000Y-59890000D02*
X123310000Y-59890000D01*
X124240000Y-59850000D02*
X123310000Y-59850000D01*
X124273000Y-59810000D02*
X123310000Y-59810000D01*
X124305000Y-59770000D02*
X123310000Y-59770000D01*
X124335000Y-59730000D02*
X123310000Y-59730000D01*
X124364000Y-59690000D02*
X123310000Y-59690000D01*
X124392000Y-59650000D02*
X123310000Y-59650000D01*
X124419000Y-59610000D02*
X123310000Y-59610000D01*
X124445000Y-59570000D02*
X123310000Y-59570000D01*
X124469000Y-59530000D02*
X123310000Y-59530000D01*
X124493000Y-59490000D02*
X123310000Y-59490000D01*
X124516000Y-59450000D02*
X123310000Y-59450000D01*
X124538000Y-59410000D02*
X123310000Y-59410000D01*
X124559000Y-59370000D02*
X123310000Y-59370000D01*
X124579000Y-59330000D02*
X123310000Y-59330000D01*
X124599000Y-59290000D02*
X123310000Y-59290000D01*
X124617000Y-59250000D02*
X123310000Y-59250000D01*
X124635000Y-59210000D02*
X123310000Y-59210000D01*
X124652000Y-59170000D02*
X123310000Y-59170000D01*
X124668000Y-59130000D02*
X123310000Y-59130000D01*
X124683000Y-59090000D02*
X123310000Y-59090000D01*
X124698000Y-59050000D02*
X123310000Y-59050000D01*
X124712000Y-59010000D02*
X123310000Y-59010000D01*
X124725000Y-58970000D02*
X123310000Y-58970000D01*
X124737000Y-58930000D02*
X123310000Y-58930000D01*
X124749000Y-58890000D02*
X123310000Y-58890000D01*
X124760000Y-58850000D02*
X123310000Y-58850000D01*
X124771000Y-58810000D02*
X123310000Y-58810000D01*
X124780000Y-58770000D02*
X123310000Y-58770000D01*
X124789000Y-58730000D02*
X123310000Y-58730000D01*
X124798000Y-58690000D02*
X123310000Y-58690000D01*
X124806000Y-58650000D02*
X123310000Y-58650000D01*
X124813000Y-58610000D02*
X123310000Y-58610000D01*
X124819000Y-58570000D02*
X123310000Y-58570000D01*
X124825000Y-58530000D02*
X123310000Y-58530000D01*
X124830000Y-58490000D02*
X123310000Y-58490000D01*
X124835000Y-58450000D02*
X123310000Y-58450000D01*
X124839000Y-58410000D02*
X123310000Y-58410000D01*
X124842000Y-58370000D02*
X119698000Y-58370000D01*
X124845000Y-58330000D02*
X119695000Y-58330000D01*
X124847000Y-58290000D02*
X119693000Y-58290000D01*
X124849000Y-58250000D02*
X119691000Y-58250000D01*
X124850000Y-58170000D02*
X119690000Y-58170000D01*
X124850000Y-58210000D02*
X119690000Y-58210000D01*
X124890000Y-58170000D02*
G75*
G02*
X119650000Y-58170000I-2620000J0D01*
G01*
X119650000Y-58170000D02*
G75*
G02*
X124890000Y-58170000I2620000J0D01*
G01*
%TO.C,C6*%
X80460000Y-35500000D02*
X91000000Y-35500000D01*
X80460000Y-40740000D02*
X80460000Y-35500000D01*
X91000000Y-35500000D02*
X91000000Y-40740000D01*
X91000000Y-40740000D02*
X80460000Y-40740000D01*
%TO.C,C4*%
X42350000Y-53630000D02*
X52890000Y-53630000D01*
X42350000Y-58870000D02*
X42350000Y-53630000D01*
X52890000Y-53630000D02*
X52890000Y-58870000D01*
X52890000Y-58870000D02*
X42350000Y-58870000D01*
%TO.C,IC2*%
X81200000Y-49820000D02*
X81200000Y-67720000D01*
X81200000Y-67720000D02*
X86500000Y-67720000D01*
X82850000Y-49820000D02*
X81200000Y-49820000D01*
X86500000Y-49820000D02*
X84850000Y-49820000D01*
X86500000Y-67720000D02*
X86500000Y-49820000D01*
X84850000Y-49820000D02*
G75*
G02*
X82850000Y-49820000I-1000000J0D01*
G01*
%TO.C,Q2*%
X102730000Y-24030000D02*
X112950000Y-24030000D01*
X102730000Y-25410000D02*
X112950000Y-25410000D01*
X102730000Y-28650000D02*
X102730000Y-24030000D01*
X105990000Y-24030000D02*
X105990000Y-25410000D01*
X109690000Y-24030000D02*
X109690000Y-25410000D01*
X112950000Y-24030000D02*
X112950000Y-28650000D01*
X112950000Y-28650000D02*
X102730000Y-28650000D01*
%TO.C,D1*%
X41356000Y-62269000D02*
X41356000Y-68111000D01*
X42499000Y-61126000D02*
G75*
G02*
X41356000Y-68111000I2921000J-4064000D01*
G01*
%TO.C,Q1*%
X66320000Y-23230000D02*
X76540000Y-23230000D01*
X66320000Y-24610000D02*
X76540000Y-24610000D01*
X66320000Y-27850000D02*
X66320000Y-23230000D01*
X69580000Y-23230000D02*
X69580000Y-24610000D01*
X73280000Y-23230000D02*
X73280000Y-24610000D01*
X76540000Y-23230000D02*
X76540000Y-27850000D01*
X76540000Y-27850000D02*
X66320000Y-27850000D01*
%TO.C,C1*%
X19370000Y-41040000D02*
X28110000Y-41040000D01*
X19370000Y-67780000D02*
X19370000Y-41040000D01*
X28110000Y-41040000D02*
X28110000Y-67780000D01*
X28110000Y-67780000D02*
X19370000Y-67780000D01*
%TO.C,C2*%
X36650000Y-29420000D02*
X47190000Y-29420000D01*
X36650000Y-34660000D02*
X36650000Y-29420000D01*
X47190000Y-29420000D02*
X47190000Y-34660000D01*
X47190000Y-34660000D02*
X36650000Y-34660000D01*
%TO.C,R2*%
X67230000Y-48560000D02*
X67560000Y-48560000D01*
X67230000Y-55100000D02*
X67230000Y-48560000D01*
X67560000Y-55100000D02*
X67230000Y-55100000D01*
X69640000Y-55100000D02*
X69970000Y-55100000D01*
X69970000Y-48560000D02*
X69640000Y-48560000D01*
X69970000Y-55100000D02*
X69970000Y-48560000D01*
%TO.C,C13*%
X107030000Y-61380000D02*
X100728000Y-61380000D01*
X107030000Y-61420000D02*
X100741000Y-61420000D01*
X107030000Y-61460000D02*
X100753000Y-61460000D01*
X107030000Y-61500000D02*
X100765000Y-61500000D01*
X107030000Y-61540000D02*
X100778000Y-61540000D01*
X107030000Y-61580000D02*
X100791000Y-61580000D01*
X107030000Y-61620000D02*
X100804000Y-61620000D01*
X107030000Y-61660000D02*
X100818000Y-61660000D01*
X107030000Y-61700000D02*
X100831000Y-61700000D01*
X107030000Y-61740000D02*
X100845000Y-61740000D01*
X107030000Y-61780000D02*
X100859000Y-61780000D01*
X107030000Y-61820000D02*
X100873000Y-61820000D01*
X107030000Y-61860000D02*
X100888000Y-61860000D01*
X107030000Y-61900000D02*
X100903000Y-61900000D01*
X107030000Y-61940000D02*
X100918000Y-61940000D01*
X107030000Y-61980000D02*
X100933000Y-61980000D01*
X107030000Y-62020000D02*
X100949000Y-62020000D01*
X107030000Y-62060000D02*
X100965000Y-62060000D01*
X107030000Y-62100000D02*
X100981000Y-62100000D01*
X107030000Y-62140000D02*
X100997000Y-62140000D01*
X107030000Y-62180000D02*
X101013000Y-62180000D01*
X107030000Y-62220000D02*
X101030000Y-62220000D01*
X107030000Y-62260000D02*
X101047000Y-62260000D01*
X107030000Y-62300000D02*
X101064000Y-62300000D01*
X107030000Y-62340000D02*
X101082000Y-62340000D01*
X107030000Y-62380000D02*
X101100000Y-62380000D01*
X107030000Y-62420000D02*
X101118000Y-62420000D01*
X107030000Y-62460000D02*
X101136000Y-62460000D01*
X107030000Y-62500000D02*
X101155000Y-62500000D01*
X107030000Y-62540000D02*
X101174000Y-62540000D01*
X107030000Y-62580000D02*
X101193000Y-62580000D01*
X107030000Y-62620000D02*
X101212000Y-62620000D01*
X107030000Y-62660000D02*
X101232000Y-62660000D01*
X107030000Y-62700000D02*
X101252000Y-62700000D01*
X107030000Y-62740000D02*
X101272000Y-62740000D01*
X107030000Y-62780000D02*
X101292000Y-62780000D01*
X107030000Y-62820000D02*
X101313000Y-62820000D01*
X107030000Y-62860000D02*
X101334000Y-62860000D01*
X107030000Y-62900000D02*
X101355000Y-62900000D01*
X107030000Y-62940000D02*
X101377000Y-62940000D01*
X107030000Y-62980000D02*
X101399000Y-62980000D01*
X107030000Y-63020000D02*
X101421000Y-63020000D01*
X107030000Y-63060000D02*
X101444000Y-63060000D01*
X107030000Y-63100000D02*
X101466000Y-63100000D01*
X107030000Y-63140000D02*
X101489000Y-63140000D01*
X107030000Y-63180000D02*
X101513000Y-63180000D01*
X107030000Y-63220000D02*
X101537000Y-63220000D01*
X107030000Y-63260000D02*
X101561000Y-63260000D01*
X107030000Y-63300000D02*
X101585000Y-63300000D01*
X107030000Y-63340000D02*
X101610000Y-63340000D01*
X107030000Y-63380000D02*
X101635000Y-63380000D01*
X107030000Y-63420000D02*
X101660000Y-63420000D01*
X107030000Y-63460000D02*
X101685000Y-63460000D01*
X107030000Y-63500000D02*
X101711000Y-63500000D01*
X107030000Y-63540000D02*
X101738000Y-63540000D01*
X107030000Y-63580000D02*
X101764000Y-63580000D01*
X107030000Y-63620000D02*
X101791000Y-63620000D01*
X107030000Y-63660000D02*
X101819000Y-63660000D01*
X107030000Y-63700000D02*
X101846000Y-63700000D01*
X107030000Y-63740000D02*
X101874000Y-63740000D01*
X107030000Y-63780000D02*
X101903000Y-63780000D01*
X107030000Y-63820000D02*
X101931000Y-63820000D01*
X107030000Y-63860000D02*
X101961000Y-63860000D01*
X107030000Y-63900000D02*
X101990000Y-63900000D01*
X107030000Y-63940000D02*
X102020000Y-63940000D01*
X107030000Y-63980000D02*
X102050000Y-63980000D01*
X107030000Y-64020000D02*
X102081000Y-64020000D01*
X107030000Y-64060000D02*
X102112000Y-64060000D01*
X107030000Y-64100000D02*
X102143000Y-64100000D01*
X107030000Y-64140000D02*
X102175000Y-64140000D01*
X107030000Y-64180000D02*
X102208000Y-64180000D01*
X107030000Y-64220000D02*
X102240000Y-64220000D01*
X109235000Y-67140000D02*
X107705000Y-67140000D01*
X109567000Y-67100000D02*
X107373000Y-67100000D01*
X109821000Y-67060000D02*
X107119000Y-67060000D01*
X110034000Y-67020000D02*
X106906000Y-67020000D01*
X110221000Y-66980000D02*
X106719000Y-66980000D01*
X110390000Y-66940000D02*
X106550000Y-66940000D01*
X110544000Y-66900000D02*
X106396000Y-66900000D01*
X110687000Y-66860000D02*
X106253000Y-66860000D01*
X110821000Y-66820000D02*
X106119000Y-66820000D01*
X110947000Y-66780000D02*
X105993000Y-66780000D01*
X111067000Y-66740000D02*
X105873000Y-66740000D01*
X111180000Y-66700000D02*
X105760000Y-66700000D01*
X111289000Y-66660000D02*
X105651000Y-66660000D01*
X111393000Y-66620000D02*
X105547000Y-66620000D01*
X111493000Y-66580000D02*
X105447000Y-66580000D01*
X111590000Y-66540000D02*
X105350000Y-66540000D01*
X111683000Y-66500000D02*
X105257000Y-66500000D01*
X111773000Y-66460000D02*
X105167000Y-66460000D01*
X111860000Y-66420000D02*
X105080000Y-66420000D01*
X111945000Y-66380000D02*
X104995000Y-66380000D01*
X112027000Y-66340000D02*
X104913000Y-66340000D01*
X112107000Y-66300000D02*
X104833000Y-66300000D01*
X112184000Y-66260000D02*
X104756000Y-66260000D01*
X112260000Y-66220000D02*
X104680000Y-66220000D01*
X112334000Y-66180000D02*
X104606000Y-66180000D01*
X112406000Y-66140000D02*
X104534000Y-66140000D01*
X112476000Y-66100000D02*
X104464000Y-66100000D01*
X112545000Y-66060000D02*
X104395000Y-66060000D01*
X112612000Y-66020000D02*
X104328000Y-66020000D01*
X112678000Y-65980000D02*
X104262000Y-65980000D01*
X112743000Y-65940000D02*
X104197000Y-65940000D01*
X112806000Y-65900000D02*
X104134000Y-65900000D01*
X112868000Y-65860000D02*
X104072000Y-65860000D01*
X112929000Y-65820000D02*
X104011000Y-65820000D01*
X112988000Y-65780000D02*
X103952000Y-65780000D01*
X113025000Y-50370509D02*
X113025000Y-51970509D01*
X113046000Y-65740000D02*
X103894000Y-65740000D01*
X113104000Y-65700000D02*
X103836000Y-65700000D01*
X113160000Y-65660000D02*
X103780000Y-65660000D01*
X113215000Y-65620000D02*
X103725000Y-65620000D01*
X113270000Y-65580000D02*
X103670000Y-65580000D01*
X113323000Y-65540000D02*
X103617000Y-65540000D01*
X113376000Y-65500000D02*
X103564000Y-65500000D01*
X113427000Y-65460000D02*
X103513000Y-65460000D01*
X113478000Y-65420000D02*
X103462000Y-65420000D01*
X113528000Y-65380000D02*
X103412000Y-65380000D01*
X113577000Y-65340000D02*
X103363000Y-65340000D01*
X113626000Y-65300000D02*
X103314000Y-65300000D01*
X113674000Y-65260000D02*
X103266000Y-65260000D01*
X113720000Y-65220000D02*
X103220000Y-65220000D01*
X113767000Y-65180000D02*
X103173000Y-65180000D01*
X113812000Y-65140000D02*
X103128000Y-65140000D01*
X113825000Y-51170509D02*
X112225000Y-51170509D01*
X113857000Y-65100000D02*
X103083000Y-65100000D01*
X113901000Y-65060000D02*
X103039000Y-65060000D01*
X113945000Y-65020000D02*
X102995000Y-65020000D01*
X113988000Y-64980000D02*
X102952000Y-64980000D01*
X114030000Y-64940000D02*
X102910000Y-64940000D01*
X114072000Y-64900000D02*
X102868000Y-64900000D01*
X114113000Y-64860000D02*
X102827000Y-64860000D01*
X114153000Y-64820000D02*
X102787000Y-64820000D01*
X114193000Y-64780000D02*
X102747000Y-64780000D01*
X114233000Y-64740000D02*
X102707000Y-64740000D01*
X114272000Y-64700000D02*
X102668000Y-64700000D01*
X114310000Y-64660000D02*
X102630000Y-64660000D01*
X114348000Y-64620000D02*
X102592000Y-64620000D01*
X114385000Y-64580000D02*
X102555000Y-64580000D01*
X114422000Y-64540000D02*
X102518000Y-64540000D01*
X114458000Y-64500000D02*
X102482000Y-64500000D01*
X114494000Y-64460000D02*
X102446000Y-64460000D01*
X114530000Y-64420000D02*
X102410000Y-64420000D01*
X114564000Y-64380000D02*
X102376000Y-64380000D01*
X114599000Y-64340000D02*
X102341000Y-64340000D01*
X114633000Y-64300000D02*
X102307000Y-64300000D01*
X114667000Y-64260000D02*
X102273000Y-64260000D01*
X114700000Y-64220000D02*
X109910000Y-64220000D01*
X114732000Y-64180000D02*
X109910000Y-64180000D01*
X114765000Y-64140000D02*
X109910000Y-64140000D01*
X114797000Y-64100000D02*
X109910000Y-64100000D01*
X114828000Y-64060000D02*
X109910000Y-64060000D01*
X114859000Y-64020000D02*
X109910000Y-64020000D01*
X114890000Y-63980000D02*
X109910000Y-63980000D01*
X114920000Y-63940000D02*
X109910000Y-63940000D01*
X114950000Y-63900000D02*
X109910000Y-63900000D01*
X114979000Y-63860000D02*
X109910000Y-63860000D01*
X115009000Y-63820000D02*
X109910000Y-63820000D01*
X115037000Y-63780000D02*
X109910000Y-63780000D01*
X115066000Y-63740000D02*
X109910000Y-63740000D01*
X115094000Y-63700000D02*
X109910000Y-63700000D01*
X115121000Y-63660000D02*
X109910000Y-63660000D01*
X115149000Y-63620000D02*
X109910000Y-63620000D01*
X115176000Y-63580000D02*
X109910000Y-63580000D01*
X115202000Y-63540000D02*
X109910000Y-63540000D01*
X115229000Y-63500000D02*
X109910000Y-63500000D01*
X115255000Y-63460000D02*
X109910000Y-63460000D01*
X115280000Y-63420000D02*
X109910000Y-63420000D01*
X115305000Y-63380000D02*
X109910000Y-63380000D01*
X115330000Y-63340000D02*
X109910000Y-63340000D01*
X115355000Y-63300000D02*
X109910000Y-63300000D01*
X115379000Y-63260000D02*
X109910000Y-63260000D01*
X115403000Y-63220000D02*
X109910000Y-63220000D01*
X115427000Y-63180000D02*
X109910000Y-63180000D01*
X115451000Y-63140000D02*
X109910000Y-63140000D01*
X115474000Y-63100000D02*
X109910000Y-63100000D01*
X115496000Y-63060000D02*
X109910000Y-63060000D01*
X115519000Y-63020000D02*
X109910000Y-63020000D01*
X115541000Y-62980000D02*
X109910000Y-62980000D01*
X115563000Y-62940000D02*
X109910000Y-62940000D01*
X115585000Y-62900000D02*
X109910000Y-62900000D01*
X115606000Y-62860000D02*
X109910000Y-62860000D01*
X115627000Y-62820000D02*
X109910000Y-62820000D01*
X115648000Y-62780000D02*
X109910000Y-62780000D01*
X115668000Y-62740000D02*
X109910000Y-62740000D01*
X115688000Y-62700000D02*
X109910000Y-62700000D01*
X115708000Y-62660000D02*
X109910000Y-62660000D01*
X115728000Y-62620000D02*
X109910000Y-62620000D01*
X115747000Y-62580000D02*
X109910000Y-62580000D01*
X115766000Y-62540000D02*
X109910000Y-62540000D01*
X115785000Y-62500000D02*
X109910000Y-62500000D01*
X115804000Y-62460000D02*
X109910000Y-62460000D01*
X115822000Y-62420000D02*
X109910000Y-62420000D01*
X115840000Y-62380000D02*
X109910000Y-62380000D01*
X115858000Y-62340000D02*
X109910000Y-62340000D01*
X115876000Y-62300000D02*
X109910000Y-62300000D01*
X115893000Y-62260000D02*
X109910000Y-62260000D01*
X115910000Y-62220000D02*
X109910000Y-62220000D01*
X115927000Y-62180000D02*
X109910000Y-62180000D01*
X115943000Y-62140000D02*
X109910000Y-62140000D01*
X115959000Y-62100000D02*
X109910000Y-62100000D01*
X115975000Y-62060000D02*
X109910000Y-62060000D01*
X115991000Y-62020000D02*
X109910000Y-62020000D01*
X116007000Y-61980000D02*
X109910000Y-61980000D01*
X116022000Y-61940000D02*
X109910000Y-61940000D01*
X116037000Y-61900000D02*
X109910000Y-61900000D01*
X116052000Y-61860000D02*
X109910000Y-61860000D01*
X116067000Y-61820000D02*
X109910000Y-61820000D01*
X116081000Y-61780000D02*
X109910000Y-61780000D01*
X116095000Y-61740000D02*
X109910000Y-61740000D01*
X116109000Y-61700000D02*
X109910000Y-61700000D01*
X116122000Y-61660000D02*
X109910000Y-61660000D01*
X116136000Y-61620000D02*
X109910000Y-61620000D01*
X116149000Y-61580000D02*
X109910000Y-61580000D01*
X116162000Y-61540000D02*
X109910000Y-61540000D01*
X116175000Y-61500000D02*
X109910000Y-61500000D01*
X116187000Y-61460000D02*
X109910000Y-61460000D01*
X116199000Y-61420000D02*
X109910000Y-61420000D01*
X116212000Y-61380000D02*
X109910000Y-61380000D01*
X116223000Y-61340000D02*
X100717000Y-61340000D01*
X116235000Y-61300000D02*
X100705000Y-61300000D01*
X116246000Y-61260000D02*
X100694000Y-61260000D01*
X116257000Y-61220000D02*
X100683000Y-61220000D01*
X116268000Y-61180000D02*
X100672000Y-61180000D01*
X116279000Y-61140000D02*
X100661000Y-61140000D01*
X116290000Y-61100000D02*
X100650000Y-61100000D01*
X116300000Y-61060000D02*
X100640000Y-61060000D01*
X116310000Y-61020000D02*
X100630000Y-61020000D01*
X116320000Y-60980000D02*
X100620000Y-60980000D01*
X116329000Y-60940000D02*
X100611000Y-60940000D01*
X116339000Y-60900000D02*
X100601000Y-60900000D01*
X116348000Y-60860000D02*
X100592000Y-60860000D01*
X116357000Y-60820000D02*
X100583000Y-60820000D01*
X116366000Y-60780000D02*
X100574000Y-60780000D01*
X116374000Y-60740000D02*
X100566000Y-60740000D01*
X116383000Y-60700000D02*
X100557000Y-60700000D01*
X116391000Y-60660000D02*
X100549000Y-60660000D01*
X116399000Y-60620000D02*
X100541000Y-60620000D01*
X116406000Y-60580000D02*
X100534000Y-60580000D01*
X116414000Y-60540000D02*
X100526000Y-60540000D01*
X116421000Y-60500000D02*
X100519000Y-60500000D01*
X116428000Y-60460000D02*
X100512000Y-60460000D01*
X116435000Y-60420000D02*
X100505000Y-60420000D01*
X116442000Y-60380000D02*
X100498000Y-60380000D01*
X116448000Y-60340000D02*
X100492000Y-60340000D01*
X116455000Y-60300000D02*
X100485000Y-60300000D01*
X116461000Y-60260000D02*
X100479000Y-60260000D01*
X116467000Y-60220000D02*
X100473000Y-60220000D01*
X116472000Y-60180000D02*
X100468000Y-60180000D01*
X116478000Y-60140000D02*
X100462000Y-60140000D01*
X116483000Y-60100000D02*
X100457000Y-60100000D01*
X116488000Y-60060000D02*
X100452000Y-60060000D01*
X116493000Y-60020000D02*
X100447000Y-60020000D01*
X116498000Y-59980000D02*
X100442000Y-59980000D01*
X116502000Y-59940000D02*
X100438000Y-59940000D01*
X116506000Y-59900000D02*
X100434000Y-59900000D01*
X116510000Y-59860000D02*
X100430000Y-59860000D01*
X116514000Y-59820000D02*
X100426000Y-59820000D01*
X116518000Y-59780000D02*
X100422000Y-59780000D01*
X116521000Y-59740000D02*
X100419000Y-59740000D01*
X116525000Y-59700000D02*
X100415000Y-59700000D01*
X116528000Y-59660000D02*
X100412000Y-59660000D01*
X116531000Y-59620000D02*
X100409000Y-59620000D01*
X116533000Y-59580000D02*
X100407000Y-59580000D01*
X116536000Y-59540000D02*
X100404000Y-59540000D01*
X116538000Y-59500000D02*
X100402000Y-59500000D01*
X116540000Y-59460000D02*
X100400000Y-59460000D01*
X116542000Y-59420000D02*
X100398000Y-59420000D01*
X116544000Y-59380000D02*
X100396000Y-59380000D01*
X116545000Y-59340000D02*
X100395000Y-59340000D01*
X116546000Y-59300000D02*
X100394000Y-59300000D01*
X116548000Y-59220000D02*
X100392000Y-59220000D01*
X116548000Y-59260000D02*
X100392000Y-59260000D01*
X116549000Y-59180000D02*
X100391000Y-59180000D01*
X116550000Y-59060000D02*
X100390000Y-59060000D01*
X116550000Y-59100000D02*
X100390000Y-59100000D01*
X116550000Y-59140000D02*
X100390000Y-59140000D01*
X116590000Y-59060000D02*
G75*
G02*
X100350000Y-59060000I-8120000J0D01*
G01*
X100350000Y-59060000D02*
G75*
G02*
X116590000Y-59060000I8120000J0D01*
G01*
%TO.C,C10*%
X71620000Y-60550000D02*
X76860000Y-60550000D01*
X71620000Y-71090000D02*
X71620000Y-60550000D01*
X76860000Y-60550000D02*
X76860000Y-71090000D01*
X76860000Y-71090000D02*
X71620000Y-71090000D01*
%TO.C,C12*%
X106070000Y-41220000D02*
X99768000Y-41220000D01*
X106070000Y-41260000D02*
X99781000Y-41260000D01*
X106070000Y-41300000D02*
X99793000Y-41300000D01*
X106070000Y-41340000D02*
X99805000Y-41340000D01*
X106070000Y-41380000D02*
X99818000Y-41380000D01*
X106070000Y-41420000D02*
X99831000Y-41420000D01*
X106070000Y-41460000D02*
X99844000Y-41460000D01*
X106070000Y-41500000D02*
X99858000Y-41500000D01*
X106070000Y-41540000D02*
X99871000Y-41540000D01*
X106070000Y-41580000D02*
X99885000Y-41580000D01*
X106070000Y-41620000D02*
X99899000Y-41620000D01*
X106070000Y-41660000D02*
X99913000Y-41660000D01*
X106070000Y-41700000D02*
X99928000Y-41700000D01*
X106070000Y-41740000D02*
X99943000Y-41740000D01*
X106070000Y-41780000D02*
X99958000Y-41780000D01*
X106070000Y-41820000D02*
X99973000Y-41820000D01*
X106070000Y-41860000D02*
X99989000Y-41860000D01*
X106070000Y-41900000D02*
X100005000Y-41900000D01*
X106070000Y-41940000D02*
X100021000Y-41940000D01*
X106070000Y-41980000D02*
X100037000Y-41980000D01*
X106070000Y-42020000D02*
X100053000Y-42020000D01*
X106070000Y-42060000D02*
X100070000Y-42060000D01*
X106070000Y-42100000D02*
X100087000Y-42100000D01*
X106070000Y-42140000D02*
X100104000Y-42140000D01*
X106070000Y-42180000D02*
X100122000Y-42180000D01*
X106070000Y-42220000D02*
X100140000Y-42220000D01*
X106070000Y-42260000D02*
X100158000Y-42260000D01*
X106070000Y-42300000D02*
X100176000Y-42300000D01*
X106070000Y-42340000D02*
X100195000Y-42340000D01*
X106070000Y-42380000D02*
X100214000Y-42380000D01*
X106070000Y-42420000D02*
X100233000Y-42420000D01*
X106070000Y-42460000D02*
X100252000Y-42460000D01*
X106070000Y-42500000D02*
X100272000Y-42500000D01*
X106070000Y-42540000D02*
X100292000Y-42540000D01*
X106070000Y-42580000D02*
X100312000Y-42580000D01*
X106070000Y-42620000D02*
X100332000Y-42620000D01*
X106070000Y-42660000D02*
X100353000Y-42660000D01*
X106070000Y-42700000D02*
X100374000Y-42700000D01*
X106070000Y-42740000D02*
X100395000Y-42740000D01*
X106070000Y-42780000D02*
X100417000Y-42780000D01*
X106070000Y-42820000D02*
X100439000Y-42820000D01*
X106070000Y-42860000D02*
X100461000Y-42860000D01*
X106070000Y-42900000D02*
X100484000Y-42900000D01*
X106070000Y-42940000D02*
X100506000Y-42940000D01*
X106070000Y-42980000D02*
X100529000Y-42980000D01*
X106070000Y-43020000D02*
X100553000Y-43020000D01*
X106070000Y-43060000D02*
X100577000Y-43060000D01*
X106070000Y-43100000D02*
X100601000Y-43100000D01*
X106070000Y-43140000D02*
X100625000Y-43140000D01*
X106070000Y-43180000D02*
X100650000Y-43180000D01*
X106070000Y-43220000D02*
X100675000Y-43220000D01*
X106070000Y-43260000D02*
X100700000Y-43260000D01*
X106070000Y-43300000D02*
X100725000Y-43300000D01*
X106070000Y-43340000D02*
X100751000Y-43340000D01*
X106070000Y-43380000D02*
X100778000Y-43380000D01*
X106070000Y-43420000D02*
X100804000Y-43420000D01*
X106070000Y-43460000D02*
X100831000Y-43460000D01*
X106070000Y-43500000D02*
X100859000Y-43500000D01*
X106070000Y-43540000D02*
X100886000Y-43540000D01*
X106070000Y-43580000D02*
X100914000Y-43580000D01*
X106070000Y-43620000D02*
X100943000Y-43620000D01*
X106070000Y-43660000D02*
X100971000Y-43660000D01*
X106070000Y-43700000D02*
X101001000Y-43700000D01*
X106070000Y-43740000D02*
X101030000Y-43740000D01*
X106070000Y-43780000D02*
X101060000Y-43780000D01*
X106070000Y-43820000D02*
X101090000Y-43820000D01*
X106070000Y-43860000D02*
X101121000Y-43860000D01*
X106070000Y-43900000D02*
X101152000Y-43900000D01*
X106070000Y-43940000D02*
X101183000Y-43940000D01*
X106070000Y-43980000D02*
X101215000Y-43980000D01*
X106070000Y-44020000D02*
X101248000Y-44020000D01*
X106070000Y-44060000D02*
X101280000Y-44060000D01*
X108275000Y-46980000D02*
X106745000Y-46980000D01*
X108607000Y-46940000D02*
X106413000Y-46940000D01*
X108861000Y-46900000D02*
X106159000Y-46900000D01*
X109074000Y-46860000D02*
X105946000Y-46860000D01*
X109261000Y-46820000D02*
X105759000Y-46820000D01*
X109430000Y-46780000D02*
X105590000Y-46780000D01*
X109584000Y-46740000D02*
X105436000Y-46740000D01*
X109727000Y-46700000D02*
X105293000Y-46700000D01*
X109861000Y-46660000D02*
X105159000Y-46660000D01*
X109987000Y-46620000D02*
X105033000Y-46620000D01*
X110107000Y-46580000D02*
X104913000Y-46580000D01*
X110220000Y-46540000D02*
X104800000Y-46540000D01*
X110329000Y-46500000D02*
X104691000Y-46500000D01*
X110433000Y-46460000D02*
X104587000Y-46460000D01*
X110533000Y-46420000D02*
X104487000Y-46420000D01*
X110630000Y-46380000D02*
X104390000Y-46380000D01*
X110723000Y-46340000D02*
X104297000Y-46340000D01*
X110813000Y-46300000D02*
X104207000Y-46300000D01*
X110900000Y-46260000D02*
X104120000Y-46260000D01*
X110985000Y-46220000D02*
X104035000Y-46220000D01*
X111067000Y-46180000D02*
X103953000Y-46180000D01*
X111147000Y-46140000D02*
X103873000Y-46140000D01*
X111224000Y-46100000D02*
X103796000Y-46100000D01*
X111300000Y-46060000D02*
X103720000Y-46060000D01*
X111374000Y-46020000D02*
X103646000Y-46020000D01*
X111446000Y-45980000D02*
X103574000Y-45980000D01*
X111516000Y-45940000D02*
X103504000Y-45940000D01*
X111585000Y-45900000D02*
X103435000Y-45900000D01*
X111652000Y-45860000D02*
X103368000Y-45860000D01*
X111718000Y-45820000D02*
X103302000Y-45820000D01*
X111783000Y-45780000D02*
X103237000Y-45780000D01*
X111846000Y-45740000D02*
X103174000Y-45740000D01*
X111908000Y-45700000D02*
X103112000Y-45700000D01*
X111969000Y-45660000D02*
X103051000Y-45660000D01*
X112028000Y-45620000D02*
X102992000Y-45620000D01*
X112065000Y-30210509D02*
X112065000Y-31810509D01*
X112086000Y-45580000D02*
X102934000Y-45580000D01*
X112144000Y-45540000D02*
X102876000Y-45540000D01*
X112200000Y-45500000D02*
X102820000Y-45500000D01*
X112255000Y-45460000D02*
X102765000Y-45460000D01*
X112310000Y-45420000D02*
X102710000Y-45420000D01*
X112363000Y-45380000D02*
X102657000Y-45380000D01*
X112416000Y-45340000D02*
X102604000Y-45340000D01*
X112467000Y-45300000D02*
X102553000Y-45300000D01*
X112518000Y-45260000D02*
X102502000Y-45260000D01*
X112568000Y-45220000D02*
X102452000Y-45220000D01*
X112617000Y-45180000D02*
X102403000Y-45180000D01*
X112666000Y-45140000D02*
X102354000Y-45140000D01*
X112714000Y-45100000D02*
X102306000Y-45100000D01*
X112760000Y-45060000D02*
X102260000Y-45060000D01*
X112807000Y-45020000D02*
X102213000Y-45020000D01*
X112852000Y-44980000D02*
X102168000Y-44980000D01*
X112865000Y-31010509D02*
X111265000Y-31010509D01*
X112897000Y-44940000D02*
X102123000Y-44940000D01*
X112941000Y-44900000D02*
X102079000Y-44900000D01*
X112985000Y-44860000D02*
X102035000Y-44860000D01*
X113028000Y-44820000D02*
X101992000Y-44820000D01*
X113070000Y-44780000D02*
X101950000Y-44780000D01*
X113112000Y-44740000D02*
X101908000Y-44740000D01*
X113153000Y-44700000D02*
X101867000Y-44700000D01*
X113193000Y-44660000D02*
X101827000Y-44660000D01*
X113233000Y-44620000D02*
X101787000Y-44620000D01*
X113273000Y-44580000D02*
X101747000Y-44580000D01*
X113312000Y-44540000D02*
X101708000Y-44540000D01*
X113350000Y-44500000D02*
X101670000Y-44500000D01*
X113388000Y-44460000D02*
X101632000Y-44460000D01*
X113425000Y-44420000D02*
X101595000Y-44420000D01*
X113462000Y-44380000D02*
X101558000Y-44380000D01*
X113498000Y-44340000D02*
X101522000Y-44340000D01*
X113534000Y-44300000D02*
X101486000Y-44300000D01*
X113570000Y-44260000D02*
X101450000Y-44260000D01*
X113604000Y-44220000D02*
X101416000Y-44220000D01*
X113639000Y-44180000D02*
X101381000Y-44180000D01*
X113673000Y-44140000D02*
X101347000Y-44140000D01*
X113707000Y-44100000D02*
X101313000Y-44100000D01*
X113740000Y-44060000D02*
X108950000Y-44060000D01*
X113772000Y-44020000D02*
X108950000Y-44020000D01*
X113805000Y-43980000D02*
X108950000Y-43980000D01*
X113837000Y-43940000D02*
X108950000Y-43940000D01*
X113868000Y-43900000D02*
X108950000Y-43900000D01*
X113899000Y-43860000D02*
X108950000Y-43860000D01*
X113930000Y-43820000D02*
X108950000Y-43820000D01*
X113960000Y-43780000D02*
X108950000Y-43780000D01*
X113990000Y-43740000D02*
X108950000Y-43740000D01*
X114019000Y-43700000D02*
X108950000Y-43700000D01*
X114049000Y-43660000D02*
X108950000Y-43660000D01*
X114077000Y-43620000D02*
X108950000Y-43620000D01*
X114106000Y-43580000D02*
X108950000Y-43580000D01*
X114134000Y-43540000D02*
X108950000Y-43540000D01*
X114161000Y-43500000D02*
X108950000Y-43500000D01*
X114189000Y-43460000D02*
X108950000Y-43460000D01*
X114216000Y-43420000D02*
X108950000Y-43420000D01*
X114242000Y-43380000D02*
X108950000Y-43380000D01*
X114269000Y-43340000D02*
X108950000Y-43340000D01*
X114295000Y-43300000D02*
X108950000Y-43300000D01*
X114320000Y-43260000D02*
X108950000Y-43260000D01*
X114345000Y-43220000D02*
X108950000Y-43220000D01*
X114370000Y-43180000D02*
X108950000Y-43180000D01*
X114395000Y-43140000D02*
X108950000Y-43140000D01*
X114419000Y-43100000D02*
X108950000Y-43100000D01*
X114443000Y-43060000D02*
X108950000Y-43060000D01*
X114467000Y-43020000D02*
X108950000Y-43020000D01*
X114491000Y-42980000D02*
X108950000Y-42980000D01*
X114514000Y-42940000D02*
X108950000Y-42940000D01*
X114536000Y-42900000D02*
X108950000Y-42900000D01*
X114559000Y-42860000D02*
X108950000Y-42860000D01*
X114581000Y-42820000D02*
X108950000Y-42820000D01*
X114603000Y-42780000D02*
X108950000Y-42780000D01*
X114625000Y-42740000D02*
X108950000Y-42740000D01*
X114646000Y-42700000D02*
X108950000Y-42700000D01*
X114667000Y-42660000D02*
X108950000Y-42660000D01*
X114688000Y-42620000D02*
X108950000Y-42620000D01*
X114708000Y-42580000D02*
X108950000Y-42580000D01*
X114728000Y-42540000D02*
X108950000Y-42540000D01*
X114748000Y-42500000D02*
X108950000Y-42500000D01*
X114768000Y-42460000D02*
X108950000Y-42460000D01*
X114787000Y-42420000D02*
X108950000Y-42420000D01*
X114806000Y-42380000D02*
X108950000Y-42380000D01*
X114825000Y-42340000D02*
X108950000Y-42340000D01*
X114844000Y-42300000D02*
X108950000Y-42300000D01*
X114862000Y-42260000D02*
X108950000Y-42260000D01*
X114880000Y-42220000D02*
X108950000Y-42220000D01*
X114898000Y-42180000D02*
X108950000Y-42180000D01*
X114916000Y-42140000D02*
X108950000Y-42140000D01*
X114933000Y-42100000D02*
X108950000Y-42100000D01*
X114950000Y-42060000D02*
X108950000Y-42060000D01*
X114967000Y-42020000D02*
X108950000Y-42020000D01*
X114983000Y-41980000D02*
X108950000Y-41980000D01*
X114999000Y-41940000D02*
X108950000Y-41940000D01*
X115015000Y-41900000D02*
X108950000Y-41900000D01*
X115031000Y-41860000D02*
X108950000Y-41860000D01*
X115047000Y-41820000D02*
X108950000Y-41820000D01*
X115062000Y-41780000D02*
X108950000Y-41780000D01*
X115077000Y-41740000D02*
X108950000Y-41740000D01*
X115092000Y-41700000D02*
X108950000Y-41700000D01*
X115107000Y-41660000D02*
X108950000Y-41660000D01*
X115121000Y-41620000D02*
X108950000Y-41620000D01*
X115135000Y-41580000D02*
X108950000Y-41580000D01*
X115149000Y-41540000D02*
X108950000Y-41540000D01*
X115162000Y-41500000D02*
X108950000Y-41500000D01*
X115176000Y-41460000D02*
X108950000Y-41460000D01*
X115189000Y-41420000D02*
X108950000Y-41420000D01*
X115202000Y-41380000D02*
X108950000Y-41380000D01*
X115215000Y-41340000D02*
X108950000Y-41340000D01*
X115227000Y-41300000D02*
X108950000Y-41300000D01*
X115239000Y-41260000D02*
X108950000Y-41260000D01*
X115252000Y-41220000D02*
X108950000Y-41220000D01*
X115263000Y-41180000D02*
X99757000Y-41180000D01*
X115275000Y-41140000D02*
X99745000Y-41140000D01*
X115286000Y-41100000D02*
X99734000Y-41100000D01*
X115297000Y-41060000D02*
X99723000Y-41060000D01*
X115308000Y-41020000D02*
X99712000Y-41020000D01*
X115319000Y-40980000D02*
X99701000Y-40980000D01*
X115330000Y-40940000D02*
X99690000Y-40940000D01*
X115340000Y-40900000D02*
X99680000Y-40900000D01*
X115350000Y-40860000D02*
X99670000Y-40860000D01*
X115360000Y-40820000D02*
X99660000Y-40820000D01*
X115369000Y-40780000D02*
X99651000Y-40780000D01*
X115379000Y-40740000D02*
X99641000Y-40740000D01*
X115388000Y-40700000D02*
X99632000Y-40700000D01*
X115397000Y-40660000D02*
X99623000Y-40660000D01*
X115406000Y-40620000D02*
X99614000Y-40620000D01*
X115414000Y-40580000D02*
X99606000Y-40580000D01*
X115423000Y-40540000D02*
X99597000Y-40540000D01*
X115431000Y-40500000D02*
X99589000Y-40500000D01*
X115439000Y-40460000D02*
X99581000Y-40460000D01*
X115446000Y-40420000D02*
X99574000Y-40420000D01*
X115454000Y-40380000D02*
X99566000Y-40380000D01*
X115461000Y-40340000D02*
X99559000Y-40340000D01*
X115468000Y-40300000D02*
X99552000Y-40300000D01*
X115475000Y-40260000D02*
X99545000Y-40260000D01*
X115482000Y-40220000D02*
X99538000Y-40220000D01*
X115488000Y-40180000D02*
X99532000Y-40180000D01*
X115495000Y-40140000D02*
X99525000Y-40140000D01*
X115501000Y-40100000D02*
X99519000Y-40100000D01*
X115507000Y-40060000D02*
X99513000Y-40060000D01*
X115512000Y-40020000D02*
X99508000Y-40020000D01*
X115518000Y-39980000D02*
X99502000Y-39980000D01*
X115523000Y-39940000D02*
X99497000Y-39940000D01*
X115528000Y-39900000D02*
X99492000Y-39900000D01*
X115533000Y-39860000D02*
X99487000Y-39860000D01*
X115538000Y-39820000D02*
X99482000Y-39820000D01*
X115542000Y-39780000D02*
X99478000Y-39780000D01*
X115546000Y-39740000D02*
X99474000Y-39740000D01*
X115550000Y-39700000D02*
X99470000Y-39700000D01*
X115554000Y-39660000D02*
X99466000Y-39660000D01*
X115558000Y-39620000D02*
X99462000Y-39620000D01*
X115561000Y-39580000D02*
X99459000Y-39580000D01*
X115565000Y-39540000D02*
X99455000Y-39540000D01*
X115568000Y-39500000D02*
X99452000Y-39500000D01*
X115571000Y-39460000D02*
X99449000Y-39460000D01*
X115573000Y-39420000D02*
X99447000Y-39420000D01*
X115576000Y-39380000D02*
X99444000Y-39380000D01*
X115578000Y-39340000D02*
X99442000Y-39340000D01*
X115580000Y-39300000D02*
X99440000Y-39300000D01*
X115582000Y-39260000D02*
X99438000Y-39260000D01*
X115584000Y-39220000D02*
X99436000Y-39220000D01*
X115585000Y-39180000D02*
X99435000Y-39180000D01*
X115586000Y-39140000D02*
X99434000Y-39140000D01*
X115588000Y-39060000D02*
X99432000Y-39060000D01*
X115588000Y-39100000D02*
X99432000Y-39100000D01*
X115589000Y-39020000D02*
X99431000Y-39020000D01*
X115590000Y-38900000D02*
X99430000Y-38900000D01*
X115590000Y-38940000D02*
X99430000Y-38940000D01*
X115590000Y-38980000D02*
X99430000Y-38980000D01*
X115630000Y-38900000D02*
G75*
G02*
X99390000Y-38900000I-8120000J0D01*
G01*
X99390000Y-38900000D02*
G75*
G02*
X115630000Y-38900000I8120000J0D01*
G01*
%TO.C,D3*%
X120570000Y-86750000D02*
X120570000Y-88670000D01*
X120570000Y-94830000D02*
X120570000Y-92910000D01*
X121690000Y-89270000D02*
X119450000Y-89270000D01*
X121690000Y-89390000D02*
X119450000Y-89390000D01*
X121690000Y-89510000D02*
X119450000Y-89510000D01*
X119450000Y-88670000D02*
X121690000Y-88670000D01*
X121690000Y-92910000D01*
X119450000Y-92910000D01*
X119450000Y-88670000D01*
%TO.C,C7*%
X74250000Y-45520000D02*
X77490000Y-45520000D01*
X74250000Y-45668000D02*
X74250000Y-45520000D01*
X74250000Y-47760000D02*
X74250000Y-47612000D01*
X77490000Y-45520000D02*
X77490000Y-45668000D01*
X77490000Y-47612000D02*
X77490000Y-47760000D01*
X77490000Y-47760000D02*
X74250000Y-47760000D01*
%TO.C,D4*%
X125160000Y-86350000D02*
X125160000Y-88270000D01*
X125160000Y-94430000D02*
X125160000Y-92510000D01*
X126280000Y-88870000D02*
X124040000Y-88870000D01*
X126280000Y-88990000D02*
X124040000Y-88990000D01*
X126280000Y-89110000D02*
X124040000Y-89110000D01*
X124040000Y-88270000D02*
X126280000Y-88270000D01*
X126280000Y-92510000D01*
X124040000Y-92510000D01*
X124040000Y-88270000D01*
%TO.C,C15*%
X121630000Y-38650000D02*
X120101000Y-38650000D01*
X121630000Y-38690000D02*
X120105000Y-38690000D01*
X121630000Y-38730000D02*
X120110000Y-38730000D01*
X121630000Y-38770000D02*
X120115000Y-38770000D01*
X121630000Y-38810000D02*
X120121000Y-38810000D01*
X121630000Y-38850000D02*
X120127000Y-38850000D01*
X121630000Y-38890000D02*
X120134000Y-38890000D01*
X121630000Y-38930000D02*
X120142000Y-38930000D01*
X121630000Y-38970000D02*
X120151000Y-38970000D01*
X121630000Y-39010000D02*
X120160000Y-39010000D01*
X121630000Y-39050000D02*
X120169000Y-39050000D01*
X121630000Y-39090000D02*
X120180000Y-39090000D01*
X121630000Y-39130000D02*
X120191000Y-39130000D01*
X121630000Y-39170000D02*
X120203000Y-39170000D01*
X121630000Y-39210000D02*
X120215000Y-39210000D01*
X121630000Y-39250000D02*
X120228000Y-39250000D01*
X121630000Y-39290000D02*
X120242000Y-39290000D01*
X121630000Y-39330000D02*
X120257000Y-39330000D01*
X121630000Y-39370000D02*
X120272000Y-39370000D01*
X121630000Y-39410000D02*
X120288000Y-39410000D01*
X121630000Y-39450000D02*
X120305000Y-39450000D01*
X121630000Y-39490000D02*
X120323000Y-39490000D01*
X121630000Y-39530000D02*
X120341000Y-39530000D01*
X121630000Y-39570000D02*
X120361000Y-39570000D01*
X121630000Y-39610000D02*
X120381000Y-39610000D01*
X121630000Y-39650000D02*
X120402000Y-39650000D01*
X121630000Y-39690000D02*
X120424000Y-39690000D01*
X121630000Y-39730000D02*
X120447000Y-39730000D01*
X121630000Y-39770000D02*
X120471000Y-39770000D01*
X121630000Y-39810000D02*
X120495000Y-39810000D01*
X121630000Y-39850000D02*
X120521000Y-39850000D01*
X121630000Y-39890000D02*
X120548000Y-39890000D01*
X121630000Y-39930000D02*
X120576000Y-39930000D01*
X121630000Y-39970000D02*
X120605000Y-39970000D01*
X121630000Y-40010000D02*
X120635000Y-40010000D01*
X121630000Y-40050000D02*
X120667000Y-40050000D01*
X121630000Y-40090000D02*
X120700000Y-40090000D01*
X121630000Y-40130000D02*
X120734000Y-40130000D01*
X121630000Y-40170000D02*
X120769000Y-40170000D01*
X121630000Y-40210000D02*
X120806000Y-40210000D01*
X121630000Y-40250000D02*
X120845000Y-40250000D01*
X121630000Y-40290000D02*
X120885000Y-40290000D01*
X121630000Y-40330000D02*
X120927000Y-40330000D01*
X121630000Y-40370000D02*
X120971000Y-40370000D01*
X121630000Y-40410000D02*
X121018000Y-40410000D01*
X121630000Y-40450000D02*
X121066000Y-40450000D01*
X121630000Y-40490000D02*
X121117000Y-40490000D01*
X121630000Y-40530000D02*
X121171000Y-40530000D01*
X121630000Y-40570000D02*
X121227000Y-40570000D01*
X121630000Y-40610000D02*
X121287000Y-40610000D01*
X121630000Y-40650000D02*
X121351000Y-40650000D01*
X121630000Y-40690000D02*
X121419000Y-40690000D01*
X122953000Y-41010000D02*
X122387000Y-41010000D01*
X123187000Y-40970000D02*
X122153000Y-40970000D01*
X123347000Y-40930000D02*
X121993000Y-40930000D01*
X123475000Y-40890000D02*
X121865000Y-40890000D01*
X123584000Y-40850000D02*
X121756000Y-40850000D01*
X123681000Y-40810000D02*
X121659000Y-40810000D01*
X123768000Y-40770000D02*
X121572000Y-40770000D01*
X123847000Y-40730000D02*
X121493000Y-40730000D01*
X123921000Y-40690000D02*
X123710000Y-40690000D01*
X123989000Y-40650000D02*
X123710000Y-40650000D01*
X124053000Y-40610000D02*
X123710000Y-40610000D01*
X124113000Y-40570000D02*
X123710000Y-40570000D01*
X124145000Y-35605225D02*
X124145000Y-36105225D01*
X124169000Y-40530000D02*
X123710000Y-40530000D01*
X124223000Y-40490000D02*
X123710000Y-40490000D01*
X124274000Y-40450000D02*
X123710000Y-40450000D01*
X124322000Y-40410000D02*
X123710000Y-40410000D01*
X124369000Y-40370000D02*
X123710000Y-40370000D01*
X124395000Y-35855225D02*
X123895000Y-35855225D01*
X124413000Y-40330000D02*
X123710000Y-40330000D01*
X124455000Y-40290000D02*
X123710000Y-40290000D01*
X124495000Y-40250000D02*
X123710000Y-40250000D01*
X124534000Y-40210000D02*
X123710000Y-40210000D01*
X124571000Y-40170000D02*
X123710000Y-40170000D01*
X124606000Y-40130000D02*
X123710000Y-40130000D01*
X124640000Y-40090000D02*
X123710000Y-40090000D01*
X124673000Y-40050000D02*
X123710000Y-40050000D01*
X124705000Y-40010000D02*
X123710000Y-40010000D01*
X124735000Y-39970000D02*
X123710000Y-39970000D01*
X124764000Y-39930000D02*
X123710000Y-39930000D01*
X124792000Y-39890000D02*
X123710000Y-39890000D01*
X124819000Y-39850000D02*
X123710000Y-39850000D01*
X124845000Y-39810000D02*
X123710000Y-39810000D01*
X124869000Y-39770000D02*
X123710000Y-39770000D01*
X124893000Y-39730000D02*
X123710000Y-39730000D01*
X124916000Y-39690000D02*
X123710000Y-39690000D01*
X124938000Y-39650000D02*
X123710000Y-39650000D01*
X124959000Y-39610000D02*
X123710000Y-39610000D01*
X124979000Y-39570000D02*
X123710000Y-39570000D01*
X124999000Y-39530000D02*
X123710000Y-39530000D01*
X125017000Y-39490000D02*
X123710000Y-39490000D01*
X125035000Y-39450000D02*
X123710000Y-39450000D01*
X125052000Y-39410000D02*
X123710000Y-39410000D01*
X125068000Y-39370000D02*
X123710000Y-39370000D01*
X125083000Y-39330000D02*
X123710000Y-39330000D01*
X125098000Y-39290000D02*
X123710000Y-39290000D01*
X125112000Y-39250000D02*
X123710000Y-39250000D01*
X125125000Y-39210000D02*
X123710000Y-39210000D01*
X125137000Y-39170000D02*
X123710000Y-39170000D01*
X125149000Y-39130000D02*
X123710000Y-39130000D01*
X125160000Y-39090000D02*
X123710000Y-39090000D01*
X125171000Y-39050000D02*
X123710000Y-39050000D01*
X125180000Y-39010000D02*
X123710000Y-39010000D01*
X125189000Y-38970000D02*
X123710000Y-38970000D01*
X125198000Y-38930000D02*
X123710000Y-38930000D01*
X125206000Y-38890000D02*
X123710000Y-38890000D01*
X125213000Y-38850000D02*
X123710000Y-38850000D01*
X125219000Y-38810000D02*
X123710000Y-38810000D01*
X125225000Y-38770000D02*
X123710000Y-38770000D01*
X125230000Y-38730000D02*
X123710000Y-38730000D01*
X125235000Y-38690000D02*
X123710000Y-38690000D01*
X125239000Y-38650000D02*
X123710000Y-38650000D01*
X125242000Y-38610000D02*
X120098000Y-38610000D01*
X125245000Y-38570000D02*
X120095000Y-38570000D01*
X125247000Y-38530000D02*
X120093000Y-38530000D01*
X125249000Y-38490000D02*
X120091000Y-38490000D01*
X125250000Y-38410000D02*
X120090000Y-38410000D01*
X125250000Y-38450000D02*
X120090000Y-38450000D01*
X125290000Y-38410000D02*
G75*
G02*
X120050000Y-38410000I-2620000J0D01*
G01*
X120050000Y-38410000D02*
G75*
G02*
X125290000Y-38410000I2620000J0D01*
G01*
%TO.C,C3*%
X43142918Y-41615000D02*
X44392918Y-41615000D01*
X43767918Y-40990000D02*
X43767918Y-42240000D01*
X49960000Y-38860000D02*
X49960000Y-51520000D01*
X50000000Y-38860000D02*
X50000000Y-51520000D01*
X50040000Y-38861000D02*
X50040000Y-51519000D01*
X50080000Y-38861000D02*
X50080000Y-51519000D01*
X50120000Y-38862000D02*
X50120000Y-51518000D01*
X50160000Y-38863000D02*
X50160000Y-51517000D01*
X50200000Y-38865000D02*
X50200000Y-51515000D01*
X50240000Y-38866000D02*
X50240000Y-51514000D01*
X50280000Y-38868000D02*
X50280000Y-51512000D01*
X50320000Y-38870000D02*
X50320000Y-51510000D01*
X50360000Y-38873000D02*
X50360000Y-51507000D01*
X50400000Y-38875000D02*
X50400000Y-51505000D01*
X50440000Y-38878000D02*
X50440000Y-51502000D01*
X50480000Y-38881000D02*
X50480000Y-51499000D01*
X50520000Y-38885000D02*
X50520000Y-51495000D01*
X50560000Y-38888000D02*
X50560000Y-51492000D01*
X50600000Y-38892000D02*
X50600000Y-51488000D01*
X50640000Y-38896000D02*
X50640000Y-51484000D01*
X50680000Y-38901000D02*
X50680000Y-51479000D01*
X50720000Y-38906000D02*
X50720000Y-51474000D01*
X50760000Y-38910000D02*
X50760000Y-51470000D01*
X50800000Y-38916000D02*
X50800000Y-51464000D01*
X50840000Y-38921000D02*
X50840000Y-51459000D01*
X50880000Y-38927000D02*
X50880000Y-51453000D01*
X50920000Y-38933000D02*
X50920000Y-51447000D01*
X50960000Y-38939000D02*
X50960000Y-51441000D01*
X51000000Y-38945000D02*
X51000000Y-51435000D01*
X51040000Y-38952000D02*
X51040000Y-43750000D01*
X51040000Y-46630000D02*
X51040000Y-51428000D01*
X51080000Y-38959000D02*
X51080000Y-43750000D01*
X51080000Y-46630000D02*
X51080000Y-51421000D01*
X51120000Y-38967000D02*
X51120000Y-43750000D01*
X51120000Y-46630000D02*
X51120000Y-51413000D01*
X51160000Y-38974000D02*
X51160000Y-43750000D01*
X51160000Y-46630000D02*
X51160000Y-51406000D01*
X51200000Y-38982000D02*
X51200000Y-43750000D01*
X51200000Y-46630000D02*
X51200000Y-51398000D01*
X51240000Y-38990000D02*
X51240000Y-43750000D01*
X51240000Y-46630000D02*
X51240000Y-51390000D01*
X51280000Y-38998000D02*
X51280000Y-43750000D01*
X51280000Y-46630000D02*
X51280000Y-51382000D01*
X51320000Y-39007000D02*
X51320000Y-43750000D01*
X51320000Y-46630000D02*
X51320000Y-51373000D01*
X51360000Y-39016000D02*
X51360000Y-43750000D01*
X51360000Y-46630000D02*
X51360000Y-51364000D01*
X51400000Y-39025000D02*
X51400000Y-43750000D01*
X51400000Y-46630000D02*
X51400000Y-51355000D01*
X51440000Y-39034000D02*
X51440000Y-43750000D01*
X51440000Y-46630000D02*
X51440000Y-51346000D01*
X51480000Y-39044000D02*
X51480000Y-43750000D01*
X51480000Y-46630000D02*
X51480000Y-51336000D01*
X51520000Y-39054000D02*
X51520000Y-43750000D01*
X51520000Y-46630000D02*
X51520000Y-51326000D01*
X51560000Y-39064000D02*
X51560000Y-43750000D01*
X51560000Y-46630000D02*
X51560000Y-51316000D01*
X51600000Y-39075000D02*
X51600000Y-43750000D01*
X51600000Y-46630000D02*
X51600000Y-51305000D01*
X51640000Y-39086000D02*
X51640000Y-43750000D01*
X51640000Y-46630000D02*
X51640000Y-51294000D01*
X51680000Y-39097000D02*
X51680000Y-43750000D01*
X51680000Y-46630000D02*
X51680000Y-51283000D01*
X51720000Y-39108000D02*
X51720000Y-43750000D01*
X51720000Y-46630000D02*
X51720000Y-51272000D01*
X51760000Y-39120000D02*
X51760000Y-43750000D01*
X51760000Y-46630000D02*
X51760000Y-51260000D01*
X51800000Y-39132000D02*
X51800000Y-43750000D01*
X51800000Y-46630000D02*
X51800000Y-51248000D01*
X51840000Y-39144000D02*
X51840000Y-43750000D01*
X51840000Y-46630000D02*
X51840000Y-51236000D01*
X51880000Y-39156000D02*
X51880000Y-43750000D01*
X51880000Y-46630000D02*
X51880000Y-51224000D01*
X51920000Y-39169000D02*
X51920000Y-43750000D01*
X51920000Y-46630000D02*
X51920000Y-51211000D01*
X51960000Y-39182000D02*
X51960000Y-43750000D01*
X51960000Y-46630000D02*
X51960000Y-51198000D01*
X52000000Y-39195000D02*
X52000000Y-43750000D01*
X52000000Y-46630000D02*
X52000000Y-51185000D01*
X52040000Y-39209000D02*
X52040000Y-43750000D01*
X52040000Y-46630000D02*
X52040000Y-51171000D01*
X52080000Y-39223000D02*
X52080000Y-43750000D01*
X52080000Y-46630000D02*
X52080000Y-51157000D01*
X52120000Y-39237000D02*
X52120000Y-43750000D01*
X52120000Y-46630000D02*
X52120000Y-51143000D01*
X52160000Y-39252000D02*
X52160000Y-43750000D01*
X52160000Y-46630000D02*
X52160000Y-51128000D01*
X52200000Y-39267000D02*
X52200000Y-43750000D01*
X52200000Y-46630000D02*
X52200000Y-51113000D01*
X52240000Y-39282000D02*
X52240000Y-43750000D01*
X52240000Y-46630000D02*
X52240000Y-51098000D01*
X52280000Y-39298000D02*
X52280000Y-43750000D01*
X52280000Y-46630000D02*
X52280000Y-51082000D01*
X52320000Y-39313000D02*
X52320000Y-43750000D01*
X52320000Y-46630000D02*
X52320000Y-51067000D01*
X52360000Y-39329000D02*
X52360000Y-43750000D01*
X52360000Y-46630000D02*
X52360000Y-51051000D01*
X52400000Y-39346000D02*
X52400000Y-43750000D01*
X52400000Y-46630000D02*
X52400000Y-51034000D01*
X52440000Y-39363000D02*
X52440000Y-43750000D01*
X52440000Y-46630000D02*
X52440000Y-51017000D01*
X52480000Y-39380000D02*
X52480000Y-43750000D01*
X52480000Y-46630000D02*
X52480000Y-51000000D01*
X52520000Y-39397000D02*
X52520000Y-43750000D01*
X52520000Y-46630000D02*
X52520000Y-50983000D01*
X52560000Y-39415000D02*
X52560000Y-43750000D01*
X52560000Y-46630000D02*
X52560000Y-50965000D01*
X52600000Y-39433000D02*
X52600000Y-43750000D01*
X52600000Y-46630000D02*
X52600000Y-50947000D01*
X52640000Y-39451000D02*
X52640000Y-43750000D01*
X52640000Y-46630000D02*
X52640000Y-50929000D01*
X52680000Y-39470000D02*
X52680000Y-43750000D01*
X52680000Y-46630000D02*
X52680000Y-50910000D01*
X52720000Y-39489000D02*
X52720000Y-43750000D01*
X52720000Y-46630000D02*
X52720000Y-50891000D01*
X52760000Y-39508000D02*
X52760000Y-43750000D01*
X52760000Y-46630000D02*
X52760000Y-50872000D01*
X52800000Y-39528000D02*
X52800000Y-43750000D01*
X52800000Y-46630000D02*
X52800000Y-50852000D01*
X52840000Y-39548000D02*
X52840000Y-43750000D01*
X52840000Y-46630000D02*
X52840000Y-50832000D01*
X52880000Y-39569000D02*
X52880000Y-43750000D01*
X52880000Y-46630000D02*
X52880000Y-50811000D01*
X52920000Y-39589000D02*
X52920000Y-43750000D01*
X52920000Y-46630000D02*
X52920000Y-50791000D01*
X52960000Y-39611000D02*
X52960000Y-43750000D01*
X52960000Y-46630000D02*
X52960000Y-50769000D01*
X53000000Y-39632000D02*
X53000000Y-43750000D01*
X53000000Y-46630000D02*
X53000000Y-50748000D01*
X53040000Y-39654000D02*
X53040000Y-43750000D01*
X53040000Y-46630000D02*
X53040000Y-50726000D01*
X53080000Y-39676000D02*
X53080000Y-43750000D01*
X53080000Y-46630000D02*
X53080000Y-50704000D01*
X53120000Y-39699000D02*
X53120000Y-43750000D01*
X53120000Y-46630000D02*
X53120000Y-50681000D01*
X53160000Y-39722000D02*
X53160000Y-43750000D01*
X53160000Y-46630000D02*
X53160000Y-50658000D01*
X53200000Y-39746000D02*
X53200000Y-43750000D01*
X53200000Y-46630000D02*
X53200000Y-50634000D01*
X53240000Y-39769000D02*
X53240000Y-43750000D01*
X53240000Y-46630000D02*
X53240000Y-50611000D01*
X53280000Y-39794000D02*
X53280000Y-43750000D01*
X53280000Y-46630000D02*
X53280000Y-50586000D01*
X53320000Y-39818000D02*
X53320000Y-43750000D01*
X53320000Y-46630000D02*
X53320000Y-50562000D01*
X53360000Y-39843000D02*
X53360000Y-43750000D01*
X53360000Y-46630000D02*
X53360000Y-50537000D01*
X53400000Y-39869000D02*
X53400000Y-43750000D01*
X53400000Y-46630000D02*
X53400000Y-50511000D01*
X53440000Y-39895000D02*
X53440000Y-43750000D01*
X53440000Y-46630000D02*
X53440000Y-50485000D01*
X53480000Y-39921000D02*
X53480000Y-43750000D01*
X53480000Y-46630000D02*
X53480000Y-50459000D01*
X53520000Y-39948000D02*
X53520000Y-43750000D01*
X53520000Y-46630000D02*
X53520000Y-50432000D01*
X53560000Y-39975000D02*
X53560000Y-43750000D01*
X53560000Y-46630000D02*
X53560000Y-50405000D01*
X53600000Y-40002000D02*
X53600000Y-43750000D01*
X53600000Y-46630000D02*
X53600000Y-50378000D01*
X53640000Y-40031000D02*
X53640000Y-43750000D01*
X53640000Y-46630000D02*
X53640000Y-50349000D01*
X53680000Y-40059000D02*
X53680000Y-43750000D01*
X53680000Y-46630000D02*
X53680000Y-50321000D01*
X53720000Y-40088000D02*
X53720000Y-43750000D01*
X53720000Y-46630000D02*
X53720000Y-50292000D01*
X53760000Y-40118000D02*
X53760000Y-43750000D01*
X53760000Y-46630000D02*
X53760000Y-50262000D01*
X53800000Y-40148000D02*
X53800000Y-43750000D01*
X53800000Y-46630000D02*
X53800000Y-50232000D01*
X53840000Y-40178000D02*
X53840000Y-43750000D01*
X53840000Y-46630000D02*
X53840000Y-50202000D01*
X53880000Y-40209000D02*
X53880000Y-43750000D01*
X53880000Y-46630000D02*
X53880000Y-50171000D01*
X53920000Y-40240000D02*
X53920000Y-50140000D01*
X53960000Y-40272000D02*
X53960000Y-50108000D01*
X54000000Y-40305000D02*
X54000000Y-50075000D01*
X54040000Y-40338000D02*
X54040000Y-50042000D01*
X54080000Y-40372000D02*
X54080000Y-50008000D01*
X54120000Y-40406000D02*
X54120000Y-49974000D01*
X54160000Y-40441000D02*
X54160000Y-49939000D01*
X54200000Y-40476000D02*
X54200000Y-49904000D01*
X54240000Y-40512000D02*
X54240000Y-49868000D01*
X54280000Y-40549000D02*
X54280000Y-49831000D01*
X54320000Y-40586000D02*
X54320000Y-49794000D01*
X54360000Y-40624000D02*
X54360000Y-49756000D01*
X54400000Y-40662000D02*
X54400000Y-49718000D01*
X54440000Y-40702000D02*
X54440000Y-49678000D01*
X54480000Y-40742000D02*
X54480000Y-49638000D01*
X54520000Y-40782000D02*
X54520000Y-49598000D01*
X54560000Y-40824000D02*
X54560000Y-49556000D01*
X54600000Y-40866000D02*
X54600000Y-49514000D01*
X54640000Y-40909000D02*
X54640000Y-49471000D01*
X54680000Y-40952000D02*
X54680000Y-49428000D01*
X54720000Y-40997000D02*
X54720000Y-49383000D01*
X54760000Y-41042000D02*
X54760000Y-49338000D01*
X54800000Y-41089000D02*
X54800000Y-49291000D01*
X54840000Y-41136000D02*
X54840000Y-49244000D01*
X54880000Y-41184000D02*
X54880000Y-49196000D01*
X54920000Y-41233000D02*
X54920000Y-49147000D01*
X54960000Y-41283000D02*
X54960000Y-49097000D01*
X55000000Y-41334000D02*
X55000000Y-49046000D01*
X55040000Y-41387000D02*
X55040000Y-48993000D01*
X55080000Y-41440000D02*
X55080000Y-48940000D01*
X55120000Y-41495000D02*
X55120000Y-48885000D01*
X55160000Y-41551000D02*
X55160000Y-48829000D01*
X55200000Y-41608000D02*
X55200000Y-48772000D01*
X55240000Y-41667000D02*
X55240000Y-48713000D01*
X55280000Y-41727000D02*
X55280000Y-48653000D01*
X55320000Y-41788000D02*
X55320000Y-48592000D01*
X55360000Y-41851000D02*
X55360000Y-48529000D01*
X55400000Y-41916000D02*
X55400000Y-48464000D01*
X55440000Y-41982000D02*
X55440000Y-48398000D01*
X55480000Y-42051000D02*
X55480000Y-48329000D01*
X55520000Y-42121000D02*
X55520000Y-48259000D01*
X55560000Y-42194000D02*
X55560000Y-48186000D01*
X55600000Y-42269000D02*
X55600000Y-48111000D01*
X55640000Y-42347000D02*
X55640000Y-48033000D01*
X55680000Y-42427000D02*
X55680000Y-47953000D01*
X55720000Y-42510000D02*
X55720000Y-47870000D01*
X55760000Y-42596000D02*
X55760000Y-47784000D01*
X55800000Y-42686000D02*
X55800000Y-47694000D01*
X55840000Y-42780000D02*
X55840000Y-47600000D01*
X55880000Y-42878000D02*
X55880000Y-47502000D01*
X55920000Y-42982000D02*
X55920000Y-47398000D01*
X55960000Y-43091000D02*
X55960000Y-47289000D01*
X56000000Y-43206000D02*
X56000000Y-47174000D01*
X56040000Y-43330000D02*
X56040000Y-47050000D01*
X56080000Y-43463000D02*
X56080000Y-46917000D01*
X56120000Y-43608000D02*
X56120000Y-46772000D01*
X56160000Y-43768000D02*
X56160000Y-46612000D01*
X56200000Y-43950000D02*
X56200000Y-46430000D01*
X56240000Y-44163000D02*
X56240000Y-46217000D01*
X56280000Y-44433000D02*
X56280000Y-45947000D01*
X56320000Y-44873000D02*
X56320000Y-45507000D01*
X56330000Y-45190000D02*
G75*
G02*
X43590000Y-45190000I-6370000J0D01*
G01*
X43590000Y-45190000D02*
G75*
G02*
X56330000Y-45190000I6370000J0D01*
G01*
%TO.C,C8*%
X81450000Y-43920000D02*
X84690000Y-43920000D01*
X81450000Y-44068000D02*
X81450000Y-43920000D01*
X81450000Y-46160000D02*
X81450000Y-46012000D01*
X84690000Y-43920000D02*
X84690000Y-44068000D01*
X84690000Y-46012000D02*
X84690000Y-46160000D01*
X84690000Y-46160000D02*
X81450000Y-46160000D01*
%TO.C,R4*%
X87200000Y-41330000D02*
X93740000Y-41330000D01*
X87200000Y-41660000D02*
X87200000Y-41330000D01*
X87200000Y-43740000D02*
X87200000Y-44070000D01*
X87200000Y-44070000D02*
X93740000Y-44070000D01*
X93740000Y-41330000D02*
X93740000Y-41660000D01*
X93740000Y-44070000D02*
X93740000Y-43740000D01*
%TO.C,C14*%
X121670000Y-27910000D02*
X120141000Y-27910000D01*
X121670000Y-27950000D02*
X120145000Y-27950000D01*
X121670000Y-27990000D02*
X120150000Y-27990000D01*
X121670000Y-28030000D02*
X120155000Y-28030000D01*
X121670000Y-28070000D02*
X120161000Y-28070000D01*
X121670000Y-28110000D02*
X120167000Y-28110000D01*
X121670000Y-28150000D02*
X120174000Y-28150000D01*
X121670000Y-28190000D02*
X120182000Y-28190000D01*
X121670000Y-28230000D02*
X120191000Y-28230000D01*
X121670000Y-28270000D02*
X120200000Y-28270000D01*
X121670000Y-28310000D02*
X120209000Y-28310000D01*
X121670000Y-28350000D02*
X120220000Y-28350000D01*
X121670000Y-28390000D02*
X120231000Y-28390000D01*
X121670000Y-28430000D02*
X120243000Y-28430000D01*
X121670000Y-28470000D02*
X120255000Y-28470000D01*
X121670000Y-28510000D02*
X120268000Y-28510000D01*
X121670000Y-28550000D02*
X120282000Y-28550000D01*
X121670000Y-28590000D02*
X120297000Y-28590000D01*
X121670000Y-28630000D02*
X120312000Y-28630000D01*
X121670000Y-28670000D02*
X120328000Y-28670000D01*
X121670000Y-28710000D02*
X120345000Y-28710000D01*
X121670000Y-28750000D02*
X120363000Y-28750000D01*
X121670000Y-28790000D02*
X120381000Y-28790000D01*
X121670000Y-28830000D02*
X120401000Y-28830000D01*
X121670000Y-28870000D02*
X120421000Y-28870000D01*
X121670000Y-28910000D02*
X120442000Y-28910000D01*
X121670000Y-28950000D02*
X120464000Y-28950000D01*
X121670000Y-28990000D02*
X120487000Y-28990000D01*
X121670000Y-29030000D02*
X120511000Y-29030000D01*
X121670000Y-29070000D02*
X120535000Y-29070000D01*
X121670000Y-29110000D02*
X120561000Y-29110000D01*
X121670000Y-29150000D02*
X120588000Y-29150000D01*
X121670000Y-29190000D02*
X120616000Y-29190000D01*
X121670000Y-29230000D02*
X120645000Y-29230000D01*
X121670000Y-29270000D02*
X120675000Y-29270000D01*
X121670000Y-29310000D02*
X120707000Y-29310000D01*
X121670000Y-29350000D02*
X120740000Y-29350000D01*
X121670000Y-29390000D02*
X120774000Y-29390000D01*
X121670000Y-29430000D02*
X120809000Y-29430000D01*
X121670000Y-29470000D02*
X120846000Y-29470000D01*
X121670000Y-29510000D02*
X120885000Y-29510000D01*
X121670000Y-29550000D02*
X120925000Y-29550000D01*
X121670000Y-29590000D02*
X120967000Y-29590000D01*
X121670000Y-29630000D02*
X121011000Y-29630000D01*
X121670000Y-29670000D02*
X121058000Y-29670000D01*
X121670000Y-29710000D02*
X121106000Y-29710000D01*
X121670000Y-29750000D02*
X121157000Y-29750000D01*
X121670000Y-29790000D02*
X121211000Y-29790000D01*
X121670000Y-29830000D02*
X121267000Y-29830000D01*
X121670000Y-29870000D02*
X121327000Y-29870000D01*
X121670000Y-29910000D02*
X121391000Y-29910000D01*
X121670000Y-29950000D02*
X121459000Y-29950000D01*
X122993000Y-30270000D02*
X122427000Y-30270000D01*
X123227000Y-30230000D02*
X122193000Y-30230000D01*
X123387000Y-30190000D02*
X122033000Y-30190000D01*
X123515000Y-30150000D02*
X121905000Y-30150000D01*
X123624000Y-30110000D02*
X121796000Y-30110000D01*
X123721000Y-30070000D02*
X121699000Y-30070000D01*
X123808000Y-30030000D02*
X121612000Y-30030000D01*
X123887000Y-29990000D02*
X121533000Y-29990000D01*
X123961000Y-29950000D02*
X123750000Y-29950000D01*
X124029000Y-29910000D02*
X123750000Y-29910000D01*
X124093000Y-29870000D02*
X123750000Y-29870000D01*
X124153000Y-29830000D02*
X123750000Y-29830000D01*
X124185000Y-24865225D02*
X124185000Y-25365225D01*
X124209000Y-29790000D02*
X123750000Y-29790000D01*
X124263000Y-29750000D02*
X123750000Y-29750000D01*
X124314000Y-29710000D02*
X123750000Y-29710000D01*
X124362000Y-29670000D02*
X123750000Y-29670000D01*
X124409000Y-29630000D02*
X123750000Y-29630000D01*
X124435000Y-25115225D02*
X123935000Y-25115225D01*
X124453000Y-29590000D02*
X123750000Y-29590000D01*
X124495000Y-29550000D02*
X123750000Y-29550000D01*
X124535000Y-29510000D02*
X123750000Y-29510000D01*
X124574000Y-29470000D02*
X123750000Y-29470000D01*
X124611000Y-29430000D02*
X123750000Y-29430000D01*
X124646000Y-29390000D02*
X123750000Y-29390000D01*
X124680000Y-29350000D02*
X123750000Y-29350000D01*
X124713000Y-29310000D02*
X123750000Y-29310000D01*
X124745000Y-29270000D02*
X123750000Y-29270000D01*
X124775000Y-29230000D02*
X123750000Y-29230000D01*
X124804000Y-29190000D02*
X123750000Y-29190000D01*
X124832000Y-29150000D02*
X123750000Y-29150000D01*
X124859000Y-29110000D02*
X123750000Y-29110000D01*
X124885000Y-29070000D02*
X123750000Y-29070000D01*
X124909000Y-29030000D02*
X123750000Y-29030000D01*
X124933000Y-28990000D02*
X123750000Y-28990000D01*
X124956000Y-28950000D02*
X123750000Y-28950000D01*
X124978000Y-28910000D02*
X123750000Y-28910000D01*
X124999000Y-28870000D02*
X123750000Y-28870000D01*
X125019000Y-28830000D02*
X123750000Y-28830000D01*
X125039000Y-28790000D02*
X123750000Y-28790000D01*
X125057000Y-28750000D02*
X123750000Y-28750000D01*
X125075000Y-28710000D02*
X123750000Y-28710000D01*
X125092000Y-28670000D02*
X123750000Y-28670000D01*
X125108000Y-28630000D02*
X123750000Y-28630000D01*
X125123000Y-28590000D02*
X123750000Y-28590000D01*
X125138000Y-28550000D02*
X123750000Y-28550000D01*
X125152000Y-28510000D02*
X123750000Y-28510000D01*
X125165000Y-28470000D02*
X123750000Y-28470000D01*
X125177000Y-28430000D02*
X123750000Y-28430000D01*
X125189000Y-28390000D02*
X123750000Y-28390000D01*
X125200000Y-28350000D02*
X123750000Y-28350000D01*
X125211000Y-28310000D02*
X123750000Y-28310000D01*
X125220000Y-28270000D02*
X123750000Y-28270000D01*
X125229000Y-28230000D02*
X123750000Y-28230000D01*
X125238000Y-28190000D02*
X123750000Y-28190000D01*
X125246000Y-28150000D02*
X123750000Y-28150000D01*
X125253000Y-28110000D02*
X123750000Y-28110000D01*
X125259000Y-28070000D02*
X123750000Y-28070000D01*
X125265000Y-28030000D02*
X123750000Y-28030000D01*
X125270000Y-27990000D02*
X123750000Y-27990000D01*
X125275000Y-27950000D02*
X123750000Y-27950000D01*
X125279000Y-27910000D02*
X123750000Y-27910000D01*
X125282000Y-27870000D02*
X120138000Y-27870000D01*
X125285000Y-27830000D02*
X120135000Y-27830000D01*
X125287000Y-27790000D02*
X120133000Y-27790000D01*
X125289000Y-27750000D02*
X120131000Y-27750000D01*
X125290000Y-27670000D02*
X120130000Y-27670000D01*
X125290000Y-27710000D02*
X120130000Y-27710000D01*
X125330000Y-27670000D02*
G75*
G02*
X120090000Y-27670000I-2620000J0D01*
G01*
X120090000Y-27670000D02*
G75*
G02*
X125330000Y-27670000I2620000J0D01*
G01*
%TO.C,IC1*%
X29490000Y-25430000D02*
X39710000Y-25430000D01*
X29490000Y-26810000D02*
X39710000Y-26810000D01*
X29490000Y-30050000D02*
X29490000Y-25430000D01*
X32750000Y-25430000D02*
X32750000Y-26810000D01*
X36450000Y-25430000D02*
X36450000Y-26810000D01*
X39710000Y-25430000D02*
X39710000Y-30050000D01*
X39710000Y-30050000D02*
X29490000Y-30050000D01*
%TO.C,F4*%
X84010000Y-74220000D02*
X91010000Y-74220000D01*
X91010000Y-104320000D01*
X84010000Y-104320000D01*
X84010000Y-74220000D01*
%TO.C,C11*%
X79060354Y-27385000D02*
X80060354Y-27385000D01*
X79560354Y-26885000D02*
X79560354Y-27885000D01*
X84540000Y-25180000D02*
X84540000Y-35340000D01*
X84580000Y-25180000D02*
X84580000Y-35340000D01*
X84620000Y-25181000D02*
X84620000Y-35339000D01*
X84660000Y-25181000D02*
X84660000Y-35339000D01*
X84700000Y-25183000D02*
X84700000Y-35337000D01*
X84740000Y-25184000D02*
X84740000Y-35336000D01*
X84780000Y-25186000D02*
X84780000Y-35334000D01*
X84820000Y-25188000D02*
X84820000Y-35332000D01*
X84860000Y-25190000D02*
X84860000Y-35330000D01*
X84900000Y-25193000D02*
X84900000Y-35327000D01*
X84940000Y-25196000D02*
X84940000Y-35324000D01*
X84980000Y-25199000D02*
X84980000Y-35321000D01*
X85020000Y-25203000D02*
X85020000Y-35317000D01*
X85060000Y-25206000D02*
X85060000Y-35314000D01*
X85100000Y-25211000D02*
X85100000Y-35309000D01*
X85140000Y-25215000D02*
X85140000Y-35305000D01*
X85180000Y-25220000D02*
X85180000Y-35300000D01*
X85220000Y-25225000D02*
X85220000Y-35295000D01*
X85260000Y-25231000D02*
X85260000Y-35289000D01*
X85300000Y-25237000D02*
X85300000Y-35283000D01*
X85340000Y-25243000D02*
X85340000Y-35277000D01*
X85380000Y-25249000D02*
X85380000Y-35271000D01*
X85420000Y-25256000D02*
X85420000Y-35264000D01*
X85460000Y-25263000D02*
X85460000Y-35257000D01*
X85500000Y-25271000D02*
X85500000Y-35249000D01*
X85540000Y-25279000D02*
X85540000Y-35241000D01*
X85580000Y-25287000D02*
X85580000Y-35233000D01*
X85620000Y-25295000D02*
X85620000Y-35225000D01*
X85660000Y-25304000D02*
X85660000Y-35216000D01*
X85700000Y-25313000D02*
X85700000Y-35207000D01*
X85740000Y-25323000D02*
X85740000Y-35197000D01*
X85780000Y-25332000D02*
X85780000Y-35188000D01*
X85820000Y-25343000D02*
X85820000Y-29020000D01*
X85820000Y-31500000D02*
X85820000Y-35177000D01*
X85860000Y-25353000D02*
X85860000Y-29020000D01*
X85860000Y-31500000D02*
X85860000Y-35167000D01*
X85900000Y-25364000D02*
X85900000Y-29020000D01*
X85900000Y-31500000D02*
X85900000Y-35156000D01*
X85940000Y-25375000D02*
X85940000Y-29020000D01*
X85940000Y-31500000D02*
X85940000Y-35145000D01*
X85980000Y-25387000D02*
X85980000Y-29020000D01*
X85980000Y-31500000D02*
X85980000Y-35133000D01*
X86020000Y-25399000D02*
X86020000Y-29020000D01*
X86020000Y-31500000D02*
X86020000Y-35121000D01*
X86060000Y-25411000D02*
X86060000Y-29020000D01*
X86060000Y-31500000D02*
X86060000Y-35109000D01*
X86100000Y-25423000D02*
X86100000Y-29020000D01*
X86100000Y-31500000D02*
X86100000Y-35097000D01*
X86140000Y-25436000D02*
X86140000Y-29020000D01*
X86140000Y-31500000D02*
X86140000Y-35084000D01*
X86180000Y-25450000D02*
X86180000Y-29020000D01*
X86180000Y-31500000D02*
X86180000Y-35070000D01*
X86220000Y-25463000D02*
X86220000Y-29020000D01*
X86220000Y-31500000D02*
X86220000Y-35057000D01*
X86260000Y-25478000D02*
X86260000Y-29020000D01*
X86260000Y-31500000D02*
X86260000Y-35042000D01*
X86300000Y-25492000D02*
X86300000Y-29020000D01*
X86300000Y-31500000D02*
X86300000Y-35028000D01*
X86340000Y-25507000D02*
X86340000Y-29020000D01*
X86340000Y-31500000D02*
X86340000Y-35013000D01*
X86380000Y-25522000D02*
X86380000Y-29020000D01*
X86380000Y-31500000D02*
X86380000Y-34998000D01*
X86420000Y-25538000D02*
X86420000Y-29020000D01*
X86420000Y-31500000D02*
X86420000Y-34982000D01*
X86460000Y-25554000D02*
X86460000Y-29020000D01*
X86460000Y-31500000D02*
X86460000Y-34966000D01*
X86500000Y-25570000D02*
X86500000Y-29020000D01*
X86500000Y-31500000D02*
X86500000Y-34950000D01*
X86540000Y-25587000D02*
X86540000Y-29020000D01*
X86540000Y-31500000D02*
X86540000Y-34933000D01*
X86580000Y-25604000D02*
X86580000Y-29020000D01*
X86580000Y-31500000D02*
X86580000Y-34916000D01*
X86620000Y-25622000D02*
X86620000Y-29020000D01*
X86620000Y-31500000D02*
X86620000Y-34898000D01*
X86660000Y-25640000D02*
X86660000Y-29020000D01*
X86660000Y-31500000D02*
X86660000Y-34880000D01*
X86700000Y-25658000D02*
X86700000Y-29020000D01*
X86700000Y-31500000D02*
X86700000Y-34862000D01*
X86740000Y-25677000D02*
X86740000Y-29020000D01*
X86740000Y-31500000D02*
X86740000Y-34843000D01*
X86780000Y-25696000D02*
X86780000Y-29020000D01*
X86780000Y-31500000D02*
X86780000Y-34824000D01*
X86820000Y-25716000D02*
X86820000Y-29020000D01*
X86820000Y-31500000D02*
X86820000Y-34804000D01*
X86860000Y-25736000D02*
X86860000Y-29020000D01*
X86860000Y-31500000D02*
X86860000Y-34784000D01*
X86900000Y-25756000D02*
X86900000Y-29020000D01*
X86900000Y-31500000D02*
X86900000Y-34764000D01*
X86940000Y-25777000D02*
X86940000Y-29020000D01*
X86940000Y-31500000D02*
X86940000Y-34743000D01*
X86980000Y-25799000D02*
X86980000Y-29020000D01*
X86980000Y-31500000D02*
X86980000Y-34721000D01*
X87020000Y-25821000D02*
X87020000Y-29020000D01*
X87020000Y-31500000D02*
X87020000Y-34699000D01*
X87060000Y-25843000D02*
X87060000Y-29020000D01*
X87060000Y-31500000D02*
X87060000Y-34677000D01*
X87100000Y-25866000D02*
X87100000Y-29020000D01*
X87100000Y-31500000D02*
X87100000Y-34654000D01*
X87140000Y-25889000D02*
X87140000Y-29020000D01*
X87140000Y-31500000D02*
X87140000Y-34631000D01*
X87180000Y-25913000D02*
X87180000Y-29020000D01*
X87180000Y-31500000D02*
X87180000Y-34607000D01*
X87220000Y-25937000D02*
X87220000Y-29020000D01*
X87220000Y-31500000D02*
X87220000Y-34583000D01*
X87260000Y-25962000D02*
X87260000Y-29020000D01*
X87260000Y-31500000D02*
X87260000Y-34558000D01*
X87300000Y-25988000D02*
X87300000Y-29020000D01*
X87300000Y-31500000D02*
X87300000Y-34532000D01*
X87340000Y-26013000D02*
X87340000Y-29020000D01*
X87340000Y-31500000D02*
X87340000Y-34507000D01*
X87380000Y-26040000D02*
X87380000Y-29020000D01*
X87380000Y-31500000D02*
X87380000Y-34480000D01*
X87420000Y-26067000D02*
X87420000Y-29020000D01*
X87420000Y-31500000D02*
X87420000Y-34453000D01*
X87460000Y-26094000D02*
X87460000Y-29020000D01*
X87460000Y-31500000D02*
X87460000Y-34426000D01*
X87500000Y-26122000D02*
X87500000Y-29020000D01*
X87500000Y-31500000D02*
X87500000Y-34398000D01*
X87540000Y-26151000D02*
X87540000Y-29020000D01*
X87540000Y-31500000D02*
X87540000Y-34369000D01*
X87580000Y-26180000D02*
X87580000Y-29020000D01*
X87580000Y-31500000D02*
X87580000Y-34340000D01*
X87620000Y-26210000D02*
X87620000Y-29020000D01*
X87620000Y-31500000D02*
X87620000Y-34310000D01*
X87660000Y-26240000D02*
X87660000Y-29020000D01*
X87660000Y-31500000D02*
X87660000Y-34280000D01*
X87700000Y-26272000D02*
X87700000Y-29020000D01*
X87700000Y-31500000D02*
X87700000Y-34248000D01*
X87740000Y-26303000D02*
X87740000Y-29020000D01*
X87740000Y-31500000D02*
X87740000Y-34217000D01*
X87780000Y-26336000D02*
X87780000Y-29020000D01*
X87780000Y-31500000D02*
X87780000Y-34184000D01*
X87820000Y-26369000D02*
X87820000Y-29020000D01*
X87820000Y-31500000D02*
X87820000Y-34151000D01*
X87860000Y-26402000D02*
X87860000Y-29020000D01*
X87860000Y-31500000D02*
X87860000Y-34118000D01*
X87900000Y-26437000D02*
X87900000Y-29020000D01*
X87900000Y-31500000D02*
X87900000Y-34083000D01*
X87940000Y-26472000D02*
X87940000Y-29020000D01*
X87940000Y-31500000D02*
X87940000Y-34048000D01*
X87980000Y-26508000D02*
X87980000Y-29020000D01*
X87980000Y-31500000D02*
X87980000Y-34012000D01*
X88020000Y-26544000D02*
X88020000Y-29020000D01*
X88020000Y-31500000D02*
X88020000Y-33976000D01*
X88060000Y-26582000D02*
X88060000Y-29020000D01*
X88060000Y-31500000D02*
X88060000Y-33938000D01*
X88100000Y-26620000D02*
X88100000Y-29020000D01*
X88100000Y-31500000D02*
X88100000Y-33900000D01*
X88140000Y-26659000D02*
X88140000Y-29020000D01*
X88140000Y-31500000D02*
X88140000Y-33861000D01*
X88180000Y-26699000D02*
X88180000Y-29020000D01*
X88180000Y-31500000D02*
X88180000Y-33821000D01*
X88220000Y-26740000D02*
X88220000Y-29020000D01*
X88220000Y-31500000D02*
X88220000Y-33780000D01*
X88260000Y-26782000D02*
X88260000Y-29020000D01*
X88260000Y-31500000D02*
X88260000Y-33738000D01*
X88300000Y-26825000D02*
X88300000Y-33695000D01*
X88340000Y-26869000D02*
X88340000Y-33651000D01*
X88380000Y-26913000D02*
X88380000Y-33607000D01*
X88420000Y-26959000D02*
X88420000Y-33561000D01*
X88460000Y-27006000D02*
X88460000Y-33514000D01*
X88500000Y-27055000D02*
X88500000Y-33465000D01*
X88540000Y-27104000D02*
X88540000Y-33416000D01*
X88580000Y-27155000D02*
X88580000Y-33365000D01*
X88620000Y-27207000D02*
X88620000Y-33313000D01*
X88660000Y-27260000D02*
X88660000Y-33260000D01*
X88700000Y-27315000D02*
X88700000Y-33205000D01*
X88740000Y-27372000D02*
X88740000Y-33148000D01*
X88780000Y-27430000D02*
X88780000Y-33090000D01*
X88820000Y-27490000D02*
X88820000Y-33030000D01*
X88860000Y-27552000D02*
X88860000Y-32968000D01*
X88900000Y-27616000D02*
X88900000Y-32904000D01*
X88940000Y-27682000D02*
X88940000Y-32838000D01*
X88980000Y-27750000D02*
X88980000Y-32770000D01*
X89020000Y-27821000D02*
X89020000Y-32699000D01*
X89060000Y-27895000D02*
X89060000Y-32625000D01*
X89100000Y-27972000D02*
X89100000Y-32548000D01*
X89140000Y-28052000D02*
X89140000Y-32468000D01*
X89180000Y-28136000D02*
X89180000Y-32384000D01*
X89220000Y-28223000D02*
X89220000Y-32297000D01*
X89260000Y-28316000D02*
X89260000Y-32204000D01*
X89300000Y-28414000D02*
X89300000Y-32106000D01*
X89340000Y-28518000D02*
X89340000Y-32002000D01*
X89380000Y-28630000D02*
X89380000Y-31890000D01*
X89420000Y-28751000D02*
X89420000Y-31769000D01*
X89460000Y-28883000D02*
X89460000Y-31637000D01*
X89500000Y-29030000D02*
X89500000Y-31490000D01*
X89540000Y-29198000D02*
X89540000Y-31322000D01*
X89580000Y-29398000D02*
X89580000Y-31122000D01*
X89620000Y-29661000D02*
X89620000Y-30859000D01*
X89660000Y-30260000D02*
G75*
G02*
X79420000Y-30260000I-5120000J0D01*
G01*
X79420000Y-30260000D02*
G75*
G02*
X89660000Y-30260000I5120000J0D01*
G01*
%TO.C,F2*%
X49270000Y-74620000D02*
X56270000Y-74620000D01*
X56270000Y-104720000D01*
X49270000Y-104720000D01*
X49270000Y-74620000D01*
%TO.C,R6*%
X93020000Y-29640000D02*
X93350000Y-29640000D01*
X93020000Y-36180000D02*
X93020000Y-29640000D01*
X93350000Y-36180000D02*
X93020000Y-36180000D01*
X95430000Y-36180000D02*
X95760000Y-36180000D01*
X95760000Y-29640000D02*
X95430000Y-29640000D01*
X95760000Y-36180000D02*
X95760000Y-29640000D01*
%TD*%
M02*
