%TF.GenerationSoftware,KiCad,Pcbnew,10.0.2*%
%TF.CreationDate,2026-10-07T09:46:00+02:00*%
%TF.ProjectId,TR-808PSU_Rev0.1,54522d38-3038-4505-9355-5f526576302e,rev?*%
%TF.SameCoordinates,Original*%
%TF.FileFunction,Soldermask,Bot*%
%TF.FilePolarity,Negative*%
%FSLAX46Y46*%
G04 Gerber Fmt 4.6, Leading zero omitted, Abs format (unit mm)*
G04 Created by KiCad (PCBNEW 10.0.2) date 2026-10-07 09:46:00*
%MOMM*%
%LPD*%
G01*
G04 APERTURE LIST*
G04 Aperture macros list*
%AMRoundRect*
0 Rectangle with rounded corners*
0 $1 Rounding radius*
0 $2 $3 $4 $5 $6 $7 $8 $9 X,Y pos of 4 corners*
0 Add a 4 corners polygon primitive as box body*
4,1,4,$2,$3,$4,$5,$6,$7,$8,$9,$2,$3,0*
0 Add four circle primitives for the rounded corners*
1,1,$1+$1,$2,$3*
1,1,$1+$1,$4,$5*
1,1,$1+$1,$6,$7*
1,1,$1+$1,$8,$9*
0 Add four rect primitives between the rounded corners*
20,1,$1+$1,$2,$3,$4,$5,0*
20,1,$1+$1,$4,$5,$6,$7,0*
20,1,$1+$1,$6,$7,$8,$9,0*
20,1,$1+$1,$8,$9,$2,$3,0*%
G04 Aperture macros list end*
%ADD10C,1.600000*%
%ADD11RoundRect,0.850000X-1.350000X-0.850000X1.350000X-0.850000X1.350000X0.850000X-1.350000X0.850000X0*%
%ADD12C,3.200000*%
%ADD13C,2.000000*%
%ADD14RoundRect,0.250001X-0.949999X0.949999X-0.949999X-0.949999X0.949999X-0.949999X0.949999X0.949999X0*%
%ADD15C,2.400000*%
%ADD16R,1.905000X2.000000*%
%ADD17O,1.905000X2.000000*%
%ADD18RoundRect,0.250000X-0.750000X-0.750000X0.750000X-0.750000X0.750000X0.750000X-0.750000X0.750000X0*%
%ADD19O,4.000000X5.000000*%
%ADD20RoundRect,0.250000X-0.550000X0.550000X-0.550000X-0.550000X0.550000X-0.550000X0.550000X0.550000X0*%
%ADD21RoundRect,0.250001X-0.949999X-0.949999X0.949999X-0.949999X0.949999X0.949999X-0.949999X0.949999X0*%
%ADD22R,2.000000X2.000000*%
%ADD23O,2.000000X2.000000*%
%ADD24RoundRect,0.250000X-0.550000X-0.550000X0.550000X-0.550000X0.550000X0.550000X-0.550000X0.550000X0*%
G04 APERTURE END LIST*
D10*
%TO.C,R5*%
X92830000Y-57290000D03*
X92830000Y-47130000D03*
%TD*%
D11*
%TO.C,P12*%
X57070000Y-110980000D03*
%TD*%
D12*
%TO.C,H1*%
X9250000Y-9790000D03*
%TD*%
D11*
%TO.C,P2*%
X7780000Y-34980000D03*
%TD*%
D13*
%TO.C,C5*%
X68570000Y-38520000D03*
X76070000Y-38520000D03*
%TD*%
D14*
%TO.C,C13*%
X108470000Y-55310000D03*
D15*
X108470000Y-62810000D03*
%TD*%
D16*
%TO.C,Q2*%
X105300000Y-27290000D03*
D17*
X107840000Y-27290000D03*
X110380000Y-27290000D03*
%TD*%
D15*
%TO.C,C1*%
X23740000Y-65660000D03*
X23740000Y-43160000D03*
%TD*%
D18*
%TO.C,C11*%
X82040000Y-30260000D03*
D13*
X87040000Y-30260000D03*
%TD*%
D19*
%TO.C,F2*%
X52770000Y-77420000D03*
X52770000Y-99920000D03*
%TD*%
D11*
%TO.C,P9*%
X22200000Y-110980000D03*
%TD*%
D13*
%TO.C,C6*%
X81980000Y-38120000D03*
X89480000Y-38120000D03*
%TD*%
D10*
%TO.C,R7*%
X52750000Y-26440000D03*
X62910000Y-26440000D03*
%TD*%
D19*
%TO.C,F1*%
X23940000Y-77420000D03*
X23940000Y-99920000D03*
%TD*%
D11*
%TO.C,P8*%
X7780000Y-96560000D03*
%TD*%
%TO.C,P4*%
X7780000Y-53750000D03*
%TD*%
D19*
%TO.C,F3*%
X69900000Y-77420000D03*
X69900000Y-99920000D03*
%TD*%
D11*
%TO.C,P11*%
X46510000Y-110980000D03*
%TD*%
D10*
%TO.C,C7*%
X74170000Y-46840000D03*
X79170000Y-46840000D03*
%TD*%
%TO.C,R1*%
X99870000Y-70160000D03*
X99870000Y-62540000D03*
%TD*%
%TO.C,R2*%
X68400000Y-56110000D03*
X68400000Y-45950000D03*
%TD*%
D12*
%TO.C,H2*%
X131920000Y-9520000D03*
%TD*%
D11*
%TO.C,P19*%
X131920000Y-53370000D03*
%TD*%
%TO.C,P18*%
X131920000Y-63270000D03*
%TD*%
D12*
%TO.C,H8*%
X82310000Y-14420000D03*
%TD*%
D11*
%TO.C,P22*%
X131920000Y-22300000D03*
%TD*%
D12*
%TO.C,H3*%
X9680000Y-109130000D03*
%TD*%
%TO.C,H10*%
X118480000Y-14310000D03*
%TD*%
D10*
%TO.C,R6*%
X94390000Y-36720000D03*
X94390000Y-29100000D03*
%TD*%
D11*
%TO.C,P6*%
X7780000Y-77680000D03*
%TD*%
%TO.C,P10*%
X35960000Y-110980000D03*
%TD*%
D13*
%TO.C,C4*%
X43870000Y-56250000D03*
X51370000Y-56250000D03*
%TD*%
D20*
%TO.C,D3*%
X120570000Y-85710000D03*
D10*
X120570000Y-95870000D03*
%TD*%
D11*
%TO.C,P7*%
X7780000Y-84320000D03*
%TD*%
D16*
%TO.C,IC1*%
X32060000Y-28690000D03*
D17*
X34600000Y-28690000D03*
X37140000Y-28690000D03*
%TD*%
D14*
%TO.C,C12*%
X107510000Y-35150000D03*
D15*
X107510000Y-42650000D03*
%TD*%
D11*
%TO.C,P3*%
X7780000Y-46570000D03*
%TD*%
D12*
%TO.C,H7*%
X59680000Y-14140000D03*
%TD*%
%TO.C,H4*%
X131650000Y-108470000D03*
%TD*%
D21*
%TO.C,C3*%
X47460000Y-45190000D03*
D15*
X52460000Y-45190000D03*
%TD*%
D10*
%TO.C,R3*%
X69110000Y-42500000D03*
X79270000Y-42500000D03*
%TD*%
D11*
%TO.C,P16*%
X131920000Y-86220000D03*
%TD*%
%TO.C,P20*%
X131920000Y-41340000D03*
%TD*%
D10*
%TO.C,C8*%
X81820000Y-45040000D03*
X84320000Y-45040000D03*
%TD*%
D19*
%TO.C,F4*%
X87310000Y-77420000D03*
X87310000Y-99920000D03*
%TD*%
D11*
%TO.C,P5*%
X7780000Y-65610000D03*
%TD*%
D12*
%TO.C,H9*%
X95360000Y-14310000D03*
%TD*%
D11*
%TO.C,P21*%
X131920000Y-31770000D03*
%TD*%
D10*
%TO.C,R4*%
X81580000Y-42500000D03*
X91740000Y-42500000D03*
%TD*%
D20*
%TO.C,C14*%
X122710000Y-26420000D03*
D10*
X122710000Y-28920000D03*
%TD*%
D22*
%TO.C,D2*%
X63810000Y-65050000D03*
D23*
X63810000Y-70130000D03*
X68890000Y-70130000D03*
X68890000Y-65050000D03*
%TD*%
D11*
%TO.C,P15*%
X131920000Y-95530000D03*
%TD*%
D12*
%TO.C,H5*%
X22300000Y-14420000D03*
%TD*%
D13*
%TO.C,C9*%
X92700000Y-69660000D03*
X92700000Y-62160000D03*
%TD*%
D20*
%TO.C,C16*%
X122270000Y-56920000D03*
D10*
X122270000Y-59420000D03*
%TD*%
D13*
%TO.C,C2*%
X38520000Y-32440000D03*
X48520000Y-32440000D03*
%TD*%
D20*
%TO.C,C15*%
X122670000Y-37160000D03*
D10*
X122670000Y-39660000D03*
%TD*%
D13*
%TO.C,C10*%
X74240000Y-69570000D03*
X74240000Y-62070000D03*
%TD*%
D11*
%TO.C,P14*%
X78340000Y-110980000D03*
%TD*%
D24*
%TO.C,IC2*%
X80040000Y-51150000D03*
D10*
X80040000Y-53690000D03*
X80040000Y-56230000D03*
X80040000Y-58770000D03*
X80040000Y-61310000D03*
X80040000Y-63850000D03*
X80040000Y-66390000D03*
X87660000Y-66390000D03*
X87660000Y-63850000D03*
X87660000Y-61310000D03*
X87660000Y-58770000D03*
X87660000Y-56230000D03*
X87660000Y-53690000D03*
X87660000Y-51150000D03*
%TD*%
D12*
%TO.C,H6*%
X46780000Y-14420000D03*
%TD*%
D20*
%TO.C,D4*%
X125160000Y-85310000D03*
D10*
X125160000Y-95470000D03*
%TD*%
D11*
%TO.C,P13*%
X67950000Y-110980000D03*
%TD*%
D22*
%TO.C,D1*%
X42880000Y-62650000D03*
D23*
X42880000Y-67730000D03*
X47960000Y-67730000D03*
X47960000Y-62650000D03*
%TD*%
D11*
%TO.C,P17*%
X131920000Y-72790000D03*
%TD*%
%TO.C,P1*%
X7780000Y-27960000D03*
%TD*%
D16*
%TO.C,Q1*%
X68890000Y-26490000D03*
D17*
X71430000Y-26490000D03*
X73970000Y-26490000D03*
%TD*%
M02*
