%TF.GenerationSoftware,KiCad,Pcbnew,10.0.2*%
%TF.CreationDate,2026-10-07T00:43:38+02:00*%
%TF.ProjectId,TR-808PSU_Rev0.1,54522d38-3038-4505-9355-5f526576302e,rev?*%
%TF.SameCoordinates,Original*%
%TF.FileFunction,Copper,L1,Top*%
%TF.FilePolarity,Positive*%
%FSLAX46Y46*%
G04 Gerber Fmt 4.6, Leading zero omitted, Abs format (unit mm)*
G04 Created by KiCad (PCBNEW 10.0.2) date 2026-10-07 00:43:38*
%MOMM*%
%LPD*%
G01*
G04 APERTURE LIST*
G04 Aperture macros list*
%AMRoundRect*
0 Rectangle with rounded corners*
0 $1 Rounding radius*
0 $2 $3 $4 $5 $6 $7 $8 $9 X,Y pos of 4 corners*
0 Add a 4 corners polygon primitive as box body*
4,1,4,$2,$3,$4,$5,$6,$7,$8,$9,$2,$3,0*
0 Add four circle primitives for the rounded corners*
1,1,$1+$1,$2,$3*
1,1,$1+$1,$4,$5*
1,1,$1+$1,$6,$7*
1,1,$1+$1,$8,$9*
0 Add four rect primitives between the rounded corners*
20,1,$1+$1,$2,$3,$4,$5,0*
20,1,$1+$1,$4,$5,$6,$7,0*
20,1,$1+$1,$6,$7,$8,$9,0*
20,1,$1+$1,$8,$9,$2,$3,0*%
G04 Aperture macros list end*
%TA.AperFunction,ComponentPad*%
%ADD10O,4.000000X5.000000*%
%TD*%
%TA.AperFunction,ComponentPad*%
%ADD11RoundRect,0.850000X-1.350000X-0.850000X1.350000X-0.850000X1.350000X0.850000X-1.350000X0.850000X0*%
%TD*%
%TA.AperFunction,ComponentPad*%
%ADD12C,1.600000*%
%TD*%
%TA.AperFunction,ComponentPad*%
%ADD13R,2.000000X2.000000*%
%TD*%
%TA.AperFunction,ComponentPad*%
%ADD14O,2.000000X2.000000*%
%TD*%
%TA.AperFunction,ComponentPad*%
%ADD15C,2.000000*%
%TD*%
%TA.AperFunction,ComponentPad*%
%ADD16RoundRect,0.250000X-0.550000X0.550000X-0.550000X-0.550000X0.550000X-0.550000X0.550000X0.550000X0*%
%TD*%
%TA.AperFunction,ComponentPad*%
%ADD17RoundRect,0.250000X-0.550000X-0.550000X0.550000X-0.550000X0.550000X0.550000X-0.550000X0.550000X0*%
%TD*%
%TA.AperFunction,ComponentPad*%
%ADD18R,1.905000X2.000000*%
%TD*%
%TA.AperFunction,ComponentPad*%
%ADD19O,1.905000X2.000000*%
%TD*%
%TA.AperFunction,ComponentPad*%
%ADD20C,2.400000*%
%TD*%
%TA.AperFunction,ComponentPad*%
%ADD21RoundRect,0.250001X-0.949999X0.949999X-0.949999X-0.949999X0.949999X-0.949999X0.949999X0.949999X0*%
%TD*%
%TA.AperFunction,ComponentPad*%
%ADD22RoundRect,0.250001X-0.949999X-0.949999X0.949999X-0.949999X0.949999X0.949999X-0.949999X0.949999X0*%
%TD*%
%TA.AperFunction,ComponentPad*%
%ADD23RoundRect,0.250000X-0.750000X-0.750000X0.750000X-0.750000X0.750000X0.750000X-0.750000X0.750000X0*%
%TD*%
%TA.AperFunction,ViaPad*%
%ADD24C,0.600000*%
%TD*%
%TA.AperFunction,Conductor*%
%ADD25C,1.000000*%
%TD*%
%TA.AperFunction,Conductor*%
%ADD26C,0.300000*%
%TD*%
G04 APERTURE END LIST*
D10*
%TO.P,F1,1*%
%TO.N,/SW_A*%
X23940000Y-76020000D03*
%TO.P,F1,2*%
%TO.N,/PRI_8*%
X23940000Y-98520000D03*
%TD*%
D11*
%TO.P,P9,1*%
%TO.N,Net-(P9-Pad1)*%
X22200000Y-110980000D03*
%TD*%
D10*
%TO.P,F3,1*%
%TO.N,/AC15_RAW_A*%
X70300000Y-77820000D03*
%TO.P,F3,2*%
%TO.N,/AC15_A*%
X70300000Y-100320000D03*
%TD*%
D12*
%TO.P,R1,1*%
%TO.N,/VB2*%
X97870000Y-68760000D03*
%TO.P,R1,2*%
%TO.N,/RAW15N*%
X97870000Y-61140000D03*
%TD*%
%TO.P,R7,1*%
%TO.N,/RAW15P*%
X53220000Y-26440000D03*
%TO.P,R7,2*%
%TO.N,/VB1*%
X60840000Y-26440000D03*
%TD*%
D13*
%TO.P,D2,1*%
%TO.N,/RAW15P*%
X63810000Y-65050000D03*
D14*
%TO.P,D2,2*%
%TO.N,/AC15_A*%
X63810000Y-70130000D03*
%TO.P,D2,3*%
%TO.N,/RAW15N*%
X68890000Y-70130000D03*
%TO.P,D2,4*%
%TO.N,/AC15_B*%
X68890000Y-65050000D03*
%TD*%
D15*
%TO.P,C9,1*%
%TO.N,/GND15*%
X92700000Y-69660000D03*
%TO.P,C9,2*%
%TO.N,/VB2*%
X92700000Y-62160000D03*
%TD*%
D12*
%TO.P,R5,1*%
%TO.N,/COL2*%
X93030000Y-57220000D03*
%TO.P,R5,2*%
%TO.N,/-15V*%
X93030000Y-49600000D03*
%TD*%
%TO.P,R3,1*%
%TO.N,/+15V*%
X69180000Y-42700000D03*
%TO.P,R3,2*%
%TO.N,/ADJ*%
X76800000Y-42700000D03*
%TD*%
D15*
%TO.P,C5,1*%
%TO.N,/+15V*%
X68570000Y-38520000D03*
%TO.P,C5,2*%
%TO.N,/GND15*%
X76070000Y-38520000D03*
%TD*%
D11*
%TO.P,P17,1*%
%TO.N,/RAMV*%
X131920000Y-72790000D03*
%TD*%
%TO.P,P2,1*%
%TO.N,/MAINS_B*%
X7780000Y-34980000D03*
%TD*%
D16*
%TO.P,C16,1*%
%TO.N,/+5V*%
X122270000Y-56920000D03*
D12*
%TO.P,C16,2*%
%TO.N,/GND5*%
X122270000Y-59420000D03*
%TD*%
D15*
%TO.P,C6,1*%
%TO.N,/GND15*%
X81980000Y-38120000D03*
%TO.P,C6,2*%
%TO.N,/-15V*%
X89480000Y-38120000D03*
%TD*%
%TO.P,C4,1*%
%TO.N,/RAW5*%
X43870000Y-56250000D03*
%TO.P,C4,2*%
%TO.N,/GND5*%
X51370000Y-56250000D03*
%TD*%
D11*
%TO.P,P16,1*%
%TO.N,/BAT_P*%
X131920000Y-86220000D03*
%TD*%
D17*
%TO.P,IC2,1*%
%TO.N,/GND15*%
X80040000Y-51150000D03*
D12*
%TO.P,IC2,2*%
%TO.N,/ADJ*%
X80040000Y-53690000D03*
%TO.P,IC2,3*%
%TO.N,/COMP1*%
X80040000Y-56230000D03*
%TO.P,IC2,4*%
%TO.N,/+15V*%
X80040000Y-58770000D03*
%TO.P,IC2,5*%
%TO.N,/COL1*%
X80040000Y-61310000D03*
%TO.P,IC2,6*%
%TO.N,unconnected-(IC2-NC-Pad6)*%
X80040000Y-63850000D03*
%TO.P,IC2,7*%
%TO.N,/VB1*%
X80040000Y-66390000D03*
%TO.P,IC2,8*%
%TO.N,/VB2*%
X87660000Y-66390000D03*
%TO.P,IC2,9*%
%TO.N,unconnected-(IC2-NC-Pad9)*%
X87660000Y-63850000D03*
%TO.P,IC2,10*%
%TO.N,/COL2*%
X87660000Y-61310000D03*
%TO.P,IC2,11*%
%TO.N,/-15V*%
X87660000Y-58770000D03*
%TO.P,IC2,12*%
%TO.N,/COMP2*%
X87660000Y-56230000D03*
%TO.P,IC2,13*%
%TO.N,unconnected-(IC2-NC-Pad13)*%
X87660000Y-53690000D03*
%TO.P,IC2,14*%
%TO.N,unconnected-(IC2-VOLTAGE_ADJUST-Pad14)*%
X87660000Y-51150000D03*
%TD*%
D18*
%TO.P,Q2,1*%
%TO.N,/VB2*%
X105300000Y-27290000D03*
D19*
%TO.P,Q2,2*%
%TO.N,/COL2*%
X107840000Y-27290000D03*
%TO.P,Q2,3*%
%TO.N,/RAW15N*%
X110380000Y-27290000D03*
%TD*%
D13*
%TO.P,D1,1*%
%TO.N,/RAW5*%
X42880000Y-62650000D03*
D14*
%TO.P,D1,2*%
%TO.N,Net-(D1-Pad2)*%
X42880000Y-67730000D03*
%TO.P,D1,3*%
%TO.N,/GND5*%
X47960000Y-67730000D03*
%TO.P,D1,4*%
%TO.N,/AC5_B*%
X47960000Y-62650000D03*
%TD*%
D11*
%TO.P,P15,1*%
%TO.N,/GND5*%
X131920000Y-95530000D03*
%TD*%
D18*
%TO.P,Q1,1*%
%TO.N,/VB1*%
X68890000Y-26490000D03*
D19*
%TO.P,Q1,2*%
%TO.N,/COL1*%
X71430000Y-26490000D03*
%TO.P,Q1,3*%
%TO.N,/RAW15P*%
X73970000Y-26490000D03*
%TD*%
D20*
%TO.P,C1,1*%
%TO.N,/SW_A*%
X23740000Y-65660000D03*
%TO.P,C1,2*%
%TO.N,/SW_B*%
X23740000Y-43160000D03*
%TD*%
D15*
%TO.P,C2,1*%
%TO.N,/+5V*%
X38170000Y-32040000D03*
%TO.P,C2,2*%
%TO.N,/GND5*%
X45670000Y-32040000D03*
%TD*%
D12*
%TO.P,R2,1*%
%TO.N,/COL1*%
X68600000Y-55640000D03*
%TO.P,R2,2*%
%TO.N,/+15V*%
X68600000Y-48020000D03*
%TD*%
D11*
%TO.P,P20,1*%
%TO.N,/-15V*%
X131920000Y-41340000D03*
%TD*%
D21*
%TO.P,C13,1*%
%TO.N,/RAW15P*%
X108470000Y-55310000D03*
D20*
%TO.P,C13,2*%
%TO.N,/GND15*%
X108470000Y-62810000D03*
%TD*%
D15*
%TO.P,C10,1*%
%TO.N,/VB1*%
X74240000Y-69570000D03*
%TO.P,C10,2*%
%TO.N,/GND15*%
X74240000Y-62070000D03*
%TD*%
D21*
%TO.P,C12,1*%
%TO.N,/GND15*%
X107510000Y-35150000D03*
D20*
%TO.P,C12,2*%
%TO.N,/RAW15N*%
X107510000Y-42650000D03*
%TD*%
D11*
%TO.P,P7,1*%
%TO.N,/SW_B*%
X7780000Y-84320000D03*
%TD*%
%TO.P,P11,1*%
%TO.N,/AC5_B*%
X46510000Y-110980000D03*
%TD*%
%TO.P,P12,1*%
%TO.N,/AC15_RAW_A*%
X57070000Y-110980000D03*
%TD*%
%TO.P,P22,1*%
%TO.N,/+15V*%
X131920000Y-22300000D03*
%TD*%
%TO.P,P8,1*%
%TO.N,/PRI_8*%
X7780000Y-96560000D03*
%TD*%
%TO.P,P4,1*%
%TO.N,/MAINS_A*%
X7780000Y-53750000D03*
%TD*%
%TO.P,P14,1*%
%TO.N,/AC15_RAW_B*%
X78340000Y-110980000D03*
%TD*%
D16*
%TO.P,D3,1*%
%TO.N,/RAMV*%
X120570000Y-85710000D03*
D12*
%TO.P,D3,2*%
%TO.N,/+5V*%
X120570000Y-95870000D03*
%TD*%
D11*
%TO.P,P6,1*%
%TO.N,/SW_B*%
X7780000Y-77680000D03*
%TD*%
D12*
%TO.P,C7,1*%
%TO.N,/COMP1*%
X74620000Y-46640000D03*
%TO.P,C7,2*%
%TO.N,/GND15*%
X77120000Y-46640000D03*
%TD*%
D11*
%TO.P,P5,1*%
%TO.N,/SW_A*%
X7780000Y-65610000D03*
%TD*%
D16*
%TO.P,D4,1*%
%TO.N,/RAMV*%
X125160000Y-85310000D03*
D12*
%TO.P,D4,2*%
%TO.N,/BAT_P*%
X125160000Y-95470000D03*
%TD*%
D16*
%TO.P,C15,1*%
%TO.N,/GND15*%
X122670000Y-37160000D03*
D12*
%TO.P,C15,2*%
%TO.N,/-15V*%
X122670000Y-39660000D03*
%TD*%
D22*
%TO.P,C3,1*%
%TO.N,/RAW5*%
X47460000Y-45190000D03*
D20*
%TO.P,C3,2*%
%TO.N,/GND5*%
X52460000Y-45190000D03*
%TD*%
D11*
%TO.P,P3,1*%
%TO.N,/MAINS_A*%
X7780000Y-46570000D03*
%TD*%
D12*
%TO.P,C8,1*%
%TO.N,/COMP2*%
X81820000Y-45040000D03*
%TO.P,C8,2*%
%TO.N,/GND15*%
X84320000Y-45040000D03*
%TD*%
%TO.P,R4,1*%
%TO.N,/ADJ*%
X86660000Y-42700000D03*
%TO.P,R4,2*%
%TO.N,/GND15*%
X94280000Y-42700000D03*
%TD*%
D11*
%TO.P,P18,1*%
%TO.N,/GND5*%
X131920000Y-63270000D03*
%TD*%
D16*
%TO.P,C14,1*%
%TO.N,/+15V*%
X122710000Y-26420000D03*
D12*
%TO.P,C14,2*%
%TO.N,/GND15*%
X122710000Y-28920000D03*
%TD*%
D11*
%TO.P,P10,1*%
%TO.N,/AC5_RAW*%
X35960000Y-110980000D03*
%TD*%
D18*
%TO.P,IC1,1*%
%TO.N,/RAW5*%
X32060000Y-28690000D03*
D19*
%TO.P,IC1,2*%
%TO.N,/GND5*%
X34600000Y-28690000D03*
%TO.P,IC1,3*%
%TO.N,/+5V*%
X37140000Y-28690000D03*
%TD*%
D11*
%TO.P,P1,1*%
%TO.N,/MAINS_B*%
X7780000Y-27960000D03*
%TD*%
%TO.P,P21,1*%
%TO.N,/GND15*%
X131920000Y-31770000D03*
%TD*%
%TO.P,P19,1*%
%TO.N,/+5V*%
X131920000Y-53370000D03*
%TD*%
D10*
%TO.P,F4,1*%
%TO.N,/AC15_RAW_B*%
X87510000Y-78020000D03*
%TO.P,F4,2*%
%TO.N,/AC15_B*%
X87510000Y-100520000D03*
%TD*%
D23*
%TO.P,C11,1*%
%TO.N,/GND15*%
X82040000Y-30260000D03*
D15*
%TO.P,C11,2*%
%TO.N,Net-(C11-Pad2)*%
X87040000Y-30260000D03*
%TD*%
D10*
%TO.P,F2,1*%
%TO.N,/AC5_RAW*%
X52770000Y-78420000D03*
%TO.P,F2,2*%
%TO.N,Net-(D1-Pad2)*%
X52770000Y-100920000D03*
%TD*%
D12*
%TO.P,R6,1*%
%TO.N,Net-(C11-Pad2)*%
X94390000Y-36720000D03*
%TO.P,R6,2*%
%TO.N,/-15V*%
X94390000Y-29100000D03*
%TD*%
D11*
%TO.P,P13,1*%
%TO.N,/GND15*%
X67950000Y-110980000D03*
%TD*%
D24*
%TO.N,/RAW15P*%
X89535000Y-41275000D03*
X89535000Y-44450000D03*
%TO.N,/GND15*%
X78105000Y-75565000D03*
X78740000Y-68580000D03*
%TO.N,/GND5*%
X119380000Y-71120000D03*
X97155000Y-71120000D03*
X59055000Y-56515000D03*
%TD*%
%TO.N,/+5V*%
D25*
X122555000Y-57150000D02*
X122270000Y-56920000D01*
X122555000Y-57150000D02*
X123727800Y-55977200D01*
X123727800Y-55977200D02*
G75*
G03*
X124460005Y-54209500I-1767700J1767700D01*
G01*
X124460000Y-54209500D02*
X124460000Y-26015000D01*
X124460000Y-26015000D02*
G75*
G03*
X123210000Y-24765000I-1249900J100D01*
G01*
X123210000Y-24765000D02*
X80410500Y-24765000D01*
X80410500Y-24765000D02*
G75*
G03*
X78642804Y-25497204I0J-2499900D01*
G01*
X78642800Y-25497200D02*
X75662200Y-28477800D01*
X75662200Y-28477800D02*
G75*
G02*
X73894500Y-29210005I-1767700J1767700D01*
G01*
X73894500Y-29210000D02*
X41675500Y-29210000D01*
X41675500Y-29210000D02*
G75*
G03*
X39907804Y-29942204I0J-2499900D01*
G01*
X39907800Y-29942200D02*
X38100000Y-31750000D01*
X38100000Y-31750000D02*
X38170000Y-32040000D01*
%TO.N,/-15V*%
X122555000Y-40005000D02*
X112492200Y-29942200D01*
X112492200Y-29942200D02*
G75*
G03*
X110724500Y-29209995I-1767700J-1767700D01*
G01*
X110724500Y-29210000D02*
X89780100Y-29210000D01*
X89780100Y-29210000D02*
G75*
G02*
X88277672Y-28587728I-200J2124400D01*
G01*
X88277700Y-28587700D02*
X88252300Y-28562300D01*
X88252300Y-28562300D02*
G75*
G03*
X86749900Y-27940039I-1502200J-1502100D01*
G01*
X86749900Y-27940000D02*
X81260000Y-27940000D01*
X81260000Y-27940000D02*
G75*
G03*
X80010000Y-29190000I-100J-1249900D01*
G01*
X80010000Y-29190000D02*
X80010000Y-32619500D01*
X80010000Y-32619500D02*
G75*
G03*
X80742204Y-34387196I2499900J0D01*
G01*
X80742200Y-34387200D02*
X83722800Y-37367800D01*
X83722800Y-37367800D02*
G75*
G03*
X85490500Y-38100005I1767700J1767700D01*
G01*
X85490500Y-38100000D02*
X89535000Y-38100000D01*
X122555000Y-40005000D02*
X122555000Y-39370000D01*
X89535000Y-38100000D02*
X89480000Y-38120000D01*
X122555000Y-39370000D02*
X122670000Y-39660000D01*
X87630000Y-59055000D02*
X87660000Y-58770000D01*
X87630000Y-59055000D02*
X92612800Y-54072200D01*
X92612800Y-54072200D02*
G75*
G03*
X93345005Y-52304500I-1767700J1767700D01*
G01*
X93345000Y-52304500D02*
X93345000Y-49530000D01*
X93345000Y-49530000D02*
X93030000Y-49600000D01*
%TO.N,/AC15_B*%
X87630000Y-100330000D02*
X73757200Y-86457200D01*
X73757200Y-86457200D02*
G75*
G02*
X73024995Y-84689500I1767700J1767700D01*
G01*
X73025000Y-84689500D02*
X73025000Y-72790500D01*
X73025000Y-72790500D02*
G75*
G03*
X72292796Y-71022804I-2499900J0D01*
G01*
X72292800Y-71022800D02*
X69312200Y-68042200D01*
X69312200Y-68042200D02*
G75*
G02*
X68579995Y-66274500I1767700J1767700D01*
G01*
X68580000Y-66274500D02*
X68580000Y-64770000D01*
X87630000Y-100330000D02*
X87510000Y-100520000D01*
X68580000Y-64770000D02*
X68890000Y-65050000D01*
%TO.N,/AC15_RAW_A*%
X57150000Y-111125000D02*
X57150000Y-92475500D01*
X57150000Y-92475500D02*
G75*
G02*
X57882204Y-90707804I2499900J0D01*
G01*
X57882200Y-90707800D02*
X70485000Y-78105000D01*
X57150000Y-111125000D02*
X57070000Y-110980000D01*
X70485000Y-78105000D02*
X70300000Y-77820000D01*
%TO.N,/AC5_B*%
X48260000Y-62865000D02*
X47960000Y-62650000D01*
X48260000Y-62865000D02*
X46452200Y-64672800D01*
X46452200Y-64672800D02*
G75*
G03*
X45719995Y-66440500I1767700J-1767700D01*
G01*
X45720000Y-66440500D02*
X45720000Y-111125000D01*
X46355000Y-111125000D02*
X46510000Y-110980000D01*
X46355000Y-111125000D02*
X45720000Y-111125000D01*
%TO.N,/COMP2*%
X81915000Y-45085000D02*
X81820000Y-45040000D01*
X81915000Y-45085000D02*
X81915000Y-49764500D01*
X81915000Y-49764500D02*
G75*
G03*
X82647204Y-51532196I2499900J0D01*
G01*
X82647200Y-51532200D02*
X87630000Y-56515000D01*
X87630000Y-56515000D02*
X87660000Y-56230000D01*
%TO.N,/GND15*%
D26*
X74295000Y-62230000D02*
X74240000Y-62070000D01*
X74295000Y-62230000D02*
X74240000Y-62070000D01*
X74295000Y-62230000D02*
X77372800Y-65307800D01*
X77372800Y-65307800D02*
G75*
G02*
X78105005Y-67075500I-1767700J-1767700D01*
G01*
X78105000Y-67075500D02*
X78105000Y-75565000D01*
X74295000Y-62230000D02*
X74240000Y-62070000D01*
X74295000Y-62230000D02*
X74930000Y-62230000D01*
X74295000Y-62230000D02*
X74295000Y-58185500D01*
X74295000Y-58185500D02*
G75*
G02*
X75027204Y-56417804I2499900J0D01*
G01*
X75027200Y-56417800D02*
X80010000Y-51435000D01*
X80010000Y-51435000D02*
X80040000Y-51150000D01*
X107315000Y-34925000D02*
X107510000Y-35150000D01*
X107315000Y-34925000D02*
X100427200Y-41812800D01*
X100427200Y-41812800D02*
G75*
G02*
X98659500Y-42545005I-1767700J1767700D01*
G01*
X98659500Y-42545000D02*
X93980000Y-42545000D01*
X108585000Y-62865000D02*
X108470000Y-62810000D01*
X108585000Y-62865000D02*
X100730500Y-62865000D01*
X100730500Y-62865000D02*
G75*
G03*
X98962804Y-63597204I0J-2499900D01*
G01*
X98962800Y-63597200D02*
X92710000Y-69850000D01*
X93980000Y-42545000D02*
X94280000Y-42700000D01*
X93980000Y-42545000D02*
X91205500Y-42545000D01*
X91205500Y-42545000D02*
G75*
G03*
X89437804Y-43277204I0J-2499900D01*
G01*
X89437800Y-43277200D02*
X88362200Y-44352800D01*
X88362200Y-44352800D02*
G75*
G02*
X86594500Y-45085005I-1767700J1767700D01*
G01*
X86594500Y-45085000D02*
X84455000Y-45085000D01*
X93980000Y-42545000D02*
X94280000Y-42700000D01*
X92710000Y-69850000D02*
X92700000Y-69660000D01*
X122555000Y-37465000D02*
X122555000Y-29210000D01*
X122555000Y-37465000D02*
X122670000Y-37160000D01*
X122555000Y-29210000D02*
X122710000Y-28920000D01*
X74930000Y-62230000D02*
X78007800Y-65307800D01*
X78007800Y-65307800D02*
G75*
G02*
X78740005Y-67075500I-1767700J-1767700D01*
G01*
X78740000Y-67075500D02*
X78740000Y-68580000D01*
X84455000Y-45085000D02*
X84320000Y-45040000D01*
%TO.N,/GND5*%
X51435000Y-56515000D02*
X51370000Y-56250000D01*
X51435000Y-56515000D02*
X59055000Y-56515000D01*
X119380000Y-71120000D02*
X97155000Y-71120000D01*
%TO.N,/RAW15P*%
D25*
X73660000Y-26670000D02*
X73970000Y-26490000D01*
X73660000Y-26670000D02*
X73660000Y-26280100D01*
X73660000Y-26280100D02*
G75*
G03*
X73037728Y-24777672I-2124400J200D01*
G01*
X73037700Y-24777700D02*
X73012300Y-24752300D01*
X73012300Y-24752300D02*
G75*
G03*
X71509900Y-24130039I-1502200J-1502100D01*
G01*
X71509900Y-24130000D02*
X56915500Y-24130000D01*
X56915500Y-24130000D02*
G75*
G03*
X55147804Y-24862204I0J-2499900D01*
G01*
X55147800Y-24862200D02*
X53340000Y-26670000D01*
X89535000Y-41275000D02*
X89522300Y-41262300D01*
X89522300Y-41262300D02*
G75*
G03*
X88019900Y-40640039I-1502200J-1502100D01*
G01*
X88019900Y-40640000D02*
X81875000Y-40640000D01*
X81875000Y-40640000D02*
G75*
G03*
X79375000Y-43140000I-100J-2499900D01*
G01*
X79375000Y-43140000D02*
X79375000Y-47859500D01*
X79375000Y-47859500D02*
G75*
G02*
X78642796Y-49627196I-2499900J0D01*
G01*
X78642800Y-49627200D02*
X63500000Y-64770000D01*
X89535000Y-44450000D02*
X96754500Y-44450000D01*
X96754500Y-44450000D02*
G75*
G02*
X98522196Y-45182204I0J-2499900D01*
G01*
X98522200Y-45182200D02*
X108585000Y-55245000D01*
X63500000Y-64770000D02*
X63810000Y-65050000D01*
X53340000Y-26670000D02*
X53220000Y-26440000D01*
X108585000Y-55245000D02*
X108470000Y-55310000D01*
%TO.N,Net-(C11-Pad2)*%
X86995000Y-30480000D02*
X87040000Y-30260000D01*
X86995000Y-30480000D02*
X92612800Y-36097800D01*
X92612800Y-36097800D02*
G75*
G03*
X94380500Y-36830005I1767700J1767700D01*
G01*
X94380500Y-36830000D02*
X94615000Y-36830000D01*
X94615000Y-36830000D02*
X94390000Y-36720000D01*
%TD*%
M02*
