M48
; DRILL file KiCad 10.0.2 date 2026-10-07T13:12:43
; FORMAT={-:-/ absolute / metric / decimal}
; #@! TF.CreationDate,2026-10-07T13:12:43+02:00
; #@! TF.GenerationSoftware,Kicad,Pcbnew,10.0.2
; #@! TF.FileFunction,Plated,1,2,PTH
FMAT,2
METRIC
; #@! TA.AperFunction,Plated,PTH,ViaDrill
T1C0.300
; #@! TA.AperFunction,Plated,PTH,ComponentDrill
T2C0.800
; #@! TA.AperFunction,Plated,PTH,ComponentDrill
T3C1.000
; #@! TA.AperFunction,Plated,PTH,ComponentDrill
T4C1.100
; #@! TA.AperFunction,Plated,PTH,ComponentDrill
T5C1.200
; #@! TA.AperFunction,Plated,PTH,ComponentDrill
T6C1.600
%
G90
G05
T1
X77.625Y-70.175
X96.06Y-94.49
X97.945Y-88.59
X100.485Y-105.735
X104.93Y-68.27
T2
X72.58Y-47.29
X82.74Y-47.29
X88.24Y-66.595
X88.24Y-76.755
X88.95Y-63.145
X94.01Y-67.485
X99.01Y-67.485
X99.11Y-63.145
X99.88Y-71.795
X99.88Y-74.335
X99.88Y-76.875
X99.88Y-79.415
X99.88Y-81.955
X99.88Y-84.495
X99.88Y-87.035
X101.42Y-63.145
X101.66Y-65.99
X104.16Y-65.99
X107.5Y-71.795
X107.5Y-74.335
X107.5Y-76.875
X107.5Y-79.415
X107.5Y-81.955
X107.5Y-84.495
X107.5Y-87.035
X111.58Y-63.145
X112.67Y-67.775
X112.67Y-77.935
X114.23Y-49.745
X114.23Y-57.365
X119.71Y-83.185
X119.71Y-90.805
X140.36Y-105.99
X140.36Y-116.15
X142.11Y-77.565
X142.11Y-80.065
X142.51Y-57.805
X142.51Y-60.305
X142.55Y-47.065
X142.55Y-49.565
X145.0Y-105.955
X145.0Y-116.115
T3
X58.36Y-53.085
X62.72Y-83.295
X62.72Y-88.375
X63.71Y-76.895
X67.8Y-83.295
X67.8Y-88.375
X68.36Y-53.085
X71.21Y-76.895
X83.65Y-85.695
X83.65Y-90.775
X88.41Y-59.165
X88.73Y-85.695
X88.73Y-90.775
X94.08Y-82.715
X94.08Y-90.215
X95.91Y-59.165
X101.82Y-58.765
X101.88Y-50.905
X106.88Y-50.905
X109.32Y-58.765
X112.54Y-82.805
X112.54Y-90.305
T4
X51.9Y-49.335
X54.44Y-49.335
X56.98Y-49.335
X88.73Y-47.135
X91.27Y-47.135
X93.81Y-47.135
X125.14Y-47.135
X127.68Y-47.135
X130.22Y-47.135
T5
X43.58Y-63.805
X43.58Y-86.305
X67.3Y-65.835
X72.3Y-65.835
X127.35Y-55.795
X127.35Y-63.295
X128.31Y-75.955
X128.31Y-83.455
T6
X27.62Y-48.605
X27.62Y-55.625
X27.62Y-67.215
X27.62Y-74.395
X27.62Y-86.255
X27.62Y-98.325
X27.62Y-104.965
X27.62Y-117.205
X42.04Y-131.625
X43.78Y-98.065
X43.78Y-120.565
X55.8Y-131.625
X66.35Y-131.625
X72.61Y-98.065
X72.61Y-120.565
X76.91Y-131.625
X87.79Y-131.625
X89.74Y-98.065
X89.74Y-120.565
X98.18Y-131.625
X107.15Y-98.065
X107.15Y-120.565
X151.76Y-42.945
X151.76Y-52.415
X151.76Y-61.985
X151.76Y-74.015
X151.76Y-83.915
X151.76Y-93.435
X151.76Y-106.865
X151.76Y-116.175
M30
