%TF.GenerationSoftware,KiCad,Pcbnew,10.0.2*%
%TF.CreationDate,2026-10-06T21:33:01+02:00*%
%TF.ProjectId,TR-808PSU_Rev0.1,54522d38-3038-4505-9355-5f526576302e,rev?*%
%TF.SameCoordinates,Original*%
%TF.FileFunction,Drillmap*%
%TF.FilePolarity,Positive*%
%FSLAX45Y45*%
G04 Gerber Fmt 4.5, Leading zero omitted, Abs format (unit mm)*
G04 Created by KiCad (PCBNEW 10.0.2) date 2026-10-06 21:33:01*
%MOMM*%
%LPD*%
G01*
G04 APERTURE LIST*
%ADD10C,0.100000*%
%ADD11C,0.200000*%
%ADD12C,0.110000*%
%ADD13C,0.120000*%
%ADD14C,0.160000*%
G04 APERTURE END LIST*
D10*
X0Y0D02*
X14290000Y0D01*
X0Y-11940000D02*
X0Y0D01*
X14290000Y0D02*
X14290000Y-11940000D01*
X14290000Y-11940000D02*
X0Y-11940000D01*
D11*
D10*
X747000Y-7541500D02*
X777000Y-7571500D01*
X777000Y-7541500D02*
X747000Y-7571500D01*
X4684000Y-9002000D02*
X4714000Y-9032000D01*
X4714000Y-9002000D02*
X4684000Y-9032000D01*
X5192000Y-9446500D02*
X5222000Y-9476500D01*
X5222000Y-9446500D02*
X5192000Y-9476500D01*
X6208000Y-7732000D02*
X6238000Y-7762000D01*
X6238000Y-7732000D02*
X6208000Y-7762000D01*
X6335000Y-6462000D02*
X6365000Y-6492000D01*
X6365000Y-6462000D02*
X6335000Y-6492000D01*
X6716000Y-2906000D02*
X6746000Y-2936000D01*
X6746000Y-2906000D02*
X6716000Y-2936000D01*
X6843000Y-3731500D02*
X6873000Y-3761500D01*
X6873000Y-3731500D02*
X6843000Y-3761500D01*
X6906500Y-3541000D02*
X6936500Y-3571000D01*
X6936500Y-3541000D02*
X6906500Y-3571000D01*
X9510000Y-4747500D02*
X9540000Y-4777500D01*
X9540000Y-4747500D02*
X9510000Y-4777500D01*
X9573500Y-3922000D02*
X9603500Y-3952000D01*
X9603500Y-3922000D02*
X9573500Y-3952000D01*
X10399000Y-4747500D02*
X10429000Y-4777500D01*
X10429000Y-4747500D02*
X10399000Y-4777500D01*
X10462500Y-3414000D02*
X10492500Y-3444000D01*
X10492500Y-3414000D02*
X10462500Y-3444000D01*
X142500Y-125000D02*
G75*
G02*
X107500Y-125000I-17500J0D01*
G01*
X107500Y-125000D02*
G75*
G02*
X142500Y-125000I17500J0D01*
G01*
X6992500Y-5975000D02*
G75*
G02*
X6957500Y-5975000I-17500J0D01*
G01*
X6957500Y-5975000D02*
G75*
G02*
X6992500Y-5975000I17500J0D01*
G01*
X7792500Y-2675000D02*
G75*
G02*
X7757500Y-2675000I-17500J0D01*
G01*
X7757500Y-2675000D02*
G75*
G02*
X7792500Y-2675000I17500J0D01*
G01*
X10892500Y-3025000D02*
G75*
G02*
X10857500Y-3025000I-17500J0D01*
G01*
X10857500Y-3025000D02*
G75*
G02*
X10892500Y-3025000I17500J0D01*
G01*
X5402000Y-2724000D02*
X5402000Y-2804000D01*
X5362000Y-2764000D02*
X5442000Y-2764000D01*
X6164000Y-2724000D02*
X6164000Y-2804000D01*
X6124000Y-2764000D02*
X6204000Y-2764000D01*
X6860000Y-4682000D02*
X6860000Y-4762000D01*
X6820000Y-4722000D02*
X6900000Y-4722000D01*
X6860000Y-5444000D02*
X6860000Y-5524000D01*
X6820000Y-5484000D02*
X6900000Y-5484000D01*
X6958000Y-4230000D02*
X6958000Y-4310000D01*
X6918000Y-4270000D02*
X6998000Y-4270000D01*
X7502000Y-4584000D02*
X7502000Y-4664000D01*
X7462000Y-4624000D02*
X7542000Y-4624000D01*
X7720000Y-4230000D02*
X7720000Y-4310000D01*
X7680000Y-4270000D02*
X7760000Y-4270000D01*
X7752000Y-4584000D02*
X7752000Y-4664000D01*
X7712000Y-4624000D02*
X7792000Y-4624000D01*
X7904000Y-5095000D02*
X7904000Y-5175000D01*
X7864000Y-5135000D02*
X7944000Y-5135000D01*
X7904000Y-5349000D02*
X7904000Y-5429000D01*
X7864000Y-5389000D02*
X7944000Y-5389000D01*
X7904000Y-5603000D02*
X7904000Y-5683000D01*
X7864000Y-5643000D02*
X7944000Y-5643000D01*
X7904000Y-5857000D02*
X7904000Y-5937000D01*
X7864000Y-5897000D02*
X7944000Y-5897000D01*
X7904000Y-6111000D02*
X7904000Y-6191000D01*
X7864000Y-6151000D02*
X7944000Y-6151000D01*
X7904000Y-6365000D02*
X7904000Y-6445000D01*
X7864000Y-6405000D02*
X7944000Y-6405000D01*
X7904000Y-6619000D02*
X7904000Y-6699000D01*
X7864000Y-6659000D02*
X7944000Y-6659000D01*
X8285000Y-4230000D02*
X8285000Y-4310000D01*
X8245000Y-4270000D02*
X8325000Y-4270000D01*
X8302000Y-4584000D02*
X8302000Y-4664000D01*
X8262000Y-4624000D02*
X8342000Y-4624000D01*
X8552000Y-4584000D02*
X8552000Y-4664000D01*
X8512000Y-4624000D02*
X8592000Y-4624000D01*
X8666000Y-5095000D02*
X8666000Y-5175000D01*
X8626000Y-5135000D02*
X8706000Y-5135000D01*
X8666000Y-5349000D02*
X8666000Y-5429000D01*
X8626000Y-5389000D02*
X8706000Y-5389000D01*
X8666000Y-5603000D02*
X8666000Y-5683000D01*
X8626000Y-5643000D02*
X8706000Y-5643000D01*
X8666000Y-5857000D02*
X8666000Y-5937000D01*
X8626000Y-5897000D02*
X8706000Y-5897000D01*
X8666000Y-6111000D02*
X8666000Y-6191000D01*
X8626000Y-6151000D02*
X8706000Y-6151000D01*
X8666000Y-6365000D02*
X8666000Y-6445000D01*
X8626000Y-6405000D02*
X8706000Y-6405000D01*
X8666000Y-6619000D02*
X8666000Y-6699000D01*
X8626000Y-6659000D02*
X8706000Y-6659000D01*
X9047000Y-4230000D02*
X9047000Y-4310000D01*
X9007000Y-4270000D02*
X9087000Y-4270000D01*
X9243000Y-4780000D02*
X9243000Y-4860000D01*
X9203000Y-4820000D02*
X9283000Y-4820000D01*
X9243000Y-5542000D02*
X9243000Y-5622000D01*
X9203000Y-5582000D02*
X9283000Y-5582000D01*
X9319000Y-2870000D02*
X9319000Y-2950000D01*
X9279000Y-2910000D02*
X9359000Y-2910000D01*
X9319000Y-3632000D02*
X9319000Y-3712000D01*
X9279000Y-3672000D02*
X9359000Y-3672000D01*
X9787000Y-6074000D02*
X9787000Y-6154000D01*
X9747000Y-6114000D02*
X9827000Y-6114000D01*
X9787000Y-6836000D02*
X9787000Y-6916000D01*
X9747000Y-6876000D02*
X9827000Y-6876000D01*
X12017000Y-8531000D02*
X12017000Y-8611000D01*
X11977000Y-8571000D02*
X12057000Y-8571000D01*
X12017000Y-9547000D02*
X12017000Y-9627000D01*
X11977000Y-9587000D02*
X12057000Y-9587000D01*
X12251000Y-2762000D02*
X12251000Y-2842000D01*
X12211000Y-2802000D02*
X12291000Y-2802000D01*
X12251000Y-3012000D02*
X12251000Y-3092000D01*
X12211000Y-3052000D02*
X12291000Y-3052000D01*
X12267000Y-3676000D02*
X12267000Y-3756000D01*
X12227000Y-3716000D02*
X12307000Y-3716000D01*
X12267000Y-3926000D02*
X12267000Y-4006000D01*
X12227000Y-3966000D02*
X12307000Y-3966000D01*
X12267000Y-5612000D02*
X12267000Y-5692000D01*
X12227000Y-5652000D02*
X12307000Y-5652000D01*
X12267000Y-5862000D02*
X12267000Y-5942000D01*
X12227000Y-5902000D02*
X12307000Y-5902000D01*
X12436000Y-8531000D02*
X12436000Y-8611000D01*
X12396000Y-8571000D02*
X12476000Y-8571000D01*
X12436000Y-9547000D02*
X12436000Y-9627000D01*
X12396000Y-9587000D02*
X12476000Y-9587000D01*
X4012356Y-3359356D02*
X4012356Y-3288644D01*
X3941644Y-3288644D01*
X3941644Y-3359356D01*
X4012356Y-3359356D01*
X4382356Y-5780356D02*
X4382356Y-5709644D01*
X4311644Y-5709644D01*
X4311644Y-5780356D01*
X4382356Y-5780356D01*
X4503356Y-6380356D02*
X4503356Y-6309644D01*
X4432644Y-6309644D01*
X4432644Y-6380356D01*
X4503356Y-6380356D01*
X4503356Y-6888356D02*
X4503356Y-6817644D01*
X4432644Y-6817644D01*
X4432644Y-6888356D01*
X4503356Y-6888356D01*
X4762356Y-3359356D02*
X4762356Y-3288644D01*
X4691644Y-3288644D01*
X4691644Y-3359356D01*
X4762356Y-3359356D01*
X5011356Y-6380356D02*
X5011356Y-6309644D01*
X4940644Y-6309644D01*
X4940644Y-6380356D01*
X5011356Y-6380356D01*
X5011356Y-6888356D02*
X5011356Y-6817644D01*
X4940644Y-6817644D01*
X4940644Y-6888356D01*
X5011356Y-6888356D01*
X5132356Y-5780356D02*
X5132356Y-5709644D01*
X5061644Y-5709644D01*
X5061644Y-5780356D01*
X5132356Y-5780356D01*
X6336356Y-6380356D02*
X6336356Y-6309644D01*
X6265644Y-6309644D01*
X6265644Y-6380356D01*
X6336356Y-6380356D01*
X6336356Y-6888356D02*
X6336356Y-6817644D01*
X6265644Y-6817644D01*
X6265644Y-6888356D01*
X6336356Y-6888356D01*
X6844356Y-6380356D02*
X6844356Y-6309644D01*
X6773644Y-6309644D01*
X6773644Y-6380356D01*
X6844356Y-6380356D01*
X6844356Y-6888356D02*
X6844356Y-6817644D01*
X6773644Y-6817644D01*
X6773644Y-6888356D01*
X6844356Y-6888356D01*
X6852356Y-3887356D02*
X6852356Y-3816644D01*
X6781644Y-3816644D01*
X6781644Y-3887356D01*
X6852356Y-3887356D01*
X7379356Y-6242356D02*
X7379356Y-6171644D01*
X7308644Y-6171644D01*
X7308644Y-6242356D01*
X7379356Y-6242356D01*
X7379356Y-6992356D02*
X7379356Y-6921644D01*
X7308644Y-6921644D01*
X7308644Y-6992356D01*
X7379356Y-6992356D01*
X7602356Y-3887356D02*
X7602356Y-3816644D01*
X7531644Y-3816644D01*
X7531644Y-3887356D01*
X7602356Y-3887356D01*
X8179356Y-3081356D02*
X8179356Y-3010644D01*
X8108644Y-3010644D01*
X8108644Y-3081356D01*
X8179356Y-3081356D01*
X8233356Y-3887356D02*
X8233356Y-3816644D01*
X8162644Y-3816644D01*
X8162644Y-3887356D01*
X8233356Y-3887356D01*
X8679356Y-3081356D02*
X8679356Y-3010644D01*
X8608644Y-3010644D01*
X8608644Y-3081356D01*
X8679356Y-3081356D01*
X8983356Y-3887356D02*
X8983356Y-3816644D01*
X8912644Y-3816644D01*
X8912644Y-3887356D01*
X8983356Y-3887356D01*
X9245356Y-6291356D02*
X9245356Y-6220644D01*
X9174644Y-6220644D01*
X9174644Y-6291356D01*
X9245356Y-6291356D01*
X9245356Y-7041356D02*
X9245356Y-6970644D01*
X9174644Y-6970644D01*
X9174644Y-7041356D01*
X9245356Y-7041356D01*
D12*
X3206000Y-2884000D02*
X3261000Y-2829000D01*
X3206000Y-2774000D01*
X3151000Y-2829000D01*
X3206000Y-2884000D01*
X3460000Y-2884000D02*
X3515000Y-2829000D01*
X3460000Y-2774000D01*
X3405000Y-2829000D01*
X3460000Y-2884000D01*
X3714000Y-2884000D02*
X3769000Y-2829000D01*
X3714000Y-2774000D01*
X3659000Y-2829000D01*
X3714000Y-2884000D01*
X6829000Y-2884000D02*
X6884000Y-2829000D01*
X6829000Y-2774000D01*
X6774000Y-2829000D01*
X6829000Y-2884000D01*
X7083000Y-2884000D02*
X7138000Y-2829000D01*
X7083000Y-2774000D01*
X7028000Y-2829000D01*
X7083000Y-2884000D01*
X7337000Y-2884000D02*
X7392000Y-2829000D01*
X7337000Y-2774000D01*
X7282000Y-2829000D01*
X7337000Y-2884000D01*
X10490000Y-2884000D02*
X10545000Y-2829000D01*
X10490000Y-2774000D01*
X10435000Y-2829000D01*
X10490000Y-2884000D01*
X10744000Y-2884000D02*
X10799000Y-2829000D01*
X10744000Y-2774000D01*
X10689000Y-2829000D01*
X10744000Y-2884000D01*
X10998000Y-2884000D02*
X11053000Y-2829000D01*
X10998000Y-2774000D01*
X10943000Y-2829000D01*
X10998000Y-2884000D01*
D13*
X2334000Y-3956000D02*
X2454000Y-4076000D01*
X2454000Y-3956000D02*
X2334000Y-4076000D01*
X2454000Y-4016000D02*
G75*
G02*
X2334000Y-4016000I-60000J0D01*
G01*
X2334000Y-4016000D02*
G75*
G02*
X2454000Y-4016000I60000J0D01*
G01*
X2334000Y-6206000D02*
X2454000Y-6326000D01*
X2454000Y-6206000D02*
X2334000Y-6326000D01*
X2454000Y-6266000D02*
G75*
G02*
X2334000Y-6266000I-60000J0D01*
G01*
X2334000Y-6266000D02*
G75*
G02*
X2454000Y-6266000I60000J0D01*
G01*
X4646000Y-4499000D02*
X4766000Y-4619000D01*
X4766000Y-4499000D02*
X4646000Y-4619000D01*
X4766000Y-4559000D02*
G75*
G02*
X4646000Y-4559000I-60000J0D01*
G01*
X4646000Y-4559000D02*
G75*
G02*
X4766000Y-4559000I60000J0D01*
G01*
X5146000Y-4499000D02*
X5266000Y-4619000D01*
X5266000Y-4499000D02*
X5146000Y-4619000D01*
X5266000Y-4559000D02*
G75*
G02*
X5146000Y-4559000I-60000J0D01*
G01*
X5146000Y-4559000D02*
G75*
G02*
X5266000Y-4559000I60000J0D01*
G01*
X10711000Y-3455000D02*
X10831000Y-3575000D01*
X10831000Y-3455000D02*
X10711000Y-3575000D01*
X10831000Y-3515000D02*
G75*
G02*
X10711000Y-3515000I-60000J0D01*
G01*
X10711000Y-3515000D02*
G75*
G02*
X10831000Y-3515000I60000J0D01*
G01*
X10711000Y-4205000D02*
X10831000Y-4325000D01*
X10831000Y-4205000D02*
X10711000Y-4325000D01*
X10831000Y-4265000D02*
G75*
G02*
X10711000Y-4265000I-60000J0D01*
G01*
X10711000Y-4265000D02*
G75*
G02*
X10831000Y-4265000I60000J0D01*
G01*
X10847000Y-5631000D02*
X10967000Y-5751000D01*
X10967000Y-5631000D02*
X10847000Y-5751000D01*
X10967000Y-5691000D02*
G75*
G02*
X10847000Y-5691000I-60000J0D01*
G01*
X10847000Y-5691000D02*
G75*
G02*
X10967000Y-5691000I60000J0D01*
G01*
X10847000Y-6381000D02*
X10967000Y-6501000D01*
X10967000Y-6381000D02*
X10847000Y-6501000D01*
X10967000Y-6441000D02*
G75*
G02*
X10847000Y-6441000I-60000J0D01*
G01*
X10847000Y-6441000D02*
G75*
G02*
X10967000Y-6441000I60000J0D01*
G01*
D14*
X698000Y-2716000D02*
X858000Y-2876000D01*
X858000Y-2716000D02*
X698000Y-2876000D01*
X778000Y-2716000D02*
X778000Y-2876000D01*
X698000Y-2796000D02*
X858000Y-2796000D01*
X698000Y-3418000D02*
X858000Y-3578000D01*
X858000Y-3418000D02*
X698000Y-3578000D01*
X778000Y-3418000D02*
X778000Y-3578000D01*
X698000Y-3498000D02*
X858000Y-3498000D01*
X698000Y-4577000D02*
X858000Y-4737000D01*
X858000Y-4577000D02*
X698000Y-4737000D01*
X778000Y-4577000D02*
X778000Y-4737000D01*
X698000Y-4657000D02*
X858000Y-4657000D01*
X698000Y-5295000D02*
X858000Y-5455000D01*
X858000Y-5295000D02*
X698000Y-5455000D01*
X778000Y-5295000D02*
X778000Y-5455000D01*
X698000Y-5375000D02*
X858000Y-5375000D01*
X698000Y-6481000D02*
X858000Y-6641000D01*
X858000Y-6481000D02*
X698000Y-6641000D01*
X778000Y-6481000D02*
X778000Y-6641000D01*
X698000Y-6561000D02*
X858000Y-6561000D01*
X698000Y-7688000D02*
X858000Y-7848000D01*
X858000Y-7688000D02*
X698000Y-7848000D01*
X778000Y-7688000D02*
X778000Y-7848000D01*
X698000Y-7768000D02*
X858000Y-7768000D01*
X698000Y-8352000D02*
X858000Y-8512000D01*
X858000Y-8352000D02*
X698000Y-8512000D01*
X778000Y-8352000D02*
X778000Y-8512000D01*
X698000Y-8432000D02*
X858000Y-8432000D01*
X698000Y-9576000D02*
X858000Y-9736000D01*
X858000Y-9576000D02*
X698000Y-9736000D01*
X778000Y-9576000D02*
X778000Y-9736000D01*
X698000Y-9656000D02*
X858000Y-9656000D01*
X2140000Y-11018000D02*
X2300000Y-11178000D01*
X2300000Y-11018000D02*
X2140000Y-11178000D01*
X2220000Y-11018000D02*
X2220000Y-11178000D01*
X2140000Y-11098000D02*
X2300000Y-11098000D01*
X2314000Y-7662000D02*
X2474000Y-7822000D01*
X2474000Y-7662000D02*
X2314000Y-7822000D01*
X2394000Y-7662000D02*
X2394000Y-7822000D01*
X2314000Y-7742000D02*
X2474000Y-7742000D01*
X2314000Y-9912000D02*
X2474000Y-10072000D01*
X2474000Y-9912000D02*
X2314000Y-10072000D01*
X2394000Y-9912000D02*
X2394000Y-10072000D01*
X2314000Y-9992000D02*
X2474000Y-9992000D01*
X3516000Y-11018000D02*
X3676000Y-11178000D01*
X3676000Y-11018000D02*
X3516000Y-11178000D01*
X3596000Y-11018000D02*
X3596000Y-11178000D01*
X3516000Y-11098000D02*
X3676000Y-11098000D01*
X4571000Y-11018000D02*
X4731000Y-11178000D01*
X4731000Y-11018000D02*
X4571000Y-11178000D01*
X4651000Y-11018000D02*
X4651000Y-11178000D01*
X4571000Y-11098000D02*
X4731000Y-11098000D01*
X5197000Y-7662000D02*
X5357000Y-7822000D01*
X5357000Y-7662000D02*
X5197000Y-7822000D01*
X5277000Y-7662000D02*
X5277000Y-7822000D01*
X5197000Y-7742000D02*
X5357000Y-7742000D01*
X5197000Y-9912000D02*
X5357000Y-10072000D01*
X5357000Y-9912000D02*
X5197000Y-10072000D01*
X5277000Y-9912000D02*
X5277000Y-10072000D01*
X5197000Y-9992000D02*
X5357000Y-9992000D01*
X5627000Y-11018000D02*
X5787000Y-11178000D01*
X5787000Y-11018000D02*
X5627000Y-11178000D01*
X5707000Y-11018000D02*
X5707000Y-11178000D01*
X5627000Y-11098000D02*
X5787000Y-11098000D01*
X6715000Y-11018000D02*
X6875000Y-11178000D01*
X6875000Y-11018000D02*
X6715000Y-11178000D01*
X6795000Y-11018000D02*
X6795000Y-11178000D01*
X6715000Y-11098000D02*
X6875000Y-11098000D01*
X6910000Y-7662000D02*
X7070000Y-7822000D01*
X7070000Y-7662000D02*
X6910000Y-7822000D01*
X6990000Y-7662000D02*
X6990000Y-7822000D01*
X6910000Y-7742000D02*
X7070000Y-7742000D01*
X6910000Y-9912000D02*
X7070000Y-10072000D01*
X7070000Y-9912000D02*
X6910000Y-10072000D01*
X6990000Y-9912000D02*
X6990000Y-10072000D01*
X6910000Y-9992000D02*
X7070000Y-9992000D01*
X7754000Y-11018000D02*
X7914000Y-11178000D01*
X7914000Y-11018000D02*
X7754000Y-11178000D01*
X7834000Y-11018000D02*
X7834000Y-11178000D01*
X7754000Y-11098000D02*
X7914000Y-11098000D01*
X8651000Y-7662000D02*
X8811000Y-7822000D01*
X8811000Y-7662000D02*
X8651000Y-7822000D01*
X8731000Y-7662000D02*
X8731000Y-7822000D01*
X8651000Y-7742000D02*
X8811000Y-7742000D01*
X8651000Y-9912000D02*
X8811000Y-10072000D01*
X8811000Y-9912000D02*
X8651000Y-10072000D01*
X8731000Y-9912000D02*
X8731000Y-10072000D01*
X8651000Y-9992000D02*
X8811000Y-9992000D01*
X13112000Y-2150000D02*
X13272000Y-2310000D01*
X13272000Y-2150000D02*
X13112000Y-2310000D01*
X13192000Y-2150000D02*
X13192000Y-2310000D01*
X13112000Y-2230000D02*
X13272000Y-2230000D01*
X13112000Y-3097000D02*
X13272000Y-3257000D01*
X13272000Y-3097000D02*
X13112000Y-3257000D01*
X13192000Y-3097000D02*
X13192000Y-3257000D01*
X13112000Y-3177000D02*
X13272000Y-3177000D01*
X13112000Y-4054000D02*
X13272000Y-4214000D01*
X13272000Y-4054000D02*
X13112000Y-4214000D01*
X13192000Y-4054000D02*
X13192000Y-4214000D01*
X13112000Y-4134000D02*
X13272000Y-4134000D01*
X13112000Y-5257000D02*
X13272000Y-5417000D01*
X13272000Y-5257000D02*
X13112000Y-5417000D01*
X13192000Y-5257000D02*
X13192000Y-5417000D01*
X13112000Y-5337000D02*
X13272000Y-5337000D01*
X13112000Y-6247000D02*
X13272000Y-6407000D01*
X13272000Y-6247000D02*
X13112000Y-6407000D01*
X13192000Y-6247000D02*
X13192000Y-6407000D01*
X13112000Y-6327000D02*
X13272000Y-6327000D01*
X13112000Y-7199000D02*
X13272000Y-7359000D01*
X13272000Y-7199000D02*
X13112000Y-7359000D01*
X13192000Y-7199000D02*
X13192000Y-7359000D01*
X13112000Y-7279000D02*
X13272000Y-7279000D01*
X13112000Y-8542000D02*
X13272000Y-8702000D01*
X13272000Y-8542000D02*
X13112000Y-8702000D01*
X13192000Y-8542000D02*
X13192000Y-8702000D01*
X13112000Y-8622000D02*
X13272000Y-8622000D01*
X13112000Y-9473000D02*
X13272000Y-9633000D01*
X13272000Y-9473000D02*
X13112000Y-9633000D01*
X13192000Y-9473000D02*
X13192000Y-9633000D01*
X13112000Y-9553000D02*
X13272000Y-9553000D01*
D11*
X255777Y-12256484D02*
X255777Y-12056484D01*
X255777Y-12056484D02*
X303396Y-12056484D01*
X303396Y-12056484D02*
X331967Y-12066008D01*
X331967Y-12066008D02*
X351015Y-12085055D01*
X351015Y-12085055D02*
X360539Y-12104103D01*
X360539Y-12104103D02*
X370062Y-12142198D01*
X370062Y-12142198D02*
X370062Y-12170769D01*
X370062Y-12170769D02*
X360539Y-12208865D01*
X360539Y-12208865D02*
X351015Y-12227912D01*
X351015Y-12227912D02*
X331967Y-12246960D01*
X331967Y-12246960D02*
X303396Y-12256484D01*
X303396Y-12256484D02*
X255777Y-12256484D01*
X455777Y-12256484D02*
X455777Y-12123150D01*
X455777Y-12161246D02*
X465301Y-12142198D01*
X465301Y-12142198D02*
X474824Y-12132674D01*
X474824Y-12132674D02*
X493872Y-12123150D01*
X493872Y-12123150D02*
X512920Y-12123150D01*
X579586Y-12256484D02*
X579586Y-12123150D01*
X579586Y-12056484D02*
X570063Y-12066008D01*
X570063Y-12066008D02*
X579586Y-12075531D01*
X579586Y-12075531D02*
X589110Y-12066008D01*
X589110Y-12066008D02*
X579586Y-12056484D01*
X579586Y-12056484D02*
X579586Y-12075531D01*
X703396Y-12256484D02*
X684348Y-12246960D01*
X684348Y-12246960D02*
X674824Y-12227912D01*
X674824Y-12227912D02*
X674824Y-12056484D01*
X808158Y-12256484D02*
X789110Y-12246960D01*
X789110Y-12246960D02*
X779586Y-12227912D01*
X779586Y-12227912D02*
X779586Y-12056484D01*
X1036729Y-12256484D02*
X1036729Y-12056484D01*
X1036729Y-12056484D02*
X1103396Y-12199341D01*
X1103396Y-12199341D02*
X1170063Y-12056484D01*
X1170063Y-12056484D02*
X1170063Y-12256484D01*
X1351015Y-12256484D02*
X1351015Y-12151722D01*
X1351015Y-12151722D02*
X1341491Y-12132674D01*
X1341491Y-12132674D02*
X1322444Y-12123150D01*
X1322444Y-12123150D02*
X1284348Y-12123150D01*
X1284348Y-12123150D02*
X1265301Y-12132674D01*
X1351015Y-12246960D02*
X1331967Y-12256484D01*
X1331967Y-12256484D02*
X1284348Y-12256484D01*
X1284348Y-12256484D02*
X1265301Y-12246960D01*
X1265301Y-12246960D02*
X1255777Y-12227912D01*
X1255777Y-12227912D02*
X1255777Y-12208865D01*
X1255777Y-12208865D02*
X1265301Y-12189817D01*
X1265301Y-12189817D02*
X1284348Y-12180293D01*
X1284348Y-12180293D02*
X1331967Y-12180293D01*
X1331967Y-12180293D02*
X1351015Y-12170769D01*
X1446253Y-12123150D02*
X1446253Y-12323150D01*
X1446253Y-12132674D02*
X1465301Y-12123150D01*
X1465301Y-12123150D02*
X1503396Y-12123150D01*
X1503396Y-12123150D02*
X1522443Y-12132674D01*
X1522443Y-12132674D02*
X1531967Y-12142198D01*
X1531967Y-12142198D02*
X1541491Y-12161246D01*
X1541491Y-12161246D02*
X1541491Y-12218388D01*
X1541491Y-12218388D02*
X1531967Y-12237436D01*
X1531967Y-12237436D02*
X1522443Y-12246960D01*
X1522443Y-12246960D02*
X1503396Y-12256484D01*
X1503396Y-12256484D02*
X1465301Y-12256484D01*
X1465301Y-12256484D02*
X1446253Y-12246960D01*
X1627205Y-12237436D02*
X1636729Y-12246960D01*
X1636729Y-12246960D02*
X1627205Y-12256484D01*
X1627205Y-12256484D02*
X1617682Y-12246960D01*
X1617682Y-12246960D02*
X1627205Y-12237436D01*
X1627205Y-12237436D02*
X1627205Y-12256484D01*
X1627205Y-12132674D02*
X1636729Y-12142198D01*
X1636729Y-12142198D02*
X1627205Y-12151722D01*
X1627205Y-12151722D02*
X1617682Y-12142198D01*
X1617682Y-12142198D02*
X1627205Y-12132674D01*
X1627205Y-12132674D02*
X1627205Y-12151722D01*
D10*
X-35000Y-12570000D02*
X-5000Y-12600000D01*
X-5000Y-12570000D02*
X-35000Y-12600000D01*
D11*
X293872Y-12476484D02*
X312920Y-12476484D01*
X312920Y-12476484D02*
X331967Y-12486008D01*
X331967Y-12486008D02*
X341491Y-12495531D01*
X341491Y-12495531D02*
X351015Y-12514579D01*
X351015Y-12514579D02*
X360539Y-12552674D01*
X360539Y-12552674D02*
X360539Y-12600293D01*
X360539Y-12600293D02*
X351015Y-12638388D01*
X351015Y-12638388D02*
X341491Y-12657436D01*
X341491Y-12657436D02*
X331967Y-12666960D01*
X331967Y-12666960D02*
X312920Y-12676484D01*
X312920Y-12676484D02*
X293872Y-12676484D01*
X293872Y-12676484D02*
X274824Y-12666960D01*
X274824Y-12666960D02*
X265301Y-12657436D01*
X265301Y-12657436D02*
X255777Y-12638388D01*
X255777Y-12638388D02*
X246253Y-12600293D01*
X246253Y-12600293D02*
X246253Y-12552674D01*
X246253Y-12552674D02*
X255777Y-12514579D01*
X255777Y-12514579D02*
X265301Y-12495531D01*
X265301Y-12495531D02*
X274824Y-12486008D01*
X274824Y-12486008D02*
X293872Y-12476484D01*
X446253Y-12657436D02*
X455777Y-12666960D01*
X455777Y-12666960D02*
X446253Y-12676484D01*
X446253Y-12676484D02*
X436729Y-12666960D01*
X436729Y-12666960D02*
X446253Y-12657436D01*
X446253Y-12657436D02*
X446253Y-12676484D01*
X522443Y-12476484D02*
X646253Y-12476484D01*
X646253Y-12476484D02*
X579586Y-12552674D01*
X579586Y-12552674D02*
X608158Y-12552674D01*
X608158Y-12552674D02*
X627205Y-12562198D01*
X627205Y-12562198D02*
X636729Y-12571722D01*
X636729Y-12571722D02*
X646253Y-12590769D01*
X646253Y-12590769D02*
X646253Y-12638388D01*
X646253Y-12638388D02*
X636729Y-12657436D01*
X636729Y-12657436D02*
X627205Y-12666960D01*
X627205Y-12666960D02*
X608158Y-12676484D01*
X608158Y-12676484D02*
X551015Y-12676484D01*
X551015Y-12676484D02*
X531967Y-12666960D01*
X531967Y-12666960D02*
X522443Y-12657436D01*
X770062Y-12476484D02*
X789110Y-12476484D01*
X789110Y-12476484D02*
X808158Y-12486008D01*
X808158Y-12486008D02*
X817682Y-12495531D01*
X817682Y-12495531D02*
X827205Y-12514579D01*
X827205Y-12514579D02*
X836729Y-12552674D01*
X836729Y-12552674D02*
X836729Y-12600293D01*
X836729Y-12600293D02*
X827205Y-12638388D01*
X827205Y-12638388D02*
X817682Y-12657436D01*
X817682Y-12657436D02*
X808158Y-12666960D01*
X808158Y-12666960D02*
X789110Y-12676484D01*
X789110Y-12676484D02*
X770062Y-12676484D01*
X770062Y-12676484D02*
X751015Y-12666960D01*
X751015Y-12666960D02*
X741491Y-12657436D01*
X741491Y-12657436D02*
X731967Y-12638388D01*
X731967Y-12638388D02*
X722443Y-12600293D01*
X722443Y-12600293D02*
X722443Y-12552674D01*
X722443Y-12552674D02*
X731967Y-12514579D01*
X731967Y-12514579D02*
X741491Y-12495531D01*
X741491Y-12495531D02*
X751015Y-12486008D01*
X751015Y-12486008D02*
X770062Y-12476484D01*
X960539Y-12476484D02*
X979586Y-12476484D01*
X979586Y-12476484D02*
X998634Y-12486008D01*
X998634Y-12486008D02*
X1008158Y-12495531D01*
X1008158Y-12495531D02*
X1017682Y-12514579D01*
X1017682Y-12514579D02*
X1027205Y-12552674D01*
X1027205Y-12552674D02*
X1027205Y-12600293D01*
X1027205Y-12600293D02*
X1017682Y-12638388D01*
X1017682Y-12638388D02*
X1008158Y-12657436D01*
X1008158Y-12657436D02*
X998634Y-12666960D01*
X998634Y-12666960D02*
X979586Y-12676484D01*
X979586Y-12676484D02*
X960539Y-12676484D01*
X960539Y-12676484D02*
X941491Y-12666960D01*
X941491Y-12666960D02*
X931967Y-12657436D01*
X931967Y-12657436D02*
X922443Y-12638388D01*
X922443Y-12638388D02*
X912920Y-12600293D01*
X912920Y-12600293D02*
X912920Y-12552674D01*
X912920Y-12552674D02*
X922443Y-12514579D01*
X922443Y-12514579D02*
X931967Y-12495531D01*
X931967Y-12495531D02*
X941491Y-12486008D01*
X941491Y-12486008D02*
X960539Y-12476484D01*
X1112920Y-12676484D02*
X1112920Y-12543150D01*
X1112920Y-12562198D02*
X1122444Y-12552674D01*
X1122444Y-12552674D02*
X1141491Y-12543150D01*
X1141491Y-12543150D02*
X1170063Y-12543150D01*
X1170063Y-12543150D02*
X1189110Y-12552674D01*
X1189110Y-12552674D02*
X1198634Y-12571722D01*
X1198634Y-12571722D02*
X1198634Y-12676484D01*
X1198634Y-12571722D02*
X1208158Y-12552674D01*
X1208158Y-12552674D02*
X1227205Y-12543150D01*
X1227205Y-12543150D02*
X1255777Y-12543150D01*
X1255777Y-12543150D02*
X1274825Y-12552674D01*
X1274825Y-12552674D02*
X1284348Y-12571722D01*
X1284348Y-12571722D02*
X1284348Y-12676484D01*
X1379586Y-12676484D02*
X1379586Y-12543150D01*
X1379586Y-12562198D02*
X1389110Y-12552674D01*
X1389110Y-12552674D02*
X1408158Y-12543150D01*
X1408158Y-12543150D02*
X1436729Y-12543150D01*
X1436729Y-12543150D02*
X1455777Y-12552674D01*
X1455777Y-12552674D02*
X1465301Y-12571722D01*
X1465301Y-12571722D02*
X1465301Y-12676484D01*
X1465301Y-12571722D02*
X1474824Y-12552674D01*
X1474824Y-12552674D02*
X1493872Y-12543150D01*
X1493872Y-12543150D02*
X1522443Y-12543150D01*
X1522443Y-12543150D02*
X1541491Y-12552674D01*
X1541491Y-12552674D02*
X1551015Y-12571722D01*
X1551015Y-12571722D02*
X1551015Y-12676484D01*
X1941491Y-12466960D02*
X1770063Y-12724103D01*
X2198634Y-12476484D02*
X2217682Y-12476484D01*
X2217682Y-12476484D02*
X2236729Y-12486008D01*
X2236729Y-12486008D02*
X2246253Y-12495531D01*
X2246253Y-12495531D02*
X2255777Y-12514579D01*
X2255777Y-12514579D02*
X2265301Y-12552674D01*
X2265301Y-12552674D02*
X2265301Y-12600293D01*
X2265301Y-12600293D02*
X2255777Y-12638388D01*
X2255777Y-12638388D02*
X2246253Y-12657436D01*
X2246253Y-12657436D02*
X2236729Y-12666960D01*
X2236729Y-12666960D02*
X2217682Y-12676484D01*
X2217682Y-12676484D02*
X2198634Y-12676484D01*
X2198634Y-12676484D02*
X2179587Y-12666960D01*
X2179587Y-12666960D02*
X2170063Y-12657436D01*
X2170063Y-12657436D02*
X2160539Y-12638388D01*
X2160539Y-12638388D02*
X2151015Y-12600293D01*
X2151015Y-12600293D02*
X2151015Y-12552674D01*
X2151015Y-12552674D02*
X2160539Y-12514579D01*
X2160539Y-12514579D02*
X2170063Y-12495531D01*
X2170063Y-12495531D02*
X2179587Y-12486008D01*
X2179587Y-12486008D02*
X2198634Y-12476484D01*
X2351015Y-12657436D02*
X2360539Y-12666960D01*
X2360539Y-12666960D02*
X2351015Y-12676484D01*
X2351015Y-12676484D02*
X2341491Y-12666960D01*
X2341491Y-12666960D02*
X2351015Y-12657436D01*
X2351015Y-12657436D02*
X2351015Y-12676484D01*
X2484348Y-12476484D02*
X2503396Y-12476484D01*
X2503396Y-12476484D02*
X2522444Y-12486008D01*
X2522444Y-12486008D02*
X2531968Y-12495531D01*
X2531968Y-12495531D02*
X2541491Y-12514579D01*
X2541491Y-12514579D02*
X2551015Y-12552674D01*
X2551015Y-12552674D02*
X2551015Y-12600293D01*
X2551015Y-12600293D02*
X2541491Y-12638388D01*
X2541491Y-12638388D02*
X2531968Y-12657436D01*
X2531968Y-12657436D02*
X2522444Y-12666960D01*
X2522444Y-12666960D02*
X2503396Y-12676484D01*
X2503396Y-12676484D02*
X2484348Y-12676484D01*
X2484348Y-12676484D02*
X2465301Y-12666960D01*
X2465301Y-12666960D02*
X2455777Y-12657436D01*
X2455777Y-12657436D02*
X2446253Y-12638388D01*
X2446253Y-12638388D02*
X2436729Y-12600293D01*
X2436729Y-12600293D02*
X2436729Y-12552674D01*
X2436729Y-12552674D02*
X2446253Y-12514579D01*
X2446253Y-12514579D02*
X2455777Y-12495531D01*
X2455777Y-12495531D02*
X2465301Y-12486008D01*
X2465301Y-12486008D02*
X2484348Y-12476484D01*
X2741491Y-12676484D02*
X2627206Y-12676484D01*
X2684348Y-12676484D02*
X2684348Y-12476484D01*
X2684348Y-12476484D02*
X2665301Y-12505055D01*
X2665301Y-12505055D02*
X2646253Y-12524103D01*
X2646253Y-12524103D02*
X2627206Y-12533627D01*
X2931967Y-12676484D02*
X2817682Y-12676484D01*
X2874825Y-12676484D02*
X2874825Y-12476484D01*
X2874825Y-12476484D02*
X2855777Y-12505055D01*
X2855777Y-12505055D02*
X2836729Y-12524103D01*
X2836729Y-12524103D02*
X2817682Y-12533627D01*
X3046253Y-12562198D02*
X3027206Y-12552674D01*
X3027206Y-12552674D02*
X3017682Y-12543150D01*
X3017682Y-12543150D02*
X3008158Y-12524103D01*
X3008158Y-12524103D02*
X3008158Y-12514579D01*
X3008158Y-12514579D02*
X3017682Y-12495531D01*
X3017682Y-12495531D02*
X3027206Y-12486008D01*
X3027206Y-12486008D02*
X3046253Y-12476484D01*
X3046253Y-12476484D02*
X3084348Y-12476484D01*
X3084348Y-12476484D02*
X3103396Y-12486008D01*
X3103396Y-12486008D02*
X3112920Y-12495531D01*
X3112920Y-12495531D02*
X3122444Y-12514579D01*
X3122444Y-12514579D02*
X3122444Y-12524103D01*
X3122444Y-12524103D02*
X3112920Y-12543150D01*
X3112920Y-12543150D02*
X3103396Y-12552674D01*
X3103396Y-12552674D02*
X3084348Y-12562198D01*
X3084348Y-12562198D02*
X3046253Y-12562198D01*
X3046253Y-12562198D02*
X3027206Y-12571722D01*
X3027206Y-12571722D02*
X3017682Y-12581246D01*
X3017682Y-12581246D02*
X3008158Y-12600293D01*
X3008158Y-12600293D02*
X3008158Y-12638388D01*
X3008158Y-12638388D02*
X3017682Y-12657436D01*
X3017682Y-12657436D02*
X3027206Y-12666960D01*
X3027206Y-12666960D02*
X3046253Y-12676484D01*
X3046253Y-12676484D02*
X3084348Y-12676484D01*
X3084348Y-12676484D02*
X3103396Y-12666960D01*
X3103396Y-12666960D02*
X3112920Y-12657436D01*
X3112920Y-12657436D02*
X3122444Y-12638388D01*
X3122444Y-12638388D02*
X3122444Y-12600293D01*
X3122444Y-12600293D02*
X3112920Y-12581246D01*
X3112920Y-12581246D02*
X3103396Y-12571722D01*
X3103396Y-12571722D02*
X3084348Y-12562198D01*
X3198634Y-12476484D02*
X3198634Y-12514579D01*
X3274825Y-12476484D02*
X3274825Y-12514579D01*
X3570063Y-12752674D02*
X3560539Y-12743150D01*
X3560539Y-12743150D02*
X3541491Y-12714579D01*
X3541491Y-12714579D02*
X3531968Y-12695531D01*
X3531968Y-12695531D02*
X3522444Y-12666960D01*
X3522444Y-12666960D02*
X3512920Y-12619341D01*
X3512920Y-12619341D02*
X3512920Y-12581246D01*
X3512920Y-12581246D02*
X3522444Y-12533627D01*
X3522444Y-12533627D02*
X3531968Y-12505055D01*
X3531968Y-12505055D02*
X3541491Y-12486008D01*
X3541491Y-12486008D02*
X3560539Y-12457436D01*
X3560539Y-12457436D02*
X3570063Y-12447912D01*
X3751015Y-12676484D02*
X3636729Y-12676484D01*
X3693872Y-12676484D02*
X3693872Y-12476484D01*
X3693872Y-12476484D02*
X3674825Y-12505055D01*
X3674825Y-12505055D02*
X3655777Y-12524103D01*
X3655777Y-12524103D02*
X3636729Y-12533627D01*
X3827206Y-12495531D02*
X3836729Y-12486008D01*
X3836729Y-12486008D02*
X3855777Y-12476484D01*
X3855777Y-12476484D02*
X3903396Y-12476484D01*
X3903396Y-12476484D02*
X3922444Y-12486008D01*
X3922444Y-12486008D02*
X3931968Y-12495531D01*
X3931968Y-12495531D02*
X3941491Y-12514579D01*
X3941491Y-12514579D02*
X3941491Y-12533627D01*
X3941491Y-12533627D02*
X3931968Y-12562198D01*
X3931968Y-12562198D02*
X3817682Y-12676484D01*
X3817682Y-12676484D02*
X3941491Y-12676484D01*
X4179587Y-12676484D02*
X4179587Y-12476484D01*
X4265301Y-12676484D02*
X4265301Y-12571722D01*
X4265301Y-12571722D02*
X4255777Y-12552674D01*
X4255777Y-12552674D02*
X4236730Y-12543150D01*
X4236730Y-12543150D02*
X4208158Y-12543150D01*
X4208158Y-12543150D02*
X4189110Y-12552674D01*
X4189110Y-12552674D02*
X4179587Y-12562198D01*
X4389111Y-12676484D02*
X4370063Y-12666960D01*
X4370063Y-12666960D02*
X4360539Y-12657436D01*
X4360539Y-12657436D02*
X4351015Y-12638388D01*
X4351015Y-12638388D02*
X4351015Y-12581246D01*
X4351015Y-12581246D02*
X4360539Y-12562198D01*
X4360539Y-12562198D02*
X4370063Y-12552674D01*
X4370063Y-12552674D02*
X4389111Y-12543150D01*
X4389111Y-12543150D02*
X4417682Y-12543150D01*
X4417682Y-12543150D02*
X4436730Y-12552674D01*
X4436730Y-12552674D02*
X4446253Y-12562198D01*
X4446253Y-12562198D02*
X4455777Y-12581246D01*
X4455777Y-12581246D02*
X4455777Y-12638388D01*
X4455777Y-12638388D02*
X4446253Y-12657436D01*
X4446253Y-12657436D02*
X4436730Y-12666960D01*
X4436730Y-12666960D02*
X4417682Y-12676484D01*
X4417682Y-12676484D02*
X4389111Y-12676484D01*
X4570063Y-12676484D02*
X4551015Y-12666960D01*
X4551015Y-12666960D02*
X4541492Y-12647912D01*
X4541492Y-12647912D02*
X4541492Y-12476484D01*
X4722444Y-12666960D02*
X4703396Y-12676484D01*
X4703396Y-12676484D02*
X4665301Y-12676484D01*
X4665301Y-12676484D02*
X4646253Y-12666960D01*
X4646253Y-12666960D02*
X4636730Y-12647912D01*
X4636730Y-12647912D02*
X4636730Y-12571722D01*
X4636730Y-12571722D02*
X4646253Y-12552674D01*
X4646253Y-12552674D02*
X4665301Y-12543150D01*
X4665301Y-12543150D02*
X4703396Y-12543150D01*
X4703396Y-12543150D02*
X4722444Y-12552674D01*
X4722444Y-12552674D02*
X4731968Y-12571722D01*
X4731968Y-12571722D02*
X4731968Y-12590769D01*
X4731968Y-12590769D02*
X4636730Y-12609817D01*
X4808158Y-12666960D02*
X4827206Y-12676484D01*
X4827206Y-12676484D02*
X4865301Y-12676484D01*
X4865301Y-12676484D02*
X4884349Y-12666960D01*
X4884349Y-12666960D02*
X4893873Y-12647912D01*
X4893873Y-12647912D02*
X4893873Y-12638388D01*
X4893873Y-12638388D02*
X4884349Y-12619341D01*
X4884349Y-12619341D02*
X4865301Y-12609817D01*
X4865301Y-12609817D02*
X4836730Y-12609817D01*
X4836730Y-12609817D02*
X4817682Y-12600293D01*
X4817682Y-12600293D02*
X4808158Y-12581246D01*
X4808158Y-12581246D02*
X4808158Y-12571722D01*
X4808158Y-12571722D02*
X4817682Y-12552674D01*
X4817682Y-12552674D02*
X4836730Y-12543150D01*
X4836730Y-12543150D02*
X4865301Y-12543150D01*
X4865301Y-12543150D02*
X4884349Y-12552674D01*
X4960539Y-12752674D02*
X4970063Y-12743150D01*
X4970063Y-12743150D02*
X4989111Y-12714579D01*
X4989111Y-12714579D02*
X4998634Y-12695531D01*
X4998634Y-12695531D02*
X5008158Y-12666960D01*
X5008158Y-12666960D02*
X5017682Y-12619341D01*
X5017682Y-12619341D02*
X5017682Y-12581246D01*
X5017682Y-12581246D02*
X5008158Y-12533627D01*
X5008158Y-12533627D02*
X4998634Y-12505055D01*
X4998634Y-12505055D02*
X4989111Y-12486008D01*
X4989111Y-12486008D02*
X4970063Y-12457436D01*
X4970063Y-12457436D02*
X4960539Y-12447912D01*
D10*
X-5000Y-12849000D02*
G75*
G02*
X-40000Y-12849000I-17500J0D01*
G01*
X-40000Y-12849000D02*
G75*
G02*
X-5000Y-12849000I17500J0D01*
G01*
D11*
X293872Y-12740484D02*
X312920Y-12740484D01*
X312920Y-12740484D02*
X331967Y-12750008D01*
X331967Y-12750008D02*
X341491Y-12759531D01*
X341491Y-12759531D02*
X351015Y-12778579D01*
X351015Y-12778579D02*
X360539Y-12816674D01*
X360539Y-12816674D02*
X360539Y-12864293D01*
X360539Y-12864293D02*
X351015Y-12902388D01*
X351015Y-12902388D02*
X341491Y-12921436D01*
X341491Y-12921436D02*
X331967Y-12930960D01*
X331967Y-12930960D02*
X312920Y-12940484D01*
X312920Y-12940484D02*
X293872Y-12940484D01*
X293872Y-12940484D02*
X274824Y-12930960D01*
X274824Y-12930960D02*
X265301Y-12921436D01*
X265301Y-12921436D02*
X255777Y-12902388D01*
X255777Y-12902388D02*
X246253Y-12864293D01*
X246253Y-12864293D02*
X246253Y-12816674D01*
X246253Y-12816674D02*
X255777Y-12778579D01*
X255777Y-12778579D02*
X265301Y-12759531D01*
X265301Y-12759531D02*
X274824Y-12750008D01*
X274824Y-12750008D02*
X293872Y-12740484D01*
X446253Y-12921436D02*
X455777Y-12930960D01*
X455777Y-12930960D02*
X446253Y-12940484D01*
X446253Y-12940484D02*
X436729Y-12930960D01*
X436729Y-12930960D02*
X446253Y-12921436D01*
X446253Y-12921436D02*
X446253Y-12940484D01*
X522443Y-12740484D02*
X646253Y-12740484D01*
X646253Y-12740484D02*
X579586Y-12816674D01*
X579586Y-12816674D02*
X608158Y-12816674D01*
X608158Y-12816674D02*
X627205Y-12826198D01*
X627205Y-12826198D02*
X636729Y-12835722D01*
X636729Y-12835722D02*
X646253Y-12854769D01*
X646253Y-12854769D02*
X646253Y-12902388D01*
X646253Y-12902388D02*
X636729Y-12921436D01*
X636729Y-12921436D02*
X627205Y-12930960D01*
X627205Y-12930960D02*
X608158Y-12940484D01*
X608158Y-12940484D02*
X551015Y-12940484D01*
X551015Y-12940484D02*
X531967Y-12930960D01*
X531967Y-12930960D02*
X522443Y-12921436D01*
X827205Y-12740484D02*
X731967Y-12740484D01*
X731967Y-12740484D02*
X722443Y-12835722D01*
X722443Y-12835722D02*
X731967Y-12826198D01*
X731967Y-12826198D02*
X751015Y-12816674D01*
X751015Y-12816674D02*
X798634Y-12816674D01*
X798634Y-12816674D02*
X817682Y-12826198D01*
X817682Y-12826198D02*
X827205Y-12835722D01*
X827205Y-12835722D02*
X836729Y-12854769D01*
X836729Y-12854769D02*
X836729Y-12902388D01*
X836729Y-12902388D02*
X827205Y-12921436D01*
X827205Y-12921436D02*
X817682Y-12930960D01*
X817682Y-12930960D02*
X798634Y-12940484D01*
X798634Y-12940484D02*
X751015Y-12940484D01*
X751015Y-12940484D02*
X731967Y-12930960D01*
X731967Y-12930960D02*
X722443Y-12921436D01*
X960539Y-12740484D02*
X979586Y-12740484D01*
X979586Y-12740484D02*
X998634Y-12750008D01*
X998634Y-12750008D02*
X1008158Y-12759531D01*
X1008158Y-12759531D02*
X1017682Y-12778579D01*
X1017682Y-12778579D02*
X1027205Y-12816674D01*
X1027205Y-12816674D02*
X1027205Y-12864293D01*
X1027205Y-12864293D02*
X1017682Y-12902388D01*
X1017682Y-12902388D02*
X1008158Y-12921436D01*
X1008158Y-12921436D02*
X998634Y-12930960D01*
X998634Y-12930960D02*
X979586Y-12940484D01*
X979586Y-12940484D02*
X960539Y-12940484D01*
X960539Y-12940484D02*
X941491Y-12930960D01*
X941491Y-12930960D02*
X931967Y-12921436D01*
X931967Y-12921436D02*
X922443Y-12902388D01*
X922443Y-12902388D02*
X912920Y-12864293D01*
X912920Y-12864293D02*
X912920Y-12816674D01*
X912920Y-12816674D02*
X922443Y-12778579D01*
X922443Y-12778579D02*
X931967Y-12759531D01*
X931967Y-12759531D02*
X941491Y-12750008D01*
X941491Y-12750008D02*
X960539Y-12740484D01*
X1112920Y-12940484D02*
X1112920Y-12807150D01*
X1112920Y-12826198D02*
X1122444Y-12816674D01*
X1122444Y-12816674D02*
X1141491Y-12807150D01*
X1141491Y-12807150D02*
X1170063Y-12807150D01*
X1170063Y-12807150D02*
X1189110Y-12816674D01*
X1189110Y-12816674D02*
X1198634Y-12835722D01*
X1198634Y-12835722D02*
X1198634Y-12940484D01*
X1198634Y-12835722D02*
X1208158Y-12816674D01*
X1208158Y-12816674D02*
X1227205Y-12807150D01*
X1227205Y-12807150D02*
X1255777Y-12807150D01*
X1255777Y-12807150D02*
X1274825Y-12816674D01*
X1274825Y-12816674D02*
X1284348Y-12835722D01*
X1284348Y-12835722D02*
X1284348Y-12940484D01*
X1379586Y-12940484D02*
X1379586Y-12807150D01*
X1379586Y-12826198D02*
X1389110Y-12816674D01*
X1389110Y-12816674D02*
X1408158Y-12807150D01*
X1408158Y-12807150D02*
X1436729Y-12807150D01*
X1436729Y-12807150D02*
X1455777Y-12816674D01*
X1455777Y-12816674D02*
X1465301Y-12835722D01*
X1465301Y-12835722D02*
X1465301Y-12940484D01*
X1465301Y-12835722D02*
X1474824Y-12816674D01*
X1474824Y-12816674D02*
X1493872Y-12807150D01*
X1493872Y-12807150D02*
X1522443Y-12807150D01*
X1522443Y-12807150D02*
X1541491Y-12816674D01*
X1541491Y-12816674D02*
X1551015Y-12835722D01*
X1551015Y-12835722D02*
X1551015Y-12940484D01*
X1941491Y-12730960D02*
X1770063Y-12988103D01*
X2198634Y-12740484D02*
X2217682Y-12740484D01*
X2217682Y-12740484D02*
X2236729Y-12750008D01*
X2236729Y-12750008D02*
X2246253Y-12759531D01*
X2246253Y-12759531D02*
X2255777Y-12778579D01*
X2255777Y-12778579D02*
X2265301Y-12816674D01*
X2265301Y-12816674D02*
X2265301Y-12864293D01*
X2265301Y-12864293D02*
X2255777Y-12902388D01*
X2255777Y-12902388D02*
X2246253Y-12921436D01*
X2246253Y-12921436D02*
X2236729Y-12930960D01*
X2236729Y-12930960D02*
X2217682Y-12940484D01*
X2217682Y-12940484D02*
X2198634Y-12940484D01*
X2198634Y-12940484D02*
X2179587Y-12930960D01*
X2179587Y-12930960D02*
X2170063Y-12921436D01*
X2170063Y-12921436D02*
X2160539Y-12902388D01*
X2160539Y-12902388D02*
X2151015Y-12864293D01*
X2151015Y-12864293D02*
X2151015Y-12816674D01*
X2151015Y-12816674D02*
X2160539Y-12778579D01*
X2160539Y-12778579D02*
X2170063Y-12759531D01*
X2170063Y-12759531D02*
X2179587Y-12750008D01*
X2179587Y-12750008D02*
X2198634Y-12740484D01*
X2351015Y-12921436D02*
X2360539Y-12930960D01*
X2360539Y-12930960D02*
X2351015Y-12940484D01*
X2351015Y-12940484D02*
X2341491Y-12930960D01*
X2341491Y-12930960D02*
X2351015Y-12921436D01*
X2351015Y-12921436D02*
X2351015Y-12940484D01*
X2484348Y-12740484D02*
X2503396Y-12740484D01*
X2503396Y-12740484D02*
X2522444Y-12750008D01*
X2522444Y-12750008D02*
X2531968Y-12759531D01*
X2531968Y-12759531D02*
X2541491Y-12778579D01*
X2541491Y-12778579D02*
X2551015Y-12816674D01*
X2551015Y-12816674D02*
X2551015Y-12864293D01*
X2551015Y-12864293D02*
X2541491Y-12902388D01*
X2541491Y-12902388D02*
X2531968Y-12921436D01*
X2531968Y-12921436D02*
X2522444Y-12930960D01*
X2522444Y-12930960D02*
X2503396Y-12940484D01*
X2503396Y-12940484D02*
X2484348Y-12940484D01*
X2484348Y-12940484D02*
X2465301Y-12930960D01*
X2465301Y-12930960D02*
X2455777Y-12921436D01*
X2455777Y-12921436D02*
X2446253Y-12902388D01*
X2446253Y-12902388D02*
X2436729Y-12864293D01*
X2436729Y-12864293D02*
X2436729Y-12816674D01*
X2436729Y-12816674D02*
X2446253Y-12778579D01*
X2446253Y-12778579D02*
X2455777Y-12759531D01*
X2455777Y-12759531D02*
X2465301Y-12750008D01*
X2465301Y-12750008D02*
X2484348Y-12740484D01*
X2741491Y-12940484D02*
X2627206Y-12940484D01*
X2684348Y-12940484D02*
X2684348Y-12740484D01*
X2684348Y-12740484D02*
X2665301Y-12769055D01*
X2665301Y-12769055D02*
X2646253Y-12788103D01*
X2646253Y-12788103D02*
X2627206Y-12797627D01*
X2808158Y-12740484D02*
X2931967Y-12740484D01*
X2931967Y-12740484D02*
X2865301Y-12816674D01*
X2865301Y-12816674D02*
X2893872Y-12816674D01*
X2893872Y-12816674D02*
X2912920Y-12826198D01*
X2912920Y-12826198D02*
X2922444Y-12835722D01*
X2922444Y-12835722D02*
X2931967Y-12854769D01*
X2931967Y-12854769D02*
X2931967Y-12902388D01*
X2931967Y-12902388D02*
X2922444Y-12921436D01*
X2922444Y-12921436D02*
X2912920Y-12930960D01*
X2912920Y-12930960D02*
X2893872Y-12940484D01*
X2893872Y-12940484D02*
X2836729Y-12940484D01*
X2836729Y-12940484D02*
X2817682Y-12930960D01*
X2817682Y-12930960D02*
X2808158Y-12921436D01*
X3046253Y-12826198D02*
X3027206Y-12816674D01*
X3027206Y-12816674D02*
X3017682Y-12807150D01*
X3017682Y-12807150D02*
X3008158Y-12788103D01*
X3008158Y-12788103D02*
X3008158Y-12778579D01*
X3008158Y-12778579D02*
X3017682Y-12759531D01*
X3017682Y-12759531D02*
X3027206Y-12750008D01*
X3027206Y-12750008D02*
X3046253Y-12740484D01*
X3046253Y-12740484D02*
X3084348Y-12740484D01*
X3084348Y-12740484D02*
X3103396Y-12750008D01*
X3103396Y-12750008D02*
X3112920Y-12759531D01*
X3112920Y-12759531D02*
X3122444Y-12778579D01*
X3122444Y-12778579D02*
X3122444Y-12788103D01*
X3122444Y-12788103D02*
X3112920Y-12807150D01*
X3112920Y-12807150D02*
X3103396Y-12816674D01*
X3103396Y-12816674D02*
X3084348Y-12826198D01*
X3084348Y-12826198D02*
X3046253Y-12826198D01*
X3046253Y-12826198D02*
X3027206Y-12835722D01*
X3027206Y-12835722D02*
X3017682Y-12845246D01*
X3017682Y-12845246D02*
X3008158Y-12864293D01*
X3008158Y-12864293D02*
X3008158Y-12902388D01*
X3008158Y-12902388D02*
X3017682Y-12921436D01*
X3017682Y-12921436D02*
X3027206Y-12930960D01*
X3027206Y-12930960D02*
X3046253Y-12940484D01*
X3046253Y-12940484D02*
X3084348Y-12940484D01*
X3084348Y-12940484D02*
X3103396Y-12930960D01*
X3103396Y-12930960D02*
X3112920Y-12921436D01*
X3112920Y-12921436D02*
X3122444Y-12902388D01*
X3122444Y-12902388D02*
X3122444Y-12864293D01*
X3122444Y-12864293D02*
X3112920Y-12845246D01*
X3112920Y-12845246D02*
X3103396Y-12835722D01*
X3103396Y-12835722D02*
X3084348Y-12826198D01*
X3198634Y-12740484D02*
X3198634Y-12778579D01*
X3274825Y-12740484D02*
X3274825Y-12778579D01*
X3570063Y-13016674D02*
X3560539Y-13007150D01*
X3560539Y-13007150D02*
X3541491Y-12978579D01*
X3541491Y-12978579D02*
X3531968Y-12959531D01*
X3531968Y-12959531D02*
X3522444Y-12930960D01*
X3522444Y-12930960D02*
X3512920Y-12883341D01*
X3512920Y-12883341D02*
X3512920Y-12845246D01*
X3512920Y-12845246D02*
X3522444Y-12797627D01*
X3522444Y-12797627D02*
X3531968Y-12769055D01*
X3531968Y-12769055D02*
X3541491Y-12750008D01*
X3541491Y-12750008D02*
X3560539Y-12721436D01*
X3560539Y-12721436D02*
X3570063Y-12711912D01*
X3731968Y-12807150D02*
X3731968Y-12940484D01*
X3684348Y-12730960D02*
X3636729Y-12873817D01*
X3636729Y-12873817D02*
X3760539Y-12873817D01*
X3989110Y-12940484D02*
X3989110Y-12740484D01*
X4074825Y-12940484D02*
X4074825Y-12835722D01*
X4074825Y-12835722D02*
X4065301Y-12816674D01*
X4065301Y-12816674D02*
X4046253Y-12807150D01*
X4046253Y-12807150D02*
X4017682Y-12807150D01*
X4017682Y-12807150D02*
X3998634Y-12816674D01*
X3998634Y-12816674D02*
X3989110Y-12826198D01*
X4198634Y-12940484D02*
X4179587Y-12930960D01*
X4179587Y-12930960D02*
X4170063Y-12921436D01*
X4170063Y-12921436D02*
X4160539Y-12902388D01*
X4160539Y-12902388D02*
X4160539Y-12845246D01*
X4160539Y-12845246D02*
X4170063Y-12826198D01*
X4170063Y-12826198D02*
X4179587Y-12816674D01*
X4179587Y-12816674D02*
X4198634Y-12807150D01*
X4198634Y-12807150D02*
X4227206Y-12807150D01*
X4227206Y-12807150D02*
X4246253Y-12816674D01*
X4246253Y-12816674D02*
X4255777Y-12826198D01*
X4255777Y-12826198D02*
X4265301Y-12845246D01*
X4265301Y-12845246D02*
X4265301Y-12902388D01*
X4265301Y-12902388D02*
X4255777Y-12921436D01*
X4255777Y-12921436D02*
X4246253Y-12930960D01*
X4246253Y-12930960D02*
X4227206Y-12940484D01*
X4227206Y-12940484D02*
X4198634Y-12940484D01*
X4379587Y-12940484D02*
X4360539Y-12930960D01*
X4360539Y-12930960D02*
X4351015Y-12911912D01*
X4351015Y-12911912D02*
X4351015Y-12740484D01*
X4531968Y-12930960D02*
X4512920Y-12940484D01*
X4512920Y-12940484D02*
X4474825Y-12940484D01*
X4474825Y-12940484D02*
X4455777Y-12930960D01*
X4455777Y-12930960D02*
X4446253Y-12911912D01*
X4446253Y-12911912D02*
X4446253Y-12835722D01*
X4446253Y-12835722D02*
X4455777Y-12816674D01*
X4455777Y-12816674D02*
X4474825Y-12807150D01*
X4474825Y-12807150D02*
X4512920Y-12807150D01*
X4512920Y-12807150D02*
X4531968Y-12816674D01*
X4531968Y-12816674D02*
X4541492Y-12835722D01*
X4541492Y-12835722D02*
X4541492Y-12854769D01*
X4541492Y-12854769D02*
X4446253Y-12873817D01*
X4617682Y-12930960D02*
X4636730Y-12940484D01*
X4636730Y-12940484D02*
X4674825Y-12940484D01*
X4674825Y-12940484D02*
X4693873Y-12930960D01*
X4693873Y-12930960D02*
X4703396Y-12911912D01*
X4703396Y-12911912D02*
X4703396Y-12902388D01*
X4703396Y-12902388D02*
X4693873Y-12883341D01*
X4693873Y-12883341D02*
X4674825Y-12873817D01*
X4674825Y-12873817D02*
X4646253Y-12873817D01*
X4646253Y-12873817D02*
X4627206Y-12864293D01*
X4627206Y-12864293D02*
X4617682Y-12845246D01*
X4617682Y-12845246D02*
X4617682Y-12835722D01*
X4617682Y-12835722D02*
X4627206Y-12816674D01*
X4627206Y-12816674D02*
X4646253Y-12807150D01*
X4646253Y-12807150D02*
X4674825Y-12807150D01*
X4674825Y-12807150D02*
X4693873Y-12816674D01*
X4770063Y-13016674D02*
X4779587Y-13007150D01*
X4779587Y-13007150D02*
X4798634Y-12978579D01*
X4798634Y-12978579D02*
X4808158Y-12959531D01*
X4808158Y-12959531D02*
X4817682Y-12930960D01*
X4817682Y-12930960D02*
X4827206Y-12883341D01*
X4827206Y-12883341D02*
X4827206Y-12845246D01*
X4827206Y-12845246D02*
X4817682Y-12797627D01*
X4817682Y-12797627D02*
X4808158Y-12769055D01*
X4808158Y-12769055D02*
X4798634Y-12750008D01*
X4798634Y-12750008D02*
X4779587Y-12721436D01*
X4779587Y-12721436D02*
X4770063Y-12711912D01*
D10*
X-45000Y-13073000D02*
X-45000Y-13153000D01*
X-85000Y-13113000D02*
X-5000Y-13113000D01*
D11*
X293872Y-13004484D02*
X312920Y-13004484D01*
X312920Y-13004484D02*
X331967Y-13014008D01*
X331967Y-13014008D02*
X341491Y-13023531D01*
X341491Y-13023531D02*
X351015Y-13042579D01*
X351015Y-13042579D02*
X360539Y-13080674D01*
X360539Y-13080674D02*
X360539Y-13128293D01*
X360539Y-13128293D02*
X351015Y-13166388D01*
X351015Y-13166388D02*
X341491Y-13185436D01*
X341491Y-13185436D02*
X331967Y-13194960D01*
X331967Y-13194960D02*
X312920Y-13204484D01*
X312920Y-13204484D02*
X293872Y-13204484D01*
X293872Y-13204484D02*
X274824Y-13194960D01*
X274824Y-13194960D02*
X265301Y-13185436D01*
X265301Y-13185436D02*
X255777Y-13166388D01*
X255777Y-13166388D02*
X246253Y-13128293D01*
X246253Y-13128293D02*
X246253Y-13080674D01*
X246253Y-13080674D02*
X255777Y-13042579D01*
X255777Y-13042579D02*
X265301Y-13023531D01*
X265301Y-13023531D02*
X274824Y-13014008D01*
X274824Y-13014008D02*
X293872Y-13004484D01*
X446253Y-13185436D02*
X455777Y-13194960D01*
X455777Y-13194960D02*
X446253Y-13204484D01*
X446253Y-13204484D02*
X436729Y-13194960D01*
X436729Y-13194960D02*
X446253Y-13185436D01*
X446253Y-13185436D02*
X446253Y-13204484D01*
X570063Y-13090198D02*
X551015Y-13080674D01*
X551015Y-13080674D02*
X541491Y-13071150D01*
X541491Y-13071150D02*
X531967Y-13052103D01*
X531967Y-13052103D02*
X531967Y-13042579D01*
X531967Y-13042579D02*
X541491Y-13023531D01*
X541491Y-13023531D02*
X551015Y-13014008D01*
X551015Y-13014008D02*
X570063Y-13004484D01*
X570063Y-13004484D02*
X608158Y-13004484D01*
X608158Y-13004484D02*
X627205Y-13014008D01*
X627205Y-13014008D02*
X636729Y-13023531D01*
X636729Y-13023531D02*
X646253Y-13042579D01*
X646253Y-13042579D02*
X646253Y-13052103D01*
X646253Y-13052103D02*
X636729Y-13071150D01*
X636729Y-13071150D02*
X627205Y-13080674D01*
X627205Y-13080674D02*
X608158Y-13090198D01*
X608158Y-13090198D02*
X570063Y-13090198D01*
X570063Y-13090198D02*
X551015Y-13099722D01*
X551015Y-13099722D02*
X541491Y-13109246D01*
X541491Y-13109246D02*
X531967Y-13128293D01*
X531967Y-13128293D02*
X531967Y-13166388D01*
X531967Y-13166388D02*
X541491Y-13185436D01*
X541491Y-13185436D02*
X551015Y-13194960D01*
X551015Y-13194960D02*
X570063Y-13204484D01*
X570063Y-13204484D02*
X608158Y-13204484D01*
X608158Y-13204484D02*
X627205Y-13194960D01*
X627205Y-13194960D02*
X636729Y-13185436D01*
X636729Y-13185436D02*
X646253Y-13166388D01*
X646253Y-13166388D02*
X646253Y-13128293D01*
X646253Y-13128293D02*
X636729Y-13109246D01*
X636729Y-13109246D02*
X627205Y-13099722D01*
X627205Y-13099722D02*
X608158Y-13090198D01*
X770062Y-13004484D02*
X789110Y-13004484D01*
X789110Y-13004484D02*
X808158Y-13014008D01*
X808158Y-13014008D02*
X817682Y-13023531D01*
X817682Y-13023531D02*
X827205Y-13042579D01*
X827205Y-13042579D02*
X836729Y-13080674D01*
X836729Y-13080674D02*
X836729Y-13128293D01*
X836729Y-13128293D02*
X827205Y-13166388D01*
X827205Y-13166388D02*
X817682Y-13185436D01*
X817682Y-13185436D02*
X808158Y-13194960D01*
X808158Y-13194960D02*
X789110Y-13204484D01*
X789110Y-13204484D02*
X770062Y-13204484D01*
X770062Y-13204484D02*
X751015Y-13194960D01*
X751015Y-13194960D02*
X741491Y-13185436D01*
X741491Y-13185436D02*
X731967Y-13166388D01*
X731967Y-13166388D02*
X722443Y-13128293D01*
X722443Y-13128293D02*
X722443Y-13080674D01*
X722443Y-13080674D02*
X731967Y-13042579D01*
X731967Y-13042579D02*
X741491Y-13023531D01*
X741491Y-13023531D02*
X751015Y-13014008D01*
X751015Y-13014008D02*
X770062Y-13004484D01*
X960539Y-13004484D02*
X979586Y-13004484D01*
X979586Y-13004484D02*
X998634Y-13014008D01*
X998634Y-13014008D02*
X1008158Y-13023531D01*
X1008158Y-13023531D02*
X1017682Y-13042579D01*
X1017682Y-13042579D02*
X1027205Y-13080674D01*
X1027205Y-13080674D02*
X1027205Y-13128293D01*
X1027205Y-13128293D02*
X1017682Y-13166388D01*
X1017682Y-13166388D02*
X1008158Y-13185436D01*
X1008158Y-13185436D02*
X998634Y-13194960D01*
X998634Y-13194960D02*
X979586Y-13204484D01*
X979586Y-13204484D02*
X960539Y-13204484D01*
X960539Y-13204484D02*
X941491Y-13194960D01*
X941491Y-13194960D02*
X931967Y-13185436D01*
X931967Y-13185436D02*
X922443Y-13166388D01*
X922443Y-13166388D02*
X912920Y-13128293D01*
X912920Y-13128293D02*
X912920Y-13080674D01*
X912920Y-13080674D02*
X922443Y-13042579D01*
X922443Y-13042579D02*
X931967Y-13023531D01*
X931967Y-13023531D02*
X941491Y-13014008D01*
X941491Y-13014008D02*
X960539Y-13004484D01*
X1112920Y-13204484D02*
X1112920Y-13071150D01*
X1112920Y-13090198D02*
X1122444Y-13080674D01*
X1122444Y-13080674D02*
X1141491Y-13071150D01*
X1141491Y-13071150D02*
X1170063Y-13071150D01*
X1170063Y-13071150D02*
X1189110Y-13080674D01*
X1189110Y-13080674D02*
X1198634Y-13099722D01*
X1198634Y-13099722D02*
X1198634Y-13204484D01*
X1198634Y-13099722D02*
X1208158Y-13080674D01*
X1208158Y-13080674D02*
X1227205Y-13071150D01*
X1227205Y-13071150D02*
X1255777Y-13071150D01*
X1255777Y-13071150D02*
X1274825Y-13080674D01*
X1274825Y-13080674D02*
X1284348Y-13099722D01*
X1284348Y-13099722D02*
X1284348Y-13204484D01*
X1379586Y-13204484D02*
X1379586Y-13071150D01*
X1379586Y-13090198D02*
X1389110Y-13080674D01*
X1389110Y-13080674D02*
X1408158Y-13071150D01*
X1408158Y-13071150D02*
X1436729Y-13071150D01*
X1436729Y-13071150D02*
X1455777Y-13080674D01*
X1455777Y-13080674D02*
X1465301Y-13099722D01*
X1465301Y-13099722D02*
X1465301Y-13204484D01*
X1465301Y-13099722D02*
X1474824Y-13080674D01*
X1474824Y-13080674D02*
X1493872Y-13071150D01*
X1493872Y-13071150D02*
X1522443Y-13071150D01*
X1522443Y-13071150D02*
X1541491Y-13080674D01*
X1541491Y-13080674D02*
X1551015Y-13099722D01*
X1551015Y-13099722D02*
X1551015Y-13204484D01*
X1941491Y-12994960D02*
X1770063Y-13252103D01*
X2198634Y-13004484D02*
X2217682Y-13004484D01*
X2217682Y-13004484D02*
X2236729Y-13014008D01*
X2236729Y-13014008D02*
X2246253Y-13023531D01*
X2246253Y-13023531D02*
X2255777Y-13042579D01*
X2255777Y-13042579D02*
X2265301Y-13080674D01*
X2265301Y-13080674D02*
X2265301Y-13128293D01*
X2265301Y-13128293D02*
X2255777Y-13166388D01*
X2255777Y-13166388D02*
X2246253Y-13185436D01*
X2246253Y-13185436D02*
X2236729Y-13194960D01*
X2236729Y-13194960D02*
X2217682Y-13204484D01*
X2217682Y-13204484D02*
X2198634Y-13204484D01*
X2198634Y-13204484D02*
X2179587Y-13194960D01*
X2179587Y-13194960D02*
X2170063Y-13185436D01*
X2170063Y-13185436D02*
X2160539Y-13166388D01*
X2160539Y-13166388D02*
X2151015Y-13128293D01*
X2151015Y-13128293D02*
X2151015Y-13080674D01*
X2151015Y-13080674D02*
X2160539Y-13042579D01*
X2160539Y-13042579D02*
X2170063Y-13023531D01*
X2170063Y-13023531D02*
X2179587Y-13014008D01*
X2179587Y-13014008D02*
X2198634Y-13004484D01*
X2351015Y-13185436D02*
X2360539Y-13194960D01*
X2360539Y-13194960D02*
X2351015Y-13204484D01*
X2351015Y-13204484D02*
X2341491Y-13194960D01*
X2341491Y-13194960D02*
X2351015Y-13185436D01*
X2351015Y-13185436D02*
X2351015Y-13204484D01*
X2484348Y-13004484D02*
X2503396Y-13004484D01*
X2503396Y-13004484D02*
X2522444Y-13014008D01*
X2522444Y-13014008D02*
X2531968Y-13023531D01*
X2531968Y-13023531D02*
X2541491Y-13042579D01*
X2541491Y-13042579D02*
X2551015Y-13080674D01*
X2551015Y-13080674D02*
X2551015Y-13128293D01*
X2551015Y-13128293D02*
X2541491Y-13166388D01*
X2541491Y-13166388D02*
X2531968Y-13185436D01*
X2531968Y-13185436D02*
X2522444Y-13194960D01*
X2522444Y-13194960D02*
X2503396Y-13204484D01*
X2503396Y-13204484D02*
X2484348Y-13204484D01*
X2484348Y-13204484D02*
X2465301Y-13194960D01*
X2465301Y-13194960D02*
X2455777Y-13185436D01*
X2455777Y-13185436D02*
X2446253Y-13166388D01*
X2446253Y-13166388D02*
X2436729Y-13128293D01*
X2436729Y-13128293D02*
X2436729Y-13080674D01*
X2436729Y-13080674D02*
X2446253Y-13042579D01*
X2446253Y-13042579D02*
X2455777Y-13023531D01*
X2455777Y-13023531D02*
X2465301Y-13014008D01*
X2465301Y-13014008D02*
X2484348Y-13004484D01*
X2617682Y-13004484D02*
X2741491Y-13004484D01*
X2741491Y-13004484D02*
X2674825Y-13080674D01*
X2674825Y-13080674D02*
X2703396Y-13080674D01*
X2703396Y-13080674D02*
X2722444Y-13090198D01*
X2722444Y-13090198D02*
X2731968Y-13099722D01*
X2731968Y-13099722D02*
X2741491Y-13118769D01*
X2741491Y-13118769D02*
X2741491Y-13166388D01*
X2741491Y-13166388D02*
X2731968Y-13185436D01*
X2731968Y-13185436D02*
X2722444Y-13194960D01*
X2722444Y-13194960D02*
X2703396Y-13204484D01*
X2703396Y-13204484D02*
X2646253Y-13204484D01*
X2646253Y-13204484D02*
X2627206Y-13194960D01*
X2627206Y-13194960D02*
X2617682Y-13185436D01*
X2931967Y-13204484D02*
X2817682Y-13204484D01*
X2874825Y-13204484D02*
X2874825Y-13004484D01*
X2874825Y-13004484D02*
X2855777Y-13033055D01*
X2855777Y-13033055D02*
X2836729Y-13052103D01*
X2836729Y-13052103D02*
X2817682Y-13061627D01*
X3112920Y-13004484D02*
X3017682Y-13004484D01*
X3017682Y-13004484D02*
X3008158Y-13099722D01*
X3008158Y-13099722D02*
X3017682Y-13090198D01*
X3017682Y-13090198D02*
X3036729Y-13080674D01*
X3036729Y-13080674D02*
X3084348Y-13080674D01*
X3084348Y-13080674D02*
X3103396Y-13090198D01*
X3103396Y-13090198D02*
X3112920Y-13099722D01*
X3112920Y-13099722D02*
X3122444Y-13118769D01*
X3122444Y-13118769D02*
X3122444Y-13166388D01*
X3122444Y-13166388D02*
X3112920Y-13185436D01*
X3112920Y-13185436D02*
X3103396Y-13194960D01*
X3103396Y-13194960D02*
X3084348Y-13204484D01*
X3084348Y-13204484D02*
X3036729Y-13204484D01*
X3036729Y-13204484D02*
X3017682Y-13194960D01*
X3017682Y-13194960D02*
X3008158Y-13185436D01*
X3198634Y-13004484D02*
X3198634Y-13042579D01*
X3274825Y-13004484D02*
X3274825Y-13042579D01*
X3570063Y-13280674D02*
X3560539Y-13271150D01*
X3560539Y-13271150D02*
X3541491Y-13242579D01*
X3541491Y-13242579D02*
X3531968Y-13223531D01*
X3531968Y-13223531D02*
X3522444Y-13194960D01*
X3522444Y-13194960D02*
X3512920Y-13147341D01*
X3512920Y-13147341D02*
X3512920Y-13109246D01*
X3512920Y-13109246D02*
X3522444Y-13061627D01*
X3522444Y-13061627D02*
X3531968Y-13033055D01*
X3531968Y-13033055D02*
X3541491Y-13014008D01*
X3541491Y-13014008D02*
X3560539Y-12985436D01*
X3560539Y-12985436D02*
X3570063Y-12975912D01*
X3731968Y-13071150D02*
X3731968Y-13204484D01*
X3684348Y-12994960D02*
X3636729Y-13137817D01*
X3636729Y-13137817D02*
X3760539Y-13137817D01*
X3827206Y-13023531D02*
X3836729Y-13014008D01*
X3836729Y-13014008D02*
X3855777Y-13004484D01*
X3855777Y-13004484D02*
X3903396Y-13004484D01*
X3903396Y-13004484D02*
X3922444Y-13014008D01*
X3922444Y-13014008D02*
X3931968Y-13023531D01*
X3931968Y-13023531D02*
X3941491Y-13042579D01*
X3941491Y-13042579D02*
X3941491Y-13061627D01*
X3941491Y-13061627D02*
X3931968Y-13090198D01*
X3931968Y-13090198D02*
X3817682Y-13204484D01*
X3817682Y-13204484D02*
X3941491Y-13204484D01*
X4179587Y-13204484D02*
X4179587Y-13004484D01*
X4265301Y-13204484D02*
X4265301Y-13099722D01*
X4265301Y-13099722D02*
X4255777Y-13080674D01*
X4255777Y-13080674D02*
X4236730Y-13071150D01*
X4236730Y-13071150D02*
X4208158Y-13071150D01*
X4208158Y-13071150D02*
X4189110Y-13080674D01*
X4189110Y-13080674D02*
X4179587Y-13090198D01*
X4389111Y-13204484D02*
X4370063Y-13194960D01*
X4370063Y-13194960D02*
X4360539Y-13185436D01*
X4360539Y-13185436D02*
X4351015Y-13166388D01*
X4351015Y-13166388D02*
X4351015Y-13109246D01*
X4351015Y-13109246D02*
X4360539Y-13090198D01*
X4360539Y-13090198D02*
X4370063Y-13080674D01*
X4370063Y-13080674D02*
X4389111Y-13071150D01*
X4389111Y-13071150D02*
X4417682Y-13071150D01*
X4417682Y-13071150D02*
X4436730Y-13080674D01*
X4436730Y-13080674D02*
X4446253Y-13090198D01*
X4446253Y-13090198D02*
X4455777Y-13109246D01*
X4455777Y-13109246D02*
X4455777Y-13166388D01*
X4455777Y-13166388D02*
X4446253Y-13185436D01*
X4446253Y-13185436D02*
X4436730Y-13194960D01*
X4436730Y-13194960D02*
X4417682Y-13204484D01*
X4417682Y-13204484D02*
X4389111Y-13204484D01*
X4570063Y-13204484D02*
X4551015Y-13194960D01*
X4551015Y-13194960D02*
X4541492Y-13175912D01*
X4541492Y-13175912D02*
X4541492Y-13004484D01*
X4722444Y-13194960D02*
X4703396Y-13204484D01*
X4703396Y-13204484D02*
X4665301Y-13204484D01*
X4665301Y-13204484D02*
X4646253Y-13194960D01*
X4646253Y-13194960D02*
X4636730Y-13175912D01*
X4636730Y-13175912D02*
X4636730Y-13099722D01*
X4636730Y-13099722D02*
X4646253Y-13080674D01*
X4646253Y-13080674D02*
X4665301Y-13071150D01*
X4665301Y-13071150D02*
X4703396Y-13071150D01*
X4703396Y-13071150D02*
X4722444Y-13080674D01*
X4722444Y-13080674D02*
X4731968Y-13099722D01*
X4731968Y-13099722D02*
X4731968Y-13118769D01*
X4731968Y-13118769D02*
X4636730Y-13137817D01*
X4808158Y-13194960D02*
X4827206Y-13204484D01*
X4827206Y-13204484D02*
X4865301Y-13204484D01*
X4865301Y-13204484D02*
X4884349Y-13194960D01*
X4884349Y-13194960D02*
X4893873Y-13175912D01*
X4893873Y-13175912D02*
X4893873Y-13166388D01*
X4893873Y-13166388D02*
X4884349Y-13147341D01*
X4884349Y-13147341D02*
X4865301Y-13137817D01*
X4865301Y-13137817D02*
X4836730Y-13137817D01*
X4836730Y-13137817D02*
X4817682Y-13128293D01*
X4817682Y-13128293D02*
X4808158Y-13109246D01*
X4808158Y-13109246D02*
X4808158Y-13099722D01*
X4808158Y-13099722D02*
X4817682Y-13080674D01*
X4817682Y-13080674D02*
X4836730Y-13071150D01*
X4836730Y-13071150D02*
X4865301Y-13071150D01*
X4865301Y-13071150D02*
X4884349Y-13080674D01*
X4960539Y-13280674D02*
X4970063Y-13271150D01*
X4970063Y-13271150D02*
X4989111Y-13242579D01*
X4989111Y-13242579D02*
X4998634Y-13223531D01*
X4998634Y-13223531D02*
X5008158Y-13194960D01*
X5008158Y-13194960D02*
X5017682Y-13147341D01*
X5017682Y-13147341D02*
X5017682Y-13109246D01*
X5017682Y-13109246D02*
X5008158Y-13061627D01*
X5008158Y-13061627D02*
X4998634Y-13033055D01*
X4998634Y-13033055D02*
X4989111Y-13014008D01*
X4989111Y-13014008D02*
X4970063Y-12985436D01*
X4970063Y-12985436D02*
X4960539Y-12975912D01*
D10*
X-19644Y-13412356D02*
X-19644Y-13341644D01*
X-90356Y-13341644D01*
X-90356Y-13412356D01*
X-19644Y-13412356D01*
D11*
X360539Y-13468484D02*
X246253Y-13468484D01*
X303396Y-13468484D02*
X303396Y-13268484D01*
X303396Y-13268484D02*
X284348Y-13297055D01*
X284348Y-13297055D02*
X265301Y-13316103D01*
X265301Y-13316103D02*
X246253Y-13325627D01*
X446253Y-13449436D02*
X455777Y-13458960D01*
X455777Y-13458960D02*
X446253Y-13468484D01*
X446253Y-13468484D02*
X436729Y-13458960D01*
X436729Y-13458960D02*
X446253Y-13449436D01*
X446253Y-13449436D02*
X446253Y-13468484D01*
X579586Y-13268484D02*
X598634Y-13268484D01*
X598634Y-13268484D02*
X617682Y-13278008D01*
X617682Y-13278008D02*
X627205Y-13287531D01*
X627205Y-13287531D02*
X636729Y-13306579D01*
X636729Y-13306579D02*
X646253Y-13344674D01*
X646253Y-13344674D02*
X646253Y-13392293D01*
X646253Y-13392293D02*
X636729Y-13430388D01*
X636729Y-13430388D02*
X627205Y-13449436D01*
X627205Y-13449436D02*
X617682Y-13458960D01*
X617682Y-13458960D02*
X598634Y-13468484D01*
X598634Y-13468484D02*
X579586Y-13468484D01*
X579586Y-13468484D02*
X560539Y-13458960D01*
X560539Y-13458960D02*
X551015Y-13449436D01*
X551015Y-13449436D02*
X541491Y-13430388D01*
X541491Y-13430388D02*
X531967Y-13392293D01*
X531967Y-13392293D02*
X531967Y-13344674D01*
X531967Y-13344674D02*
X541491Y-13306579D01*
X541491Y-13306579D02*
X551015Y-13287531D01*
X551015Y-13287531D02*
X560539Y-13278008D01*
X560539Y-13278008D02*
X579586Y-13268484D01*
X770062Y-13268484D02*
X789110Y-13268484D01*
X789110Y-13268484D02*
X808158Y-13278008D01*
X808158Y-13278008D02*
X817682Y-13287531D01*
X817682Y-13287531D02*
X827205Y-13306579D01*
X827205Y-13306579D02*
X836729Y-13344674D01*
X836729Y-13344674D02*
X836729Y-13392293D01*
X836729Y-13392293D02*
X827205Y-13430388D01*
X827205Y-13430388D02*
X817682Y-13449436D01*
X817682Y-13449436D02*
X808158Y-13458960D01*
X808158Y-13458960D02*
X789110Y-13468484D01*
X789110Y-13468484D02*
X770062Y-13468484D01*
X770062Y-13468484D02*
X751015Y-13458960D01*
X751015Y-13458960D02*
X741491Y-13449436D01*
X741491Y-13449436D02*
X731967Y-13430388D01*
X731967Y-13430388D02*
X722443Y-13392293D01*
X722443Y-13392293D02*
X722443Y-13344674D01*
X722443Y-13344674D02*
X731967Y-13306579D01*
X731967Y-13306579D02*
X741491Y-13287531D01*
X741491Y-13287531D02*
X751015Y-13278008D01*
X751015Y-13278008D02*
X770062Y-13268484D01*
X960539Y-13268484D02*
X979586Y-13268484D01*
X979586Y-13268484D02*
X998634Y-13278008D01*
X998634Y-13278008D02*
X1008158Y-13287531D01*
X1008158Y-13287531D02*
X1017682Y-13306579D01*
X1017682Y-13306579D02*
X1027205Y-13344674D01*
X1027205Y-13344674D02*
X1027205Y-13392293D01*
X1027205Y-13392293D02*
X1017682Y-13430388D01*
X1017682Y-13430388D02*
X1008158Y-13449436D01*
X1008158Y-13449436D02*
X998634Y-13458960D01*
X998634Y-13458960D02*
X979586Y-13468484D01*
X979586Y-13468484D02*
X960539Y-13468484D01*
X960539Y-13468484D02*
X941491Y-13458960D01*
X941491Y-13458960D02*
X931967Y-13449436D01*
X931967Y-13449436D02*
X922443Y-13430388D01*
X922443Y-13430388D02*
X912920Y-13392293D01*
X912920Y-13392293D02*
X912920Y-13344674D01*
X912920Y-13344674D02*
X922443Y-13306579D01*
X922443Y-13306579D02*
X931967Y-13287531D01*
X931967Y-13287531D02*
X941491Y-13278008D01*
X941491Y-13278008D02*
X960539Y-13268484D01*
X1112920Y-13468484D02*
X1112920Y-13335150D01*
X1112920Y-13354198D02*
X1122444Y-13344674D01*
X1122444Y-13344674D02*
X1141491Y-13335150D01*
X1141491Y-13335150D02*
X1170063Y-13335150D01*
X1170063Y-13335150D02*
X1189110Y-13344674D01*
X1189110Y-13344674D02*
X1198634Y-13363722D01*
X1198634Y-13363722D02*
X1198634Y-13468484D01*
X1198634Y-13363722D02*
X1208158Y-13344674D01*
X1208158Y-13344674D02*
X1227205Y-13335150D01*
X1227205Y-13335150D02*
X1255777Y-13335150D01*
X1255777Y-13335150D02*
X1274825Y-13344674D01*
X1274825Y-13344674D02*
X1284348Y-13363722D01*
X1284348Y-13363722D02*
X1284348Y-13468484D01*
X1379586Y-13468484D02*
X1379586Y-13335150D01*
X1379586Y-13354198D02*
X1389110Y-13344674D01*
X1389110Y-13344674D02*
X1408158Y-13335150D01*
X1408158Y-13335150D02*
X1436729Y-13335150D01*
X1436729Y-13335150D02*
X1455777Y-13344674D01*
X1455777Y-13344674D02*
X1465301Y-13363722D01*
X1465301Y-13363722D02*
X1465301Y-13468484D01*
X1465301Y-13363722D02*
X1474824Y-13344674D01*
X1474824Y-13344674D02*
X1493872Y-13335150D01*
X1493872Y-13335150D02*
X1522443Y-13335150D01*
X1522443Y-13335150D02*
X1541491Y-13344674D01*
X1541491Y-13344674D02*
X1551015Y-13363722D01*
X1551015Y-13363722D02*
X1551015Y-13468484D01*
X1941491Y-13258960D02*
X1770063Y-13516103D01*
X2198634Y-13268484D02*
X2217682Y-13268484D01*
X2217682Y-13268484D02*
X2236729Y-13278008D01*
X2236729Y-13278008D02*
X2246253Y-13287531D01*
X2246253Y-13287531D02*
X2255777Y-13306579D01*
X2255777Y-13306579D02*
X2265301Y-13344674D01*
X2265301Y-13344674D02*
X2265301Y-13392293D01*
X2265301Y-13392293D02*
X2255777Y-13430388D01*
X2255777Y-13430388D02*
X2246253Y-13449436D01*
X2246253Y-13449436D02*
X2236729Y-13458960D01*
X2236729Y-13458960D02*
X2217682Y-13468484D01*
X2217682Y-13468484D02*
X2198634Y-13468484D01*
X2198634Y-13468484D02*
X2179587Y-13458960D01*
X2179587Y-13458960D02*
X2170063Y-13449436D01*
X2170063Y-13449436D02*
X2160539Y-13430388D01*
X2160539Y-13430388D02*
X2151015Y-13392293D01*
X2151015Y-13392293D02*
X2151015Y-13344674D01*
X2151015Y-13344674D02*
X2160539Y-13306579D01*
X2160539Y-13306579D02*
X2170063Y-13287531D01*
X2170063Y-13287531D02*
X2179587Y-13278008D01*
X2179587Y-13278008D02*
X2198634Y-13268484D01*
X2351015Y-13449436D02*
X2360539Y-13458960D01*
X2360539Y-13458960D02*
X2351015Y-13468484D01*
X2351015Y-13468484D02*
X2341491Y-13458960D01*
X2341491Y-13458960D02*
X2351015Y-13449436D01*
X2351015Y-13449436D02*
X2351015Y-13468484D01*
X2484348Y-13268484D02*
X2503396Y-13268484D01*
X2503396Y-13268484D02*
X2522444Y-13278008D01*
X2522444Y-13278008D02*
X2531968Y-13287531D01*
X2531968Y-13287531D02*
X2541491Y-13306579D01*
X2541491Y-13306579D02*
X2551015Y-13344674D01*
X2551015Y-13344674D02*
X2551015Y-13392293D01*
X2551015Y-13392293D02*
X2541491Y-13430388D01*
X2541491Y-13430388D02*
X2531968Y-13449436D01*
X2531968Y-13449436D02*
X2522444Y-13458960D01*
X2522444Y-13458960D02*
X2503396Y-13468484D01*
X2503396Y-13468484D02*
X2484348Y-13468484D01*
X2484348Y-13468484D02*
X2465301Y-13458960D01*
X2465301Y-13458960D02*
X2455777Y-13449436D01*
X2455777Y-13449436D02*
X2446253Y-13430388D01*
X2446253Y-13430388D02*
X2436729Y-13392293D01*
X2436729Y-13392293D02*
X2436729Y-13344674D01*
X2436729Y-13344674D02*
X2446253Y-13306579D01*
X2446253Y-13306579D02*
X2455777Y-13287531D01*
X2455777Y-13287531D02*
X2465301Y-13278008D01*
X2465301Y-13278008D02*
X2484348Y-13268484D01*
X2617682Y-13268484D02*
X2741491Y-13268484D01*
X2741491Y-13268484D02*
X2674825Y-13344674D01*
X2674825Y-13344674D02*
X2703396Y-13344674D01*
X2703396Y-13344674D02*
X2722444Y-13354198D01*
X2722444Y-13354198D02*
X2731968Y-13363722D01*
X2731968Y-13363722D02*
X2741491Y-13382769D01*
X2741491Y-13382769D02*
X2741491Y-13430388D01*
X2741491Y-13430388D02*
X2731968Y-13449436D01*
X2731968Y-13449436D02*
X2722444Y-13458960D01*
X2722444Y-13458960D02*
X2703396Y-13468484D01*
X2703396Y-13468484D02*
X2646253Y-13468484D01*
X2646253Y-13468484D02*
X2627206Y-13458960D01*
X2627206Y-13458960D02*
X2617682Y-13449436D01*
X2836729Y-13468484D02*
X2874825Y-13468484D01*
X2874825Y-13468484D02*
X2893872Y-13458960D01*
X2893872Y-13458960D02*
X2903396Y-13449436D01*
X2903396Y-13449436D02*
X2922444Y-13420865D01*
X2922444Y-13420865D02*
X2931967Y-13382769D01*
X2931967Y-13382769D02*
X2931967Y-13306579D01*
X2931967Y-13306579D02*
X2922444Y-13287531D01*
X2922444Y-13287531D02*
X2912920Y-13278008D01*
X2912920Y-13278008D02*
X2893872Y-13268484D01*
X2893872Y-13268484D02*
X2855777Y-13268484D01*
X2855777Y-13268484D02*
X2836729Y-13278008D01*
X2836729Y-13278008D02*
X2827206Y-13287531D01*
X2827206Y-13287531D02*
X2817682Y-13306579D01*
X2817682Y-13306579D02*
X2817682Y-13354198D01*
X2817682Y-13354198D02*
X2827206Y-13373246D01*
X2827206Y-13373246D02*
X2836729Y-13382769D01*
X2836729Y-13382769D02*
X2855777Y-13392293D01*
X2855777Y-13392293D02*
X2893872Y-13392293D01*
X2893872Y-13392293D02*
X2912920Y-13382769D01*
X2912920Y-13382769D02*
X2922444Y-13373246D01*
X2922444Y-13373246D02*
X2931967Y-13354198D01*
X3103396Y-13335150D02*
X3103396Y-13468484D01*
X3055777Y-13258960D02*
X3008158Y-13401817D01*
X3008158Y-13401817D02*
X3131967Y-13401817D01*
X3198634Y-13268484D02*
X3198634Y-13306579D01*
X3274825Y-13268484D02*
X3274825Y-13306579D01*
X3570063Y-13544674D02*
X3560539Y-13535150D01*
X3560539Y-13535150D02*
X3541491Y-13506579D01*
X3541491Y-13506579D02*
X3531968Y-13487531D01*
X3531968Y-13487531D02*
X3522444Y-13458960D01*
X3522444Y-13458960D02*
X3512920Y-13411341D01*
X3512920Y-13411341D02*
X3512920Y-13373246D01*
X3512920Y-13373246D02*
X3522444Y-13325627D01*
X3522444Y-13325627D02*
X3531968Y-13297055D01*
X3531968Y-13297055D02*
X3541491Y-13278008D01*
X3541491Y-13278008D02*
X3560539Y-13249436D01*
X3560539Y-13249436D02*
X3570063Y-13239912D01*
X3636729Y-13287531D02*
X3646253Y-13278008D01*
X3646253Y-13278008D02*
X3665301Y-13268484D01*
X3665301Y-13268484D02*
X3712920Y-13268484D01*
X3712920Y-13268484D02*
X3731968Y-13278008D01*
X3731968Y-13278008D02*
X3741491Y-13287531D01*
X3741491Y-13287531D02*
X3751015Y-13306579D01*
X3751015Y-13306579D02*
X3751015Y-13325627D01*
X3751015Y-13325627D02*
X3741491Y-13354198D01*
X3741491Y-13354198D02*
X3627206Y-13468484D01*
X3627206Y-13468484D02*
X3751015Y-13468484D01*
X3827206Y-13287531D02*
X3836729Y-13278008D01*
X3836729Y-13278008D02*
X3855777Y-13268484D01*
X3855777Y-13268484D02*
X3903396Y-13268484D01*
X3903396Y-13268484D02*
X3922444Y-13278008D01*
X3922444Y-13278008D02*
X3931968Y-13287531D01*
X3931968Y-13287531D02*
X3941491Y-13306579D01*
X3941491Y-13306579D02*
X3941491Y-13325627D01*
X3941491Y-13325627D02*
X3931968Y-13354198D01*
X3931968Y-13354198D02*
X3817682Y-13468484D01*
X3817682Y-13468484D02*
X3941491Y-13468484D01*
X4179587Y-13468484D02*
X4179587Y-13268484D01*
X4265301Y-13468484D02*
X4265301Y-13363722D01*
X4265301Y-13363722D02*
X4255777Y-13344674D01*
X4255777Y-13344674D02*
X4236730Y-13335150D01*
X4236730Y-13335150D02*
X4208158Y-13335150D01*
X4208158Y-13335150D02*
X4189110Y-13344674D01*
X4189110Y-13344674D02*
X4179587Y-13354198D01*
X4389111Y-13468484D02*
X4370063Y-13458960D01*
X4370063Y-13458960D02*
X4360539Y-13449436D01*
X4360539Y-13449436D02*
X4351015Y-13430388D01*
X4351015Y-13430388D02*
X4351015Y-13373246D01*
X4351015Y-13373246D02*
X4360539Y-13354198D01*
X4360539Y-13354198D02*
X4370063Y-13344674D01*
X4370063Y-13344674D02*
X4389111Y-13335150D01*
X4389111Y-13335150D02*
X4417682Y-13335150D01*
X4417682Y-13335150D02*
X4436730Y-13344674D01*
X4436730Y-13344674D02*
X4446253Y-13354198D01*
X4446253Y-13354198D02*
X4455777Y-13373246D01*
X4455777Y-13373246D02*
X4455777Y-13430388D01*
X4455777Y-13430388D02*
X4446253Y-13449436D01*
X4446253Y-13449436D02*
X4436730Y-13458960D01*
X4436730Y-13458960D02*
X4417682Y-13468484D01*
X4417682Y-13468484D02*
X4389111Y-13468484D01*
X4570063Y-13468484D02*
X4551015Y-13458960D01*
X4551015Y-13458960D02*
X4541492Y-13439912D01*
X4541492Y-13439912D02*
X4541492Y-13268484D01*
X4722444Y-13458960D02*
X4703396Y-13468484D01*
X4703396Y-13468484D02*
X4665301Y-13468484D01*
X4665301Y-13468484D02*
X4646253Y-13458960D01*
X4646253Y-13458960D02*
X4636730Y-13439912D01*
X4636730Y-13439912D02*
X4636730Y-13363722D01*
X4636730Y-13363722D02*
X4646253Y-13344674D01*
X4646253Y-13344674D02*
X4665301Y-13335150D01*
X4665301Y-13335150D02*
X4703396Y-13335150D01*
X4703396Y-13335150D02*
X4722444Y-13344674D01*
X4722444Y-13344674D02*
X4731968Y-13363722D01*
X4731968Y-13363722D02*
X4731968Y-13382769D01*
X4731968Y-13382769D02*
X4636730Y-13401817D01*
X4808158Y-13458960D02*
X4827206Y-13468484D01*
X4827206Y-13468484D02*
X4865301Y-13468484D01*
X4865301Y-13468484D02*
X4884349Y-13458960D01*
X4884349Y-13458960D02*
X4893873Y-13439912D01*
X4893873Y-13439912D02*
X4893873Y-13430388D01*
X4893873Y-13430388D02*
X4884349Y-13411341D01*
X4884349Y-13411341D02*
X4865301Y-13401817D01*
X4865301Y-13401817D02*
X4836730Y-13401817D01*
X4836730Y-13401817D02*
X4817682Y-13392293D01*
X4817682Y-13392293D02*
X4808158Y-13373246D01*
X4808158Y-13373246D02*
X4808158Y-13363722D01*
X4808158Y-13363722D02*
X4817682Y-13344674D01*
X4817682Y-13344674D02*
X4836730Y-13335150D01*
X4836730Y-13335150D02*
X4865301Y-13335150D01*
X4865301Y-13335150D02*
X4884349Y-13344674D01*
X4960539Y-13544674D02*
X4970063Y-13535150D01*
X4970063Y-13535150D02*
X4989111Y-13506579D01*
X4989111Y-13506579D02*
X4998634Y-13487531D01*
X4998634Y-13487531D02*
X5008158Y-13458960D01*
X5008158Y-13458960D02*
X5017682Y-13411341D01*
X5017682Y-13411341D02*
X5017682Y-13373246D01*
X5017682Y-13373246D02*
X5008158Y-13325627D01*
X5008158Y-13325627D02*
X4998634Y-13297055D01*
X4998634Y-13297055D02*
X4989111Y-13278008D01*
X4989111Y-13278008D02*
X4970063Y-13249436D01*
X4970063Y-13249436D02*
X4960539Y-13239912D01*
D12*
X-60000Y-13696000D02*
X-5000Y-13641000D01*
X-60000Y-13586000D01*
X-115000Y-13641000D01*
X-60000Y-13696000D01*
D11*
X360539Y-13732484D02*
X246253Y-13732484D01*
X303396Y-13732484D02*
X303396Y-13532484D01*
X303396Y-13532484D02*
X284348Y-13561055D01*
X284348Y-13561055D02*
X265301Y-13580103D01*
X265301Y-13580103D02*
X246253Y-13589627D01*
X446253Y-13713436D02*
X455777Y-13722960D01*
X455777Y-13722960D02*
X446253Y-13732484D01*
X446253Y-13732484D02*
X436729Y-13722960D01*
X436729Y-13722960D02*
X446253Y-13713436D01*
X446253Y-13713436D02*
X446253Y-13732484D01*
X646253Y-13732484D02*
X531967Y-13732484D01*
X589110Y-13732484D02*
X589110Y-13532484D01*
X589110Y-13532484D02*
X570063Y-13561055D01*
X570063Y-13561055D02*
X551015Y-13580103D01*
X551015Y-13580103D02*
X531967Y-13589627D01*
X770062Y-13532484D02*
X789110Y-13532484D01*
X789110Y-13532484D02*
X808158Y-13542008D01*
X808158Y-13542008D02*
X817682Y-13551531D01*
X817682Y-13551531D02*
X827205Y-13570579D01*
X827205Y-13570579D02*
X836729Y-13608674D01*
X836729Y-13608674D02*
X836729Y-13656293D01*
X836729Y-13656293D02*
X827205Y-13694388D01*
X827205Y-13694388D02*
X817682Y-13713436D01*
X817682Y-13713436D02*
X808158Y-13722960D01*
X808158Y-13722960D02*
X789110Y-13732484D01*
X789110Y-13732484D02*
X770062Y-13732484D01*
X770062Y-13732484D02*
X751015Y-13722960D01*
X751015Y-13722960D02*
X741491Y-13713436D01*
X741491Y-13713436D02*
X731967Y-13694388D01*
X731967Y-13694388D02*
X722443Y-13656293D01*
X722443Y-13656293D02*
X722443Y-13608674D01*
X722443Y-13608674D02*
X731967Y-13570579D01*
X731967Y-13570579D02*
X741491Y-13551531D01*
X741491Y-13551531D02*
X751015Y-13542008D01*
X751015Y-13542008D02*
X770062Y-13532484D01*
X960539Y-13532484D02*
X979586Y-13532484D01*
X979586Y-13532484D02*
X998634Y-13542008D01*
X998634Y-13542008D02*
X1008158Y-13551531D01*
X1008158Y-13551531D02*
X1017682Y-13570579D01*
X1017682Y-13570579D02*
X1027205Y-13608674D01*
X1027205Y-13608674D02*
X1027205Y-13656293D01*
X1027205Y-13656293D02*
X1017682Y-13694388D01*
X1017682Y-13694388D02*
X1008158Y-13713436D01*
X1008158Y-13713436D02*
X998634Y-13722960D01*
X998634Y-13722960D02*
X979586Y-13732484D01*
X979586Y-13732484D02*
X960539Y-13732484D01*
X960539Y-13732484D02*
X941491Y-13722960D01*
X941491Y-13722960D02*
X931967Y-13713436D01*
X931967Y-13713436D02*
X922443Y-13694388D01*
X922443Y-13694388D02*
X912920Y-13656293D01*
X912920Y-13656293D02*
X912920Y-13608674D01*
X912920Y-13608674D02*
X922443Y-13570579D01*
X922443Y-13570579D02*
X931967Y-13551531D01*
X931967Y-13551531D02*
X941491Y-13542008D01*
X941491Y-13542008D02*
X960539Y-13532484D01*
X1112920Y-13732484D02*
X1112920Y-13599150D01*
X1112920Y-13618198D02*
X1122444Y-13608674D01*
X1122444Y-13608674D02*
X1141491Y-13599150D01*
X1141491Y-13599150D02*
X1170063Y-13599150D01*
X1170063Y-13599150D02*
X1189110Y-13608674D01*
X1189110Y-13608674D02*
X1198634Y-13627722D01*
X1198634Y-13627722D02*
X1198634Y-13732484D01*
X1198634Y-13627722D02*
X1208158Y-13608674D01*
X1208158Y-13608674D02*
X1227205Y-13599150D01*
X1227205Y-13599150D02*
X1255777Y-13599150D01*
X1255777Y-13599150D02*
X1274825Y-13608674D01*
X1274825Y-13608674D02*
X1284348Y-13627722D01*
X1284348Y-13627722D02*
X1284348Y-13732484D01*
X1379586Y-13732484D02*
X1379586Y-13599150D01*
X1379586Y-13618198D02*
X1389110Y-13608674D01*
X1389110Y-13608674D02*
X1408158Y-13599150D01*
X1408158Y-13599150D02*
X1436729Y-13599150D01*
X1436729Y-13599150D02*
X1455777Y-13608674D01*
X1455777Y-13608674D02*
X1465301Y-13627722D01*
X1465301Y-13627722D02*
X1465301Y-13732484D01*
X1465301Y-13627722D02*
X1474824Y-13608674D01*
X1474824Y-13608674D02*
X1493872Y-13599150D01*
X1493872Y-13599150D02*
X1522443Y-13599150D01*
X1522443Y-13599150D02*
X1541491Y-13608674D01*
X1541491Y-13608674D02*
X1551015Y-13627722D01*
X1551015Y-13627722D02*
X1551015Y-13732484D01*
X1941491Y-13522960D02*
X1770063Y-13780103D01*
X2198634Y-13532484D02*
X2217682Y-13532484D01*
X2217682Y-13532484D02*
X2236729Y-13542008D01*
X2236729Y-13542008D02*
X2246253Y-13551531D01*
X2246253Y-13551531D02*
X2255777Y-13570579D01*
X2255777Y-13570579D02*
X2265301Y-13608674D01*
X2265301Y-13608674D02*
X2265301Y-13656293D01*
X2265301Y-13656293D02*
X2255777Y-13694388D01*
X2255777Y-13694388D02*
X2246253Y-13713436D01*
X2246253Y-13713436D02*
X2236729Y-13722960D01*
X2236729Y-13722960D02*
X2217682Y-13732484D01*
X2217682Y-13732484D02*
X2198634Y-13732484D01*
X2198634Y-13732484D02*
X2179587Y-13722960D01*
X2179587Y-13722960D02*
X2170063Y-13713436D01*
X2170063Y-13713436D02*
X2160539Y-13694388D01*
X2160539Y-13694388D02*
X2151015Y-13656293D01*
X2151015Y-13656293D02*
X2151015Y-13608674D01*
X2151015Y-13608674D02*
X2160539Y-13570579D01*
X2160539Y-13570579D02*
X2170063Y-13551531D01*
X2170063Y-13551531D02*
X2179587Y-13542008D01*
X2179587Y-13542008D02*
X2198634Y-13532484D01*
X2351015Y-13713436D02*
X2360539Y-13722960D01*
X2360539Y-13722960D02*
X2351015Y-13732484D01*
X2351015Y-13732484D02*
X2341491Y-13722960D01*
X2341491Y-13722960D02*
X2351015Y-13713436D01*
X2351015Y-13713436D02*
X2351015Y-13732484D01*
X2484348Y-13532484D02*
X2503396Y-13532484D01*
X2503396Y-13532484D02*
X2522444Y-13542008D01*
X2522444Y-13542008D02*
X2531968Y-13551531D01*
X2531968Y-13551531D02*
X2541491Y-13570579D01*
X2541491Y-13570579D02*
X2551015Y-13608674D01*
X2551015Y-13608674D02*
X2551015Y-13656293D01*
X2551015Y-13656293D02*
X2541491Y-13694388D01*
X2541491Y-13694388D02*
X2531968Y-13713436D01*
X2531968Y-13713436D02*
X2522444Y-13722960D01*
X2522444Y-13722960D02*
X2503396Y-13732484D01*
X2503396Y-13732484D02*
X2484348Y-13732484D01*
X2484348Y-13732484D02*
X2465301Y-13722960D01*
X2465301Y-13722960D02*
X2455777Y-13713436D01*
X2455777Y-13713436D02*
X2446253Y-13694388D01*
X2446253Y-13694388D02*
X2436729Y-13656293D01*
X2436729Y-13656293D02*
X2436729Y-13608674D01*
X2436729Y-13608674D02*
X2446253Y-13570579D01*
X2446253Y-13570579D02*
X2455777Y-13551531D01*
X2455777Y-13551531D02*
X2465301Y-13542008D01*
X2465301Y-13542008D02*
X2484348Y-13532484D01*
X2722444Y-13599150D02*
X2722444Y-13732484D01*
X2674825Y-13522960D02*
X2627206Y-13665817D01*
X2627206Y-13665817D02*
X2751015Y-13665817D01*
X2808158Y-13532484D02*
X2931967Y-13532484D01*
X2931967Y-13532484D02*
X2865301Y-13608674D01*
X2865301Y-13608674D02*
X2893872Y-13608674D01*
X2893872Y-13608674D02*
X2912920Y-13618198D01*
X2912920Y-13618198D02*
X2922444Y-13627722D01*
X2922444Y-13627722D02*
X2931967Y-13646769D01*
X2931967Y-13646769D02*
X2931967Y-13694388D01*
X2931967Y-13694388D02*
X2922444Y-13713436D01*
X2922444Y-13713436D02*
X2912920Y-13722960D01*
X2912920Y-13722960D02*
X2893872Y-13732484D01*
X2893872Y-13732484D02*
X2836729Y-13732484D01*
X2836729Y-13732484D02*
X2817682Y-13722960D01*
X2817682Y-13722960D02*
X2808158Y-13713436D01*
X2998634Y-13532484D02*
X3122444Y-13532484D01*
X3122444Y-13532484D02*
X3055777Y-13608674D01*
X3055777Y-13608674D02*
X3084348Y-13608674D01*
X3084348Y-13608674D02*
X3103396Y-13618198D01*
X3103396Y-13618198D02*
X3112920Y-13627722D01*
X3112920Y-13627722D02*
X3122444Y-13646769D01*
X3122444Y-13646769D02*
X3122444Y-13694388D01*
X3122444Y-13694388D02*
X3112920Y-13713436D01*
X3112920Y-13713436D02*
X3103396Y-13722960D01*
X3103396Y-13722960D02*
X3084348Y-13732484D01*
X3084348Y-13732484D02*
X3027206Y-13732484D01*
X3027206Y-13732484D02*
X3008158Y-13722960D01*
X3008158Y-13722960D02*
X2998634Y-13713436D01*
X3198634Y-13532484D02*
X3198634Y-13570579D01*
X3274825Y-13532484D02*
X3274825Y-13570579D01*
X3570063Y-13808674D02*
X3560539Y-13799150D01*
X3560539Y-13799150D02*
X3541491Y-13770579D01*
X3541491Y-13770579D02*
X3531968Y-13751531D01*
X3531968Y-13751531D02*
X3522444Y-13722960D01*
X3522444Y-13722960D02*
X3512920Y-13675341D01*
X3512920Y-13675341D02*
X3512920Y-13637246D01*
X3512920Y-13637246D02*
X3522444Y-13589627D01*
X3522444Y-13589627D02*
X3531968Y-13561055D01*
X3531968Y-13561055D02*
X3541491Y-13542008D01*
X3541491Y-13542008D02*
X3560539Y-13513436D01*
X3560539Y-13513436D02*
X3570063Y-13503912D01*
X3655777Y-13732484D02*
X3693872Y-13732484D01*
X3693872Y-13732484D02*
X3712920Y-13722960D01*
X3712920Y-13722960D02*
X3722444Y-13713436D01*
X3722444Y-13713436D02*
X3741491Y-13684865D01*
X3741491Y-13684865D02*
X3751015Y-13646769D01*
X3751015Y-13646769D02*
X3751015Y-13570579D01*
X3751015Y-13570579D02*
X3741491Y-13551531D01*
X3741491Y-13551531D02*
X3731968Y-13542008D01*
X3731968Y-13542008D02*
X3712920Y-13532484D01*
X3712920Y-13532484D02*
X3674825Y-13532484D01*
X3674825Y-13532484D02*
X3655777Y-13542008D01*
X3655777Y-13542008D02*
X3646253Y-13551531D01*
X3646253Y-13551531D02*
X3636729Y-13570579D01*
X3636729Y-13570579D02*
X3636729Y-13618198D01*
X3636729Y-13618198D02*
X3646253Y-13637246D01*
X3646253Y-13637246D02*
X3655777Y-13646769D01*
X3655777Y-13646769D02*
X3674825Y-13656293D01*
X3674825Y-13656293D02*
X3712920Y-13656293D01*
X3712920Y-13656293D02*
X3731968Y-13646769D01*
X3731968Y-13646769D02*
X3741491Y-13637246D01*
X3741491Y-13637246D02*
X3751015Y-13618198D01*
X3989110Y-13732484D02*
X3989110Y-13532484D01*
X4074825Y-13732484D02*
X4074825Y-13627722D01*
X4074825Y-13627722D02*
X4065301Y-13608674D01*
X4065301Y-13608674D02*
X4046253Y-13599150D01*
X4046253Y-13599150D02*
X4017682Y-13599150D01*
X4017682Y-13599150D02*
X3998634Y-13608674D01*
X3998634Y-13608674D02*
X3989110Y-13618198D01*
X4198634Y-13732484D02*
X4179587Y-13722960D01*
X4179587Y-13722960D02*
X4170063Y-13713436D01*
X4170063Y-13713436D02*
X4160539Y-13694388D01*
X4160539Y-13694388D02*
X4160539Y-13637246D01*
X4160539Y-13637246D02*
X4170063Y-13618198D01*
X4170063Y-13618198D02*
X4179587Y-13608674D01*
X4179587Y-13608674D02*
X4198634Y-13599150D01*
X4198634Y-13599150D02*
X4227206Y-13599150D01*
X4227206Y-13599150D02*
X4246253Y-13608674D01*
X4246253Y-13608674D02*
X4255777Y-13618198D01*
X4255777Y-13618198D02*
X4265301Y-13637246D01*
X4265301Y-13637246D02*
X4265301Y-13694388D01*
X4265301Y-13694388D02*
X4255777Y-13713436D01*
X4255777Y-13713436D02*
X4246253Y-13722960D01*
X4246253Y-13722960D02*
X4227206Y-13732484D01*
X4227206Y-13732484D02*
X4198634Y-13732484D01*
X4379587Y-13732484D02*
X4360539Y-13722960D01*
X4360539Y-13722960D02*
X4351015Y-13703912D01*
X4351015Y-13703912D02*
X4351015Y-13532484D01*
X4531968Y-13722960D02*
X4512920Y-13732484D01*
X4512920Y-13732484D02*
X4474825Y-13732484D01*
X4474825Y-13732484D02*
X4455777Y-13722960D01*
X4455777Y-13722960D02*
X4446253Y-13703912D01*
X4446253Y-13703912D02*
X4446253Y-13627722D01*
X4446253Y-13627722D02*
X4455777Y-13608674D01*
X4455777Y-13608674D02*
X4474825Y-13599150D01*
X4474825Y-13599150D02*
X4512920Y-13599150D01*
X4512920Y-13599150D02*
X4531968Y-13608674D01*
X4531968Y-13608674D02*
X4541492Y-13627722D01*
X4541492Y-13627722D02*
X4541492Y-13646769D01*
X4541492Y-13646769D02*
X4446253Y-13665817D01*
X4617682Y-13722960D02*
X4636730Y-13732484D01*
X4636730Y-13732484D02*
X4674825Y-13732484D01*
X4674825Y-13732484D02*
X4693873Y-13722960D01*
X4693873Y-13722960D02*
X4703396Y-13703912D01*
X4703396Y-13703912D02*
X4703396Y-13694388D01*
X4703396Y-13694388D02*
X4693873Y-13675341D01*
X4693873Y-13675341D02*
X4674825Y-13665817D01*
X4674825Y-13665817D02*
X4646253Y-13665817D01*
X4646253Y-13665817D02*
X4627206Y-13656293D01*
X4627206Y-13656293D02*
X4617682Y-13637246D01*
X4617682Y-13637246D02*
X4617682Y-13627722D01*
X4617682Y-13627722D02*
X4627206Y-13608674D01*
X4627206Y-13608674D02*
X4646253Y-13599150D01*
X4646253Y-13599150D02*
X4674825Y-13599150D01*
X4674825Y-13599150D02*
X4693873Y-13608674D01*
X4770063Y-13808674D02*
X4779587Y-13799150D01*
X4779587Y-13799150D02*
X4798634Y-13770579D01*
X4798634Y-13770579D02*
X4808158Y-13751531D01*
X4808158Y-13751531D02*
X4817682Y-13722960D01*
X4817682Y-13722960D02*
X4827206Y-13675341D01*
X4827206Y-13675341D02*
X4827206Y-13637246D01*
X4827206Y-13637246D02*
X4817682Y-13589627D01*
X4817682Y-13589627D02*
X4808158Y-13561055D01*
X4808158Y-13561055D02*
X4798634Y-13542008D01*
X4798634Y-13542008D02*
X4779587Y-13513436D01*
X4779587Y-13513436D02*
X4770063Y-13503912D01*
D13*
X-125000Y-13845000D02*
X-5000Y-13965000D01*
X-5000Y-13845000D02*
X-125000Y-13965000D01*
X-5000Y-13905000D02*
G75*
G02*
X-125000Y-13905000I-60000J0D01*
G01*
X-125000Y-13905000D02*
G75*
G02*
X-5000Y-13905000I60000J0D01*
G01*
D11*
X360539Y-13996484D02*
X246253Y-13996484D01*
X303396Y-13996484D02*
X303396Y-13796484D01*
X303396Y-13796484D02*
X284348Y-13825055D01*
X284348Y-13825055D02*
X265301Y-13844103D01*
X265301Y-13844103D02*
X246253Y-13853627D01*
X446253Y-13977436D02*
X455777Y-13986960D01*
X455777Y-13986960D02*
X446253Y-13996484D01*
X446253Y-13996484D02*
X436729Y-13986960D01*
X436729Y-13986960D02*
X446253Y-13977436D01*
X446253Y-13977436D02*
X446253Y-13996484D01*
X531967Y-13815531D02*
X541491Y-13806008D01*
X541491Y-13806008D02*
X560539Y-13796484D01*
X560539Y-13796484D02*
X608158Y-13796484D01*
X608158Y-13796484D02*
X627205Y-13806008D01*
X627205Y-13806008D02*
X636729Y-13815531D01*
X636729Y-13815531D02*
X646253Y-13834579D01*
X646253Y-13834579D02*
X646253Y-13853627D01*
X646253Y-13853627D02*
X636729Y-13882198D01*
X636729Y-13882198D02*
X522443Y-13996484D01*
X522443Y-13996484D02*
X646253Y-13996484D01*
X770062Y-13796484D02*
X789110Y-13796484D01*
X789110Y-13796484D02*
X808158Y-13806008D01*
X808158Y-13806008D02*
X817682Y-13815531D01*
X817682Y-13815531D02*
X827205Y-13834579D01*
X827205Y-13834579D02*
X836729Y-13872674D01*
X836729Y-13872674D02*
X836729Y-13920293D01*
X836729Y-13920293D02*
X827205Y-13958388D01*
X827205Y-13958388D02*
X817682Y-13977436D01*
X817682Y-13977436D02*
X808158Y-13986960D01*
X808158Y-13986960D02*
X789110Y-13996484D01*
X789110Y-13996484D02*
X770062Y-13996484D01*
X770062Y-13996484D02*
X751015Y-13986960D01*
X751015Y-13986960D02*
X741491Y-13977436D01*
X741491Y-13977436D02*
X731967Y-13958388D01*
X731967Y-13958388D02*
X722443Y-13920293D01*
X722443Y-13920293D02*
X722443Y-13872674D01*
X722443Y-13872674D02*
X731967Y-13834579D01*
X731967Y-13834579D02*
X741491Y-13815531D01*
X741491Y-13815531D02*
X751015Y-13806008D01*
X751015Y-13806008D02*
X770062Y-13796484D01*
X960539Y-13796484D02*
X979586Y-13796484D01*
X979586Y-13796484D02*
X998634Y-13806008D01*
X998634Y-13806008D02*
X1008158Y-13815531D01*
X1008158Y-13815531D02*
X1017682Y-13834579D01*
X1017682Y-13834579D02*
X1027205Y-13872674D01*
X1027205Y-13872674D02*
X1027205Y-13920293D01*
X1027205Y-13920293D02*
X1017682Y-13958388D01*
X1017682Y-13958388D02*
X1008158Y-13977436D01*
X1008158Y-13977436D02*
X998634Y-13986960D01*
X998634Y-13986960D02*
X979586Y-13996484D01*
X979586Y-13996484D02*
X960539Y-13996484D01*
X960539Y-13996484D02*
X941491Y-13986960D01*
X941491Y-13986960D02*
X931967Y-13977436D01*
X931967Y-13977436D02*
X922443Y-13958388D01*
X922443Y-13958388D02*
X912920Y-13920293D01*
X912920Y-13920293D02*
X912920Y-13872674D01*
X912920Y-13872674D02*
X922443Y-13834579D01*
X922443Y-13834579D02*
X931967Y-13815531D01*
X931967Y-13815531D02*
X941491Y-13806008D01*
X941491Y-13806008D02*
X960539Y-13796484D01*
X1112920Y-13996484D02*
X1112920Y-13863150D01*
X1112920Y-13882198D02*
X1122444Y-13872674D01*
X1122444Y-13872674D02*
X1141491Y-13863150D01*
X1141491Y-13863150D02*
X1170063Y-13863150D01*
X1170063Y-13863150D02*
X1189110Y-13872674D01*
X1189110Y-13872674D02*
X1198634Y-13891722D01*
X1198634Y-13891722D02*
X1198634Y-13996484D01*
X1198634Y-13891722D02*
X1208158Y-13872674D01*
X1208158Y-13872674D02*
X1227205Y-13863150D01*
X1227205Y-13863150D02*
X1255777Y-13863150D01*
X1255777Y-13863150D02*
X1274825Y-13872674D01*
X1274825Y-13872674D02*
X1284348Y-13891722D01*
X1284348Y-13891722D02*
X1284348Y-13996484D01*
X1379586Y-13996484D02*
X1379586Y-13863150D01*
X1379586Y-13882198D02*
X1389110Y-13872674D01*
X1389110Y-13872674D02*
X1408158Y-13863150D01*
X1408158Y-13863150D02*
X1436729Y-13863150D01*
X1436729Y-13863150D02*
X1455777Y-13872674D01*
X1455777Y-13872674D02*
X1465301Y-13891722D01*
X1465301Y-13891722D02*
X1465301Y-13996484D01*
X1465301Y-13891722D02*
X1474824Y-13872674D01*
X1474824Y-13872674D02*
X1493872Y-13863150D01*
X1493872Y-13863150D02*
X1522443Y-13863150D01*
X1522443Y-13863150D02*
X1541491Y-13872674D01*
X1541491Y-13872674D02*
X1551015Y-13891722D01*
X1551015Y-13891722D02*
X1551015Y-13996484D01*
X1941491Y-13786960D02*
X1770063Y-14044103D01*
X2198634Y-13796484D02*
X2217682Y-13796484D01*
X2217682Y-13796484D02*
X2236729Y-13806008D01*
X2236729Y-13806008D02*
X2246253Y-13815531D01*
X2246253Y-13815531D02*
X2255777Y-13834579D01*
X2255777Y-13834579D02*
X2265301Y-13872674D01*
X2265301Y-13872674D02*
X2265301Y-13920293D01*
X2265301Y-13920293D02*
X2255777Y-13958388D01*
X2255777Y-13958388D02*
X2246253Y-13977436D01*
X2246253Y-13977436D02*
X2236729Y-13986960D01*
X2236729Y-13986960D02*
X2217682Y-13996484D01*
X2217682Y-13996484D02*
X2198634Y-13996484D01*
X2198634Y-13996484D02*
X2179587Y-13986960D01*
X2179587Y-13986960D02*
X2170063Y-13977436D01*
X2170063Y-13977436D02*
X2160539Y-13958388D01*
X2160539Y-13958388D02*
X2151015Y-13920293D01*
X2151015Y-13920293D02*
X2151015Y-13872674D01*
X2151015Y-13872674D02*
X2160539Y-13834579D01*
X2160539Y-13834579D02*
X2170063Y-13815531D01*
X2170063Y-13815531D02*
X2179587Y-13806008D01*
X2179587Y-13806008D02*
X2198634Y-13796484D01*
X2351015Y-13977436D02*
X2360539Y-13986960D01*
X2360539Y-13986960D02*
X2351015Y-13996484D01*
X2351015Y-13996484D02*
X2341491Y-13986960D01*
X2341491Y-13986960D02*
X2351015Y-13977436D01*
X2351015Y-13977436D02*
X2351015Y-13996484D01*
X2484348Y-13796484D02*
X2503396Y-13796484D01*
X2503396Y-13796484D02*
X2522444Y-13806008D01*
X2522444Y-13806008D02*
X2531968Y-13815531D01*
X2531968Y-13815531D02*
X2541491Y-13834579D01*
X2541491Y-13834579D02*
X2551015Y-13872674D01*
X2551015Y-13872674D02*
X2551015Y-13920293D01*
X2551015Y-13920293D02*
X2541491Y-13958388D01*
X2541491Y-13958388D02*
X2531968Y-13977436D01*
X2531968Y-13977436D02*
X2522444Y-13986960D01*
X2522444Y-13986960D02*
X2503396Y-13996484D01*
X2503396Y-13996484D02*
X2484348Y-13996484D01*
X2484348Y-13996484D02*
X2465301Y-13986960D01*
X2465301Y-13986960D02*
X2455777Y-13977436D01*
X2455777Y-13977436D02*
X2446253Y-13958388D01*
X2446253Y-13958388D02*
X2436729Y-13920293D01*
X2436729Y-13920293D02*
X2436729Y-13872674D01*
X2436729Y-13872674D02*
X2446253Y-13834579D01*
X2446253Y-13834579D02*
X2455777Y-13815531D01*
X2455777Y-13815531D02*
X2465301Y-13806008D01*
X2465301Y-13806008D02*
X2484348Y-13796484D01*
X2722444Y-13863150D02*
X2722444Y-13996484D01*
X2674825Y-13786960D02*
X2627206Y-13929817D01*
X2627206Y-13929817D02*
X2751015Y-13929817D01*
X2808158Y-13796484D02*
X2941491Y-13796484D01*
X2941491Y-13796484D02*
X2855777Y-13996484D01*
X3008158Y-13815531D02*
X3017682Y-13806008D01*
X3017682Y-13806008D02*
X3036729Y-13796484D01*
X3036729Y-13796484D02*
X3084348Y-13796484D01*
X3084348Y-13796484D02*
X3103396Y-13806008D01*
X3103396Y-13806008D02*
X3112920Y-13815531D01*
X3112920Y-13815531D02*
X3122444Y-13834579D01*
X3122444Y-13834579D02*
X3122444Y-13853627D01*
X3122444Y-13853627D02*
X3112920Y-13882198D01*
X3112920Y-13882198D02*
X2998634Y-13996484D01*
X2998634Y-13996484D02*
X3122444Y-13996484D01*
X3198634Y-13796484D02*
X3198634Y-13834579D01*
X3274825Y-13796484D02*
X3274825Y-13834579D01*
X3570063Y-14072674D02*
X3560539Y-14063150D01*
X3560539Y-14063150D02*
X3541491Y-14034579D01*
X3541491Y-14034579D02*
X3531968Y-14015531D01*
X3531968Y-14015531D02*
X3522444Y-13986960D01*
X3522444Y-13986960D02*
X3512920Y-13939341D01*
X3512920Y-13939341D02*
X3512920Y-13901246D01*
X3512920Y-13901246D02*
X3522444Y-13853627D01*
X3522444Y-13853627D02*
X3531968Y-13825055D01*
X3531968Y-13825055D02*
X3541491Y-13806008D01*
X3541491Y-13806008D02*
X3560539Y-13777436D01*
X3560539Y-13777436D02*
X3570063Y-13767912D01*
X3674825Y-13882198D02*
X3655777Y-13872674D01*
X3655777Y-13872674D02*
X3646253Y-13863150D01*
X3646253Y-13863150D02*
X3636729Y-13844103D01*
X3636729Y-13844103D02*
X3636729Y-13834579D01*
X3636729Y-13834579D02*
X3646253Y-13815531D01*
X3646253Y-13815531D02*
X3655777Y-13806008D01*
X3655777Y-13806008D02*
X3674825Y-13796484D01*
X3674825Y-13796484D02*
X3712920Y-13796484D01*
X3712920Y-13796484D02*
X3731968Y-13806008D01*
X3731968Y-13806008D02*
X3741491Y-13815531D01*
X3741491Y-13815531D02*
X3751015Y-13834579D01*
X3751015Y-13834579D02*
X3751015Y-13844103D01*
X3751015Y-13844103D02*
X3741491Y-13863150D01*
X3741491Y-13863150D02*
X3731968Y-13872674D01*
X3731968Y-13872674D02*
X3712920Y-13882198D01*
X3712920Y-13882198D02*
X3674825Y-13882198D01*
X3674825Y-13882198D02*
X3655777Y-13891722D01*
X3655777Y-13891722D02*
X3646253Y-13901246D01*
X3646253Y-13901246D02*
X3636729Y-13920293D01*
X3636729Y-13920293D02*
X3636729Y-13958388D01*
X3636729Y-13958388D02*
X3646253Y-13977436D01*
X3646253Y-13977436D02*
X3655777Y-13986960D01*
X3655777Y-13986960D02*
X3674825Y-13996484D01*
X3674825Y-13996484D02*
X3712920Y-13996484D01*
X3712920Y-13996484D02*
X3731968Y-13986960D01*
X3731968Y-13986960D02*
X3741491Y-13977436D01*
X3741491Y-13977436D02*
X3751015Y-13958388D01*
X3751015Y-13958388D02*
X3751015Y-13920293D01*
X3751015Y-13920293D02*
X3741491Y-13901246D01*
X3741491Y-13901246D02*
X3731968Y-13891722D01*
X3731968Y-13891722D02*
X3712920Y-13882198D01*
X3989110Y-13996484D02*
X3989110Y-13796484D01*
X4074825Y-13996484D02*
X4074825Y-13891722D01*
X4074825Y-13891722D02*
X4065301Y-13872674D01*
X4065301Y-13872674D02*
X4046253Y-13863150D01*
X4046253Y-13863150D02*
X4017682Y-13863150D01*
X4017682Y-13863150D02*
X3998634Y-13872674D01*
X3998634Y-13872674D02*
X3989110Y-13882198D01*
X4198634Y-13996484D02*
X4179587Y-13986960D01*
X4179587Y-13986960D02*
X4170063Y-13977436D01*
X4170063Y-13977436D02*
X4160539Y-13958388D01*
X4160539Y-13958388D02*
X4160539Y-13901246D01*
X4160539Y-13901246D02*
X4170063Y-13882198D01*
X4170063Y-13882198D02*
X4179587Y-13872674D01*
X4179587Y-13872674D02*
X4198634Y-13863150D01*
X4198634Y-13863150D02*
X4227206Y-13863150D01*
X4227206Y-13863150D02*
X4246253Y-13872674D01*
X4246253Y-13872674D02*
X4255777Y-13882198D01*
X4255777Y-13882198D02*
X4265301Y-13901246D01*
X4265301Y-13901246D02*
X4265301Y-13958388D01*
X4265301Y-13958388D02*
X4255777Y-13977436D01*
X4255777Y-13977436D02*
X4246253Y-13986960D01*
X4246253Y-13986960D02*
X4227206Y-13996484D01*
X4227206Y-13996484D02*
X4198634Y-13996484D01*
X4379587Y-13996484D02*
X4360539Y-13986960D01*
X4360539Y-13986960D02*
X4351015Y-13967912D01*
X4351015Y-13967912D02*
X4351015Y-13796484D01*
X4531968Y-13986960D02*
X4512920Y-13996484D01*
X4512920Y-13996484D02*
X4474825Y-13996484D01*
X4474825Y-13996484D02*
X4455777Y-13986960D01*
X4455777Y-13986960D02*
X4446253Y-13967912D01*
X4446253Y-13967912D02*
X4446253Y-13891722D01*
X4446253Y-13891722D02*
X4455777Y-13872674D01*
X4455777Y-13872674D02*
X4474825Y-13863150D01*
X4474825Y-13863150D02*
X4512920Y-13863150D01*
X4512920Y-13863150D02*
X4531968Y-13872674D01*
X4531968Y-13872674D02*
X4541492Y-13891722D01*
X4541492Y-13891722D02*
X4541492Y-13910769D01*
X4541492Y-13910769D02*
X4446253Y-13929817D01*
X4617682Y-13986960D02*
X4636730Y-13996484D01*
X4636730Y-13996484D02*
X4674825Y-13996484D01*
X4674825Y-13996484D02*
X4693873Y-13986960D01*
X4693873Y-13986960D02*
X4703396Y-13967912D01*
X4703396Y-13967912D02*
X4703396Y-13958388D01*
X4703396Y-13958388D02*
X4693873Y-13939341D01*
X4693873Y-13939341D02*
X4674825Y-13929817D01*
X4674825Y-13929817D02*
X4646253Y-13929817D01*
X4646253Y-13929817D02*
X4627206Y-13920293D01*
X4627206Y-13920293D02*
X4617682Y-13901246D01*
X4617682Y-13901246D02*
X4617682Y-13891722D01*
X4617682Y-13891722D02*
X4627206Y-13872674D01*
X4627206Y-13872674D02*
X4646253Y-13863150D01*
X4646253Y-13863150D02*
X4674825Y-13863150D01*
X4674825Y-13863150D02*
X4693873Y-13872674D01*
X4770063Y-14072674D02*
X4779587Y-14063150D01*
X4779587Y-14063150D02*
X4798634Y-14034579D01*
X4798634Y-14034579D02*
X4808158Y-14015531D01*
X4808158Y-14015531D02*
X4817682Y-13986960D01*
X4817682Y-13986960D02*
X4827206Y-13939341D01*
X4827206Y-13939341D02*
X4827206Y-13901246D01*
X4827206Y-13901246D02*
X4817682Y-13853627D01*
X4817682Y-13853627D02*
X4808158Y-13825055D01*
X4808158Y-13825055D02*
X4798634Y-13806008D01*
X4798634Y-13806008D02*
X4779587Y-13777436D01*
X4779587Y-13777436D02*
X4770063Y-13767912D01*
D14*
X-165000Y-14089000D02*
X-5000Y-14249000D01*
X-5000Y-14089000D02*
X-165000Y-14249000D01*
X-85000Y-14089000D02*
X-85000Y-14249000D01*
X-165000Y-14169000D02*
X-5000Y-14169000D01*
D11*
X360539Y-14260484D02*
X246253Y-14260484D01*
X303396Y-14260484D02*
X303396Y-14060484D01*
X303396Y-14060484D02*
X284348Y-14089055D01*
X284348Y-14089055D02*
X265301Y-14108103D01*
X265301Y-14108103D02*
X246253Y-14117627D01*
X446253Y-14241436D02*
X455777Y-14250960D01*
X455777Y-14250960D02*
X446253Y-14260484D01*
X446253Y-14260484D02*
X436729Y-14250960D01*
X436729Y-14250960D02*
X446253Y-14241436D01*
X446253Y-14241436D02*
X446253Y-14260484D01*
X627205Y-14060484D02*
X589110Y-14060484D01*
X589110Y-14060484D02*
X570063Y-14070008D01*
X570063Y-14070008D02*
X560539Y-14079531D01*
X560539Y-14079531D02*
X541491Y-14108103D01*
X541491Y-14108103D02*
X531967Y-14146198D01*
X531967Y-14146198D02*
X531967Y-14222388D01*
X531967Y-14222388D02*
X541491Y-14241436D01*
X541491Y-14241436D02*
X551015Y-14250960D01*
X551015Y-14250960D02*
X570063Y-14260484D01*
X570063Y-14260484D02*
X608158Y-14260484D01*
X608158Y-14260484D02*
X627205Y-14250960D01*
X627205Y-14250960D02*
X636729Y-14241436D01*
X636729Y-14241436D02*
X646253Y-14222388D01*
X646253Y-14222388D02*
X646253Y-14174769D01*
X646253Y-14174769D02*
X636729Y-14155722D01*
X636729Y-14155722D02*
X627205Y-14146198D01*
X627205Y-14146198D02*
X608158Y-14136674D01*
X608158Y-14136674D02*
X570063Y-14136674D01*
X570063Y-14136674D02*
X551015Y-14146198D01*
X551015Y-14146198D02*
X541491Y-14155722D01*
X541491Y-14155722D02*
X531967Y-14174769D01*
X770062Y-14060484D02*
X789110Y-14060484D01*
X789110Y-14060484D02*
X808158Y-14070008D01*
X808158Y-14070008D02*
X817682Y-14079531D01*
X817682Y-14079531D02*
X827205Y-14098579D01*
X827205Y-14098579D02*
X836729Y-14136674D01*
X836729Y-14136674D02*
X836729Y-14184293D01*
X836729Y-14184293D02*
X827205Y-14222388D01*
X827205Y-14222388D02*
X817682Y-14241436D01*
X817682Y-14241436D02*
X808158Y-14250960D01*
X808158Y-14250960D02*
X789110Y-14260484D01*
X789110Y-14260484D02*
X770062Y-14260484D01*
X770062Y-14260484D02*
X751015Y-14250960D01*
X751015Y-14250960D02*
X741491Y-14241436D01*
X741491Y-14241436D02*
X731967Y-14222388D01*
X731967Y-14222388D02*
X722443Y-14184293D01*
X722443Y-14184293D02*
X722443Y-14136674D01*
X722443Y-14136674D02*
X731967Y-14098579D01*
X731967Y-14098579D02*
X741491Y-14079531D01*
X741491Y-14079531D02*
X751015Y-14070008D01*
X751015Y-14070008D02*
X770062Y-14060484D01*
X960539Y-14060484D02*
X979586Y-14060484D01*
X979586Y-14060484D02*
X998634Y-14070008D01*
X998634Y-14070008D02*
X1008158Y-14079531D01*
X1008158Y-14079531D02*
X1017682Y-14098579D01*
X1017682Y-14098579D02*
X1027205Y-14136674D01*
X1027205Y-14136674D02*
X1027205Y-14184293D01*
X1027205Y-14184293D02*
X1017682Y-14222388D01*
X1017682Y-14222388D02*
X1008158Y-14241436D01*
X1008158Y-14241436D02*
X998634Y-14250960D01*
X998634Y-14250960D02*
X979586Y-14260484D01*
X979586Y-14260484D02*
X960539Y-14260484D01*
X960539Y-14260484D02*
X941491Y-14250960D01*
X941491Y-14250960D02*
X931967Y-14241436D01*
X931967Y-14241436D02*
X922443Y-14222388D01*
X922443Y-14222388D02*
X912920Y-14184293D01*
X912920Y-14184293D02*
X912920Y-14136674D01*
X912920Y-14136674D02*
X922443Y-14098579D01*
X922443Y-14098579D02*
X931967Y-14079531D01*
X931967Y-14079531D02*
X941491Y-14070008D01*
X941491Y-14070008D02*
X960539Y-14060484D01*
X1112920Y-14260484D02*
X1112920Y-14127150D01*
X1112920Y-14146198D02*
X1122444Y-14136674D01*
X1122444Y-14136674D02*
X1141491Y-14127150D01*
X1141491Y-14127150D02*
X1170063Y-14127150D01*
X1170063Y-14127150D02*
X1189110Y-14136674D01*
X1189110Y-14136674D02*
X1198634Y-14155722D01*
X1198634Y-14155722D02*
X1198634Y-14260484D01*
X1198634Y-14155722D02*
X1208158Y-14136674D01*
X1208158Y-14136674D02*
X1227205Y-14127150D01*
X1227205Y-14127150D02*
X1255777Y-14127150D01*
X1255777Y-14127150D02*
X1274825Y-14136674D01*
X1274825Y-14136674D02*
X1284348Y-14155722D01*
X1284348Y-14155722D02*
X1284348Y-14260484D01*
X1379586Y-14260484D02*
X1379586Y-14127150D01*
X1379586Y-14146198D02*
X1389110Y-14136674D01*
X1389110Y-14136674D02*
X1408158Y-14127150D01*
X1408158Y-14127150D02*
X1436729Y-14127150D01*
X1436729Y-14127150D02*
X1455777Y-14136674D01*
X1455777Y-14136674D02*
X1465301Y-14155722D01*
X1465301Y-14155722D02*
X1465301Y-14260484D01*
X1465301Y-14155722D02*
X1474824Y-14136674D01*
X1474824Y-14136674D02*
X1493872Y-14127150D01*
X1493872Y-14127150D02*
X1522443Y-14127150D01*
X1522443Y-14127150D02*
X1541491Y-14136674D01*
X1541491Y-14136674D02*
X1551015Y-14155722D01*
X1551015Y-14155722D02*
X1551015Y-14260484D01*
X1941491Y-14050960D02*
X1770063Y-14308103D01*
X2198634Y-14060484D02*
X2217682Y-14060484D01*
X2217682Y-14060484D02*
X2236729Y-14070008D01*
X2236729Y-14070008D02*
X2246253Y-14079531D01*
X2246253Y-14079531D02*
X2255777Y-14098579D01*
X2255777Y-14098579D02*
X2265301Y-14136674D01*
X2265301Y-14136674D02*
X2265301Y-14184293D01*
X2265301Y-14184293D02*
X2255777Y-14222388D01*
X2255777Y-14222388D02*
X2246253Y-14241436D01*
X2246253Y-14241436D02*
X2236729Y-14250960D01*
X2236729Y-14250960D02*
X2217682Y-14260484D01*
X2217682Y-14260484D02*
X2198634Y-14260484D01*
X2198634Y-14260484D02*
X2179587Y-14250960D01*
X2179587Y-14250960D02*
X2170063Y-14241436D01*
X2170063Y-14241436D02*
X2160539Y-14222388D01*
X2160539Y-14222388D02*
X2151015Y-14184293D01*
X2151015Y-14184293D02*
X2151015Y-14136674D01*
X2151015Y-14136674D02*
X2160539Y-14098579D01*
X2160539Y-14098579D02*
X2170063Y-14079531D01*
X2170063Y-14079531D02*
X2179587Y-14070008D01*
X2179587Y-14070008D02*
X2198634Y-14060484D01*
X2351015Y-14241436D02*
X2360539Y-14250960D01*
X2360539Y-14250960D02*
X2351015Y-14260484D01*
X2351015Y-14260484D02*
X2341491Y-14250960D01*
X2341491Y-14250960D02*
X2351015Y-14241436D01*
X2351015Y-14241436D02*
X2351015Y-14260484D01*
X2484348Y-14060484D02*
X2503396Y-14060484D01*
X2503396Y-14060484D02*
X2522444Y-14070008D01*
X2522444Y-14070008D02*
X2531968Y-14079531D01*
X2531968Y-14079531D02*
X2541491Y-14098579D01*
X2541491Y-14098579D02*
X2551015Y-14136674D01*
X2551015Y-14136674D02*
X2551015Y-14184293D01*
X2551015Y-14184293D02*
X2541491Y-14222388D01*
X2541491Y-14222388D02*
X2531968Y-14241436D01*
X2531968Y-14241436D02*
X2522444Y-14250960D01*
X2522444Y-14250960D02*
X2503396Y-14260484D01*
X2503396Y-14260484D02*
X2484348Y-14260484D01*
X2484348Y-14260484D02*
X2465301Y-14250960D01*
X2465301Y-14250960D02*
X2455777Y-14241436D01*
X2455777Y-14241436D02*
X2446253Y-14222388D01*
X2446253Y-14222388D02*
X2436729Y-14184293D01*
X2436729Y-14184293D02*
X2436729Y-14136674D01*
X2436729Y-14136674D02*
X2446253Y-14098579D01*
X2446253Y-14098579D02*
X2455777Y-14079531D01*
X2455777Y-14079531D02*
X2465301Y-14070008D01*
X2465301Y-14070008D02*
X2484348Y-14060484D01*
X2722444Y-14060484D02*
X2684348Y-14060484D01*
X2684348Y-14060484D02*
X2665301Y-14070008D01*
X2665301Y-14070008D02*
X2655777Y-14079531D01*
X2655777Y-14079531D02*
X2636729Y-14108103D01*
X2636729Y-14108103D02*
X2627206Y-14146198D01*
X2627206Y-14146198D02*
X2627206Y-14222388D01*
X2627206Y-14222388D02*
X2636729Y-14241436D01*
X2636729Y-14241436D02*
X2646253Y-14250960D01*
X2646253Y-14250960D02*
X2665301Y-14260484D01*
X2665301Y-14260484D02*
X2703396Y-14260484D01*
X2703396Y-14260484D02*
X2722444Y-14250960D01*
X2722444Y-14250960D02*
X2731968Y-14241436D01*
X2731968Y-14241436D02*
X2741491Y-14222388D01*
X2741491Y-14222388D02*
X2741491Y-14174769D01*
X2741491Y-14174769D02*
X2731968Y-14155722D01*
X2731968Y-14155722D02*
X2722444Y-14146198D01*
X2722444Y-14146198D02*
X2703396Y-14136674D01*
X2703396Y-14136674D02*
X2665301Y-14136674D01*
X2665301Y-14136674D02*
X2646253Y-14146198D01*
X2646253Y-14146198D02*
X2636729Y-14155722D01*
X2636729Y-14155722D02*
X2627206Y-14174769D01*
X2808158Y-14060484D02*
X2931967Y-14060484D01*
X2931967Y-14060484D02*
X2865301Y-14136674D01*
X2865301Y-14136674D02*
X2893872Y-14136674D01*
X2893872Y-14136674D02*
X2912920Y-14146198D01*
X2912920Y-14146198D02*
X2922444Y-14155722D01*
X2922444Y-14155722D02*
X2931967Y-14174769D01*
X2931967Y-14174769D02*
X2931967Y-14222388D01*
X2931967Y-14222388D02*
X2922444Y-14241436D01*
X2922444Y-14241436D02*
X2912920Y-14250960D01*
X2912920Y-14250960D02*
X2893872Y-14260484D01*
X2893872Y-14260484D02*
X2836729Y-14260484D01*
X2836729Y-14260484D02*
X2817682Y-14250960D01*
X2817682Y-14250960D02*
X2808158Y-14241436D01*
X3055777Y-14060484D02*
X3074825Y-14060484D01*
X3074825Y-14060484D02*
X3093872Y-14070008D01*
X3093872Y-14070008D02*
X3103396Y-14079531D01*
X3103396Y-14079531D02*
X3112920Y-14098579D01*
X3112920Y-14098579D02*
X3122444Y-14136674D01*
X3122444Y-14136674D02*
X3122444Y-14184293D01*
X3122444Y-14184293D02*
X3112920Y-14222388D01*
X3112920Y-14222388D02*
X3103396Y-14241436D01*
X3103396Y-14241436D02*
X3093872Y-14250960D01*
X3093872Y-14250960D02*
X3074825Y-14260484D01*
X3074825Y-14260484D02*
X3055777Y-14260484D01*
X3055777Y-14260484D02*
X3036729Y-14250960D01*
X3036729Y-14250960D02*
X3027206Y-14241436D01*
X3027206Y-14241436D02*
X3017682Y-14222388D01*
X3017682Y-14222388D02*
X3008158Y-14184293D01*
X3008158Y-14184293D02*
X3008158Y-14136674D01*
X3008158Y-14136674D02*
X3017682Y-14098579D01*
X3017682Y-14098579D02*
X3027206Y-14079531D01*
X3027206Y-14079531D02*
X3036729Y-14070008D01*
X3036729Y-14070008D02*
X3055777Y-14060484D01*
X3198634Y-14060484D02*
X3198634Y-14098579D01*
X3274825Y-14060484D02*
X3274825Y-14098579D01*
X3570063Y-14336674D02*
X3560539Y-14327150D01*
X3560539Y-14327150D02*
X3541491Y-14298579D01*
X3541491Y-14298579D02*
X3531968Y-14279531D01*
X3531968Y-14279531D02*
X3522444Y-14250960D01*
X3522444Y-14250960D02*
X3512920Y-14203341D01*
X3512920Y-14203341D02*
X3512920Y-14165246D01*
X3512920Y-14165246D02*
X3522444Y-14117627D01*
X3522444Y-14117627D02*
X3531968Y-14089055D01*
X3531968Y-14089055D02*
X3541491Y-14070008D01*
X3541491Y-14070008D02*
X3560539Y-14041436D01*
X3560539Y-14041436D02*
X3570063Y-14031912D01*
X3627206Y-14060484D02*
X3751015Y-14060484D01*
X3751015Y-14060484D02*
X3684348Y-14136674D01*
X3684348Y-14136674D02*
X3712920Y-14136674D01*
X3712920Y-14136674D02*
X3731968Y-14146198D01*
X3731968Y-14146198D02*
X3741491Y-14155722D01*
X3741491Y-14155722D02*
X3751015Y-14174769D01*
X3751015Y-14174769D02*
X3751015Y-14222388D01*
X3751015Y-14222388D02*
X3741491Y-14241436D01*
X3741491Y-14241436D02*
X3731968Y-14250960D01*
X3731968Y-14250960D02*
X3712920Y-14260484D01*
X3712920Y-14260484D02*
X3655777Y-14260484D01*
X3655777Y-14260484D02*
X3636729Y-14250960D01*
X3636729Y-14250960D02*
X3627206Y-14241436D01*
X3874825Y-14060484D02*
X3893872Y-14060484D01*
X3893872Y-14060484D02*
X3912920Y-14070008D01*
X3912920Y-14070008D02*
X3922444Y-14079531D01*
X3922444Y-14079531D02*
X3931968Y-14098579D01*
X3931968Y-14098579D02*
X3941491Y-14136674D01*
X3941491Y-14136674D02*
X3941491Y-14184293D01*
X3941491Y-14184293D02*
X3931968Y-14222388D01*
X3931968Y-14222388D02*
X3922444Y-14241436D01*
X3922444Y-14241436D02*
X3912920Y-14250960D01*
X3912920Y-14250960D02*
X3893872Y-14260484D01*
X3893872Y-14260484D02*
X3874825Y-14260484D01*
X3874825Y-14260484D02*
X3855777Y-14250960D01*
X3855777Y-14250960D02*
X3846253Y-14241436D01*
X3846253Y-14241436D02*
X3836729Y-14222388D01*
X3836729Y-14222388D02*
X3827206Y-14184293D01*
X3827206Y-14184293D02*
X3827206Y-14136674D01*
X3827206Y-14136674D02*
X3836729Y-14098579D01*
X3836729Y-14098579D02*
X3846253Y-14079531D01*
X3846253Y-14079531D02*
X3855777Y-14070008D01*
X3855777Y-14070008D02*
X3874825Y-14060484D01*
X4179587Y-14260484D02*
X4179587Y-14060484D01*
X4265301Y-14260484D02*
X4265301Y-14155722D01*
X4265301Y-14155722D02*
X4255777Y-14136674D01*
X4255777Y-14136674D02*
X4236730Y-14127150D01*
X4236730Y-14127150D02*
X4208158Y-14127150D01*
X4208158Y-14127150D02*
X4189110Y-14136674D01*
X4189110Y-14136674D02*
X4179587Y-14146198D01*
X4389111Y-14260484D02*
X4370063Y-14250960D01*
X4370063Y-14250960D02*
X4360539Y-14241436D01*
X4360539Y-14241436D02*
X4351015Y-14222388D01*
X4351015Y-14222388D02*
X4351015Y-14165246D01*
X4351015Y-14165246D02*
X4360539Y-14146198D01*
X4360539Y-14146198D02*
X4370063Y-14136674D01*
X4370063Y-14136674D02*
X4389111Y-14127150D01*
X4389111Y-14127150D02*
X4417682Y-14127150D01*
X4417682Y-14127150D02*
X4436730Y-14136674D01*
X4436730Y-14136674D02*
X4446253Y-14146198D01*
X4446253Y-14146198D02*
X4455777Y-14165246D01*
X4455777Y-14165246D02*
X4455777Y-14222388D01*
X4455777Y-14222388D02*
X4446253Y-14241436D01*
X4446253Y-14241436D02*
X4436730Y-14250960D01*
X4436730Y-14250960D02*
X4417682Y-14260484D01*
X4417682Y-14260484D02*
X4389111Y-14260484D01*
X4570063Y-14260484D02*
X4551015Y-14250960D01*
X4551015Y-14250960D02*
X4541492Y-14231912D01*
X4541492Y-14231912D02*
X4541492Y-14060484D01*
X4722444Y-14250960D02*
X4703396Y-14260484D01*
X4703396Y-14260484D02*
X4665301Y-14260484D01*
X4665301Y-14260484D02*
X4646253Y-14250960D01*
X4646253Y-14250960D02*
X4636730Y-14231912D01*
X4636730Y-14231912D02*
X4636730Y-14155722D01*
X4636730Y-14155722D02*
X4646253Y-14136674D01*
X4646253Y-14136674D02*
X4665301Y-14127150D01*
X4665301Y-14127150D02*
X4703396Y-14127150D01*
X4703396Y-14127150D02*
X4722444Y-14136674D01*
X4722444Y-14136674D02*
X4731968Y-14155722D01*
X4731968Y-14155722D02*
X4731968Y-14174769D01*
X4731968Y-14174769D02*
X4636730Y-14193817D01*
X4808158Y-14250960D02*
X4827206Y-14260484D01*
X4827206Y-14260484D02*
X4865301Y-14260484D01*
X4865301Y-14260484D02*
X4884349Y-14250960D01*
X4884349Y-14250960D02*
X4893873Y-14231912D01*
X4893873Y-14231912D02*
X4893873Y-14222388D01*
X4893873Y-14222388D02*
X4884349Y-14203341D01*
X4884349Y-14203341D02*
X4865301Y-14193817D01*
X4865301Y-14193817D02*
X4836730Y-14193817D01*
X4836730Y-14193817D02*
X4817682Y-14184293D01*
X4817682Y-14184293D02*
X4808158Y-14165246D01*
X4808158Y-14165246D02*
X4808158Y-14155722D01*
X4808158Y-14155722D02*
X4817682Y-14136674D01*
X4817682Y-14136674D02*
X4836730Y-14127150D01*
X4836730Y-14127150D02*
X4865301Y-14127150D01*
X4865301Y-14127150D02*
X4884349Y-14136674D01*
X4960539Y-14336674D02*
X4970063Y-14327150D01*
X4970063Y-14327150D02*
X4989111Y-14298579D01*
X4989111Y-14298579D02*
X4998634Y-14279531D01*
X4998634Y-14279531D02*
X5008158Y-14250960D01*
X5008158Y-14250960D02*
X5017682Y-14203341D01*
X5017682Y-14203341D02*
X5017682Y-14165246D01*
X5017682Y-14165246D02*
X5008158Y-14117627D01*
X5008158Y-14117627D02*
X4998634Y-14089055D01*
X4998634Y-14089055D02*
X4989111Y-14070008D01*
X4989111Y-14070008D02*
X4970063Y-14041436D01*
X4970063Y-14041436D02*
X4960539Y-14031912D01*
M02*
