%TF.GenerationSoftware,KiCad,Pcbnew,10.0.2*%
%TF.CreationDate,2026-10-07T09:50:00+02:00*%
%TF.ProjectId,TR-808PSU_Rev0.1,54522d38-3038-4505-9355-5f526576302e,rev?*%
%TF.SameCoordinates,Original*%
%TF.FileFunction,Copper,L1,Top*%
%TF.FilePolarity,Positive*%
%FSLAX46Y46*%
G04 Gerber Fmt 4.6, Leading zero omitted, Abs format (unit mm)*
G04 Created by KiCad (PCBNEW 10.0.2) date 2026-10-07 09:50:00*
%MOMM*%
%LPD*%
G01*
G04 APERTURE LIST*
G04 Aperture macros list*
%AMRoundRect*
0 Rectangle with rounded corners*
0 $1 Rounding radius*
0 $2 $3 $4 $5 $6 $7 $8 $9 X,Y pos of 4 corners*
0 Add a 4 corners polygon primitive as box body*
4,1,4,$2,$3,$4,$5,$6,$7,$8,$9,$2,$3,0*
0 Add four circle primitives for the rounded corners*
1,1,$1+$1,$2,$3*
1,1,$1+$1,$4,$5*
1,1,$1+$1,$6,$7*
1,1,$1+$1,$8,$9*
0 Add four rect primitives between the rounded corners*
20,1,$1+$1,$2,$3,$4,$5,0*
20,1,$1+$1,$4,$5,$6,$7,0*
20,1,$1+$1,$6,$7,$8,$9,0*
20,1,$1+$1,$8,$9,$2,$3,0*%
G04 Aperture macros list end*
%TA.AperFunction,ComponentPad*%
%ADD10C,1.600000*%
%TD*%
%TA.AperFunction,ComponentPad*%
%ADD11RoundRect,0.850000X-1.350000X-0.850000X1.350000X-0.850000X1.350000X0.850000X-1.350000X0.850000X0*%
%TD*%
%TA.AperFunction,ComponentPad*%
%ADD12C,2.000000*%
%TD*%
%TA.AperFunction,ComponentPad*%
%ADD13RoundRect,0.250001X-0.949999X0.949999X-0.949999X-0.949999X0.949999X-0.949999X0.949999X0.949999X0*%
%TD*%
%TA.AperFunction,ComponentPad*%
%ADD14C,2.400000*%
%TD*%
%TA.AperFunction,ComponentPad*%
%ADD15R,1.905000X2.000000*%
%TD*%
%TA.AperFunction,ComponentPad*%
%ADD16O,1.905000X2.000000*%
%TD*%
%TA.AperFunction,ComponentPad*%
%ADD17RoundRect,0.250000X-0.750000X-0.750000X0.750000X-0.750000X0.750000X0.750000X-0.750000X0.750000X0*%
%TD*%
%TA.AperFunction,ComponentPad*%
%ADD18O,4.000000X5.000000*%
%TD*%
%TA.AperFunction,ComponentPad*%
%ADD19RoundRect,0.250000X-0.550000X0.550000X-0.550000X-0.550000X0.550000X-0.550000X0.550000X0.550000X0*%
%TD*%
%TA.AperFunction,ComponentPad*%
%ADD20RoundRect,0.250001X-0.949999X-0.949999X0.949999X-0.949999X0.949999X0.949999X-0.949999X0.949999X0*%
%TD*%
%TA.AperFunction,ComponentPad*%
%ADD21R,2.000000X2.000000*%
%TD*%
%TA.AperFunction,ComponentPad*%
%ADD22O,2.000000X2.000000*%
%TD*%
%TA.AperFunction,ComponentPad*%
%ADD23RoundRect,0.250000X-0.550000X-0.550000X0.550000X-0.550000X0.550000X0.550000X-0.550000X0.550000X0*%
%TD*%
%TA.AperFunction,ViaPad*%
%ADD24C,0.560000*%
%TD*%
%TA.AperFunction,Conductor*%
%ADD25C,0.800000*%
%TD*%
%TA.AperFunction,Conductor*%
%ADD26C,1.000000*%
%TD*%
%TA.AperFunction,Conductor*%
%ADD27C,0.300000*%
%TD*%
%TA.AperFunction,Conductor*%
%ADD28C,0.500000*%
%TD*%
%TA.AperFunction,Conductor*%
%ADD29C,0.250000*%
%TD*%
%TA.AperFunction,Conductor*%
%ADD30C,0.400000*%
%TD*%
%TA.AperFunction,Conductor*%
%ADD31C,0.600000*%
%TD*%
G04 APERTURE END LIST*
D10*
%TO.P,R5,1*%
%TO.N,/COL2*%
X92830000Y-57290000D03*
%TO.P,R5,2*%
%TO.N,/-15V*%
X92830000Y-47130000D03*
%TD*%
D11*
%TO.P,P12,1*%
%TO.N,/AC15_RAW_A*%
X57070000Y-110980000D03*
%TD*%
%TO.P,P2,1*%
%TO.N,/MAINS_B*%
X7780000Y-34980000D03*
%TD*%
D12*
%TO.P,C5,1*%
%TO.N,/+15V*%
X68570000Y-38520000D03*
%TO.P,C5,2*%
%TO.N,/GND15*%
X76070000Y-38520000D03*
%TD*%
D13*
%TO.P,C13,1*%
%TO.N,/RAW15P*%
X108470000Y-55310000D03*
D14*
%TO.P,C13,2*%
%TO.N,/GND15*%
X108470000Y-62810000D03*
%TD*%
D15*
%TO.P,Q2,1*%
%TO.N,/VB2*%
X105300000Y-27290000D03*
D16*
%TO.P,Q2,2*%
%TO.N,/COL2*%
X107840000Y-27290000D03*
%TO.P,Q2,3*%
%TO.N,/RAW15N*%
X110380000Y-27290000D03*
%TD*%
D14*
%TO.P,C1,1*%
%TO.N,/SW_A*%
X23740000Y-65660000D03*
%TO.P,C1,2*%
%TO.N,/SW_B*%
X23740000Y-43160000D03*
%TD*%
D17*
%TO.P,C11,1*%
%TO.N,/GND15*%
X82040000Y-30260000D03*
D12*
%TO.P,C11,2*%
%TO.N,Net-(C11-Pad2)*%
X87040000Y-30260000D03*
%TD*%
D18*
%TO.P,F2,1*%
%TO.N,/AC5_RAW*%
X52770000Y-77420000D03*
%TO.P,F2,2*%
%TO.N,Net-(D1-Pad2)*%
X52770000Y-99920000D03*
%TD*%
D11*
%TO.P,P9,1*%
%TO.N,Net-(P9-Pad1)*%
X22200000Y-110980000D03*
%TD*%
D12*
%TO.P,C6,1*%
%TO.N,/GND15*%
X81980000Y-38120000D03*
%TO.P,C6,2*%
%TO.N,/-15V*%
X89480000Y-38120000D03*
%TD*%
D10*
%TO.P,R7,1*%
%TO.N,/RAW15P*%
X52750000Y-26440000D03*
%TO.P,R7,2*%
%TO.N,/VB1*%
X62910000Y-26440000D03*
%TD*%
D18*
%TO.P,F1,1*%
%TO.N,/SW_A*%
X23940000Y-77420000D03*
%TO.P,F1,2*%
%TO.N,/PRI_8*%
X23940000Y-99920000D03*
%TD*%
D11*
%TO.P,P8,1*%
%TO.N,/PRI_8*%
X7780000Y-96560000D03*
%TD*%
%TO.P,P4,1*%
%TO.N,/MAINS_A*%
X7780000Y-53750000D03*
%TD*%
D18*
%TO.P,F3,1*%
%TO.N,/AC15_RAW_A*%
X69900000Y-77420000D03*
%TO.P,F3,2*%
%TO.N,/AC15_A*%
X69900000Y-99920000D03*
%TD*%
D11*
%TO.P,P11,1*%
%TO.N,/AC5_B*%
X46510000Y-110980000D03*
%TD*%
D10*
%TO.P,C7,1*%
%TO.N,/COMP1*%
X74170000Y-46840000D03*
%TO.P,C7,2*%
%TO.N,/GND15*%
X79170000Y-46840000D03*
%TD*%
%TO.P,R1,1*%
%TO.N,/VB2*%
X99870000Y-70160000D03*
%TO.P,R1,2*%
%TO.N,/RAW15N*%
X99870000Y-62540000D03*
%TD*%
%TO.P,R2,1*%
%TO.N,/COL1*%
X68400000Y-56110000D03*
%TO.P,R2,2*%
%TO.N,/+15V*%
X68400000Y-45950000D03*
%TD*%
D11*
%TO.P,P19,1*%
%TO.N,/+5V*%
X131920000Y-53370000D03*
%TD*%
%TO.P,P18,1*%
%TO.N,/GND5*%
X131920000Y-63270000D03*
%TD*%
%TO.P,P22,1*%
%TO.N,/+15V*%
X131920000Y-22300000D03*
%TD*%
D10*
%TO.P,R6,1*%
%TO.N,Net-(C11-Pad2)*%
X94390000Y-36720000D03*
%TO.P,R6,2*%
%TO.N,/-15V*%
X94390000Y-29100000D03*
%TD*%
D11*
%TO.P,P6,1*%
%TO.N,/SW_B*%
X7780000Y-77680000D03*
%TD*%
%TO.P,P10,1*%
%TO.N,/AC5_RAW*%
X35960000Y-110980000D03*
%TD*%
D12*
%TO.P,C4,1*%
%TO.N,/RAW5*%
X43870000Y-56250000D03*
%TO.P,C4,2*%
%TO.N,/GND5*%
X51370000Y-56250000D03*
%TD*%
D19*
%TO.P,D3,1*%
%TO.N,/RAMV*%
X120570000Y-85710000D03*
D10*
%TO.P,D3,2*%
%TO.N,/+5V*%
X120570000Y-95870000D03*
%TD*%
D11*
%TO.P,P7,1*%
%TO.N,/SW_B*%
X7780000Y-84320000D03*
%TD*%
D15*
%TO.P,IC1,1*%
%TO.N,/RAW5*%
X32060000Y-28690000D03*
D16*
%TO.P,IC1,2*%
%TO.N,/GND5*%
X34600000Y-28690000D03*
%TO.P,IC1,3*%
%TO.N,/+5V*%
X37140000Y-28690000D03*
%TD*%
D13*
%TO.P,C12,1*%
%TO.N,/GND15*%
X107510000Y-35150000D03*
D14*
%TO.P,C12,2*%
%TO.N,/RAW15N*%
X107510000Y-42650000D03*
%TD*%
D11*
%TO.P,P3,1*%
%TO.N,/MAINS_A*%
X7780000Y-46570000D03*
%TD*%
D20*
%TO.P,C3,1*%
%TO.N,/RAW5*%
X47460000Y-45190000D03*
D14*
%TO.P,C3,2*%
%TO.N,/GND5*%
X52460000Y-45190000D03*
%TD*%
D10*
%TO.P,R3,1*%
%TO.N,/+15V*%
X69110000Y-42500000D03*
%TO.P,R3,2*%
%TO.N,/ADJ*%
X79270000Y-42500000D03*
%TD*%
D11*
%TO.P,P16,1*%
%TO.N,/BAT_P*%
X131920000Y-86220000D03*
%TD*%
%TO.P,P20,1*%
%TO.N,/-15V*%
X131920000Y-41340000D03*
%TD*%
D10*
%TO.P,C8,1*%
%TO.N,/COMP2*%
X81820000Y-45040000D03*
%TO.P,C8,2*%
%TO.N,/GND15*%
X84320000Y-45040000D03*
%TD*%
D18*
%TO.P,F4,1*%
%TO.N,/AC15_RAW_B*%
X87310000Y-77420000D03*
%TO.P,F4,2*%
%TO.N,/AC15_B*%
X87310000Y-99920000D03*
%TD*%
D11*
%TO.P,P5,1*%
%TO.N,/SW_A*%
X7780000Y-65610000D03*
%TD*%
%TO.P,P21,1*%
%TO.N,/GND15*%
X131920000Y-31770000D03*
%TD*%
D10*
%TO.P,R4,1*%
%TO.N,/ADJ*%
X81580000Y-42500000D03*
%TO.P,R4,2*%
%TO.N,/GND15*%
X91740000Y-42500000D03*
%TD*%
D19*
%TO.P,C14,1*%
%TO.N,/+15V*%
X122710000Y-26420000D03*
D10*
%TO.P,C14,2*%
%TO.N,/GND15*%
X122710000Y-28920000D03*
%TD*%
D21*
%TO.P,D2,1*%
%TO.N,/RAW15P*%
X63810000Y-65050000D03*
D22*
%TO.P,D2,2*%
%TO.N,/AC15_A*%
X63810000Y-70130000D03*
%TO.P,D2,3*%
%TO.N,/RAW15N*%
X68890000Y-70130000D03*
%TO.P,D2,4*%
%TO.N,/AC15_B*%
X68890000Y-65050000D03*
%TD*%
D11*
%TO.P,P15,1*%
%TO.N,/GND5*%
X131920000Y-95530000D03*
%TD*%
D12*
%TO.P,C9,1*%
%TO.N,/GND15*%
X92700000Y-69660000D03*
%TO.P,C9,2*%
%TO.N,/VB2*%
X92700000Y-62160000D03*
%TD*%
D19*
%TO.P,C16,1*%
%TO.N,/+5V*%
X122270000Y-56920000D03*
D10*
%TO.P,C16,2*%
%TO.N,/GND5*%
X122270000Y-59420000D03*
%TD*%
D12*
%TO.P,C2,1*%
%TO.N,/+5V*%
X38520000Y-32440000D03*
%TO.P,C2,2*%
%TO.N,/GND5*%
X48520000Y-32440000D03*
%TD*%
D19*
%TO.P,C15,1*%
%TO.N,/GND15*%
X122670000Y-37160000D03*
D10*
%TO.P,C15,2*%
%TO.N,/-15V*%
X122670000Y-39660000D03*
%TD*%
D12*
%TO.P,C10,1*%
%TO.N,/VB1*%
X74240000Y-69570000D03*
%TO.P,C10,2*%
%TO.N,/GND15*%
X74240000Y-62070000D03*
%TD*%
D11*
%TO.P,P14,1*%
%TO.N,/AC15_RAW_B*%
X78340000Y-110980000D03*
%TD*%
D23*
%TO.P,IC2,1*%
%TO.N,/GND15*%
X80040000Y-51150000D03*
D10*
%TO.P,IC2,2*%
%TO.N,/ADJ*%
X80040000Y-53690000D03*
%TO.P,IC2,3*%
%TO.N,/COMP1*%
X80040000Y-56230000D03*
%TO.P,IC2,4*%
%TO.N,/+15V*%
X80040000Y-58770000D03*
%TO.P,IC2,5*%
%TO.N,/COL1*%
X80040000Y-61310000D03*
%TO.P,IC2,6*%
%TO.N,unconnected-(IC2-NC-Pad6)*%
X80040000Y-63850000D03*
%TO.P,IC2,7*%
%TO.N,/VB1*%
X80040000Y-66390000D03*
%TO.P,IC2,8*%
%TO.N,/VB2*%
X87660000Y-66390000D03*
%TO.P,IC2,9*%
%TO.N,unconnected-(IC2-NC-Pad9)*%
X87660000Y-63850000D03*
%TO.P,IC2,10*%
%TO.N,/COL2*%
X87660000Y-61310000D03*
%TO.P,IC2,11*%
%TO.N,/-15V*%
X87660000Y-58770000D03*
%TO.P,IC2,12*%
%TO.N,/COMP2*%
X87660000Y-56230000D03*
%TO.P,IC2,13*%
%TO.N,unconnected-(IC2-NC-Pad13)*%
X87660000Y-53690000D03*
%TO.P,IC2,14*%
%TO.N,unconnected-(IC2-VOLTAGE_ADJUST-Pad14)*%
X87660000Y-51150000D03*
%TD*%
D19*
%TO.P,D4,1*%
%TO.N,/RAMV*%
X125160000Y-85310000D03*
D10*
%TO.P,D4,2*%
%TO.N,/BAT_P*%
X125160000Y-95470000D03*
%TD*%
D11*
%TO.P,P13,1*%
%TO.N,/GND15*%
X67950000Y-110980000D03*
%TD*%
D21*
%TO.P,D1,1*%
%TO.N,/RAW5*%
X42880000Y-62650000D03*
D22*
%TO.P,D1,2*%
%TO.N,Net-(D1-Pad2)*%
X42880000Y-67730000D03*
%TO.P,D1,3*%
%TO.N,/GND5*%
X47960000Y-67730000D03*
%TO.P,D1,4*%
%TO.N,/AC5_B*%
X47960000Y-62650000D03*
%TD*%
D11*
%TO.P,P17,1*%
%TO.N,/RAMV*%
X131920000Y-72790000D03*
%TD*%
%TO.P,P1,1*%
%TO.N,/MAINS_B*%
X7780000Y-27960000D03*
%TD*%
D15*
%TO.P,Q1,1*%
%TO.N,/VB1*%
X68890000Y-26490000D03*
D16*
%TO.P,Q1,2*%
%TO.N,/COL1*%
X71430000Y-26490000D03*
%TO.P,Q1,3*%
%TO.N,/RAW15P*%
X73970000Y-26490000D03*
%TD*%
D24*
%TO.N,/GND15*%
X78105000Y-67945000D03*
X73660000Y-74295000D03*
%TO.N,/GND5*%
X57785000Y-49530000D03*
%TO.N,/COMP2*%
X85090000Y-47625000D03*
%TO.N,/AC15_B*%
X80645000Y-85090000D03*
%TD*%
%TO.N,/-15V*%
D25*
X122017200Y-38832200D02*
G75*
G03*
X120249500Y-38099995I-1767700J-1767700D01*
G01*
%TO.N,/GND15*%
D26*
X72701100Y-73025000D02*
X72713900Y-73025000D01*
X95982200Y-69117800D02*
X101502800Y-63597200D01*
X72390000Y-65170500D02*
X72390000Y-72713900D01*
X78105000Y-67075500D02*
X78105000Y-67945000D01*
D27*
X73660000Y-74100000D02*
X73660000Y-74295000D01*
D26*
X73245000Y-73245000D02*
X73348800Y-73348800D01*
X77372800Y-65307800D02*
G75*
G02*
X78105005Y-67075500I-1767700J-1767700D01*
G01*
D25*
X72390000Y-72713900D02*
G75*
G03*
X72701100Y-73025000I311000J-100D01*
G01*
D26*
X74295000Y-58185500D02*
G75*
G02*
X75027204Y-56417804I2499900J0D01*
G01*
X101502800Y-63597200D02*
G75*
G02*
X103270500Y-62864995I1767700J-1767700D01*
G01*
X73122200Y-63402800D02*
G75*
G03*
X72389995Y-65170500I1767700J-1767700D01*
G01*
X72713900Y-73025000D02*
G75*
G02*
X73244991Y-73245009I-200J-751500D01*
G01*
X94214500Y-69850000D02*
G75*
G03*
X95982196Y-69117796I0J2499900D01*
G01*
D28*
X73348800Y-73348800D02*
G75*
G02*
X73660011Y-74100000I-751500J-751400D01*
G01*
%TO.N,/RAW15P*%
D26*
X84455000Y-41509500D02*
X84455000Y-37710100D01*
X83832700Y-36207700D02*
X83807300Y-36182300D01*
X62767800Y-36292200D02*
X57247200Y-41812800D01*
X96422800Y-54512800D02*
X85187200Y-43277200D01*
X56515000Y-43580500D02*
X56515000Y-62270000D01*
X82304900Y-35560000D02*
X64535500Y-35560000D01*
X64535500Y-35560000D02*
G75*
G03*
X62767804Y-36292204I0J-2499900D01*
G01*
X84455000Y-37710100D02*
G75*
G03*
X83832728Y-36207672I-2124400J200D01*
G01*
X56515000Y-62270000D02*
G75*
G03*
X59015000Y-64770000I2499900J-100D01*
G01*
X83807300Y-36182300D02*
G75*
G03*
X82304900Y-35560039I-1502200J-1502100D01*
G01*
X57247200Y-41812800D02*
G75*
G03*
X56514995Y-43580500I1767700J-1767700D01*
G01*
X85187200Y-43277200D02*
G75*
G02*
X84454995Y-41509500I1767700J1767700D01*
G01*
X98190500Y-55245000D02*
G75*
G02*
X96422804Y-54512796I0J2499900D01*
G01*
%TO.N,/AC5_B*%
X46452200Y-64672800D02*
G75*
G03*
X45719995Y-66440500I1767700J-1767700D01*
G01*
%TO.N,/+5V*%
X121519500Y-33020000D02*
X52470500Y-33020000D01*
X124460000Y-54209500D02*
X124460000Y-35960500D01*
X123727800Y-34192800D02*
X123287200Y-33752200D01*
X50702800Y-33752200D02*
X50262200Y-34192800D01*
X48494500Y-34925000D02*
X42310500Y-34925000D01*
X42310500Y-34925000D02*
G75*
G02*
X40542804Y-34192796I0J2499900D01*
G01*
X123287200Y-33752200D02*
G75*
G03*
X121519500Y-33019995I-1767700J-1767700D01*
G01*
X52470500Y-33020000D02*
G75*
G03*
X50702804Y-33752204I0J-2499900D01*
G01*
X123727800Y-55977200D02*
G75*
G03*
X124460005Y-54209500I-1767700J1767700D01*
G01*
X124460000Y-35960500D02*
G75*
G03*
X123727796Y-34192804I-2499900J0D01*
G01*
X50262200Y-34192800D02*
G75*
G02*
X48494500Y-34925005I-1767700J1767700D01*
G01*
%TO.N,/GND5*%
X87650000Y-49530000D02*
X57785000Y-49530000D01*
D29*
X88900000Y-57539900D02*
X88900000Y-50780000D01*
D26*
X89547700Y-59067700D02*
X89522300Y-59042300D01*
D30*
X88900000Y-50780000D02*
G75*
G03*
X87650000Y-49530000I-1249900J100D01*
G01*
D25*
X89522300Y-59042300D02*
G75*
G02*
X88900039Y-57539900I1502100J1502200D01*
G01*
D26*
X91050100Y-59690000D02*
G75*
G02*
X89547672Y-59067728I-200J2124400D01*
G01*
%TO.N,/COMP2*%
X85077300Y-47625000D02*
X85090000Y-47625000D01*
X84015000Y-47185000D02*
G75*
G03*
X85077300Y-47624985I1062500J1062900D01*
G01*
%TO.N,/AC15_B*%
X71120000Y-68345500D02*
X71120000Y-73348800D01*
X73245000Y-75785000D02*
X79912800Y-82452800D01*
X80645000Y-84220500D02*
X80645000Y-85090000D01*
X70387800Y-66577800D02*
G75*
G02*
X71120005Y-68345500I-1767700J-1767700D01*
G01*
X79912800Y-82452800D02*
G75*
G02*
X80645005Y-84220500I-1767700J-1767700D01*
G01*
%TO.N,/RAW15P*%
X108470000Y-55310000D02*
X98190500Y-55245000D01*
%TO.N,/GND15*%
X108470000Y-62810000D02*
X103270500Y-62865000D01*
%TO.N,/-15V*%
D31*
X89480000Y-38120000D02*
X120249500Y-38100000D01*
%TO.N,/AC5_B*%
D26*
X46510000Y-110980000D02*
X45720000Y-66440500D01*
%TO.N,/COMP2*%
X81820000Y-45040000D02*
X84015000Y-47185000D01*
%TO.N,/RAW15P*%
X63810000Y-65050000D02*
X59015000Y-64770000D01*
%TO.N,/AC15_B*%
X68890000Y-65050000D02*
X70387800Y-66577800D01*
%TO.N,/GND15*%
X92700000Y-69660000D02*
X94214500Y-69850000D01*
%TO.N,/+5V*%
X122270000Y-56920000D02*
X123727800Y-55977200D01*
%TO.N,/GND5*%
X122270000Y-59420000D02*
X91050100Y-59690000D01*
%TO.N,/+5V*%
X38520000Y-32440000D02*
X40542800Y-34192800D01*
%TO.N,/GND15*%
X74240000Y-62070000D02*
X74295000Y-58185500D01*
X74240000Y-62070000D02*
X73122200Y-63402800D01*
X74240000Y-62070000D02*
X77372800Y-65307800D01*
X80040000Y-51150000D02*
X75027200Y-56417800D01*
%TO.N,/AC5_B*%
X47960000Y-62650000D02*
X46452200Y-64672800D01*
%TO.N,/-15V*%
D25*
X122670000Y-39660000D02*
X122017200Y-38832200D01*
%TO.N,/AC15_B*%
D26*
X73245000Y-75785000D02*
X71120000Y-73348800D01*
%TD*%
M02*
