%TF.GenerationSoftware,KiCad,Pcbnew,10.0.2*%
%TF.CreationDate,2026-10-07T08:53:52+02:00*%
%TF.ProjectId,TR-808PSU_Rev0.1,54522d38-3038-4505-9355-5f526576302e,rev?*%
%TF.SameCoordinates,Original*%
%TF.FileFunction,Legend,Top*%
%TF.FilePolarity,Positive*%
%FSLAX46Y46*%
G04 Gerber Fmt 4.6, Leading zero omitted, Abs format (unit mm)*
G04 Created by KiCad (PCBNEW 10.0.2) date 2026-10-07 08:53:52*
%MOMM*%
%LPD*%
G01*
G04 APERTURE LIST*
%ADD10C,0.186667*%
%ADD11C,0.150000*%
%ADD12C,0.120000*%
%ADD13C,1.400000*%
%ADD14C,0.600000*%
G04 APERTURE END LIST*
D10*
X61350000Y-117437959D02*
X62150000Y-117437959D01*
X61750000Y-118837959D02*
X61750000Y-117437959D01*
X63416667Y-118837959D02*
X62950000Y-118171293D01*
X62616667Y-118837959D02*
X62616667Y-117437959D01*
X62616667Y-117437959D02*
X63150000Y-117437959D01*
X63150000Y-117437959D02*
X63283334Y-117504626D01*
X63283334Y-117504626D02*
X63350000Y-117571293D01*
X63350000Y-117571293D02*
X63416667Y-117704626D01*
X63416667Y-117704626D02*
X63416667Y-117904626D01*
X63416667Y-117904626D02*
X63350000Y-118037959D01*
X63350000Y-118037959D02*
X63283334Y-118104626D01*
X63283334Y-118104626D02*
X63150000Y-118171293D01*
X63150000Y-118171293D02*
X62616667Y-118171293D01*
X64016667Y-118304626D02*
X65083334Y-118304626D01*
X65950000Y-118037959D02*
X65816667Y-117971293D01*
X65816667Y-117971293D02*
X65750000Y-117904626D01*
X65750000Y-117904626D02*
X65683333Y-117771293D01*
X65683333Y-117771293D02*
X65683333Y-117704626D01*
X65683333Y-117704626D02*
X65750000Y-117571293D01*
X65750000Y-117571293D02*
X65816667Y-117504626D01*
X65816667Y-117504626D02*
X65950000Y-117437959D01*
X65950000Y-117437959D02*
X66216667Y-117437959D01*
X66216667Y-117437959D02*
X66350000Y-117504626D01*
X66350000Y-117504626D02*
X66416667Y-117571293D01*
X66416667Y-117571293D02*
X66483333Y-117704626D01*
X66483333Y-117704626D02*
X66483333Y-117771293D01*
X66483333Y-117771293D02*
X66416667Y-117904626D01*
X66416667Y-117904626D02*
X66350000Y-117971293D01*
X66350000Y-117971293D02*
X66216667Y-118037959D01*
X66216667Y-118037959D02*
X65950000Y-118037959D01*
X65950000Y-118037959D02*
X65816667Y-118104626D01*
X65816667Y-118104626D02*
X65750000Y-118171293D01*
X65750000Y-118171293D02*
X65683333Y-118304626D01*
X65683333Y-118304626D02*
X65683333Y-118571293D01*
X65683333Y-118571293D02*
X65750000Y-118704626D01*
X65750000Y-118704626D02*
X65816667Y-118771293D01*
X65816667Y-118771293D02*
X65950000Y-118837959D01*
X65950000Y-118837959D02*
X66216667Y-118837959D01*
X66216667Y-118837959D02*
X66350000Y-118771293D01*
X66350000Y-118771293D02*
X66416667Y-118704626D01*
X66416667Y-118704626D02*
X66483333Y-118571293D01*
X66483333Y-118571293D02*
X66483333Y-118304626D01*
X66483333Y-118304626D02*
X66416667Y-118171293D01*
X66416667Y-118171293D02*
X66350000Y-118104626D01*
X66350000Y-118104626D02*
X66216667Y-118037959D01*
X67350000Y-117437959D02*
X67483333Y-117437959D01*
X67483333Y-117437959D02*
X67616666Y-117504626D01*
X67616666Y-117504626D02*
X67683333Y-117571293D01*
X67683333Y-117571293D02*
X67750000Y-117704626D01*
X67750000Y-117704626D02*
X67816666Y-117971293D01*
X67816666Y-117971293D02*
X67816666Y-118304626D01*
X67816666Y-118304626D02*
X67750000Y-118571293D01*
X67750000Y-118571293D02*
X67683333Y-118704626D01*
X67683333Y-118704626D02*
X67616666Y-118771293D01*
X67616666Y-118771293D02*
X67483333Y-118837959D01*
X67483333Y-118837959D02*
X67350000Y-118837959D01*
X67350000Y-118837959D02*
X67216666Y-118771293D01*
X67216666Y-118771293D02*
X67150000Y-118704626D01*
X67150000Y-118704626D02*
X67083333Y-118571293D01*
X67083333Y-118571293D02*
X67016666Y-118304626D01*
X67016666Y-118304626D02*
X67016666Y-117971293D01*
X67016666Y-117971293D02*
X67083333Y-117704626D01*
X67083333Y-117704626D02*
X67150000Y-117571293D01*
X67150000Y-117571293D02*
X67216666Y-117504626D01*
X67216666Y-117504626D02*
X67350000Y-117437959D01*
X68616666Y-118037959D02*
X68483333Y-117971293D01*
X68483333Y-117971293D02*
X68416666Y-117904626D01*
X68416666Y-117904626D02*
X68349999Y-117771293D01*
X68349999Y-117771293D02*
X68349999Y-117704626D01*
X68349999Y-117704626D02*
X68416666Y-117571293D01*
X68416666Y-117571293D02*
X68483333Y-117504626D01*
X68483333Y-117504626D02*
X68616666Y-117437959D01*
X68616666Y-117437959D02*
X68883333Y-117437959D01*
X68883333Y-117437959D02*
X69016666Y-117504626D01*
X69016666Y-117504626D02*
X69083333Y-117571293D01*
X69083333Y-117571293D02*
X69149999Y-117704626D01*
X69149999Y-117704626D02*
X69149999Y-117771293D01*
X69149999Y-117771293D02*
X69083333Y-117904626D01*
X69083333Y-117904626D02*
X69016666Y-117971293D01*
X69016666Y-117971293D02*
X68883333Y-118037959D01*
X68883333Y-118037959D02*
X68616666Y-118037959D01*
X68616666Y-118037959D02*
X68483333Y-118104626D01*
X68483333Y-118104626D02*
X68416666Y-118171293D01*
X68416666Y-118171293D02*
X68349999Y-118304626D01*
X68349999Y-118304626D02*
X68349999Y-118571293D01*
X68349999Y-118571293D02*
X68416666Y-118704626D01*
X68416666Y-118704626D02*
X68483333Y-118771293D01*
X68483333Y-118771293D02*
X68616666Y-118837959D01*
X68616666Y-118837959D02*
X68883333Y-118837959D01*
X68883333Y-118837959D02*
X69016666Y-118771293D01*
X69016666Y-118771293D02*
X69083333Y-118704626D01*
X69083333Y-118704626D02*
X69149999Y-118571293D01*
X69149999Y-118571293D02*
X69149999Y-118304626D01*
X69149999Y-118304626D02*
X69083333Y-118171293D01*
X69083333Y-118171293D02*
X69016666Y-118104626D01*
X69016666Y-118104626D02*
X68883333Y-118037959D01*
X69749999Y-118837959D02*
X69749999Y-117437959D01*
X69749999Y-117437959D02*
X70283332Y-117437959D01*
X70283332Y-117437959D02*
X70416666Y-117504626D01*
X70416666Y-117504626D02*
X70483332Y-117571293D01*
X70483332Y-117571293D02*
X70549999Y-117704626D01*
X70549999Y-117704626D02*
X70549999Y-117904626D01*
X70549999Y-117904626D02*
X70483332Y-118037959D01*
X70483332Y-118037959D02*
X70416666Y-118104626D01*
X70416666Y-118104626D02*
X70283332Y-118171293D01*
X70283332Y-118171293D02*
X69749999Y-118171293D01*
X71083332Y-118771293D02*
X71283332Y-118837959D01*
X71283332Y-118837959D02*
X71616666Y-118837959D01*
X71616666Y-118837959D02*
X71749999Y-118771293D01*
X71749999Y-118771293D02*
X71816666Y-118704626D01*
X71816666Y-118704626D02*
X71883332Y-118571293D01*
X71883332Y-118571293D02*
X71883332Y-118437959D01*
X71883332Y-118437959D02*
X71816666Y-118304626D01*
X71816666Y-118304626D02*
X71749999Y-118237959D01*
X71749999Y-118237959D02*
X71616666Y-118171293D01*
X71616666Y-118171293D02*
X71349999Y-118104626D01*
X71349999Y-118104626D02*
X71216666Y-118037959D01*
X71216666Y-118037959D02*
X71149999Y-117971293D01*
X71149999Y-117971293D02*
X71083332Y-117837959D01*
X71083332Y-117837959D02*
X71083332Y-117704626D01*
X71083332Y-117704626D02*
X71149999Y-117571293D01*
X71149999Y-117571293D02*
X71216666Y-117504626D01*
X71216666Y-117504626D02*
X71349999Y-117437959D01*
X71349999Y-117437959D02*
X71683332Y-117437959D01*
X71683332Y-117437959D02*
X71883332Y-117504626D01*
X72483332Y-117437959D02*
X72483332Y-118571293D01*
X72483332Y-118571293D02*
X72549999Y-118704626D01*
X72549999Y-118704626D02*
X72616665Y-118771293D01*
X72616665Y-118771293D02*
X72749999Y-118837959D01*
X72749999Y-118837959D02*
X73016665Y-118837959D01*
X73016665Y-118837959D02*
X73149999Y-118771293D01*
X73149999Y-118771293D02*
X73216665Y-118704626D01*
X73216665Y-118704626D02*
X73283332Y-118571293D01*
X73283332Y-118571293D02*
X73283332Y-117437959D01*
X75816666Y-118837959D02*
X75349999Y-118171293D01*
X75016666Y-118837959D02*
X75016666Y-117437959D01*
X75016666Y-117437959D02*
X75549999Y-117437959D01*
X75549999Y-117437959D02*
X75683333Y-117504626D01*
X75683333Y-117504626D02*
X75749999Y-117571293D01*
X75749999Y-117571293D02*
X75816666Y-117704626D01*
X75816666Y-117704626D02*
X75816666Y-117904626D01*
X75816666Y-117904626D02*
X75749999Y-118037959D01*
X75749999Y-118037959D02*
X75683333Y-118104626D01*
X75683333Y-118104626D02*
X75549999Y-118171293D01*
X75549999Y-118171293D02*
X75016666Y-118171293D01*
X76949999Y-118771293D02*
X76816666Y-118837959D01*
X76816666Y-118837959D02*
X76549999Y-118837959D01*
X76549999Y-118837959D02*
X76416666Y-118771293D01*
X76416666Y-118771293D02*
X76349999Y-118637959D01*
X76349999Y-118637959D02*
X76349999Y-118104626D01*
X76349999Y-118104626D02*
X76416666Y-117971293D01*
X76416666Y-117971293D02*
X76549999Y-117904626D01*
X76549999Y-117904626D02*
X76816666Y-117904626D01*
X76816666Y-117904626D02*
X76949999Y-117971293D01*
X76949999Y-117971293D02*
X77016666Y-118104626D01*
X77016666Y-118104626D02*
X77016666Y-118237959D01*
X77016666Y-118237959D02*
X76349999Y-118371293D01*
X77483333Y-117904626D02*
X77816666Y-118837959D01*
X77816666Y-118837959D02*
X78149999Y-117904626D01*
X78950000Y-117437959D02*
X79083333Y-117437959D01*
X79083333Y-117437959D02*
X79216666Y-117504626D01*
X79216666Y-117504626D02*
X79283333Y-117571293D01*
X79283333Y-117571293D02*
X79350000Y-117704626D01*
X79350000Y-117704626D02*
X79416666Y-117971293D01*
X79416666Y-117971293D02*
X79416666Y-118304626D01*
X79416666Y-118304626D02*
X79350000Y-118571293D01*
X79350000Y-118571293D02*
X79283333Y-118704626D01*
X79283333Y-118704626D02*
X79216666Y-118771293D01*
X79216666Y-118771293D02*
X79083333Y-118837959D01*
X79083333Y-118837959D02*
X78950000Y-118837959D01*
X78950000Y-118837959D02*
X78816666Y-118771293D01*
X78816666Y-118771293D02*
X78750000Y-118704626D01*
X78750000Y-118704626D02*
X78683333Y-118571293D01*
X78683333Y-118571293D02*
X78616666Y-118304626D01*
X78616666Y-118304626D02*
X78616666Y-117971293D01*
X78616666Y-117971293D02*
X78683333Y-117704626D01*
X78683333Y-117704626D02*
X78750000Y-117571293D01*
X78750000Y-117571293D02*
X78816666Y-117504626D01*
X78816666Y-117504626D02*
X78950000Y-117437959D01*
X80016666Y-118704626D02*
X80083333Y-118771293D01*
X80083333Y-118771293D02*
X80016666Y-118837959D01*
X80016666Y-118837959D02*
X79949999Y-118771293D01*
X79949999Y-118771293D02*
X80016666Y-118704626D01*
X80016666Y-118704626D02*
X80016666Y-118837959D01*
X81416666Y-118837959D02*
X80616666Y-118837959D01*
X81016666Y-118837959D02*
X81016666Y-117437959D01*
X81016666Y-117437959D02*
X80883333Y-117637959D01*
X80883333Y-117637959D02*
X80750000Y-117771293D01*
X80750000Y-117771293D02*
X80616666Y-117837959D01*
D11*
X130705714Y-26004819D02*
X130705714Y-25004819D01*
X130705714Y-25004819D02*
X131086666Y-25004819D01*
X131086666Y-25004819D02*
X131181904Y-25052438D01*
X131181904Y-25052438D02*
X131229523Y-25100057D01*
X131229523Y-25100057D02*
X131277142Y-25195295D01*
X131277142Y-25195295D02*
X131277142Y-25338152D01*
X131277142Y-25338152D02*
X131229523Y-25433390D01*
X131229523Y-25433390D02*
X131181904Y-25481009D01*
X131181904Y-25481009D02*
X131086666Y-25528628D01*
X131086666Y-25528628D02*
X130705714Y-25528628D01*
X131658095Y-25100057D02*
X131705714Y-25052438D01*
X131705714Y-25052438D02*
X131800952Y-25004819D01*
X131800952Y-25004819D02*
X132039047Y-25004819D01*
X132039047Y-25004819D02*
X132134285Y-25052438D01*
X132134285Y-25052438D02*
X132181904Y-25100057D01*
X132181904Y-25100057D02*
X132229523Y-25195295D01*
X132229523Y-25195295D02*
X132229523Y-25290533D01*
X132229523Y-25290533D02*
X132181904Y-25433390D01*
X132181904Y-25433390D02*
X131610476Y-26004819D01*
X131610476Y-26004819D02*
X132229523Y-26004819D01*
X132610476Y-25100057D02*
X132658095Y-25052438D01*
X132658095Y-25052438D02*
X132753333Y-25004819D01*
X132753333Y-25004819D02*
X132991428Y-25004819D01*
X132991428Y-25004819D02*
X133086666Y-25052438D01*
X133086666Y-25052438D02*
X133134285Y-25100057D01*
X133134285Y-25100057D02*
X133181904Y-25195295D01*
X133181904Y-25195295D02*
X133181904Y-25290533D01*
X133181904Y-25290533D02*
X133134285Y-25433390D01*
X133134285Y-25433390D02*
X132562857Y-26004819D01*
X132562857Y-26004819D02*
X133181904Y-26004819D01*
X119831905Y-98524819D02*
X119831905Y-97524819D01*
X119831905Y-97524819D02*
X120070000Y-97524819D01*
X120070000Y-97524819D02*
X120212857Y-97572438D01*
X120212857Y-97572438D02*
X120308095Y-97667676D01*
X120308095Y-97667676D02*
X120355714Y-97762914D01*
X120355714Y-97762914D02*
X120403333Y-97953390D01*
X120403333Y-97953390D02*
X120403333Y-98096247D01*
X120403333Y-98096247D02*
X120355714Y-98286723D01*
X120355714Y-98286723D02*
X120308095Y-98381961D01*
X120308095Y-98381961D02*
X120212857Y-98477200D01*
X120212857Y-98477200D02*
X120070000Y-98524819D01*
X120070000Y-98524819D02*
X119831905Y-98524819D01*
X120736667Y-97524819D02*
X121355714Y-97524819D01*
X121355714Y-97524819D02*
X121022381Y-97905771D01*
X121022381Y-97905771D02*
X121165238Y-97905771D01*
X121165238Y-97905771D02*
X121260476Y-97953390D01*
X121260476Y-97953390D02*
X121308095Y-98001009D01*
X121308095Y-98001009D02*
X121355714Y-98096247D01*
X121355714Y-98096247D02*
X121355714Y-98334342D01*
X121355714Y-98334342D02*
X121308095Y-98429580D01*
X121308095Y-98429580D02*
X121260476Y-98477200D01*
X121260476Y-98477200D02*
X121165238Y-98524819D01*
X121165238Y-98524819D02*
X120879524Y-98524819D01*
X120879524Y-98524819D02*
X120784286Y-98477200D01*
X120784286Y-98477200D02*
X120736667Y-98429580D01*
X122108095Y-86164819D02*
X122108095Y-85164819D01*
X122679523Y-86164819D02*
X122250952Y-85593390D01*
X122679523Y-85164819D02*
X122108095Y-85736247D01*
X41673333Y-45549580D02*
X41625714Y-45597200D01*
X41625714Y-45597200D02*
X41482857Y-45644819D01*
X41482857Y-45644819D02*
X41387619Y-45644819D01*
X41387619Y-45644819D02*
X41244762Y-45597200D01*
X41244762Y-45597200D02*
X41149524Y-45501961D01*
X41149524Y-45501961D02*
X41101905Y-45406723D01*
X41101905Y-45406723D02*
X41054286Y-45216247D01*
X41054286Y-45216247D02*
X41054286Y-45073390D01*
X41054286Y-45073390D02*
X41101905Y-44882914D01*
X41101905Y-44882914D02*
X41149524Y-44787676D01*
X41149524Y-44787676D02*
X41244762Y-44692438D01*
X41244762Y-44692438D02*
X41387619Y-44644819D01*
X41387619Y-44644819D02*
X41482857Y-44644819D01*
X41482857Y-44644819D02*
X41625714Y-44692438D01*
X41625714Y-44692438D02*
X41673333Y-44740057D01*
X42006667Y-44644819D02*
X42625714Y-44644819D01*
X42625714Y-44644819D02*
X42292381Y-45025771D01*
X42292381Y-45025771D02*
X42435238Y-45025771D01*
X42435238Y-45025771D02*
X42530476Y-45073390D01*
X42530476Y-45073390D02*
X42578095Y-45121009D01*
X42578095Y-45121009D02*
X42625714Y-45216247D01*
X42625714Y-45216247D02*
X42625714Y-45454342D01*
X42625714Y-45454342D02*
X42578095Y-45549580D01*
X42578095Y-45549580D02*
X42530476Y-45597200D01*
X42530476Y-45597200D02*
X42435238Y-45644819D01*
X42435238Y-45644819D02*
X42149524Y-45644819D01*
X42149524Y-45644819D02*
X42054286Y-45597200D01*
X42054286Y-45597200D02*
X42006667Y-45549580D01*
X23606666Y-88601009D02*
X23273333Y-88601009D01*
X23273333Y-89124819D02*
X23273333Y-88124819D01*
X23273333Y-88124819D02*
X23749523Y-88124819D01*
X24654285Y-89124819D02*
X24082857Y-89124819D01*
X24368571Y-89124819D02*
X24368571Y-88124819D01*
X24368571Y-88124819D02*
X24273333Y-88267676D01*
X24273333Y-88267676D02*
X24178095Y-88362914D01*
X24178095Y-88362914D02*
X24082857Y-88410533D01*
X130705714Y-99234819D02*
X130705714Y-98234819D01*
X130705714Y-98234819D02*
X131086666Y-98234819D01*
X131086666Y-98234819D02*
X131181904Y-98282438D01*
X131181904Y-98282438D02*
X131229523Y-98330057D01*
X131229523Y-98330057D02*
X131277142Y-98425295D01*
X131277142Y-98425295D02*
X131277142Y-98568152D01*
X131277142Y-98568152D02*
X131229523Y-98663390D01*
X131229523Y-98663390D02*
X131181904Y-98711009D01*
X131181904Y-98711009D02*
X131086666Y-98758628D01*
X131086666Y-98758628D02*
X130705714Y-98758628D01*
X132229523Y-99234819D02*
X131658095Y-99234819D01*
X131943809Y-99234819D02*
X131943809Y-98234819D01*
X131943809Y-98234819D02*
X131848571Y-98377676D01*
X131848571Y-98377676D02*
X131753333Y-98472914D01*
X131753333Y-98472914D02*
X131658095Y-98520533D01*
X133134285Y-98234819D02*
X132658095Y-98234819D01*
X132658095Y-98234819D02*
X132610476Y-98711009D01*
X132610476Y-98711009D02*
X132658095Y-98663390D01*
X132658095Y-98663390D02*
X132753333Y-98615771D01*
X132753333Y-98615771D02*
X132991428Y-98615771D01*
X132991428Y-98615771D02*
X133086666Y-98663390D01*
X133086666Y-98663390D02*
X133134285Y-98711009D01*
X133134285Y-98711009D02*
X133181904Y-98806247D01*
X133181904Y-98806247D02*
X133181904Y-99044342D01*
X133181904Y-99044342D02*
X133134285Y-99139580D01*
X133134285Y-99139580D02*
X133086666Y-99187200D01*
X133086666Y-99187200D02*
X132991428Y-99234819D01*
X132991428Y-99234819D02*
X132753333Y-99234819D01*
X132753333Y-99234819D02*
X132658095Y-99187200D01*
X132658095Y-99187200D02*
X132610476Y-99139580D01*
X99703333Y-72814819D02*
X99370000Y-72338628D01*
X99131905Y-72814819D02*
X99131905Y-71814819D01*
X99131905Y-71814819D02*
X99512857Y-71814819D01*
X99512857Y-71814819D02*
X99608095Y-71862438D01*
X99608095Y-71862438D02*
X99655714Y-71910057D01*
X99655714Y-71910057D02*
X99703333Y-72005295D01*
X99703333Y-72005295D02*
X99703333Y-72148152D01*
X99703333Y-72148152D02*
X99655714Y-72243390D01*
X99655714Y-72243390D02*
X99608095Y-72291009D01*
X99608095Y-72291009D02*
X99512857Y-72338628D01*
X99512857Y-72338628D02*
X99131905Y-72338628D01*
X100655714Y-72814819D02*
X100084286Y-72814819D01*
X100370000Y-72814819D02*
X100370000Y-71814819D01*
X100370000Y-71814819D02*
X100274762Y-71957676D01*
X100274762Y-71957676D02*
X100179524Y-72052914D01*
X100179524Y-72052914D02*
X100084286Y-72100533D01*
X92663333Y-59944819D02*
X92330000Y-59468628D01*
X92091905Y-59944819D02*
X92091905Y-58944819D01*
X92091905Y-58944819D02*
X92472857Y-58944819D01*
X92472857Y-58944819D02*
X92568095Y-58992438D01*
X92568095Y-58992438D02*
X92615714Y-59040057D01*
X92615714Y-59040057D02*
X92663333Y-59135295D01*
X92663333Y-59135295D02*
X92663333Y-59278152D01*
X92663333Y-59278152D02*
X92615714Y-59373390D01*
X92615714Y-59373390D02*
X92568095Y-59421009D01*
X92568095Y-59421009D02*
X92472857Y-59468628D01*
X92472857Y-59468628D02*
X92091905Y-59468628D01*
X93568095Y-58944819D02*
X93091905Y-58944819D01*
X93091905Y-58944819D02*
X93044286Y-59421009D01*
X93044286Y-59421009D02*
X93091905Y-59373390D01*
X93091905Y-59373390D02*
X93187143Y-59325771D01*
X93187143Y-59325771D02*
X93425238Y-59325771D01*
X93425238Y-59325771D02*
X93520476Y-59373390D01*
X93520476Y-59373390D02*
X93568095Y-59421009D01*
X93568095Y-59421009D02*
X93615714Y-59516247D01*
X93615714Y-59516247D02*
X93615714Y-59754342D01*
X93615714Y-59754342D02*
X93568095Y-59849580D01*
X93568095Y-59849580D02*
X93520476Y-59897200D01*
X93520476Y-59897200D02*
X93425238Y-59944819D01*
X93425238Y-59944819D02*
X93187143Y-59944819D01*
X93187143Y-59944819D02*
X93091905Y-59897200D01*
X93091905Y-59897200D02*
X93044286Y-59849580D01*
X130705714Y-35474819D02*
X130705714Y-34474819D01*
X130705714Y-34474819D02*
X131086666Y-34474819D01*
X131086666Y-34474819D02*
X131181904Y-34522438D01*
X131181904Y-34522438D02*
X131229523Y-34570057D01*
X131229523Y-34570057D02*
X131277142Y-34665295D01*
X131277142Y-34665295D02*
X131277142Y-34808152D01*
X131277142Y-34808152D02*
X131229523Y-34903390D01*
X131229523Y-34903390D02*
X131181904Y-34951009D01*
X131181904Y-34951009D02*
X131086666Y-34998628D01*
X131086666Y-34998628D02*
X130705714Y-34998628D01*
X131658095Y-34570057D02*
X131705714Y-34522438D01*
X131705714Y-34522438D02*
X131800952Y-34474819D01*
X131800952Y-34474819D02*
X132039047Y-34474819D01*
X132039047Y-34474819D02*
X132134285Y-34522438D01*
X132134285Y-34522438D02*
X132181904Y-34570057D01*
X132181904Y-34570057D02*
X132229523Y-34665295D01*
X132229523Y-34665295D02*
X132229523Y-34760533D01*
X132229523Y-34760533D02*
X132181904Y-34903390D01*
X132181904Y-34903390D02*
X131610476Y-35474819D01*
X131610476Y-35474819D02*
X132229523Y-35474819D01*
X133181904Y-35474819D02*
X132610476Y-35474819D01*
X132896190Y-35474819D02*
X132896190Y-34474819D01*
X132896190Y-34474819D02*
X132800952Y-34617676D01*
X132800952Y-34617676D02*
X132705714Y-34712914D01*
X132705714Y-34712914D02*
X132610476Y-34760533D01*
X130705714Y-76494819D02*
X130705714Y-75494819D01*
X130705714Y-75494819D02*
X131086666Y-75494819D01*
X131086666Y-75494819D02*
X131181904Y-75542438D01*
X131181904Y-75542438D02*
X131229523Y-75590057D01*
X131229523Y-75590057D02*
X131277142Y-75685295D01*
X131277142Y-75685295D02*
X131277142Y-75828152D01*
X131277142Y-75828152D02*
X131229523Y-75923390D01*
X131229523Y-75923390D02*
X131181904Y-75971009D01*
X131181904Y-75971009D02*
X131086666Y-76018628D01*
X131086666Y-76018628D02*
X130705714Y-76018628D01*
X132229523Y-76494819D02*
X131658095Y-76494819D01*
X131943809Y-76494819D02*
X131943809Y-75494819D01*
X131943809Y-75494819D02*
X131848571Y-75637676D01*
X131848571Y-75637676D02*
X131753333Y-75732914D01*
X131753333Y-75732914D02*
X131658095Y-75780533D01*
X132562857Y-75494819D02*
X133229523Y-75494819D01*
X133229523Y-75494819D02*
X132800952Y-76494819D01*
X47448333Y-52709580D02*
X47400714Y-52757200D01*
X47400714Y-52757200D02*
X47257857Y-52804819D01*
X47257857Y-52804819D02*
X47162619Y-52804819D01*
X47162619Y-52804819D02*
X47019762Y-52757200D01*
X47019762Y-52757200D02*
X46924524Y-52661961D01*
X46924524Y-52661961D02*
X46876905Y-52566723D01*
X46876905Y-52566723D02*
X46829286Y-52376247D01*
X46829286Y-52376247D02*
X46829286Y-52233390D01*
X46829286Y-52233390D02*
X46876905Y-52042914D01*
X46876905Y-52042914D02*
X46924524Y-51947676D01*
X46924524Y-51947676D02*
X47019762Y-51852438D01*
X47019762Y-51852438D02*
X47162619Y-51804819D01*
X47162619Y-51804819D02*
X47257857Y-51804819D01*
X47257857Y-51804819D02*
X47400714Y-51852438D01*
X47400714Y-51852438D02*
X47448333Y-51900057D01*
X48305476Y-52138152D02*
X48305476Y-52804819D01*
X48067381Y-51757200D02*
X47829286Y-52471485D01*
X47829286Y-52471485D02*
X48448333Y-52471485D01*
X23573333Y-69419580D02*
X23525714Y-69467200D01*
X23525714Y-69467200D02*
X23382857Y-69514819D01*
X23382857Y-69514819D02*
X23287619Y-69514819D01*
X23287619Y-69514819D02*
X23144762Y-69467200D01*
X23144762Y-69467200D02*
X23049524Y-69371961D01*
X23049524Y-69371961D02*
X23001905Y-69276723D01*
X23001905Y-69276723D02*
X22954286Y-69086247D01*
X22954286Y-69086247D02*
X22954286Y-68943390D01*
X22954286Y-68943390D02*
X23001905Y-68752914D01*
X23001905Y-68752914D02*
X23049524Y-68657676D01*
X23049524Y-68657676D02*
X23144762Y-68562438D01*
X23144762Y-68562438D02*
X23287619Y-68514819D01*
X23287619Y-68514819D02*
X23382857Y-68514819D01*
X23382857Y-68514819D02*
X23525714Y-68562438D01*
X23525714Y-68562438D02*
X23573333Y-68610057D01*
X24525714Y-69514819D02*
X23954286Y-69514819D01*
X24240000Y-69514819D02*
X24240000Y-68514819D01*
X24240000Y-68514819D02*
X24144762Y-68657676D01*
X24144762Y-68657676D02*
X24049524Y-68752914D01*
X24049524Y-68752914D02*
X23954286Y-68800533D01*
X83897142Y-24219580D02*
X83849523Y-24267200D01*
X83849523Y-24267200D02*
X83706666Y-24314819D01*
X83706666Y-24314819D02*
X83611428Y-24314819D01*
X83611428Y-24314819D02*
X83468571Y-24267200D01*
X83468571Y-24267200D02*
X83373333Y-24171961D01*
X83373333Y-24171961D02*
X83325714Y-24076723D01*
X83325714Y-24076723D02*
X83278095Y-23886247D01*
X83278095Y-23886247D02*
X83278095Y-23743390D01*
X83278095Y-23743390D02*
X83325714Y-23552914D01*
X83325714Y-23552914D02*
X83373333Y-23457676D01*
X83373333Y-23457676D02*
X83468571Y-23362438D01*
X83468571Y-23362438D02*
X83611428Y-23314819D01*
X83611428Y-23314819D02*
X83706666Y-23314819D01*
X83706666Y-23314819D02*
X83849523Y-23362438D01*
X83849523Y-23362438D02*
X83897142Y-23410057D01*
X84849523Y-24314819D02*
X84278095Y-24314819D01*
X84563809Y-24314819D02*
X84563809Y-23314819D01*
X84563809Y-23314819D02*
X84468571Y-23457676D01*
X84468571Y-23457676D02*
X84373333Y-23552914D01*
X84373333Y-23552914D02*
X84278095Y-23600533D01*
X85801904Y-24314819D02*
X85230476Y-24314819D01*
X85516190Y-24314819D02*
X85516190Y-23314819D01*
X85516190Y-23314819D02*
X85420952Y-23457676D01*
X85420952Y-23457676D02*
X85325714Y-23552914D01*
X85325714Y-23552914D02*
X85230476Y-23600533D01*
X55855714Y-114684819D02*
X55855714Y-113684819D01*
X55855714Y-113684819D02*
X56236666Y-113684819D01*
X56236666Y-113684819D02*
X56331904Y-113732438D01*
X56331904Y-113732438D02*
X56379523Y-113780057D01*
X56379523Y-113780057D02*
X56427142Y-113875295D01*
X56427142Y-113875295D02*
X56427142Y-114018152D01*
X56427142Y-114018152D02*
X56379523Y-114113390D01*
X56379523Y-114113390D02*
X56331904Y-114161009D01*
X56331904Y-114161009D02*
X56236666Y-114208628D01*
X56236666Y-114208628D02*
X55855714Y-114208628D01*
X57379523Y-114684819D02*
X56808095Y-114684819D01*
X57093809Y-114684819D02*
X57093809Y-113684819D01*
X57093809Y-113684819D02*
X56998571Y-113827676D01*
X56998571Y-113827676D02*
X56903333Y-113922914D01*
X56903333Y-113922914D02*
X56808095Y-113970533D01*
X57760476Y-113780057D02*
X57808095Y-113732438D01*
X57808095Y-113732438D02*
X57903333Y-113684819D01*
X57903333Y-113684819D02*
X58141428Y-113684819D01*
X58141428Y-113684819D02*
X58236666Y-113732438D01*
X58236666Y-113732438D02*
X58284285Y-113780057D01*
X58284285Y-113780057D02*
X58331904Y-113875295D01*
X58331904Y-113875295D02*
X58331904Y-113970533D01*
X58331904Y-113970533D02*
X58284285Y-114113390D01*
X58284285Y-114113390D02*
X57712857Y-114684819D01*
X57712857Y-114684819D02*
X58331904Y-114684819D01*
X43353333Y-36199580D02*
X43305714Y-36247200D01*
X43305714Y-36247200D02*
X43162857Y-36294819D01*
X43162857Y-36294819D02*
X43067619Y-36294819D01*
X43067619Y-36294819D02*
X42924762Y-36247200D01*
X42924762Y-36247200D02*
X42829524Y-36151961D01*
X42829524Y-36151961D02*
X42781905Y-36056723D01*
X42781905Y-36056723D02*
X42734286Y-35866247D01*
X42734286Y-35866247D02*
X42734286Y-35723390D01*
X42734286Y-35723390D02*
X42781905Y-35532914D01*
X42781905Y-35532914D02*
X42829524Y-35437676D01*
X42829524Y-35437676D02*
X42924762Y-35342438D01*
X42924762Y-35342438D02*
X43067619Y-35294819D01*
X43067619Y-35294819D02*
X43162857Y-35294819D01*
X43162857Y-35294819D02*
X43305714Y-35342438D01*
X43305714Y-35342438D02*
X43353333Y-35390057D01*
X43734286Y-35390057D02*
X43781905Y-35342438D01*
X43781905Y-35342438D02*
X43877143Y-35294819D01*
X43877143Y-35294819D02*
X44115238Y-35294819D01*
X44115238Y-35294819D02*
X44210476Y-35342438D01*
X44210476Y-35342438D02*
X44258095Y-35390057D01*
X44258095Y-35390057D02*
X44305714Y-35485295D01*
X44305714Y-35485295D02*
X44305714Y-35580533D01*
X44305714Y-35580533D02*
X44258095Y-35723390D01*
X44258095Y-35723390D02*
X43686667Y-36294819D01*
X43686667Y-36294819D02*
X44305714Y-36294819D01*
X66096905Y-61744819D02*
X66096905Y-60744819D01*
X66096905Y-60744819D02*
X66335000Y-60744819D01*
X66335000Y-60744819D02*
X66477857Y-60792438D01*
X66477857Y-60792438D02*
X66573095Y-60887676D01*
X66573095Y-60887676D02*
X66620714Y-60982914D01*
X66620714Y-60982914D02*
X66668333Y-61173390D01*
X66668333Y-61173390D02*
X66668333Y-61316247D01*
X66668333Y-61316247D02*
X66620714Y-61506723D01*
X66620714Y-61506723D02*
X66573095Y-61601961D01*
X66573095Y-61601961D02*
X66477857Y-61697200D01*
X66477857Y-61697200D02*
X66335000Y-61744819D01*
X66335000Y-61744819D02*
X66096905Y-61744819D01*
X67049286Y-60840057D02*
X67096905Y-60792438D01*
X67096905Y-60792438D02*
X67192143Y-60744819D01*
X67192143Y-60744819D02*
X67430238Y-60744819D01*
X67430238Y-60744819D02*
X67525476Y-60792438D01*
X67525476Y-60792438D02*
X67573095Y-60840057D01*
X67573095Y-60840057D02*
X67620714Y-60935295D01*
X67620714Y-60935295D02*
X67620714Y-61030533D01*
X67620714Y-61030533D02*
X67573095Y-61173390D01*
X67573095Y-61173390D02*
X67001667Y-61744819D01*
X67001667Y-61744819D02*
X67620714Y-61744819D01*
X86976666Y-88601009D02*
X86643333Y-88601009D01*
X86643333Y-89124819D02*
X86643333Y-88124819D01*
X86643333Y-88124819D02*
X87119523Y-88124819D01*
X87929047Y-88458152D02*
X87929047Y-89124819D01*
X87690952Y-88077200D02*
X87452857Y-88791485D01*
X87452857Y-88791485D02*
X88071904Y-88791485D01*
X106867142Y-48659580D02*
X106819523Y-48707200D01*
X106819523Y-48707200D02*
X106676666Y-48754819D01*
X106676666Y-48754819D02*
X106581428Y-48754819D01*
X106581428Y-48754819D02*
X106438571Y-48707200D01*
X106438571Y-48707200D02*
X106343333Y-48611961D01*
X106343333Y-48611961D02*
X106295714Y-48516723D01*
X106295714Y-48516723D02*
X106248095Y-48326247D01*
X106248095Y-48326247D02*
X106248095Y-48183390D01*
X106248095Y-48183390D02*
X106295714Y-47992914D01*
X106295714Y-47992914D02*
X106343333Y-47897676D01*
X106343333Y-47897676D02*
X106438571Y-47802438D01*
X106438571Y-47802438D02*
X106581428Y-47754819D01*
X106581428Y-47754819D02*
X106676666Y-47754819D01*
X106676666Y-47754819D02*
X106819523Y-47802438D01*
X106819523Y-47802438D02*
X106867142Y-47850057D01*
X107819523Y-48754819D02*
X107248095Y-48754819D01*
X107533809Y-48754819D02*
X107533809Y-47754819D01*
X107533809Y-47754819D02*
X107438571Y-47897676D01*
X107438571Y-47897676D02*
X107343333Y-47992914D01*
X107343333Y-47992914D02*
X107248095Y-48040533D01*
X108200476Y-47850057D02*
X108248095Y-47802438D01*
X108248095Y-47802438D02*
X108343333Y-47754819D01*
X108343333Y-47754819D02*
X108581428Y-47754819D01*
X108581428Y-47754819D02*
X108676666Y-47802438D01*
X108676666Y-47802438D02*
X108724285Y-47850057D01*
X108724285Y-47850057D02*
X108771904Y-47945295D01*
X108771904Y-47945295D02*
X108771904Y-48040533D01*
X108771904Y-48040533D02*
X108724285Y-48183390D01*
X108724285Y-48183390D02*
X108152857Y-48754819D01*
X108152857Y-48754819D02*
X108771904Y-48754819D01*
X82903333Y-47799580D02*
X82855714Y-47847200D01*
X82855714Y-47847200D02*
X82712857Y-47894819D01*
X82712857Y-47894819D02*
X82617619Y-47894819D01*
X82617619Y-47894819D02*
X82474762Y-47847200D01*
X82474762Y-47847200D02*
X82379524Y-47751961D01*
X82379524Y-47751961D02*
X82331905Y-47656723D01*
X82331905Y-47656723D02*
X82284286Y-47466247D01*
X82284286Y-47466247D02*
X82284286Y-47323390D01*
X82284286Y-47323390D02*
X82331905Y-47132914D01*
X82331905Y-47132914D02*
X82379524Y-47037676D01*
X82379524Y-47037676D02*
X82474762Y-46942438D01*
X82474762Y-46942438D02*
X82617619Y-46894819D01*
X82617619Y-46894819D02*
X82712857Y-46894819D01*
X82712857Y-46894819D02*
X82855714Y-46942438D01*
X82855714Y-46942438D02*
X82903333Y-46990057D01*
X83474762Y-47323390D02*
X83379524Y-47275771D01*
X83379524Y-47275771D02*
X83331905Y-47228152D01*
X83331905Y-47228152D02*
X83284286Y-47132914D01*
X83284286Y-47132914D02*
X83284286Y-47085295D01*
X83284286Y-47085295D02*
X83331905Y-46990057D01*
X83331905Y-46990057D02*
X83379524Y-46942438D01*
X83379524Y-46942438D02*
X83474762Y-46894819D01*
X83474762Y-46894819D02*
X83665238Y-46894819D01*
X83665238Y-46894819D02*
X83760476Y-46942438D01*
X83760476Y-46942438D02*
X83808095Y-46990057D01*
X83808095Y-46990057D02*
X83855714Y-47085295D01*
X83855714Y-47085295D02*
X83855714Y-47132914D01*
X83855714Y-47132914D02*
X83808095Y-47228152D01*
X83808095Y-47228152D02*
X83760476Y-47275771D01*
X83760476Y-47275771D02*
X83665238Y-47323390D01*
X83665238Y-47323390D02*
X83474762Y-47323390D01*
X83474762Y-47323390D02*
X83379524Y-47371009D01*
X83379524Y-47371009D02*
X83331905Y-47418628D01*
X83331905Y-47418628D02*
X83284286Y-47513866D01*
X83284286Y-47513866D02*
X83284286Y-47704342D01*
X83284286Y-47704342D02*
X83331905Y-47799580D01*
X83331905Y-47799580D02*
X83379524Y-47847200D01*
X83379524Y-47847200D02*
X83474762Y-47894819D01*
X83474762Y-47894819D02*
X83665238Y-47894819D01*
X83665238Y-47894819D02*
X83760476Y-47847200D01*
X83760476Y-47847200D02*
X83808095Y-47799580D01*
X83808095Y-47799580D02*
X83855714Y-47704342D01*
X83855714Y-47704342D02*
X83855714Y-47513866D01*
X83855714Y-47513866D02*
X83808095Y-47418628D01*
X83808095Y-47418628D02*
X83760476Y-47371009D01*
X83760476Y-47371009D02*
X83665238Y-47323390D01*
X57663333Y-29544819D02*
X57330000Y-29068628D01*
X57091905Y-29544819D02*
X57091905Y-28544819D01*
X57091905Y-28544819D02*
X57472857Y-28544819D01*
X57472857Y-28544819D02*
X57568095Y-28592438D01*
X57568095Y-28592438D02*
X57615714Y-28640057D01*
X57615714Y-28640057D02*
X57663333Y-28735295D01*
X57663333Y-28735295D02*
X57663333Y-28878152D01*
X57663333Y-28878152D02*
X57615714Y-28973390D01*
X57615714Y-28973390D02*
X57568095Y-29021009D01*
X57568095Y-29021009D02*
X57472857Y-29068628D01*
X57472857Y-29068628D02*
X57091905Y-29068628D01*
X57996667Y-28544819D02*
X58663333Y-28544819D01*
X58663333Y-28544819D02*
X58234762Y-29544819D01*
X72148333Y-34979580D02*
X72100714Y-35027200D01*
X72100714Y-35027200D02*
X71957857Y-35074819D01*
X71957857Y-35074819D02*
X71862619Y-35074819D01*
X71862619Y-35074819D02*
X71719762Y-35027200D01*
X71719762Y-35027200D02*
X71624524Y-34931961D01*
X71624524Y-34931961D02*
X71576905Y-34836723D01*
X71576905Y-34836723D02*
X71529286Y-34646247D01*
X71529286Y-34646247D02*
X71529286Y-34503390D01*
X71529286Y-34503390D02*
X71576905Y-34312914D01*
X71576905Y-34312914D02*
X71624524Y-34217676D01*
X71624524Y-34217676D02*
X71719762Y-34122438D01*
X71719762Y-34122438D02*
X71862619Y-34074819D01*
X71862619Y-34074819D02*
X71957857Y-34074819D01*
X71957857Y-34074819D02*
X72100714Y-34122438D01*
X72100714Y-34122438D02*
X72148333Y-34170057D01*
X73053095Y-34074819D02*
X72576905Y-34074819D01*
X72576905Y-34074819D02*
X72529286Y-34551009D01*
X72529286Y-34551009D02*
X72576905Y-34503390D01*
X72576905Y-34503390D02*
X72672143Y-34455771D01*
X72672143Y-34455771D02*
X72910238Y-34455771D01*
X72910238Y-34455771D02*
X73005476Y-34503390D01*
X73005476Y-34503390D02*
X73053095Y-34551009D01*
X73053095Y-34551009D02*
X73100714Y-34646247D01*
X73100714Y-34646247D02*
X73100714Y-34884342D01*
X73100714Y-34884342D02*
X73053095Y-34979580D01*
X73053095Y-34979580D02*
X73005476Y-35027200D01*
X73005476Y-35027200D02*
X72910238Y-35074819D01*
X72910238Y-35074819D02*
X72672143Y-35074819D01*
X72672143Y-35074819D02*
X72576905Y-35027200D01*
X72576905Y-35027200D02*
X72529286Y-34979580D01*
X92533333Y-72829580D02*
X92485714Y-72877200D01*
X92485714Y-72877200D02*
X92342857Y-72924819D01*
X92342857Y-72924819D02*
X92247619Y-72924819D01*
X92247619Y-72924819D02*
X92104762Y-72877200D01*
X92104762Y-72877200D02*
X92009524Y-72781961D01*
X92009524Y-72781961D02*
X91961905Y-72686723D01*
X91961905Y-72686723D02*
X91914286Y-72496247D01*
X91914286Y-72496247D02*
X91914286Y-72353390D01*
X91914286Y-72353390D02*
X91961905Y-72162914D01*
X91961905Y-72162914D02*
X92009524Y-72067676D01*
X92009524Y-72067676D02*
X92104762Y-71972438D01*
X92104762Y-71972438D02*
X92247619Y-71924819D01*
X92247619Y-71924819D02*
X92342857Y-71924819D01*
X92342857Y-71924819D02*
X92485714Y-71972438D01*
X92485714Y-71972438D02*
X92533333Y-72020057D01*
X93009524Y-72924819D02*
X93200000Y-72924819D01*
X93200000Y-72924819D02*
X93295238Y-72877200D01*
X93295238Y-72877200D02*
X93342857Y-72829580D01*
X93342857Y-72829580D02*
X93438095Y-72686723D01*
X93438095Y-72686723D02*
X93485714Y-72496247D01*
X93485714Y-72496247D02*
X93485714Y-72115295D01*
X93485714Y-72115295D02*
X93438095Y-72020057D01*
X93438095Y-72020057D02*
X93390476Y-71972438D01*
X93390476Y-71972438D02*
X93295238Y-71924819D01*
X93295238Y-71924819D02*
X93104762Y-71924819D01*
X93104762Y-71924819D02*
X93009524Y-71972438D01*
X93009524Y-71972438D02*
X92961905Y-72020057D01*
X92961905Y-72020057D02*
X92914286Y-72115295D01*
X92914286Y-72115295D02*
X92914286Y-72353390D01*
X92914286Y-72353390D02*
X92961905Y-72448628D01*
X92961905Y-72448628D02*
X93009524Y-72496247D01*
X93009524Y-72496247D02*
X93104762Y-72543866D01*
X93104762Y-72543866D02*
X93295238Y-72543866D01*
X93295238Y-72543866D02*
X93390476Y-72496247D01*
X93390476Y-72496247D02*
X93438095Y-72448628D01*
X93438095Y-72448628D02*
X93485714Y-72353390D01*
X130705714Y-66974819D02*
X130705714Y-65974819D01*
X130705714Y-65974819D02*
X131086666Y-65974819D01*
X131086666Y-65974819D02*
X131181904Y-66022438D01*
X131181904Y-66022438D02*
X131229523Y-66070057D01*
X131229523Y-66070057D02*
X131277142Y-66165295D01*
X131277142Y-66165295D02*
X131277142Y-66308152D01*
X131277142Y-66308152D02*
X131229523Y-66403390D01*
X131229523Y-66403390D02*
X131181904Y-66451009D01*
X131181904Y-66451009D02*
X131086666Y-66498628D01*
X131086666Y-66498628D02*
X130705714Y-66498628D01*
X132229523Y-66974819D02*
X131658095Y-66974819D01*
X131943809Y-66974819D02*
X131943809Y-65974819D01*
X131943809Y-65974819D02*
X131848571Y-66117676D01*
X131848571Y-66117676D02*
X131753333Y-66212914D01*
X131753333Y-66212914D02*
X131658095Y-66260533D01*
X132800952Y-66403390D02*
X132705714Y-66355771D01*
X132705714Y-66355771D02*
X132658095Y-66308152D01*
X132658095Y-66308152D02*
X132610476Y-66212914D01*
X132610476Y-66212914D02*
X132610476Y-66165295D01*
X132610476Y-66165295D02*
X132658095Y-66070057D01*
X132658095Y-66070057D02*
X132705714Y-66022438D01*
X132705714Y-66022438D02*
X132800952Y-65974819D01*
X132800952Y-65974819D02*
X132991428Y-65974819D01*
X132991428Y-65974819D02*
X133086666Y-66022438D01*
X133086666Y-66022438D02*
X133134285Y-66070057D01*
X133134285Y-66070057D02*
X133181904Y-66165295D01*
X133181904Y-66165295D02*
X133181904Y-66212914D01*
X133181904Y-66212914D02*
X133134285Y-66308152D01*
X133134285Y-66308152D02*
X133086666Y-66355771D01*
X133086666Y-66355771D02*
X132991428Y-66403390D01*
X132991428Y-66403390D02*
X132800952Y-66403390D01*
X132800952Y-66403390D02*
X132705714Y-66451009D01*
X132705714Y-66451009D02*
X132658095Y-66498628D01*
X132658095Y-66498628D02*
X132610476Y-66593866D01*
X132610476Y-66593866D02*
X132610476Y-66784342D01*
X132610476Y-66784342D02*
X132658095Y-66879580D01*
X132658095Y-66879580D02*
X132705714Y-66927200D01*
X132705714Y-66927200D02*
X132800952Y-66974819D01*
X132800952Y-66974819D02*
X132991428Y-66974819D01*
X132991428Y-66974819D02*
X133086666Y-66927200D01*
X133086666Y-66927200D02*
X133134285Y-66879580D01*
X133134285Y-66879580D02*
X133181904Y-66784342D01*
X133181904Y-66784342D02*
X133181904Y-66593866D01*
X133181904Y-66593866D02*
X133134285Y-66498628D01*
X133134285Y-66498628D02*
X133086666Y-66451009D01*
X133086666Y-66451009D02*
X132991428Y-66403390D01*
X21461905Y-114684819D02*
X21461905Y-113684819D01*
X21461905Y-113684819D02*
X21842857Y-113684819D01*
X21842857Y-113684819D02*
X21938095Y-113732438D01*
X21938095Y-113732438D02*
X21985714Y-113780057D01*
X21985714Y-113780057D02*
X22033333Y-113875295D01*
X22033333Y-113875295D02*
X22033333Y-114018152D01*
X22033333Y-114018152D02*
X21985714Y-114113390D01*
X21985714Y-114113390D02*
X21938095Y-114161009D01*
X21938095Y-114161009D02*
X21842857Y-114208628D01*
X21842857Y-114208628D02*
X21461905Y-114208628D01*
X22509524Y-114684819D02*
X22700000Y-114684819D01*
X22700000Y-114684819D02*
X22795238Y-114637200D01*
X22795238Y-114637200D02*
X22842857Y-114589580D01*
X22842857Y-114589580D02*
X22938095Y-114446723D01*
X22938095Y-114446723D02*
X22985714Y-114256247D01*
X22985714Y-114256247D02*
X22985714Y-113875295D01*
X22985714Y-113875295D02*
X22938095Y-113780057D01*
X22938095Y-113780057D02*
X22890476Y-113732438D01*
X22890476Y-113732438D02*
X22795238Y-113684819D01*
X22795238Y-113684819D02*
X22604762Y-113684819D01*
X22604762Y-113684819D02*
X22509524Y-113732438D01*
X22509524Y-113732438D02*
X22461905Y-113780057D01*
X22461905Y-113780057D02*
X22414286Y-113875295D01*
X22414286Y-113875295D02*
X22414286Y-114113390D01*
X22414286Y-114113390D02*
X22461905Y-114208628D01*
X22461905Y-114208628D02*
X22509524Y-114256247D01*
X22509524Y-114256247D02*
X22604762Y-114303866D01*
X22604762Y-114303866D02*
X22795238Y-114303866D01*
X22795238Y-114303866D02*
X22890476Y-114256247D01*
X22890476Y-114256247D02*
X22938095Y-114208628D01*
X22938095Y-114208628D02*
X22985714Y-114113390D01*
X33623810Y-31794819D02*
X33623810Y-30794819D01*
X34671428Y-31699580D02*
X34623809Y-31747200D01*
X34623809Y-31747200D02*
X34480952Y-31794819D01*
X34480952Y-31794819D02*
X34385714Y-31794819D01*
X34385714Y-31794819D02*
X34242857Y-31747200D01*
X34242857Y-31747200D02*
X34147619Y-31651961D01*
X34147619Y-31651961D02*
X34100000Y-31556723D01*
X34100000Y-31556723D02*
X34052381Y-31366247D01*
X34052381Y-31366247D02*
X34052381Y-31223390D01*
X34052381Y-31223390D02*
X34100000Y-31032914D01*
X34100000Y-31032914D02*
X34147619Y-30937676D01*
X34147619Y-30937676D02*
X34242857Y-30842438D01*
X34242857Y-30842438D02*
X34385714Y-30794819D01*
X34385714Y-30794819D02*
X34480952Y-30794819D01*
X34480952Y-30794819D02*
X34623809Y-30842438D01*
X34623809Y-30842438D02*
X34671428Y-30890057D01*
X35623809Y-31794819D02*
X35052381Y-31794819D01*
X35338095Y-31794819D02*
X35338095Y-30794819D01*
X35338095Y-30794819D02*
X35242857Y-30937676D01*
X35242857Y-30937676D02*
X35147619Y-31032914D01*
X35147619Y-31032914D02*
X35052381Y-31080533D01*
X94223333Y-39374819D02*
X93890000Y-38898628D01*
X93651905Y-39374819D02*
X93651905Y-38374819D01*
X93651905Y-38374819D02*
X94032857Y-38374819D01*
X94032857Y-38374819D02*
X94128095Y-38422438D01*
X94128095Y-38422438D02*
X94175714Y-38470057D01*
X94175714Y-38470057D02*
X94223333Y-38565295D01*
X94223333Y-38565295D02*
X94223333Y-38708152D01*
X94223333Y-38708152D02*
X94175714Y-38803390D01*
X94175714Y-38803390D02*
X94128095Y-38851009D01*
X94128095Y-38851009D02*
X94032857Y-38898628D01*
X94032857Y-38898628D02*
X93651905Y-38898628D01*
X95080476Y-38374819D02*
X94890000Y-38374819D01*
X94890000Y-38374819D02*
X94794762Y-38422438D01*
X94794762Y-38422438D02*
X94747143Y-38470057D01*
X94747143Y-38470057D02*
X94651905Y-38612914D01*
X94651905Y-38612914D02*
X94604286Y-38803390D01*
X94604286Y-38803390D02*
X94604286Y-39184342D01*
X94604286Y-39184342D02*
X94651905Y-39279580D01*
X94651905Y-39279580D02*
X94699524Y-39327200D01*
X94699524Y-39327200D02*
X94794762Y-39374819D01*
X94794762Y-39374819D02*
X94985238Y-39374819D01*
X94985238Y-39374819D02*
X95080476Y-39327200D01*
X95080476Y-39327200D02*
X95128095Y-39279580D01*
X95128095Y-39279580D02*
X95175714Y-39184342D01*
X95175714Y-39184342D02*
X95175714Y-38946247D01*
X95175714Y-38946247D02*
X95128095Y-38851009D01*
X95128095Y-38851009D02*
X95080476Y-38803390D01*
X95080476Y-38803390D02*
X94985238Y-38755771D01*
X94985238Y-38755771D02*
X94794762Y-38755771D01*
X94794762Y-38755771D02*
X94699524Y-38803390D01*
X94699524Y-38803390D02*
X94651905Y-38851009D01*
X94651905Y-38851009D02*
X94604286Y-38946247D01*
X34745714Y-114684819D02*
X34745714Y-113684819D01*
X34745714Y-113684819D02*
X35126666Y-113684819D01*
X35126666Y-113684819D02*
X35221904Y-113732438D01*
X35221904Y-113732438D02*
X35269523Y-113780057D01*
X35269523Y-113780057D02*
X35317142Y-113875295D01*
X35317142Y-113875295D02*
X35317142Y-114018152D01*
X35317142Y-114018152D02*
X35269523Y-114113390D01*
X35269523Y-114113390D02*
X35221904Y-114161009D01*
X35221904Y-114161009D02*
X35126666Y-114208628D01*
X35126666Y-114208628D02*
X34745714Y-114208628D01*
X36269523Y-114684819D02*
X35698095Y-114684819D01*
X35983809Y-114684819D02*
X35983809Y-113684819D01*
X35983809Y-113684819D02*
X35888571Y-113827676D01*
X35888571Y-113827676D02*
X35793333Y-113922914D01*
X35793333Y-113922914D02*
X35698095Y-113970533D01*
X36888571Y-113684819D02*
X36983809Y-113684819D01*
X36983809Y-113684819D02*
X37079047Y-113732438D01*
X37079047Y-113732438D02*
X37126666Y-113780057D01*
X37126666Y-113780057D02*
X37174285Y-113875295D01*
X37174285Y-113875295D02*
X37221904Y-114065771D01*
X37221904Y-114065771D02*
X37221904Y-114303866D01*
X37221904Y-114303866D02*
X37174285Y-114494342D01*
X37174285Y-114494342D02*
X37126666Y-114589580D01*
X37126666Y-114589580D02*
X37079047Y-114637200D01*
X37079047Y-114637200D02*
X36983809Y-114684819D01*
X36983809Y-114684819D02*
X36888571Y-114684819D01*
X36888571Y-114684819D02*
X36793333Y-114637200D01*
X36793333Y-114637200D02*
X36745714Y-114589580D01*
X36745714Y-114589580D02*
X36698095Y-114494342D01*
X36698095Y-114494342D02*
X36650476Y-114303866D01*
X36650476Y-114303866D02*
X36650476Y-114065771D01*
X36650476Y-114065771D02*
X36698095Y-113875295D01*
X36698095Y-113875295D02*
X36745714Y-113780057D01*
X36745714Y-113780057D02*
X36793333Y-113732438D01*
X36793333Y-113732438D02*
X36888571Y-113684819D01*
X7041905Y-100264819D02*
X7041905Y-99264819D01*
X7041905Y-99264819D02*
X7422857Y-99264819D01*
X7422857Y-99264819D02*
X7518095Y-99312438D01*
X7518095Y-99312438D02*
X7565714Y-99360057D01*
X7565714Y-99360057D02*
X7613333Y-99455295D01*
X7613333Y-99455295D02*
X7613333Y-99598152D01*
X7613333Y-99598152D02*
X7565714Y-99693390D01*
X7565714Y-99693390D02*
X7518095Y-99741009D01*
X7518095Y-99741009D02*
X7422857Y-99788628D01*
X7422857Y-99788628D02*
X7041905Y-99788628D01*
X8184762Y-99693390D02*
X8089524Y-99645771D01*
X8089524Y-99645771D02*
X8041905Y-99598152D01*
X8041905Y-99598152D02*
X7994286Y-99502914D01*
X7994286Y-99502914D02*
X7994286Y-99455295D01*
X7994286Y-99455295D02*
X8041905Y-99360057D01*
X8041905Y-99360057D02*
X8089524Y-99312438D01*
X8089524Y-99312438D02*
X8184762Y-99264819D01*
X8184762Y-99264819D02*
X8375238Y-99264819D01*
X8375238Y-99264819D02*
X8470476Y-99312438D01*
X8470476Y-99312438D02*
X8518095Y-99360057D01*
X8518095Y-99360057D02*
X8565714Y-99455295D01*
X8565714Y-99455295D02*
X8565714Y-99502914D01*
X8565714Y-99502914D02*
X8518095Y-99598152D01*
X8518095Y-99598152D02*
X8470476Y-99645771D01*
X8470476Y-99645771D02*
X8375238Y-99693390D01*
X8375238Y-99693390D02*
X8184762Y-99693390D01*
X8184762Y-99693390D02*
X8089524Y-99741009D01*
X8089524Y-99741009D02*
X8041905Y-99788628D01*
X8041905Y-99788628D02*
X7994286Y-99883866D01*
X7994286Y-99883866D02*
X7994286Y-100074342D01*
X7994286Y-100074342D02*
X8041905Y-100169580D01*
X8041905Y-100169580D02*
X8089524Y-100217200D01*
X8089524Y-100217200D02*
X8184762Y-100264819D01*
X8184762Y-100264819D02*
X8375238Y-100264819D01*
X8375238Y-100264819D02*
X8470476Y-100217200D01*
X8470476Y-100217200D02*
X8518095Y-100169580D01*
X8518095Y-100169580D02*
X8565714Y-100074342D01*
X8565714Y-100074342D02*
X8565714Y-99883866D01*
X8565714Y-99883866D02*
X8518095Y-99788628D01*
X8518095Y-99788628D02*
X8470476Y-99741009D01*
X8470476Y-99741009D02*
X8375238Y-99693390D01*
X130705714Y-57074819D02*
X130705714Y-56074819D01*
X130705714Y-56074819D02*
X131086666Y-56074819D01*
X131086666Y-56074819D02*
X131181904Y-56122438D01*
X131181904Y-56122438D02*
X131229523Y-56170057D01*
X131229523Y-56170057D02*
X131277142Y-56265295D01*
X131277142Y-56265295D02*
X131277142Y-56408152D01*
X131277142Y-56408152D02*
X131229523Y-56503390D01*
X131229523Y-56503390D02*
X131181904Y-56551009D01*
X131181904Y-56551009D02*
X131086666Y-56598628D01*
X131086666Y-56598628D02*
X130705714Y-56598628D01*
X132229523Y-57074819D02*
X131658095Y-57074819D01*
X131943809Y-57074819D02*
X131943809Y-56074819D01*
X131943809Y-56074819D02*
X131848571Y-56217676D01*
X131848571Y-56217676D02*
X131753333Y-56312914D01*
X131753333Y-56312914D02*
X131658095Y-56360533D01*
X132705714Y-57074819D02*
X132896190Y-57074819D01*
X132896190Y-57074819D02*
X132991428Y-57027200D01*
X132991428Y-57027200D02*
X133039047Y-56979580D01*
X133039047Y-56979580D02*
X133134285Y-56836723D01*
X133134285Y-56836723D02*
X133181904Y-56646247D01*
X133181904Y-56646247D02*
X133181904Y-56265295D01*
X133181904Y-56265295D02*
X133134285Y-56170057D01*
X133134285Y-56170057D02*
X133086666Y-56122438D01*
X133086666Y-56122438D02*
X132991428Y-56074819D01*
X132991428Y-56074819D02*
X132800952Y-56074819D01*
X132800952Y-56074819D02*
X132705714Y-56122438D01*
X132705714Y-56122438D02*
X132658095Y-56170057D01*
X132658095Y-56170057D02*
X132610476Y-56265295D01*
X132610476Y-56265295D02*
X132610476Y-56503390D01*
X132610476Y-56503390D02*
X132658095Y-56598628D01*
X132658095Y-56598628D02*
X132705714Y-56646247D01*
X132705714Y-56646247D02*
X132800952Y-56693866D01*
X132800952Y-56693866D02*
X132991428Y-56693866D01*
X132991428Y-56693866D02*
X133086666Y-56646247D01*
X133086666Y-56646247D02*
X133134285Y-56598628D01*
X133134285Y-56598628D02*
X133181904Y-56503390D01*
X130705714Y-45044819D02*
X130705714Y-44044819D01*
X130705714Y-44044819D02*
X131086666Y-44044819D01*
X131086666Y-44044819D02*
X131181904Y-44092438D01*
X131181904Y-44092438D02*
X131229523Y-44140057D01*
X131229523Y-44140057D02*
X131277142Y-44235295D01*
X131277142Y-44235295D02*
X131277142Y-44378152D01*
X131277142Y-44378152D02*
X131229523Y-44473390D01*
X131229523Y-44473390D02*
X131181904Y-44521009D01*
X131181904Y-44521009D02*
X131086666Y-44568628D01*
X131086666Y-44568628D02*
X130705714Y-44568628D01*
X131658095Y-44140057D02*
X131705714Y-44092438D01*
X131705714Y-44092438D02*
X131800952Y-44044819D01*
X131800952Y-44044819D02*
X132039047Y-44044819D01*
X132039047Y-44044819D02*
X132134285Y-44092438D01*
X132134285Y-44092438D02*
X132181904Y-44140057D01*
X132181904Y-44140057D02*
X132229523Y-44235295D01*
X132229523Y-44235295D02*
X132229523Y-44330533D01*
X132229523Y-44330533D02*
X132181904Y-44473390D01*
X132181904Y-44473390D02*
X131610476Y-45044819D01*
X131610476Y-45044819D02*
X132229523Y-45044819D01*
X132848571Y-44044819D02*
X132943809Y-44044819D01*
X132943809Y-44044819D02*
X133039047Y-44092438D01*
X133039047Y-44092438D02*
X133086666Y-44140057D01*
X133086666Y-44140057D02*
X133134285Y-44235295D01*
X133134285Y-44235295D02*
X133181904Y-44425771D01*
X133181904Y-44425771D02*
X133181904Y-44663866D01*
X133181904Y-44663866D02*
X133134285Y-44854342D01*
X133134285Y-44854342D02*
X133086666Y-44949580D01*
X133086666Y-44949580D02*
X133039047Y-44997200D01*
X133039047Y-44997200D02*
X132943809Y-45044819D01*
X132943809Y-45044819D02*
X132848571Y-45044819D01*
X132848571Y-45044819D02*
X132753333Y-44997200D01*
X132753333Y-44997200D02*
X132705714Y-44949580D01*
X132705714Y-44949580D02*
X132658095Y-44854342D01*
X132658095Y-44854342D02*
X132610476Y-44663866D01*
X132610476Y-44663866D02*
X132610476Y-44425771D01*
X132610476Y-44425771D02*
X132658095Y-44235295D01*
X132658095Y-44235295D02*
X132705714Y-44140057D01*
X132705714Y-44140057D02*
X132753333Y-44092438D01*
X132753333Y-44092438D02*
X132848571Y-44044819D01*
X45295714Y-114684819D02*
X45295714Y-113684819D01*
X45295714Y-113684819D02*
X45676666Y-113684819D01*
X45676666Y-113684819D02*
X45771904Y-113732438D01*
X45771904Y-113732438D02*
X45819523Y-113780057D01*
X45819523Y-113780057D02*
X45867142Y-113875295D01*
X45867142Y-113875295D02*
X45867142Y-114018152D01*
X45867142Y-114018152D02*
X45819523Y-114113390D01*
X45819523Y-114113390D02*
X45771904Y-114161009D01*
X45771904Y-114161009D02*
X45676666Y-114208628D01*
X45676666Y-114208628D02*
X45295714Y-114208628D01*
X46819523Y-114684819D02*
X46248095Y-114684819D01*
X46533809Y-114684819D02*
X46533809Y-113684819D01*
X46533809Y-113684819D02*
X46438571Y-113827676D01*
X46438571Y-113827676D02*
X46343333Y-113922914D01*
X46343333Y-113922914D02*
X46248095Y-113970533D01*
X47771904Y-114684819D02*
X47200476Y-114684819D01*
X47486190Y-114684819D02*
X47486190Y-113684819D01*
X47486190Y-113684819D02*
X47390952Y-113827676D01*
X47390952Y-113827676D02*
X47295714Y-113922914D01*
X47295714Y-113922914D02*
X47200476Y-113970533D01*
X124421905Y-98124819D02*
X124421905Y-97124819D01*
X124421905Y-97124819D02*
X124660000Y-97124819D01*
X124660000Y-97124819D02*
X124802857Y-97172438D01*
X124802857Y-97172438D02*
X124898095Y-97267676D01*
X124898095Y-97267676D02*
X124945714Y-97362914D01*
X124945714Y-97362914D02*
X124993333Y-97553390D01*
X124993333Y-97553390D02*
X124993333Y-97696247D01*
X124993333Y-97696247D02*
X124945714Y-97886723D01*
X124945714Y-97886723D02*
X124898095Y-97981961D01*
X124898095Y-97981961D02*
X124802857Y-98077200D01*
X124802857Y-98077200D02*
X124660000Y-98124819D01*
X124660000Y-98124819D02*
X124421905Y-98124819D01*
X125850476Y-97458152D02*
X125850476Y-98124819D01*
X125612381Y-97077200D02*
X125374286Y-97791485D01*
X125374286Y-97791485D02*
X125993333Y-97791485D01*
X126698095Y-85764819D02*
X126698095Y-84764819D01*
X127269523Y-85764819D02*
X126840952Y-85193390D01*
X127269523Y-84764819D02*
X126698095Y-85336247D01*
X86493333Y-45604819D02*
X86160000Y-45128628D01*
X85921905Y-45604819D02*
X85921905Y-44604819D01*
X85921905Y-44604819D02*
X86302857Y-44604819D01*
X86302857Y-44604819D02*
X86398095Y-44652438D01*
X86398095Y-44652438D02*
X86445714Y-44700057D01*
X86445714Y-44700057D02*
X86493333Y-44795295D01*
X86493333Y-44795295D02*
X86493333Y-44938152D01*
X86493333Y-44938152D02*
X86445714Y-45033390D01*
X86445714Y-45033390D02*
X86398095Y-45081009D01*
X86398095Y-45081009D02*
X86302857Y-45128628D01*
X86302857Y-45128628D02*
X85921905Y-45128628D01*
X87350476Y-44938152D02*
X87350476Y-45604819D01*
X87112381Y-44557200D02*
X86874286Y-45271485D01*
X86874286Y-45271485D02*
X87493333Y-45271485D01*
X7041905Y-88024819D02*
X7041905Y-87024819D01*
X7041905Y-87024819D02*
X7422857Y-87024819D01*
X7422857Y-87024819D02*
X7518095Y-87072438D01*
X7518095Y-87072438D02*
X7565714Y-87120057D01*
X7565714Y-87120057D02*
X7613333Y-87215295D01*
X7613333Y-87215295D02*
X7613333Y-87358152D01*
X7613333Y-87358152D02*
X7565714Y-87453390D01*
X7565714Y-87453390D02*
X7518095Y-87501009D01*
X7518095Y-87501009D02*
X7422857Y-87548628D01*
X7422857Y-87548628D02*
X7041905Y-87548628D01*
X7946667Y-87024819D02*
X8613333Y-87024819D01*
X8613333Y-87024819D02*
X8184762Y-88024819D01*
X93883333Y-43679580D02*
X93835714Y-43727200D01*
X93835714Y-43727200D02*
X93692857Y-43774819D01*
X93692857Y-43774819D02*
X93597619Y-43774819D01*
X93597619Y-43774819D02*
X93454762Y-43727200D01*
X93454762Y-43727200D02*
X93359524Y-43631961D01*
X93359524Y-43631961D02*
X93311905Y-43536723D01*
X93311905Y-43536723D02*
X93264286Y-43346247D01*
X93264286Y-43346247D02*
X93264286Y-43203390D01*
X93264286Y-43203390D02*
X93311905Y-43012914D01*
X93311905Y-43012914D02*
X93359524Y-42917676D01*
X93359524Y-42917676D02*
X93454762Y-42822438D01*
X93454762Y-42822438D02*
X93597619Y-42774819D01*
X93597619Y-42774819D02*
X93692857Y-42774819D01*
X93692857Y-42774819D02*
X93835714Y-42822438D01*
X93835714Y-42822438D02*
X93883333Y-42870057D01*
X94740476Y-42774819D02*
X94550000Y-42774819D01*
X94550000Y-42774819D02*
X94454762Y-42822438D01*
X94454762Y-42822438D02*
X94407143Y-42870057D01*
X94407143Y-42870057D02*
X94311905Y-43012914D01*
X94311905Y-43012914D02*
X94264286Y-43203390D01*
X94264286Y-43203390D02*
X94264286Y-43584342D01*
X94264286Y-43584342D02*
X94311905Y-43679580D01*
X94311905Y-43679580D02*
X94359524Y-43727200D01*
X94359524Y-43727200D02*
X94454762Y-43774819D01*
X94454762Y-43774819D02*
X94645238Y-43774819D01*
X94645238Y-43774819D02*
X94740476Y-43727200D01*
X94740476Y-43727200D02*
X94788095Y-43679580D01*
X94788095Y-43679580D02*
X94835714Y-43584342D01*
X94835714Y-43584342D02*
X94835714Y-43346247D01*
X94835714Y-43346247D02*
X94788095Y-43251009D01*
X94788095Y-43251009D02*
X94740476Y-43203390D01*
X94740476Y-43203390D02*
X94645238Y-43155771D01*
X94645238Y-43155771D02*
X94454762Y-43155771D01*
X94454762Y-43155771D02*
X94359524Y-43203390D01*
X94359524Y-43203390D02*
X94311905Y-43251009D01*
X94311905Y-43251009D02*
X94264286Y-43346247D01*
X66273333Y-42954819D02*
X65940000Y-42478628D01*
X65701905Y-42954819D02*
X65701905Y-41954819D01*
X65701905Y-41954819D02*
X66082857Y-41954819D01*
X66082857Y-41954819D02*
X66178095Y-42002438D01*
X66178095Y-42002438D02*
X66225714Y-42050057D01*
X66225714Y-42050057D02*
X66273333Y-42145295D01*
X66273333Y-42145295D02*
X66273333Y-42288152D01*
X66273333Y-42288152D02*
X66225714Y-42383390D01*
X66225714Y-42383390D02*
X66178095Y-42431009D01*
X66178095Y-42431009D02*
X66082857Y-42478628D01*
X66082857Y-42478628D02*
X65701905Y-42478628D01*
X66606667Y-41954819D02*
X67225714Y-41954819D01*
X67225714Y-41954819D02*
X66892381Y-42335771D01*
X66892381Y-42335771D02*
X67035238Y-42335771D01*
X67035238Y-42335771D02*
X67130476Y-42383390D01*
X67130476Y-42383390D02*
X67178095Y-42431009D01*
X67178095Y-42431009D02*
X67225714Y-42526247D01*
X67225714Y-42526247D02*
X67225714Y-42764342D01*
X67225714Y-42764342D02*
X67178095Y-42859580D01*
X67178095Y-42859580D02*
X67130476Y-42907200D01*
X67130476Y-42907200D02*
X67035238Y-42954819D01*
X67035238Y-42954819D02*
X66749524Y-42954819D01*
X66749524Y-42954819D02*
X66654286Y-42907200D01*
X66654286Y-42907200D02*
X66606667Y-42859580D01*
X73597142Y-72739580D02*
X73549523Y-72787200D01*
X73549523Y-72787200D02*
X73406666Y-72834819D01*
X73406666Y-72834819D02*
X73311428Y-72834819D01*
X73311428Y-72834819D02*
X73168571Y-72787200D01*
X73168571Y-72787200D02*
X73073333Y-72691961D01*
X73073333Y-72691961D02*
X73025714Y-72596723D01*
X73025714Y-72596723D02*
X72978095Y-72406247D01*
X72978095Y-72406247D02*
X72978095Y-72263390D01*
X72978095Y-72263390D02*
X73025714Y-72072914D01*
X73025714Y-72072914D02*
X73073333Y-71977676D01*
X73073333Y-71977676D02*
X73168571Y-71882438D01*
X73168571Y-71882438D02*
X73311428Y-71834819D01*
X73311428Y-71834819D02*
X73406666Y-71834819D01*
X73406666Y-71834819D02*
X73549523Y-71882438D01*
X73549523Y-71882438D02*
X73597142Y-71930057D01*
X74549523Y-72834819D02*
X73978095Y-72834819D01*
X74263809Y-72834819D02*
X74263809Y-71834819D01*
X74263809Y-71834819D02*
X74168571Y-71977676D01*
X74168571Y-71977676D02*
X74073333Y-72072914D01*
X74073333Y-72072914D02*
X73978095Y-72120533D01*
X75168571Y-71834819D02*
X75263809Y-71834819D01*
X75263809Y-71834819D02*
X75359047Y-71882438D01*
X75359047Y-71882438D02*
X75406666Y-71930057D01*
X75406666Y-71930057D02*
X75454285Y-72025295D01*
X75454285Y-72025295D02*
X75501904Y-72215771D01*
X75501904Y-72215771D02*
X75501904Y-72453866D01*
X75501904Y-72453866D02*
X75454285Y-72644342D01*
X75454285Y-72644342D02*
X75406666Y-72739580D01*
X75406666Y-72739580D02*
X75359047Y-72787200D01*
X75359047Y-72787200D02*
X75263809Y-72834819D01*
X75263809Y-72834819D02*
X75168571Y-72834819D01*
X75168571Y-72834819D02*
X75073333Y-72787200D01*
X75073333Y-72787200D02*
X75025714Y-72739580D01*
X75025714Y-72739580D02*
X74978095Y-72644342D01*
X74978095Y-72644342D02*
X74930476Y-72453866D01*
X74930476Y-72453866D02*
X74930476Y-72215771D01*
X74930476Y-72215771D02*
X74978095Y-72025295D01*
X74978095Y-72025295D02*
X75025714Y-71930057D01*
X75025714Y-71930057D02*
X75073333Y-71882438D01*
X75073333Y-71882438D02*
X75168571Y-71834819D01*
X7041905Y-57454819D02*
X7041905Y-56454819D01*
X7041905Y-56454819D02*
X7422857Y-56454819D01*
X7422857Y-56454819D02*
X7518095Y-56502438D01*
X7518095Y-56502438D02*
X7565714Y-56550057D01*
X7565714Y-56550057D02*
X7613333Y-56645295D01*
X7613333Y-56645295D02*
X7613333Y-56788152D01*
X7613333Y-56788152D02*
X7565714Y-56883390D01*
X7565714Y-56883390D02*
X7518095Y-56931009D01*
X7518095Y-56931009D02*
X7422857Y-56978628D01*
X7422857Y-56978628D02*
X7041905Y-56978628D01*
X8470476Y-56788152D02*
X8470476Y-57454819D01*
X8232381Y-56407200D02*
X7994286Y-57121485D01*
X7994286Y-57121485D02*
X8613333Y-57121485D01*
X7041905Y-50274819D02*
X7041905Y-49274819D01*
X7041905Y-49274819D02*
X7422857Y-49274819D01*
X7422857Y-49274819D02*
X7518095Y-49322438D01*
X7518095Y-49322438D02*
X7565714Y-49370057D01*
X7565714Y-49370057D02*
X7613333Y-49465295D01*
X7613333Y-49465295D02*
X7613333Y-49608152D01*
X7613333Y-49608152D02*
X7565714Y-49703390D01*
X7565714Y-49703390D02*
X7518095Y-49751009D01*
X7518095Y-49751009D02*
X7422857Y-49798628D01*
X7422857Y-49798628D02*
X7041905Y-49798628D01*
X7946667Y-49274819D02*
X8565714Y-49274819D01*
X8565714Y-49274819D02*
X8232381Y-49655771D01*
X8232381Y-49655771D02*
X8375238Y-49655771D01*
X8375238Y-49655771D02*
X8470476Y-49703390D01*
X8470476Y-49703390D02*
X8518095Y-49751009D01*
X8518095Y-49751009D02*
X8565714Y-49846247D01*
X8565714Y-49846247D02*
X8565714Y-50084342D01*
X8565714Y-50084342D02*
X8518095Y-50179580D01*
X8518095Y-50179580D02*
X8470476Y-50227200D01*
X8470476Y-50227200D02*
X8375238Y-50274819D01*
X8375238Y-50274819D02*
X8089524Y-50274819D01*
X8089524Y-50274819D02*
X7994286Y-50227200D01*
X7994286Y-50227200D02*
X7946667Y-50179580D01*
X130705714Y-89924819D02*
X130705714Y-88924819D01*
X130705714Y-88924819D02*
X131086666Y-88924819D01*
X131086666Y-88924819D02*
X131181904Y-88972438D01*
X131181904Y-88972438D02*
X131229523Y-89020057D01*
X131229523Y-89020057D02*
X131277142Y-89115295D01*
X131277142Y-89115295D02*
X131277142Y-89258152D01*
X131277142Y-89258152D02*
X131229523Y-89353390D01*
X131229523Y-89353390D02*
X131181904Y-89401009D01*
X131181904Y-89401009D02*
X131086666Y-89448628D01*
X131086666Y-89448628D02*
X130705714Y-89448628D01*
X132229523Y-89924819D02*
X131658095Y-89924819D01*
X131943809Y-89924819D02*
X131943809Y-88924819D01*
X131943809Y-88924819D02*
X131848571Y-89067676D01*
X131848571Y-89067676D02*
X131753333Y-89162914D01*
X131753333Y-89162914D02*
X131658095Y-89210533D01*
X133086666Y-88924819D02*
X132896190Y-88924819D01*
X132896190Y-88924819D02*
X132800952Y-88972438D01*
X132800952Y-88972438D02*
X132753333Y-89020057D01*
X132753333Y-89020057D02*
X132658095Y-89162914D01*
X132658095Y-89162914D02*
X132610476Y-89353390D01*
X132610476Y-89353390D02*
X132610476Y-89734342D01*
X132610476Y-89734342D02*
X132658095Y-89829580D01*
X132658095Y-89829580D02*
X132705714Y-89877200D01*
X132705714Y-89877200D02*
X132800952Y-89924819D01*
X132800952Y-89924819D02*
X132991428Y-89924819D01*
X132991428Y-89924819D02*
X133086666Y-89877200D01*
X133086666Y-89877200D02*
X133134285Y-89829580D01*
X133134285Y-89829580D02*
X133181904Y-89734342D01*
X133181904Y-89734342D02*
X133181904Y-89496247D01*
X133181904Y-89496247D02*
X133134285Y-89401009D01*
X133134285Y-89401009D02*
X133086666Y-89353390D01*
X133086666Y-89353390D02*
X132991428Y-89305771D01*
X132991428Y-89305771D02*
X132800952Y-89305771D01*
X132800952Y-89305771D02*
X132705714Y-89353390D01*
X132705714Y-89353390D02*
X132658095Y-89401009D01*
X132658095Y-89401009D02*
X132610476Y-89496247D01*
X7041905Y-31664819D02*
X7041905Y-30664819D01*
X7041905Y-30664819D02*
X7422857Y-30664819D01*
X7422857Y-30664819D02*
X7518095Y-30712438D01*
X7518095Y-30712438D02*
X7565714Y-30760057D01*
X7565714Y-30760057D02*
X7613333Y-30855295D01*
X7613333Y-30855295D02*
X7613333Y-30998152D01*
X7613333Y-30998152D02*
X7565714Y-31093390D01*
X7565714Y-31093390D02*
X7518095Y-31141009D01*
X7518095Y-31141009D02*
X7422857Y-31188628D01*
X7422857Y-31188628D02*
X7041905Y-31188628D01*
X8565714Y-31664819D02*
X7994286Y-31664819D01*
X8280000Y-31664819D02*
X8280000Y-30664819D01*
X8280000Y-30664819D02*
X8184762Y-30807676D01*
X8184762Y-30807676D02*
X8089524Y-30902914D01*
X8089524Y-30902914D02*
X7994286Y-30950533D01*
X71334761Y-29690057D02*
X71239523Y-29642438D01*
X71239523Y-29642438D02*
X71144285Y-29547200D01*
X71144285Y-29547200D02*
X71001428Y-29404342D01*
X71001428Y-29404342D02*
X70906190Y-29356723D01*
X70906190Y-29356723D02*
X70810952Y-29356723D01*
X70858571Y-29594819D02*
X70763333Y-29547200D01*
X70763333Y-29547200D02*
X70668095Y-29451961D01*
X70668095Y-29451961D02*
X70620476Y-29261485D01*
X70620476Y-29261485D02*
X70620476Y-28928152D01*
X70620476Y-28928152D02*
X70668095Y-28737676D01*
X70668095Y-28737676D02*
X70763333Y-28642438D01*
X70763333Y-28642438D02*
X70858571Y-28594819D01*
X70858571Y-28594819D02*
X71049047Y-28594819D01*
X71049047Y-28594819D02*
X71144285Y-28642438D01*
X71144285Y-28642438D02*
X71239523Y-28737676D01*
X71239523Y-28737676D02*
X71287142Y-28928152D01*
X71287142Y-28928152D02*
X71287142Y-29261485D01*
X71287142Y-29261485D02*
X71239523Y-29451961D01*
X71239523Y-29451961D02*
X71144285Y-29547200D01*
X71144285Y-29547200D02*
X71049047Y-29594819D01*
X71049047Y-29594819D02*
X70858571Y-29594819D01*
X72239523Y-29594819D02*
X71668095Y-29594819D01*
X71953809Y-29594819D02*
X71953809Y-28594819D01*
X71953809Y-28594819D02*
X71858571Y-28737676D01*
X71858571Y-28737676D02*
X71763333Y-28832914D01*
X71763333Y-28832914D02*
X71668095Y-28880533D01*
X76503333Y-49849580D02*
X76455714Y-49897200D01*
X76455714Y-49897200D02*
X76312857Y-49944819D01*
X76312857Y-49944819D02*
X76217619Y-49944819D01*
X76217619Y-49944819D02*
X76074762Y-49897200D01*
X76074762Y-49897200D02*
X75979524Y-49801961D01*
X75979524Y-49801961D02*
X75931905Y-49706723D01*
X75931905Y-49706723D02*
X75884286Y-49516247D01*
X75884286Y-49516247D02*
X75884286Y-49373390D01*
X75884286Y-49373390D02*
X75931905Y-49182914D01*
X75931905Y-49182914D02*
X75979524Y-49087676D01*
X75979524Y-49087676D02*
X76074762Y-48992438D01*
X76074762Y-48992438D02*
X76217619Y-48944819D01*
X76217619Y-48944819D02*
X76312857Y-48944819D01*
X76312857Y-48944819D02*
X76455714Y-48992438D01*
X76455714Y-48992438D02*
X76503333Y-49040057D01*
X76836667Y-48944819D02*
X77503333Y-48944819D01*
X77503333Y-48944819D02*
X77074762Y-49944819D01*
X45166905Y-71954819D02*
X45166905Y-70954819D01*
X45166905Y-70954819D02*
X45405000Y-70954819D01*
X45405000Y-70954819D02*
X45547857Y-71002438D01*
X45547857Y-71002438D02*
X45643095Y-71097676D01*
X45643095Y-71097676D02*
X45690714Y-71192914D01*
X45690714Y-71192914D02*
X45738333Y-71383390D01*
X45738333Y-71383390D02*
X45738333Y-71526247D01*
X45738333Y-71526247D02*
X45690714Y-71716723D01*
X45690714Y-71716723D02*
X45643095Y-71811961D01*
X45643095Y-71811961D02*
X45547857Y-71907200D01*
X45547857Y-71907200D02*
X45405000Y-71954819D01*
X45405000Y-71954819D02*
X45166905Y-71954819D01*
X46690714Y-71954819D02*
X46119286Y-71954819D01*
X46405000Y-71954819D02*
X46405000Y-70954819D01*
X46405000Y-70954819D02*
X46309762Y-71097676D01*
X46309762Y-71097676D02*
X46214524Y-71192914D01*
X46214524Y-71192914D02*
X46119286Y-71240533D01*
X68233333Y-58764819D02*
X67900000Y-58288628D01*
X67661905Y-58764819D02*
X67661905Y-57764819D01*
X67661905Y-57764819D02*
X68042857Y-57764819D01*
X68042857Y-57764819D02*
X68138095Y-57812438D01*
X68138095Y-57812438D02*
X68185714Y-57860057D01*
X68185714Y-57860057D02*
X68233333Y-57955295D01*
X68233333Y-57955295D02*
X68233333Y-58098152D01*
X68233333Y-58098152D02*
X68185714Y-58193390D01*
X68185714Y-58193390D02*
X68138095Y-58241009D01*
X68138095Y-58241009D02*
X68042857Y-58288628D01*
X68042857Y-58288628D02*
X67661905Y-58288628D01*
X68614286Y-57860057D02*
X68661905Y-57812438D01*
X68661905Y-57812438D02*
X68757143Y-57764819D01*
X68757143Y-57764819D02*
X68995238Y-57764819D01*
X68995238Y-57764819D02*
X69090476Y-57812438D01*
X69090476Y-57812438D02*
X69138095Y-57860057D01*
X69138095Y-57860057D02*
X69185714Y-57955295D01*
X69185714Y-57955295D02*
X69185714Y-58050533D01*
X69185714Y-58050533D02*
X69138095Y-58193390D01*
X69138095Y-58193390D02*
X68566667Y-58764819D01*
X68566667Y-58764819D02*
X69185714Y-58764819D01*
X7041905Y-81384819D02*
X7041905Y-80384819D01*
X7041905Y-80384819D02*
X7422857Y-80384819D01*
X7422857Y-80384819D02*
X7518095Y-80432438D01*
X7518095Y-80432438D02*
X7565714Y-80480057D01*
X7565714Y-80480057D02*
X7613333Y-80575295D01*
X7613333Y-80575295D02*
X7613333Y-80718152D01*
X7613333Y-80718152D02*
X7565714Y-80813390D01*
X7565714Y-80813390D02*
X7518095Y-80861009D01*
X7518095Y-80861009D02*
X7422857Y-80908628D01*
X7422857Y-80908628D02*
X7041905Y-80908628D01*
X8470476Y-80384819D02*
X8280000Y-80384819D01*
X8280000Y-80384819D02*
X8184762Y-80432438D01*
X8184762Y-80432438D02*
X8137143Y-80480057D01*
X8137143Y-80480057D02*
X8041905Y-80622914D01*
X8041905Y-80622914D02*
X7994286Y-80813390D01*
X7994286Y-80813390D02*
X7994286Y-81194342D01*
X7994286Y-81194342D02*
X8041905Y-81289580D01*
X8041905Y-81289580D02*
X8089524Y-81337200D01*
X8089524Y-81337200D02*
X8184762Y-81384819D01*
X8184762Y-81384819D02*
X8375238Y-81384819D01*
X8375238Y-81384819D02*
X8470476Y-81337200D01*
X8470476Y-81337200D02*
X8518095Y-81289580D01*
X8518095Y-81289580D02*
X8565714Y-81194342D01*
X8565714Y-81194342D02*
X8565714Y-80956247D01*
X8565714Y-80956247D02*
X8518095Y-80861009D01*
X8518095Y-80861009D02*
X8470476Y-80813390D01*
X8470476Y-80813390D02*
X8375238Y-80765771D01*
X8375238Y-80765771D02*
X8184762Y-80765771D01*
X8184762Y-80765771D02*
X8089524Y-80813390D01*
X8089524Y-80813390D02*
X8041905Y-80861009D01*
X8041905Y-80861009D02*
X7994286Y-80956247D01*
X107744761Y-30490057D02*
X107649523Y-30442438D01*
X107649523Y-30442438D02*
X107554285Y-30347200D01*
X107554285Y-30347200D02*
X107411428Y-30204342D01*
X107411428Y-30204342D02*
X107316190Y-30156723D01*
X107316190Y-30156723D02*
X107220952Y-30156723D01*
X107268571Y-30394819D02*
X107173333Y-30347200D01*
X107173333Y-30347200D02*
X107078095Y-30251961D01*
X107078095Y-30251961D02*
X107030476Y-30061485D01*
X107030476Y-30061485D02*
X107030476Y-29728152D01*
X107030476Y-29728152D02*
X107078095Y-29537676D01*
X107078095Y-29537676D02*
X107173333Y-29442438D01*
X107173333Y-29442438D02*
X107268571Y-29394819D01*
X107268571Y-29394819D02*
X107459047Y-29394819D01*
X107459047Y-29394819D02*
X107554285Y-29442438D01*
X107554285Y-29442438D02*
X107649523Y-29537676D01*
X107649523Y-29537676D02*
X107697142Y-29728152D01*
X107697142Y-29728152D02*
X107697142Y-30061485D01*
X107697142Y-30061485D02*
X107649523Y-30251961D01*
X107649523Y-30251961D02*
X107554285Y-30347200D01*
X107554285Y-30347200D02*
X107459047Y-30394819D01*
X107459047Y-30394819D02*
X107268571Y-30394819D01*
X108078095Y-29490057D02*
X108125714Y-29442438D01*
X108125714Y-29442438D02*
X108220952Y-29394819D01*
X108220952Y-29394819D02*
X108459047Y-29394819D01*
X108459047Y-29394819D02*
X108554285Y-29442438D01*
X108554285Y-29442438D02*
X108601904Y-29490057D01*
X108601904Y-29490057D02*
X108649523Y-29585295D01*
X108649523Y-29585295D02*
X108649523Y-29680533D01*
X108649523Y-29680533D02*
X108601904Y-29823390D01*
X108601904Y-29823390D02*
X108030476Y-30394819D01*
X108030476Y-30394819D02*
X108649523Y-30394819D01*
X82868810Y-69524819D02*
X82868810Y-68524819D01*
X83916428Y-69429580D02*
X83868809Y-69477200D01*
X83868809Y-69477200D02*
X83725952Y-69524819D01*
X83725952Y-69524819D02*
X83630714Y-69524819D01*
X83630714Y-69524819D02*
X83487857Y-69477200D01*
X83487857Y-69477200D02*
X83392619Y-69381961D01*
X83392619Y-69381961D02*
X83345000Y-69286723D01*
X83345000Y-69286723D02*
X83297381Y-69096247D01*
X83297381Y-69096247D02*
X83297381Y-68953390D01*
X83297381Y-68953390D02*
X83345000Y-68762914D01*
X83345000Y-68762914D02*
X83392619Y-68667676D01*
X83392619Y-68667676D02*
X83487857Y-68572438D01*
X83487857Y-68572438D02*
X83630714Y-68524819D01*
X83630714Y-68524819D02*
X83725952Y-68524819D01*
X83725952Y-68524819D02*
X83868809Y-68572438D01*
X83868809Y-68572438D02*
X83916428Y-68620057D01*
X84297381Y-68620057D02*
X84345000Y-68572438D01*
X84345000Y-68572438D02*
X84440238Y-68524819D01*
X84440238Y-68524819D02*
X84678333Y-68524819D01*
X84678333Y-68524819D02*
X84773571Y-68572438D01*
X84773571Y-68572438D02*
X84821190Y-68620057D01*
X84821190Y-68620057D02*
X84868809Y-68715295D01*
X84868809Y-68715295D02*
X84868809Y-68810533D01*
X84868809Y-68810533D02*
X84821190Y-68953390D01*
X84821190Y-68953390D02*
X84249762Y-69524819D01*
X84249762Y-69524819D02*
X84868809Y-69524819D01*
X107827142Y-68819580D02*
X107779523Y-68867200D01*
X107779523Y-68867200D02*
X107636666Y-68914819D01*
X107636666Y-68914819D02*
X107541428Y-68914819D01*
X107541428Y-68914819D02*
X107398571Y-68867200D01*
X107398571Y-68867200D02*
X107303333Y-68771961D01*
X107303333Y-68771961D02*
X107255714Y-68676723D01*
X107255714Y-68676723D02*
X107208095Y-68486247D01*
X107208095Y-68486247D02*
X107208095Y-68343390D01*
X107208095Y-68343390D02*
X107255714Y-68152914D01*
X107255714Y-68152914D02*
X107303333Y-68057676D01*
X107303333Y-68057676D02*
X107398571Y-67962438D01*
X107398571Y-67962438D02*
X107541428Y-67914819D01*
X107541428Y-67914819D02*
X107636666Y-67914819D01*
X107636666Y-67914819D02*
X107779523Y-67962438D01*
X107779523Y-67962438D02*
X107827142Y-68010057D01*
X108779523Y-68914819D02*
X108208095Y-68914819D01*
X108493809Y-68914819D02*
X108493809Y-67914819D01*
X108493809Y-67914819D02*
X108398571Y-68057676D01*
X108398571Y-68057676D02*
X108303333Y-68152914D01*
X108303333Y-68152914D02*
X108208095Y-68200533D01*
X109112857Y-67914819D02*
X109731904Y-67914819D01*
X109731904Y-67914819D02*
X109398571Y-68295771D01*
X109398571Y-68295771D02*
X109541428Y-68295771D01*
X109541428Y-68295771D02*
X109636666Y-68343390D01*
X109636666Y-68343390D02*
X109684285Y-68391009D01*
X109684285Y-68391009D02*
X109731904Y-68486247D01*
X109731904Y-68486247D02*
X109731904Y-68724342D01*
X109731904Y-68724342D02*
X109684285Y-68819580D01*
X109684285Y-68819580D02*
X109636666Y-68867200D01*
X109636666Y-68867200D02*
X109541428Y-68914819D01*
X109541428Y-68914819D02*
X109255714Y-68914819D01*
X109255714Y-68914819D02*
X109160476Y-68867200D01*
X109160476Y-68867200D02*
X109112857Y-68819580D01*
X121627142Y-62429580D02*
X121579523Y-62477200D01*
X121579523Y-62477200D02*
X121436666Y-62524819D01*
X121436666Y-62524819D02*
X121341428Y-62524819D01*
X121341428Y-62524819D02*
X121198571Y-62477200D01*
X121198571Y-62477200D02*
X121103333Y-62381961D01*
X121103333Y-62381961D02*
X121055714Y-62286723D01*
X121055714Y-62286723D02*
X121008095Y-62096247D01*
X121008095Y-62096247D02*
X121008095Y-61953390D01*
X121008095Y-61953390D02*
X121055714Y-61762914D01*
X121055714Y-61762914D02*
X121103333Y-61667676D01*
X121103333Y-61667676D02*
X121198571Y-61572438D01*
X121198571Y-61572438D02*
X121341428Y-61524819D01*
X121341428Y-61524819D02*
X121436666Y-61524819D01*
X121436666Y-61524819D02*
X121579523Y-61572438D01*
X121579523Y-61572438D02*
X121627142Y-61620057D01*
X122579523Y-62524819D02*
X122008095Y-62524819D01*
X122293809Y-62524819D02*
X122293809Y-61524819D01*
X122293809Y-61524819D02*
X122198571Y-61667676D01*
X122198571Y-61667676D02*
X122103333Y-61762914D01*
X122103333Y-61762914D02*
X122008095Y-61810533D01*
X123436666Y-61524819D02*
X123246190Y-61524819D01*
X123246190Y-61524819D02*
X123150952Y-61572438D01*
X123150952Y-61572438D02*
X123103333Y-61620057D01*
X123103333Y-61620057D02*
X123008095Y-61762914D01*
X123008095Y-61762914D02*
X122960476Y-61953390D01*
X122960476Y-61953390D02*
X122960476Y-62334342D01*
X122960476Y-62334342D02*
X123008095Y-62429580D01*
X123008095Y-62429580D02*
X123055714Y-62477200D01*
X123055714Y-62477200D02*
X123150952Y-62524819D01*
X123150952Y-62524819D02*
X123341428Y-62524819D01*
X123341428Y-62524819D02*
X123436666Y-62477200D01*
X123436666Y-62477200D02*
X123484285Y-62429580D01*
X123484285Y-62429580D02*
X123531904Y-62334342D01*
X123531904Y-62334342D02*
X123531904Y-62096247D01*
X123531904Y-62096247D02*
X123484285Y-62001009D01*
X123484285Y-62001009D02*
X123436666Y-61953390D01*
X123436666Y-61953390D02*
X123341428Y-61905771D01*
X123341428Y-61905771D02*
X123150952Y-61905771D01*
X123150952Y-61905771D02*
X123055714Y-61953390D01*
X123055714Y-61953390D02*
X123008095Y-62001009D01*
X123008095Y-62001009D02*
X122960476Y-62096247D01*
X77125714Y-114684819D02*
X77125714Y-113684819D01*
X77125714Y-113684819D02*
X77506666Y-113684819D01*
X77506666Y-113684819D02*
X77601904Y-113732438D01*
X77601904Y-113732438D02*
X77649523Y-113780057D01*
X77649523Y-113780057D02*
X77697142Y-113875295D01*
X77697142Y-113875295D02*
X77697142Y-114018152D01*
X77697142Y-114018152D02*
X77649523Y-114113390D01*
X77649523Y-114113390D02*
X77601904Y-114161009D01*
X77601904Y-114161009D02*
X77506666Y-114208628D01*
X77506666Y-114208628D02*
X77125714Y-114208628D01*
X78649523Y-114684819D02*
X78078095Y-114684819D01*
X78363809Y-114684819D02*
X78363809Y-113684819D01*
X78363809Y-113684819D02*
X78268571Y-113827676D01*
X78268571Y-113827676D02*
X78173333Y-113922914D01*
X78173333Y-113922914D02*
X78078095Y-113970533D01*
X79506666Y-114018152D02*
X79506666Y-114684819D01*
X79268571Y-113637200D02*
X79030476Y-114351485D01*
X79030476Y-114351485D02*
X79649523Y-114351485D01*
X66735714Y-114684819D02*
X66735714Y-113684819D01*
X66735714Y-113684819D02*
X67116666Y-113684819D01*
X67116666Y-113684819D02*
X67211904Y-113732438D01*
X67211904Y-113732438D02*
X67259523Y-113780057D01*
X67259523Y-113780057D02*
X67307142Y-113875295D01*
X67307142Y-113875295D02*
X67307142Y-114018152D01*
X67307142Y-114018152D02*
X67259523Y-114113390D01*
X67259523Y-114113390D02*
X67211904Y-114161009D01*
X67211904Y-114161009D02*
X67116666Y-114208628D01*
X67116666Y-114208628D02*
X66735714Y-114208628D01*
X68259523Y-114684819D02*
X67688095Y-114684819D01*
X67973809Y-114684819D02*
X67973809Y-113684819D01*
X67973809Y-113684819D02*
X67878571Y-113827676D01*
X67878571Y-113827676D02*
X67783333Y-113922914D01*
X67783333Y-113922914D02*
X67688095Y-113970533D01*
X68592857Y-113684819D02*
X69211904Y-113684819D01*
X69211904Y-113684819D02*
X68878571Y-114065771D01*
X68878571Y-114065771D02*
X69021428Y-114065771D01*
X69021428Y-114065771D02*
X69116666Y-114113390D01*
X69116666Y-114113390D02*
X69164285Y-114161009D01*
X69164285Y-114161009D02*
X69211904Y-114256247D01*
X69211904Y-114256247D02*
X69211904Y-114494342D01*
X69211904Y-114494342D02*
X69164285Y-114589580D01*
X69164285Y-114589580D02*
X69116666Y-114637200D01*
X69116666Y-114637200D02*
X69021428Y-114684819D01*
X69021428Y-114684819D02*
X68735714Y-114684819D01*
X68735714Y-114684819D02*
X68640476Y-114637200D01*
X68640476Y-114637200D02*
X68592857Y-114589580D01*
X52436666Y-88601009D02*
X52103333Y-88601009D01*
X52103333Y-89124819D02*
X52103333Y-88124819D01*
X52103333Y-88124819D02*
X52579523Y-88124819D01*
X52912857Y-88220057D02*
X52960476Y-88172438D01*
X52960476Y-88172438D02*
X53055714Y-88124819D01*
X53055714Y-88124819D02*
X53293809Y-88124819D01*
X53293809Y-88124819D02*
X53389047Y-88172438D01*
X53389047Y-88172438D02*
X53436666Y-88220057D01*
X53436666Y-88220057D02*
X53484285Y-88315295D01*
X53484285Y-88315295D02*
X53484285Y-88410533D01*
X53484285Y-88410533D02*
X53436666Y-88553390D01*
X53436666Y-88553390D02*
X52865238Y-89124819D01*
X52865238Y-89124819D02*
X53484285Y-89124819D01*
X7041905Y-38684819D02*
X7041905Y-37684819D01*
X7041905Y-37684819D02*
X7422857Y-37684819D01*
X7422857Y-37684819D02*
X7518095Y-37732438D01*
X7518095Y-37732438D02*
X7565714Y-37780057D01*
X7565714Y-37780057D02*
X7613333Y-37875295D01*
X7613333Y-37875295D02*
X7613333Y-38018152D01*
X7613333Y-38018152D02*
X7565714Y-38113390D01*
X7565714Y-38113390D02*
X7518095Y-38161009D01*
X7518095Y-38161009D02*
X7422857Y-38208628D01*
X7422857Y-38208628D02*
X7041905Y-38208628D01*
X7994286Y-37780057D02*
X8041905Y-37732438D01*
X8041905Y-37732438D02*
X8137143Y-37684819D01*
X8137143Y-37684819D02*
X8375238Y-37684819D01*
X8375238Y-37684819D02*
X8470476Y-37732438D01*
X8470476Y-37732438D02*
X8518095Y-37780057D01*
X8518095Y-37780057D02*
X8565714Y-37875295D01*
X8565714Y-37875295D02*
X8565714Y-37970533D01*
X8565714Y-37970533D02*
X8518095Y-38113390D01*
X8518095Y-38113390D02*
X7946667Y-38684819D01*
X7946667Y-38684819D02*
X8565714Y-38684819D01*
X122027142Y-42669580D02*
X121979523Y-42717200D01*
X121979523Y-42717200D02*
X121836666Y-42764819D01*
X121836666Y-42764819D02*
X121741428Y-42764819D01*
X121741428Y-42764819D02*
X121598571Y-42717200D01*
X121598571Y-42717200D02*
X121503333Y-42621961D01*
X121503333Y-42621961D02*
X121455714Y-42526723D01*
X121455714Y-42526723D02*
X121408095Y-42336247D01*
X121408095Y-42336247D02*
X121408095Y-42193390D01*
X121408095Y-42193390D02*
X121455714Y-42002914D01*
X121455714Y-42002914D02*
X121503333Y-41907676D01*
X121503333Y-41907676D02*
X121598571Y-41812438D01*
X121598571Y-41812438D02*
X121741428Y-41764819D01*
X121741428Y-41764819D02*
X121836666Y-41764819D01*
X121836666Y-41764819D02*
X121979523Y-41812438D01*
X121979523Y-41812438D02*
X122027142Y-41860057D01*
X122979523Y-42764819D02*
X122408095Y-42764819D01*
X122693809Y-42764819D02*
X122693809Y-41764819D01*
X122693809Y-41764819D02*
X122598571Y-41907676D01*
X122598571Y-41907676D02*
X122503333Y-42002914D01*
X122503333Y-42002914D02*
X122408095Y-42050533D01*
X123884285Y-41764819D02*
X123408095Y-41764819D01*
X123408095Y-41764819D02*
X123360476Y-42241009D01*
X123360476Y-42241009D02*
X123408095Y-42193390D01*
X123408095Y-42193390D02*
X123503333Y-42145771D01*
X123503333Y-42145771D02*
X123741428Y-42145771D01*
X123741428Y-42145771D02*
X123836666Y-42193390D01*
X123836666Y-42193390D02*
X123884285Y-42241009D01*
X123884285Y-42241009D02*
X123931904Y-42336247D01*
X123931904Y-42336247D02*
X123931904Y-42574342D01*
X123931904Y-42574342D02*
X123884285Y-42669580D01*
X123884285Y-42669580D02*
X123836666Y-42717200D01*
X123836666Y-42717200D02*
X123741428Y-42764819D01*
X123741428Y-42764819D02*
X123503333Y-42764819D01*
X123503333Y-42764819D02*
X123408095Y-42717200D01*
X123408095Y-42717200D02*
X123360476Y-42669580D01*
X122067142Y-31929580D02*
X122019523Y-31977200D01*
X122019523Y-31977200D02*
X121876666Y-32024819D01*
X121876666Y-32024819D02*
X121781428Y-32024819D01*
X121781428Y-32024819D02*
X121638571Y-31977200D01*
X121638571Y-31977200D02*
X121543333Y-31881961D01*
X121543333Y-31881961D02*
X121495714Y-31786723D01*
X121495714Y-31786723D02*
X121448095Y-31596247D01*
X121448095Y-31596247D02*
X121448095Y-31453390D01*
X121448095Y-31453390D02*
X121495714Y-31262914D01*
X121495714Y-31262914D02*
X121543333Y-31167676D01*
X121543333Y-31167676D02*
X121638571Y-31072438D01*
X121638571Y-31072438D02*
X121781428Y-31024819D01*
X121781428Y-31024819D02*
X121876666Y-31024819D01*
X121876666Y-31024819D02*
X122019523Y-31072438D01*
X122019523Y-31072438D02*
X122067142Y-31120057D01*
X123019523Y-32024819D02*
X122448095Y-32024819D01*
X122733809Y-32024819D02*
X122733809Y-31024819D01*
X122733809Y-31024819D02*
X122638571Y-31167676D01*
X122638571Y-31167676D02*
X122543333Y-31262914D01*
X122543333Y-31262914D02*
X122448095Y-31310533D01*
X123876666Y-31358152D02*
X123876666Y-32024819D01*
X123638571Y-30977200D02*
X123400476Y-31691485D01*
X123400476Y-31691485D02*
X124019523Y-31691485D01*
X7041905Y-69314819D02*
X7041905Y-68314819D01*
X7041905Y-68314819D02*
X7422857Y-68314819D01*
X7422857Y-68314819D02*
X7518095Y-68362438D01*
X7518095Y-68362438D02*
X7565714Y-68410057D01*
X7565714Y-68410057D02*
X7613333Y-68505295D01*
X7613333Y-68505295D02*
X7613333Y-68648152D01*
X7613333Y-68648152D02*
X7565714Y-68743390D01*
X7565714Y-68743390D02*
X7518095Y-68791009D01*
X7518095Y-68791009D02*
X7422857Y-68838628D01*
X7422857Y-68838628D02*
X7041905Y-68838628D01*
X8518095Y-68314819D02*
X8041905Y-68314819D01*
X8041905Y-68314819D02*
X7994286Y-68791009D01*
X7994286Y-68791009D02*
X8041905Y-68743390D01*
X8041905Y-68743390D02*
X8137143Y-68695771D01*
X8137143Y-68695771D02*
X8375238Y-68695771D01*
X8375238Y-68695771D02*
X8470476Y-68743390D01*
X8470476Y-68743390D02*
X8518095Y-68791009D01*
X8518095Y-68791009D02*
X8565714Y-68886247D01*
X8565714Y-68886247D02*
X8565714Y-69124342D01*
X8565714Y-69124342D02*
X8518095Y-69219580D01*
X8518095Y-69219580D02*
X8470476Y-69267200D01*
X8470476Y-69267200D02*
X8375238Y-69314819D01*
X8375238Y-69314819D02*
X8137143Y-69314819D01*
X8137143Y-69314819D02*
X8041905Y-69267200D01*
X8041905Y-69267200D02*
X7994286Y-69219580D01*
X69566666Y-88601009D02*
X69233333Y-88601009D01*
X69233333Y-89124819D02*
X69233333Y-88124819D01*
X69233333Y-88124819D02*
X69709523Y-88124819D01*
X69995238Y-88124819D02*
X70614285Y-88124819D01*
X70614285Y-88124819D02*
X70280952Y-88505771D01*
X70280952Y-88505771D02*
X70423809Y-88505771D01*
X70423809Y-88505771D02*
X70519047Y-88553390D01*
X70519047Y-88553390D02*
X70566666Y-88601009D01*
X70566666Y-88601009D02*
X70614285Y-88696247D01*
X70614285Y-88696247D02*
X70614285Y-88934342D01*
X70614285Y-88934342D02*
X70566666Y-89029580D01*
X70566666Y-89029580D02*
X70519047Y-89077200D01*
X70519047Y-89077200D02*
X70423809Y-89124819D01*
X70423809Y-89124819D02*
X70138095Y-89124819D01*
X70138095Y-89124819D02*
X70042857Y-89077200D01*
X70042857Y-89077200D02*
X69995238Y-89029580D01*
%TO.C,D3*%
D12*
X120570000Y-86750000D02*
X120570000Y-88670000D01*
X120570000Y-94830000D02*
X120570000Y-92910000D01*
X121690000Y-89270000D02*
X119450000Y-89270000D01*
X121690000Y-89390000D02*
X119450000Y-89390000D01*
X121690000Y-89510000D02*
X119450000Y-89510000D01*
X119450000Y-88670000D02*
X121690000Y-88670000D01*
X121690000Y-92910000D01*
X119450000Y-92910000D01*
X119450000Y-88670000D01*
%TO.C,C3*%
X43142918Y-41615000D02*
X44392918Y-41615000D01*
X43767918Y-40990000D02*
X43767918Y-42240000D01*
D13*
X54599000Y-42291000D02*
G75*
G02*
X54599000Y-48089000I-4641180J-2899000D01*
G01*
D12*
X56330000Y-45190000D02*
G75*
G02*
X43590000Y-45190000I-6370000J0D01*
G01*
X43590000Y-45190000D02*
G75*
G02*
X56330000Y-45190000I6370000J0D01*
G01*
%TO.C,F1*%
X20440000Y-73620000D02*
X27440000Y-73620000D01*
X27440000Y-103720000D01*
X20440000Y-103720000D01*
X20440000Y-73620000D01*
%TO.C,R1*%
X98500000Y-63080000D02*
X98830000Y-63080000D01*
X98500000Y-69620000D02*
X98500000Y-63080000D01*
X98830000Y-69620000D02*
X98500000Y-69620000D01*
X100910000Y-69620000D02*
X101240000Y-69620000D01*
X101240000Y-63080000D02*
X100910000Y-63080000D01*
X101240000Y-69620000D02*
X101240000Y-63080000D01*
%TO.C,R5*%
X92830000Y-48170000D02*
X92830000Y-48940000D01*
X92830000Y-56250000D02*
X92830000Y-55480000D01*
X91460000Y-48940000D02*
X94200000Y-48940000D01*
X94200000Y-55480000D01*
X91460000Y-55480000D01*
X91460000Y-48940000D01*
%TO.C,C4*%
X42350000Y-53630000D02*
X52890000Y-53630000D01*
X42350000Y-58870000D02*
X42350000Y-53630000D01*
X52890000Y-53630000D02*
X52890000Y-58870000D01*
X52890000Y-58870000D02*
X42350000Y-58870000D01*
%TO.C,C1*%
X19370000Y-41040000D02*
X28110000Y-41040000D01*
X19370000Y-67780000D02*
X19370000Y-41040000D01*
X28110000Y-41040000D02*
X28110000Y-67780000D01*
X28110000Y-67780000D02*
X19370000Y-67780000D01*
%TO.C,C11*%
X79060354Y-27385000D02*
X80060354Y-27385000D01*
X79560354Y-26885000D02*
X79560354Y-27885000D01*
D13*
X88119000Y-28024000D02*
G75*
G02*
X88119000Y-32496000I-3579420J-2236000D01*
G01*
D12*
X89660000Y-30260000D02*
G75*
G02*
X79420000Y-30260000I-5120000J0D01*
G01*
X79420000Y-30260000D02*
G75*
G02*
X89660000Y-30260000I5120000J0D01*
G01*
%TO.C,C2*%
X36900000Y-30320000D02*
X50140000Y-30320000D01*
X36900000Y-34560000D02*
X36900000Y-30320000D01*
X50140000Y-30320000D02*
X50140000Y-34560000D01*
X50140000Y-34560000D02*
X36900000Y-34560000D01*
%TO.C,D2*%
X62286000Y-64669000D02*
X62286000Y-70511000D01*
X63429000Y-63526000D02*
G75*
G02*
X62286000Y-70511000I2921000J-4064000D01*
G01*
%TO.C,F4*%
X83810000Y-73620000D02*
X90810000Y-73620000D01*
X90810000Y-103720000D01*
X83810000Y-103720000D01*
X83810000Y-73620000D01*
%TO.C,C12*%
X112065000Y-30210509D02*
X112065000Y-31810509D01*
X112865000Y-31010509D02*
X111265000Y-31010509D01*
D13*
X111336000Y-45023000D02*
G75*
G02*
X103684000Y-45023000I-3826000J6123460D01*
G01*
D12*
X115630000Y-38900000D02*
G75*
G02*
X99390000Y-38900000I-8120000J0D01*
G01*
X99390000Y-38900000D02*
G75*
G02*
X115630000Y-38900000I8120000J0D01*
G01*
%TO.C,C8*%
X81450000Y-43920000D02*
X84690000Y-43920000D01*
X81450000Y-44068000D02*
X81450000Y-43920000D01*
X81450000Y-46160000D02*
X81450000Y-46012000D01*
X84690000Y-43920000D02*
X84690000Y-44068000D01*
X84690000Y-46012000D02*
X84690000Y-46160000D01*
X84690000Y-46160000D02*
X81450000Y-46160000D01*
%TO.C,R7*%
X53790000Y-26440000D02*
X54560000Y-26440000D01*
X61870000Y-26440000D02*
X61100000Y-26440000D01*
X54560000Y-25070000D02*
X61100000Y-25070000D01*
X61100000Y-27810000D01*
X54560000Y-27810000D01*
X54560000Y-25070000D01*
%TO.C,C5*%
X67050000Y-35900000D02*
X77590000Y-35900000D01*
X67050000Y-41140000D02*
X67050000Y-35900000D01*
X77590000Y-35900000D02*
X77590000Y-41140000D01*
X77590000Y-41140000D02*
X67050000Y-41140000D01*
%TO.C,C9*%
X90080000Y-60640000D02*
X95320000Y-60640000D01*
X90080000Y-71180000D02*
X90080000Y-60640000D01*
X95320000Y-60640000D02*
X95320000Y-71180000D01*
X95320000Y-71180000D02*
X90080000Y-71180000D01*
%TO.C,IC1*%
X29490000Y-25430000D02*
X39710000Y-25430000D01*
X29490000Y-26810000D02*
X39710000Y-26810000D01*
X29490000Y-30050000D02*
X29490000Y-25430000D01*
X32750000Y-25430000D02*
X32750000Y-26810000D01*
X36450000Y-25430000D02*
X36450000Y-26810000D01*
X39710000Y-25430000D02*
X39710000Y-30050000D01*
X39710000Y-30050000D02*
X29490000Y-30050000D01*
%TO.C,R6*%
X93020000Y-29640000D02*
X93350000Y-29640000D01*
X93020000Y-36180000D02*
X93020000Y-29640000D01*
X93350000Y-36180000D02*
X93020000Y-36180000D01*
X95430000Y-36180000D02*
X95760000Y-36180000D01*
X95760000Y-29640000D02*
X95430000Y-29640000D01*
X95760000Y-36180000D02*
X95760000Y-29640000D01*
%TO.C,D4*%
X125160000Y-86350000D02*
X125160000Y-88270000D01*
X125160000Y-94430000D02*
X125160000Y-92510000D01*
X126280000Y-88870000D02*
X124040000Y-88870000D01*
X126280000Y-88990000D02*
X124040000Y-88990000D01*
X126280000Y-89110000D02*
X124040000Y-89110000D01*
X124040000Y-88270000D02*
X126280000Y-88270000D01*
X126280000Y-92510000D01*
X124040000Y-92510000D01*
X124040000Y-88270000D01*
%TO.C,R4*%
X82620000Y-42500000D02*
X83390000Y-42500000D01*
X90700000Y-42500000D02*
X89930000Y-42500000D01*
X83390000Y-41130000D02*
X89930000Y-41130000D01*
X89930000Y-43870000D01*
X83390000Y-43870000D01*
X83390000Y-41130000D01*
%TO.C,C6*%
X80460000Y-35500000D02*
X91000000Y-35500000D01*
X80460000Y-40740000D02*
X80460000Y-35500000D01*
X91000000Y-35500000D02*
X91000000Y-40740000D01*
X91000000Y-40740000D02*
X80460000Y-40740000D01*
%TO.C,R3*%
X70150000Y-42500000D02*
X70920000Y-42500000D01*
X78230000Y-42500000D02*
X77460000Y-42500000D01*
X70920000Y-41130000D02*
X77460000Y-41130000D01*
X77460000Y-43870000D01*
X70920000Y-43870000D01*
X70920000Y-41130000D01*
%TO.C,C10*%
X71620000Y-60550000D02*
X76860000Y-60550000D01*
X71620000Y-71090000D02*
X71620000Y-60550000D01*
X76860000Y-60550000D02*
X76860000Y-71090000D01*
X76860000Y-71090000D02*
X71620000Y-71090000D01*
%TO.C,Q1*%
X66320000Y-23230000D02*
X76540000Y-23230000D01*
X66320000Y-24610000D02*
X76540000Y-24610000D01*
X66320000Y-27850000D02*
X66320000Y-23230000D01*
X69580000Y-23230000D02*
X69580000Y-24610000D01*
X73280000Y-23230000D02*
X73280000Y-24610000D01*
X76540000Y-23230000D02*
X76540000Y-27850000D01*
X76540000Y-27850000D02*
X66320000Y-27850000D01*
%TO.C,C7*%
X74050000Y-45470000D02*
X79290000Y-45470000D01*
X74050000Y-45807000D02*
X74050000Y-45470000D01*
X74050000Y-48210000D02*
X74050000Y-47873000D01*
X79290000Y-45470000D02*
X79290000Y-45807000D01*
X79290000Y-47873000D02*
X79290000Y-48210000D01*
X79290000Y-48210000D02*
X74050000Y-48210000D01*
%TO.C,D1*%
X41356000Y-62269000D02*
X41356000Y-68111000D01*
X42499000Y-61126000D02*
G75*
G02*
X41356000Y-68111000I2921000J-4064000D01*
G01*
%TO.C,R2*%
X68400000Y-46990000D02*
X68400000Y-47760000D01*
X68400000Y-55070000D02*
X68400000Y-54300000D01*
X67030000Y-47760000D02*
X69770000Y-47760000D01*
X69770000Y-54300000D01*
X67030000Y-54300000D01*
X67030000Y-47760000D01*
%TO.C,Q2*%
X102730000Y-24030000D02*
X112950000Y-24030000D01*
X102730000Y-25410000D02*
X112950000Y-25410000D01*
X102730000Y-28650000D02*
X102730000Y-24030000D01*
X105990000Y-24030000D02*
X105990000Y-25410000D01*
X109690000Y-24030000D02*
X109690000Y-25410000D01*
X112950000Y-24030000D02*
X112950000Y-28650000D01*
X112950000Y-28650000D02*
X102730000Y-28650000D01*
%TO.C,IC2*%
X81200000Y-49820000D02*
X81200000Y-67720000D01*
X81200000Y-67720000D02*
X86500000Y-67720000D01*
X82850000Y-49820000D02*
X81200000Y-49820000D01*
X86500000Y-49820000D02*
X84850000Y-49820000D01*
X86500000Y-67720000D02*
X86500000Y-49820000D01*
X84850000Y-49820000D02*
G75*
G02*
X82850000Y-49820000I-1000000J0D01*
G01*
%TO.C,C13*%
X113025000Y-50370509D02*
X113025000Y-51970509D01*
X113825000Y-51170509D02*
X112225000Y-51170509D01*
D13*
X112296000Y-65183000D02*
G75*
G02*
X104644000Y-65183000I-3826000J6123460D01*
G01*
D12*
X116590000Y-59060000D02*
G75*
G02*
X100350000Y-59060000I-8120000J0D01*
G01*
X100350000Y-59060000D02*
G75*
G02*
X116590000Y-59060000I8120000J0D01*
G01*
%TO.C,C16*%
X123745000Y-55365225D02*
X123745000Y-55865225D01*
X123995000Y-55615225D02*
X123495000Y-55615225D01*
D14*
X123393000Y-59968000D02*
G75*
G02*
X121147000Y-59968000I-1123000J1797270D01*
G01*
D12*
X124890000Y-58170000D02*
G75*
G02*
X119650000Y-58170000I-2620000J0D01*
G01*
X119650000Y-58170000D02*
G75*
G02*
X124890000Y-58170000I2620000J0D01*
G01*
%TO.C,F2*%
X49270000Y-73620000D02*
X56270000Y-73620000D01*
X56270000Y-103720000D01*
X49270000Y-103720000D01*
X49270000Y-73620000D01*
%TO.C,C15*%
X124145000Y-35605225D02*
X124145000Y-36105225D01*
X124395000Y-35855225D02*
X123895000Y-35855225D01*
D14*
X123793000Y-40208000D02*
G75*
G02*
X121547000Y-40208000I-1123000J1797270D01*
G01*
D12*
X125290000Y-38410000D02*
G75*
G02*
X120050000Y-38410000I-2620000J0D01*
G01*
X120050000Y-38410000D02*
G75*
G02*
X125290000Y-38410000I2620000J0D01*
G01*
%TO.C,C14*%
X124185000Y-24865225D02*
X124185000Y-25365225D01*
X124435000Y-25115225D02*
X123935000Y-25115225D01*
D14*
X123833000Y-29468000D02*
G75*
G02*
X121587000Y-29468000I-1123000J1797270D01*
G01*
D12*
X125330000Y-27670000D02*
G75*
G02*
X120090000Y-27670000I-2620000J0D01*
G01*
X120090000Y-27670000D02*
G75*
G02*
X125330000Y-27670000I2620000J0D01*
G01*
%TO.C,F3*%
X66400000Y-73620000D02*
X73400000Y-73620000D01*
X73400000Y-103720000D01*
X66400000Y-103720000D01*
X66400000Y-73620000D01*
%TD*%
M02*
