%TF.GenerationSoftware,KiCad,Pcbnew,10.0.2*%
%TF.CreationDate,2026-10-07T08:59:10+02:00*%
%TF.ProjectId,TR-808PSU_Rev0.1,54522d38-3038-4505-9355-5f526576302e,rev?*%
%TF.SameCoordinates,Original*%
%TF.FileFunction,Legend,Top*%
%TF.FilePolarity,Positive*%
%FSLAX46Y46*%
G04 Gerber Fmt 4.6, Leading zero omitted, Abs format (unit mm)*
G04 Created by KiCad (PCBNEW 10.0.2) date 2026-10-07 08:59:10*
%MOMM*%
%LPD*%
G01*
G04 APERTURE LIST*
%ADD10C,0.186667*%
%ADD11C,0.150000*%
%ADD12C,0.120000*%
%ADD13C,1.400000*%
%ADD14C,0.600000*%
G04 APERTURE END LIST*
D10*
X61350000Y-117437959D02*
X62150000Y-117437959D01*
X61750000Y-118837959D02*
X61750000Y-117437959D01*
X63416667Y-118837959D02*
X62950000Y-118171293D01*
X62616667Y-118837959D02*
X62616667Y-117437959D01*
X62616667Y-117437959D02*
X63150000Y-117437959D01*
X63150000Y-117437959D02*
X63283334Y-117504626D01*
X63283334Y-117504626D02*
X63350000Y-117571293D01*
X63350000Y-117571293D02*
X63416667Y-117704626D01*
X63416667Y-117704626D02*
X63416667Y-117904626D01*
X63416667Y-117904626D02*
X63350000Y-118037959D01*
X63350000Y-118037959D02*
X63283334Y-118104626D01*
X63283334Y-118104626D02*
X63150000Y-118171293D01*
X63150000Y-118171293D02*
X62616667Y-118171293D01*
X64016667Y-118304626D02*
X65083334Y-118304626D01*
X65950000Y-118037959D02*
X65816667Y-117971293D01*
X65816667Y-117971293D02*
X65750000Y-117904626D01*
X65750000Y-117904626D02*
X65683333Y-117771293D01*
X65683333Y-117771293D02*
X65683333Y-117704626D01*
X65683333Y-117704626D02*
X65750000Y-117571293D01*
X65750000Y-117571293D02*
X65816667Y-117504626D01*
X65816667Y-117504626D02*
X65950000Y-117437959D01*
X65950000Y-117437959D02*
X66216667Y-117437959D01*
X66216667Y-117437959D02*
X66350000Y-117504626D01*
X66350000Y-117504626D02*
X66416667Y-117571293D01*
X66416667Y-117571293D02*
X66483333Y-117704626D01*
X66483333Y-117704626D02*
X66483333Y-117771293D01*
X66483333Y-117771293D02*
X66416667Y-117904626D01*
X66416667Y-117904626D02*
X66350000Y-117971293D01*
X66350000Y-117971293D02*
X66216667Y-118037959D01*
X66216667Y-118037959D02*
X65950000Y-118037959D01*
X65950000Y-118037959D02*
X65816667Y-118104626D01*
X65816667Y-118104626D02*
X65750000Y-118171293D01*
X65750000Y-118171293D02*
X65683333Y-118304626D01*
X65683333Y-118304626D02*
X65683333Y-118571293D01*
X65683333Y-118571293D02*
X65750000Y-118704626D01*
X65750000Y-118704626D02*
X65816667Y-118771293D01*
X65816667Y-118771293D02*
X65950000Y-118837959D01*
X65950000Y-118837959D02*
X66216667Y-118837959D01*
X66216667Y-118837959D02*
X66350000Y-118771293D01*
X66350000Y-118771293D02*
X66416667Y-118704626D01*
X66416667Y-118704626D02*
X66483333Y-118571293D01*
X66483333Y-118571293D02*
X66483333Y-118304626D01*
X66483333Y-118304626D02*
X66416667Y-118171293D01*
X66416667Y-118171293D02*
X66350000Y-118104626D01*
X66350000Y-118104626D02*
X66216667Y-118037959D01*
X67350000Y-117437959D02*
X67483333Y-117437959D01*
X67483333Y-117437959D02*
X67616666Y-117504626D01*
X67616666Y-117504626D02*
X67683333Y-117571293D01*
X67683333Y-117571293D02*
X67750000Y-117704626D01*
X67750000Y-117704626D02*
X67816666Y-117971293D01*
X67816666Y-117971293D02*
X67816666Y-118304626D01*
X67816666Y-118304626D02*
X67750000Y-118571293D01*
X67750000Y-118571293D02*
X67683333Y-118704626D01*
X67683333Y-118704626D02*
X67616666Y-118771293D01*
X67616666Y-118771293D02*
X67483333Y-118837959D01*
X67483333Y-118837959D02*
X67350000Y-118837959D01*
X67350000Y-118837959D02*
X67216666Y-118771293D01*
X67216666Y-118771293D02*
X67150000Y-118704626D01*
X67150000Y-118704626D02*
X67083333Y-118571293D01*
X67083333Y-118571293D02*
X67016666Y-118304626D01*
X67016666Y-118304626D02*
X67016666Y-117971293D01*
X67016666Y-117971293D02*
X67083333Y-117704626D01*
X67083333Y-117704626D02*
X67150000Y-117571293D01*
X67150000Y-117571293D02*
X67216666Y-117504626D01*
X67216666Y-117504626D02*
X67350000Y-117437959D01*
X68616666Y-118037959D02*
X68483333Y-117971293D01*
X68483333Y-117971293D02*
X68416666Y-117904626D01*
X68416666Y-117904626D02*
X68349999Y-117771293D01*
X68349999Y-117771293D02*
X68349999Y-117704626D01*
X68349999Y-117704626D02*
X68416666Y-117571293D01*
X68416666Y-117571293D02*
X68483333Y-117504626D01*
X68483333Y-117504626D02*
X68616666Y-117437959D01*
X68616666Y-117437959D02*
X68883333Y-117437959D01*
X68883333Y-117437959D02*
X69016666Y-117504626D01*
X69016666Y-117504626D02*
X69083333Y-117571293D01*
X69083333Y-117571293D02*
X69149999Y-117704626D01*
X69149999Y-117704626D02*
X69149999Y-117771293D01*
X69149999Y-117771293D02*
X69083333Y-117904626D01*
X69083333Y-117904626D02*
X69016666Y-117971293D01*
X69016666Y-117971293D02*
X68883333Y-118037959D01*
X68883333Y-118037959D02*
X68616666Y-118037959D01*
X68616666Y-118037959D02*
X68483333Y-118104626D01*
X68483333Y-118104626D02*
X68416666Y-118171293D01*
X68416666Y-118171293D02*
X68349999Y-118304626D01*
X68349999Y-118304626D02*
X68349999Y-118571293D01*
X68349999Y-118571293D02*
X68416666Y-118704626D01*
X68416666Y-118704626D02*
X68483333Y-118771293D01*
X68483333Y-118771293D02*
X68616666Y-118837959D01*
X68616666Y-118837959D02*
X68883333Y-118837959D01*
X68883333Y-118837959D02*
X69016666Y-118771293D01*
X69016666Y-118771293D02*
X69083333Y-118704626D01*
X69083333Y-118704626D02*
X69149999Y-118571293D01*
X69149999Y-118571293D02*
X69149999Y-118304626D01*
X69149999Y-118304626D02*
X69083333Y-118171293D01*
X69083333Y-118171293D02*
X69016666Y-118104626D01*
X69016666Y-118104626D02*
X68883333Y-118037959D01*
X69749999Y-118837959D02*
X69749999Y-117437959D01*
X69749999Y-117437959D02*
X70283332Y-117437959D01*
X70283332Y-117437959D02*
X70416666Y-117504626D01*
X70416666Y-117504626D02*
X70483332Y-117571293D01*
X70483332Y-117571293D02*
X70549999Y-117704626D01*
X70549999Y-117704626D02*
X70549999Y-117904626D01*
X70549999Y-117904626D02*
X70483332Y-118037959D01*
X70483332Y-118037959D02*
X70416666Y-118104626D01*
X70416666Y-118104626D02*
X70283332Y-118171293D01*
X70283332Y-118171293D02*
X69749999Y-118171293D01*
X71083332Y-118771293D02*
X71283332Y-118837959D01*
X71283332Y-118837959D02*
X71616666Y-118837959D01*
X71616666Y-118837959D02*
X71749999Y-118771293D01*
X71749999Y-118771293D02*
X71816666Y-118704626D01*
X71816666Y-118704626D02*
X71883332Y-118571293D01*
X71883332Y-118571293D02*
X71883332Y-118437959D01*
X71883332Y-118437959D02*
X71816666Y-118304626D01*
X71816666Y-118304626D02*
X71749999Y-118237959D01*
X71749999Y-118237959D02*
X71616666Y-118171293D01*
X71616666Y-118171293D02*
X71349999Y-118104626D01*
X71349999Y-118104626D02*
X71216666Y-118037959D01*
X71216666Y-118037959D02*
X71149999Y-117971293D01*
X71149999Y-117971293D02*
X71083332Y-117837959D01*
X71083332Y-117837959D02*
X71083332Y-117704626D01*
X71083332Y-117704626D02*
X71149999Y-117571293D01*
X71149999Y-117571293D02*
X71216666Y-117504626D01*
X71216666Y-117504626D02*
X71349999Y-117437959D01*
X71349999Y-117437959D02*
X71683332Y-117437959D01*
X71683332Y-117437959D02*
X71883332Y-117504626D01*
X72483332Y-117437959D02*
X72483332Y-118571293D01*
X72483332Y-118571293D02*
X72549999Y-118704626D01*
X72549999Y-118704626D02*
X72616665Y-118771293D01*
X72616665Y-118771293D02*
X72749999Y-118837959D01*
X72749999Y-118837959D02*
X73016665Y-118837959D01*
X73016665Y-118837959D02*
X73149999Y-118771293D01*
X73149999Y-118771293D02*
X73216665Y-118704626D01*
X73216665Y-118704626D02*
X73283332Y-118571293D01*
X73283332Y-118571293D02*
X73283332Y-117437959D01*
X75816666Y-118837959D02*
X75349999Y-118171293D01*
X75016666Y-118837959D02*
X75016666Y-117437959D01*
X75016666Y-117437959D02*
X75549999Y-117437959D01*
X75549999Y-117437959D02*
X75683333Y-117504626D01*
X75683333Y-117504626D02*
X75749999Y-117571293D01*
X75749999Y-117571293D02*
X75816666Y-117704626D01*
X75816666Y-117704626D02*
X75816666Y-117904626D01*
X75816666Y-117904626D02*
X75749999Y-118037959D01*
X75749999Y-118037959D02*
X75683333Y-118104626D01*
X75683333Y-118104626D02*
X75549999Y-118171293D01*
X75549999Y-118171293D02*
X75016666Y-118171293D01*
X76949999Y-118771293D02*
X76816666Y-118837959D01*
X76816666Y-118837959D02*
X76549999Y-118837959D01*
X76549999Y-118837959D02*
X76416666Y-118771293D01*
X76416666Y-118771293D02*
X76349999Y-118637959D01*
X76349999Y-118637959D02*
X76349999Y-118104626D01*
X76349999Y-118104626D02*
X76416666Y-117971293D01*
X76416666Y-117971293D02*
X76549999Y-117904626D01*
X76549999Y-117904626D02*
X76816666Y-117904626D01*
X76816666Y-117904626D02*
X76949999Y-117971293D01*
X76949999Y-117971293D02*
X77016666Y-118104626D01*
X77016666Y-118104626D02*
X77016666Y-118237959D01*
X77016666Y-118237959D02*
X76349999Y-118371293D01*
X77483333Y-117904626D02*
X77816666Y-118837959D01*
X77816666Y-118837959D02*
X78149999Y-117904626D01*
X78950000Y-117437959D02*
X79083333Y-117437959D01*
X79083333Y-117437959D02*
X79216666Y-117504626D01*
X79216666Y-117504626D02*
X79283333Y-117571293D01*
X79283333Y-117571293D02*
X79350000Y-117704626D01*
X79350000Y-117704626D02*
X79416666Y-117971293D01*
X79416666Y-117971293D02*
X79416666Y-118304626D01*
X79416666Y-118304626D02*
X79350000Y-118571293D01*
X79350000Y-118571293D02*
X79283333Y-118704626D01*
X79283333Y-118704626D02*
X79216666Y-118771293D01*
X79216666Y-118771293D02*
X79083333Y-118837959D01*
X79083333Y-118837959D02*
X78950000Y-118837959D01*
X78950000Y-118837959D02*
X78816666Y-118771293D01*
X78816666Y-118771293D02*
X78750000Y-118704626D01*
X78750000Y-118704626D02*
X78683333Y-118571293D01*
X78683333Y-118571293D02*
X78616666Y-118304626D01*
X78616666Y-118304626D02*
X78616666Y-117971293D01*
X78616666Y-117971293D02*
X78683333Y-117704626D01*
X78683333Y-117704626D02*
X78750000Y-117571293D01*
X78750000Y-117571293D02*
X78816666Y-117504626D01*
X78816666Y-117504626D02*
X78950000Y-117437959D01*
X80016666Y-118704626D02*
X80083333Y-118771293D01*
X80083333Y-118771293D02*
X80016666Y-118837959D01*
X80016666Y-118837959D02*
X79949999Y-118771293D01*
X79949999Y-118771293D02*
X80016666Y-118704626D01*
X80016666Y-118704626D02*
X80016666Y-118837959D01*
X81416666Y-118837959D02*
X80616666Y-118837959D01*
X81016666Y-118837959D02*
X81016666Y-117437959D01*
X81016666Y-117437959D02*
X80883333Y-117637959D01*
X80883333Y-117637959D02*
X80750000Y-117771293D01*
X80750000Y-117771293D02*
X80616666Y-117837959D01*
D11*
X130705714Y-26004819D02*
X130705714Y-25004819D01*
X130705714Y-25004819D02*
X131086666Y-25004819D01*
X131086666Y-25004819D02*
X131181904Y-25052438D01*
X131181904Y-25052438D02*
X131229523Y-25100057D01*
X131229523Y-25100057D02*
X131277142Y-25195295D01*
X131277142Y-25195295D02*
X131277142Y-25338152D01*
X131277142Y-25338152D02*
X131229523Y-25433390D01*
X131229523Y-25433390D02*
X131181904Y-25481009D01*
X131181904Y-25481009D02*
X131086666Y-25528628D01*
X131086666Y-25528628D02*
X130705714Y-25528628D01*
X131658095Y-25100057D02*
X131705714Y-25052438D01*
X131705714Y-25052438D02*
X131800952Y-25004819D01*
X131800952Y-25004819D02*
X132039047Y-25004819D01*
X132039047Y-25004819D02*
X132134285Y-25052438D01*
X132134285Y-25052438D02*
X132181904Y-25100057D01*
X132181904Y-25100057D02*
X132229523Y-25195295D01*
X132229523Y-25195295D02*
X132229523Y-25290533D01*
X132229523Y-25290533D02*
X132181904Y-25433390D01*
X132181904Y-25433390D02*
X131610476Y-26004819D01*
X131610476Y-26004819D02*
X132229523Y-26004819D01*
X132610476Y-25100057D02*
X132658095Y-25052438D01*
X132658095Y-25052438D02*
X132753333Y-25004819D01*
X132753333Y-25004819D02*
X132991428Y-25004819D01*
X132991428Y-25004819D02*
X133086666Y-25052438D01*
X133086666Y-25052438D02*
X133134285Y-25100057D01*
X133134285Y-25100057D02*
X133181904Y-25195295D01*
X133181904Y-25195295D02*
X133181904Y-25290533D01*
X133181904Y-25290533D02*
X133134285Y-25433390D01*
X133134285Y-25433390D02*
X132562857Y-26004819D01*
X132562857Y-26004819D02*
X133181904Y-26004819D01*
X119831905Y-98524819D02*
X119831905Y-97524819D01*
X119831905Y-97524819D02*
X120070000Y-97524819D01*
X120070000Y-97524819D02*
X120212857Y-97572438D01*
X120212857Y-97572438D02*
X120308095Y-97667676D01*
X120308095Y-97667676D02*
X120355714Y-97762914D01*
X120355714Y-97762914D02*
X120403333Y-97953390D01*
X120403333Y-97953390D02*
X120403333Y-98096247D01*
X120403333Y-98096247D02*
X120355714Y-98286723D01*
X120355714Y-98286723D02*
X120308095Y-98381961D01*
X120308095Y-98381961D02*
X120212857Y-98477200D01*
X120212857Y-98477200D02*
X120070000Y-98524819D01*
X120070000Y-98524819D02*
X119831905Y-98524819D01*
X120736667Y-97524819D02*
X121355714Y-97524819D01*
X121355714Y-97524819D02*
X121022381Y-97905771D01*
X121022381Y-97905771D02*
X121165238Y-97905771D01*
X121165238Y-97905771D02*
X121260476Y-97953390D01*
X121260476Y-97953390D02*
X121308095Y-98001009D01*
X121308095Y-98001009D02*
X121355714Y-98096247D01*
X121355714Y-98096247D02*
X121355714Y-98334342D01*
X121355714Y-98334342D02*
X121308095Y-98429580D01*
X121308095Y-98429580D02*
X121260476Y-98477200D01*
X121260476Y-98477200D02*
X121165238Y-98524819D01*
X121165238Y-98524819D02*
X120879524Y-98524819D01*
X120879524Y-98524819D02*
X120784286Y-98477200D01*
X120784286Y-98477200D02*
X120736667Y-98429580D01*
X122108095Y-86164819D02*
X122108095Y-85164819D01*
X122679523Y-86164819D02*
X122250952Y-85593390D01*
X122679523Y-85164819D02*
X122108095Y-85736247D01*
X49793333Y-53199580D02*
X49745714Y-53247200D01*
X49745714Y-53247200D02*
X49602857Y-53294819D01*
X49602857Y-53294819D02*
X49507619Y-53294819D01*
X49507619Y-53294819D02*
X49364762Y-53247200D01*
X49364762Y-53247200D02*
X49269524Y-53151961D01*
X49269524Y-53151961D02*
X49221905Y-53056723D01*
X49221905Y-53056723D02*
X49174286Y-52866247D01*
X49174286Y-52866247D02*
X49174286Y-52723390D01*
X49174286Y-52723390D02*
X49221905Y-52532914D01*
X49221905Y-52532914D02*
X49269524Y-52437676D01*
X49269524Y-52437676D02*
X49364762Y-52342438D01*
X49364762Y-52342438D02*
X49507619Y-52294819D01*
X49507619Y-52294819D02*
X49602857Y-52294819D01*
X49602857Y-52294819D02*
X49745714Y-52342438D01*
X49745714Y-52342438D02*
X49793333Y-52390057D01*
X50126667Y-52294819D02*
X50745714Y-52294819D01*
X50745714Y-52294819D02*
X50412381Y-52675771D01*
X50412381Y-52675771D02*
X50555238Y-52675771D01*
X50555238Y-52675771D02*
X50650476Y-52723390D01*
X50650476Y-52723390D02*
X50698095Y-52771009D01*
X50698095Y-52771009D02*
X50745714Y-52866247D01*
X50745714Y-52866247D02*
X50745714Y-53104342D01*
X50745714Y-53104342D02*
X50698095Y-53199580D01*
X50698095Y-53199580D02*
X50650476Y-53247200D01*
X50650476Y-53247200D02*
X50555238Y-53294819D01*
X50555238Y-53294819D02*
X50269524Y-53294819D01*
X50269524Y-53294819D02*
X50174286Y-53247200D01*
X50174286Y-53247200D02*
X50126667Y-53199580D01*
X23606666Y-88601009D02*
X23273333Y-88601009D01*
X23273333Y-89124819D02*
X23273333Y-88124819D01*
X23273333Y-88124819D02*
X23749523Y-88124819D01*
X24654285Y-89124819D02*
X24082857Y-89124819D01*
X24368571Y-89124819D02*
X24368571Y-88124819D01*
X24368571Y-88124819D02*
X24273333Y-88267676D01*
X24273333Y-88267676D02*
X24178095Y-88362914D01*
X24178095Y-88362914D02*
X24082857Y-88410533D01*
X130705714Y-99234819D02*
X130705714Y-98234819D01*
X130705714Y-98234819D02*
X131086666Y-98234819D01*
X131086666Y-98234819D02*
X131181904Y-98282438D01*
X131181904Y-98282438D02*
X131229523Y-98330057D01*
X131229523Y-98330057D02*
X131277142Y-98425295D01*
X131277142Y-98425295D02*
X131277142Y-98568152D01*
X131277142Y-98568152D02*
X131229523Y-98663390D01*
X131229523Y-98663390D02*
X131181904Y-98711009D01*
X131181904Y-98711009D02*
X131086666Y-98758628D01*
X131086666Y-98758628D02*
X130705714Y-98758628D01*
X132229523Y-99234819D02*
X131658095Y-99234819D01*
X131943809Y-99234819D02*
X131943809Y-98234819D01*
X131943809Y-98234819D02*
X131848571Y-98377676D01*
X131848571Y-98377676D02*
X131753333Y-98472914D01*
X131753333Y-98472914D02*
X131658095Y-98520533D01*
X133134285Y-98234819D02*
X132658095Y-98234819D01*
X132658095Y-98234819D02*
X132610476Y-98711009D01*
X132610476Y-98711009D02*
X132658095Y-98663390D01*
X132658095Y-98663390D02*
X132753333Y-98615771D01*
X132753333Y-98615771D02*
X132991428Y-98615771D01*
X132991428Y-98615771D02*
X133086666Y-98663390D01*
X133086666Y-98663390D02*
X133134285Y-98711009D01*
X133134285Y-98711009D02*
X133181904Y-98806247D01*
X133181904Y-98806247D02*
X133181904Y-99044342D01*
X133181904Y-99044342D02*
X133134285Y-99139580D01*
X133134285Y-99139580D02*
X133086666Y-99187200D01*
X133086666Y-99187200D02*
X132991428Y-99234819D01*
X132991428Y-99234819D02*
X132753333Y-99234819D01*
X132753333Y-99234819D02*
X132658095Y-99187200D01*
X132658095Y-99187200D02*
X132610476Y-99139580D01*
X103323333Y-73314819D02*
X102990000Y-72838628D01*
X102751905Y-73314819D02*
X102751905Y-72314819D01*
X102751905Y-72314819D02*
X103132857Y-72314819D01*
X103132857Y-72314819D02*
X103228095Y-72362438D01*
X103228095Y-72362438D02*
X103275714Y-72410057D01*
X103275714Y-72410057D02*
X103323333Y-72505295D01*
X103323333Y-72505295D02*
X103323333Y-72648152D01*
X103323333Y-72648152D02*
X103275714Y-72743390D01*
X103275714Y-72743390D02*
X103228095Y-72791009D01*
X103228095Y-72791009D02*
X103132857Y-72838628D01*
X103132857Y-72838628D02*
X102751905Y-72838628D01*
X104275714Y-73314819D02*
X103704286Y-73314819D01*
X103990000Y-73314819D02*
X103990000Y-72314819D01*
X103990000Y-72314819D02*
X103894762Y-72457676D01*
X103894762Y-72457676D02*
X103799524Y-72552914D01*
X103799524Y-72552914D02*
X103704286Y-72600533D01*
X97083333Y-61244819D02*
X96750000Y-60768628D01*
X96511905Y-61244819D02*
X96511905Y-60244819D01*
X96511905Y-60244819D02*
X96892857Y-60244819D01*
X96892857Y-60244819D02*
X96988095Y-60292438D01*
X96988095Y-60292438D02*
X97035714Y-60340057D01*
X97035714Y-60340057D02*
X97083333Y-60435295D01*
X97083333Y-60435295D02*
X97083333Y-60578152D01*
X97083333Y-60578152D02*
X97035714Y-60673390D01*
X97035714Y-60673390D02*
X96988095Y-60721009D01*
X96988095Y-60721009D02*
X96892857Y-60768628D01*
X96892857Y-60768628D02*
X96511905Y-60768628D01*
X97988095Y-60244819D02*
X97511905Y-60244819D01*
X97511905Y-60244819D02*
X97464286Y-60721009D01*
X97464286Y-60721009D02*
X97511905Y-60673390D01*
X97511905Y-60673390D02*
X97607143Y-60625771D01*
X97607143Y-60625771D02*
X97845238Y-60625771D01*
X97845238Y-60625771D02*
X97940476Y-60673390D01*
X97940476Y-60673390D02*
X97988095Y-60721009D01*
X97988095Y-60721009D02*
X98035714Y-60816247D01*
X98035714Y-60816247D02*
X98035714Y-61054342D01*
X98035714Y-61054342D02*
X97988095Y-61149580D01*
X97988095Y-61149580D02*
X97940476Y-61197200D01*
X97940476Y-61197200D02*
X97845238Y-61244819D01*
X97845238Y-61244819D02*
X97607143Y-61244819D01*
X97607143Y-61244819D02*
X97511905Y-61197200D01*
X97511905Y-61197200D02*
X97464286Y-61149580D01*
X130705714Y-35474819D02*
X130705714Y-34474819D01*
X130705714Y-34474819D02*
X131086666Y-34474819D01*
X131086666Y-34474819D02*
X131181904Y-34522438D01*
X131181904Y-34522438D02*
X131229523Y-34570057D01*
X131229523Y-34570057D02*
X131277142Y-34665295D01*
X131277142Y-34665295D02*
X131277142Y-34808152D01*
X131277142Y-34808152D02*
X131229523Y-34903390D01*
X131229523Y-34903390D02*
X131181904Y-34951009D01*
X131181904Y-34951009D02*
X131086666Y-34998628D01*
X131086666Y-34998628D02*
X130705714Y-34998628D01*
X131658095Y-34570057D02*
X131705714Y-34522438D01*
X131705714Y-34522438D02*
X131800952Y-34474819D01*
X131800952Y-34474819D02*
X132039047Y-34474819D01*
X132039047Y-34474819D02*
X132134285Y-34522438D01*
X132134285Y-34522438D02*
X132181904Y-34570057D01*
X132181904Y-34570057D02*
X132229523Y-34665295D01*
X132229523Y-34665295D02*
X132229523Y-34760533D01*
X132229523Y-34760533D02*
X132181904Y-34903390D01*
X132181904Y-34903390D02*
X131610476Y-35474819D01*
X131610476Y-35474819D02*
X132229523Y-35474819D01*
X133181904Y-35474819D02*
X132610476Y-35474819D01*
X132896190Y-35474819D02*
X132896190Y-34474819D01*
X132896190Y-34474819D02*
X132800952Y-34617676D01*
X132800952Y-34617676D02*
X132705714Y-34712914D01*
X132705714Y-34712914D02*
X132610476Y-34760533D01*
X130705714Y-69994819D02*
X130705714Y-68994819D01*
X130705714Y-68994819D02*
X131086666Y-68994819D01*
X131086666Y-68994819D02*
X131181904Y-69042438D01*
X131181904Y-69042438D02*
X131229523Y-69090057D01*
X131229523Y-69090057D02*
X131277142Y-69185295D01*
X131277142Y-69185295D02*
X131277142Y-69328152D01*
X131277142Y-69328152D02*
X131229523Y-69423390D01*
X131229523Y-69423390D02*
X131181904Y-69471009D01*
X131181904Y-69471009D02*
X131086666Y-69518628D01*
X131086666Y-69518628D02*
X130705714Y-69518628D01*
X132229523Y-69994819D02*
X131658095Y-69994819D01*
X131943809Y-69994819D02*
X131943809Y-68994819D01*
X131943809Y-68994819D02*
X131848571Y-69137676D01*
X131848571Y-69137676D02*
X131753333Y-69232914D01*
X131753333Y-69232914D02*
X131658095Y-69280533D01*
X132562857Y-68994819D02*
X133229523Y-68994819D01*
X133229523Y-68994819D02*
X132800952Y-69994819D01*
X40423333Y-56609580D02*
X40375714Y-56657200D01*
X40375714Y-56657200D02*
X40232857Y-56704819D01*
X40232857Y-56704819D02*
X40137619Y-56704819D01*
X40137619Y-56704819D02*
X39994762Y-56657200D01*
X39994762Y-56657200D02*
X39899524Y-56561961D01*
X39899524Y-56561961D02*
X39851905Y-56466723D01*
X39851905Y-56466723D02*
X39804286Y-56276247D01*
X39804286Y-56276247D02*
X39804286Y-56133390D01*
X39804286Y-56133390D02*
X39851905Y-55942914D01*
X39851905Y-55942914D02*
X39899524Y-55847676D01*
X39899524Y-55847676D02*
X39994762Y-55752438D01*
X39994762Y-55752438D02*
X40137619Y-55704819D01*
X40137619Y-55704819D02*
X40232857Y-55704819D01*
X40232857Y-55704819D02*
X40375714Y-55752438D01*
X40375714Y-55752438D02*
X40423333Y-55800057D01*
X41280476Y-56038152D02*
X41280476Y-56704819D01*
X41042381Y-55657200D02*
X40804286Y-56371485D01*
X40804286Y-56371485D02*
X41423333Y-56371485D01*
X23573333Y-40119580D02*
X23525714Y-40167200D01*
X23525714Y-40167200D02*
X23382857Y-40214819D01*
X23382857Y-40214819D02*
X23287619Y-40214819D01*
X23287619Y-40214819D02*
X23144762Y-40167200D01*
X23144762Y-40167200D02*
X23049524Y-40071961D01*
X23049524Y-40071961D02*
X23001905Y-39976723D01*
X23001905Y-39976723D02*
X22954286Y-39786247D01*
X22954286Y-39786247D02*
X22954286Y-39643390D01*
X22954286Y-39643390D02*
X23001905Y-39452914D01*
X23001905Y-39452914D02*
X23049524Y-39357676D01*
X23049524Y-39357676D02*
X23144762Y-39262438D01*
X23144762Y-39262438D02*
X23287619Y-39214819D01*
X23287619Y-39214819D02*
X23382857Y-39214819D01*
X23382857Y-39214819D02*
X23525714Y-39262438D01*
X23525714Y-39262438D02*
X23573333Y-39310057D01*
X24525714Y-40214819D02*
X23954286Y-40214819D01*
X24240000Y-40214819D02*
X24240000Y-39214819D01*
X24240000Y-39214819D02*
X24144762Y-39357676D01*
X24144762Y-39357676D02*
X24049524Y-39452914D01*
X24049524Y-39452914D02*
X23954286Y-39500533D01*
X83897142Y-24219580D02*
X83849523Y-24267200D01*
X83849523Y-24267200D02*
X83706666Y-24314819D01*
X83706666Y-24314819D02*
X83611428Y-24314819D01*
X83611428Y-24314819D02*
X83468571Y-24267200D01*
X83468571Y-24267200D02*
X83373333Y-24171961D01*
X83373333Y-24171961D02*
X83325714Y-24076723D01*
X83325714Y-24076723D02*
X83278095Y-23886247D01*
X83278095Y-23886247D02*
X83278095Y-23743390D01*
X83278095Y-23743390D02*
X83325714Y-23552914D01*
X83325714Y-23552914D02*
X83373333Y-23457676D01*
X83373333Y-23457676D02*
X83468571Y-23362438D01*
X83468571Y-23362438D02*
X83611428Y-23314819D01*
X83611428Y-23314819D02*
X83706666Y-23314819D01*
X83706666Y-23314819D02*
X83849523Y-23362438D01*
X83849523Y-23362438D02*
X83897142Y-23410057D01*
X84849523Y-24314819D02*
X84278095Y-24314819D01*
X84563809Y-24314819D02*
X84563809Y-23314819D01*
X84563809Y-23314819D02*
X84468571Y-23457676D01*
X84468571Y-23457676D02*
X84373333Y-23552914D01*
X84373333Y-23552914D02*
X84278095Y-23600533D01*
X85801904Y-24314819D02*
X85230476Y-24314819D01*
X85516190Y-24314819D02*
X85516190Y-23314819D01*
X85516190Y-23314819D02*
X85420952Y-23457676D01*
X85420952Y-23457676D02*
X85325714Y-23552914D01*
X85325714Y-23552914D02*
X85230476Y-23600533D01*
X55855714Y-114684819D02*
X55855714Y-113684819D01*
X55855714Y-113684819D02*
X56236666Y-113684819D01*
X56236666Y-113684819D02*
X56331904Y-113732438D01*
X56331904Y-113732438D02*
X56379523Y-113780057D01*
X56379523Y-113780057D02*
X56427142Y-113875295D01*
X56427142Y-113875295D02*
X56427142Y-114018152D01*
X56427142Y-114018152D02*
X56379523Y-114113390D01*
X56379523Y-114113390D02*
X56331904Y-114161009D01*
X56331904Y-114161009D02*
X56236666Y-114208628D01*
X56236666Y-114208628D02*
X55855714Y-114208628D01*
X57379523Y-114684819D02*
X56808095Y-114684819D01*
X57093809Y-114684819D02*
X57093809Y-113684819D01*
X57093809Y-113684819D02*
X56998571Y-113827676D01*
X56998571Y-113827676D02*
X56903333Y-113922914D01*
X56903333Y-113922914D02*
X56808095Y-113970533D01*
X57760476Y-113780057D02*
X57808095Y-113732438D01*
X57808095Y-113732438D02*
X57903333Y-113684819D01*
X57903333Y-113684819D02*
X58141428Y-113684819D01*
X58141428Y-113684819D02*
X58236666Y-113732438D01*
X58236666Y-113732438D02*
X58284285Y-113780057D01*
X58284285Y-113780057D02*
X58331904Y-113875295D01*
X58331904Y-113875295D02*
X58331904Y-113970533D01*
X58331904Y-113970533D02*
X58284285Y-114113390D01*
X58284285Y-114113390D02*
X57712857Y-114684819D01*
X57712857Y-114684819D02*
X58331904Y-114684819D01*
X51723333Y-36199580D02*
X51675714Y-36247200D01*
X51675714Y-36247200D02*
X51532857Y-36294819D01*
X51532857Y-36294819D02*
X51437619Y-36294819D01*
X51437619Y-36294819D02*
X51294762Y-36247200D01*
X51294762Y-36247200D02*
X51199524Y-36151961D01*
X51199524Y-36151961D02*
X51151905Y-36056723D01*
X51151905Y-36056723D02*
X51104286Y-35866247D01*
X51104286Y-35866247D02*
X51104286Y-35723390D01*
X51104286Y-35723390D02*
X51151905Y-35532914D01*
X51151905Y-35532914D02*
X51199524Y-35437676D01*
X51199524Y-35437676D02*
X51294762Y-35342438D01*
X51294762Y-35342438D02*
X51437619Y-35294819D01*
X51437619Y-35294819D02*
X51532857Y-35294819D01*
X51532857Y-35294819D02*
X51675714Y-35342438D01*
X51675714Y-35342438D02*
X51723333Y-35390057D01*
X52104286Y-35390057D02*
X52151905Y-35342438D01*
X52151905Y-35342438D02*
X52247143Y-35294819D01*
X52247143Y-35294819D02*
X52485238Y-35294819D01*
X52485238Y-35294819D02*
X52580476Y-35342438D01*
X52580476Y-35342438D02*
X52628095Y-35390057D01*
X52628095Y-35390057D02*
X52675714Y-35485295D01*
X52675714Y-35485295D02*
X52675714Y-35580533D01*
X52675714Y-35580533D02*
X52628095Y-35723390D01*
X52628095Y-35723390D02*
X52056667Y-36294819D01*
X52056667Y-36294819D02*
X52675714Y-36294819D01*
X59801905Y-68049819D02*
X59801905Y-67049819D01*
X59801905Y-67049819D02*
X60040000Y-67049819D01*
X60040000Y-67049819D02*
X60182857Y-67097438D01*
X60182857Y-67097438D02*
X60278095Y-67192676D01*
X60278095Y-67192676D02*
X60325714Y-67287914D01*
X60325714Y-67287914D02*
X60373333Y-67478390D01*
X60373333Y-67478390D02*
X60373333Y-67621247D01*
X60373333Y-67621247D02*
X60325714Y-67811723D01*
X60325714Y-67811723D02*
X60278095Y-67906961D01*
X60278095Y-67906961D02*
X60182857Y-68002200D01*
X60182857Y-68002200D02*
X60040000Y-68049819D01*
X60040000Y-68049819D02*
X59801905Y-68049819D01*
X60754286Y-67145057D02*
X60801905Y-67097438D01*
X60801905Y-67097438D02*
X60897143Y-67049819D01*
X60897143Y-67049819D02*
X61135238Y-67049819D01*
X61135238Y-67049819D02*
X61230476Y-67097438D01*
X61230476Y-67097438D02*
X61278095Y-67145057D01*
X61278095Y-67145057D02*
X61325714Y-67240295D01*
X61325714Y-67240295D02*
X61325714Y-67335533D01*
X61325714Y-67335533D02*
X61278095Y-67478390D01*
X61278095Y-67478390D02*
X60706667Y-68049819D01*
X60706667Y-68049819D02*
X61325714Y-68049819D01*
X86976666Y-88601009D02*
X86643333Y-88601009D01*
X86643333Y-89124819D02*
X86643333Y-88124819D01*
X86643333Y-88124819D02*
X87119523Y-88124819D01*
X87929047Y-88458152D02*
X87929047Y-89124819D01*
X87690952Y-88077200D02*
X87452857Y-88791485D01*
X87452857Y-88791485D02*
X88071904Y-88791485D01*
X106867142Y-48659580D02*
X106819523Y-48707200D01*
X106819523Y-48707200D02*
X106676666Y-48754819D01*
X106676666Y-48754819D02*
X106581428Y-48754819D01*
X106581428Y-48754819D02*
X106438571Y-48707200D01*
X106438571Y-48707200D02*
X106343333Y-48611961D01*
X106343333Y-48611961D02*
X106295714Y-48516723D01*
X106295714Y-48516723D02*
X106248095Y-48326247D01*
X106248095Y-48326247D02*
X106248095Y-48183390D01*
X106248095Y-48183390D02*
X106295714Y-47992914D01*
X106295714Y-47992914D02*
X106343333Y-47897676D01*
X106343333Y-47897676D02*
X106438571Y-47802438D01*
X106438571Y-47802438D02*
X106581428Y-47754819D01*
X106581428Y-47754819D02*
X106676666Y-47754819D01*
X106676666Y-47754819D02*
X106819523Y-47802438D01*
X106819523Y-47802438D02*
X106867142Y-47850057D01*
X107819523Y-48754819D02*
X107248095Y-48754819D01*
X107533809Y-48754819D02*
X107533809Y-47754819D01*
X107533809Y-47754819D02*
X107438571Y-47897676D01*
X107438571Y-47897676D02*
X107343333Y-47992914D01*
X107343333Y-47992914D02*
X107248095Y-48040533D01*
X108200476Y-47850057D02*
X108248095Y-47802438D01*
X108248095Y-47802438D02*
X108343333Y-47754819D01*
X108343333Y-47754819D02*
X108581428Y-47754819D01*
X108581428Y-47754819D02*
X108676666Y-47802438D01*
X108676666Y-47802438D02*
X108724285Y-47850057D01*
X108724285Y-47850057D02*
X108771904Y-47945295D01*
X108771904Y-47945295D02*
X108771904Y-48040533D01*
X108771904Y-48040533D02*
X108724285Y-48183390D01*
X108724285Y-48183390D02*
X108152857Y-48754819D01*
X108152857Y-48754819D02*
X108771904Y-48754819D01*
X86823333Y-47799580D02*
X86775714Y-47847200D01*
X86775714Y-47847200D02*
X86632857Y-47894819D01*
X86632857Y-47894819D02*
X86537619Y-47894819D01*
X86537619Y-47894819D02*
X86394762Y-47847200D01*
X86394762Y-47847200D02*
X86299524Y-47751961D01*
X86299524Y-47751961D02*
X86251905Y-47656723D01*
X86251905Y-47656723D02*
X86204286Y-47466247D01*
X86204286Y-47466247D02*
X86204286Y-47323390D01*
X86204286Y-47323390D02*
X86251905Y-47132914D01*
X86251905Y-47132914D02*
X86299524Y-47037676D01*
X86299524Y-47037676D02*
X86394762Y-46942438D01*
X86394762Y-46942438D02*
X86537619Y-46894819D01*
X86537619Y-46894819D02*
X86632857Y-46894819D01*
X86632857Y-46894819D02*
X86775714Y-46942438D01*
X86775714Y-46942438D02*
X86823333Y-46990057D01*
X87394762Y-47323390D02*
X87299524Y-47275771D01*
X87299524Y-47275771D02*
X87251905Y-47228152D01*
X87251905Y-47228152D02*
X87204286Y-47132914D01*
X87204286Y-47132914D02*
X87204286Y-47085295D01*
X87204286Y-47085295D02*
X87251905Y-46990057D01*
X87251905Y-46990057D02*
X87299524Y-46942438D01*
X87299524Y-46942438D02*
X87394762Y-46894819D01*
X87394762Y-46894819D02*
X87585238Y-46894819D01*
X87585238Y-46894819D02*
X87680476Y-46942438D01*
X87680476Y-46942438D02*
X87728095Y-46990057D01*
X87728095Y-46990057D02*
X87775714Y-47085295D01*
X87775714Y-47085295D02*
X87775714Y-47132914D01*
X87775714Y-47132914D02*
X87728095Y-47228152D01*
X87728095Y-47228152D02*
X87680476Y-47275771D01*
X87680476Y-47275771D02*
X87585238Y-47323390D01*
X87585238Y-47323390D02*
X87394762Y-47323390D01*
X87394762Y-47323390D02*
X87299524Y-47371009D01*
X87299524Y-47371009D02*
X87251905Y-47418628D01*
X87251905Y-47418628D02*
X87204286Y-47513866D01*
X87204286Y-47513866D02*
X87204286Y-47704342D01*
X87204286Y-47704342D02*
X87251905Y-47799580D01*
X87251905Y-47799580D02*
X87299524Y-47847200D01*
X87299524Y-47847200D02*
X87394762Y-47894819D01*
X87394762Y-47894819D02*
X87585238Y-47894819D01*
X87585238Y-47894819D02*
X87680476Y-47847200D01*
X87680476Y-47847200D02*
X87728095Y-47799580D01*
X87728095Y-47799580D02*
X87775714Y-47704342D01*
X87775714Y-47704342D02*
X87775714Y-47513866D01*
X87775714Y-47513866D02*
X87728095Y-47418628D01*
X87728095Y-47418628D02*
X87680476Y-47371009D01*
X87680476Y-47371009D02*
X87585238Y-47323390D01*
X49913333Y-26894819D02*
X49580000Y-26418628D01*
X49341905Y-26894819D02*
X49341905Y-25894819D01*
X49341905Y-25894819D02*
X49722857Y-25894819D01*
X49722857Y-25894819D02*
X49818095Y-25942438D01*
X49818095Y-25942438D02*
X49865714Y-25990057D01*
X49865714Y-25990057D02*
X49913333Y-26085295D01*
X49913333Y-26085295D02*
X49913333Y-26228152D01*
X49913333Y-26228152D02*
X49865714Y-26323390D01*
X49865714Y-26323390D02*
X49818095Y-26371009D01*
X49818095Y-26371009D02*
X49722857Y-26418628D01*
X49722857Y-26418628D02*
X49341905Y-26418628D01*
X50246667Y-25894819D02*
X50913333Y-25894819D01*
X50913333Y-25894819D02*
X50484762Y-26894819D01*
X60623333Y-38879580D02*
X60575714Y-38927200D01*
X60575714Y-38927200D02*
X60432857Y-38974819D01*
X60432857Y-38974819D02*
X60337619Y-38974819D01*
X60337619Y-38974819D02*
X60194762Y-38927200D01*
X60194762Y-38927200D02*
X60099524Y-38831961D01*
X60099524Y-38831961D02*
X60051905Y-38736723D01*
X60051905Y-38736723D02*
X60004286Y-38546247D01*
X60004286Y-38546247D02*
X60004286Y-38403390D01*
X60004286Y-38403390D02*
X60051905Y-38212914D01*
X60051905Y-38212914D02*
X60099524Y-38117676D01*
X60099524Y-38117676D02*
X60194762Y-38022438D01*
X60194762Y-38022438D02*
X60337619Y-37974819D01*
X60337619Y-37974819D02*
X60432857Y-37974819D01*
X60432857Y-37974819D02*
X60575714Y-38022438D01*
X60575714Y-38022438D02*
X60623333Y-38070057D01*
X61528095Y-37974819D02*
X61051905Y-37974819D01*
X61051905Y-37974819D02*
X61004286Y-38451009D01*
X61004286Y-38451009D02*
X61051905Y-38403390D01*
X61051905Y-38403390D02*
X61147143Y-38355771D01*
X61147143Y-38355771D02*
X61385238Y-38355771D01*
X61385238Y-38355771D02*
X61480476Y-38403390D01*
X61480476Y-38403390D02*
X61528095Y-38451009D01*
X61528095Y-38451009D02*
X61575714Y-38546247D01*
X61575714Y-38546247D02*
X61575714Y-38784342D01*
X61575714Y-38784342D02*
X61528095Y-38879580D01*
X61528095Y-38879580D02*
X61480476Y-38927200D01*
X61480476Y-38927200D02*
X61385238Y-38974819D01*
X61385238Y-38974819D02*
X61147143Y-38974819D01*
X61147143Y-38974819D02*
X61051905Y-38927200D01*
X61051905Y-38927200D02*
X61004286Y-38879580D01*
X92533333Y-75329580D02*
X92485714Y-75377200D01*
X92485714Y-75377200D02*
X92342857Y-75424819D01*
X92342857Y-75424819D02*
X92247619Y-75424819D01*
X92247619Y-75424819D02*
X92104762Y-75377200D01*
X92104762Y-75377200D02*
X92009524Y-75281961D01*
X92009524Y-75281961D02*
X91961905Y-75186723D01*
X91961905Y-75186723D02*
X91914286Y-74996247D01*
X91914286Y-74996247D02*
X91914286Y-74853390D01*
X91914286Y-74853390D02*
X91961905Y-74662914D01*
X91961905Y-74662914D02*
X92009524Y-74567676D01*
X92009524Y-74567676D02*
X92104762Y-74472438D01*
X92104762Y-74472438D02*
X92247619Y-74424819D01*
X92247619Y-74424819D02*
X92342857Y-74424819D01*
X92342857Y-74424819D02*
X92485714Y-74472438D01*
X92485714Y-74472438D02*
X92533333Y-74520057D01*
X93009524Y-75424819D02*
X93200000Y-75424819D01*
X93200000Y-75424819D02*
X93295238Y-75377200D01*
X93295238Y-75377200D02*
X93342857Y-75329580D01*
X93342857Y-75329580D02*
X93438095Y-75186723D01*
X93438095Y-75186723D02*
X93485714Y-74996247D01*
X93485714Y-74996247D02*
X93485714Y-74615295D01*
X93485714Y-74615295D02*
X93438095Y-74520057D01*
X93438095Y-74520057D02*
X93390476Y-74472438D01*
X93390476Y-74472438D02*
X93295238Y-74424819D01*
X93295238Y-74424819D02*
X93104762Y-74424819D01*
X93104762Y-74424819D02*
X93009524Y-74472438D01*
X93009524Y-74472438D02*
X92961905Y-74520057D01*
X92961905Y-74520057D02*
X92914286Y-74615295D01*
X92914286Y-74615295D02*
X92914286Y-74853390D01*
X92914286Y-74853390D02*
X92961905Y-74948628D01*
X92961905Y-74948628D02*
X93009524Y-74996247D01*
X93009524Y-74996247D02*
X93104762Y-75043866D01*
X93104762Y-75043866D02*
X93295238Y-75043866D01*
X93295238Y-75043866D02*
X93390476Y-74996247D01*
X93390476Y-74996247D02*
X93438095Y-74948628D01*
X93438095Y-74948628D02*
X93485714Y-74853390D01*
X130705714Y-66974819D02*
X130705714Y-65974819D01*
X130705714Y-65974819D02*
X131086666Y-65974819D01*
X131086666Y-65974819D02*
X131181904Y-66022438D01*
X131181904Y-66022438D02*
X131229523Y-66070057D01*
X131229523Y-66070057D02*
X131277142Y-66165295D01*
X131277142Y-66165295D02*
X131277142Y-66308152D01*
X131277142Y-66308152D02*
X131229523Y-66403390D01*
X131229523Y-66403390D02*
X131181904Y-66451009D01*
X131181904Y-66451009D02*
X131086666Y-66498628D01*
X131086666Y-66498628D02*
X130705714Y-66498628D01*
X132229523Y-66974819D02*
X131658095Y-66974819D01*
X131943809Y-66974819D02*
X131943809Y-65974819D01*
X131943809Y-65974819D02*
X131848571Y-66117676D01*
X131848571Y-66117676D02*
X131753333Y-66212914D01*
X131753333Y-66212914D02*
X131658095Y-66260533D01*
X132800952Y-66403390D02*
X132705714Y-66355771D01*
X132705714Y-66355771D02*
X132658095Y-66308152D01*
X132658095Y-66308152D02*
X132610476Y-66212914D01*
X132610476Y-66212914D02*
X132610476Y-66165295D01*
X132610476Y-66165295D02*
X132658095Y-66070057D01*
X132658095Y-66070057D02*
X132705714Y-66022438D01*
X132705714Y-66022438D02*
X132800952Y-65974819D01*
X132800952Y-65974819D02*
X132991428Y-65974819D01*
X132991428Y-65974819D02*
X133086666Y-66022438D01*
X133086666Y-66022438D02*
X133134285Y-66070057D01*
X133134285Y-66070057D02*
X133181904Y-66165295D01*
X133181904Y-66165295D02*
X133181904Y-66212914D01*
X133181904Y-66212914D02*
X133134285Y-66308152D01*
X133134285Y-66308152D02*
X133086666Y-66355771D01*
X133086666Y-66355771D02*
X132991428Y-66403390D01*
X132991428Y-66403390D02*
X132800952Y-66403390D01*
X132800952Y-66403390D02*
X132705714Y-66451009D01*
X132705714Y-66451009D02*
X132658095Y-66498628D01*
X132658095Y-66498628D02*
X132610476Y-66593866D01*
X132610476Y-66593866D02*
X132610476Y-66784342D01*
X132610476Y-66784342D02*
X132658095Y-66879580D01*
X132658095Y-66879580D02*
X132705714Y-66927200D01*
X132705714Y-66927200D02*
X132800952Y-66974819D01*
X132800952Y-66974819D02*
X132991428Y-66974819D01*
X132991428Y-66974819D02*
X133086666Y-66927200D01*
X133086666Y-66927200D02*
X133134285Y-66879580D01*
X133134285Y-66879580D02*
X133181904Y-66784342D01*
X133181904Y-66784342D02*
X133181904Y-66593866D01*
X133181904Y-66593866D02*
X133134285Y-66498628D01*
X133134285Y-66498628D02*
X133086666Y-66451009D01*
X133086666Y-66451009D02*
X132991428Y-66403390D01*
X21461905Y-114684819D02*
X21461905Y-113684819D01*
X21461905Y-113684819D02*
X21842857Y-113684819D01*
X21842857Y-113684819D02*
X21938095Y-113732438D01*
X21938095Y-113732438D02*
X21985714Y-113780057D01*
X21985714Y-113780057D02*
X22033333Y-113875295D01*
X22033333Y-113875295D02*
X22033333Y-114018152D01*
X22033333Y-114018152D02*
X21985714Y-114113390D01*
X21985714Y-114113390D02*
X21938095Y-114161009D01*
X21938095Y-114161009D02*
X21842857Y-114208628D01*
X21842857Y-114208628D02*
X21461905Y-114208628D01*
X22509524Y-114684819D02*
X22700000Y-114684819D01*
X22700000Y-114684819D02*
X22795238Y-114637200D01*
X22795238Y-114637200D02*
X22842857Y-114589580D01*
X22842857Y-114589580D02*
X22938095Y-114446723D01*
X22938095Y-114446723D02*
X22985714Y-114256247D01*
X22985714Y-114256247D02*
X22985714Y-113875295D01*
X22985714Y-113875295D02*
X22938095Y-113780057D01*
X22938095Y-113780057D02*
X22890476Y-113732438D01*
X22890476Y-113732438D02*
X22795238Y-113684819D01*
X22795238Y-113684819D02*
X22604762Y-113684819D01*
X22604762Y-113684819D02*
X22509524Y-113732438D01*
X22509524Y-113732438D02*
X22461905Y-113780057D01*
X22461905Y-113780057D02*
X22414286Y-113875295D01*
X22414286Y-113875295D02*
X22414286Y-114113390D01*
X22414286Y-114113390D02*
X22461905Y-114208628D01*
X22461905Y-114208628D02*
X22509524Y-114256247D01*
X22509524Y-114256247D02*
X22604762Y-114303866D01*
X22604762Y-114303866D02*
X22795238Y-114303866D01*
X22795238Y-114303866D02*
X22890476Y-114256247D01*
X22890476Y-114256247D02*
X22938095Y-114208628D01*
X22938095Y-114208628D02*
X22985714Y-114113390D01*
X33623810Y-24594819D02*
X33623810Y-23594819D01*
X34671428Y-24499580D02*
X34623809Y-24547200D01*
X34623809Y-24547200D02*
X34480952Y-24594819D01*
X34480952Y-24594819D02*
X34385714Y-24594819D01*
X34385714Y-24594819D02*
X34242857Y-24547200D01*
X34242857Y-24547200D02*
X34147619Y-24451961D01*
X34147619Y-24451961D02*
X34100000Y-24356723D01*
X34100000Y-24356723D02*
X34052381Y-24166247D01*
X34052381Y-24166247D02*
X34052381Y-24023390D01*
X34052381Y-24023390D02*
X34100000Y-23832914D01*
X34100000Y-23832914D02*
X34147619Y-23737676D01*
X34147619Y-23737676D02*
X34242857Y-23642438D01*
X34242857Y-23642438D02*
X34385714Y-23594819D01*
X34385714Y-23594819D02*
X34480952Y-23594819D01*
X34480952Y-23594819D02*
X34623809Y-23642438D01*
X34623809Y-23642438D02*
X34671428Y-23690057D01*
X35623809Y-24594819D02*
X35052381Y-24594819D01*
X35338095Y-24594819D02*
X35338095Y-23594819D01*
X35338095Y-23594819D02*
X35242857Y-23737676D01*
X35242857Y-23737676D02*
X35147619Y-23832914D01*
X35147619Y-23832914D02*
X35052381Y-23880533D01*
X94223333Y-27354819D02*
X93890000Y-26878628D01*
X93651905Y-27354819D02*
X93651905Y-26354819D01*
X93651905Y-26354819D02*
X94032857Y-26354819D01*
X94032857Y-26354819D02*
X94128095Y-26402438D01*
X94128095Y-26402438D02*
X94175714Y-26450057D01*
X94175714Y-26450057D02*
X94223333Y-26545295D01*
X94223333Y-26545295D02*
X94223333Y-26688152D01*
X94223333Y-26688152D02*
X94175714Y-26783390D01*
X94175714Y-26783390D02*
X94128095Y-26831009D01*
X94128095Y-26831009D02*
X94032857Y-26878628D01*
X94032857Y-26878628D02*
X93651905Y-26878628D01*
X95080476Y-26354819D02*
X94890000Y-26354819D01*
X94890000Y-26354819D02*
X94794762Y-26402438D01*
X94794762Y-26402438D02*
X94747143Y-26450057D01*
X94747143Y-26450057D02*
X94651905Y-26592914D01*
X94651905Y-26592914D02*
X94604286Y-26783390D01*
X94604286Y-26783390D02*
X94604286Y-27164342D01*
X94604286Y-27164342D02*
X94651905Y-27259580D01*
X94651905Y-27259580D02*
X94699524Y-27307200D01*
X94699524Y-27307200D02*
X94794762Y-27354819D01*
X94794762Y-27354819D02*
X94985238Y-27354819D01*
X94985238Y-27354819D02*
X95080476Y-27307200D01*
X95080476Y-27307200D02*
X95128095Y-27259580D01*
X95128095Y-27259580D02*
X95175714Y-27164342D01*
X95175714Y-27164342D02*
X95175714Y-26926247D01*
X95175714Y-26926247D02*
X95128095Y-26831009D01*
X95128095Y-26831009D02*
X95080476Y-26783390D01*
X95080476Y-26783390D02*
X94985238Y-26735771D01*
X94985238Y-26735771D02*
X94794762Y-26735771D01*
X94794762Y-26735771D02*
X94699524Y-26783390D01*
X94699524Y-26783390D02*
X94651905Y-26831009D01*
X94651905Y-26831009D02*
X94604286Y-26926247D01*
X34745714Y-108184819D02*
X34745714Y-107184819D01*
X34745714Y-107184819D02*
X35126666Y-107184819D01*
X35126666Y-107184819D02*
X35221904Y-107232438D01*
X35221904Y-107232438D02*
X35269523Y-107280057D01*
X35269523Y-107280057D02*
X35317142Y-107375295D01*
X35317142Y-107375295D02*
X35317142Y-107518152D01*
X35317142Y-107518152D02*
X35269523Y-107613390D01*
X35269523Y-107613390D02*
X35221904Y-107661009D01*
X35221904Y-107661009D02*
X35126666Y-107708628D01*
X35126666Y-107708628D02*
X34745714Y-107708628D01*
X36269523Y-108184819D02*
X35698095Y-108184819D01*
X35983809Y-108184819D02*
X35983809Y-107184819D01*
X35983809Y-107184819D02*
X35888571Y-107327676D01*
X35888571Y-107327676D02*
X35793333Y-107422914D01*
X35793333Y-107422914D02*
X35698095Y-107470533D01*
X36888571Y-107184819D02*
X36983809Y-107184819D01*
X36983809Y-107184819D02*
X37079047Y-107232438D01*
X37079047Y-107232438D02*
X37126666Y-107280057D01*
X37126666Y-107280057D02*
X37174285Y-107375295D01*
X37174285Y-107375295D02*
X37221904Y-107565771D01*
X37221904Y-107565771D02*
X37221904Y-107803866D01*
X37221904Y-107803866D02*
X37174285Y-107994342D01*
X37174285Y-107994342D02*
X37126666Y-108089580D01*
X37126666Y-108089580D02*
X37079047Y-108137200D01*
X37079047Y-108137200D02*
X36983809Y-108184819D01*
X36983809Y-108184819D02*
X36888571Y-108184819D01*
X36888571Y-108184819D02*
X36793333Y-108137200D01*
X36793333Y-108137200D02*
X36745714Y-108089580D01*
X36745714Y-108089580D02*
X36698095Y-107994342D01*
X36698095Y-107994342D02*
X36650476Y-107803866D01*
X36650476Y-107803866D02*
X36650476Y-107565771D01*
X36650476Y-107565771D02*
X36698095Y-107375295D01*
X36698095Y-107375295D02*
X36745714Y-107280057D01*
X36745714Y-107280057D02*
X36793333Y-107232438D01*
X36793333Y-107232438D02*
X36888571Y-107184819D01*
X7041905Y-100264819D02*
X7041905Y-99264819D01*
X7041905Y-99264819D02*
X7422857Y-99264819D01*
X7422857Y-99264819D02*
X7518095Y-99312438D01*
X7518095Y-99312438D02*
X7565714Y-99360057D01*
X7565714Y-99360057D02*
X7613333Y-99455295D01*
X7613333Y-99455295D02*
X7613333Y-99598152D01*
X7613333Y-99598152D02*
X7565714Y-99693390D01*
X7565714Y-99693390D02*
X7518095Y-99741009D01*
X7518095Y-99741009D02*
X7422857Y-99788628D01*
X7422857Y-99788628D02*
X7041905Y-99788628D01*
X8184762Y-99693390D02*
X8089524Y-99645771D01*
X8089524Y-99645771D02*
X8041905Y-99598152D01*
X8041905Y-99598152D02*
X7994286Y-99502914D01*
X7994286Y-99502914D02*
X7994286Y-99455295D01*
X7994286Y-99455295D02*
X8041905Y-99360057D01*
X8041905Y-99360057D02*
X8089524Y-99312438D01*
X8089524Y-99312438D02*
X8184762Y-99264819D01*
X8184762Y-99264819D02*
X8375238Y-99264819D01*
X8375238Y-99264819D02*
X8470476Y-99312438D01*
X8470476Y-99312438D02*
X8518095Y-99360057D01*
X8518095Y-99360057D02*
X8565714Y-99455295D01*
X8565714Y-99455295D02*
X8565714Y-99502914D01*
X8565714Y-99502914D02*
X8518095Y-99598152D01*
X8518095Y-99598152D02*
X8470476Y-99645771D01*
X8470476Y-99645771D02*
X8375238Y-99693390D01*
X8375238Y-99693390D02*
X8184762Y-99693390D01*
X8184762Y-99693390D02*
X8089524Y-99741009D01*
X8089524Y-99741009D02*
X8041905Y-99788628D01*
X8041905Y-99788628D02*
X7994286Y-99883866D01*
X7994286Y-99883866D02*
X7994286Y-100074342D01*
X7994286Y-100074342D02*
X8041905Y-100169580D01*
X8041905Y-100169580D02*
X8089524Y-100217200D01*
X8089524Y-100217200D02*
X8184762Y-100264819D01*
X8184762Y-100264819D02*
X8375238Y-100264819D01*
X8375238Y-100264819D02*
X8470476Y-100217200D01*
X8470476Y-100217200D02*
X8518095Y-100169580D01*
X8518095Y-100169580D02*
X8565714Y-100074342D01*
X8565714Y-100074342D02*
X8565714Y-99883866D01*
X8565714Y-99883866D02*
X8518095Y-99788628D01*
X8518095Y-99788628D02*
X8470476Y-99741009D01*
X8470476Y-99741009D02*
X8375238Y-99693390D01*
X130705714Y-57074819D02*
X130705714Y-56074819D01*
X130705714Y-56074819D02*
X131086666Y-56074819D01*
X131086666Y-56074819D02*
X131181904Y-56122438D01*
X131181904Y-56122438D02*
X131229523Y-56170057D01*
X131229523Y-56170057D02*
X131277142Y-56265295D01*
X131277142Y-56265295D02*
X131277142Y-56408152D01*
X131277142Y-56408152D02*
X131229523Y-56503390D01*
X131229523Y-56503390D02*
X131181904Y-56551009D01*
X131181904Y-56551009D02*
X131086666Y-56598628D01*
X131086666Y-56598628D02*
X130705714Y-56598628D01*
X132229523Y-57074819D02*
X131658095Y-57074819D01*
X131943809Y-57074819D02*
X131943809Y-56074819D01*
X131943809Y-56074819D02*
X131848571Y-56217676D01*
X131848571Y-56217676D02*
X131753333Y-56312914D01*
X131753333Y-56312914D02*
X131658095Y-56360533D01*
X132705714Y-57074819D02*
X132896190Y-57074819D01*
X132896190Y-57074819D02*
X132991428Y-57027200D01*
X132991428Y-57027200D02*
X133039047Y-56979580D01*
X133039047Y-56979580D02*
X133134285Y-56836723D01*
X133134285Y-56836723D02*
X133181904Y-56646247D01*
X133181904Y-56646247D02*
X133181904Y-56265295D01*
X133181904Y-56265295D02*
X133134285Y-56170057D01*
X133134285Y-56170057D02*
X133086666Y-56122438D01*
X133086666Y-56122438D02*
X132991428Y-56074819D01*
X132991428Y-56074819D02*
X132800952Y-56074819D01*
X132800952Y-56074819D02*
X132705714Y-56122438D01*
X132705714Y-56122438D02*
X132658095Y-56170057D01*
X132658095Y-56170057D02*
X132610476Y-56265295D01*
X132610476Y-56265295D02*
X132610476Y-56503390D01*
X132610476Y-56503390D02*
X132658095Y-56598628D01*
X132658095Y-56598628D02*
X132705714Y-56646247D01*
X132705714Y-56646247D02*
X132800952Y-56693866D01*
X132800952Y-56693866D02*
X132991428Y-56693866D01*
X132991428Y-56693866D02*
X133086666Y-56646247D01*
X133086666Y-56646247D02*
X133134285Y-56598628D01*
X133134285Y-56598628D02*
X133181904Y-56503390D01*
X130705714Y-45044819D02*
X130705714Y-44044819D01*
X130705714Y-44044819D02*
X131086666Y-44044819D01*
X131086666Y-44044819D02*
X131181904Y-44092438D01*
X131181904Y-44092438D02*
X131229523Y-44140057D01*
X131229523Y-44140057D02*
X131277142Y-44235295D01*
X131277142Y-44235295D02*
X131277142Y-44378152D01*
X131277142Y-44378152D02*
X131229523Y-44473390D01*
X131229523Y-44473390D02*
X131181904Y-44521009D01*
X131181904Y-44521009D02*
X131086666Y-44568628D01*
X131086666Y-44568628D02*
X130705714Y-44568628D01*
X131658095Y-44140057D02*
X131705714Y-44092438D01*
X131705714Y-44092438D02*
X131800952Y-44044819D01*
X131800952Y-44044819D02*
X132039047Y-44044819D01*
X132039047Y-44044819D02*
X132134285Y-44092438D01*
X132134285Y-44092438D02*
X132181904Y-44140057D01*
X132181904Y-44140057D02*
X132229523Y-44235295D01*
X132229523Y-44235295D02*
X132229523Y-44330533D01*
X132229523Y-44330533D02*
X132181904Y-44473390D01*
X132181904Y-44473390D02*
X131610476Y-45044819D01*
X131610476Y-45044819D02*
X132229523Y-45044819D01*
X132848571Y-44044819D02*
X132943809Y-44044819D01*
X132943809Y-44044819D02*
X133039047Y-44092438D01*
X133039047Y-44092438D02*
X133086666Y-44140057D01*
X133086666Y-44140057D02*
X133134285Y-44235295D01*
X133134285Y-44235295D02*
X133181904Y-44425771D01*
X133181904Y-44425771D02*
X133181904Y-44663866D01*
X133181904Y-44663866D02*
X133134285Y-44854342D01*
X133134285Y-44854342D02*
X133086666Y-44949580D01*
X133086666Y-44949580D02*
X133039047Y-44997200D01*
X133039047Y-44997200D02*
X132943809Y-45044819D01*
X132943809Y-45044819D02*
X132848571Y-45044819D01*
X132848571Y-45044819D02*
X132753333Y-44997200D01*
X132753333Y-44997200D02*
X132705714Y-44949580D01*
X132705714Y-44949580D02*
X132658095Y-44854342D01*
X132658095Y-44854342D02*
X132610476Y-44663866D01*
X132610476Y-44663866D02*
X132610476Y-44425771D01*
X132610476Y-44425771D02*
X132658095Y-44235295D01*
X132658095Y-44235295D02*
X132705714Y-44140057D01*
X132705714Y-44140057D02*
X132753333Y-44092438D01*
X132753333Y-44092438D02*
X132848571Y-44044819D01*
X40765714Y-111434819D02*
X40765714Y-110434819D01*
X40765714Y-110434819D02*
X41146666Y-110434819D01*
X41146666Y-110434819D02*
X41241904Y-110482438D01*
X41241904Y-110482438D02*
X41289523Y-110530057D01*
X41289523Y-110530057D02*
X41337142Y-110625295D01*
X41337142Y-110625295D02*
X41337142Y-110768152D01*
X41337142Y-110768152D02*
X41289523Y-110863390D01*
X41289523Y-110863390D02*
X41241904Y-110911009D01*
X41241904Y-110911009D02*
X41146666Y-110958628D01*
X41146666Y-110958628D02*
X40765714Y-110958628D01*
X42289523Y-111434819D02*
X41718095Y-111434819D01*
X42003809Y-111434819D02*
X42003809Y-110434819D01*
X42003809Y-110434819D02*
X41908571Y-110577676D01*
X41908571Y-110577676D02*
X41813333Y-110672914D01*
X41813333Y-110672914D02*
X41718095Y-110720533D01*
X43241904Y-111434819D02*
X42670476Y-111434819D01*
X42956190Y-111434819D02*
X42956190Y-110434819D01*
X42956190Y-110434819D02*
X42860952Y-110577676D01*
X42860952Y-110577676D02*
X42765714Y-110672914D01*
X42765714Y-110672914D02*
X42670476Y-110720533D01*
X124421905Y-98124819D02*
X124421905Y-97124819D01*
X124421905Y-97124819D02*
X124660000Y-97124819D01*
X124660000Y-97124819D02*
X124802857Y-97172438D01*
X124802857Y-97172438D02*
X124898095Y-97267676D01*
X124898095Y-97267676D02*
X124945714Y-97362914D01*
X124945714Y-97362914D02*
X124993333Y-97553390D01*
X124993333Y-97553390D02*
X124993333Y-97696247D01*
X124993333Y-97696247D02*
X124945714Y-97886723D01*
X124945714Y-97886723D02*
X124898095Y-97981961D01*
X124898095Y-97981961D02*
X124802857Y-98077200D01*
X124802857Y-98077200D02*
X124660000Y-98124819D01*
X124660000Y-98124819D02*
X124421905Y-98124819D01*
X125850476Y-97458152D02*
X125850476Y-98124819D01*
X125612381Y-97077200D02*
X125374286Y-97791485D01*
X125374286Y-97791485D02*
X125993333Y-97791485D01*
X126698095Y-85764819D02*
X126698095Y-84764819D01*
X127269523Y-85764819D02*
X126840952Y-85193390D01*
X127269523Y-84764819D02*
X126698095Y-85336247D01*
X95543333Y-42954819D02*
X95210000Y-42478628D01*
X94971905Y-42954819D02*
X94971905Y-41954819D01*
X94971905Y-41954819D02*
X95352857Y-41954819D01*
X95352857Y-41954819D02*
X95448095Y-42002438D01*
X95448095Y-42002438D02*
X95495714Y-42050057D01*
X95495714Y-42050057D02*
X95543333Y-42145295D01*
X95543333Y-42145295D02*
X95543333Y-42288152D01*
X95543333Y-42288152D02*
X95495714Y-42383390D01*
X95495714Y-42383390D02*
X95448095Y-42431009D01*
X95448095Y-42431009D02*
X95352857Y-42478628D01*
X95352857Y-42478628D02*
X94971905Y-42478628D01*
X96400476Y-42288152D02*
X96400476Y-42954819D01*
X96162381Y-41907200D02*
X95924286Y-42621485D01*
X95924286Y-42621485D02*
X96543333Y-42621485D01*
X7041905Y-88024819D02*
X7041905Y-87024819D01*
X7041905Y-87024819D02*
X7422857Y-87024819D01*
X7422857Y-87024819D02*
X7518095Y-87072438D01*
X7518095Y-87072438D02*
X7565714Y-87120057D01*
X7565714Y-87120057D02*
X7613333Y-87215295D01*
X7613333Y-87215295D02*
X7613333Y-87358152D01*
X7613333Y-87358152D02*
X7565714Y-87453390D01*
X7565714Y-87453390D02*
X7518095Y-87501009D01*
X7518095Y-87501009D02*
X7422857Y-87548628D01*
X7422857Y-87548628D02*
X7041905Y-87548628D01*
X7946667Y-87024819D02*
X8613333Y-87024819D01*
X8613333Y-87024819D02*
X8184762Y-88024819D01*
X97083333Y-30079580D02*
X97035714Y-30127200D01*
X97035714Y-30127200D02*
X96892857Y-30174819D01*
X96892857Y-30174819D02*
X96797619Y-30174819D01*
X96797619Y-30174819D02*
X96654762Y-30127200D01*
X96654762Y-30127200D02*
X96559524Y-30031961D01*
X96559524Y-30031961D02*
X96511905Y-29936723D01*
X96511905Y-29936723D02*
X96464286Y-29746247D01*
X96464286Y-29746247D02*
X96464286Y-29603390D01*
X96464286Y-29603390D02*
X96511905Y-29412914D01*
X96511905Y-29412914D02*
X96559524Y-29317676D01*
X96559524Y-29317676D02*
X96654762Y-29222438D01*
X96654762Y-29222438D02*
X96797619Y-29174819D01*
X96797619Y-29174819D02*
X96892857Y-29174819D01*
X96892857Y-29174819D02*
X97035714Y-29222438D01*
X97035714Y-29222438D02*
X97083333Y-29270057D01*
X97940476Y-29174819D02*
X97750000Y-29174819D01*
X97750000Y-29174819D02*
X97654762Y-29222438D01*
X97654762Y-29222438D02*
X97607143Y-29270057D01*
X97607143Y-29270057D02*
X97511905Y-29412914D01*
X97511905Y-29412914D02*
X97464286Y-29603390D01*
X97464286Y-29603390D02*
X97464286Y-29984342D01*
X97464286Y-29984342D02*
X97511905Y-30079580D01*
X97511905Y-30079580D02*
X97559524Y-30127200D01*
X97559524Y-30127200D02*
X97654762Y-30174819D01*
X97654762Y-30174819D02*
X97845238Y-30174819D01*
X97845238Y-30174819D02*
X97940476Y-30127200D01*
X97940476Y-30127200D02*
X97988095Y-30079580D01*
X97988095Y-30079580D02*
X98035714Y-29984342D01*
X98035714Y-29984342D02*
X98035714Y-29746247D01*
X98035714Y-29746247D02*
X97988095Y-29651009D01*
X97988095Y-29651009D02*
X97940476Y-29603390D01*
X97940476Y-29603390D02*
X97845238Y-29555771D01*
X97845238Y-29555771D02*
X97654762Y-29555771D01*
X97654762Y-29555771D02*
X97559524Y-29603390D01*
X97559524Y-29603390D02*
X97511905Y-29651009D01*
X97511905Y-29651009D02*
X97464286Y-29746247D01*
X84273333Y-48104819D02*
X83940000Y-47628628D01*
X83701905Y-48104819D02*
X83701905Y-47104819D01*
X83701905Y-47104819D02*
X84082857Y-47104819D01*
X84082857Y-47104819D02*
X84178095Y-47152438D01*
X84178095Y-47152438D02*
X84225714Y-47200057D01*
X84225714Y-47200057D02*
X84273333Y-47295295D01*
X84273333Y-47295295D02*
X84273333Y-47438152D01*
X84273333Y-47438152D02*
X84225714Y-47533390D01*
X84225714Y-47533390D02*
X84178095Y-47581009D01*
X84178095Y-47581009D02*
X84082857Y-47628628D01*
X84082857Y-47628628D02*
X83701905Y-47628628D01*
X84606667Y-47104819D02*
X85225714Y-47104819D01*
X85225714Y-47104819D02*
X84892381Y-47485771D01*
X84892381Y-47485771D02*
X85035238Y-47485771D01*
X85035238Y-47485771D02*
X85130476Y-47533390D01*
X85130476Y-47533390D02*
X85178095Y-47581009D01*
X85178095Y-47581009D02*
X85225714Y-47676247D01*
X85225714Y-47676247D02*
X85225714Y-47914342D01*
X85225714Y-47914342D02*
X85178095Y-48009580D01*
X85178095Y-48009580D02*
X85130476Y-48057200D01*
X85130476Y-48057200D02*
X85035238Y-48104819D01*
X85035238Y-48104819D02*
X84749524Y-48104819D01*
X84749524Y-48104819D02*
X84654286Y-48057200D01*
X84654286Y-48057200D02*
X84606667Y-48009580D01*
X80777142Y-75239580D02*
X80729523Y-75287200D01*
X80729523Y-75287200D02*
X80586666Y-75334819D01*
X80586666Y-75334819D02*
X80491428Y-75334819D01*
X80491428Y-75334819D02*
X80348571Y-75287200D01*
X80348571Y-75287200D02*
X80253333Y-75191961D01*
X80253333Y-75191961D02*
X80205714Y-75096723D01*
X80205714Y-75096723D02*
X80158095Y-74906247D01*
X80158095Y-74906247D02*
X80158095Y-74763390D01*
X80158095Y-74763390D02*
X80205714Y-74572914D01*
X80205714Y-74572914D02*
X80253333Y-74477676D01*
X80253333Y-74477676D02*
X80348571Y-74382438D01*
X80348571Y-74382438D02*
X80491428Y-74334819D01*
X80491428Y-74334819D02*
X80586666Y-74334819D01*
X80586666Y-74334819D02*
X80729523Y-74382438D01*
X80729523Y-74382438D02*
X80777142Y-74430057D01*
X81729523Y-75334819D02*
X81158095Y-75334819D01*
X81443809Y-75334819D02*
X81443809Y-74334819D01*
X81443809Y-74334819D02*
X81348571Y-74477676D01*
X81348571Y-74477676D02*
X81253333Y-74572914D01*
X81253333Y-74572914D02*
X81158095Y-74620533D01*
X82348571Y-74334819D02*
X82443809Y-74334819D01*
X82443809Y-74334819D02*
X82539047Y-74382438D01*
X82539047Y-74382438D02*
X82586666Y-74430057D01*
X82586666Y-74430057D02*
X82634285Y-74525295D01*
X82634285Y-74525295D02*
X82681904Y-74715771D01*
X82681904Y-74715771D02*
X82681904Y-74953866D01*
X82681904Y-74953866D02*
X82634285Y-75144342D01*
X82634285Y-75144342D02*
X82586666Y-75239580D01*
X82586666Y-75239580D02*
X82539047Y-75287200D01*
X82539047Y-75287200D02*
X82443809Y-75334819D01*
X82443809Y-75334819D02*
X82348571Y-75334819D01*
X82348571Y-75334819D02*
X82253333Y-75287200D01*
X82253333Y-75287200D02*
X82205714Y-75239580D01*
X82205714Y-75239580D02*
X82158095Y-75144342D01*
X82158095Y-75144342D02*
X82110476Y-74953866D01*
X82110476Y-74953866D02*
X82110476Y-74715771D01*
X82110476Y-74715771D02*
X82158095Y-74525295D01*
X82158095Y-74525295D02*
X82205714Y-74430057D01*
X82205714Y-74430057D02*
X82253333Y-74382438D01*
X82253333Y-74382438D02*
X82348571Y-74334819D01*
X7041905Y-57454819D02*
X7041905Y-56454819D01*
X7041905Y-56454819D02*
X7422857Y-56454819D01*
X7422857Y-56454819D02*
X7518095Y-56502438D01*
X7518095Y-56502438D02*
X7565714Y-56550057D01*
X7565714Y-56550057D02*
X7613333Y-56645295D01*
X7613333Y-56645295D02*
X7613333Y-56788152D01*
X7613333Y-56788152D02*
X7565714Y-56883390D01*
X7565714Y-56883390D02*
X7518095Y-56931009D01*
X7518095Y-56931009D02*
X7422857Y-56978628D01*
X7422857Y-56978628D02*
X7041905Y-56978628D01*
X8470476Y-56788152D02*
X8470476Y-57454819D01*
X8232381Y-56407200D02*
X7994286Y-57121485D01*
X7994286Y-57121485D02*
X8613333Y-57121485D01*
X7041905Y-43774819D02*
X7041905Y-42774819D01*
X7041905Y-42774819D02*
X7422857Y-42774819D01*
X7422857Y-42774819D02*
X7518095Y-42822438D01*
X7518095Y-42822438D02*
X7565714Y-42870057D01*
X7565714Y-42870057D02*
X7613333Y-42965295D01*
X7613333Y-42965295D02*
X7613333Y-43108152D01*
X7613333Y-43108152D02*
X7565714Y-43203390D01*
X7565714Y-43203390D02*
X7518095Y-43251009D01*
X7518095Y-43251009D02*
X7422857Y-43298628D01*
X7422857Y-43298628D02*
X7041905Y-43298628D01*
X7946667Y-42774819D02*
X8565714Y-42774819D01*
X8565714Y-42774819D02*
X8232381Y-43155771D01*
X8232381Y-43155771D02*
X8375238Y-43155771D01*
X8375238Y-43155771D02*
X8470476Y-43203390D01*
X8470476Y-43203390D02*
X8518095Y-43251009D01*
X8518095Y-43251009D02*
X8565714Y-43346247D01*
X8565714Y-43346247D02*
X8565714Y-43584342D01*
X8565714Y-43584342D02*
X8518095Y-43679580D01*
X8518095Y-43679580D02*
X8470476Y-43727200D01*
X8470476Y-43727200D02*
X8375238Y-43774819D01*
X8375238Y-43774819D02*
X8089524Y-43774819D01*
X8089524Y-43774819D02*
X7994286Y-43727200D01*
X7994286Y-43727200D02*
X7946667Y-43679580D01*
X130705714Y-83424819D02*
X130705714Y-82424819D01*
X130705714Y-82424819D02*
X131086666Y-82424819D01*
X131086666Y-82424819D02*
X131181904Y-82472438D01*
X131181904Y-82472438D02*
X131229523Y-82520057D01*
X131229523Y-82520057D02*
X131277142Y-82615295D01*
X131277142Y-82615295D02*
X131277142Y-82758152D01*
X131277142Y-82758152D02*
X131229523Y-82853390D01*
X131229523Y-82853390D02*
X131181904Y-82901009D01*
X131181904Y-82901009D02*
X131086666Y-82948628D01*
X131086666Y-82948628D02*
X130705714Y-82948628D01*
X132229523Y-83424819D02*
X131658095Y-83424819D01*
X131943809Y-83424819D02*
X131943809Y-82424819D01*
X131943809Y-82424819D02*
X131848571Y-82567676D01*
X131848571Y-82567676D02*
X131753333Y-82662914D01*
X131753333Y-82662914D02*
X131658095Y-82710533D01*
X133086666Y-82424819D02*
X132896190Y-82424819D01*
X132896190Y-82424819D02*
X132800952Y-82472438D01*
X132800952Y-82472438D02*
X132753333Y-82520057D01*
X132753333Y-82520057D02*
X132658095Y-82662914D01*
X132658095Y-82662914D02*
X132610476Y-82853390D01*
X132610476Y-82853390D02*
X132610476Y-83234342D01*
X132610476Y-83234342D02*
X132658095Y-83329580D01*
X132658095Y-83329580D02*
X132705714Y-83377200D01*
X132705714Y-83377200D02*
X132800952Y-83424819D01*
X132800952Y-83424819D02*
X132991428Y-83424819D01*
X132991428Y-83424819D02*
X133086666Y-83377200D01*
X133086666Y-83377200D02*
X133134285Y-83329580D01*
X133134285Y-83329580D02*
X133181904Y-83234342D01*
X133181904Y-83234342D02*
X133181904Y-82996247D01*
X133181904Y-82996247D02*
X133134285Y-82901009D01*
X133134285Y-82901009D02*
X133086666Y-82853390D01*
X133086666Y-82853390D02*
X132991428Y-82805771D01*
X132991428Y-82805771D02*
X132800952Y-82805771D01*
X132800952Y-82805771D02*
X132705714Y-82853390D01*
X132705714Y-82853390D02*
X132658095Y-82901009D01*
X132658095Y-82901009D02*
X132610476Y-82996247D01*
X7041905Y-25164819D02*
X7041905Y-24164819D01*
X7041905Y-24164819D02*
X7422857Y-24164819D01*
X7422857Y-24164819D02*
X7518095Y-24212438D01*
X7518095Y-24212438D02*
X7565714Y-24260057D01*
X7565714Y-24260057D02*
X7613333Y-24355295D01*
X7613333Y-24355295D02*
X7613333Y-24498152D01*
X7613333Y-24498152D02*
X7565714Y-24593390D01*
X7565714Y-24593390D02*
X7518095Y-24641009D01*
X7518095Y-24641009D02*
X7422857Y-24688628D01*
X7422857Y-24688628D02*
X7041905Y-24688628D01*
X8565714Y-25164819D02*
X7994286Y-25164819D01*
X8280000Y-25164819D02*
X8280000Y-24164819D01*
X8280000Y-24164819D02*
X8184762Y-24307676D01*
X8184762Y-24307676D02*
X8089524Y-24402914D01*
X8089524Y-24402914D02*
X7994286Y-24450533D01*
X71334761Y-21190057D02*
X71239523Y-21142438D01*
X71239523Y-21142438D02*
X71144285Y-21047200D01*
X71144285Y-21047200D02*
X71001428Y-20904342D01*
X71001428Y-20904342D02*
X70906190Y-20856723D01*
X70906190Y-20856723D02*
X70810952Y-20856723D01*
X70858571Y-21094819D02*
X70763333Y-21047200D01*
X70763333Y-21047200D02*
X70668095Y-20951961D01*
X70668095Y-20951961D02*
X70620476Y-20761485D01*
X70620476Y-20761485D02*
X70620476Y-20428152D01*
X70620476Y-20428152D02*
X70668095Y-20237676D01*
X70668095Y-20237676D02*
X70763333Y-20142438D01*
X70763333Y-20142438D02*
X70858571Y-20094819D01*
X70858571Y-20094819D02*
X71049047Y-20094819D01*
X71049047Y-20094819D02*
X71144285Y-20142438D01*
X71144285Y-20142438D02*
X71239523Y-20237676D01*
X71239523Y-20237676D02*
X71287142Y-20428152D01*
X71287142Y-20428152D02*
X71287142Y-20761485D01*
X71287142Y-20761485D02*
X71239523Y-20951961D01*
X71239523Y-20951961D02*
X71144285Y-21047200D01*
X71144285Y-21047200D02*
X71049047Y-21094819D01*
X71049047Y-21094819D02*
X70858571Y-21094819D01*
X72239523Y-21094819D02*
X71668095Y-21094819D01*
X71953809Y-21094819D02*
X71953809Y-20094819D01*
X71953809Y-20094819D02*
X71858571Y-20237676D01*
X71858571Y-20237676D02*
X71763333Y-20332914D01*
X71763333Y-20332914D02*
X71668095Y-20380533D01*
X71333333Y-47199580D02*
X71285714Y-47247200D01*
X71285714Y-47247200D02*
X71142857Y-47294819D01*
X71142857Y-47294819D02*
X71047619Y-47294819D01*
X71047619Y-47294819D02*
X70904762Y-47247200D01*
X70904762Y-47247200D02*
X70809524Y-47151961D01*
X70809524Y-47151961D02*
X70761905Y-47056723D01*
X70761905Y-47056723D02*
X70714286Y-46866247D01*
X70714286Y-46866247D02*
X70714286Y-46723390D01*
X70714286Y-46723390D02*
X70761905Y-46532914D01*
X70761905Y-46532914D02*
X70809524Y-46437676D01*
X70809524Y-46437676D02*
X70904762Y-46342438D01*
X70904762Y-46342438D02*
X71047619Y-46294819D01*
X71047619Y-46294819D02*
X71142857Y-46294819D01*
X71142857Y-46294819D02*
X71285714Y-46342438D01*
X71285714Y-46342438D02*
X71333333Y-46390057D01*
X71666667Y-46294819D02*
X72333333Y-46294819D01*
X72333333Y-46294819D02*
X71904762Y-47294819D01*
X38871905Y-65649819D02*
X38871905Y-64649819D01*
X38871905Y-64649819D02*
X39110000Y-64649819D01*
X39110000Y-64649819D02*
X39252857Y-64697438D01*
X39252857Y-64697438D02*
X39348095Y-64792676D01*
X39348095Y-64792676D02*
X39395714Y-64887914D01*
X39395714Y-64887914D02*
X39443333Y-65078390D01*
X39443333Y-65078390D02*
X39443333Y-65221247D01*
X39443333Y-65221247D02*
X39395714Y-65411723D01*
X39395714Y-65411723D02*
X39348095Y-65506961D01*
X39348095Y-65506961D02*
X39252857Y-65602200D01*
X39252857Y-65602200D02*
X39110000Y-65649819D01*
X39110000Y-65649819D02*
X38871905Y-65649819D01*
X40395714Y-65649819D02*
X39824286Y-65649819D01*
X40110000Y-65649819D02*
X40110000Y-64649819D01*
X40110000Y-64649819D02*
X40014762Y-64792676D01*
X40014762Y-64792676D02*
X39919524Y-64887914D01*
X39919524Y-64887914D02*
X39824286Y-64935533D01*
X60613333Y-51484819D02*
X60280000Y-51008628D01*
X60041905Y-51484819D02*
X60041905Y-50484819D01*
X60041905Y-50484819D02*
X60422857Y-50484819D01*
X60422857Y-50484819D02*
X60518095Y-50532438D01*
X60518095Y-50532438D02*
X60565714Y-50580057D01*
X60565714Y-50580057D02*
X60613333Y-50675295D01*
X60613333Y-50675295D02*
X60613333Y-50818152D01*
X60613333Y-50818152D02*
X60565714Y-50913390D01*
X60565714Y-50913390D02*
X60518095Y-50961009D01*
X60518095Y-50961009D02*
X60422857Y-51008628D01*
X60422857Y-51008628D02*
X60041905Y-51008628D01*
X60994286Y-50580057D02*
X61041905Y-50532438D01*
X61041905Y-50532438D02*
X61137143Y-50484819D01*
X61137143Y-50484819D02*
X61375238Y-50484819D01*
X61375238Y-50484819D02*
X61470476Y-50532438D01*
X61470476Y-50532438D02*
X61518095Y-50580057D01*
X61518095Y-50580057D02*
X61565714Y-50675295D01*
X61565714Y-50675295D02*
X61565714Y-50770533D01*
X61565714Y-50770533D02*
X61518095Y-50913390D01*
X61518095Y-50913390D02*
X60946667Y-51484819D01*
X60946667Y-51484819D02*
X61565714Y-51484819D01*
X7041905Y-74884819D02*
X7041905Y-73884819D01*
X7041905Y-73884819D02*
X7422857Y-73884819D01*
X7422857Y-73884819D02*
X7518095Y-73932438D01*
X7518095Y-73932438D02*
X7565714Y-73980057D01*
X7565714Y-73980057D02*
X7613333Y-74075295D01*
X7613333Y-74075295D02*
X7613333Y-74218152D01*
X7613333Y-74218152D02*
X7565714Y-74313390D01*
X7565714Y-74313390D02*
X7518095Y-74361009D01*
X7518095Y-74361009D02*
X7422857Y-74408628D01*
X7422857Y-74408628D02*
X7041905Y-74408628D01*
X8470476Y-73884819D02*
X8280000Y-73884819D01*
X8280000Y-73884819D02*
X8184762Y-73932438D01*
X8184762Y-73932438D02*
X8137143Y-73980057D01*
X8137143Y-73980057D02*
X8041905Y-74122914D01*
X8041905Y-74122914D02*
X7994286Y-74313390D01*
X7994286Y-74313390D02*
X7994286Y-74694342D01*
X7994286Y-74694342D02*
X8041905Y-74789580D01*
X8041905Y-74789580D02*
X8089524Y-74837200D01*
X8089524Y-74837200D02*
X8184762Y-74884819D01*
X8184762Y-74884819D02*
X8375238Y-74884819D01*
X8375238Y-74884819D02*
X8470476Y-74837200D01*
X8470476Y-74837200D02*
X8518095Y-74789580D01*
X8518095Y-74789580D02*
X8565714Y-74694342D01*
X8565714Y-74694342D02*
X8565714Y-74456247D01*
X8565714Y-74456247D02*
X8518095Y-74361009D01*
X8518095Y-74361009D02*
X8470476Y-74313390D01*
X8470476Y-74313390D02*
X8375238Y-74265771D01*
X8375238Y-74265771D02*
X8184762Y-74265771D01*
X8184762Y-74265771D02*
X8089524Y-74313390D01*
X8089524Y-74313390D02*
X8041905Y-74361009D01*
X8041905Y-74361009D02*
X7994286Y-74456247D01*
X107744761Y-23290057D02*
X107649523Y-23242438D01*
X107649523Y-23242438D02*
X107554285Y-23147200D01*
X107554285Y-23147200D02*
X107411428Y-23004342D01*
X107411428Y-23004342D02*
X107316190Y-22956723D01*
X107316190Y-22956723D02*
X107220952Y-22956723D01*
X107268571Y-23194819D02*
X107173333Y-23147200D01*
X107173333Y-23147200D02*
X107078095Y-23051961D01*
X107078095Y-23051961D02*
X107030476Y-22861485D01*
X107030476Y-22861485D02*
X107030476Y-22528152D01*
X107030476Y-22528152D02*
X107078095Y-22337676D01*
X107078095Y-22337676D02*
X107173333Y-22242438D01*
X107173333Y-22242438D02*
X107268571Y-22194819D01*
X107268571Y-22194819D02*
X107459047Y-22194819D01*
X107459047Y-22194819D02*
X107554285Y-22242438D01*
X107554285Y-22242438D02*
X107649523Y-22337676D01*
X107649523Y-22337676D02*
X107697142Y-22528152D01*
X107697142Y-22528152D02*
X107697142Y-22861485D01*
X107697142Y-22861485D02*
X107649523Y-23051961D01*
X107649523Y-23051961D02*
X107554285Y-23147200D01*
X107554285Y-23147200D02*
X107459047Y-23194819D01*
X107459047Y-23194819D02*
X107268571Y-23194819D01*
X108078095Y-22290057D02*
X108125714Y-22242438D01*
X108125714Y-22242438D02*
X108220952Y-22194819D01*
X108220952Y-22194819D02*
X108459047Y-22194819D01*
X108459047Y-22194819D02*
X108554285Y-22242438D01*
X108554285Y-22242438D02*
X108601904Y-22290057D01*
X108601904Y-22290057D02*
X108649523Y-22385295D01*
X108649523Y-22385295D02*
X108649523Y-22480533D01*
X108649523Y-22480533D02*
X108601904Y-22623390D01*
X108601904Y-22623390D02*
X108030476Y-23194819D01*
X108030476Y-23194819D02*
X108649523Y-23194819D01*
X68573810Y-59224819D02*
X68573810Y-58224819D01*
X69621428Y-59129580D02*
X69573809Y-59177200D01*
X69573809Y-59177200D02*
X69430952Y-59224819D01*
X69430952Y-59224819D02*
X69335714Y-59224819D01*
X69335714Y-59224819D02*
X69192857Y-59177200D01*
X69192857Y-59177200D02*
X69097619Y-59081961D01*
X69097619Y-59081961D02*
X69050000Y-58986723D01*
X69050000Y-58986723D02*
X69002381Y-58796247D01*
X69002381Y-58796247D02*
X69002381Y-58653390D01*
X69002381Y-58653390D02*
X69050000Y-58462914D01*
X69050000Y-58462914D02*
X69097619Y-58367676D01*
X69097619Y-58367676D02*
X69192857Y-58272438D01*
X69192857Y-58272438D02*
X69335714Y-58224819D01*
X69335714Y-58224819D02*
X69430952Y-58224819D01*
X69430952Y-58224819D02*
X69573809Y-58272438D01*
X69573809Y-58272438D02*
X69621428Y-58320057D01*
X70002381Y-58320057D02*
X70050000Y-58272438D01*
X70050000Y-58272438D02*
X70145238Y-58224819D01*
X70145238Y-58224819D02*
X70383333Y-58224819D01*
X70383333Y-58224819D02*
X70478571Y-58272438D01*
X70478571Y-58272438D02*
X70526190Y-58320057D01*
X70526190Y-58320057D02*
X70573809Y-58415295D01*
X70573809Y-58415295D02*
X70573809Y-58510533D01*
X70573809Y-58510533D02*
X70526190Y-58653390D01*
X70526190Y-58653390D02*
X69954762Y-59224819D01*
X69954762Y-59224819D02*
X70573809Y-59224819D01*
X107827142Y-50019580D02*
X107779523Y-50067200D01*
X107779523Y-50067200D02*
X107636666Y-50114819D01*
X107636666Y-50114819D02*
X107541428Y-50114819D01*
X107541428Y-50114819D02*
X107398571Y-50067200D01*
X107398571Y-50067200D02*
X107303333Y-49971961D01*
X107303333Y-49971961D02*
X107255714Y-49876723D01*
X107255714Y-49876723D02*
X107208095Y-49686247D01*
X107208095Y-49686247D02*
X107208095Y-49543390D01*
X107208095Y-49543390D02*
X107255714Y-49352914D01*
X107255714Y-49352914D02*
X107303333Y-49257676D01*
X107303333Y-49257676D02*
X107398571Y-49162438D01*
X107398571Y-49162438D02*
X107541428Y-49114819D01*
X107541428Y-49114819D02*
X107636666Y-49114819D01*
X107636666Y-49114819D02*
X107779523Y-49162438D01*
X107779523Y-49162438D02*
X107827142Y-49210057D01*
X108779523Y-50114819D02*
X108208095Y-50114819D01*
X108493809Y-50114819D02*
X108493809Y-49114819D01*
X108493809Y-49114819D02*
X108398571Y-49257676D01*
X108398571Y-49257676D02*
X108303333Y-49352914D01*
X108303333Y-49352914D02*
X108208095Y-49400533D01*
X109112857Y-49114819D02*
X109731904Y-49114819D01*
X109731904Y-49114819D02*
X109398571Y-49495771D01*
X109398571Y-49495771D02*
X109541428Y-49495771D01*
X109541428Y-49495771D02*
X109636666Y-49543390D01*
X109636666Y-49543390D02*
X109684285Y-49591009D01*
X109684285Y-49591009D02*
X109731904Y-49686247D01*
X109731904Y-49686247D02*
X109731904Y-49924342D01*
X109731904Y-49924342D02*
X109684285Y-50019580D01*
X109684285Y-50019580D02*
X109636666Y-50067200D01*
X109636666Y-50067200D02*
X109541428Y-50114819D01*
X109541428Y-50114819D02*
X109255714Y-50114819D01*
X109255714Y-50114819D02*
X109160476Y-50067200D01*
X109160476Y-50067200D02*
X109112857Y-50019580D01*
X126307142Y-58529580D02*
X126259523Y-58577200D01*
X126259523Y-58577200D02*
X126116666Y-58624819D01*
X126116666Y-58624819D02*
X126021428Y-58624819D01*
X126021428Y-58624819D02*
X125878571Y-58577200D01*
X125878571Y-58577200D02*
X125783333Y-58481961D01*
X125783333Y-58481961D02*
X125735714Y-58386723D01*
X125735714Y-58386723D02*
X125688095Y-58196247D01*
X125688095Y-58196247D02*
X125688095Y-58053390D01*
X125688095Y-58053390D02*
X125735714Y-57862914D01*
X125735714Y-57862914D02*
X125783333Y-57767676D01*
X125783333Y-57767676D02*
X125878571Y-57672438D01*
X125878571Y-57672438D02*
X126021428Y-57624819D01*
X126021428Y-57624819D02*
X126116666Y-57624819D01*
X126116666Y-57624819D02*
X126259523Y-57672438D01*
X126259523Y-57672438D02*
X126307142Y-57720057D01*
X127259523Y-58624819D02*
X126688095Y-58624819D01*
X126973809Y-58624819D02*
X126973809Y-57624819D01*
X126973809Y-57624819D02*
X126878571Y-57767676D01*
X126878571Y-57767676D02*
X126783333Y-57862914D01*
X126783333Y-57862914D02*
X126688095Y-57910533D01*
X128116666Y-57624819D02*
X127926190Y-57624819D01*
X127926190Y-57624819D02*
X127830952Y-57672438D01*
X127830952Y-57672438D02*
X127783333Y-57720057D01*
X127783333Y-57720057D02*
X127688095Y-57862914D01*
X127688095Y-57862914D02*
X127640476Y-58053390D01*
X127640476Y-58053390D02*
X127640476Y-58434342D01*
X127640476Y-58434342D02*
X127688095Y-58529580D01*
X127688095Y-58529580D02*
X127735714Y-58577200D01*
X127735714Y-58577200D02*
X127830952Y-58624819D01*
X127830952Y-58624819D02*
X128021428Y-58624819D01*
X128021428Y-58624819D02*
X128116666Y-58577200D01*
X128116666Y-58577200D02*
X128164285Y-58529580D01*
X128164285Y-58529580D02*
X128211904Y-58434342D01*
X128211904Y-58434342D02*
X128211904Y-58196247D01*
X128211904Y-58196247D02*
X128164285Y-58101009D01*
X128164285Y-58101009D02*
X128116666Y-58053390D01*
X128116666Y-58053390D02*
X128021428Y-58005771D01*
X128021428Y-58005771D02*
X127830952Y-58005771D01*
X127830952Y-58005771D02*
X127735714Y-58053390D01*
X127735714Y-58053390D02*
X127688095Y-58101009D01*
X127688095Y-58101009D02*
X127640476Y-58196247D01*
X77125714Y-114684819D02*
X77125714Y-113684819D01*
X77125714Y-113684819D02*
X77506666Y-113684819D01*
X77506666Y-113684819D02*
X77601904Y-113732438D01*
X77601904Y-113732438D02*
X77649523Y-113780057D01*
X77649523Y-113780057D02*
X77697142Y-113875295D01*
X77697142Y-113875295D02*
X77697142Y-114018152D01*
X77697142Y-114018152D02*
X77649523Y-114113390D01*
X77649523Y-114113390D02*
X77601904Y-114161009D01*
X77601904Y-114161009D02*
X77506666Y-114208628D01*
X77506666Y-114208628D02*
X77125714Y-114208628D01*
X78649523Y-114684819D02*
X78078095Y-114684819D01*
X78363809Y-114684819D02*
X78363809Y-113684819D01*
X78363809Y-113684819D02*
X78268571Y-113827676D01*
X78268571Y-113827676D02*
X78173333Y-113922914D01*
X78173333Y-113922914D02*
X78078095Y-113970533D01*
X79506666Y-114018152D02*
X79506666Y-114684819D01*
X79268571Y-113637200D02*
X79030476Y-114351485D01*
X79030476Y-114351485D02*
X79649523Y-114351485D01*
X66735714Y-114684819D02*
X66735714Y-113684819D01*
X66735714Y-113684819D02*
X67116666Y-113684819D01*
X67116666Y-113684819D02*
X67211904Y-113732438D01*
X67211904Y-113732438D02*
X67259523Y-113780057D01*
X67259523Y-113780057D02*
X67307142Y-113875295D01*
X67307142Y-113875295D02*
X67307142Y-114018152D01*
X67307142Y-114018152D02*
X67259523Y-114113390D01*
X67259523Y-114113390D02*
X67211904Y-114161009D01*
X67211904Y-114161009D02*
X67116666Y-114208628D01*
X67116666Y-114208628D02*
X66735714Y-114208628D01*
X68259523Y-114684819D02*
X67688095Y-114684819D01*
X67973809Y-114684819D02*
X67973809Y-113684819D01*
X67973809Y-113684819D02*
X67878571Y-113827676D01*
X67878571Y-113827676D02*
X67783333Y-113922914D01*
X67783333Y-113922914D02*
X67688095Y-113970533D01*
X68592857Y-113684819D02*
X69211904Y-113684819D01*
X69211904Y-113684819D02*
X68878571Y-114065771D01*
X68878571Y-114065771D02*
X69021428Y-114065771D01*
X69021428Y-114065771D02*
X69116666Y-114113390D01*
X69116666Y-114113390D02*
X69164285Y-114161009D01*
X69164285Y-114161009D02*
X69211904Y-114256247D01*
X69211904Y-114256247D02*
X69211904Y-114494342D01*
X69211904Y-114494342D02*
X69164285Y-114589580D01*
X69164285Y-114589580D02*
X69116666Y-114637200D01*
X69116666Y-114637200D02*
X69021428Y-114684819D01*
X69021428Y-114684819D02*
X68735714Y-114684819D01*
X68735714Y-114684819D02*
X68640476Y-114637200D01*
X68640476Y-114637200D02*
X68592857Y-114589580D01*
X52436666Y-88601009D02*
X52103333Y-88601009D01*
X52103333Y-89124819D02*
X52103333Y-88124819D01*
X52103333Y-88124819D02*
X52579523Y-88124819D01*
X52912857Y-88220057D02*
X52960476Y-88172438D01*
X52960476Y-88172438D02*
X53055714Y-88124819D01*
X53055714Y-88124819D02*
X53293809Y-88124819D01*
X53293809Y-88124819D02*
X53389047Y-88172438D01*
X53389047Y-88172438D02*
X53436666Y-88220057D01*
X53436666Y-88220057D02*
X53484285Y-88315295D01*
X53484285Y-88315295D02*
X53484285Y-88410533D01*
X53484285Y-88410533D02*
X53436666Y-88553390D01*
X53436666Y-88553390D02*
X52865238Y-89124819D01*
X52865238Y-89124819D02*
X53484285Y-89124819D01*
X7041905Y-38684819D02*
X7041905Y-37684819D01*
X7041905Y-37684819D02*
X7422857Y-37684819D01*
X7422857Y-37684819D02*
X7518095Y-37732438D01*
X7518095Y-37732438D02*
X7565714Y-37780057D01*
X7565714Y-37780057D02*
X7613333Y-37875295D01*
X7613333Y-37875295D02*
X7613333Y-38018152D01*
X7613333Y-38018152D02*
X7565714Y-38113390D01*
X7565714Y-38113390D02*
X7518095Y-38161009D01*
X7518095Y-38161009D02*
X7422857Y-38208628D01*
X7422857Y-38208628D02*
X7041905Y-38208628D01*
X7994286Y-37780057D02*
X8041905Y-37732438D01*
X8041905Y-37732438D02*
X8137143Y-37684819D01*
X8137143Y-37684819D02*
X8375238Y-37684819D01*
X8375238Y-37684819D02*
X8470476Y-37732438D01*
X8470476Y-37732438D02*
X8518095Y-37780057D01*
X8518095Y-37780057D02*
X8565714Y-37875295D01*
X8565714Y-37875295D02*
X8565714Y-37970533D01*
X8565714Y-37970533D02*
X8518095Y-38113390D01*
X8518095Y-38113390D02*
X7946667Y-38684819D01*
X7946667Y-38684819D02*
X8565714Y-38684819D01*
X126707142Y-38769580D02*
X126659523Y-38817200D01*
X126659523Y-38817200D02*
X126516666Y-38864819D01*
X126516666Y-38864819D02*
X126421428Y-38864819D01*
X126421428Y-38864819D02*
X126278571Y-38817200D01*
X126278571Y-38817200D02*
X126183333Y-38721961D01*
X126183333Y-38721961D02*
X126135714Y-38626723D01*
X126135714Y-38626723D02*
X126088095Y-38436247D01*
X126088095Y-38436247D02*
X126088095Y-38293390D01*
X126088095Y-38293390D02*
X126135714Y-38102914D01*
X126135714Y-38102914D02*
X126183333Y-38007676D01*
X126183333Y-38007676D02*
X126278571Y-37912438D01*
X126278571Y-37912438D02*
X126421428Y-37864819D01*
X126421428Y-37864819D02*
X126516666Y-37864819D01*
X126516666Y-37864819D02*
X126659523Y-37912438D01*
X126659523Y-37912438D02*
X126707142Y-37960057D01*
X127659523Y-38864819D02*
X127088095Y-38864819D01*
X127373809Y-38864819D02*
X127373809Y-37864819D01*
X127373809Y-37864819D02*
X127278571Y-38007676D01*
X127278571Y-38007676D02*
X127183333Y-38102914D01*
X127183333Y-38102914D02*
X127088095Y-38150533D01*
X128564285Y-37864819D02*
X128088095Y-37864819D01*
X128088095Y-37864819D02*
X128040476Y-38341009D01*
X128040476Y-38341009D02*
X128088095Y-38293390D01*
X128088095Y-38293390D02*
X128183333Y-38245771D01*
X128183333Y-38245771D02*
X128421428Y-38245771D01*
X128421428Y-38245771D02*
X128516666Y-38293390D01*
X128516666Y-38293390D02*
X128564285Y-38341009D01*
X128564285Y-38341009D02*
X128611904Y-38436247D01*
X128611904Y-38436247D02*
X128611904Y-38674342D01*
X128611904Y-38674342D02*
X128564285Y-38769580D01*
X128564285Y-38769580D02*
X128516666Y-38817200D01*
X128516666Y-38817200D02*
X128421428Y-38864819D01*
X128421428Y-38864819D02*
X128183333Y-38864819D01*
X128183333Y-38864819D02*
X128088095Y-38817200D01*
X128088095Y-38817200D02*
X128040476Y-38769580D01*
X126747142Y-28029580D02*
X126699523Y-28077200D01*
X126699523Y-28077200D02*
X126556666Y-28124819D01*
X126556666Y-28124819D02*
X126461428Y-28124819D01*
X126461428Y-28124819D02*
X126318571Y-28077200D01*
X126318571Y-28077200D02*
X126223333Y-27981961D01*
X126223333Y-27981961D02*
X126175714Y-27886723D01*
X126175714Y-27886723D02*
X126128095Y-27696247D01*
X126128095Y-27696247D02*
X126128095Y-27553390D01*
X126128095Y-27553390D02*
X126175714Y-27362914D01*
X126175714Y-27362914D02*
X126223333Y-27267676D01*
X126223333Y-27267676D02*
X126318571Y-27172438D01*
X126318571Y-27172438D02*
X126461428Y-27124819D01*
X126461428Y-27124819D02*
X126556666Y-27124819D01*
X126556666Y-27124819D02*
X126699523Y-27172438D01*
X126699523Y-27172438D02*
X126747142Y-27220057D01*
X127699523Y-28124819D02*
X127128095Y-28124819D01*
X127413809Y-28124819D02*
X127413809Y-27124819D01*
X127413809Y-27124819D02*
X127318571Y-27267676D01*
X127318571Y-27267676D02*
X127223333Y-27362914D01*
X127223333Y-27362914D02*
X127128095Y-27410533D01*
X128556666Y-27458152D02*
X128556666Y-28124819D01*
X128318571Y-27077200D02*
X128080476Y-27791485D01*
X128080476Y-27791485D02*
X128699523Y-27791485D01*
X7041905Y-69314819D02*
X7041905Y-68314819D01*
X7041905Y-68314819D02*
X7422857Y-68314819D01*
X7422857Y-68314819D02*
X7518095Y-68362438D01*
X7518095Y-68362438D02*
X7565714Y-68410057D01*
X7565714Y-68410057D02*
X7613333Y-68505295D01*
X7613333Y-68505295D02*
X7613333Y-68648152D01*
X7613333Y-68648152D02*
X7565714Y-68743390D01*
X7565714Y-68743390D02*
X7518095Y-68791009D01*
X7518095Y-68791009D02*
X7422857Y-68838628D01*
X7422857Y-68838628D02*
X7041905Y-68838628D01*
X8518095Y-68314819D02*
X8041905Y-68314819D01*
X8041905Y-68314819D02*
X7994286Y-68791009D01*
X7994286Y-68791009D02*
X8041905Y-68743390D01*
X8041905Y-68743390D02*
X8137143Y-68695771D01*
X8137143Y-68695771D02*
X8375238Y-68695771D01*
X8375238Y-68695771D02*
X8470476Y-68743390D01*
X8470476Y-68743390D02*
X8518095Y-68791009D01*
X8518095Y-68791009D02*
X8565714Y-68886247D01*
X8565714Y-68886247D02*
X8565714Y-69124342D01*
X8565714Y-69124342D02*
X8518095Y-69219580D01*
X8518095Y-69219580D02*
X8470476Y-69267200D01*
X8470476Y-69267200D02*
X8375238Y-69314819D01*
X8375238Y-69314819D02*
X8137143Y-69314819D01*
X8137143Y-69314819D02*
X8041905Y-69267200D01*
X8041905Y-69267200D02*
X7994286Y-69219580D01*
X69566666Y-88601009D02*
X69233333Y-88601009D01*
X69233333Y-89124819D02*
X69233333Y-88124819D01*
X69233333Y-88124819D02*
X69709523Y-88124819D01*
X69995238Y-88124819D02*
X70614285Y-88124819D01*
X70614285Y-88124819D02*
X70280952Y-88505771D01*
X70280952Y-88505771D02*
X70423809Y-88505771D01*
X70423809Y-88505771D02*
X70519047Y-88553390D01*
X70519047Y-88553390D02*
X70566666Y-88601009D01*
X70566666Y-88601009D02*
X70614285Y-88696247D01*
X70614285Y-88696247D02*
X70614285Y-88934342D01*
X70614285Y-88934342D02*
X70566666Y-89029580D01*
X70566666Y-89029580D02*
X70519047Y-89077200D01*
X70519047Y-89077200D02*
X70423809Y-89124819D01*
X70423809Y-89124819D02*
X70138095Y-89124819D01*
X70138095Y-89124819D02*
X70042857Y-89077200D01*
X70042857Y-89077200D02*
X69995238Y-89029580D01*
%TO.C,D3*%
D12*
X120570000Y-86750000D02*
X120570000Y-88670000D01*
X120570000Y-94830000D02*
X120570000Y-92910000D01*
X121690000Y-89270000D02*
X119450000Y-89270000D01*
X121690000Y-89390000D02*
X119450000Y-89390000D01*
X121690000Y-89510000D02*
X119450000Y-89510000D01*
X119450000Y-88670000D02*
X121690000Y-88670000D01*
X121690000Y-92910000D01*
X119450000Y-92910000D01*
X119450000Y-88670000D01*
%TO.C,C3*%
X43142918Y-41615000D02*
X44392918Y-41615000D01*
X43767918Y-40990000D02*
X43767918Y-42240000D01*
D13*
X54599000Y-42291000D02*
G75*
G02*
X54599000Y-48089000I-4641180J-2899000D01*
G01*
D12*
X56330000Y-45190000D02*
G75*
G02*
X43590000Y-45190000I-6370000J0D01*
G01*
X43590000Y-45190000D02*
G75*
G02*
X56330000Y-45190000I6370000J0D01*
G01*
%TO.C,F1*%
X20440000Y-73620000D02*
X27440000Y-73620000D01*
X27440000Y-103720000D01*
X20440000Y-103720000D01*
X20440000Y-73620000D01*
%TO.C,R1*%
X98500000Y-63080000D02*
X98830000Y-63080000D01*
X98500000Y-69620000D02*
X98500000Y-63080000D01*
X98830000Y-69620000D02*
X98500000Y-69620000D01*
X100910000Y-69620000D02*
X101240000Y-69620000D01*
X101240000Y-63080000D02*
X100910000Y-63080000D01*
X101240000Y-69620000D02*
X101240000Y-63080000D01*
%TO.C,R5*%
X92830000Y-48170000D02*
X92830000Y-48940000D01*
X92830000Y-56250000D02*
X92830000Y-55480000D01*
X91460000Y-48940000D02*
X94200000Y-48940000D01*
X94200000Y-55480000D01*
X91460000Y-55480000D01*
X91460000Y-48940000D01*
%TO.C,C4*%
X42350000Y-53630000D02*
X52890000Y-53630000D01*
X42350000Y-58870000D02*
X42350000Y-53630000D01*
X52890000Y-53630000D02*
X52890000Y-58870000D01*
X52890000Y-58870000D02*
X42350000Y-58870000D01*
%TO.C,C1*%
X19370000Y-41040000D02*
X28110000Y-41040000D01*
X19370000Y-67780000D02*
X19370000Y-41040000D01*
X28110000Y-41040000D02*
X28110000Y-67780000D01*
X28110000Y-67780000D02*
X19370000Y-67780000D01*
%TO.C,C11*%
X79060354Y-27385000D02*
X80060354Y-27385000D01*
X79560354Y-26885000D02*
X79560354Y-27885000D01*
D13*
X88119000Y-28024000D02*
G75*
G02*
X88119000Y-32496000I-3579420J-2236000D01*
G01*
D12*
X89660000Y-30260000D02*
G75*
G02*
X79420000Y-30260000I-5120000J0D01*
G01*
X79420000Y-30260000D02*
G75*
G02*
X89660000Y-30260000I5120000J0D01*
G01*
%TO.C,C2*%
X36900000Y-30320000D02*
X50140000Y-30320000D01*
X36900000Y-34560000D02*
X36900000Y-30320000D01*
X50140000Y-30320000D02*
X50140000Y-34560000D01*
X50140000Y-34560000D02*
X36900000Y-34560000D01*
%TO.C,D2*%
X62286000Y-64669000D02*
X62286000Y-70511000D01*
X63429000Y-63526000D02*
G75*
G02*
X62286000Y-70511000I2921000J-4064000D01*
G01*
%TO.C,F4*%
X83810000Y-73620000D02*
X90810000Y-73620000D01*
X90810000Y-103720000D01*
X83810000Y-103720000D01*
X83810000Y-73620000D01*
%TO.C,C12*%
X112065000Y-30210509D02*
X112065000Y-31810509D01*
X112865000Y-31010509D02*
X111265000Y-31010509D01*
D13*
X111336000Y-45023000D02*
G75*
G02*
X103684000Y-45023000I-3826000J6123460D01*
G01*
D12*
X115630000Y-38900000D02*
G75*
G02*
X99390000Y-38900000I-8120000J0D01*
G01*
X99390000Y-38900000D02*
G75*
G02*
X115630000Y-38900000I8120000J0D01*
G01*
%TO.C,C8*%
X81450000Y-43920000D02*
X84690000Y-43920000D01*
X81450000Y-44068000D02*
X81450000Y-43920000D01*
X81450000Y-46160000D02*
X81450000Y-46012000D01*
X84690000Y-43920000D02*
X84690000Y-44068000D01*
X84690000Y-46012000D02*
X84690000Y-46160000D01*
X84690000Y-46160000D02*
X81450000Y-46160000D01*
%TO.C,R7*%
X53790000Y-26440000D02*
X54560000Y-26440000D01*
X61870000Y-26440000D02*
X61100000Y-26440000D01*
X54560000Y-25070000D02*
X61100000Y-25070000D01*
X61100000Y-27810000D01*
X54560000Y-27810000D01*
X54560000Y-25070000D01*
%TO.C,C5*%
X67050000Y-35900000D02*
X77590000Y-35900000D01*
X67050000Y-41140000D02*
X67050000Y-35900000D01*
X77590000Y-35900000D02*
X77590000Y-41140000D01*
X77590000Y-41140000D02*
X67050000Y-41140000D01*
%TO.C,C9*%
X90080000Y-60640000D02*
X95320000Y-60640000D01*
X90080000Y-71180000D02*
X90080000Y-60640000D01*
X95320000Y-60640000D02*
X95320000Y-71180000D01*
X95320000Y-71180000D02*
X90080000Y-71180000D01*
%TO.C,IC1*%
X29490000Y-25430000D02*
X39710000Y-25430000D01*
X29490000Y-26810000D02*
X39710000Y-26810000D01*
X29490000Y-30050000D02*
X29490000Y-25430000D01*
X32750000Y-25430000D02*
X32750000Y-26810000D01*
X36450000Y-25430000D02*
X36450000Y-26810000D01*
X39710000Y-25430000D02*
X39710000Y-30050000D01*
X39710000Y-30050000D02*
X29490000Y-30050000D01*
%TO.C,R6*%
X93020000Y-29640000D02*
X93350000Y-29640000D01*
X93020000Y-36180000D02*
X93020000Y-29640000D01*
X93350000Y-36180000D02*
X93020000Y-36180000D01*
X95430000Y-36180000D02*
X95760000Y-36180000D01*
X95760000Y-29640000D02*
X95430000Y-29640000D01*
X95760000Y-36180000D02*
X95760000Y-29640000D01*
%TO.C,D4*%
X125160000Y-86350000D02*
X125160000Y-88270000D01*
X125160000Y-94430000D02*
X125160000Y-92510000D01*
X126280000Y-88870000D02*
X124040000Y-88870000D01*
X126280000Y-88990000D02*
X124040000Y-88990000D01*
X126280000Y-89110000D02*
X124040000Y-89110000D01*
X124040000Y-88270000D02*
X126280000Y-88270000D01*
X126280000Y-92510000D01*
X124040000Y-92510000D01*
X124040000Y-88270000D01*
%TO.C,R4*%
X82620000Y-42500000D02*
X83390000Y-42500000D01*
X90700000Y-42500000D02*
X89930000Y-42500000D01*
X83390000Y-41130000D02*
X89930000Y-41130000D01*
X89930000Y-43870000D01*
X83390000Y-43870000D01*
X83390000Y-41130000D01*
%TO.C,C6*%
X80460000Y-35500000D02*
X91000000Y-35500000D01*
X80460000Y-40740000D02*
X80460000Y-35500000D01*
X91000000Y-35500000D02*
X91000000Y-40740000D01*
X91000000Y-40740000D02*
X80460000Y-40740000D01*
%TO.C,R3*%
X70150000Y-42500000D02*
X70920000Y-42500000D01*
X78230000Y-42500000D02*
X77460000Y-42500000D01*
X70920000Y-41130000D02*
X77460000Y-41130000D01*
X77460000Y-43870000D01*
X70920000Y-43870000D01*
X70920000Y-41130000D01*
%TO.C,C10*%
X71620000Y-60550000D02*
X76860000Y-60550000D01*
X71620000Y-71090000D02*
X71620000Y-60550000D01*
X76860000Y-60550000D02*
X76860000Y-71090000D01*
X76860000Y-71090000D02*
X71620000Y-71090000D01*
%TO.C,Q1*%
X66320000Y-23230000D02*
X76540000Y-23230000D01*
X66320000Y-24610000D02*
X76540000Y-24610000D01*
X66320000Y-27850000D02*
X66320000Y-23230000D01*
X69580000Y-23230000D02*
X69580000Y-24610000D01*
X73280000Y-23230000D02*
X73280000Y-24610000D01*
X76540000Y-23230000D02*
X76540000Y-27850000D01*
X76540000Y-27850000D02*
X66320000Y-27850000D01*
%TO.C,C7*%
X74050000Y-45470000D02*
X79290000Y-45470000D01*
X74050000Y-45807000D02*
X74050000Y-45470000D01*
X74050000Y-48210000D02*
X74050000Y-47873000D01*
X79290000Y-45470000D02*
X79290000Y-45807000D01*
X79290000Y-47873000D02*
X79290000Y-48210000D01*
X79290000Y-48210000D02*
X74050000Y-48210000D01*
%TO.C,D1*%
X41356000Y-62269000D02*
X41356000Y-68111000D01*
X42499000Y-61126000D02*
G75*
G02*
X41356000Y-68111000I2921000J-4064000D01*
G01*
%TO.C,R2*%
X68400000Y-46990000D02*
X68400000Y-47760000D01*
X68400000Y-55070000D02*
X68400000Y-54300000D01*
X67030000Y-47760000D02*
X69770000Y-47760000D01*
X69770000Y-54300000D01*
X67030000Y-54300000D01*
X67030000Y-47760000D01*
%TO.C,Q2*%
X102730000Y-24030000D02*
X112950000Y-24030000D01*
X102730000Y-25410000D02*
X112950000Y-25410000D01*
X102730000Y-28650000D02*
X102730000Y-24030000D01*
X105990000Y-24030000D02*
X105990000Y-25410000D01*
X109690000Y-24030000D02*
X109690000Y-25410000D01*
X112950000Y-24030000D02*
X112950000Y-28650000D01*
X112950000Y-28650000D02*
X102730000Y-28650000D01*
%TO.C,IC2*%
X81200000Y-49820000D02*
X81200000Y-67720000D01*
X81200000Y-67720000D02*
X86500000Y-67720000D01*
X82850000Y-49820000D02*
X81200000Y-49820000D01*
X86500000Y-49820000D02*
X84850000Y-49820000D01*
X86500000Y-67720000D02*
X86500000Y-49820000D01*
X84850000Y-49820000D02*
G75*
G02*
X82850000Y-49820000I-1000000J0D01*
G01*
%TO.C,C13*%
X113025000Y-50370509D02*
X113025000Y-51970509D01*
X113825000Y-51170509D02*
X112225000Y-51170509D01*
D13*
X112296000Y-65183000D02*
G75*
G02*
X104644000Y-65183000I-3826000J6123460D01*
G01*
D12*
X116590000Y-59060000D02*
G75*
G02*
X100350000Y-59060000I-8120000J0D01*
G01*
X100350000Y-59060000D02*
G75*
G02*
X116590000Y-59060000I8120000J0D01*
G01*
%TO.C,C16*%
X123745000Y-55365225D02*
X123745000Y-55865225D01*
X123995000Y-55615225D02*
X123495000Y-55615225D01*
D14*
X123393000Y-59968000D02*
G75*
G02*
X121147000Y-59968000I-1123000J1797270D01*
G01*
D12*
X124890000Y-58170000D02*
G75*
G02*
X119650000Y-58170000I-2620000J0D01*
G01*
X119650000Y-58170000D02*
G75*
G02*
X124890000Y-58170000I2620000J0D01*
G01*
%TO.C,F2*%
X49270000Y-73620000D02*
X56270000Y-73620000D01*
X56270000Y-103720000D01*
X49270000Y-103720000D01*
X49270000Y-73620000D01*
%TO.C,C15*%
X124145000Y-35605225D02*
X124145000Y-36105225D01*
X124395000Y-35855225D02*
X123895000Y-35855225D01*
D14*
X123793000Y-40208000D02*
G75*
G02*
X121547000Y-40208000I-1123000J1797270D01*
G01*
D12*
X125290000Y-38410000D02*
G75*
G02*
X120050000Y-38410000I-2620000J0D01*
G01*
X120050000Y-38410000D02*
G75*
G02*
X125290000Y-38410000I2620000J0D01*
G01*
%TO.C,C14*%
X124185000Y-24865225D02*
X124185000Y-25365225D01*
X124435000Y-25115225D02*
X123935000Y-25115225D01*
D14*
X123833000Y-29468000D02*
G75*
G02*
X121587000Y-29468000I-1123000J1797270D01*
G01*
D12*
X125330000Y-27670000D02*
G75*
G02*
X120090000Y-27670000I-2620000J0D01*
G01*
X120090000Y-27670000D02*
G75*
G02*
X125330000Y-27670000I2620000J0D01*
G01*
%TO.C,F3*%
X66400000Y-73620000D02*
X73400000Y-73620000D01*
X73400000Y-103720000D01*
X66400000Y-103720000D01*
X66400000Y-73620000D01*
%TD*%
M02*
