%TF.GenerationSoftware,KiCad,Pcbnew,10.0.2*%
%TF.CreationDate,2026-10-07T13:16:22+02:00*%
%TF.ProjectId,TR-808PSU_Rev0.1,54522d38-3038-4505-9355-5f526576302e,0.1*%
%TF.SameCoordinates,Original*%
%TF.FileFunction,Drillmap*%
%TF.FilePolarity,Positive*%
%FSLAX45Y45*%
G04 Gerber Fmt 4.5, Leading zero omitted, Abs format (unit mm)*
G04 Created by KiCad (PCBNEW 10.0.2) date 2026-10-07 13:16:22*
%MOMM*%
%LPD*%
G01*
G04 APERTURE LIST*
%ADD10C,0.100000*%
%ADD11C,0.200000*%
%ADD12C,0.110000*%
%ADD13C,0.120000*%
%ADD14C,0.160000*%
G04 APERTURE END LIST*
D10*
X1984000Y-2064500D02*
X16274000Y-2064500D01*
X1984000Y-14004500D02*
X1984000Y-2064500D01*
X16274000Y-2064500D02*
X16274000Y-14004500D01*
X16274000Y-14004500D02*
X1984000Y-14004500D01*
D11*
D10*
X7747500Y-7002500D02*
X7777500Y-7032500D01*
X7777500Y-7002500D02*
X7747500Y-7032500D01*
X9591000Y-9434000D02*
X9621000Y-9464000D01*
X9621000Y-9434000D02*
X9591000Y-9464000D01*
X9779500Y-8844000D02*
X9809500Y-8874000D01*
X9809500Y-8844000D02*
X9779500Y-8874000D01*
X10033500Y-10558500D02*
X10063500Y-10588500D01*
X10063500Y-10558500D02*
X10033500Y-10588500D01*
X10478000Y-6812000D02*
X10508000Y-6842000D01*
X10508000Y-6812000D02*
X10478000Y-6842000D01*
X7298000Y-4729000D02*
G75*
G02*
X7218000Y-4729000I-40000J0D01*
G01*
X7218000Y-4729000D02*
G75*
G02*
X7298000Y-4729000I40000J0D01*
G01*
X8314000Y-4729000D02*
G75*
G02*
X8234000Y-4729000I-40000J0D01*
G01*
X8234000Y-4729000D02*
G75*
G02*
X8314000Y-4729000I40000J0D01*
G01*
X8864000Y-6659500D02*
G75*
G02*
X8784000Y-6659500I-40000J0D01*
G01*
X8784000Y-6659500D02*
G75*
G02*
X8864000Y-6659500I40000J0D01*
G01*
X8864000Y-7675500D02*
G75*
G02*
X8784000Y-7675500I-40000J0D01*
G01*
X8784000Y-7675500D02*
G75*
G02*
X8864000Y-7675500I40000J0D01*
G01*
X8935000Y-6314500D02*
G75*
G02*
X8855000Y-6314500I-40000J0D01*
G01*
X8855000Y-6314500D02*
G75*
G02*
X8935000Y-6314500I40000J0D01*
G01*
X9441000Y-6748500D02*
G75*
G02*
X9361000Y-6748500I-40000J0D01*
G01*
X9361000Y-6748500D02*
G75*
G02*
X9441000Y-6748500I40000J0D01*
G01*
X9941000Y-6748500D02*
G75*
G02*
X9861000Y-6748500I-40000J0D01*
G01*
X9861000Y-6748500D02*
G75*
G02*
X9941000Y-6748500I40000J0D01*
G01*
X9951000Y-6314500D02*
G75*
G02*
X9871000Y-6314500I-40000J0D01*
G01*
X9871000Y-6314500D02*
G75*
G02*
X9951000Y-6314500I40000J0D01*
G01*
X10028000Y-7179500D02*
G75*
G02*
X9948000Y-7179500I-40000J0D01*
G01*
X9948000Y-7179500D02*
G75*
G02*
X10028000Y-7179500I40000J0D01*
G01*
X10028000Y-7433500D02*
G75*
G02*
X9948000Y-7433500I-40000J0D01*
G01*
X9948000Y-7433500D02*
G75*
G02*
X10028000Y-7433500I40000J0D01*
G01*
X10028000Y-7687500D02*
G75*
G02*
X9948000Y-7687500I-40000J0D01*
G01*
X9948000Y-7687500D02*
G75*
G02*
X10028000Y-7687500I40000J0D01*
G01*
X10028000Y-7941500D02*
G75*
G02*
X9948000Y-7941500I-40000J0D01*
G01*
X9948000Y-7941500D02*
G75*
G02*
X10028000Y-7941500I40000J0D01*
G01*
X10028000Y-8195500D02*
G75*
G02*
X9948000Y-8195500I-40000J0D01*
G01*
X9948000Y-8195500D02*
G75*
G02*
X10028000Y-8195500I40000J0D01*
G01*
X10028000Y-8449500D02*
G75*
G02*
X9948000Y-8449500I-40000J0D01*
G01*
X9948000Y-8449500D02*
G75*
G02*
X10028000Y-8449500I40000J0D01*
G01*
X10028000Y-8703500D02*
G75*
G02*
X9948000Y-8703500I-40000J0D01*
G01*
X9948000Y-8703500D02*
G75*
G02*
X10028000Y-8703500I40000J0D01*
G01*
X10182000Y-6314500D02*
G75*
G02*
X10102000Y-6314500I-40000J0D01*
G01*
X10102000Y-6314500D02*
G75*
G02*
X10182000Y-6314500I40000J0D01*
G01*
X10206000Y-6599000D02*
G75*
G02*
X10126000Y-6599000I-40000J0D01*
G01*
X10126000Y-6599000D02*
G75*
G02*
X10206000Y-6599000I40000J0D01*
G01*
X10456000Y-6599000D02*
G75*
G02*
X10376000Y-6599000I-40000J0D01*
G01*
X10376000Y-6599000D02*
G75*
G02*
X10456000Y-6599000I40000J0D01*
G01*
X10790000Y-7179500D02*
G75*
G02*
X10710000Y-7179500I-40000J0D01*
G01*
X10710000Y-7179500D02*
G75*
G02*
X10790000Y-7179500I40000J0D01*
G01*
X10790000Y-7433500D02*
G75*
G02*
X10710000Y-7433500I-40000J0D01*
G01*
X10710000Y-7433500D02*
G75*
G02*
X10790000Y-7433500I40000J0D01*
G01*
X10790000Y-7687500D02*
G75*
G02*
X10710000Y-7687500I-40000J0D01*
G01*
X10710000Y-7687500D02*
G75*
G02*
X10790000Y-7687500I40000J0D01*
G01*
X10790000Y-7941500D02*
G75*
G02*
X10710000Y-7941500I-40000J0D01*
G01*
X10710000Y-7941500D02*
G75*
G02*
X10790000Y-7941500I40000J0D01*
G01*
X10790000Y-8195500D02*
G75*
G02*
X10710000Y-8195500I-40000J0D01*
G01*
X10710000Y-8195500D02*
G75*
G02*
X10790000Y-8195500I40000J0D01*
G01*
X10790000Y-8449500D02*
G75*
G02*
X10710000Y-8449500I-40000J0D01*
G01*
X10710000Y-8449500D02*
G75*
G02*
X10790000Y-8449500I40000J0D01*
G01*
X10790000Y-8703500D02*
G75*
G02*
X10710000Y-8703500I-40000J0D01*
G01*
X10710000Y-8703500D02*
G75*
G02*
X10790000Y-8703500I40000J0D01*
G01*
X11198000Y-6314500D02*
G75*
G02*
X11118000Y-6314500I-40000J0D01*
G01*
X11118000Y-6314500D02*
G75*
G02*
X11198000Y-6314500I40000J0D01*
G01*
X11307000Y-6777500D02*
G75*
G02*
X11227000Y-6777500I-40000J0D01*
G01*
X11227000Y-6777500D02*
G75*
G02*
X11307000Y-6777500I40000J0D01*
G01*
X11307000Y-7793500D02*
G75*
G02*
X11227000Y-7793500I-40000J0D01*
G01*
X11227000Y-7793500D02*
G75*
G02*
X11307000Y-7793500I40000J0D01*
G01*
X11463000Y-4974500D02*
G75*
G02*
X11383000Y-4974500I-40000J0D01*
G01*
X11383000Y-4974500D02*
G75*
G02*
X11463000Y-4974500I40000J0D01*
G01*
X11463000Y-5736500D02*
G75*
G02*
X11383000Y-5736500I-40000J0D01*
G01*
X11383000Y-5736500D02*
G75*
G02*
X11463000Y-5736500I40000J0D01*
G01*
X12011000Y-8318500D02*
G75*
G02*
X11931000Y-8318500I-40000J0D01*
G01*
X11931000Y-8318500D02*
G75*
G02*
X12011000Y-8318500I40000J0D01*
G01*
X12011000Y-9080500D02*
G75*
G02*
X11931000Y-9080500I-40000J0D01*
G01*
X11931000Y-9080500D02*
G75*
G02*
X12011000Y-9080500I40000J0D01*
G01*
X14076000Y-10599000D02*
G75*
G02*
X13996000Y-10599000I-40000J0D01*
G01*
X13996000Y-10599000D02*
G75*
G02*
X14076000Y-10599000I40000J0D01*
G01*
X14076000Y-11615000D02*
G75*
G02*
X13996000Y-11615000I-40000J0D01*
G01*
X13996000Y-11615000D02*
G75*
G02*
X14076000Y-11615000I40000J0D01*
G01*
X14251000Y-7756500D02*
G75*
G02*
X14171000Y-7756500I-40000J0D01*
G01*
X14171000Y-7756500D02*
G75*
G02*
X14251000Y-7756500I40000J0D01*
G01*
X14251000Y-8006500D02*
G75*
G02*
X14171000Y-8006500I-40000J0D01*
G01*
X14171000Y-8006500D02*
G75*
G02*
X14251000Y-8006500I40000J0D01*
G01*
X14291000Y-5780500D02*
G75*
G02*
X14211000Y-5780500I-40000J0D01*
G01*
X14211000Y-5780500D02*
G75*
G02*
X14291000Y-5780500I40000J0D01*
G01*
X14291000Y-6030500D02*
G75*
G02*
X14211000Y-6030500I-40000J0D01*
G01*
X14211000Y-6030500D02*
G75*
G02*
X14291000Y-6030500I40000J0D01*
G01*
X14295000Y-4706500D02*
G75*
G02*
X14215000Y-4706500I-40000J0D01*
G01*
X14215000Y-4706500D02*
G75*
G02*
X14295000Y-4706500I40000J0D01*
G01*
X14295000Y-4956500D02*
G75*
G02*
X14215000Y-4956500I-40000J0D01*
G01*
X14215000Y-4956500D02*
G75*
G02*
X14295000Y-4956500I40000J0D01*
G01*
X14540000Y-10595500D02*
G75*
G02*
X14460000Y-10595500I-40000J0D01*
G01*
X14460000Y-10595500D02*
G75*
G02*
X14540000Y-10595500I40000J0D01*
G01*
X14540000Y-11611500D02*
G75*
G02*
X14460000Y-11611500I-40000J0D01*
G01*
X14460000Y-11611500D02*
G75*
G02*
X14540000Y-11611500I40000J0D01*
G01*
X5836000Y-5258500D02*
X5836000Y-5358500D01*
X5786000Y-5308500D02*
X5886000Y-5308500D01*
X6272000Y-8279500D02*
X6272000Y-8379500D01*
X6222000Y-8329500D02*
X6322000Y-8329500D01*
X6272000Y-8787500D02*
X6272000Y-8887500D01*
X6222000Y-8837500D02*
X6322000Y-8837500D01*
X6371000Y-7639500D02*
X6371000Y-7739500D01*
X6321000Y-7689500D02*
X6421000Y-7689500D01*
X6780000Y-8279500D02*
X6780000Y-8379500D01*
X6730000Y-8329500D02*
X6830000Y-8329500D01*
X6780000Y-8787500D02*
X6780000Y-8887500D01*
X6730000Y-8837500D02*
X6830000Y-8837500D01*
X6836000Y-5258500D02*
X6836000Y-5358500D01*
X6786000Y-5308500D02*
X6886000Y-5308500D01*
X7121000Y-7639500D02*
X7121000Y-7739500D01*
X7071000Y-7689500D02*
X7171000Y-7689500D01*
X8365000Y-8519500D02*
X8365000Y-8619500D01*
X8315000Y-8569500D02*
X8415000Y-8569500D01*
X8365000Y-9027500D02*
X8365000Y-9127500D01*
X8315000Y-9077500D02*
X8415000Y-9077500D01*
X8841000Y-5866500D02*
X8841000Y-5966500D01*
X8791000Y-5916500D02*
X8891000Y-5916500D01*
X8873000Y-8519500D02*
X8873000Y-8619500D01*
X8823000Y-8569500D02*
X8923000Y-8569500D01*
X8873000Y-9027500D02*
X8873000Y-9127500D01*
X8823000Y-9077500D02*
X8923000Y-9077500D01*
X9408000Y-8221500D02*
X9408000Y-8321500D01*
X9358000Y-8271500D02*
X9458000Y-8271500D01*
X9408000Y-8971500D02*
X9408000Y-9071500D01*
X9358000Y-9021500D02*
X9458000Y-9021500D01*
X9591000Y-5866500D02*
X9591000Y-5966500D01*
X9541000Y-5916500D02*
X9641000Y-5916500D01*
X10182000Y-5826500D02*
X10182000Y-5926500D01*
X10132000Y-5876500D02*
X10232000Y-5876500D01*
X10188000Y-5040500D02*
X10188000Y-5140500D01*
X10138000Y-5090500D02*
X10238000Y-5090500D01*
X10688000Y-5040500D02*
X10688000Y-5140500D01*
X10638000Y-5090500D02*
X10738000Y-5090500D01*
X10932000Y-5826500D02*
X10932000Y-5926500D01*
X10882000Y-5876500D02*
X10982000Y-5876500D01*
X11254000Y-8230500D02*
X11254000Y-8330500D01*
X11204000Y-8280500D02*
X11304000Y-8280500D01*
X11254000Y-8980500D02*
X11254000Y-9080500D01*
X11204000Y-9030500D02*
X11304000Y-9030500D01*
D12*
X5228891Y-4752391D02*
X5228891Y-4674609D01*
X5151109Y-4674609D01*
X5151109Y-4752391D01*
X5228891Y-4752391D01*
X5482891Y-4752391D02*
X5482891Y-4674609D01*
X5405109Y-4674609D01*
X5405109Y-4752391D01*
X5482891Y-4752391D01*
X5736891Y-4752391D02*
X5736891Y-4674609D01*
X5659109Y-4674609D01*
X5659109Y-4752391D01*
X5736891Y-4752391D01*
X8911891Y-4752391D02*
X8911891Y-4674609D01*
X8834109Y-4674609D01*
X8834109Y-4752391D01*
X8911891Y-4752391D01*
X9165891Y-4752391D02*
X9165891Y-4674609D01*
X9088109Y-4674609D01*
X9088109Y-4752391D01*
X9165891Y-4752391D01*
X9419891Y-4752391D02*
X9419891Y-4674609D01*
X9342109Y-4674609D01*
X9342109Y-4752391D01*
X9419891Y-4752391D01*
X12552891Y-4752391D02*
X12552891Y-4674609D01*
X12475109Y-4674609D01*
X12475109Y-4752391D01*
X12552891Y-4752391D01*
X12806891Y-4752391D02*
X12806891Y-4674609D01*
X12729109Y-4674609D01*
X12729109Y-4752391D01*
X12806891Y-4752391D01*
X13060891Y-4752391D02*
X13060891Y-4674609D01*
X12983109Y-4674609D01*
X12983109Y-4752391D01*
X13060891Y-4752391D01*
D13*
X4358000Y-6440500D02*
X4418000Y-6380500D01*
X4358000Y-6320500D01*
X4298000Y-6380500D01*
X4358000Y-6440500D01*
X4358000Y-8690500D02*
X4418000Y-8630500D01*
X4358000Y-8570500D01*
X4298000Y-8630500D01*
X4358000Y-8690500D01*
X6730000Y-6643500D02*
X6790000Y-6583500D01*
X6730000Y-6523500D01*
X6670000Y-6583500D01*
X6730000Y-6643500D01*
X7230000Y-6643500D02*
X7290000Y-6583500D01*
X7230000Y-6523500D01*
X7170000Y-6583500D01*
X7230000Y-6643500D01*
X12735000Y-5639500D02*
X12795000Y-5579500D01*
X12735000Y-5519500D01*
X12675000Y-5579500D01*
X12735000Y-5639500D01*
X12735000Y-6389500D02*
X12795000Y-6329500D01*
X12735000Y-6269500D01*
X12675000Y-6329500D01*
X12735000Y-6389500D01*
X12831000Y-7655500D02*
X12891000Y-7595500D01*
X12831000Y-7535500D01*
X12771000Y-7595500D01*
X12831000Y-7655500D01*
X12831000Y-8405500D02*
X12891000Y-8345500D01*
X12831000Y-8285500D01*
X12771000Y-8345500D01*
X12831000Y-8405500D01*
D14*
X2682000Y-4780500D02*
X2842000Y-4940500D01*
X2842000Y-4780500D02*
X2682000Y-4940500D01*
X2842000Y-4860500D02*
G75*
G02*
X2682000Y-4860500I-80000J0D01*
G01*
X2682000Y-4860500D02*
G75*
G02*
X2842000Y-4860500I80000J0D01*
G01*
X2682000Y-5482500D02*
X2842000Y-5642500D01*
X2842000Y-5482500D02*
X2682000Y-5642500D01*
X2842000Y-5562500D02*
G75*
G02*
X2682000Y-5562500I-80000J0D01*
G01*
X2682000Y-5562500D02*
G75*
G02*
X2842000Y-5562500I80000J0D01*
G01*
X2682000Y-6641500D02*
X2842000Y-6801500D01*
X2842000Y-6641500D02*
X2682000Y-6801500D01*
X2842000Y-6721500D02*
G75*
G02*
X2682000Y-6721500I-80000J0D01*
G01*
X2682000Y-6721500D02*
G75*
G02*
X2842000Y-6721500I80000J0D01*
G01*
X2682000Y-7359500D02*
X2842000Y-7519500D01*
X2842000Y-7359500D02*
X2682000Y-7519500D01*
X2842000Y-7439500D02*
G75*
G02*
X2682000Y-7439500I-80000J0D01*
G01*
X2682000Y-7439500D02*
G75*
G02*
X2842000Y-7439500I80000J0D01*
G01*
X2682000Y-8545500D02*
X2842000Y-8705500D01*
X2842000Y-8545500D02*
X2682000Y-8705500D01*
X2842000Y-8625500D02*
G75*
G02*
X2682000Y-8625500I-80000J0D01*
G01*
X2682000Y-8625500D02*
G75*
G02*
X2842000Y-8625500I80000J0D01*
G01*
X2682000Y-9752500D02*
X2842000Y-9912500D01*
X2842000Y-9752500D02*
X2682000Y-9912500D01*
X2842000Y-9832500D02*
G75*
G02*
X2682000Y-9832500I-80000J0D01*
G01*
X2682000Y-9832500D02*
G75*
G02*
X2842000Y-9832500I80000J0D01*
G01*
X2682000Y-10416500D02*
X2842000Y-10576500D01*
X2842000Y-10416500D02*
X2682000Y-10576500D01*
X2842000Y-10496500D02*
G75*
G02*
X2682000Y-10496500I-80000J0D01*
G01*
X2682000Y-10496500D02*
G75*
G02*
X2842000Y-10496500I80000J0D01*
G01*
X2682000Y-11640500D02*
X2842000Y-11800500D01*
X2842000Y-11640500D02*
X2682000Y-11800500D01*
X2842000Y-11720500D02*
G75*
G02*
X2682000Y-11720500I-80000J0D01*
G01*
X2682000Y-11720500D02*
G75*
G02*
X2842000Y-11720500I80000J0D01*
G01*
X4124000Y-13082500D02*
X4284000Y-13242500D01*
X4284000Y-13082500D02*
X4124000Y-13242500D01*
X4284000Y-13162500D02*
G75*
G02*
X4124000Y-13162500I-80000J0D01*
G01*
X4124000Y-13162500D02*
G75*
G02*
X4284000Y-13162500I80000J0D01*
G01*
X4298000Y-9726500D02*
X4458000Y-9886500D01*
X4458000Y-9726500D02*
X4298000Y-9886500D01*
X4458000Y-9806500D02*
G75*
G02*
X4298000Y-9806500I-80000J0D01*
G01*
X4298000Y-9806500D02*
G75*
G02*
X4458000Y-9806500I80000J0D01*
G01*
X4298000Y-11976500D02*
X4458000Y-12136500D01*
X4458000Y-11976500D02*
X4298000Y-12136500D01*
X4458000Y-12056500D02*
G75*
G02*
X4298000Y-12056500I-80000J0D01*
G01*
X4298000Y-12056500D02*
G75*
G02*
X4458000Y-12056500I80000J0D01*
G01*
X5500000Y-13082500D02*
X5660000Y-13242500D01*
X5660000Y-13082500D02*
X5500000Y-13242500D01*
X5660000Y-13162500D02*
G75*
G02*
X5500000Y-13162500I-80000J0D01*
G01*
X5500000Y-13162500D02*
G75*
G02*
X5660000Y-13162500I80000J0D01*
G01*
X6555000Y-13082500D02*
X6715000Y-13242500D01*
X6715000Y-13082500D02*
X6555000Y-13242500D01*
X6715000Y-13162500D02*
G75*
G02*
X6555000Y-13162500I-80000J0D01*
G01*
X6555000Y-13162500D02*
G75*
G02*
X6715000Y-13162500I80000J0D01*
G01*
X7181000Y-9726500D02*
X7341000Y-9886500D01*
X7341000Y-9726500D02*
X7181000Y-9886500D01*
X7341000Y-9806500D02*
G75*
G02*
X7181000Y-9806500I-80000J0D01*
G01*
X7181000Y-9806500D02*
G75*
G02*
X7341000Y-9806500I80000J0D01*
G01*
X7181000Y-11976500D02*
X7341000Y-12136500D01*
X7341000Y-11976500D02*
X7181000Y-12136500D01*
X7341000Y-12056500D02*
G75*
G02*
X7181000Y-12056500I-80000J0D01*
G01*
X7181000Y-12056500D02*
G75*
G02*
X7341000Y-12056500I80000J0D01*
G01*
X7611000Y-13082500D02*
X7771000Y-13242500D01*
X7771000Y-13082500D02*
X7611000Y-13242500D01*
X7771000Y-13162500D02*
G75*
G02*
X7611000Y-13162500I-80000J0D01*
G01*
X7611000Y-13162500D02*
G75*
G02*
X7771000Y-13162500I80000J0D01*
G01*
X8699000Y-13082500D02*
X8859000Y-13242500D01*
X8859000Y-13082500D02*
X8699000Y-13242500D01*
X8859000Y-13162500D02*
G75*
G02*
X8699000Y-13162500I-80000J0D01*
G01*
X8699000Y-13162500D02*
G75*
G02*
X8859000Y-13162500I80000J0D01*
G01*
X8894000Y-9726500D02*
X9054000Y-9886500D01*
X9054000Y-9726500D02*
X8894000Y-9886500D01*
X9054000Y-9806500D02*
G75*
G02*
X8894000Y-9806500I-80000J0D01*
G01*
X8894000Y-9806500D02*
G75*
G02*
X9054000Y-9806500I80000J0D01*
G01*
X8894000Y-11976500D02*
X9054000Y-12136500D01*
X9054000Y-11976500D02*
X8894000Y-12136500D01*
X9054000Y-12056500D02*
G75*
G02*
X8894000Y-12056500I-80000J0D01*
G01*
X8894000Y-12056500D02*
G75*
G02*
X9054000Y-12056500I80000J0D01*
G01*
X9738000Y-13082500D02*
X9898000Y-13242500D01*
X9898000Y-13082500D02*
X9738000Y-13242500D01*
X9898000Y-13162500D02*
G75*
G02*
X9738000Y-13162500I-80000J0D01*
G01*
X9738000Y-13162500D02*
G75*
G02*
X9898000Y-13162500I80000J0D01*
G01*
X10635000Y-9726500D02*
X10795000Y-9886500D01*
X10795000Y-9726500D02*
X10635000Y-9886500D01*
X10795000Y-9806500D02*
G75*
G02*
X10635000Y-9806500I-80000J0D01*
G01*
X10635000Y-9806500D02*
G75*
G02*
X10795000Y-9806500I80000J0D01*
G01*
X10635000Y-11976500D02*
X10795000Y-12136500D01*
X10795000Y-11976500D02*
X10635000Y-12136500D01*
X10795000Y-12056500D02*
G75*
G02*
X10635000Y-12056500I-80000J0D01*
G01*
X10635000Y-12056500D02*
G75*
G02*
X10795000Y-12056500I80000J0D01*
G01*
X15096000Y-4214500D02*
X15256000Y-4374500D01*
X15256000Y-4214500D02*
X15096000Y-4374500D01*
X15256000Y-4294500D02*
G75*
G02*
X15096000Y-4294500I-80000J0D01*
G01*
X15096000Y-4294500D02*
G75*
G02*
X15256000Y-4294500I80000J0D01*
G01*
X15096000Y-5161500D02*
X15256000Y-5321500D01*
X15256000Y-5161500D02*
X15096000Y-5321500D01*
X15256000Y-5241500D02*
G75*
G02*
X15096000Y-5241500I-80000J0D01*
G01*
X15096000Y-5241500D02*
G75*
G02*
X15256000Y-5241500I80000J0D01*
G01*
X15096000Y-6118500D02*
X15256000Y-6278500D01*
X15256000Y-6118500D02*
X15096000Y-6278500D01*
X15256000Y-6198500D02*
G75*
G02*
X15096000Y-6198500I-80000J0D01*
G01*
X15096000Y-6198500D02*
G75*
G02*
X15256000Y-6198500I80000J0D01*
G01*
X15096000Y-7321500D02*
X15256000Y-7481500D01*
X15256000Y-7321500D02*
X15096000Y-7481500D01*
X15256000Y-7401500D02*
G75*
G02*
X15096000Y-7401500I-80000J0D01*
G01*
X15096000Y-7401500D02*
G75*
G02*
X15256000Y-7401500I80000J0D01*
G01*
X15096000Y-8311500D02*
X15256000Y-8471500D01*
X15256000Y-8311500D02*
X15096000Y-8471500D01*
X15256000Y-8391500D02*
G75*
G02*
X15096000Y-8391500I-80000J0D01*
G01*
X15096000Y-8391500D02*
G75*
G02*
X15256000Y-8391500I80000J0D01*
G01*
X15096000Y-9263500D02*
X15256000Y-9423500D01*
X15256000Y-9263500D02*
X15096000Y-9423500D01*
X15256000Y-9343500D02*
G75*
G02*
X15096000Y-9343500I-80000J0D01*
G01*
X15096000Y-9343500D02*
G75*
G02*
X15256000Y-9343500I80000J0D01*
G01*
X15096000Y-10606500D02*
X15256000Y-10766500D01*
X15256000Y-10606500D02*
X15096000Y-10766500D01*
X15256000Y-10686500D02*
G75*
G02*
X15096000Y-10686500I-80000J0D01*
G01*
X15096000Y-10686500D02*
G75*
G02*
X15256000Y-10686500I80000J0D01*
G01*
X15096000Y-11537500D02*
X15256000Y-11697500D01*
X15256000Y-11537500D02*
X15096000Y-11697500D01*
X15256000Y-11617500D02*
G75*
G02*
X15096000Y-11617500I-80000J0D01*
G01*
X15096000Y-11617500D02*
G75*
G02*
X15256000Y-11617500I80000J0D01*
G01*
D11*
X2239777Y-14320984D02*
X2239777Y-14120984D01*
X2239777Y-14120984D02*
X2287396Y-14120984D01*
X2287396Y-14120984D02*
X2315967Y-14130508D01*
X2315967Y-14130508D02*
X2335015Y-14149555D01*
X2335015Y-14149555D02*
X2344539Y-14168603D01*
X2344539Y-14168603D02*
X2354063Y-14206698D01*
X2354063Y-14206698D02*
X2354063Y-14235269D01*
X2354063Y-14235269D02*
X2344539Y-14273365D01*
X2344539Y-14273365D02*
X2335015Y-14292412D01*
X2335015Y-14292412D02*
X2315967Y-14311460D01*
X2315967Y-14311460D02*
X2287396Y-14320984D01*
X2287396Y-14320984D02*
X2239777Y-14320984D01*
X2439777Y-14320984D02*
X2439777Y-14187650D01*
X2439777Y-14225746D02*
X2449301Y-14206698D01*
X2449301Y-14206698D02*
X2458824Y-14197174D01*
X2458824Y-14197174D02*
X2477872Y-14187650D01*
X2477872Y-14187650D02*
X2496920Y-14187650D01*
X2563586Y-14320984D02*
X2563586Y-14187650D01*
X2563586Y-14120984D02*
X2554063Y-14130508D01*
X2554063Y-14130508D02*
X2563586Y-14140031D01*
X2563586Y-14140031D02*
X2573110Y-14130508D01*
X2573110Y-14130508D02*
X2563586Y-14120984D01*
X2563586Y-14120984D02*
X2563586Y-14140031D01*
X2687396Y-14320984D02*
X2668348Y-14311460D01*
X2668348Y-14311460D02*
X2658824Y-14292412D01*
X2658824Y-14292412D02*
X2658824Y-14120984D01*
X2792158Y-14320984D02*
X2773110Y-14311460D01*
X2773110Y-14311460D02*
X2763586Y-14292412D01*
X2763586Y-14292412D02*
X2763586Y-14120984D01*
X3020729Y-14320984D02*
X3020729Y-14120984D01*
X3020729Y-14120984D02*
X3087396Y-14263841D01*
X3087396Y-14263841D02*
X3154062Y-14120984D01*
X3154062Y-14120984D02*
X3154062Y-14320984D01*
X3335015Y-14320984D02*
X3335015Y-14216222D01*
X3335015Y-14216222D02*
X3325491Y-14197174D01*
X3325491Y-14197174D02*
X3306443Y-14187650D01*
X3306443Y-14187650D02*
X3268348Y-14187650D01*
X3268348Y-14187650D02*
X3249301Y-14197174D01*
X3335015Y-14311460D02*
X3315967Y-14320984D01*
X3315967Y-14320984D02*
X3268348Y-14320984D01*
X3268348Y-14320984D02*
X3249301Y-14311460D01*
X3249301Y-14311460D02*
X3239777Y-14292412D01*
X3239777Y-14292412D02*
X3239777Y-14273365D01*
X3239777Y-14273365D02*
X3249301Y-14254317D01*
X3249301Y-14254317D02*
X3268348Y-14244793D01*
X3268348Y-14244793D02*
X3315967Y-14244793D01*
X3315967Y-14244793D02*
X3335015Y-14235269D01*
X3430253Y-14187650D02*
X3430253Y-14387650D01*
X3430253Y-14197174D02*
X3449301Y-14187650D01*
X3449301Y-14187650D02*
X3487396Y-14187650D01*
X3487396Y-14187650D02*
X3506443Y-14197174D01*
X3506443Y-14197174D02*
X3515967Y-14206698D01*
X3515967Y-14206698D02*
X3525491Y-14225746D01*
X3525491Y-14225746D02*
X3525491Y-14282888D01*
X3525491Y-14282888D02*
X3515967Y-14301936D01*
X3515967Y-14301936D02*
X3506443Y-14311460D01*
X3506443Y-14311460D02*
X3487396Y-14320984D01*
X3487396Y-14320984D02*
X3449301Y-14320984D01*
X3449301Y-14320984D02*
X3430253Y-14311460D01*
X3611205Y-14301936D02*
X3620729Y-14311460D01*
X3620729Y-14311460D02*
X3611205Y-14320984D01*
X3611205Y-14320984D02*
X3601682Y-14311460D01*
X3601682Y-14311460D02*
X3611205Y-14301936D01*
X3611205Y-14301936D02*
X3611205Y-14320984D01*
X3611205Y-14197174D02*
X3620729Y-14206698D01*
X3620729Y-14206698D02*
X3611205Y-14216222D01*
X3611205Y-14216222D02*
X3601682Y-14206698D01*
X3601682Y-14206698D02*
X3611205Y-14197174D01*
X3611205Y-14197174D02*
X3611205Y-14216222D01*
D10*
X1949000Y-14634500D02*
X1979000Y-14664500D01*
X1979000Y-14634500D02*
X1949000Y-14664500D01*
D11*
X2277872Y-14540984D02*
X2296920Y-14540984D01*
X2296920Y-14540984D02*
X2315967Y-14550508D01*
X2315967Y-14550508D02*
X2325491Y-14560031D01*
X2325491Y-14560031D02*
X2335015Y-14579079D01*
X2335015Y-14579079D02*
X2344539Y-14617174D01*
X2344539Y-14617174D02*
X2344539Y-14664793D01*
X2344539Y-14664793D02*
X2335015Y-14702888D01*
X2335015Y-14702888D02*
X2325491Y-14721936D01*
X2325491Y-14721936D02*
X2315967Y-14731460D01*
X2315967Y-14731460D02*
X2296920Y-14740984D01*
X2296920Y-14740984D02*
X2277872Y-14740984D01*
X2277872Y-14740984D02*
X2258824Y-14731460D01*
X2258824Y-14731460D02*
X2249301Y-14721936D01*
X2249301Y-14721936D02*
X2239777Y-14702888D01*
X2239777Y-14702888D02*
X2230253Y-14664793D01*
X2230253Y-14664793D02*
X2230253Y-14617174D01*
X2230253Y-14617174D02*
X2239777Y-14579079D01*
X2239777Y-14579079D02*
X2249301Y-14560031D01*
X2249301Y-14560031D02*
X2258824Y-14550508D01*
X2258824Y-14550508D02*
X2277872Y-14540984D01*
X2430253Y-14721936D02*
X2439777Y-14731460D01*
X2439777Y-14731460D02*
X2430253Y-14740984D01*
X2430253Y-14740984D02*
X2420729Y-14731460D01*
X2420729Y-14731460D02*
X2430253Y-14721936D01*
X2430253Y-14721936D02*
X2430253Y-14740984D01*
X2506444Y-14540984D02*
X2630253Y-14540984D01*
X2630253Y-14540984D02*
X2563586Y-14617174D01*
X2563586Y-14617174D02*
X2592158Y-14617174D01*
X2592158Y-14617174D02*
X2611205Y-14626698D01*
X2611205Y-14626698D02*
X2620729Y-14636222D01*
X2620729Y-14636222D02*
X2630253Y-14655269D01*
X2630253Y-14655269D02*
X2630253Y-14702888D01*
X2630253Y-14702888D02*
X2620729Y-14721936D01*
X2620729Y-14721936D02*
X2611205Y-14731460D01*
X2611205Y-14731460D02*
X2592158Y-14740984D01*
X2592158Y-14740984D02*
X2535015Y-14740984D01*
X2535015Y-14740984D02*
X2515967Y-14731460D01*
X2515967Y-14731460D02*
X2506444Y-14721936D01*
X2754063Y-14540984D02*
X2773110Y-14540984D01*
X2773110Y-14540984D02*
X2792158Y-14550508D01*
X2792158Y-14550508D02*
X2801682Y-14560031D01*
X2801682Y-14560031D02*
X2811205Y-14579079D01*
X2811205Y-14579079D02*
X2820729Y-14617174D01*
X2820729Y-14617174D02*
X2820729Y-14664793D01*
X2820729Y-14664793D02*
X2811205Y-14702888D01*
X2811205Y-14702888D02*
X2801682Y-14721936D01*
X2801682Y-14721936D02*
X2792158Y-14731460D01*
X2792158Y-14731460D02*
X2773110Y-14740984D01*
X2773110Y-14740984D02*
X2754063Y-14740984D01*
X2754063Y-14740984D02*
X2735015Y-14731460D01*
X2735015Y-14731460D02*
X2725491Y-14721936D01*
X2725491Y-14721936D02*
X2715967Y-14702888D01*
X2715967Y-14702888D02*
X2706444Y-14664793D01*
X2706444Y-14664793D02*
X2706444Y-14617174D01*
X2706444Y-14617174D02*
X2715967Y-14579079D01*
X2715967Y-14579079D02*
X2725491Y-14560031D01*
X2725491Y-14560031D02*
X2735015Y-14550508D01*
X2735015Y-14550508D02*
X2754063Y-14540984D01*
X2944539Y-14540984D02*
X2963586Y-14540984D01*
X2963586Y-14540984D02*
X2982634Y-14550508D01*
X2982634Y-14550508D02*
X2992158Y-14560031D01*
X2992158Y-14560031D02*
X3001682Y-14579079D01*
X3001682Y-14579079D02*
X3011205Y-14617174D01*
X3011205Y-14617174D02*
X3011205Y-14664793D01*
X3011205Y-14664793D02*
X3001682Y-14702888D01*
X3001682Y-14702888D02*
X2992158Y-14721936D01*
X2992158Y-14721936D02*
X2982634Y-14731460D01*
X2982634Y-14731460D02*
X2963586Y-14740984D01*
X2963586Y-14740984D02*
X2944539Y-14740984D01*
X2944539Y-14740984D02*
X2925491Y-14731460D01*
X2925491Y-14731460D02*
X2915967Y-14721936D01*
X2915967Y-14721936D02*
X2906443Y-14702888D01*
X2906443Y-14702888D02*
X2896920Y-14664793D01*
X2896920Y-14664793D02*
X2896920Y-14617174D01*
X2896920Y-14617174D02*
X2906443Y-14579079D01*
X2906443Y-14579079D02*
X2915967Y-14560031D01*
X2915967Y-14560031D02*
X2925491Y-14550508D01*
X2925491Y-14550508D02*
X2944539Y-14540984D01*
X3096920Y-14740984D02*
X3096920Y-14607650D01*
X3096920Y-14626698D02*
X3106443Y-14617174D01*
X3106443Y-14617174D02*
X3125491Y-14607650D01*
X3125491Y-14607650D02*
X3154063Y-14607650D01*
X3154063Y-14607650D02*
X3173110Y-14617174D01*
X3173110Y-14617174D02*
X3182634Y-14636222D01*
X3182634Y-14636222D02*
X3182634Y-14740984D01*
X3182634Y-14636222D02*
X3192158Y-14617174D01*
X3192158Y-14617174D02*
X3211205Y-14607650D01*
X3211205Y-14607650D02*
X3239777Y-14607650D01*
X3239777Y-14607650D02*
X3258824Y-14617174D01*
X3258824Y-14617174D02*
X3268348Y-14636222D01*
X3268348Y-14636222D02*
X3268348Y-14740984D01*
X3363586Y-14740984D02*
X3363586Y-14607650D01*
X3363586Y-14626698D02*
X3373110Y-14617174D01*
X3373110Y-14617174D02*
X3392158Y-14607650D01*
X3392158Y-14607650D02*
X3420729Y-14607650D01*
X3420729Y-14607650D02*
X3439777Y-14617174D01*
X3439777Y-14617174D02*
X3449301Y-14636222D01*
X3449301Y-14636222D02*
X3449301Y-14740984D01*
X3449301Y-14636222D02*
X3458824Y-14617174D01*
X3458824Y-14617174D02*
X3477872Y-14607650D01*
X3477872Y-14607650D02*
X3506443Y-14607650D01*
X3506443Y-14607650D02*
X3525491Y-14617174D01*
X3525491Y-14617174D02*
X3535015Y-14636222D01*
X3535015Y-14636222D02*
X3535015Y-14740984D01*
X3925491Y-14531460D02*
X3754063Y-14788603D01*
X4182634Y-14540984D02*
X4201682Y-14540984D01*
X4201682Y-14540984D02*
X4220729Y-14550508D01*
X4220729Y-14550508D02*
X4230253Y-14560031D01*
X4230253Y-14560031D02*
X4239777Y-14579079D01*
X4239777Y-14579079D02*
X4249301Y-14617174D01*
X4249301Y-14617174D02*
X4249301Y-14664793D01*
X4249301Y-14664793D02*
X4239777Y-14702888D01*
X4239777Y-14702888D02*
X4230253Y-14721936D01*
X4230253Y-14721936D02*
X4220729Y-14731460D01*
X4220729Y-14731460D02*
X4201682Y-14740984D01*
X4201682Y-14740984D02*
X4182634Y-14740984D01*
X4182634Y-14740984D02*
X4163586Y-14731460D01*
X4163586Y-14731460D02*
X4154063Y-14721936D01*
X4154063Y-14721936D02*
X4144539Y-14702888D01*
X4144539Y-14702888D02*
X4135015Y-14664793D01*
X4135015Y-14664793D02*
X4135015Y-14617174D01*
X4135015Y-14617174D02*
X4144539Y-14579079D01*
X4144539Y-14579079D02*
X4154063Y-14560031D01*
X4154063Y-14560031D02*
X4163586Y-14550508D01*
X4163586Y-14550508D02*
X4182634Y-14540984D01*
X4335015Y-14721936D02*
X4344539Y-14731460D01*
X4344539Y-14731460D02*
X4335015Y-14740984D01*
X4335015Y-14740984D02*
X4325491Y-14731460D01*
X4325491Y-14731460D02*
X4335015Y-14721936D01*
X4335015Y-14721936D02*
X4335015Y-14740984D01*
X4468348Y-14540984D02*
X4487396Y-14540984D01*
X4487396Y-14540984D02*
X4506444Y-14550508D01*
X4506444Y-14550508D02*
X4515968Y-14560031D01*
X4515968Y-14560031D02*
X4525491Y-14579079D01*
X4525491Y-14579079D02*
X4535015Y-14617174D01*
X4535015Y-14617174D02*
X4535015Y-14664793D01*
X4535015Y-14664793D02*
X4525491Y-14702888D01*
X4525491Y-14702888D02*
X4515968Y-14721936D01*
X4515968Y-14721936D02*
X4506444Y-14731460D01*
X4506444Y-14731460D02*
X4487396Y-14740984D01*
X4487396Y-14740984D02*
X4468348Y-14740984D01*
X4468348Y-14740984D02*
X4449301Y-14731460D01*
X4449301Y-14731460D02*
X4439777Y-14721936D01*
X4439777Y-14721936D02*
X4430253Y-14702888D01*
X4430253Y-14702888D02*
X4420729Y-14664793D01*
X4420729Y-14664793D02*
X4420729Y-14617174D01*
X4420729Y-14617174D02*
X4430253Y-14579079D01*
X4430253Y-14579079D02*
X4439777Y-14560031D01*
X4439777Y-14560031D02*
X4449301Y-14550508D01*
X4449301Y-14550508D02*
X4468348Y-14540984D01*
X4725491Y-14740984D02*
X4611206Y-14740984D01*
X4668348Y-14740984D02*
X4668348Y-14540984D01*
X4668348Y-14540984D02*
X4649301Y-14569555D01*
X4649301Y-14569555D02*
X4630253Y-14588603D01*
X4630253Y-14588603D02*
X4611206Y-14598127D01*
X4915968Y-14740984D02*
X4801682Y-14740984D01*
X4858825Y-14740984D02*
X4858825Y-14540984D01*
X4858825Y-14540984D02*
X4839777Y-14569555D01*
X4839777Y-14569555D02*
X4820729Y-14588603D01*
X4820729Y-14588603D02*
X4801682Y-14598127D01*
X5030253Y-14626698D02*
X5011206Y-14617174D01*
X5011206Y-14617174D02*
X5001682Y-14607650D01*
X5001682Y-14607650D02*
X4992158Y-14588603D01*
X4992158Y-14588603D02*
X4992158Y-14579079D01*
X4992158Y-14579079D02*
X5001682Y-14560031D01*
X5001682Y-14560031D02*
X5011206Y-14550508D01*
X5011206Y-14550508D02*
X5030253Y-14540984D01*
X5030253Y-14540984D02*
X5068349Y-14540984D01*
X5068349Y-14540984D02*
X5087396Y-14550508D01*
X5087396Y-14550508D02*
X5096920Y-14560031D01*
X5096920Y-14560031D02*
X5106444Y-14579079D01*
X5106444Y-14579079D02*
X5106444Y-14588603D01*
X5106444Y-14588603D02*
X5096920Y-14607650D01*
X5096920Y-14607650D02*
X5087396Y-14617174D01*
X5087396Y-14617174D02*
X5068349Y-14626698D01*
X5068349Y-14626698D02*
X5030253Y-14626698D01*
X5030253Y-14626698D02*
X5011206Y-14636222D01*
X5011206Y-14636222D02*
X5001682Y-14645746D01*
X5001682Y-14645746D02*
X4992158Y-14664793D01*
X4992158Y-14664793D02*
X4992158Y-14702888D01*
X4992158Y-14702888D02*
X5001682Y-14721936D01*
X5001682Y-14721936D02*
X5011206Y-14731460D01*
X5011206Y-14731460D02*
X5030253Y-14740984D01*
X5030253Y-14740984D02*
X5068349Y-14740984D01*
X5068349Y-14740984D02*
X5087396Y-14731460D01*
X5087396Y-14731460D02*
X5096920Y-14721936D01*
X5096920Y-14721936D02*
X5106444Y-14702888D01*
X5106444Y-14702888D02*
X5106444Y-14664793D01*
X5106444Y-14664793D02*
X5096920Y-14645746D01*
X5096920Y-14645746D02*
X5087396Y-14636222D01*
X5087396Y-14636222D02*
X5068349Y-14626698D01*
X5182634Y-14540984D02*
X5182634Y-14579079D01*
X5258825Y-14540984D02*
X5258825Y-14579079D01*
X5554063Y-14817174D02*
X5544539Y-14807650D01*
X5544539Y-14807650D02*
X5525491Y-14779079D01*
X5525491Y-14779079D02*
X5515968Y-14760031D01*
X5515968Y-14760031D02*
X5506444Y-14731460D01*
X5506444Y-14731460D02*
X5496920Y-14683841D01*
X5496920Y-14683841D02*
X5496920Y-14645746D01*
X5496920Y-14645746D02*
X5506444Y-14598127D01*
X5506444Y-14598127D02*
X5515968Y-14569555D01*
X5515968Y-14569555D02*
X5525491Y-14550508D01*
X5525491Y-14550508D02*
X5544539Y-14521936D01*
X5544539Y-14521936D02*
X5554063Y-14512412D01*
X5725491Y-14540984D02*
X5630253Y-14540984D01*
X5630253Y-14540984D02*
X5620729Y-14636222D01*
X5620729Y-14636222D02*
X5630253Y-14626698D01*
X5630253Y-14626698D02*
X5649301Y-14617174D01*
X5649301Y-14617174D02*
X5696920Y-14617174D01*
X5696920Y-14617174D02*
X5715968Y-14626698D01*
X5715968Y-14626698D02*
X5725491Y-14636222D01*
X5725491Y-14636222D02*
X5735015Y-14655269D01*
X5735015Y-14655269D02*
X5735015Y-14702888D01*
X5735015Y-14702888D02*
X5725491Y-14721936D01*
X5725491Y-14721936D02*
X5715968Y-14731460D01*
X5715968Y-14731460D02*
X5696920Y-14740984D01*
X5696920Y-14740984D02*
X5649301Y-14740984D01*
X5649301Y-14740984D02*
X5630253Y-14731460D01*
X5630253Y-14731460D02*
X5620729Y-14721936D01*
X5973110Y-14740984D02*
X5973110Y-14540984D01*
X6058825Y-14740984D02*
X6058825Y-14636222D01*
X6058825Y-14636222D02*
X6049301Y-14617174D01*
X6049301Y-14617174D02*
X6030253Y-14607650D01*
X6030253Y-14607650D02*
X6001682Y-14607650D01*
X6001682Y-14607650D02*
X5982634Y-14617174D01*
X5982634Y-14617174D02*
X5973110Y-14626698D01*
X6182634Y-14740984D02*
X6163587Y-14731460D01*
X6163587Y-14731460D02*
X6154063Y-14721936D01*
X6154063Y-14721936D02*
X6144539Y-14702888D01*
X6144539Y-14702888D02*
X6144539Y-14645746D01*
X6144539Y-14645746D02*
X6154063Y-14626698D01*
X6154063Y-14626698D02*
X6163587Y-14617174D01*
X6163587Y-14617174D02*
X6182634Y-14607650D01*
X6182634Y-14607650D02*
X6211206Y-14607650D01*
X6211206Y-14607650D02*
X6230253Y-14617174D01*
X6230253Y-14617174D02*
X6239777Y-14626698D01*
X6239777Y-14626698D02*
X6249301Y-14645746D01*
X6249301Y-14645746D02*
X6249301Y-14702888D01*
X6249301Y-14702888D02*
X6239777Y-14721936D01*
X6239777Y-14721936D02*
X6230253Y-14731460D01*
X6230253Y-14731460D02*
X6211206Y-14740984D01*
X6211206Y-14740984D02*
X6182634Y-14740984D01*
X6363587Y-14740984D02*
X6344539Y-14731460D01*
X6344539Y-14731460D02*
X6335015Y-14712412D01*
X6335015Y-14712412D02*
X6335015Y-14540984D01*
X6515968Y-14731460D02*
X6496920Y-14740984D01*
X6496920Y-14740984D02*
X6458825Y-14740984D01*
X6458825Y-14740984D02*
X6439777Y-14731460D01*
X6439777Y-14731460D02*
X6430253Y-14712412D01*
X6430253Y-14712412D02*
X6430253Y-14636222D01*
X6430253Y-14636222D02*
X6439777Y-14617174D01*
X6439777Y-14617174D02*
X6458825Y-14607650D01*
X6458825Y-14607650D02*
X6496920Y-14607650D01*
X6496920Y-14607650D02*
X6515968Y-14617174D01*
X6515968Y-14617174D02*
X6525491Y-14636222D01*
X6525491Y-14636222D02*
X6525491Y-14655269D01*
X6525491Y-14655269D02*
X6430253Y-14674317D01*
X6601682Y-14731460D02*
X6620730Y-14740984D01*
X6620730Y-14740984D02*
X6658825Y-14740984D01*
X6658825Y-14740984D02*
X6677872Y-14731460D01*
X6677872Y-14731460D02*
X6687396Y-14712412D01*
X6687396Y-14712412D02*
X6687396Y-14702888D01*
X6687396Y-14702888D02*
X6677872Y-14683841D01*
X6677872Y-14683841D02*
X6658825Y-14674317D01*
X6658825Y-14674317D02*
X6630253Y-14674317D01*
X6630253Y-14674317D02*
X6611206Y-14664793D01*
X6611206Y-14664793D02*
X6601682Y-14645746D01*
X6601682Y-14645746D02*
X6601682Y-14636222D01*
X6601682Y-14636222D02*
X6611206Y-14617174D01*
X6611206Y-14617174D02*
X6630253Y-14607650D01*
X6630253Y-14607650D02*
X6658825Y-14607650D01*
X6658825Y-14607650D02*
X6677872Y-14617174D01*
X6754063Y-14817174D02*
X6763587Y-14807650D01*
X6763587Y-14807650D02*
X6782634Y-14779079D01*
X6782634Y-14779079D02*
X6792158Y-14760031D01*
X6792158Y-14760031D02*
X6801682Y-14731460D01*
X6801682Y-14731460D02*
X6811206Y-14683841D01*
X6811206Y-14683841D02*
X6811206Y-14645746D01*
X6811206Y-14645746D02*
X6801682Y-14598127D01*
X6801682Y-14598127D02*
X6792158Y-14569555D01*
X6792158Y-14569555D02*
X6782634Y-14550508D01*
X6782634Y-14550508D02*
X6763587Y-14521936D01*
X6763587Y-14521936D02*
X6754063Y-14512412D01*
D10*
X1979000Y-14913500D02*
G75*
G02*
X1899000Y-14913500I-40000J0D01*
G01*
X1899000Y-14913500D02*
G75*
G02*
X1979000Y-14913500I40000J0D01*
G01*
D11*
X2277872Y-14804984D02*
X2296920Y-14804984D01*
X2296920Y-14804984D02*
X2315967Y-14814508D01*
X2315967Y-14814508D02*
X2325491Y-14824031D01*
X2325491Y-14824031D02*
X2335015Y-14843079D01*
X2335015Y-14843079D02*
X2344539Y-14881174D01*
X2344539Y-14881174D02*
X2344539Y-14928793D01*
X2344539Y-14928793D02*
X2335015Y-14966888D01*
X2335015Y-14966888D02*
X2325491Y-14985936D01*
X2325491Y-14985936D02*
X2315967Y-14995460D01*
X2315967Y-14995460D02*
X2296920Y-15004984D01*
X2296920Y-15004984D02*
X2277872Y-15004984D01*
X2277872Y-15004984D02*
X2258824Y-14995460D01*
X2258824Y-14995460D02*
X2249301Y-14985936D01*
X2249301Y-14985936D02*
X2239777Y-14966888D01*
X2239777Y-14966888D02*
X2230253Y-14928793D01*
X2230253Y-14928793D02*
X2230253Y-14881174D01*
X2230253Y-14881174D02*
X2239777Y-14843079D01*
X2239777Y-14843079D02*
X2249301Y-14824031D01*
X2249301Y-14824031D02*
X2258824Y-14814508D01*
X2258824Y-14814508D02*
X2277872Y-14804984D01*
X2430253Y-14985936D02*
X2439777Y-14995460D01*
X2439777Y-14995460D02*
X2430253Y-15004984D01*
X2430253Y-15004984D02*
X2420729Y-14995460D01*
X2420729Y-14995460D02*
X2430253Y-14985936D01*
X2430253Y-14985936D02*
X2430253Y-15004984D01*
X2554063Y-14890698D02*
X2535015Y-14881174D01*
X2535015Y-14881174D02*
X2525491Y-14871650D01*
X2525491Y-14871650D02*
X2515967Y-14852603D01*
X2515967Y-14852603D02*
X2515967Y-14843079D01*
X2515967Y-14843079D02*
X2525491Y-14824031D01*
X2525491Y-14824031D02*
X2535015Y-14814508D01*
X2535015Y-14814508D02*
X2554063Y-14804984D01*
X2554063Y-14804984D02*
X2592158Y-14804984D01*
X2592158Y-14804984D02*
X2611205Y-14814508D01*
X2611205Y-14814508D02*
X2620729Y-14824031D01*
X2620729Y-14824031D02*
X2630253Y-14843079D01*
X2630253Y-14843079D02*
X2630253Y-14852603D01*
X2630253Y-14852603D02*
X2620729Y-14871650D01*
X2620729Y-14871650D02*
X2611205Y-14881174D01*
X2611205Y-14881174D02*
X2592158Y-14890698D01*
X2592158Y-14890698D02*
X2554063Y-14890698D01*
X2554063Y-14890698D02*
X2535015Y-14900222D01*
X2535015Y-14900222D02*
X2525491Y-14909746D01*
X2525491Y-14909746D02*
X2515967Y-14928793D01*
X2515967Y-14928793D02*
X2515967Y-14966888D01*
X2515967Y-14966888D02*
X2525491Y-14985936D01*
X2525491Y-14985936D02*
X2535015Y-14995460D01*
X2535015Y-14995460D02*
X2554063Y-15004984D01*
X2554063Y-15004984D02*
X2592158Y-15004984D01*
X2592158Y-15004984D02*
X2611205Y-14995460D01*
X2611205Y-14995460D02*
X2620729Y-14985936D01*
X2620729Y-14985936D02*
X2630253Y-14966888D01*
X2630253Y-14966888D02*
X2630253Y-14928793D01*
X2630253Y-14928793D02*
X2620729Y-14909746D01*
X2620729Y-14909746D02*
X2611205Y-14900222D01*
X2611205Y-14900222D02*
X2592158Y-14890698D01*
X2754063Y-14804984D02*
X2773110Y-14804984D01*
X2773110Y-14804984D02*
X2792158Y-14814508D01*
X2792158Y-14814508D02*
X2801682Y-14824031D01*
X2801682Y-14824031D02*
X2811205Y-14843079D01*
X2811205Y-14843079D02*
X2820729Y-14881174D01*
X2820729Y-14881174D02*
X2820729Y-14928793D01*
X2820729Y-14928793D02*
X2811205Y-14966888D01*
X2811205Y-14966888D02*
X2801682Y-14985936D01*
X2801682Y-14985936D02*
X2792158Y-14995460D01*
X2792158Y-14995460D02*
X2773110Y-15004984D01*
X2773110Y-15004984D02*
X2754063Y-15004984D01*
X2754063Y-15004984D02*
X2735015Y-14995460D01*
X2735015Y-14995460D02*
X2725491Y-14985936D01*
X2725491Y-14985936D02*
X2715967Y-14966888D01*
X2715967Y-14966888D02*
X2706444Y-14928793D01*
X2706444Y-14928793D02*
X2706444Y-14881174D01*
X2706444Y-14881174D02*
X2715967Y-14843079D01*
X2715967Y-14843079D02*
X2725491Y-14824031D01*
X2725491Y-14824031D02*
X2735015Y-14814508D01*
X2735015Y-14814508D02*
X2754063Y-14804984D01*
X2944539Y-14804984D02*
X2963586Y-14804984D01*
X2963586Y-14804984D02*
X2982634Y-14814508D01*
X2982634Y-14814508D02*
X2992158Y-14824031D01*
X2992158Y-14824031D02*
X3001682Y-14843079D01*
X3001682Y-14843079D02*
X3011205Y-14881174D01*
X3011205Y-14881174D02*
X3011205Y-14928793D01*
X3011205Y-14928793D02*
X3001682Y-14966888D01*
X3001682Y-14966888D02*
X2992158Y-14985936D01*
X2992158Y-14985936D02*
X2982634Y-14995460D01*
X2982634Y-14995460D02*
X2963586Y-15004984D01*
X2963586Y-15004984D02*
X2944539Y-15004984D01*
X2944539Y-15004984D02*
X2925491Y-14995460D01*
X2925491Y-14995460D02*
X2915967Y-14985936D01*
X2915967Y-14985936D02*
X2906443Y-14966888D01*
X2906443Y-14966888D02*
X2896920Y-14928793D01*
X2896920Y-14928793D02*
X2896920Y-14881174D01*
X2896920Y-14881174D02*
X2906443Y-14843079D01*
X2906443Y-14843079D02*
X2915967Y-14824031D01*
X2915967Y-14824031D02*
X2925491Y-14814508D01*
X2925491Y-14814508D02*
X2944539Y-14804984D01*
X3096920Y-15004984D02*
X3096920Y-14871650D01*
X3096920Y-14890698D02*
X3106443Y-14881174D01*
X3106443Y-14881174D02*
X3125491Y-14871650D01*
X3125491Y-14871650D02*
X3154063Y-14871650D01*
X3154063Y-14871650D02*
X3173110Y-14881174D01*
X3173110Y-14881174D02*
X3182634Y-14900222D01*
X3182634Y-14900222D02*
X3182634Y-15004984D01*
X3182634Y-14900222D02*
X3192158Y-14881174D01*
X3192158Y-14881174D02*
X3211205Y-14871650D01*
X3211205Y-14871650D02*
X3239777Y-14871650D01*
X3239777Y-14871650D02*
X3258824Y-14881174D01*
X3258824Y-14881174D02*
X3268348Y-14900222D01*
X3268348Y-14900222D02*
X3268348Y-15004984D01*
X3363586Y-15004984D02*
X3363586Y-14871650D01*
X3363586Y-14890698D02*
X3373110Y-14881174D01*
X3373110Y-14881174D02*
X3392158Y-14871650D01*
X3392158Y-14871650D02*
X3420729Y-14871650D01*
X3420729Y-14871650D02*
X3439777Y-14881174D01*
X3439777Y-14881174D02*
X3449301Y-14900222D01*
X3449301Y-14900222D02*
X3449301Y-15004984D01*
X3449301Y-14900222D02*
X3458824Y-14881174D01*
X3458824Y-14881174D02*
X3477872Y-14871650D01*
X3477872Y-14871650D02*
X3506443Y-14871650D01*
X3506443Y-14871650D02*
X3525491Y-14881174D01*
X3525491Y-14881174D02*
X3535015Y-14900222D01*
X3535015Y-14900222D02*
X3535015Y-15004984D01*
X3925491Y-14795460D02*
X3754063Y-15052603D01*
X4182634Y-14804984D02*
X4201682Y-14804984D01*
X4201682Y-14804984D02*
X4220729Y-14814508D01*
X4220729Y-14814508D02*
X4230253Y-14824031D01*
X4230253Y-14824031D02*
X4239777Y-14843079D01*
X4239777Y-14843079D02*
X4249301Y-14881174D01*
X4249301Y-14881174D02*
X4249301Y-14928793D01*
X4249301Y-14928793D02*
X4239777Y-14966888D01*
X4239777Y-14966888D02*
X4230253Y-14985936D01*
X4230253Y-14985936D02*
X4220729Y-14995460D01*
X4220729Y-14995460D02*
X4201682Y-15004984D01*
X4201682Y-15004984D02*
X4182634Y-15004984D01*
X4182634Y-15004984D02*
X4163586Y-14995460D01*
X4163586Y-14995460D02*
X4154063Y-14985936D01*
X4154063Y-14985936D02*
X4144539Y-14966888D01*
X4144539Y-14966888D02*
X4135015Y-14928793D01*
X4135015Y-14928793D02*
X4135015Y-14881174D01*
X4135015Y-14881174D02*
X4144539Y-14843079D01*
X4144539Y-14843079D02*
X4154063Y-14824031D01*
X4154063Y-14824031D02*
X4163586Y-14814508D01*
X4163586Y-14814508D02*
X4182634Y-14804984D01*
X4335015Y-14985936D02*
X4344539Y-14995460D01*
X4344539Y-14995460D02*
X4335015Y-15004984D01*
X4335015Y-15004984D02*
X4325491Y-14995460D01*
X4325491Y-14995460D02*
X4335015Y-14985936D01*
X4335015Y-14985936D02*
X4335015Y-15004984D01*
X4468348Y-14804984D02*
X4487396Y-14804984D01*
X4487396Y-14804984D02*
X4506444Y-14814508D01*
X4506444Y-14814508D02*
X4515968Y-14824031D01*
X4515968Y-14824031D02*
X4525491Y-14843079D01*
X4525491Y-14843079D02*
X4535015Y-14881174D01*
X4535015Y-14881174D02*
X4535015Y-14928793D01*
X4535015Y-14928793D02*
X4525491Y-14966888D01*
X4525491Y-14966888D02*
X4515968Y-14985936D01*
X4515968Y-14985936D02*
X4506444Y-14995460D01*
X4506444Y-14995460D02*
X4487396Y-15004984D01*
X4487396Y-15004984D02*
X4468348Y-15004984D01*
X4468348Y-15004984D02*
X4449301Y-14995460D01*
X4449301Y-14995460D02*
X4439777Y-14985936D01*
X4439777Y-14985936D02*
X4430253Y-14966888D01*
X4430253Y-14966888D02*
X4420729Y-14928793D01*
X4420729Y-14928793D02*
X4420729Y-14881174D01*
X4420729Y-14881174D02*
X4430253Y-14843079D01*
X4430253Y-14843079D02*
X4439777Y-14824031D01*
X4439777Y-14824031D02*
X4449301Y-14814508D01*
X4449301Y-14814508D02*
X4468348Y-14804984D01*
X4601682Y-14804984D02*
X4725491Y-14804984D01*
X4725491Y-14804984D02*
X4658825Y-14881174D01*
X4658825Y-14881174D02*
X4687396Y-14881174D01*
X4687396Y-14881174D02*
X4706444Y-14890698D01*
X4706444Y-14890698D02*
X4715968Y-14900222D01*
X4715968Y-14900222D02*
X4725491Y-14919269D01*
X4725491Y-14919269D02*
X4725491Y-14966888D01*
X4725491Y-14966888D02*
X4715968Y-14985936D01*
X4715968Y-14985936D02*
X4706444Y-14995460D01*
X4706444Y-14995460D02*
X4687396Y-15004984D01*
X4687396Y-15004984D02*
X4630253Y-15004984D01*
X4630253Y-15004984D02*
X4611206Y-14995460D01*
X4611206Y-14995460D02*
X4601682Y-14985936D01*
X4915968Y-15004984D02*
X4801682Y-15004984D01*
X4858825Y-15004984D02*
X4858825Y-14804984D01*
X4858825Y-14804984D02*
X4839777Y-14833555D01*
X4839777Y-14833555D02*
X4820729Y-14852603D01*
X4820729Y-14852603D02*
X4801682Y-14862127D01*
X5096920Y-14804984D02*
X5001682Y-14804984D01*
X5001682Y-14804984D02*
X4992158Y-14900222D01*
X4992158Y-14900222D02*
X5001682Y-14890698D01*
X5001682Y-14890698D02*
X5020729Y-14881174D01*
X5020729Y-14881174D02*
X5068349Y-14881174D01*
X5068349Y-14881174D02*
X5087396Y-14890698D01*
X5087396Y-14890698D02*
X5096920Y-14900222D01*
X5096920Y-14900222D02*
X5106444Y-14919269D01*
X5106444Y-14919269D02*
X5106444Y-14966888D01*
X5106444Y-14966888D02*
X5096920Y-14985936D01*
X5096920Y-14985936D02*
X5087396Y-14995460D01*
X5087396Y-14995460D02*
X5068349Y-15004984D01*
X5068349Y-15004984D02*
X5020729Y-15004984D01*
X5020729Y-15004984D02*
X5001682Y-14995460D01*
X5001682Y-14995460D02*
X4992158Y-14985936D01*
X5182634Y-14804984D02*
X5182634Y-14843079D01*
X5258825Y-14804984D02*
X5258825Y-14843079D01*
X5554063Y-15081174D02*
X5544539Y-15071650D01*
X5544539Y-15071650D02*
X5525491Y-15043079D01*
X5525491Y-15043079D02*
X5515968Y-15024031D01*
X5515968Y-15024031D02*
X5506444Y-14995460D01*
X5506444Y-14995460D02*
X5496920Y-14947841D01*
X5496920Y-14947841D02*
X5496920Y-14909746D01*
X5496920Y-14909746D02*
X5506444Y-14862127D01*
X5506444Y-14862127D02*
X5515968Y-14833555D01*
X5515968Y-14833555D02*
X5525491Y-14814508D01*
X5525491Y-14814508D02*
X5544539Y-14785936D01*
X5544539Y-14785936D02*
X5554063Y-14776412D01*
X5715968Y-14871650D02*
X5715968Y-15004984D01*
X5668348Y-14795460D02*
X5620729Y-14938317D01*
X5620729Y-14938317D02*
X5744539Y-14938317D01*
X5811206Y-14824031D02*
X5820729Y-14814508D01*
X5820729Y-14814508D02*
X5839777Y-14804984D01*
X5839777Y-14804984D02*
X5887396Y-14804984D01*
X5887396Y-14804984D02*
X5906444Y-14814508D01*
X5906444Y-14814508D02*
X5915968Y-14824031D01*
X5915968Y-14824031D02*
X5925491Y-14843079D01*
X5925491Y-14843079D02*
X5925491Y-14862127D01*
X5925491Y-14862127D02*
X5915968Y-14890698D01*
X5915968Y-14890698D02*
X5801682Y-15004984D01*
X5801682Y-15004984D02*
X5925491Y-15004984D01*
X6163587Y-15004984D02*
X6163587Y-14804984D01*
X6249301Y-15004984D02*
X6249301Y-14900222D01*
X6249301Y-14900222D02*
X6239777Y-14881174D01*
X6239777Y-14881174D02*
X6220730Y-14871650D01*
X6220730Y-14871650D02*
X6192158Y-14871650D01*
X6192158Y-14871650D02*
X6173110Y-14881174D01*
X6173110Y-14881174D02*
X6163587Y-14890698D01*
X6373110Y-15004984D02*
X6354063Y-14995460D01*
X6354063Y-14995460D02*
X6344539Y-14985936D01*
X6344539Y-14985936D02*
X6335015Y-14966888D01*
X6335015Y-14966888D02*
X6335015Y-14909746D01*
X6335015Y-14909746D02*
X6344539Y-14890698D01*
X6344539Y-14890698D02*
X6354063Y-14881174D01*
X6354063Y-14881174D02*
X6373110Y-14871650D01*
X6373110Y-14871650D02*
X6401682Y-14871650D01*
X6401682Y-14871650D02*
X6420730Y-14881174D01*
X6420730Y-14881174D02*
X6430253Y-14890698D01*
X6430253Y-14890698D02*
X6439777Y-14909746D01*
X6439777Y-14909746D02*
X6439777Y-14966888D01*
X6439777Y-14966888D02*
X6430253Y-14985936D01*
X6430253Y-14985936D02*
X6420730Y-14995460D01*
X6420730Y-14995460D02*
X6401682Y-15004984D01*
X6401682Y-15004984D02*
X6373110Y-15004984D01*
X6554063Y-15004984D02*
X6535015Y-14995460D01*
X6535015Y-14995460D02*
X6525491Y-14976412D01*
X6525491Y-14976412D02*
X6525491Y-14804984D01*
X6706444Y-14995460D02*
X6687396Y-15004984D01*
X6687396Y-15004984D02*
X6649301Y-15004984D01*
X6649301Y-15004984D02*
X6630253Y-14995460D01*
X6630253Y-14995460D02*
X6620730Y-14976412D01*
X6620730Y-14976412D02*
X6620730Y-14900222D01*
X6620730Y-14900222D02*
X6630253Y-14881174D01*
X6630253Y-14881174D02*
X6649301Y-14871650D01*
X6649301Y-14871650D02*
X6687396Y-14871650D01*
X6687396Y-14871650D02*
X6706444Y-14881174D01*
X6706444Y-14881174D02*
X6715968Y-14900222D01*
X6715968Y-14900222D02*
X6715968Y-14919269D01*
X6715968Y-14919269D02*
X6620730Y-14938317D01*
X6792158Y-14995460D02*
X6811206Y-15004984D01*
X6811206Y-15004984D02*
X6849301Y-15004984D01*
X6849301Y-15004984D02*
X6868349Y-14995460D01*
X6868349Y-14995460D02*
X6877872Y-14976412D01*
X6877872Y-14976412D02*
X6877872Y-14966888D01*
X6877872Y-14966888D02*
X6868349Y-14947841D01*
X6868349Y-14947841D02*
X6849301Y-14938317D01*
X6849301Y-14938317D02*
X6820730Y-14938317D01*
X6820730Y-14938317D02*
X6801682Y-14928793D01*
X6801682Y-14928793D02*
X6792158Y-14909746D01*
X6792158Y-14909746D02*
X6792158Y-14900222D01*
X6792158Y-14900222D02*
X6801682Y-14881174D01*
X6801682Y-14881174D02*
X6820730Y-14871650D01*
X6820730Y-14871650D02*
X6849301Y-14871650D01*
X6849301Y-14871650D02*
X6868349Y-14881174D01*
X6944539Y-15081174D02*
X6954063Y-15071650D01*
X6954063Y-15071650D02*
X6973111Y-15043079D01*
X6973111Y-15043079D02*
X6982634Y-15024031D01*
X6982634Y-15024031D02*
X6992158Y-14995460D01*
X6992158Y-14995460D02*
X7001682Y-14947841D01*
X7001682Y-14947841D02*
X7001682Y-14909746D01*
X7001682Y-14909746D02*
X6992158Y-14862127D01*
X6992158Y-14862127D02*
X6982634Y-14833555D01*
X6982634Y-14833555D02*
X6973111Y-14814508D01*
X6973111Y-14814508D02*
X6954063Y-14785936D01*
X6954063Y-14785936D02*
X6944539Y-14776412D01*
D10*
X1929000Y-15127500D02*
X1929000Y-15227500D01*
X1879000Y-15177500D02*
X1979000Y-15177500D01*
D11*
X2344539Y-15268984D02*
X2230253Y-15268984D01*
X2287396Y-15268984D02*
X2287396Y-15068984D01*
X2287396Y-15068984D02*
X2268348Y-15097555D01*
X2268348Y-15097555D02*
X2249301Y-15116603D01*
X2249301Y-15116603D02*
X2230253Y-15126127D01*
X2430253Y-15249936D02*
X2439777Y-15259460D01*
X2439777Y-15259460D02*
X2430253Y-15268984D01*
X2430253Y-15268984D02*
X2420729Y-15259460D01*
X2420729Y-15259460D02*
X2430253Y-15249936D01*
X2430253Y-15249936D02*
X2430253Y-15268984D01*
X2563586Y-15068984D02*
X2582634Y-15068984D01*
X2582634Y-15068984D02*
X2601682Y-15078508D01*
X2601682Y-15078508D02*
X2611205Y-15088031D01*
X2611205Y-15088031D02*
X2620729Y-15107079D01*
X2620729Y-15107079D02*
X2630253Y-15145174D01*
X2630253Y-15145174D02*
X2630253Y-15192793D01*
X2630253Y-15192793D02*
X2620729Y-15230888D01*
X2620729Y-15230888D02*
X2611205Y-15249936D01*
X2611205Y-15249936D02*
X2601682Y-15259460D01*
X2601682Y-15259460D02*
X2582634Y-15268984D01*
X2582634Y-15268984D02*
X2563586Y-15268984D01*
X2563586Y-15268984D02*
X2544539Y-15259460D01*
X2544539Y-15259460D02*
X2535015Y-15249936D01*
X2535015Y-15249936D02*
X2525491Y-15230888D01*
X2525491Y-15230888D02*
X2515967Y-15192793D01*
X2515967Y-15192793D02*
X2515967Y-15145174D01*
X2515967Y-15145174D02*
X2525491Y-15107079D01*
X2525491Y-15107079D02*
X2535015Y-15088031D01*
X2535015Y-15088031D02*
X2544539Y-15078508D01*
X2544539Y-15078508D02*
X2563586Y-15068984D01*
X2754063Y-15068984D02*
X2773110Y-15068984D01*
X2773110Y-15068984D02*
X2792158Y-15078508D01*
X2792158Y-15078508D02*
X2801682Y-15088031D01*
X2801682Y-15088031D02*
X2811205Y-15107079D01*
X2811205Y-15107079D02*
X2820729Y-15145174D01*
X2820729Y-15145174D02*
X2820729Y-15192793D01*
X2820729Y-15192793D02*
X2811205Y-15230888D01*
X2811205Y-15230888D02*
X2801682Y-15249936D01*
X2801682Y-15249936D02*
X2792158Y-15259460D01*
X2792158Y-15259460D02*
X2773110Y-15268984D01*
X2773110Y-15268984D02*
X2754063Y-15268984D01*
X2754063Y-15268984D02*
X2735015Y-15259460D01*
X2735015Y-15259460D02*
X2725491Y-15249936D01*
X2725491Y-15249936D02*
X2715967Y-15230888D01*
X2715967Y-15230888D02*
X2706444Y-15192793D01*
X2706444Y-15192793D02*
X2706444Y-15145174D01*
X2706444Y-15145174D02*
X2715967Y-15107079D01*
X2715967Y-15107079D02*
X2725491Y-15088031D01*
X2725491Y-15088031D02*
X2735015Y-15078508D01*
X2735015Y-15078508D02*
X2754063Y-15068984D01*
X2944539Y-15068984D02*
X2963586Y-15068984D01*
X2963586Y-15068984D02*
X2982634Y-15078508D01*
X2982634Y-15078508D02*
X2992158Y-15088031D01*
X2992158Y-15088031D02*
X3001682Y-15107079D01*
X3001682Y-15107079D02*
X3011205Y-15145174D01*
X3011205Y-15145174D02*
X3011205Y-15192793D01*
X3011205Y-15192793D02*
X3001682Y-15230888D01*
X3001682Y-15230888D02*
X2992158Y-15249936D01*
X2992158Y-15249936D02*
X2982634Y-15259460D01*
X2982634Y-15259460D02*
X2963586Y-15268984D01*
X2963586Y-15268984D02*
X2944539Y-15268984D01*
X2944539Y-15268984D02*
X2925491Y-15259460D01*
X2925491Y-15259460D02*
X2915967Y-15249936D01*
X2915967Y-15249936D02*
X2906443Y-15230888D01*
X2906443Y-15230888D02*
X2896920Y-15192793D01*
X2896920Y-15192793D02*
X2896920Y-15145174D01*
X2896920Y-15145174D02*
X2906443Y-15107079D01*
X2906443Y-15107079D02*
X2915967Y-15088031D01*
X2915967Y-15088031D02*
X2925491Y-15078508D01*
X2925491Y-15078508D02*
X2944539Y-15068984D01*
X3096920Y-15268984D02*
X3096920Y-15135650D01*
X3096920Y-15154698D02*
X3106443Y-15145174D01*
X3106443Y-15145174D02*
X3125491Y-15135650D01*
X3125491Y-15135650D02*
X3154063Y-15135650D01*
X3154063Y-15135650D02*
X3173110Y-15145174D01*
X3173110Y-15145174D02*
X3182634Y-15164222D01*
X3182634Y-15164222D02*
X3182634Y-15268984D01*
X3182634Y-15164222D02*
X3192158Y-15145174D01*
X3192158Y-15145174D02*
X3211205Y-15135650D01*
X3211205Y-15135650D02*
X3239777Y-15135650D01*
X3239777Y-15135650D02*
X3258824Y-15145174D01*
X3258824Y-15145174D02*
X3268348Y-15164222D01*
X3268348Y-15164222D02*
X3268348Y-15268984D01*
X3363586Y-15268984D02*
X3363586Y-15135650D01*
X3363586Y-15154698D02*
X3373110Y-15145174D01*
X3373110Y-15145174D02*
X3392158Y-15135650D01*
X3392158Y-15135650D02*
X3420729Y-15135650D01*
X3420729Y-15135650D02*
X3439777Y-15145174D01*
X3439777Y-15145174D02*
X3449301Y-15164222D01*
X3449301Y-15164222D02*
X3449301Y-15268984D01*
X3449301Y-15164222D02*
X3458824Y-15145174D01*
X3458824Y-15145174D02*
X3477872Y-15135650D01*
X3477872Y-15135650D02*
X3506443Y-15135650D01*
X3506443Y-15135650D02*
X3525491Y-15145174D01*
X3525491Y-15145174D02*
X3535015Y-15164222D01*
X3535015Y-15164222D02*
X3535015Y-15268984D01*
X3925491Y-15059460D02*
X3754063Y-15316603D01*
X4182634Y-15068984D02*
X4201682Y-15068984D01*
X4201682Y-15068984D02*
X4220729Y-15078508D01*
X4220729Y-15078508D02*
X4230253Y-15088031D01*
X4230253Y-15088031D02*
X4239777Y-15107079D01*
X4239777Y-15107079D02*
X4249301Y-15145174D01*
X4249301Y-15145174D02*
X4249301Y-15192793D01*
X4249301Y-15192793D02*
X4239777Y-15230888D01*
X4239777Y-15230888D02*
X4230253Y-15249936D01*
X4230253Y-15249936D02*
X4220729Y-15259460D01*
X4220729Y-15259460D02*
X4201682Y-15268984D01*
X4201682Y-15268984D02*
X4182634Y-15268984D01*
X4182634Y-15268984D02*
X4163586Y-15259460D01*
X4163586Y-15259460D02*
X4154063Y-15249936D01*
X4154063Y-15249936D02*
X4144539Y-15230888D01*
X4144539Y-15230888D02*
X4135015Y-15192793D01*
X4135015Y-15192793D02*
X4135015Y-15145174D01*
X4135015Y-15145174D02*
X4144539Y-15107079D01*
X4144539Y-15107079D02*
X4154063Y-15088031D01*
X4154063Y-15088031D02*
X4163586Y-15078508D01*
X4163586Y-15078508D02*
X4182634Y-15068984D01*
X4335015Y-15249936D02*
X4344539Y-15259460D01*
X4344539Y-15259460D02*
X4335015Y-15268984D01*
X4335015Y-15268984D02*
X4325491Y-15259460D01*
X4325491Y-15259460D02*
X4335015Y-15249936D01*
X4335015Y-15249936D02*
X4335015Y-15268984D01*
X4468348Y-15068984D02*
X4487396Y-15068984D01*
X4487396Y-15068984D02*
X4506444Y-15078508D01*
X4506444Y-15078508D02*
X4515968Y-15088031D01*
X4515968Y-15088031D02*
X4525491Y-15107079D01*
X4525491Y-15107079D02*
X4535015Y-15145174D01*
X4535015Y-15145174D02*
X4535015Y-15192793D01*
X4535015Y-15192793D02*
X4525491Y-15230888D01*
X4525491Y-15230888D02*
X4515968Y-15249936D01*
X4515968Y-15249936D02*
X4506444Y-15259460D01*
X4506444Y-15259460D02*
X4487396Y-15268984D01*
X4487396Y-15268984D02*
X4468348Y-15268984D01*
X4468348Y-15268984D02*
X4449301Y-15259460D01*
X4449301Y-15259460D02*
X4439777Y-15249936D01*
X4439777Y-15249936D02*
X4430253Y-15230888D01*
X4430253Y-15230888D02*
X4420729Y-15192793D01*
X4420729Y-15192793D02*
X4420729Y-15145174D01*
X4420729Y-15145174D02*
X4430253Y-15107079D01*
X4430253Y-15107079D02*
X4439777Y-15088031D01*
X4439777Y-15088031D02*
X4449301Y-15078508D01*
X4449301Y-15078508D02*
X4468348Y-15068984D01*
X4601682Y-15068984D02*
X4725491Y-15068984D01*
X4725491Y-15068984D02*
X4658825Y-15145174D01*
X4658825Y-15145174D02*
X4687396Y-15145174D01*
X4687396Y-15145174D02*
X4706444Y-15154698D01*
X4706444Y-15154698D02*
X4715968Y-15164222D01*
X4715968Y-15164222D02*
X4725491Y-15183269D01*
X4725491Y-15183269D02*
X4725491Y-15230888D01*
X4725491Y-15230888D02*
X4715968Y-15249936D01*
X4715968Y-15249936D02*
X4706444Y-15259460D01*
X4706444Y-15259460D02*
X4687396Y-15268984D01*
X4687396Y-15268984D02*
X4630253Y-15268984D01*
X4630253Y-15268984D02*
X4611206Y-15259460D01*
X4611206Y-15259460D02*
X4601682Y-15249936D01*
X4820729Y-15268984D02*
X4858825Y-15268984D01*
X4858825Y-15268984D02*
X4877872Y-15259460D01*
X4877872Y-15259460D02*
X4887396Y-15249936D01*
X4887396Y-15249936D02*
X4906444Y-15221365D01*
X4906444Y-15221365D02*
X4915968Y-15183269D01*
X4915968Y-15183269D02*
X4915968Y-15107079D01*
X4915968Y-15107079D02*
X4906444Y-15088031D01*
X4906444Y-15088031D02*
X4896920Y-15078508D01*
X4896920Y-15078508D02*
X4877872Y-15068984D01*
X4877872Y-15068984D02*
X4839777Y-15068984D01*
X4839777Y-15068984D02*
X4820729Y-15078508D01*
X4820729Y-15078508D02*
X4811206Y-15088031D01*
X4811206Y-15088031D02*
X4801682Y-15107079D01*
X4801682Y-15107079D02*
X4801682Y-15154698D01*
X4801682Y-15154698D02*
X4811206Y-15173746D01*
X4811206Y-15173746D02*
X4820729Y-15183269D01*
X4820729Y-15183269D02*
X4839777Y-15192793D01*
X4839777Y-15192793D02*
X4877872Y-15192793D01*
X4877872Y-15192793D02*
X4896920Y-15183269D01*
X4896920Y-15183269D02*
X4906444Y-15173746D01*
X4906444Y-15173746D02*
X4915968Y-15154698D01*
X5087396Y-15135650D02*
X5087396Y-15268984D01*
X5039777Y-15059460D02*
X4992158Y-15202317D01*
X4992158Y-15202317D02*
X5115968Y-15202317D01*
X5182634Y-15068984D02*
X5182634Y-15107079D01*
X5258825Y-15068984D02*
X5258825Y-15107079D01*
X5554063Y-15345174D02*
X5544539Y-15335650D01*
X5544539Y-15335650D02*
X5525491Y-15307079D01*
X5525491Y-15307079D02*
X5515968Y-15288031D01*
X5515968Y-15288031D02*
X5506444Y-15259460D01*
X5506444Y-15259460D02*
X5496920Y-15211841D01*
X5496920Y-15211841D02*
X5496920Y-15173746D01*
X5496920Y-15173746D02*
X5506444Y-15126127D01*
X5506444Y-15126127D02*
X5515968Y-15097555D01*
X5515968Y-15097555D02*
X5525491Y-15078508D01*
X5525491Y-15078508D02*
X5544539Y-15049936D01*
X5544539Y-15049936D02*
X5554063Y-15040412D01*
X5620729Y-15088031D02*
X5630253Y-15078508D01*
X5630253Y-15078508D02*
X5649301Y-15068984D01*
X5649301Y-15068984D02*
X5696920Y-15068984D01*
X5696920Y-15068984D02*
X5715968Y-15078508D01*
X5715968Y-15078508D02*
X5725491Y-15088031D01*
X5725491Y-15088031D02*
X5735015Y-15107079D01*
X5735015Y-15107079D02*
X5735015Y-15126127D01*
X5735015Y-15126127D02*
X5725491Y-15154698D01*
X5725491Y-15154698D02*
X5611206Y-15268984D01*
X5611206Y-15268984D02*
X5735015Y-15268984D01*
X5811206Y-15088031D02*
X5820729Y-15078508D01*
X5820729Y-15078508D02*
X5839777Y-15068984D01*
X5839777Y-15068984D02*
X5887396Y-15068984D01*
X5887396Y-15068984D02*
X5906444Y-15078508D01*
X5906444Y-15078508D02*
X5915968Y-15088031D01*
X5915968Y-15088031D02*
X5925491Y-15107079D01*
X5925491Y-15107079D02*
X5925491Y-15126127D01*
X5925491Y-15126127D02*
X5915968Y-15154698D01*
X5915968Y-15154698D02*
X5801682Y-15268984D01*
X5801682Y-15268984D02*
X5925491Y-15268984D01*
X6163587Y-15268984D02*
X6163587Y-15068984D01*
X6249301Y-15268984D02*
X6249301Y-15164222D01*
X6249301Y-15164222D02*
X6239777Y-15145174D01*
X6239777Y-15145174D02*
X6220730Y-15135650D01*
X6220730Y-15135650D02*
X6192158Y-15135650D01*
X6192158Y-15135650D02*
X6173110Y-15145174D01*
X6173110Y-15145174D02*
X6163587Y-15154698D01*
X6373110Y-15268984D02*
X6354063Y-15259460D01*
X6354063Y-15259460D02*
X6344539Y-15249936D01*
X6344539Y-15249936D02*
X6335015Y-15230888D01*
X6335015Y-15230888D02*
X6335015Y-15173746D01*
X6335015Y-15173746D02*
X6344539Y-15154698D01*
X6344539Y-15154698D02*
X6354063Y-15145174D01*
X6354063Y-15145174D02*
X6373110Y-15135650D01*
X6373110Y-15135650D02*
X6401682Y-15135650D01*
X6401682Y-15135650D02*
X6420730Y-15145174D01*
X6420730Y-15145174D02*
X6430253Y-15154698D01*
X6430253Y-15154698D02*
X6439777Y-15173746D01*
X6439777Y-15173746D02*
X6439777Y-15230888D01*
X6439777Y-15230888D02*
X6430253Y-15249936D01*
X6430253Y-15249936D02*
X6420730Y-15259460D01*
X6420730Y-15259460D02*
X6401682Y-15268984D01*
X6401682Y-15268984D02*
X6373110Y-15268984D01*
X6554063Y-15268984D02*
X6535015Y-15259460D01*
X6535015Y-15259460D02*
X6525491Y-15240412D01*
X6525491Y-15240412D02*
X6525491Y-15068984D01*
X6706444Y-15259460D02*
X6687396Y-15268984D01*
X6687396Y-15268984D02*
X6649301Y-15268984D01*
X6649301Y-15268984D02*
X6630253Y-15259460D01*
X6630253Y-15259460D02*
X6620730Y-15240412D01*
X6620730Y-15240412D02*
X6620730Y-15164222D01*
X6620730Y-15164222D02*
X6630253Y-15145174D01*
X6630253Y-15145174D02*
X6649301Y-15135650D01*
X6649301Y-15135650D02*
X6687396Y-15135650D01*
X6687396Y-15135650D02*
X6706444Y-15145174D01*
X6706444Y-15145174D02*
X6715968Y-15164222D01*
X6715968Y-15164222D02*
X6715968Y-15183269D01*
X6715968Y-15183269D02*
X6620730Y-15202317D01*
X6792158Y-15259460D02*
X6811206Y-15268984D01*
X6811206Y-15268984D02*
X6849301Y-15268984D01*
X6849301Y-15268984D02*
X6868349Y-15259460D01*
X6868349Y-15259460D02*
X6877872Y-15240412D01*
X6877872Y-15240412D02*
X6877872Y-15230888D01*
X6877872Y-15230888D02*
X6868349Y-15211841D01*
X6868349Y-15211841D02*
X6849301Y-15202317D01*
X6849301Y-15202317D02*
X6820730Y-15202317D01*
X6820730Y-15202317D02*
X6801682Y-15192793D01*
X6801682Y-15192793D02*
X6792158Y-15173746D01*
X6792158Y-15173746D02*
X6792158Y-15164222D01*
X6792158Y-15164222D02*
X6801682Y-15145174D01*
X6801682Y-15145174D02*
X6820730Y-15135650D01*
X6820730Y-15135650D02*
X6849301Y-15135650D01*
X6849301Y-15135650D02*
X6868349Y-15145174D01*
X6944539Y-15345174D02*
X6954063Y-15335650D01*
X6954063Y-15335650D02*
X6973111Y-15307079D01*
X6973111Y-15307079D02*
X6982634Y-15288031D01*
X6982634Y-15288031D02*
X6992158Y-15259460D01*
X6992158Y-15259460D02*
X7001682Y-15211841D01*
X7001682Y-15211841D02*
X7001682Y-15173746D01*
X7001682Y-15173746D02*
X6992158Y-15126127D01*
X6992158Y-15126127D02*
X6982634Y-15097555D01*
X6982634Y-15097555D02*
X6973111Y-15078508D01*
X6973111Y-15078508D02*
X6954063Y-15049936D01*
X6954063Y-15049936D02*
X6944539Y-15040412D01*
D12*
X1962891Y-15480391D02*
X1962891Y-15402609D01*
X1885109Y-15402609D01*
X1885109Y-15480391D01*
X1962891Y-15480391D01*
D11*
X2344539Y-15532984D02*
X2230253Y-15532984D01*
X2287396Y-15532984D02*
X2287396Y-15332984D01*
X2287396Y-15332984D02*
X2268348Y-15361555D01*
X2268348Y-15361555D02*
X2249301Y-15380603D01*
X2249301Y-15380603D02*
X2230253Y-15390127D01*
X2430253Y-15513936D02*
X2439777Y-15523460D01*
X2439777Y-15523460D02*
X2430253Y-15532984D01*
X2430253Y-15532984D02*
X2420729Y-15523460D01*
X2420729Y-15523460D02*
X2430253Y-15513936D01*
X2430253Y-15513936D02*
X2430253Y-15532984D01*
X2630253Y-15532984D02*
X2515967Y-15532984D01*
X2573110Y-15532984D02*
X2573110Y-15332984D01*
X2573110Y-15332984D02*
X2554063Y-15361555D01*
X2554063Y-15361555D02*
X2535015Y-15380603D01*
X2535015Y-15380603D02*
X2515967Y-15390127D01*
X2754063Y-15332984D02*
X2773110Y-15332984D01*
X2773110Y-15332984D02*
X2792158Y-15342508D01*
X2792158Y-15342508D02*
X2801682Y-15352031D01*
X2801682Y-15352031D02*
X2811205Y-15371079D01*
X2811205Y-15371079D02*
X2820729Y-15409174D01*
X2820729Y-15409174D02*
X2820729Y-15456793D01*
X2820729Y-15456793D02*
X2811205Y-15494888D01*
X2811205Y-15494888D02*
X2801682Y-15513936D01*
X2801682Y-15513936D02*
X2792158Y-15523460D01*
X2792158Y-15523460D02*
X2773110Y-15532984D01*
X2773110Y-15532984D02*
X2754063Y-15532984D01*
X2754063Y-15532984D02*
X2735015Y-15523460D01*
X2735015Y-15523460D02*
X2725491Y-15513936D01*
X2725491Y-15513936D02*
X2715967Y-15494888D01*
X2715967Y-15494888D02*
X2706444Y-15456793D01*
X2706444Y-15456793D02*
X2706444Y-15409174D01*
X2706444Y-15409174D02*
X2715967Y-15371079D01*
X2715967Y-15371079D02*
X2725491Y-15352031D01*
X2725491Y-15352031D02*
X2735015Y-15342508D01*
X2735015Y-15342508D02*
X2754063Y-15332984D01*
X2944539Y-15332984D02*
X2963586Y-15332984D01*
X2963586Y-15332984D02*
X2982634Y-15342508D01*
X2982634Y-15342508D02*
X2992158Y-15352031D01*
X2992158Y-15352031D02*
X3001682Y-15371079D01*
X3001682Y-15371079D02*
X3011205Y-15409174D01*
X3011205Y-15409174D02*
X3011205Y-15456793D01*
X3011205Y-15456793D02*
X3001682Y-15494888D01*
X3001682Y-15494888D02*
X2992158Y-15513936D01*
X2992158Y-15513936D02*
X2982634Y-15523460D01*
X2982634Y-15523460D02*
X2963586Y-15532984D01*
X2963586Y-15532984D02*
X2944539Y-15532984D01*
X2944539Y-15532984D02*
X2925491Y-15523460D01*
X2925491Y-15523460D02*
X2915967Y-15513936D01*
X2915967Y-15513936D02*
X2906443Y-15494888D01*
X2906443Y-15494888D02*
X2896920Y-15456793D01*
X2896920Y-15456793D02*
X2896920Y-15409174D01*
X2896920Y-15409174D02*
X2906443Y-15371079D01*
X2906443Y-15371079D02*
X2915967Y-15352031D01*
X2915967Y-15352031D02*
X2925491Y-15342508D01*
X2925491Y-15342508D02*
X2944539Y-15332984D01*
X3096920Y-15532984D02*
X3096920Y-15399650D01*
X3096920Y-15418698D02*
X3106443Y-15409174D01*
X3106443Y-15409174D02*
X3125491Y-15399650D01*
X3125491Y-15399650D02*
X3154063Y-15399650D01*
X3154063Y-15399650D02*
X3173110Y-15409174D01*
X3173110Y-15409174D02*
X3182634Y-15428222D01*
X3182634Y-15428222D02*
X3182634Y-15532984D01*
X3182634Y-15428222D02*
X3192158Y-15409174D01*
X3192158Y-15409174D02*
X3211205Y-15399650D01*
X3211205Y-15399650D02*
X3239777Y-15399650D01*
X3239777Y-15399650D02*
X3258824Y-15409174D01*
X3258824Y-15409174D02*
X3268348Y-15428222D01*
X3268348Y-15428222D02*
X3268348Y-15532984D01*
X3363586Y-15532984D02*
X3363586Y-15399650D01*
X3363586Y-15418698D02*
X3373110Y-15409174D01*
X3373110Y-15409174D02*
X3392158Y-15399650D01*
X3392158Y-15399650D02*
X3420729Y-15399650D01*
X3420729Y-15399650D02*
X3439777Y-15409174D01*
X3439777Y-15409174D02*
X3449301Y-15428222D01*
X3449301Y-15428222D02*
X3449301Y-15532984D01*
X3449301Y-15428222D02*
X3458824Y-15409174D01*
X3458824Y-15409174D02*
X3477872Y-15399650D01*
X3477872Y-15399650D02*
X3506443Y-15399650D01*
X3506443Y-15399650D02*
X3525491Y-15409174D01*
X3525491Y-15409174D02*
X3535015Y-15428222D01*
X3535015Y-15428222D02*
X3535015Y-15532984D01*
X3925491Y-15323460D02*
X3754063Y-15580603D01*
X4182634Y-15332984D02*
X4201682Y-15332984D01*
X4201682Y-15332984D02*
X4220729Y-15342508D01*
X4220729Y-15342508D02*
X4230253Y-15352031D01*
X4230253Y-15352031D02*
X4239777Y-15371079D01*
X4239777Y-15371079D02*
X4249301Y-15409174D01*
X4249301Y-15409174D02*
X4249301Y-15456793D01*
X4249301Y-15456793D02*
X4239777Y-15494888D01*
X4239777Y-15494888D02*
X4230253Y-15513936D01*
X4230253Y-15513936D02*
X4220729Y-15523460D01*
X4220729Y-15523460D02*
X4201682Y-15532984D01*
X4201682Y-15532984D02*
X4182634Y-15532984D01*
X4182634Y-15532984D02*
X4163586Y-15523460D01*
X4163586Y-15523460D02*
X4154063Y-15513936D01*
X4154063Y-15513936D02*
X4144539Y-15494888D01*
X4144539Y-15494888D02*
X4135015Y-15456793D01*
X4135015Y-15456793D02*
X4135015Y-15409174D01*
X4135015Y-15409174D02*
X4144539Y-15371079D01*
X4144539Y-15371079D02*
X4154063Y-15352031D01*
X4154063Y-15352031D02*
X4163586Y-15342508D01*
X4163586Y-15342508D02*
X4182634Y-15332984D01*
X4335015Y-15513936D02*
X4344539Y-15523460D01*
X4344539Y-15523460D02*
X4335015Y-15532984D01*
X4335015Y-15532984D02*
X4325491Y-15523460D01*
X4325491Y-15523460D02*
X4335015Y-15513936D01*
X4335015Y-15513936D02*
X4335015Y-15532984D01*
X4468348Y-15332984D02*
X4487396Y-15332984D01*
X4487396Y-15332984D02*
X4506444Y-15342508D01*
X4506444Y-15342508D02*
X4515968Y-15352031D01*
X4515968Y-15352031D02*
X4525491Y-15371079D01*
X4525491Y-15371079D02*
X4535015Y-15409174D01*
X4535015Y-15409174D02*
X4535015Y-15456793D01*
X4535015Y-15456793D02*
X4525491Y-15494888D01*
X4525491Y-15494888D02*
X4515968Y-15513936D01*
X4515968Y-15513936D02*
X4506444Y-15523460D01*
X4506444Y-15523460D02*
X4487396Y-15532984D01*
X4487396Y-15532984D02*
X4468348Y-15532984D01*
X4468348Y-15532984D02*
X4449301Y-15523460D01*
X4449301Y-15523460D02*
X4439777Y-15513936D01*
X4439777Y-15513936D02*
X4430253Y-15494888D01*
X4430253Y-15494888D02*
X4420729Y-15456793D01*
X4420729Y-15456793D02*
X4420729Y-15409174D01*
X4420729Y-15409174D02*
X4430253Y-15371079D01*
X4430253Y-15371079D02*
X4439777Y-15352031D01*
X4439777Y-15352031D02*
X4449301Y-15342508D01*
X4449301Y-15342508D02*
X4468348Y-15332984D01*
X4706444Y-15399650D02*
X4706444Y-15532984D01*
X4658825Y-15323460D02*
X4611206Y-15466317D01*
X4611206Y-15466317D02*
X4735015Y-15466317D01*
X4792158Y-15332984D02*
X4915968Y-15332984D01*
X4915968Y-15332984D02*
X4849301Y-15409174D01*
X4849301Y-15409174D02*
X4877872Y-15409174D01*
X4877872Y-15409174D02*
X4896920Y-15418698D01*
X4896920Y-15418698D02*
X4906444Y-15428222D01*
X4906444Y-15428222D02*
X4915968Y-15447269D01*
X4915968Y-15447269D02*
X4915968Y-15494888D01*
X4915968Y-15494888D02*
X4906444Y-15513936D01*
X4906444Y-15513936D02*
X4896920Y-15523460D01*
X4896920Y-15523460D02*
X4877872Y-15532984D01*
X4877872Y-15532984D02*
X4820729Y-15532984D01*
X4820729Y-15532984D02*
X4801682Y-15523460D01*
X4801682Y-15523460D02*
X4792158Y-15513936D01*
X4982634Y-15332984D02*
X5106444Y-15332984D01*
X5106444Y-15332984D02*
X5039777Y-15409174D01*
X5039777Y-15409174D02*
X5068349Y-15409174D01*
X5068349Y-15409174D02*
X5087396Y-15418698D01*
X5087396Y-15418698D02*
X5096920Y-15428222D01*
X5096920Y-15428222D02*
X5106444Y-15447269D01*
X5106444Y-15447269D02*
X5106444Y-15494888D01*
X5106444Y-15494888D02*
X5096920Y-15513936D01*
X5096920Y-15513936D02*
X5087396Y-15523460D01*
X5087396Y-15523460D02*
X5068349Y-15532984D01*
X5068349Y-15532984D02*
X5011206Y-15532984D01*
X5011206Y-15532984D02*
X4992158Y-15523460D01*
X4992158Y-15523460D02*
X4982634Y-15513936D01*
X5182634Y-15332984D02*
X5182634Y-15371079D01*
X5258825Y-15332984D02*
X5258825Y-15371079D01*
X5554063Y-15609174D02*
X5544539Y-15599650D01*
X5544539Y-15599650D02*
X5525491Y-15571079D01*
X5525491Y-15571079D02*
X5515968Y-15552031D01*
X5515968Y-15552031D02*
X5506444Y-15523460D01*
X5506444Y-15523460D02*
X5496920Y-15475841D01*
X5496920Y-15475841D02*
X5496920Y-15437746D01*
X5496920Y-15437746D02*
X5506444Y-15390127D01*
X5506444Y-15390127D02*
X5515968Y-15361555D01*
X5515968Y-15361555D02*
X5525491Y-15342508D01*
X5525491Y-15342508D02*
X5544539Y-15313936D01*
X5544539Y-15313936D02*
X5554063Y-15304412D01*
X5639777Y-15532984D02*
X5677872Y-15532984D01*
X5677872Y-15532984D02*
X5696920Y-15523460D01*
X5696920Y-15523460D02*
X5706444Y-15513936D01*
X5706444Y-15513936D02*
X5725491Y-15485365D01*
X5725491Y-15485365D02*
X5735015Y-15447269D01*
X5735015Y-15447269D02*
X5735015Y-15371079D01*
X5735015Y-15371079D02*
X5725491Y-15352031D01*
X5725491Y-15352031D02*
X5715968Y-15342508D01*
X5715968Y-15342508D02*
X5696920Y-15332984D01*
X5696920Y-15332984D02*
X5658825Y-15332984D01*
X5658825Y-15332984D02*
X5639777Y-15342508D01*
X5639777Y-15342508D02*
X5630253Y-15352031D01*
X5630253Y-15352031D02*
X5620729Y-15371079D01*
X5620729Y-15371079D02*
X5620729Y-15418698D01*
X5620729Y-15418698D02*
X5630253Y-15437746D01*
X5630253Y-15437746D02*
X5639777Y-15447269D01*
X5639777Y-15447269D02*
X5658825Y-15456793D01*
X5658825Y-15456793D02*
X5696920Y-15456793D01*
X5696920Y-15456793D02*
X5715968Y-15447269D01*
X5715968Y-15447269D02*
X5725491Y-15437746D01*
X5725491Y-15437746D02*
X5735015Y-15418698D01*
X5973110Y-15532984D02*
X5973110Y-15332984D01*
X6058825Y-15532984D02*
X6058825Y-15428222D01*
X6058825Y-15428222D02*
X6049301Y-15409174D01*
X6049301Y-15409174D02*
X6030253Y-15399650D01*
X6030253Y-15399650D02*
X6001682Y-15399650D01*
X6001682Y-15399650D02*
X5982634Y-15409174D01*
X5982634Y-15409174D02*
X5973110Y-15418698D01*
X6182634Y-15532984D02*
X6163587Y-15523460D01*
X6163587Y-15523460D02*
X6154063Y-15513936D01*
X6154063Y-15513936D02*
X6144539Y-15494888D01*
X6144539Y-15494888D02*
X6144539Y-15437746D01*
X6144539Y-15437746D02*
X6154063Y-15418698D01*
X6154063Y-15418698D02*
X6163587Y-15409174D01*
X6163587Y-15409174D02*
X6182634Y-15399650D01*
X6182634Y-15399650D02*
X6211206Y-15399650D01*
X6211206Y-15399650D02*
X6230253Y-15409174D01*
X6230253Y-15409174D02*
X6239777Y-15418698D01*
X6239777Y-15418698D02*
X6249301Y-15437746D01*
X6249301Y-15437746D02*
X6249301Y-15494888D01*
X6249301Y-15494888D02*
X6239777Y-15513936D01*
X6239777Y-15513936D02*
X6230253Y-15523460D01*
X6230253Y-15523460D02*
X6211206Y-15532984D01*
X6211206Y-15532984D02*
X6182634Y-15532984D01*
X6363587Y-15532984D02*
X6344539Y-15523460D01*
X6344539Y-15523460D02*
X6335015Y-15504412D01*
X6335015Y-15504412D02*
X6335015Y-15332984D01*
X6515968Y-15523460D02*
X6496920Y-15532984D01*
X6496920Y-15532984D02*
X6458825Y-15532984D01*
X6458825Y-15532984D02*
X6439777Y-15523460D01*
X6439777Y-15523460D02*
X6430253Y-15504412D01*
X6430253Y-15504412D02*
X6430253Y-15428222D01*
X6430253Y-15428222D02*
X6439777Y-15409174D01*
X6439777Y-15409174D02*
X6458825Y-15399650D01*
X6458825Y-15399650D02*
X6496920Y-15399650D01*
X6496920Y-15399650D02*
X6515968Y-15409174D01*
X6515968Y-15409174D02*
X6525491Y-15428222D01*
X6525491Y-15428222D02*
X6525491Y-15447269D01*
X6525491Y-15447269D02*
X6430253Y-15466317D01*
X6601682Y-15523460D02*
X6620730Y-15532984D01*
X6620730Y-15532984D02*
X6658825Y-15532984D01*
X6658825Y-15532984D02*
X6677872Y-15523460D01*
X6677872Y-15523460D02*
X6687396Y-15504412D01*
X6687396Y-15504412D02*
X6687396Y-15494888D01*
X6687396Y-15494888D02*
X6677872Y-15475841D01*
X6677872Y-15475841D02*
X6658825Y-15466317D01*
X6658825Y-15466317D02*
X6630253Y-15466317D01*
X6630253Y-15466317D02*
X6611206Y-15456793D01*
X6611206Y-15456793D02*
X6601682Y-15437746D01*
X6601682Y-15437746D02*
X6601682Y-15428222D01*
X6601682Y-15428222D02*
X6611206Y-15409174D01*
X6611206Y-15409174D02*
X6630253Y-15399650D01*
X6630253Y-15399650D02*
X6658825Y-15399650D01*
X6658825Y-15399650D02*
X6677872Y-15409174D01*
X6754063Y-15609174D02*
X6763587Y-15599650D01*
X6763587Y-15599650D02*
X6782634Y-15571079D01*
X6782634Y-15571079D02*
X6792158Y-15552031D01*
X6792158Y-15552031D02*
X6801682Y-15523460D01*
X6801682Y-15523460D02*
X6811206Y-15475841D01*
X6811206Y-15475841D02*
X6811206Y-15437746D01*
X6811206Y-15437746D02*
X6801682Y-15390127D01*
X6801682Y-15390127D02*
X6792158Y-15361555D01*
X6792158Y-15361555D02*
X6782634Y-15342508D01*
X6782634Y-15342508D02*
X6763587Y-15313936D01*
X6763587Y-15313936D02*
X6754063Y-15304412D01*
D13*
X1919000Y-15765500D02*
X1979000Y-15705500D01*
X1919000Y-15645500D01*
X1859000Y-15705500D01*
X1919000Y-15765500D01*
D11*
X2344539Y-15796984D02*
X2230253Y-15796984D01*
X2287396Y-15796984D02*
X2287396Y-15596984D01*
X2287396Y-15596984D02*
X2268348Y-15625555D01*
X2268348Y-15625555D02*
X2249301Y-15644603D01*
X2249301Y-15644603D02*
X2230253Y-15654127D01*
X2430253Y-15777936D02*
X2439777Y-15787460D01*
X2439777Y-15787460D02*
X2430253Y-15796984D01*
X2430253Y-15796984D02*
X2420729Y-15787460D01*
X2420729Y-15787460D02*
X2430253Y-15777936D01*
X2430253Y-15777936D02*
X2430253Y-15796984D01*
X2515967Y-15616031D02*
X2525491Y-15606508D01*
X2525491Y-15606508D02*
X2544539Y-15596984D01*
X2544539Y-15596984D02*
X2592158Y-15596984D01*
X2592158Y-15596984D02*
X2611205Y-15606508D01*
X2611205Y-15606508D02*
X2620729Y-15616031D01*
X2620729Y-15616031D02*
X2630253Y-15635079D01*
X2630253Y-15635079D02*
X2630253Y-15654127D01*
X2630253Y-15654127D02*
X2620729Y-15682698D01*
X2620729Y-15682698D02*
X2506444Y-15796984D01*
X2506444Y-15796984D02*
X2630253Y-15796984D01*
X2754063Y-15596984D02*
X2773110Y-15596984D01*
X2773110Y-15596984D02*
X2792158Y-15606508D01*
X2792158Y-15606508D02*
X2801682Y-15616031D01*
X2801682Y-15616031D02*
X2811205Y-15635079D01*
X2811205Y-15635079D02*
X2820729Y-15673174D01*
X2820729Y-15673174D02*
X2820729Y-15720793D01*
X2820729Y-15720793D02*
X2811205Y-15758888D01*
X2811205Y-15758888D02*
X2801682Y-15777936D01*
X2801682Y-15777936D02*
X2792158Y-15787460D01*
X2792158Y-15787460D02*
X2773110Y-15796984D01*
X2773110Y-15796984D02*
X2754063Y-15796984D01*
X2754063Y-15796984D02*
X2735015Y-15787460D01*
X2735015Y-15787460D02*
X2725491Y-15777936D01*
X2725491Y-15777936D02*
X2715967Y-15758888D01*
X2715967Y-15758888D02*
X2706444Y-15720793D01*
X2706444Y-15720793D02*
X2706444Y-15673174D01*
X2706444Y-15673174D02*
X2715967Y-15635079D01*
X2715967Y-15635079D02*
X2725491Y-15616031D01*
X2725491Y-15616031D02*
X2735015Y-15606508D01*
X2735015Y-15606508D02*
X2754063Y-15596984D01*
X2944539Y-15596984D02*
X2963586Y-15596984D01*
X2963586Y-15596984D02*
X2982634Y-15606508D01*
X2982634Y-15606508D02*
X2992158Y-15616031D01*
X2992158Y-15616031D02*
X3001682Y-15635079D01*
X3001682Y-15635079D02*
X3011205Y-15673174D01*
X3011205Y-15673174D02*
X3011205Y-15720793D01*
X3011205Y-15720793D02*
X3001682Y-15758888D01*
X3001682Y-15758888D02*
X2992158Y-15777936D01*
X2992158Y-15777936D02*
X2982634Y-15787460D01*
X2982634Y-15787460D02*
X2963586Y-15796984D01*
X2963586Y-15796984D02*
X2944539Y-15796984D01*
X2944539Y-15796984D02*
X2925491Y-15787460D01*
X2925491Y-15787460D02*
X2915967Y-15777936D01*
X2915967Y-15777936D02*
X2906443Y-15758888D01*
X2906443Y-15758888D02*
X2896920Y-15720793D01*
X2896920Y-15720793D02*
X2896920Y-15673174D01*
X2896920Y-15673174D02*
X2906443Y-15635079D01*
X2906443Y-15635079D02*
X2915967Y-15616031D01*
X2915967Y-15616031D02*
X2925491Y-15606508D01*
X2925491Y-15606508D02*
X2944539Y-15596984D01*
X3096920Y-15796984D02*
X3096920Y-15663650D01*
X3096920Y-15682698D02*
X3106443Y-15673174D01*
X3106443Y-15673174D02*
X3125491Y-15663650D01*
X3125491Y-15663650D02*
X3154063Y-15663650D01*
X3154063Y-15663650D02*
X3173110Y-15673174D01*
X3173110Y-15673174D02*
X3182634Y-15692222D01*
X3182634Y-15692222D02*
X3182634Y-15796984D01*
X3182634Y-15692222D02*
X3192158Y-15673174D01*
X3192158Y-15673174D02*
X3211205Y-15663650D01*
X3211205Y-15663650D02*
X3239777Y-15663650D01*
X3239777Y-15663650D02*
X3258824Y-15673174D01*
X3258824Y-15673174D02*
X3268348Y-15692222D01*
X3268348Y-15692222D02*
X3268348Y-15796984D01*
X3363586Y-15796984D02*
X3363586Y-15663650D01*
X3363586Y-15682698D02*
X3373110Y-15673174D01*
X3373110Y-15673174D02*
X3392158Y-15663650D01*
X3392158Y-15663650D02*
X3420729Y-15663650D01*
X3420729Y-15663650D02*
X3439777Y-15673174D01*
X3439777Y-15673174D02*
X3449301Y-15692222D01*
X3449301Y-15692222D02*
X3449301Y-15796984D01*
X3449301Y-15692222D02*
X3458824Y-15673174D01*
X3458824Y-15673174D02*
X3477872Y-15663650D01*
X3477872Y-15663650D02*
X3506443Y-15663650D01*
X3506443Y-15663650D02*
X3525491Y-15673174D01*
X3525491Y-15673174D02*
X3535015Y-15692222D01*
X3535015Y-15692222D02*
X3535015Y-15796984D01*
X3925491Y-15587460D02*
X3754063Y-15844603D01*
X4182634Y-15596984D02*
X4201682Y-15596984D01*
X4201682Y-15596984D02*
X4220729Y-15606508D01*
X4220729Y-15606508D02*
X4230253Y-15616031D01*
X4230253Y-15616031D02*
X4239777Y-15635079D01*
X4239777Y-15635079D02*
X4249301Y-15673174D01*
X4249301Y-15673174D02*
X4249301Y-15720793D01*
X4249301Y-15720793D02*
X4239777Y-15758888D01*
X4239777Y-15758888D02*
X4230253Y-15777936D01*
X4230253Y-15777936D02*
X4220729Y-15787460D01*
X4220729Y-15787460D02*
X4201682Y-15796984D01*
X4201682Y-15796984D02*
X4182634Y-15796984D01*
X4182634Y-15796984D02*
X4163586Y-15787460D01*
X4163586Y-15787460D02*
X4154063Y-15777936D01*
X4154063Y-15777936D02*
X4144539Y-15758888D01*
X4144539Y-15758888D02*
X4135015Y-15720793D01*
X4135015Y-15720793D02*
X4135015Y-15673174D01*
X4135015Y-15673174D02*
X4144539Y-15635079D01*
X4144539Y-15635079D02*
X4154063Y-15616031D01*
X4154063Y-15616031D02*
X4163586Y-15606508D01*
X4163586Y-15606508D02*
X4182634Y-15596984D01*
X4335015Y-15777936D02*
X4344539Y-15787460D01*
X4344539Y-15787460D02*
X4335015Y-15796984D01*
X4335015Y-15796984D02*
X4325491Y-15787460D01*
X4325491Y-15787460D02*
X4335015Y-15777936D01*
X4335015Y-15777936D02*
X4335015Y-15796984D01*
X4468348Y-15596984D02*
X4487396Y-15596984D01*
X4487396Y-15596984D02*
X4506444Y-15606508D01*
X4506444Y-15606508D02*
X4515968Y-15616031D01*
X4515968Y-15616031D02*
X4525491Y-15635079D01*
X4525491Y-15635079D02*
X4535015Y-15673174D01*
X4535015Y-15673174D02*
X4535015Y-15720793D01*
X4535015Y-15720793D02*
X4525491Y-15758888D01*
X4525491Y-15758888D02*
X4515968Y-15777936D01*
X4515968Y-15777936D02*
X4506444Y-15787460D01*
X4506444Y-15787460D02*
X4487396Y-15796984D01*
X4487396Y-15796984D02*
X4468348Y-15796984D01*
X4468348Y-15796984D02*
X4449301Y-15787460D01*
X4449301Y-15787460D02*
X4439777Y-15777936D01*
X4439777Y-15777936D02*
X4430253Y-15758888D01*
X4430253Y-15758888D02*
X4420729Y-15720793D01*
X4420729Y-15720793D02*
X4420729Y-15673174D01*
X4420729Y-15673174D02*
X4430253Y-15635079D01*
X4430253Y-15635079D02*
X4439777Y-15616031D01*
X4439777Y-15616031D02*
X4449301Y-15606508D01*
X4449301Y-15606508D02*
X4468348Y-15596984D01*
X4706444Y-15663650D02*
X4706444Y-15796984D01*
X4658825Y-15587460D02*
X4611206Y-15730317D01*
X4611206Y-15730317D02*
X4735015Y-15730317D01*
X4792158Y-15596984D02*
X4925491Y-15596984D01*
X4925491Y-15596984D02*
X4839777Y-15796984D01*
X4992158Y-15616031D02*
X5001682Y-15606508D01*
X5001682Y-15606508D02*
X5020729Y-15596984D01*
X5020729Y-15596984D02*
X5068349Y-15596984D01*
X5068349Y-15596984D02*
X5087396Y-15606508D01*
X5087396Y-15606508D02*
X5096920Y-15616031D01*
X5096920Y-15616031D02*
X5106444Y-15635079D01*
X5106444Y-15635079D02*
X5106444Y-15654127D01*
X5106444Y-15654127D02*
X5096920Y-15682698D01*
X5096920Y-15682698D02*
X4982634Y-15796984D01*
X4982634Y-15796984D02*
X5106444Y-15796984D01*
X5182634Y-15596984D02*
X5182634Y-15635079D01*
X5258825Y-15596984D02*
X5258825Y-15635079D01*
X5554063Y-15873174D02*
X5544539Y-15863650D01*
X5544539Y-15863650D02*
X5525491Y-15835079D01*
X5525491Y-15835079D02*
X5515968Y-15816031D01*
X5515968Y-15816031D02*
X5506444Y-15787460D01*
X5506444Y-15787460D02*
X5496920Y-15739841D01*
X5496920Y-15739841D02*
X5496920Y-15701746D01*
X5496920Y-15701746D02*
X5506444Y-15654127D01*
X5506444Y-15654127D02*
X5515968Y-15625555D01*
X5515968Y-15625555D02*
X5525491Y-15606508D01*
X5525491Y-15606508D02*
X5544539Y-15577936D01*
X5544539Y-15577936D02*
X5554063Y-15568412D01*
X5658825Y-15682698D02*
X5639777Y-15673174D01*
X5639777Y-15673174D02*
X5630253Y-15663650D01*
X5630253Y-15663650D02*
X5620729Y-15644603D01*
X5620729Y-15644603D02*
X5620729Y-15635079D01*
X5620729Y-15635079D02*
X5630253Y-15616031D01*
X5630253Y-15616031D02*
X5639777Y-15606508D01*
X5639777Y-15606508D02*
X5658825Y-15596984D01*
X5658825Y-15596984D02*
X5696920Y-15596984D01*
X5696920Y-15596984D02*
X5715968Y-15606508D01*
X5715968Y-15606508D02*
X5725491Y-15616031D01*
X5725491Y-15616031D02*
X5735015Y-15635079D01*
X5735015Y-15635079D02*
X5735015Y-15644603D01*
X5735015Y-15644603D02*
X5725491Y-15663650D01*
X5725491Y-15663650D02*
X5715968Y-15673174D01*
X5715968Y-15673174D02*
X5696920Y-15682698D01*
X5696920Y-15682698D02*
X5658825Y-15682698D01*
X5658825Y-15682698D02*
X5639777Y-15692222D01*
X5639777Y-15692222D02*
X5630253Y-15701746D01*
X5630253Y-15701746D02*
X5620729Y-15720793D01*
X5620729Y-15720793D02*
X5620729Y-15758888D01*
X5620729Y-15758888D02*
X5630253Y-15777936D01*
X5630253Y-15777936D02*
X5639777Y-15787460D01*
X5639777Y-15787460D02*
X5658825Y-15796984D01*
X5658825Y-15796984D02*
X5696920Y-15796984D01*
X5696920Y-15796984D02*
X5715968Y-15787460D01*
X5715968Y-15787460D02*
X5725491Y-15777936D01*
X5725491Y-15777936D02*
X5735015Y-15758888D01*
X5735015Y-15758888D02*
X5735015Y-15720793D01*
X5735015Y-15720793D02*
X5725491Y-15701746D01*
X5725491Y-15701746D02*
X5715968Y-15692222D01*
X5715968Y-15692222D02*
X5696920Y-15682698D01*
X5973110Y-15796984D02*
X5973110Y-15596984D01*
X6058825Y-15796984D02*
X6058825Y-15692222D01*
X6058825Y-15692222D02*
X6049301Y-15673174D01*
X6049301Y-15673174D02*
X6030253Y-15663650D01*
X6030253Y-15663650D02*
X6001682Y-15663650D01*
X6001682Y-15663650D02*
X5982634Y-15673174D01*
X5982634Y-15673174D02*
X5973110Y-15682698D01*
X6182634Y-15796984D02*
X6163587Y-15787460D01*
X6163587Y-15787460D02*
X6154063Y-15777936D01*
X6154063Y-15777936D02*
X6144539Y-15758888D01*
X6144539Y-15758888D02*
X6144539Y-15701746D01*
X6144539Y-15701746D02*
X6154063Y-15682698D01*
X6154063Y-15682698D02*
X6163587Y-15673174D01*
X6163587Y-15673174D02*
X6182634Y-15663650D01*
X6182634Y-15663650D02*
X6211206Y-15663650D01*
X6211206Y-15663650D02*
X6230253Y-15673174D01*
X6230253Y-15673174D02*
X6239777Y-15682698D01*
X6239777Y-15682698D02*
X6249301Y-15701746D01*
X6249301Y-15701746D02*
X6249301Y-15758888D01*
X6249301Y-15758888D02*
X6239777Y-15777936D01*
X6239777Y-15777936D02*
X6230253Y-15787460D01*
X6230253Y-15787460D02*
X6211206Y-15796984D01*
X6211206Y-15796984D02*
X6182634Y-15796984D01*
X6363587Y-15796984D02*
X6344539Y-15787460D01*
X6344539Y-15787460D02*
X6335015Y-15768412D01*
X6335015Y-15768412D02*
X6335015Y-15596984D01*
X6515968Y-15787460D02*
X6496920Y-15796984D01*
X6496920Y-15796984D02*
X6458825Y-15796984D01*
X6458825Y-15796984D02*
X6439777Y-15787460D01*
X6439777Y-15787460D02*
X6430253Y-15768412D01*
X6430253Y-15768412D02*
X6430253Y-15692222D01*
X6430253Y-15692222D02*
X6439777Y-15673174D01*
X6439777Y-15673174D02*
X6458825Y-15663650D01*
X6458825Y-15663650D02*
X6496920Y-15663650D01*
X6496920Y-15663650D02*
X6515968Y-15673174D01*
X6515968Y-15673174D02*
X6525491Y-15692222D01*
X6525491Y-15692222D02*
X6525491Y-15711269D01*
X6525491Y-15711269D02*
X6430253Y-15730317D01*
X6601682Y-15787460D02*
X6620730Y-15796984D01*
X6620730Y-15796984D02*
X6658825Y-15796984D01*
X6658825Y-15796984D02*
X6677872Y-15787460D01*
X6677872Y-15787460D02*
X6687396Y-15768412D01*
X6687396Y-15768412D02*
X6687396Y-15758888D01*
X6687396Y-15758888D02*
X6677872Y-15739841D01*
X6677872Y-15739841D02*
X6658825Y-15730317D01*
X6658825Y-15730317D02*
X6630253Y-15730317D01*
X6630253Y-15730317D02*
X6611206Y-15720793D01*
X6611206Y-15720793D02*
X6601682Y-15701746D01*
X6601682Y-15701746D02*
X6601682Y-15692222D01*
X6601682Y-15692222D02*
X6611206Y-15673174D01*
X6611206Y-15673174D02*
X6630253Y-15663650D01*
X6630253Y-15663650D02*
X6658825Y-15663650D01*
X6658825Y-15663650D02*
X6677872Y-15673174D01*
X6754063Y-15873174D02*
X6763587Y-15863650D01*
X6763587Y-15863650D02*
X6782634Y-15835079D01*
X6782634Y-15835079D02*
X6792158Y-15816031D01*
X6792158Y-15816031D02*
X6801682Y-15787460D01*
X6801682Y-15787460D02*
X6811206Y-15739841D01*
X6811206Y-15739841D02*
X6811206Y-15701746D01*
X6811206Y-15701746D02*
X6801682Y-15654127D01*
X6801682Y-15654127D02*
X6792158Y-15625555D01*
X6792158Y-15625555D02*
X6782634Y-15606508D01*
X6782634Y-15606508D02*
X6763587Y-15577936D01*
X6763587Y-15577936D02*
X6754063Y-15568412D01*
D14*
X1819000Y-15889500D02*
X1979000Y-16049500D01*
X1979000Y-15889500D02*
X1819000Y-16049500D01*
X1979000Y-15969500D02*
G75*
G02*
X1819000Y-15969500I-80000J0D01*
G01*
X1819000Y-15969500D02*
G75*
G02*
X1979000Y-15969500I80000J0D01*
G01*
D11*
X2344539Y-16060984D02*
X2230253Y-16060984D01*
X2287396Y-16060984D02*
X2287396Y-15860984D01*
X2287396Y-15860984D02*
X2268348Y-15889555D01*
X2268348Y-15889555D02*
X2249301Y-15908603D01*
X2249301Y-15908603D02*
X2230253Y-15918127D01*
X2430253Y-16041936D02*
X2439777Y-16051460D01*
X2439777Y-16051460D02*
X2430253Y-16060984D01*
X2430253Y-16060984D02*
X2420729Y-16051460D01*
X2420729Y-16051460D02*
X2430253Y-16041936D01*
X2430253Y-16041936D02*
X2430253Y-16060984D01*
X2611205Y-15860984D02*
X2573110Y-15860984D01*
X2573110Y-15860984D02*
X2554063Y-15870508D01*
X2554063Y-15870508D02*
X2544539Y-15880031D01*
X2544539Y-15880031D02*
X2525491Y-15908603D01*
X2525491Y-15908603D02*
X2515967Y-15946698D01*
X2515967Y-15946698D02*
X2515967Y-16022888D01*
X2515967Y-16022888D02*
X2525491Y-16041936D01*
X2525491Y-16041936D02*
X2535015Y-16051460D01*
X2535015Y-16051460D02*
X2554063Y-16060984D01*
X2554063Y-16060984D02*
X2592158Y-16060984D01*
X2592158Y-16060984D02*
X2611205Y-16051460D01*
X2611205Y-16051460D02*
X2620729Y-16041936D01*
X2620729Y-16041936D02*
X2630253Y-16022888D01*
X2630253Y-16022888D02*
X2630253Y-15975269D01*
X2630253Y-15975269D02*
X2620729Y-15956222D01*
X2620729Y-15956222D02*
X2611205Y-15946698D01*
X2611205Y-15946698D02*
X2592158Y-15937174D01*
X2592158Y-15937174D02*
X2554063Y-15937174D01*
X2554063Y-15937174D02*
X2535015Y-15946698D01*
X2535015Y-15946698D02*
X2525491Y-15956222D01*
X2525491Y-15956222D02*
X2515967Y-15975269D01*
X2754063Y-15860984D02*
X2773110Y-15860984D01*
X2773110Y-15860984D02*
X2792158Y-15870508D01*
X2792158Y-15870508D02*
X2801682Y-15880031D01*
X2801682Y-15880031D02*
X2811205Y-15899079D01*
X2811205Y-15899079D02*
X2820729Y-15937174D01*
X2820729Y-15937174D02*
X2820729Y-15984793D01*
X2820729Y-15984793D02*
X2811205Y-16022888D01*
X2811205Y-16022888D02*
X2801682Y-16041936D01*
X2801682Y-16041936D02*
X2792158Y-16051460D01*
X2792158Y-16051460D02*
X2773110Y-16060984D01*
X2773110Y-16060984D02*
X2754063Y-16060984D01*
X2754063Y-16060984D02*
X2735015Y-16051460D01*
X2735015Y-16051460D02*
X2725491Y-16041936D01*
X2725491Y-16041936D02*
X2715967Y-16022888D01*
X2715967Y-16022888D02*
X2706444Y-15984793D01*
X2706444Y-15984793D02*
X2706444Y-15937174D01*
X2706444Y-15937174D02*
X2715967Y-15899079D01*
X2715967Y-15899079D02*
X2725491Y-15880031D01*
X2725491Y-15880031D02*
X2735015Y-15870508D01*
X2735015Y-15870508D02*
X2754063Y-15860984D01*
X2944539Y-15860984D02*
X2963586Y-15860984D01*
X2963586Y-15860984D02*
X2982634Y-15870508D01*
X2982634Y-15870508D02*
X2992158Y-15880031D01*
X2992158Y-15880031D02*
X3001682Y-15899079D01*
X3001682Y-15899079D02*
X3011205Y-15937174D01*
X3011205Y-15937174D02*
X3011205Y-15984793D01*
X3011205Y-15984793D02*
X3001682Y-16022888D01*
X3001682Y-16022888D02*
X2992158Y-16041936D01*
X2992158Y-16041936D02*
X2982634Y-16051460D01*
X2982634Y-16051460D02*
X2963586Y-16060984D01*
X2963586Y-16060984D02*
X2944539Y-16060984D01*
X2944539Y-16060984D02*
X2925491Y-16051460D01*
X2925491Y-16051460D02*
X2915967Y-16041936D01*
X2915967Y-16041936D02*
X2906443Y-16022888D01*
X2906443Y-16022888D02*
X2896920Y-15984793D01*
X2896920Y-15984793D02*
X2896920Y-15937174D01*
X2896920Y-15937174D02*
X2906443Y-15899079D01*
X2906443Y-15899079D02*
X2915967Y-15880031D01*
X2915967Y-15880031D02*
X2925491Y-15870508D01*
X2925491Y-15870508D02*
X2944539Y-15860984D01*
X3096920Y-16060984D02*
X3096920Y-15927650D01*
X3096920Y-15946698D02*
X3106443Y-15937174D01*
X3106443Y-15937174D02*
X3125491Y-15927650D01*
X3125491Y-15927650D02*
X3154063Y-15927650D01*
X3154063Y-15927650D02*
X3173110Y-15937174D01*
X3173110Y-15937174D02*
X3182634Y-15956222D01*
X3182634Y-15956222D02*
X3182634Y-16060984D01*
X3182634Y-15956222D02*
X3192158Y-15937174D01*
X3192158Y-15937174D02*
X3211205Y-15927650D01*
X3211205Y-15927650D02*
X3239777Y-15927650D01*
X3239777Y-15927650D02*
X3258824Y-15937174D01*
X3258824Y-15937174D02*
X3268348Y-15956222D01*
X3268348Y-15956222D02*
X3268348Y-16060984D01*
X3363586Y-16060984D02*
X3363586Y-15927650D01*
X3363586Y-15946698D02*
X3373110Y-15937174D01*
X3373110Y-15937174D02*
X3392158Y-15927650D01*
X3392158Y-15927650D02*
X3420729Y-15927650D01*
X3420729Y-15927650D02*
X3439777Y-15937174D01*
X3439777Y-15937174D02*
X3449301Y-15956222D01*
X3449301Y-15956222D02*
X3449301Y-16060984D01*
X3449301Y-15956222D02*
X3458824Y-15937174D01*
X3458824Y-15937174D02*
X3477872Y-15927650D01*
X3477872Y-15927650D02*
X3506443Y-15927650D01*
X3506443Y-15927650D02*
X3525491Y-15937174D01*
X3525491Y-15937174D02*
X3535015Y-15956222D01*
X3535015Y-15956222D02*
X3535015Y-16060984D01*
X3925491Y-15851460D02*
X3754063Y-16108603D01*
X4182634Y-15860984D02*
X4201682Y-15860984D01*
X4201682Y-15860984D02*
X4220729Y-15870508D01*
X4220729Y-15870508D02*
X4230253Y-15880031D01*
X4230253Y-15880031D02*
X4239777Y-15899079D01*
X4239777Y-15899079D02*
X4249301Y-15937174D01*
X4249301Y-15937174D02*
X4249301Y-15984793D01*
X4249301Y-15984793D02*
X4239777Y-16022888D01*
X4239777Y-16022888D02*
X4230253Y-16041936D01*
X4230253Y-16041936D02*
X4220729Y-16051460D01*
X4220729Y-16051460D02*
X4201682Y-16060984D01*
X4201682Y-16060984D02*
X4182634Y-16060984D01*
X4182634Y-16060984D02*
X4163586Y-16051460D01*
X4163586Y-16051460D02*
X4154063Y-16041936D01*
X4154063Y-16041936D02*
X4144539Y-16022888D01*
X4144539Y-16022888D02*
X4135015Y-15984793D01*
X4135015Y-15984793D02*
X4135015Y-15937174D01*
X4135015Y-15937174D02*
X4144539Y-15899079D01*
X4144539Y-15899079D02*
X4154063Y-15880031D01*
X4154063Y-15880031D02*
X4163586Y-15870508D01*
X4163586Y-15870508D02*
X4182634Y-15860984D01*
X4335015Y-16041936D02*
X4344539Y-16051460D01*
X4344539Y-16051460D02*
X4335015Y-16060984D01*
X4335015Y-16060984D02*
X4325491Y-16051460D01*
X4325491Y-16051460D02*
X4335015Y-16041936D01*
X4335015Y-16041936D02*
X4335015Y-16060984D01*
X4468348Y-15860984D02*
X4487396Y-15860984D01*
X4487396Y-15860984D02*
X4506444Y-15870508D01*
X4506444Y-15870508D02*
X4515968Y-15880031D01*
X4515968Y-15880031D02*
X4525491Y-15899079D01*
X4525491Y-15899079D02*
X4535015Y-15937174D01*
X4535015Y-15937174D02*
X4535015Y-15984793D01*
X4535015Y-15984793D02*
X4525491Y-16022888D01*
X4525491Y-16022888D02*
X4515968Y-16041936D01*
X4515968Y-16041936D02*
X4506444Y-16051460D01*
X4506444Y-16051460D02*
X4487396Y-16060984D01*
X4487396Y-16060984D02*
X4468348Y-16060984D01*
X4468348Y-16060984D02*
X4449301Y-16051460D01*
X4449301Y-16051460D02*
X4439777Y-16041936D01*
X4439777Y-16041936D02*
X4430253Y-16022888D01*
X4430253Y-16022888D02*
X4420729Y-15984793D01*
X4420729Y-15984793D02*
X4420729Y-15937174D01*
X4420729Y-15937174D02*
X4430253Y-15899079D01*
X4430253Y-15899079D02*
X4439777Y-15880031D01*
X4439777Y-15880031D02*
X4449301Y-15870508D01*
X4449301Y-15870508D02*
X4468348Y-15860984D01*
X4706444Y-15860984D02*
X4668348Y-15860984D01*
X4668348Y-15860984D02*
X4649301Y-15870508D01*
X4649301Y-15870508D02*
X4639777Y-15880031D01*
X4639777Y-15880031D02*
X4620729Y-15908603D01*
X4620729Y-15908603D02*
X4611206Y-15946698D01*
X4611206Y-15946698D02*
X4611206Y-16022888D01*
X4611206Y-16022888D02*
X4620729Y-16041936D01*
X4620729Y-16041936D02*
X4630253Y-16051460D01*
X4630253Y-16051460D02*
X4649301Y-16060984D01*
X4649301Y-16060984D02*
X4687396Y-16060984D01*
X4687396Y-16060984D02*
X4706444Y-16051460D01*
X4706444Y-16051460D02*
X4715968Y-16041936D01*
X4715968Y-16041936D02*
X4725491Y-16022888D01*
X4725491Y-16022888D02*
X4725491Y-15975269D01*
X4725491Y-15975269D02*
X4715968Y-15956222D01*
X4715968Y-15956222D02*
X4706444Y-15946698D01*
X4706444Y-15946698D02*
X4687396Y-15937174D01*
X4687396Y-15937174D02*
X4649301Y-15937174D01*
X4649301Y-15937174D02*
X4630253Y-15946698D01*
X4630253Y-15946698D02*
X4620729Y-15956222D01*
X4620729Y-15956222D02*
X4611206Y-15975269D01*
X4792158Y-15860984D02*
X4915968Y-15860984D01*
X4915968Y-15860984D02*
X4849301Y-15937174D01*
X4849301Y-15937174D02*
X4877872Y-15937174D01*
X4877872Y-15937174D02*
X4896920Y-15946698D01*
X4896920Y-15946698D02*
X4906444Y-15956222D01*
X4906444Y-15956222D02*
X4915968Y-15975269D01*
X4915968Y-15975269D02*
X4915968Y-16022888D01*
X4915968Y-16022888D02*
X4906444Y-16041936D01*
X4906444Y-16041936D02*
X4896920Y-16051460D01*
X4896920Y-16051460D02*
X4877872Y-16060984D01*
X4877872Y-16060984D02*
X4820729Y-16060984D01*
X4820729Y-16060984D02*
X4801682Y-16051460D01*
X4801682Y-16051460D02*
X4792158Y-16041936D01*
X5039777Y-15860984D02*
X5058825Y-15860984D01*
X5058825Y-15860984D02*
X5077872Y-15870508D01*
X5077872Y-15870508D02*
X5087396Y-15880031D01*
X5087396Y-15880031D02*
X5096920Y-15899079D01*
X5096920Y-15899079D02*
X5106444Y-15937174D01*
X5106444Y-15937174D02*
X5106444Y-15984793D01*
X5106444Y-15984793D02*
X5096920Y-16022888D01*
X5096920Y-16022888D02*
X5087396Y-16041936D01*
X5087396Y-16041936D02*
X5077872Y-16051460D01*
X5077872Y-16051460D02*
X5058825Y-16060984D01*
X5058825Y-16060984D02*
X5039777Y-16060984D01*
X5039777Y-16060984D02*
X5020729Y-16051460D01*
X5020729Y-16051460D02*
X5011206Y-16041936D01*
X5011206Y-16041936D02*
X5001682Y-16022888D01*
X5001682Y-16022888D02*
X4992158Y-15984793D01*
X4992158Y-15984793D02*
X4992158Y-15937174D01*
X4992158Y-15937174D02*
X5001682Y-15899079D01*
X5001682Y-15899079D02*
X5011206Y-15880031D01*
X5011206Y-15880031D02*
X5020729Y-15870508D01*
X5020729Y-15870508D02*
X5039777Y-15860984D01*
X5182634Y-15860984D02*
X5182634Y-15899079D01*
X5258825Y-15860984D02*
X5258825Y-15899079D01*
X5554063Y-16137174D02*
X5544539Y-16127650D01*
X5544539Y-16127650D02*
X5525491Y-16099079D01*
X5525491Y-16099079D02*
X5515968Y-16080031D01*
X5515968Y-16080031D02*
X5506444Y-16051460D01*
X5506444Y-16051460D02*
X5496920Y-16003841D01*
X5496920Y-16003841D02*
X5496920Y-15965746D01*
X5496920Y-15965746D02*
X5506444Y-15918127D01*
X5506444Y-15918127D02*
X5515968Y-15889555D01*
X5515968Y-15889555D02*
X5525491Y-15870508D01*
X5525491Y-15870508D02*
X5544539Y-15841936D01*
X5544539Y-15841936D02*
X5554063Y-15832412D01*
X5611206Y-15860984D02*
X5735015Y-15860984D01*
X5735015Y-15860984D02*
X5668348Y-15937174D01*
X5668348Y-15937174D02*
X5696920Y-15937174D01*
X5696920Y-15937174D02*
X5715968Y-15946698D01*
X5715968Y-15946698D02*
X5725491Y-15956222D01*
X5725491Y-15956222D02*
X5735015Y-15975269D01*
X5735015Y-15975269D02*
X5735015Y-16022888D01*
X5735015Y-16022888D02*
X5725491Y-16041936D01*
X5725491Y-16041936D02*
X5715968Y-16051460D01*
X5715968Y-16051460D02*
X5696920Y-16060984D01*
X5696920Y-16060984D02*
X5639777Y-16060984D01*
X5639777Y-16060984D02*
X5620729Y-16051460D01*
X5620729Y-16051460D02*
X5611206Y-16041936D01*
X5858825Y-15860984D02*
X5877872Y-15860984D01*
X5877872Y-15860984D02*
X5896920Y-15870508D01*
X5896920Y-15870508D02*
X5906444Y-15880031D01*
X5906444Y-15880031D02*
X5915968Y-15899079D01*
X5915968Y-15899079D02*
X5925491Y-15937174D01*
X5925491Y-15937174D02*
X5925491Y-15984793D01*
X5925491Y-15984793D02*
X5915968Y-16022888D01*
X5915968Y-16022888D02*
X5906444Y-16041936D01*
X5906444Y-16041936D02*
X5896920Y-16051460D01*
X5896920Y-16051460D02*
X5877872Y-16060984D01*
X5877872Y-16060984D02*
X5858825Y-16060984D01*
X5858825Y-16060984D02*
X5839777Y-16051460D01*
X5839777Y-16051460D02*
X5830253Y-16041936D01*
X5830253Y-16041936D02*
X5820729Y-16022888D01*
X5820729Y-16022888D02*
X5811206Y-15984793D01*
X5811206Y-15984793D02*
X5811206Y-15937174D01*
X5811206Y-15937174D02*
X5820729Y-15899079D01*
X5820729Y-15899079D02*
X5830253Y-15880031D01*
X5830253Y-15880031D02*
X5839777Y-15870508D01*
X5839777Y-15870508D02*
X5858825Y-15860984D01*
X6163587Y-16060984D02*
X6163587Y-15860984D01*
X6249301Y-16060984D02*
X6249301Y-15956222D01*
X6249301Y-15956222D02*
X6239777Y-15937174D01*
X6239777Y-15937174D02*
X6220730Y-15927650D01*
X6220730Y-15927650D02*
X6192158Y-15927650D01*
X6192158Y-15927650D02*
X6173110Y-15937174D01*
X6173110Y-15937174D02*
X6163587Y-15946698D01*
X6373110Y-16060984D02*
X6354063Y-16051460D01*
X6354063Y-16051460D02*
X6344539Y-16041936D01*
X6344539Y-16041936D02*
X6335015Y-16022888D01*
X6335015Y-16022888D02*
X6335015Y-15965746D01*
X6335015Y-15965746D02*
X6344539Y-15946698D01*
X6344539Y-15946698D02*
X6354063Y-15937174D01*
X6354063Y-15937174D02*
X6373110Y-15927650D01*
X6373110Y-15927650D02*
X6401682Y-15927650D01*
X6401682Y-15927650D02*
X6420730Y-15937174D01*
X6420730Y-15937174D02*
X6430253Y-15946698D01*
X6430253Y-15946698D02*
X6439777Y-15965746D01*
X6439777Y-15965746D02*
X6439777Y-16022888D01*
X6439777Y-16022888D02*
X6430253Y-16041936D01*
X6430253Y-16041936D02*
X6420730Y-16051460D01*
X6420730Y-16051460D02*
X6401682Y-16060984D01*
X6401682Y-16060984D02*
X6373110Y-16060984D01*
X6554063Y-16060984D02*
X6535015Y-16051460D01*
X6535015Y-16051460D02*
X6525491Y-16032412D01*
X6525491Y-16032412D02*
X6525491Y-15860984D01*
X6706444Y-16051460D02*
X6687396Y-16060984D01*
X6687396Y-16060984D02*
X6649301Y-16060984D01*
X6649301Y-16060984D02*
X6630253Y-16051460D01*
X6630253Y-16051460D02*
X6620730Y-16032412D01*
X6620730Y-16032412D02*
X6620730Y-15956222D01*
X6620730Y-15956222D02*
X6630253Y-15937174D01*
X6630253Y-15937174D02*
X6649301Y-15927650D01*
X6649301Y-15927650D02*
X6687396Y-15927650D01*
X6687396Y-15927650D02*
X6706444Y-15937174D01*
X6706444Y-15937174D02*
X6715968Y-15956222D01*
X6715968Y-15956222D02*
X6715968Y-15975269D01*
X6715968Y-15975269D02*
X6620730Y-15994317D01*
X6792158Y-16051460D02*
X6811206Y-16060984D01*
X6811206Y-16060984D02*
X6849301Y-16060984D01*
X6849301Y-16060984D02*
X6868349Y-16051460D01*
X6868349Y-16051460D02*
X6877872Y-16032412D01*
X6877872Y-16032412D02*
X6877872Y-16022888D01*
X6877872Y-16022888D02*
X6868349Y-16003841D01*
X6868349Y-16003841D02*
X6849301Y-15994317D01*
X6849301Y-15994317D02*
X6820730Y-15994317D01*
X6820730Y-15994317D02*
X6801682Y-15984793D01*
X6801682Y-15984793D02*
X6792158Y-15965746D01*
X6792158Y-15965746D02*
X6792158Y-15956222D01*
X6792158Y-15956222D02*
X6801682Y-15937174D01*
X6801682Y-15937174D02*
X6820730Y-15927650D01*
X6820730Y-15927650D02*
X6849301Y-15927650D01*
X6849301Y-15927650D02*
X6868349Y-15937174D01*
X6944539Y-16137174D02*
X6954063Y-16127650D01*
X6954063Y-16127650D02*
X6973111Y-16099079D01*
X6973111Y-16099079D02*
X6982634Y-16080031D01*
X6982634Y-16080031D02*
X6992158Y-16051460D01*
X6992158Y-16051460D02*
X7001682Y-16003841D01*
X7001682Y-16003841D02*
X7001682Y-15965746D01*
X7001682Y-15965746D02*
X6992158Y-15918127D01*
X6992158Y-15918127D02*
X6982634Y-15889555D01*
X6982634Y-15889555D02*
X6973111Y-15870508D01*
X6973111Y-15870508D02*
X6954063Y-15841936D01*
X6954063Y-15841936D02*
X6944539Y-15832412D01*
M02*
