%TF.GenerationSoftware,KiCad,Pcbnew,10.0.2*%
%TF.CreationDate,2026-10-10T15:33:38+02:00*%
%TF.ProjectId,TR-808PSU_Rev0.5,54522d38-3038-4505-9355-5f526576302e,0.5*%
%TF.SameCoordinates,Original*%
%TF.FileFunction,Soldermask,Top*%
%TF.FilePolarity,Negative*%
%FSLAX46Y46*%
G04 Gerber Fmt 4.6, Leading zero omitted, Abs format (unit mm)*
G04 Created by KiCad (PCBNEW 10.0.2) date 2026-10-10 15:33:38*
%MOMM*%
%LPD*%
G01*
G04 APERTURE LIST*
G04 Aperture macros list*
%AMRoundRect*
0 Rectangle with rounded corners*
0 $1 Rounding radius*
0 $2 $3 $4 $5 $6 $7 $8 $9 X,Y pos of 4 corners*
0 Add a 4 corners polygon primitive as box body*
4,1,4,$2,$3,$4,$5,$6,$7,$8,$9,$2,$3,0*
0 Add four circle primitives for the rounded corners*
1,1,$1+$1,$2,$3*
1,1,$1+$1,$4,$5*
1,1,$1+$1,$6,$7*
1,1,$1+$1,$8,$9*
0 Add four rect primitives between the rounded corners*
20,1,$1+$1,$2,$3,$4,$5,0*
20,1,$1+$1,$4,$5,$6,$7,0*
20,1,$1+$1,$6,$7,$8,$9,0*
20,1,$1+$1,$8,$9,$2,$3,0*%
G04 Aperture macros list end*
%ADD10C,1.600000*%
%ADD11RoundRect,0.850000X-1.350000X-0.850000X1.350000X-0.850000X1.350000X0.850000X-1.350000X0.850000X0*%
%ADD12C,3.200000*%
%ADD13C,2.000000*%
%ADD14RoundRect,0.250001X-0.949999X0.949999X-0.949999X-0.949999X0.949999X-0.949999X0.949999X0.949999X0*%
%ADD15C,2.400000*%
%ADD16R,1.905000X2.000000*%
%ADD17O,1.905000X2.000000*%
%ADD18RoundRect,0.250000X-0.750000X-0.750000X0.750000X-0.750000X0.750000X0.750000X-0.750000X0.750000X0*%
%ADD19O,4.000000X5.000000*%
%ADD20RoundRect,0.250000X-0.550000X0.550000X-0.550000X-0.550000X0.550000X-0.550000X0.550000X0.550000X0*%
%ADD21RoundRect,0.250001X-0.949999X-0.949999X0.949999X-0.949999X0.949999X0.949999X-0.949999X0.949999X0*%
%ADD22R,2.000000X2.000000*%
%ADD23O,2.000000X2.000000*%
%ADD24RoundRect,0.250000X-0.550000X-0.550000X0.550000X-0.550000X0.550000X0.550000X-0.550000X0.550000X0*%
%ADD25RoundRect,0.250000X1.050000X-1.050000X1.050000X1.050000X-1.050000X1.050000X-1.050000X-1.050000X0*%
%ADD26C,2.600000*%
G04 APERTURE END LIST*
D10*
%TO.C,R5*%
X112670000Y-77935000D03*
X112670000Y-67775000D03*
%TD*%
D11*
%TO.C,P12*%
X76910000Y-131625000D03*
%TD*%
D12*
%TO.C,H1*%
X29090000Y-30435000D03*
%TD*%
D13*
%TO.C,C5*%
X88410000Y-59165000D03*
X95910000Y-59165000D03*
%TD*%
D14*
%TO.C,C13*%
X128310000Y-75955000D03*
D15*
X128310000Y-83455000D03*
%TD*%
D16*
%TO.C,Q2*%
X125140000Y-47135000D03*
D17*
X127680000Y-47135000D03*
X130220000Y-47135000D03*
%TD*%
D15*
%TO.C,C1*%
X43580000Y-86305000D03*
X43580000Y-63805000D03*
%TD*%
D18*
%TO.C,C11*%
X101880000Y-50905000D03*
D13*
X106880000Y-50905000D03*
%TD*%
D19*
%TO.C,F2*%
X72610000Y-98065000D03*
X72610000Y-120565000D03*
%TD*%
D13*
%TO.C,C6*%
X101820000Y-58765000D03*
X109320000Y-58765000D03*
%TD*%
D10*
%TO.C,R7*%
X72580000Y-47290000D03*
X82740000Y-47290000D03*
%TD*%
D19*
%TO.C,F1*%
X43780000Y-98065000D03*
X43780000Y-120565000D03*
%TD*%
%TO.C,F3*%
X89740000Y-98065000D03*
X89740000Y-120565000D03*
%TD*%
D11*
%TO.C,P11*%
X66350000Y-131625000D03*
%TD*%
D10*
%TO.C,C7*%
X94010000Y-67485000D03*
X99010000Y-67485000D03*
%TD*%
%TO.C,R1*%
X119710000Y-90805000D03*
X119710000Y-83185000D03*
%TD*%
%TO.C,R2*%
X88240000Y-76755000D03*
X88240000Y-66595000D03*
%TD*%
D12*
%TO.C,H2*%
X151760000Y-30165000D03*
%TD*%
D11*
%TO.C,P19*%
X151760000Y-74015000D03*
%TD*%
%TO.C,P18*%
X151760000Y-83915000D03*
%TD*%
D12*
%TO.C,H8*%
X101920000Y-34645000D03*
%TD*%
D11*
%TO.C,P22*%
X151760000Y-42945000D03*
%TD*%
D12*
%TO.C,H3*%
X29520000Y-129775000D03*
%TD*%
%TO.C,H10*%
X138330000Y-34645000D03*
%TD*%
D10*
%TO.C,R6*%
X114230000Y-57365000D03*
X114230000Y-49745000D03*
%TD*%
D11*
%TO.C,P10*%
X55800000Y-131625000D03*
%TD*%
D13*
%TO.C,C4*%
X63710000Y-76895000D03*
X71210000Y-76895000D03*
%TD*%
D20*
%TO.C,D3*%
X140360000Y-105990000D03*
D10*
X140360000Y-116150000D03*
%TD*%
D16*
%TO.C,IC1*%
X51900000Y-47135000D03*
D17*
X54440000Y-47135000D03*
X56980000Y-47135000D03*
%TD*%
D14*
%TO.C,C12*%
X127350000Y-55795000D03*
D15*
X127350000Y-63295000D03*
%TD*%
D12*
%TO.C,H7*%
X80620000Y-34645000D03*
%TD*%
%TO.C,H4*%
X151490000Y-129115000D03*
%TD*%
D21*
%TO.C,C3*%
X67300000Y-65835000D03*
D15*
X72300000Y-65835000D03*
%TD*%
D10*
%TO.C,R3*%
X88950000Y-63145000D03*
X99110000Y-63145000D03*
%TD*%
D11*
%TO.C,P16*%
X151760000Y-106865000D03*
%TD*%
%TO.C,P20*%
X151760000Y-61985000D03*
%TD*%
D10*
%TO.C,C8*%
X101660000Y-65990000D03*
X104160000Y-65990000D03*
%TD*%
D19*
%TO.C,F4*%
X107150000Y-98065000D03*
X107150000Y-120565000D03*
%TD*%
D12*
%TO.C,H9*%
X117030000Y-34645000D03*
%TD*%
D11*
%TO.C,P21*%
X151760000Y-52415000D03*
%TD*%
D10*
%TO.C,R4*%
X101420000Y-63145000D03*
X111580000Y-63145000D03*
%TD*%
D20*
%TO.C,C14*%
X142550000Y-47065000D03*
D10*
X142550000Y-49565000D03*
%TD*%
D22*
%TO.C,D2*%
X83650000Y-85695000D03*
D23*
X83650000Y-90775000D03*
X88730000Y-90775000D03*
X88730000Y-85695000D03*
%TD*%
D11*
%TO.C,P15*%
X151760000Y-116175000D03*
%TD*%
D12*
%TO.C,H5*%
X43790000Y-34645000D03*
%TD*%
%TO.C,H11*%
X54440000Y-32745000D03*
%TD*%
%TO.C,H12*%
X91270000Y-32745000D03*
%TD*%
%TO.C,H13*%
X127680000Y-32745000D03*
%TD*%
D13*
%TO.C,C9*%
X112540000Y-90305000D03*
X112540000Y-82805000D03*
%TD*%
D20*
%TO.C,C16*%
X142110000Y-77565000D03*
D10*
X142110000Y-80065000D03*
%TD*%
D13*
%TO.C,C2*%
X58360000Y-53085000D03*
X68360000Y-53085000D03*
%TD*%
D20*
%TO.C,C15*%
X142510000Y-57805000D03*
D10*
X142510000Y-60305000D03*
%TD*%
D13*
%TO.C,C10*%
X94080000Y-90215000D03*
X94080000Y-82715000D03*
%TD*%
D11*
%TO.C,P14*%
X98180000Y-131625000D03*
%TD*%
D24*
%TO.C,IC2*%
X99880000Y-71795000D03*
D10*
X99880000Y-74335000D03*
X99880000Y-76875000D03*
X99880000Y-79415000D03*
X99880000Y-81955000D03*
X99880000Y-84495000D03*
X99880000Y-87035000D03*
X107500000Y-87035000D03*
X107500000Y-84495000D03*
X107500000Y-81955000D03*
X107500000Y-79415000D03*
X107500000Y-76875000D03*
X107500000Y-74335000D03*
X107500000Y-71795000D03*
%TD*%
D12*
%TO.C,H6*%
X65090000Y-34645000D03*
%TD*%
D20*
%TO.C,D4*%
X145000000Y-105955000D03*
D10*
X145000000Y-116115000D03*
%TD*%
D11*
%TO.C,P13*%
X87790000Y-131625000D03*
%TD*%
D22*
%TO.C,D1*%
X62720000Y-83295000D03*
D23*
X62720000Y-88375000D03*
X67800000Y-88375000D03*
X67800000Y-83295000D03*
%TD*%
D11*
%TO.C,P17*%
X151760000Y-93435000D03*
%TD*%
D16*
%TO.C,Q1*%
X88730000Y-47135000D03*
D17*
X91270000Y-47135000D03*
X93810000Y-47135000D03*
%TD*%
D25*
%TO.C,X1*%
X27620000Y-53600000D03*
D26*
X27620000Y-48600000D03*
%TD*%
D25*
%TO.C,X2*%
X27620000Y-72200000D03*
D26*
X27620000Y-67200000D03*
%TD*%
D25*
%TO.C,X3*%
X27620000Y-91250000D03*
D26*
X27620000Y-86250000D03*
%TD*%
D25*
%TO.C,X4*%
X27620000Y-114790000D03*
D26*
X27620000Y-109790000D03*
X27620000Y-104790000D03*
%TD*%
M02*
