#VRML V2.0 utf8
# Sicherungshalter TF785 mit 5x20-Feinsicherung (generiert, tools/pcb/modell_fuse.py)
Transform { translation 0.000 0.000 0.150 children Shape {
  appearance Appearance { material Material { diffuseColor 0.72 0.72 0.7 specularColor 0.9 0.9 0.9 shininess 0.8 transparency 0.0 } }
  geometry Box { size 6.400 4.200 0.300 } } }
Transform { translation -3.000 0.000 3.000 children Shape {
  appearance Appearance { material Material { diffuseColor 0.72 0.72 0.7 specularColor 0.9 0.9 0.9 shininess 0.8 transparency 0.0 } }
  geometry Box { size 0.500 4.200 5.500 } } }
Transform { translation 3.000 0.000 3.000 children Shape {
  appearance Appearance { material Material { diffuseColor 0.72 0.72 0.7 specularColor 0.9 0.9 0.9 shininess 0.8 transparency 0.0 } }
  geometry Box { size 0.500 4.200 5.500 } } }
Transform { translation -2.400 0.000 6.100 children Shape {
  appearance Appearance { material Material { diffuseColor 0.72 0.72 0.7 specularColor 0.9 0.9 0.9 shininess 0.8 transparency 0.0 } }
  geometry Box { size 1.700 4.200 0.400 } } }
Transform { translation 2.400 0.000 6.100 children Shape {
  appearance Appearance { material Material { diffuseColor 0.72 0.72 0.7 specularColor 0.9 0.9 0.9 shininess 0.8 transparency 0.0 } }
  geometry Box { size 1.700 4.200 0.400 } } }
Transform { translation 0.000 -22.500 0.150 children Shape {
  appearance Appearance { material Material { diffuseColor 0.72 0.72 0.7 specularColor 0.9 0.9 0.9 shininess 0.8 transparency 0.0 } }
  geometry Box { size 6.400 4.200 0.300 } } }
Transform { translation -3.000 -22.500 3.000 children Shape {
  appearance Appearance { material Material { diffuseColor 0.72 0.72 0.7 specularColor 0.9 0.9 0.9 shininess 0.8 transparency 0.0 } }
  geometry Box { size 0.500 4.200 5.500 } } }
Transform { translation 3.000 -22.500 3.000 children Shape {
  appearance Appearance { material Material { diffuseColor 0.72 0.72 0.7 specularColor 0.9 0.9 0.9 shininess 0.8 transparency 0.0 } }
  geometry Box { size 0.500 4.200 5.500 } } }
Transform { translation -2.400 -22.500 6.100 children Shape {
  appearance Appearance { material Material { diffuseColor 0.72 0.72 0.7 specularColor 0.9 0.9 0.9 shininess 0.8 transparency 0.0 } }
  geometry Box { size 1.700 4.200 0.400 } } }
Transform { translation 2.400 -22.500 6.100 children Shape {
  appearance Appearance { material Material { diffuseColor 0.72 0.72 0.7 specularColor 0.9 0.9 0.9 shininess 0.8 transparency 0.0 } }
  geometry Box { size 1.700 4.200 0.400 } } }
Transform { translation 0.000 -11.250 4.400 children Shape {
  appearance Appearance { material Material { diffuseColor 0.88 0.92 0.9 specularColor 0.9 0.9 0.9 shininess 0.95 transparency 0.55 } }
  geometry IndexedFaceSet { solid FALSE coord Coordinate { point [ 2.450 -7.000 0.000, 2.367 -7.000 0.634, 2.122 -7.000 1.225, 1.732 -7.000 1.732, 1.225 -7.000 2.122, 0.634 -7.000 2.367, 0.000 -7.000 2.450, -0.634 -7.000 2.367, -1.225 -7.000 2.122, -1.732 -7.000 1.732, -2.122 -7.000 1.225, -2.367 -7.000 0.634, -2.450 -7.000 0.000, -2.367 -7.000 -0.634, -2.122 -7.000 -1.225, -1.732 -7.000 -1.732, -1.225 -7.000 -2.122, -0.634 -7.000 -2.367, -0.000 -7.000 -2.450, 0.634 -7.000 -2.367, 1.225 -7.000 -2.122, 1.732 -7.000 -1.732, 2.122 -7.000 -1.225, 2.367 -7.000 -0.634, 2.450 7.000 0.000, 2.367 7.000 0.634, 2.122 7.000 1.225, 1.732 7.000 1.732, 1.225 7.000 2.122, 0.634 7.000 2.367, 0.000 7.000 2.450, -0.634 7.000 2.367, -1.225 7.000 2.122, -1.732 7.000 1.732, -2.122 7.000 1.225, -2.367 7.000 0.634, -2.450 7.000 0.000, -2.367 7.000 -0.634, -2.122 7.000 -1.225, -1.732 7.000 -1.732, -1.225 7.000 -2.122, -0.634 7.000 -2.367, -0.000 7.000 -2.450, 0.634 7.000 -2.367, 1.225 7.000 -2.122, 1.732 7.000 -1.732, 2.122 7.000 -1.225, 2.367 7.000 -0.634 ] } coordIndex [ 0, 1, 25, 24 -1, 1, 2, 26, 25 -1, 2, 3, 27, 26 -1, 3, 4, 28, 27 -1, 4, 5, 29, 28 -1, 5, 6, 30, 29 -1, 6, 7, 31, 30 -1, 7, 8, 32, 31 -1, 8, 9, 33, 32 -1, 9, 10, 34, 33 -1, 10, 11, 35, 34 -1, 11, 12, 36, 35 -1, 12, 13, 37, 36 -1, 13, 14, 38, 37 -1, 14, 15, 39, 38 -1, 15, 16, 40, 39 -1, 16, 17, 41, 40 -1, 17, 18, 42, 41 -1, 18, 19, 43, 42 -1, 19, 20, 44, 43 -1, 20, 21, 45, 44 -1, 21, 22, 46, 45 -1, 22, 23, 47, 46 -1, 23, 0, 24, 47 -1, 0, 1, 2, 3, 4, 5, 6, 7, 8, 9, 10, 11, 12, 13, 14, 15, 16, 17, 18, 19, 20, 21, 22, 23 -1, 47, 46, 45, 44, 43, 42, 41, 40, 39, 38, 37, 36, 35, 34, 33, 32, 31, 30, 29, 28, 27, 26, 25, 24 -1 ] } } }
Transform { translation 0.000 -19.750 4.400 children Shape {
  appearance Appearance { material Material { diffuseColor 0.8 0.8 0.78 specularColor 0.9 0.9 0.9 shininess 0.9 transparency 0.0 } }
  geometry IndexedFaceSet { solid FALSE coord Coordinate { point [ 2.500 -1.500 0.000, 2.415 -1.500 0.647, 2.165 -1.500 1.250, 1.768 -1.500 1.768, 1.250 -1.500 2.165, 0.647 -1.500 2.415, 0.000 -1.500 2.500, -0.647 -1.500 2.415, -1.250 -1.500 2.165, -1.768 -1.500 1.768, -2.165 -1.500 1.250, -2.415 -1.500 0.647, -2.500 -1.500 0.000, -2.415 -1.500 -0.647, -2.165 -1.500 -1.250, -1.768 -1.500 -1.768, -1.250 -1.500 -2.165, -0.647 -1.500 -2.415, -0.000 -1.500 -2.500, 0.647 -1.500 -2.415, 1.250 -1.500 -2.165, 1.768 -1.500 -1.768, 2.165 -1.500 -1.250, 2.415 -1.500 -0.647, 2.500 1.500 0.000, 2.415 1.500 0.647, 2.165 1.500 1.250, 1.768 1.500 1.768, 1.250 1.500 2.165, 0.647 1.500 2.415, 0.000 1.500 2.500, -0.647 1.500 2.415, -1.250 1.500 2.165, -1.768 1.500 1.768, -2.165 1.500 1.250, -2.415 1.500 0.647, -2.500 1.500 0.000, -2.415 1.500 -0.647, -2.165 1.500 -1.250, -1.768 1.500 -1.768, -1.250 1.500 -2.165, -0.647 1.500 -2.415, -0.000 1.500 -2.500, 0.647 1.500 -2.415, 1.250 1.500 -2.165, 1.768 1.500 -1.768, 2.165 1.500 -1.250, 2.415 1.500 -0.647 ] } coordIndex [ 0, 1, 25, 24 -1, 1, 2, 26, 25 -1, 2, 3, 27, 26 -1, 3, 4, 28, 27 -1, 4, 5, 29, 28 -1, 5, 6, 30, 29 -1, 6, 7, 31, 30 -1, 7, 8, 32, 31 -1, 8, 9, 33, 32 -1, 9, 10, 34, 33 -1, 10, 11, 35, 34 -1, 11, 12, 36, 35 -1, 12, 13, 37, 36 -1, 13, 14, 38, 37 -1, 14, 15, 39, 38 -1, 15, 16, 40, 39 -1, 16, 17, 41, 40 -1, 17, 18, 42, 41 -1, 18, 19, 43, 42 -1, 19, 20, 44, 43 -1, 20, 21, 45, 44 -1, 21, 22, 46, 45 -1, 22, 23, 47, 46 -1, 23, 0, 24, 47 -1, 0, 1, 2, 3, 4, 5, 6, 7, 8, 9, 10, 11, 12, 13, 14, 15, 16, 17, 18, 19, 20, 21, 22, 23 -1, 47, 46, 45, 44, 43, 42, 41, 40, 39, 38, 37, 36, 35, 34, 33, 32, 31, 30, 29, 28, 27, 26, 25, 24 -1 ] } } }
Transform { translation 0.000 -2.750 4.400 children Shape {
  appearance Appearance { material Material { diffuseColor 0.8 0.8 0.78 specularColor 0.9 0.9 0.9 shininess 0.9 transparency 0.0 } }
  geometry IndexedFaceSet { solid FALSE coord Coordinate { point [ 2.500 -1.500 0.000, 2.415 -1.500 0.647, 2.165 -1.500 1.250, 1.768 -1.500 1.768, 1.250 -1.500 2.165, 0.647 -1.500 2.415, 0.000 -1.500 2.500, -0.647 -1.500 2.415, -1.250 -1.500 2.165, -1.768 -1.500 1.768, -2.165 -1.500 1.250, -2.415 -1.500 0.647, -2.500 -1.500 0.000, -2.415 -1.500 -0.647, -2.165 -1.500 -1.250, -1.768 -1.500 -1.768, -1.250 -1.500 -2.165, -0.647 -1.500 -2.415, -0.000 -1.500 -2.500, 0.647 -1.500 -2.415, 1.250 -1.500 -2.165, 1.768 -1.500 -1.768, 2.165 -1.500 -1.250, 2.415 -1.500 -0.647, 2.500 1.500 0.000, 2.415 1.500 0.647, 2.165 1.500 1.250, 1.768 1.500 1.768, 1.250 1.500 2.165, 0.647 1.500 2.415, 0.000 1.500 2.500, -0.647 1.500 2.415, -1.250 1.500 2.165, -1.768 1.500 1.768, -2.165 1.500 1.250, -2.415 1.500 0.647, -2.500 1.500 0.000, -2.415 1.500 -0.647, -2.165 1.500 -1.250, -1.768 1.500 -1.768, -1.250 1.500 -2.165, -0.647 1.500 -2.415, -0.000 1.500 -2.500, 0.647 1.500 -2.415, 1.250 1.500 -2.165, 1.768 1.500 -1.768, 2.165 1.500 -1.250, 2.415 1.500 -0.647 ] } coordIndex [ 0, 1, 25, 24 -1, 1, 2, 26, 25 -1, 2, 3, 27, 26 -1, 3, 4, 28, 27 -1, 4, 5, 29, 28 -1, 5, 6, 30, 29 -1, 6, 7, 31, 30 -1, 7, 8, 32, 31 -1, 8, 9, 33, 32 -1, 9, 10, 34, 33 -1, 10, 11, 35, 34 -1, 11, 12, 36, 35 -1, 12, 13, 37, 36 -1, 13, 14, 38, 37 -1, 14, 15, 39, 38 -1, 15, 16, 40, 39 -1, 16, 17, 41, 40 -1, 17, 18, 42, 41 -1, 18, 19, 43, 42 -1, 19, 20, 44, 43 -1, 20, 21, 45, 44 -1, 21, 22, 46, 45 -1, 22, 23, 47, 46 -1, 23, 0, 24, 47 -1, 0, 1, 2, 3, 4, 5, 6, 7, 8, 9, 10, 11, 12, 13, 14, 15, 16, 17, 18, 19, 20, 21, 22, 23 -1, 47, 46, 45, 44, 43, 42, 41, 40, 39, 38, 37, 36, 35, 34, 33, 32, 31, 30, 29, 28, 27, 26, 25, 24 -1 ] } } }
Transform { translation 0.000 -11.250 4.400 children Shape {
  appearance Appearance { material Material { diffuseColor 0.9 0.75 0.3 specularColor 0.9 0.9 0.9 shininess 0.9 transparency 0.0 } }
  geometry IndexedFaceSet { solid FALSE coord Coordinate { point [ 0.060 -7.000 0.000, 0.058 -7.000 0.016, 0.052 -7.000 0.030, 0.042 -7.000 0.042, 0.030 -7.000 0.052, 0.016 -7.000 0.058, 0.000 -7.000 0.060, -0.016 -7.000 0.058, -0.030 -7.000 0.052, -0.042 -7.000 0.042, -0.052 -7.000 0.030, -0.058 -7.000 0.016, -0.060 -7.000 0.000, -0.058 -7.000 -0.016, -0.052 -7.000 -0.030, -0.042 -7.000 -0.042, -0.030 -7.000 -0.052, -0.016 -7.000 -0.058, -0.000 -7.000 -0.060, 0.016 -7.000 -0.058, 0.030 -7.000 -0.052, 0.042 -7.000 -0.042, 0.052 -7.000 -0.030, 0.058 -7.000 -0.016, 0.060 7.000 0.000, 0.058 7.000 0.016, 0.052 7.000 0.030, 0.042 7.000 0.042, 0.030 7.000 0.052, 0.016 7.000 0.058, 0.000 7.000 0.060, -0.016 7.000 0.058, -0.030 7.000 0.052, -0.042 7.000 0.042, -0.052 7.000 0.030, -0.058 7.000 0.016, -0.060 7.000 0.000, -0.058 7.000 -0.016, -0.052 7.000 -0.030, -0.042 7.000 -0.042, -0.030 7.000 -0.052, -0.016 7.000 -0.058, -0.000 7.000 -0.060, 0.016 7.000 -0.058, 0.030 7.000 -0.052, 0.042 7.000 -0.042, 0.052 7.000 -0.030, 0.058 7.000 -0.016 ] } coordIndex [ 0, 1, 25, 24 -1, 1, 2, 26, 25 -1, 2, 3, 27, 26 -1, 3, 4, 28, 27 -1, 4, 5, 29, 28 -1, 5, 6, 30, 29 -1, 6, 7, 31, 30 -1, 7, 8, 32, 31 -1, 8, 9, 33, 32 -1, 9, 10, 34, 33 -1, 10, 11, 35, 34 -1, 11, 12, 36, 35 -1, 12, 13, 37, 36 -1, 13, 14, 38, 37 -1, 14, 15, 39, 38 -1, 15, 16, 40, 39 -1, 16, 17, 41, 40 -1, 17, 18, 42, 41 -1, 18, 19, 43, 42 -1, 19, 20, 44, 43 -1, 20, 21, 45, 44 -1, 21, 22, 46, 45 -1, 22, 23, 47, 46 -1, 23, 0, 24, 47 -1, 0, 1, 2, 3, 4, 5, 6, 7, 8, 9, 10, 11, 12, 13, 14, 15, 16, 17, 18, 19, 20, 21, 22, 23 -1, 47, 46, 45, 44, 43, 42, 41, 40, 39, 38, 37, 36, 35, 34, 33, 32, 31, 30, 29, 28, 27, 26, 25, 24 -1 ] } } }
