%TF.GenerationSoftware,KiCad,Pcbnew,10.0.2*%
%TF.CreationDate,2026-10-10T15:21:59+02:00*%
%TF.ProjectId,TR-808PSU_Rev0.4-110V,54522d38-3038-4505-9355-5f526576302e,0.4*%
%TF.SameCoordinates,Original*%
%TF.FileFunction,Copper,L1,Top*%
%TF.FilePolarity,Positive*%
%FSLAX46Y46*%
G04 Gerber Fmt 4.6, Leading zero omitted, Abs format (unit mm)*
G04 Created by KiCad (PCBNEW 10.0.2) date 2026-10-10 15:21:59*
%MOMM*%
%LPD*%
G01*
G04 APERTURE LIST*
G04 Aperture macros list*
%AMRoundRect*
0 Rectangle with rounded corners*
0 $1 Rounding radius*
0 $2 $3 $4 $5 $6 $7 $8 $9 X,Y pos of 4 corners*
0 Add a 4 corners polygon primitive as box body*
4,1,4,$2,$3,$4,$5,$6,$7,$8,$9,$2,$3,0*
0 Add four circle primitives for the rounded corners*
1,1,$1+$1,$2,$3*
1,1,$1+$1,$4,$5*
1,1,$1+$1,$6,$7*
1,1,$1+$1,$8,$9*
0 Add four rect primitives between the rounded corners*
20,1,$1+$1,$2,$3,$4,$5,0*
20,1,$1+$1,$4,$5,$6,$7,0*
20,1,$1+$1,$6,$7,$8,$9,0*
20,1,$1+$1,$8,$9,$2,$3,0*%
G04 Aperture macros list end*
%TA.AperFunction,ComponentPad*%
%ADD10C,1.600000*%
%TD*%
%TA.AperFunction,ComponentPad*%
%ADD11RoundRect,0.850000X-1.350000X-0.850000X1.350000X-0.850000X1.350000X0.850000X-1.350000X0.850000X0*%
%TD*%
%TA.AperFunction,ComponentPad*%
%ADD12C,2.000000*%
%TD*%
%TA.AperFunction,ComponentPad*%
%ADD13RoundRect,0.250001X-0.949999X0.949999X-0.949999X-0.949999X0.949999X-0.949999X0.949999X0.949999X0*%
%TD*%
%TA.AperFunction,ComponentPad*%
%ADD14C,2.400000*%
%TD*%
%TA.AperFunction,ComponentPad*%
%ADD15R,1.905000X2.000000*%
%TD*%
%TA.AperFunction,ComponentPad*%
%ADD16O,1.905000X2.000000*%
%TD*%
%TA.AperFunction,ComponentPad*%
%ADD17RoundRect,0.250000X-0.750000X-0.750000X0.750000X-0.750000X0.750000X0.750000X-0.750000X0.750000X0*%
%TD*%
%TA.AperFunction,ComponentPad*%
%ADD18O,4.000000X5.000000*%
%TD*%
%TA.AperFunction,ComponentPad*%
%ADD19RoundRect,0.250000X-0.550000X0.550000X-0.550000X-0.550000X0.550000X-0.550000X0.550000X0.550000X0*%
%TD*%
%TA.AperFunction,ComponentPad*%
%ADD20RoundRect,0.250001X-0.949999X-0.949999X0.949999X-0.949999X0.949999X0.949999X-0.949999X0.949999X0*%
%TD*%
%TA.AperFunction,ComponentPad*%
%ADD21R,2.000000X2.000000*%
%TD*%
%TA.AperFunction,ComponentPad*%
%ADD22O,2.000000X2.000000*%
%TD*%
%TA.AperFunction,ComponentPad*%
%ADD23RoundRect,0.250000X-0.550000X-0.550000X0.550000X-0.550000X0.550000X0.550000X-0.550000X0.550000X0*%
%TD*%
%TA.AperFunction,ComponentPad*%
%ADD24RoundRect,0.250000X1.050000X-1.050000X1.050000X1.050000X-1.050000X1.050000X-1.050000X-1.050000X0*%
%TD*%
%TA.AperFunction,ComponentPad*%
%ADD25C,2.600000*%
%TD*%
%TA.AperFunction,ViaPad*%
%ADD26C,0.560000*%
%TD*%
%TA.AperFunction,Conductor*%
%ADD27C,0.800000*%
%TD*%
%TA.AperFunction,Conductor*%
%ADD28C,0.600000*%
%TD*%
%TA.AperFunction,Conductor*%
%ADD29C,1.000000*%
%TD*%
G04 APERTURE END LIST*
D10*
%TO.P,R5,1*%
%TO.N,/COL2*%
X112670000Y-77935000D03*
%TO.P,R5,2*%
%TO.N,/-15V*%
X112670000Y-67775000D03*
%TD*%
D11*
%TO.P,P12,1*%
%TO.N,/AC15_RAW_A*%
X76910000Y-131625000D03*
%TD*%
D12*
%TO.P,C5,1*%
%TO.N,/+15V*%
X88410000Y-59165000D03*
%TO.P,C5,2*%
%TO.N,/GND15*%
X95910000Y-59165000D03*
%TD*%
D13*
%TO.P,C13,1*%
%TO.N,/RAW15P*%
X128310000Y-75955000D03*
D14*
%TO.P,C13,2*%
%TO.N,/GND15*%
X128310000Y-83455000D03*
%TD*%
D15*
%TO.P,Q2,1*%
%TO.N,/VB2*%
X125140000Y-47135000D03*
D16*
%TO.P,Q2,2*%
%TO.N,/COL2*%
X127680000Y-47135000D03*
%TO.P,Q2,3*%
%TO.N,/RAW15N*%
X130220000Y-47135000D03*
%TD*%
D14*
%TO.P,C1,1*%
%TO.N,/SW_A*%
X43580000Y-86305000D03*
%TO.P,C1,2*%
%TO.N,/SW_B*%
X43580000Y-63805000D03*
%TD*%
D17*
%TO.P,C11,1*%
%TO.N,/GND15*%
X101880000Y-50905000D03*
D12*
%TO.P,C11,2*%
%TO.N,Net-(C11-Pad2)*%
X106880000Y-50905000D03*
%TD*%
D18*
%TO.P,F2,1*%
%TO.N,/AC5_RAW*%
X72610000Y-98065000D03*
%TO.P,F2,2*%
%TO.N,Net-(D1-Pad2)*%
X72610000Y-120565000D03*
%TD*%
D12*
%TO.P,C6,1*%
%TO.N,/GND15*%
X101820000Y-58765000D03*
%TO.P,C6,2*%
%TO.N,/-15V*%
X109320000Y-58765000D03*
%TD*%
D10*
%TO.P,R7,1*%
%TO.N,/RAW15P*%
X72580000Y-47290000D03*
%TO.P,R7,2*%
%TO.N,/VB1*%
X82740000Y-47290000D03*
%TD*%
D18*
%TO.P,F1,1*%
%TO.N,/SW_A*%
X43780000Y-98065000D03*
%TO.P,F1,2*%
%TO.N,/PRI_8*%
X43780000Y-120565000D03*
%TD*%
%TO.P,F3,1*%
%TO.N,/AC15_RAW_A*%
X89740000Y-98065000D03*
%TO.P,F3,2*%
%TO.N,/AC15_A*%
X89740000Y-120565000D03*
%TD*%
D11*
%TO.P,P11,1*%
%TO.N,/AC5_B*%
X66350000Y-131625000D03*
%TD*%
D10*
%TO.P,C7,1*%
%TO.N,/COMP1*%
X94010000Y-67485000D03*
%TO.P,C7,2*%
%TO.N,/GND15*%
X99010000Y-67485000D03*
%TD*%
%TO.P,R1,1*%
%TO.N,/VB2*%
X119710000Y-90805000D03*
%TO.P,R1,2*%
%TO.N,/RAW15N*%
X119710000Y-83185000D03*
%TD*%
%TO.P,R2,1*%
%TO.N,/COL1*%
X88240000Y-76755000D03*
%TO.P,R2,2*%
%TO.N,/+15V*%
X88240000Y-66595000D03*
%TD*%
D11*
%TO.P,P19,1*%
%TO.N,/+5V*%
X151760000Y-74015000D03*
%TD*%
%TO.P,P18,1*%
%TO.N,/GND5*%
X151760000Y-83915000D03*
%TD*%
%TO.P,P22,1*%
%TO.N,/+15V*%
X151760000Y-42945000D03*
%TD*%
D10*
%TO.P,R6,1*%
%TO.N,Net-(C11-Pad2)*%
X114230000Y-57365000D03*
%TO.P,R6,2*%
%TO.N,/-15V*%
X114230000Y-49745000D03*
%TD*%
D11*
%TO.P,P10,1*%
%TO.N,/AC5_RAW*%
X55800000Y-131625000D03*
%TD*%
D12*
%TO.P,C4,1*%
%TO.N,/RAW5*%
X63710000Y-76895000D03*
%TO.P,C4,2*%
%TO.N,/GND5*%
X71210000Y-76895000D03*
%TD*%
D19*
%TO.P,D3,1*%
%TO.N,/RAMV*%
X140360000Y-105990000D03*
D10*
%TO.P,D3,2*%
%TO.N,/+5V*%
X140360000Y-116150000D03*
%TD*%
D15*
%TO.P,IC1,1*%
%TO.N,/RAW5*%
X51900000Y-47135000D03*
D16*
%TO.P,IC1,2*%
%TO.N,/GND5*%
X54440000Y-47135000D03*
%TO.P,IC1,3*%
%TO.N,/+5V*%
X56980000Y-47135000D03*
%TD*%
D13*
%TO.P,C12,1*%
%TO.N,/GND15*%
X127350000Y-55795000D03*
D14*
%TO.P,C12,2*%
%TO.N,/RAW15N*%
X127350000Y-63295000D03*
%TD*%
D20*
%TO.P,C3,1*%
%TO.N,/RAW5*%
X67300000Y-65835000D03*
D14*
%TO.P,C3,2*%
%TO.N,/GND5*%
X72300000Y-65835000D03*
%TD*%
D10*
%TO.P,R3,1*%
%TO.N,/+15V*%
X88950000Y-63145000D03*
%TO.P,R3,2*%
%TO.N,/ADJ*%
X99110000Y-63145000D03*
%TD*%
D11*
%TO.P,P16,1*%
%TO.N,/BAT_P*%
X151760000Y-106865000D03*
%TD*%
%TO.P,P20,1*%
%TO.N,/-15V*%
X151760000Y-61985000D03*
%TD*%
D10*
%TO.P,C8,1*%
%TO.N,/COMP2*%
X101660000Y-65990000D03*
%TO.P,C8,2*%
%TO.N,/GND15*%
X104160000Y-65990000D03*
%TD*%
D18*
%TO.P,F4,1*%
%TO.N,/AC15_RAW_B*%
X107150000Y-98065000D03*
%TO.P,F4,2*%
%TO.N,/AC15_B*%
X107150000Y-120565000D03*
%TD*%
D11*
%TO.P,P21,1*%
%TO.N,/GND15*%
X151760000Y-52415000D03*
%TD*%
D10*
%TO.P,R4,1*%
%TO.N,/ADJ*%
X101420000Y-63145000D03*
%TO.P,R4,2*%
%TO.N,/GND15*%
X111580000Y-63145000D03*
%TD*%
D19*
%TO.P,C14,1*%
%TO.N,/+15V*%
X142550000Y-47065000D03*
D10*
%TO.P,C14,2*%
%TO.N,/GND15*%
X142550000Y-49565000D03*
%TD*%
D21*
%TO.P,D2,1*%
%TO.N,/RAW15P*%
X83650000Y-85695000D03*
D22*
%TO.P,D2,2*%
%TO.N,/AC15_A*%
X83650000Y-90775000D03*
%TO.P,D2,3*%
%TO.N,/RAW15N*%
X88730000Y-90775000D03*
%TO.P,D2,4*%
%TO.N,/AC15_B*%
X88730000Y-85695000D03*
%TD*%
D11*
%TO.P,P15,1*%
%TO.N,/GND5*%
X151760000Y-116175000D03*
%TD*%
D12*
%TO.P,C9,1*%
%TO.N,/GND15*%
X112540000Y-90305000D03*
%TO.P,C9,2*%
%TO.N,/VB2*%
X112540000Y-82805000D03*
%TD*%
D19*
%TO.P,C16,1*%
%TO.N,/+5V*%
X142110000Y-77565000D03*
D10*
%TO.P,C16,2*%
%TO.N,/GND5*%
X142110000Y-80065000D03*
%TD*%
D12*
%TO.P,C2,1*%
%TO.N,/+5V*%
X58360000Y-53085000D03*
%TO.P,C2,2*%
%TO.N,/GND5*%
X68360000Y-53085000D03*
%TD*%
D19*
%TO.P,C15,1*%
%TO.N,/GND15*%
X142510000Y-57805000D03*
D10*
%TO.P,C15,2*%
%TO.N,/-15V*%
X142510000Y-60305000D03*
%TD*%
D12*
%TO.P,C10,1*%
%TO.N,/VB1*%
X94080000Y-90215000D03*
%TO.P,C10,2*%
%TO.N,/GND15*%
X94080000Y-82715000D03*
%TD*%
D11*
%TO.P,P14,1*%
%TO.N,/AC15_RAW_B*%
X98180000Y-131625000D03*
%TD*%
D23*
%TO.P,IC2,1*%
%TO.N,/GND15*%
X99880000Y-71795000D03*
D10*
%TO.P,IC2,2*%
%TO.N,/ADJ*%
X99880000Y-74335000D03*
%TO.P,IC2,3*%
%TO.N,/COMP1*%
X99880000Y-76875000D03*
%TO.P,IC2,4*%
%TO.N,/+15V*%
X99880000Y-79415000D03*
%TO.P,IC2,5*%
%TO.N,/COL1*%
X99880000Y-81955000D03*
%TO.P,IC2,6*%
%TO.N,unconnected-(IC2-NC-Pad6)*%
X99880000Y-84495000D03*
%TO.P,IC2,7*%
%TO.N,/VB1*%
X99880000Y-87035000D03*
%TO.P,IC2,8*%
%TO.N,/VB2*%
X107500000Y-87035000D03*
%TO.P,IC2,9*%
%TO.N,unconnected-(IC2-NC-Pad9)*%
X107500000Y-84495000D03*
%TO.P,IC2,10*%
%TO.N,/COL2*%
X107500000Y-81955000D03*
%TO.P,IC2,11*%
%TO.N,/-15V*%
X107500000Y-79415000D03*
%TO.P,IC2,12*%
%TO.N,/COMP2*%
X107500000Y-76875000D03*
%TO.P,IC2,13*%
%TO.N,unconnected-(IC2-NC-Pad13)*%
X107500000Y-74335000D03*
%TO.P,IC2,14*%
%TO.N,unconnected-(IC2-VOLTAGE_ADJUST-Pad14)*%
X107500000Y-71795000D03*
%TD*%
D19*
%TO.P,D4,1*%
%TO.N,/RAMV*%
X145000000Y-105955000D03*
D10*
%TO.P,D4,2*%
%TO.N,/BAT_P*%
X145000000Y-116115000D03*
%TD*%
D11*
%TO.P,P13,1*%
%TO.N,/GND15*%
X87790000Y-131625000D03*
%TD*%
D21*
%TO.P,D1,1*%
%TO.N,/RAW5*%
X62720000Y-83295000D03*
D22*
%TO.P,D1,2*%
%TO.N,Net-(D1-Pad2)*%
X62720000Y-88375000D03*
%TO.P,D1,3*%
%TO.N,/GND5*%
X67800000Y-88375000D03*
%TO.P,D1,4*%
%TO.N,/AC5_B*%
X67800000Y-83295000D03*
%TD*%
D11*
%TO.P,P17,1*%
%TO.N,/RAMV*%
X151760000Y-93435000D03*
%TD*%
D15*
%TO.P,Q1,1*%
%TO.N,/VB1*%
X88730000Y-47135000D03*
D16*
%TO.P,Q1,2*%
%TO.N,/COL1*%
X91270000Y-47135000D03*
%TO.P,Q1,3*%
%TO.N,/RAW15P*%
X93810000Y-47135000D03*
%TD*%
D24*
%TO.P,X1,1*%
%TO.N,/MAINS_B*%
X27620000Y-53600000D03*
D25*
%TO.P,X1,2*%
X27620000Y-48600000D03*
%TD*%
D24*
%TO.P,X2,1*%
%TO.N,/MAINS_A*%
X27620000Y-72200000D03*
D25*
%TO.P,X2,2*%
X27620000Y-67200000D03*
%TD*%
D24*
%TO.P,X3,1*%
%TO.N,/SW_B*%
X27620000Y-91250000D03*
D25*
%TO.P,X3,2*%
%TO.N,/SW_A*%
X27620000Y-86250000D03*
%TD*%
D24*
%TO.P,X4,1*%
%TO.N,/PRI_9*%
X27620000Y-114790000D03*
D25*
%TO.P,X4,2*%
%TO.N,/PRI_8*%
X27620000Y-109790000D03*
%TO.P,X4,3*%
%TO.N,/SW_B*%
X27620000Y-104790000D03*
%TD*%
D26*
%TO.N,/GND15*%
X97945000Y-88590000D03*
X96060000Y-94490000D03*
%TO.N,/GND5*%
X77625000Y-70175000D03*
%TO.N,/COMP2*%
X104930000Y-68270000D03*
%TO.N,/AC15_B*%
X100485000Y-105735000D03*
%TD*%
%TO.N,/-15V*%
D27*
X142495000Y-60290000D02*
X142510000Y-60305000D01*
X140114834Y-58744834D02*
X140160000Y-58790000D01*
X140160000Y-59190000D02*
X141260000Y-60290000D01*
X140160000Y-58790000D02*
X140160000Y-59190000D01*
D28*
X109320000Y-58765000D02*
X140069500Y-58765000D01*
D27*
X139260000Y-58765000D02*
X139280166Y-58744834D01*
X141260000Y-60290000D02*
X142495000Y-60290000D01*
X140069500Y-58765000D02*
X139260000Y-58765000D01*
X140089500Y-58745000D02*
X140069500Y-58765000D01*
X139280166Y-58744834D02*
X140114834Y-58744834D01*
%TO.N,/GND15*%
D29*
X96060000Y-94490000D02*
X96060000Y-91990000D01*
X115822200Y-89762800D02*
X121342800Y-84242200D01*
X112540000Y-90305000D02*
X114054500Y-90495000D01*
X96060000Y-91990000D02*
X97945000Y-90105000D01*
X97945000Y-90105000D02*
X97945000Y-88590000D01*
X97945000Y-87720500D02*
X97945000Y-88590000D01*
X99880000Y-71795000D02*
X94867200Y-77062800D01*
X128310000Y-83455000D02*
X123110500Y-83510000D01*
X94080000Y-82715000D02*
X97212800Y-85952800D01*
X94080000Y-82715000D02*
X94135000Y-78830500D01*
X97212800Y-85952800D02*
G75*
G02*
X97945005Y-87720500I-1767700J-1767700D01*
G01*
X94135000Y-78830500D02*
G75*
G02*
X94867204Y-77062804I2499900J0D01*
G01*
X121342800Y-84242200D02*
G75*
G02*
X123110500Y-83509995I1767700J-1767700D01*
G01*
X114054500Y-90495000D02*
G75*
G03*
X115822196Y-89762796I0J2499900D01*
G01*
%TO.N,/RAW15P*%
X104295000Y-62154500D02*
X104295000Y-58355100D01*
X103672700Y-56852700D02*
X103647300Y-56827300D01*
X82607800Y-56937200D02*
X77087200Y-62457800D01*
X116262800Y-75157800D02*
X105027200Y-63922200D01*
X83650000Y-85695000D02*
X78855000Y-85415000D01*
X128310000Y-75955000D02*
X118030500Y-75890000D01*
X76355000Y-64225500D02*
X76355000Y-82915000D01*
X102144900Y-56205000D02*
X84375500Y-56205000D01*
X84375500Y-56205000D02*
G75*
G03*
X82607804Y-56937204I0J-2499900D01*
G01*
X104295000Y-58355100D02*
G75*
G03*
X103672728Y-56852672I-2124400J200D01*
G01*
X76355000Y-82915000D02*
G75*
G03*
X78855000Y-85415000I2499900J-100D01*
G01*
X103647300Y-56827300D02*
G75*
G03*
X102144900Y-56205039I-1502200J-1502100D01*
G01*
X77087200Y-62457800D02*
G75*
G03*
X76354995Y-64225500I1767700J-1767700D01*
G01*
X105027200Y-63922200D02*
G75*
G02*
X104294995Y-62154500I1767700J1767700D01*
G01*
X118030500Y-75890000D02*
G75*
G02*
X116262804Y-75157796I0J2499900D01*
G01*
%TO.N,/AC5_B*%
X66350000Y-131625000D02*
X65560000Y-87085500D01*
X67800000Y-83295000D02*
X66292200Y-85317800D01*
X66292200Y-85317800D02*
G75*
G03*
X65559995Y-87085500I1767700J-1767700D01*
G01*
%TO.N,/+5V*%
X141359500Y-53665000D02*
X72310500Y-53665000D01*
X144300000Y-74854500D02*
X144300000Y-56605500D01*
X142110000Y-77565000D02*
X143567800Y-76622200D01*
X143567800Y-54837800D02*
X143127200Y-54397200D01*
X58360000Y-53085000D02*
X60382800Y-54837800D01*
X70542800Y-54397200D02*
X70102200Y-54837800D01*
X68334500Y-55570000D02*
X62150500Y-55570000D01*
X62150500Y-55570000D02*
G75*
G02*
X60382804Y-54837796I0J2499900D01*
G01*
X143127200Y-54397200D02*
G75*
G03*
X141359500Y-53664995I-1767700J-1767700D01*
G01*
X72310500Y-53665000D02*
G75*
G03*
X70542804Y-54397204I0J-2499900D01*
G01*
X143567800Y-76622200D02*
G75*
G03*
X144300005Y-74854500I-1767700J1767700D01*
G01*
X144300000Y-56605500D02*
G75*
G03*
X143567796Y-54837804I-2499900J0D01*
G01*
X70102200Y-54837800D02*
G75*
G02*
X68334500Y-55570005I-1767700J1767700D01*
G01*
%TO.N,/GND5*%
D27*
X108354873Y-70184873D02*
X108322728Y-70184873D01*
X109362300Y-79687300D02*
X109317244Y-79641580D01*
X108460000Y-70079746D02*
X108354873Y-70184873D01*
X109360000Y-77564900D02*
X109360000Y-70690000D01*
X108460000Y-69890000D02*
X77910000Y-69890000D01*
X109360000Y-70690000D02*
X109260000Y-70690000D01*
X108460000Y-69890000D02*
X108460000Y-70079746D01*
X108312603Y-70175278D02*
X108312603Y-70037397D01*
X109260000Y-77664900D02*
X109360000Y-77564900D01*
X77910000Y-69890000D02*
X77625000Y-70175000D01*
X109317244Y-79641580D02*
X109260000Y-79584336D01*
X109260000Y-79584336D02*
X109260000Y-77664900D01*
X109260000Y-70690000D02*
X108460000Y-69890000D01*
X142110000Y-80065000D02*
X110890100Y-80335000D01*
X109387700Y-79712700D02*
X109362300Y-79687300D01*
X108312603Y-70037397D02*
X108460000Y-69890000D01*
X110890100Y-80335000D02*
G75*
G02*
X109387672Y-79712728I-200J2124400D01*
G01*
%TO.N,/COMP2*%
D29*
X101660000Y-68270000D02*
X104930000Y-68270000D01*
X101660000Y-65985000D02*
X101660000Y-68270000D01*
%TO.N,/AC15_B*%
X90960000Y-88990500D02*
X90960000Y-93993800D01*
X93085000Y-96430000D02*
X99752800Y-103097800D01*
X100485000Y-104865500D02*
X100485000Y-105735000D01*
X93085000Y-96430000D02*
X90960000Y-93993800D01*
X88730000Y-85695000D02*
X90227800Y-87222800D01*
X90227800Y-87222800D02*
G75*
G02*
X90960005Y-88990500I-1767700J-1767700D01*
G01*
X99752800Y-103097800D02*
G75*
G02*
X100485005Y-104865500I-1767700J-1767700D01*
G01*
%TD*%
M02*
