%TF.GenerationSoftware,KiCad,Pcbnew,10.0.2*%
%TF.CreationDate,2026-10-10T15:34:03+02:00*%
%TF.ProjectId,TR-808PSU_Rev0.5-110V,54522d38-3038-4505-9355-5f526576302e,0.5*%
%TF.SameCoordinates,Original*%
%TF.FileFunction,Legend,Top*%
%TF.FilePolarity,Positive*%
%FSLAX46Y46*%
G04 Gerber Fmt 4.6, Leading zero omitted, Abs format (unit mm)*
G04 Created by KiCad (PCBNEW 10.0.2) date 2026-10-10 15:34:03*
%MOMM*%
%LPD*%
G01*
G04 APERTURE LIST*
%ADD10C,0.186667*%
%ADD11C,0.250000*%
%ADD12C,0.240000*%
%ADD13C,0.150000*%
%ADD14C,0.120000*%
%ADD15C,1.400000*%
%ADD16C,0.400000*%
G04 APERTURE END LIST*
D10*
X59556665Y-138082959D02*
X60356665Y-138082959D01*
X59956665Y-139482959D02*
X59956665Y-138082959D01*
X61623332Y-139482959D02*
X61156665Y-138816293D01*
X60823332Y-139482959D02*
X60823332Y-138082959D01*
X60823332Y-138082959D02*
X61356665Y-138082959D01*
X61356665Y-138082959D02*
X61489999Y-138149626D01*
X61489999Y-138149626D02*
X61556665Y-138216293D01*
X61556665Y-138216293D02*
X61623332Y-138349626D01*
X61623332Y-138349626D02*
X61623332Y-138549626D01*
X61623332Y-138549626D02*
X61556665Y-138682959D01*
X61556665Y-138682959D02*
X61489999Y-138749626D01*
X61489999Y-138749626D02*
X61356665Y-138816293D01*
X61356665Y-138816293D02*
X60823332Y-138816293D01*
X62223332Y-138949626D02*
X63289999Y-138949626D01*
X64156665Y-138682959D02*
X64023332Y-138616293D01*
X64023332Y-138616293D02*
X63956665Y-138549626D01*
X63956665Y-138549626D02*
X63889998Y-138416293D01*
X63889998Y-138416293D02*
X63889998Y-138349626D01*
X63889998Y-138349626D02*
X63956665Y-138216293D01*
X63956665Y-138216293D02*
X64023332Y-138149626D01*
X64023332Y-138149626D02*
X64156665Y-138082959D01*
X64156665Y-138082959D02*
X64423332Y-138082959D01*
X64423332Y-138082959D02*
X64556665Y-138149626D01*
X64556665Y-138149626D02*
X64623332Y-138216293D01*
X64623332Y-138216293D02*
X64689998Y-138349626D01*
X64689998Y-138349626D02*
X64689998Y-138416293D01*
X64689998Y-138416293D02*
X64623332Y-138549626D01*
X64623332Y-138549626D02*
X64556665Y-138616293D01*
X64556665Y-138616293D02*
X64423332Y-138682959D01*
X64423332Y-138682959D02*
X64156665Y-138682959D01*
X64156665Y-138682959D02*
X64023332Y-138749626D01*
X64023332Y-138749626D02*
X63956665Y-138816293D01*
X63956665Y-138816293D02*
X63889998Y-138949626D01*
X63889998Y-138949626D02*
X63889998Y-139216293D01*
X63889998Y-139216293D02*
X63956665Y-139349626D01*
X63956665Y-139349626D02*
X64023332Y-139416293D01*
X64023332Y-139416293D02*
X64156665Y-139482959D01*
X64156665Y-139482959D02*
X64423332Y-139482959D01*
X64423332Y-139482959D02*
X64556665Y-139416293D01*
X64556665Y-139416293D02*
X64623332Y-139349626D01*
X64623332Y-139349626D02*
X64689998Y-139216293D01*
X64689998Y-139216293D02*
X64689998Y-138949626D01*
X64689998Y-138949626D02*
X64623332Y-138816293D01*
X64623332Y-138816293D02*
X64556665Y-138749626D01*
X64556665Y-138749626D02*
X64423332Y-138682959D01*
X65556665Y-138082959D02*
X65689998Y-138082959D01*
X65689998Y-138082959D02*
X65823331Y-138149626D01*
X65823331Y-138149626D02*
X65889998Y-138216293D01*
X65889998Y-138216293D02*
X65956665Y-138349626D01*
X65956665Y-138349626D02*
X66023331Y-138616293D01*
X66023331Y-138616293D02*
X66023331Y-138949626D01*
X66023331Y-138949626D02*
X65956665Y-139216293D01*
X65956665Y-139216293D02*
X65889998Y-139349626D01*
X65889998Y-139349626D02*
X65823331Y-139416293D01*
X65823331Y-139416293D02*
X65689998Y-139482959D01*
X65689998Y-139482959D02*
X65556665Y-139482959D01*
X65556665Y-139482959D02*
X65423331Y-139416293D01*
X65423331Y-139416293D02*
X65356665Y-139349626D01*
X65356665Y-139349626D02*
X65289998Y-139216293D01*
X65289998Y-139216293D02*
X65223331Y-138949626D01*
X65223331Y-138949626D02*
X65223331Y-138616293D01*
X65223331Y-138616293D02*
X65289998Y-138349626D01*
X65289998Y-138349626D02*
X65356665Y-138216293D01*
X65356665Y-138216293D02*
X65423331Y-138149626D01*
X65423331Y-138149626D02*
X65556665Y-138082959D01*
X66823331Y-138682959D02*
X66689998Y-138616293D01*
X66689998Y-138616293D02*
X66623331Y-138549626D01*
X66623331Y-138549626D02*
X66556664Y-138416293D01*
X66556664Y-138416293D02*
X66556664Y-138349626D01*
X66556664Y-138349626D02*
X66623331Y-138216293D01*
X66623331Y-138216293D02*
X66689998Y-138149626D01*
X66689998Y-138149626D02*
X66823331Y-138082959D01*
X66823331Y-138082959D02*
X67089998Y-138082959D01*
X67089998Y-138082959D02*
X67223331Y-138149626D01*
X67223331Y-138149626D02*
X67289998Y-138216293D01*
X67289998Y-138216293D02*
X67356664Y-138349626D01*
X67356664Y-138349626D02*
X67356664Y-138416293D01*
X67356664Y-138416293D02*
X67289998Y-138549626D01*
X67289998Y-138549626D02*
X67223331Y-138616293D01*
X67223331Y-138616293D02*
X67089998Y-138682959D01*
X67089998Y-138682959D02*
X66823331Y-138682959D01*
X66823331Y-138682959D02*
X66689998Y-138749626D01*
X66689998Y-138749626D02*
X66623331Y-138816293D01*
X66623331Y-138816293D02*
X66556664Y-138949626D01*
X66556664Y-138949626D02*
X66556664Y-139216293D01*
X66556664Y-139216293D02*
X66623331Y-139349626D01*
X66623331Y-139349626D02*
X66689998Y-139416293D01*
X66689998Y-139416293D02*
X66823331Y-139482959D01*
X66823331Y-139482959D02*
X67089998Y-139482959D01*
X67089998Y-139482959D02*
X67223331Y-139416293D01*
X67223331Y-139416293D02*
X67289998Y-139349626D01*
X67289998Y-139349626D02*
X67356664Y-139216293D01*
X67356664Y-139216293D02*
X67356664Y-138949626D01*
X67356664Y-138949626D02*
X67289998Y-138816293D01*
X67289998Y-138816293D02*
X67223331Y-138749626D01*
X67223331Y-138749626D02*
X67089998Y-138682959D01*
X67956664Y-139482959D02*
X67956664Y-138082959D01*
X67956664Y-138082959D02*
X68489997Y-138082959D01*
X68489997Y-138082959D02*
X68623331Y-138149626D01*
X68623331Y-138149626D02*
X68689997Y-138216293D01*
X68689997Y-138216293D02*
X68756664Y-138349626D01*
X68756664Y-138349626D02*
X68756664Y-138549626D01*
X68756664Y-138549626D02*
X68689997Y-138682959D01*
X68689997Y-138682959D02*
X68623331Y-138749626D01*
X68623331Y-138749626D02*
X68489997Y-138816293D01*
X68489997Y-138816293D02*
X67956664Y-138816293D01*
X69289997Y-139416293D02*
X69489997Y-139482959D01*
X69489997Y-139482959D02*
X69823331Y-139482959D01*
X69823331Y-139482959D02*
X69956664Y-139416293D01*
X69956664Y-139416293D02*
X70023331Y-139349626D01*
X70023331Y-139349626D02*
X70089997Y-139216293D01*
X70089997Y-139216293D02*
X70089997Y-139082959D01*
X70089997Y-139082959D02*
X70023331Y-138949626D01*
X70023331Y-138949626D02*
X69956664Y-138882959D01*
X69956664Y-138882959D02*
X69823331Y-138816293D01*
X69823331Y-138816293D02*
X69556664Y-138749626D01*
X69556664Y-138749626D02*
X69423331Y-138682959D01*
X69423331Y-138682959D02*
X69356664Y-138616293D01*
X69356664Y-138616293D02*
X69289997Y-138482959D01*
X69289997Y-138482959D02*
X69289997Y-138349626D01*
X69289997Y-138349626D02*
X69356664Y-138216293D01*
X69356664Y-138216293D02*
X69423331Y-138149626D01*
X69423331Y-138149626D02*
X69556664Y-138082959D01*
X69556664Y-138082959D02*
X69889997Y-138082959D01*
X69889997Y-138082959D02*
X70089997Y-138149626D01*
X70689997Y-138082959D02*
X70689997Y-139216293D01*
X70689997Y-139216293D02*
X70756664Y-139349626D01*
X70756664Y-139349626D02*
X70823330Y-139416293D01*
X70823330Y-139416293D02*
X70956664Y-139482959D01*
X70956664Y-139482959D02*
X71223330Y-139482959D01*
X71223330Y-139482959D02*
X71356664Y-139416293D01*
X71356664Y-139416293D02*
X71423330Y-139349626D01*
X71423330Y-139349626D02*
X71489997Y-139216293D01*
X71489997Y-139216293D02*
X71489997Y-138082959D01*
X74023331Y-139482959D02*
X73556664Y-138816293D01*
X73223331Y-139482959D02*
X73223331Y-138082959D01*
X73223331Y-138082959D02*
X73756664Y-138082959D01*
X73756664Y-138082959D02*
X73889998Y-138149626D01*
X73889998Y-138149626D02*
X73956664Y-138216293D01*
X73956664Y-138216293D02*
X74023331Y-138349626D01*
X74023331Y-138349626D02*
X74023331Y-138549626D01*
X74023331Y-138549626D02*
X73956664Y-138682959D01*
X73956664Y-138682959D02*
X73889998Y-138749626D01*
X73889998Y-138749626D02*
X73756664Y-138816293D01*
X73756664Y-138816293D02*
X73223331Y-138816293D01*
X75156664Y-139416293D02*
X75023331Y-139482959D01*
X75023331Y-139482959D02*
X74756664Y-139482959D01*
X74756664Y-139482959D02*
X74623331Y-139416293D01*
X74623331Y-139416293D02*
X74556664Y-139282959D01*
X74556664Y-139282959D02*
X74556664Y-138749626D01*
X74556664Y-138749626D02*
X74623331Y-138616293D01*
X74623331Y-138616293D02*
X74756664Y-138549626D01*
X74756664Y-138549626D02*
X75023331Y-138549626D01*
X75023331Y-138549626D02*
X75156664Y-138616293D01*
X75156664Y-138616293D02*
X75223331Y-138749626D01*
X75223331Y-138749626D02*
X75223331Y-138882959D01*
X75223331Y-138882959D02*
X74556664Y-139016293D01*
X75689998Y-138549626D02*
X76023331Y-139482959D01*
X76023331Y-139482959D02*
X76356664Y-138549626D01*
X77156665Y-138082959D02*
X77289998Y-138082959D01*
X77289998Y-138082959D02*
X77423331Y-138149626D01*
X77423331Y-138149626D02*
X77489998Y-138216293D01*
X77489998Y-138216293D02*
X77556665Y-138349626D01*
X77556665Y-138349626D02*
X77623331Y-138616293D01*
X77623331Y-138616293D02*
X77623331Y-138949626D01*
X77623331Y-138949626D02*
X77556665Y-139216293D01*
X77556665Y-139216293D02*
X77489998Y-139349626D01*
X77489998Y-139349626D02*
X77423331Y-139416293D01*
X77423331Y-139416293D02*
X77289998Y-139482959D01*
X77289998Y-139482959D02*
X77156665Y-139482959D01*
X77156665Y-139482959D02*
X77023331Y-139416293D01*
X77023331Y-139416293D02*
X76956665Y-139349626D01*
X76956665Y-139349626D02*
X76889998Y-139216293D01*
X76889998Y-139216293D02*
X76823331Y-138949626D01*
X76823331Y-138949626D02*
X76823331Y-138616293D01*
X76823331Y-138616293D02*
X76889998Y-138349626D01*
X76889998Y-138349626D02*
X76956665Y-138216293D01*
X76956665Y-138216293D02*
X77023331Y-138149626D01*
X77023331Y-138149626D02*
X77156665Y-138082959D01*
X78223331Y-139349626D02*
X78289998Y-139416293D01*
X78289998Y-139416293D02*
X78223331Y-139482959D01*
X78223331Y-139482959D02*
X78156664Y-139416293D01*
X78156664Y-139416293D02*
X78223331Y-139349626D01*
X78223331Y-139349626D02*
X78223331Y-139482959D01*
X79556665Y-138082959D02*
X78889998Y-138082959D01*
X78889998Y-138082959D02*
X78823331Y-138749626D01*
X78823331Y-138749626D02*
X78889998Y-138682959D01*
X78889998Y-138682959D02*
X79023331Y-138616293D01*
X79023331Y-138616293D02*
X79356665Y-138616293D01*
X79356665Y-138616293D02*
X79489998Y-138682959D01*
X79489998Y-138682959D02*
X79556665Y-138749626D01*
X79556665Y-138749626D02*
X79623331Y-138882959D01*
X79623331Y-138882959D02*
X79623331Y-139216293D01*
X79623331Y-139216293D02*
X79556665Y-139349626D01*
X79556665Y-139349626D02*
X79489998Y-139416293D01*
X79489998Y-139416293D02*
X79356665Y-139482959D01*
X79356665Y-139482959D02*
X79023331Y-139482959D01*
X79023331Y-139482959D02*
X78889998Y-139416293D01*
X78889998Y-139416293D02*
X78823331Y-139349626D01*
X80223331Y-138949626D02*
X81289998Y-138949626D01*
X82689997Y-139482959D02*
X81889997Y-139482959D01*
X82289997Y-139482959D02*
X82289997Y-138082959D01*
X82289997Y-138082959D02*
X82156664Y-138282959D01*
X82156664Y-138282959D02*
X82023331Y-138416293D01*
X82023331Y-138416293D02*
X81889997Y-138482959D01*
X84023330Y-139482959D02*
X83223330Y-139482959D01*
X83623330Y-139482959D02*
X83623330Y-138082959D01*
X83623330Y-138082959D02*
X83489997Y-138282959D01*
X83489997Y-138282959D02*
X83356664Y-138416293D01*
X83356664Y-138416293D02*
X83223330Y-138482959D01*
X84889997Y-138082959D02*
X85023330Y-138082959D01*
X85023330Y-138082959D02*
X85156663Y-138149626D01*
X85156663Y-138149626D02*
X85223330Y-138216293D01*
X85223330Y-138216293D02*
X85289997Y-138349626D01*
X85289997Y-138349626D02*
X85356663Y-138616293D01*
X85356663Y-138616293D02*
X85356663Y-138949626D01*
X85356663Y-138949626D02*
X85289997Y-139216293D01*
X85289997Y-139216293D02*
X85223330Y-139349626D01*
X85223330Y-139349626D02*
X85156663Y-139416293D01*
X85156663Y-139416293D02*
X85023330Y-139482959D01*
X85023330Y-139482959D02*
X84889997Y-139482959D01*
X84889997Y-139482959D02*
X84756663Y-139416293D01*
X84756663Y-139416293D02*
X84689997Y-139349626D01*
X84689997Y-139349626D02*
X84623330Y-139216293D01*
X84623330Y-139216293D02*
X84556663Y-138949626D01*
X84556663Y-138949626D02*
X84556663Y-138616293D01*
X84556663Y-138616293D02*
X84623330Y-138349626D01*
X84623330Y-138349626D02*
X84689997Y-138216293D01*
X84689997Y-138216293D02*
X84756663Y-138149626D01*
X84756663Y-138149626D02*
X84889997Y-138082959D01*
X85756663Y-138082959D02*
X86223330Y-139482959D01*
X86223330Y-139482959D02*
X86689996Y-138082959D01*
X88223330Y-139482959D02*
X88223330Y-138082959D01*
X88223330Y-138616293D02*
X88356663Y-138549626D01*
X88356663Y-138549626D02*
X88623330Y-138549626D01*
X88623330Y-138549626D02*
X88756663Y-138616293D01*
X88756663Y-138616293D02*
X88823330Y-138682959D01*
X88823330Y-138682959D02*
X88889997Y-138816293D01*
X88889997Y-138816293D02*
X88889997Y-139216293D01*
X88889997Y-139216293D02*
X88823330Y-139349626D01*
X88823330Y-139349626D02*
X88756663Y-139416293D01*
X88756663Y-139416293D02*
X88623330Y-139482959D01*
X88623330Y-139482959D02*
X88356663Y-139482959D01*
X88356663Y-139482959D02*
X88223330Y-139416293D01*
X89356664Y-138549626D02*
X89689997Y-139482959D01*
X90023330Y-138549626D02*
X89689997Y-139482959D01*
X89689997Y-139482959D02*
X89556664Y-139816293D01*
X89556664Y-139816293D02*
X89489997Y-139882959D01*
X89489997Y-139882959D02*
X89356664Y-139949626D01*
X91623331Y-139482959D02*
X91623331Y-138082959D01*
X91623331Y-138082959D02*
X91956664Y-138082959D01*
X91956664Y-138082959D02*
X92156664Y-138149626D01*
X92156664Y-138149626D02*
X92289998Y-138282959D01*
X92289998Y-138282959D02*
X92356664Y-138416293D01*
X92356664Y-138416293D02*
X92423331Y-138682959D01*
X92423331Y-138682959D02*
X92423331Y-138882959D01*
X92423331Y-138882959D02*
X92356664Y-139149626D01*
X92356664Y-139149626D02*
X92289998Y-139282959D01*
X92289998Y-139282959D02*
X92156664Y-139416293D01*
X92156664Y-139416293D02*
X91956664Y-139482959D01*
X91956664Y-139482959D02*
X91623331Y-139482959D01*
X92956664Y-139416293D02*
X93156664Y-139482959D01*
X93156664Y-139482959D02*
X93489998Y-139482959D01*
X93489998Y-139482959D02*
X93623331Y-139416293D01*
X93623331Y-139416293D02*
X93689998Y-139349626D01*
X93689998Y-139349626D02*
X93756664Y-139216293D01*
X93756664Y-139216293D02*
X93756664Y-139082959D01*
X93756664Y-139082959D02*
X93689998Y-138949626D01*
X93689998Y-138949626D02*
X93623331Y-138882959D01*
X93623331Y-138882959D02*
X93489998Y-138816293D01*
X93489998Y-138816293D02*
X93223331Y-138749626D01*
X93223331Y-138749626D02*
X93089998Y-138682959D01*
X93089998Y-138682959D02*
X93023331Y-138616293D01*
X93023331Y-138616293D02*
X92956664Y-138482959D01*
X92956664Y-138482959D02*
X92956664Y-138349626D01*
X92956664Y-138349626D02*
X93023331Y-138216293D01*
X93023331Y-138216293D02*
X93089998Y-138149626D01*
X93089998Y-138149626D02*
X93223331Y-138082959D01*
X93223331Y-138082959D02*
X93556664Y-138082959D01*
X93556664Y-138082959D02*
X93756664Y-138149626D01*
X95023331Y-139482959D02*
X94356664Y-139482959D01*
X94356664Y-139482959D02*
X94356664Y-138082959D01*
X95489997Y-138949626D02*
X96556664Y-138949626D01*
X97223330Y-139482959D02*
X97223330Y-138549626D01*
X97223330Y-138682959D02*
X97289997Y-138616293D01*
X97289997Y-138616293D02*
X97423330Y-138549626D01*
X97423330Y-138549626D02*
X97623330Y-138549626D01*
X97623330Y-138549626D02*
X97756663Y-138616293D01*
X97756663Y-138616293D02*
X97823330Y-138749626D01*
X97823330Y-138749626D02*
X97823330Y-139482959D01*
X97823330Y-138749626D02*
X97889997Y-138616293D01*
X97889997Y-138616293D02*
X98023330Y-138549626D01*
X98023330Y-138549626D02*
X98223330Y-138549626D01*
X98223330Y-138549626D02*
X98356663Y-138616293D01*
X98356663Y-138616293D02*
X98423330Y-138749626D01*
X98423330Y-138749626D02*
X98423330Y-139482959D01*
X99689997Y-139482959D02*
X99689997Y-138749626D01*
X99689997Y-138749626D02*
X99623330Y-138616293D01*
X99623330Y-138616293D02*
X99489997Y-138549626D01*
X99489997Y-138549626D02*
X99223330Y-138549626D01*
X99223330Y-138549626D02*
X99089997Y-138616293D01*
X99689997Y-139416293D02*
X99556664Y-139482959D01*
X99556664Y-139482959D02*
X99223330Y-139482959D01*
X99223330Y-139482959D02*
X99089997Y-139416293D01*
X99089997Y-139416293D02*
X99023330Y-139282959D01*
X99023330Y-139282959D02*
X99023330Y-139149626D01*
X99023330Y-139149626D02*
X99089997Y-139016293D01*
X99089997Y-139016293D02*
X99223330Y-138949626D01*
X99223330Y-138949626D02*
X99556664Y-138949626D01*
X99556664Y-138949626D02*
X99689997Y-138882959D01*
X100356664Y-138549626D02*
X100356664Y-139482959D01*
X100356664Y-138682959D02*
X100423331Y-138616293D01*
X100423331Y-138616293D02*
X100556664Y-138549626D01*
X100556664Y-138549626D02*
X100756664Y-138549626D01*
X100756664Y-138549626D02*
X100889997Y-138616293D01*
X100889997Y-138616293D02*
X100956664Y-138749626D01*
X100956664Y-138749626D02*
X100956664Y-139482959D01*
X101623331Y-139349626D02*
X101689998Y-139416293D01*
X101689998Y-139416293D02*
X101623331Y-139482959D01*
X101623331Y-139482959D02*
X101556664Y-139416293D01*
X101556664Y-139416293D02*
X101623331Y-139349626D01*
X101623331Y-139349626D02*
X101623331Y-139482959D01*
X102889998Y-139482959D02*
X102889998Y-138082959D01*
X102889998Y-139416293D02*
X102756665Y-139482959D01*
X102756665Y-139482959D02*
X102489998Y-139482959D01*
X102489998Y-139482959D02*
X102356665Y-139416293D01*
X102356665Y-139416293D02*
X102289998Y-139349626D01*
X102289998Y-139349626D02*
X102223331Y-139216293D01*
X102223331Y-139216293D02*
X102223331Y-138816293D01*
X102223331Y-138816293D02*
X102289998Y-138682959D01*
X102289998Y-138682959D02*
X102356665Y-138616293D01*
X102356665Y-138616293D02*
X102489998Y-138549626D01*
X102489998Y-138549626D02*
X102756665Y-138549626D01*
X102756665Y-138549626D02*
X102889998Y-138616293D01*
X104089998Y-139416293D02*
X103956665Y-139482959D01*
X103956665Y-139482959D02*
X103689998Y-139482959D01*
X103689998Y-139482959D02*
X103556665Y-139416293D01*
X103556665Y-139416293D02*
X103489998Y-139282959D01*
X103489998Y-139282959D02*
X103489998Y-138749626D01*
X103489998Y-138749626D02*
X103556665Y-138616293D01*
X103556665Y-138616293D02*
X103689998Y-138549626D01*
X103689998Y-138549626D02*
X103956665Y-138549626D01*
X103956665Y-138549626D02*
X104089998Y-138616293D01*
X104089998Y-138616293D02*
X104156665Y-138749626D01*
X104156665Y-138749626D02*
X104156665Y-138882959D01*
X104156665Y-138882959D02*
X103489998Y-139016293D01*
X106423332Y-139482959D02*
X106423332Y-138749626D01*
X106423332Y-138749626D02*
X106356665Y-138616293D01*
X106356665Y-138616293D02*
X106223332Y-138549626D01*
X106223332Y-138549626D02*
X105956665Y-138549626D01*
X105956665Y-138549626D02*
X105823332Y-138616293D01*
X106423332Y-139416293D02*
X106289999Y-139482959D01*
X106289999Y-139482959D02*
X105956665Y-139482959D01*
X105956665Y-139482959D02*
X105823332Y-139416293D01*
X105823332Y-139416293D02*
X105756665Y-139282959D01*
X105756665Y-139282959D02*
X105756665Y-139149626D01*
X105756665Y-139149626D02*
X105823332Y-139016293D01*
X105823332Y-139016293D02*
X105956665Y-138949626D01*
X105956665Y-138949626D02*
X106289999Y-138949626D01*
X106289999Y-138949626D02*
X106423332Y-138882959D01*
X107089999Y-139482959D02*
X107089999Y-138082959D01*
X107223332Y-138949626D02*
X107623332Y-139482959D01*
X107623332Y-138549626D02*
X107089999Y-139082959D01*
X108823332Y-139482959D02*
X108823332Y-138749626D01*
X108823332Y-138749626D02*
X108756665Y-138616293D01*
X108756665Y-138616293D02*
X108623332Y-138549626D01*
X108623332Y-138549626D02*
X108356665Y-138549626D01*
X108356665Y-138549626D02*
X108223332Y-138616293D01*
X108823332Y-139416293D02*
X108689999Y-139482959D01*
X108689999Y-139482959D02*
X108356665Y-139482959D01*
X108356665Y-139482959D02*
X108223332Y-139416293D01*
X108223332Y-139416293D02*
X108156665Y-139282959D01*
X108156665Y-139282959D02*
X108156665Y-139149626D01*
X108156665Y-139149626D02*
X108223332Y-139016293D01*
X108223332Y-139016293D02*
X108356665Y-138949626D01*
X108356665Y-138949626D02*
X108689999Y-138949626D01*
X108689999Y-138949626D02*
X108823332Y-138882959D01*
X110556666Y-139482959D02*
X110556666Y-138082959D01*
X110556666Y-138082959D02*
X110889999Y-138082959D01*
X110889999Y-138082959D02*
X111089999Y-138149626D01*
X111089999Y-138149626D02*
X111223333Y-138282959D01*
X111223333Y-138282959D02*
X111289999Y-138416293D01*
X111289999Y-138416293D02*
X111356666Y-138682959D01*
X111356666Y-138682959D02*
X111356666Y-138882959D01*
X111356666Y-138882959D02*
X111289999Y-139149626D01*
X111289999Y-139149626D02*
X111223333Y-139282959D01*
X111223333Y-139282959D02*
X111089999Y-139416293D01*
X111089999Y-139416293D02*
X110889999Y-139482959D01*
X110889999Y-139482959D02*
X110556666Y-139482959D01*
X111956666Y-139482959D02*
X111956666Y-138082959D01*
X112890000Y-138816293D02*
X112890000Y-139482959D01*
X112423333Y-138082959D02*
X112890000Y-138816293D01*
X112890000Y-138816293D02*
X113356666Y-138082959D01*
X113756666Y-139416293D02*
X113956666Y-139482959D01*
X113956666Y-139482959D02*
X114290000Y-139482959D01*
X114290000Y-139482959D02*
X114423333Y-139416293D01*
X114423333Y-139416293D02*
X114490000Y-139349626D01*
X114490000Y-139349626D02*
X114556666Y-139216293D01*
X114556666Y-139216293D02*
X114556666Y-139082959D01*
X114556666Y-139082959D02*
X114490000Y-138949626D01*
X114490000Y-138949626D02*
X114423333Y-138882959D01*
X114423333Y-138882959D02*
X114290000Y-138816293D01*
X114290000Y-138816293D02*
X114023333Y-138749626D01*
X114023333Y-138749626D02*
X113890000Y-138682959D01*
X113890000Y-138682959D02*
X113823333Y-138616293D01*
X113823333Y-138616293D02*
X113756666Y-138482959D01*
X113756666Y-138482959D02*
X113756666Y-138349626D01*
X113756666Y-138349626D02*
X113823333Y-138216293D01*
X113823333Y-138216293D02*
X113890000Y-138149626D01*
X113890000Y-138149626D02*
X114023333Y-138082959D01*
X114023333Y-138082959D02*
X114356666Y-138082959D01*
X114356666Y-138082959D02*
X114556666Y-138149626D01*
X115423333Y-138816293D02*
X115423333Y-139482959D01*
X114956666Y-138082959D02*
X115423333Y-138816293D01*
X115423333Y-138816293D02*
X115889999Y-138082959D01*
X116356666Y-139482959D02*
X116356666Y-138082959D01*
X116356666Y-138082959D02*
X117156666Y-139482959D01*
X117156666Y-139482959D02*
X117156666Y-138082959D01*
X117623333Y-138082959D02*
X118423333Y-138082959D01*
X118023333Y-139482959D02*
X118023333Y-138082959D01*
X118890000Y-139482959D02*
X118890000Y-138082959D01*
X118890000Y-138749626D02*
X119690000Y-138749626D01*
X119690000Y-139482959D02*
X119690000Y-138082959D01*
X120356667Y-139349626D02*
X120423334Y-139416293D01*
X120423334Y-139416293D02*
X120356667Y-139482959D01*
X120356667Y-139482959D02*
X120290000Y-139416293D01*
X120290000Y-139416293D02*
X120356667Y-139349626D01*
X120356667Y-139349626D02*
X120356667Y-139482959D01*
X121623334Y-139482959D02*
X121623334Y-138082959D01*
X121623334Y-139416293D02*
X121490001Y-139482959D01*
X121490001Y-139482959D02*
X121223334Y-139482959D01*
X121223334Y-139482959D02*
X121090001Y-139416293D01*
X121090001Y-139416293D02*
X121023334Y-139349626D01*
X121023334Y-139349626D02*
X120956667Y-139216293D01*
X120956667Y-139216293D02*
X120956667Y-138816293D01*
X120956667Y-138816293D02*
X121023334Y-138682959D01*
X121023334Y-138682959D02*
X121090001Y-138616293D01*
X121090001Y-138616293D02*
X121223334Y-138549626D01*
X121223334Y-138549626D02*
X121490001Y-138549626D01*
X121490001Y-138549626D02*
X121623334Y-138616293D01*
X122823334Y-139416293D02*
X122690001Y-139482959D01*
X122690001Y-139482959D02*
X122423334Y-139482959D01*
X122423334Y-139482959D02*
X122290001Y-139416293D01*
X122290001Y-139416293D02*
X122223334Y-139282959D01*
X122223334Y-139282959D02*
X122223334Y-138749626D01*
X122223334Y-138749626D02*
X122290001Y-138616293D01*
X122290001Y-138616293D02*
X122423334Y-138549626D01*
X122423334Y-138549626D02*
X122690001Y-138549626D01*
X122690001Y-138549626D02*
X122823334Y-138616293D01*
X122823334Y-138616293D02*
X122890001Y-138749626D01*
X122890001Y-138749626D02*
X122890001Y-138882959D01*
X122890001Y-138882959D02*
X122223334Y-139016293D01*
D11*
X33491429Y-52923785D02*
X33562857Y-52852357D01*
X33562857Y-52852357D02*
X33705715Y-52780928D01*
X33705715Y-52780928D02*
X34062857Y-52780928D01*
X34062857Y-52780928D02*
X34205715Y-52852357D01*
X34205715Y-52852357D02*
X34277143Y-52923785D01*
X34277143Y-52923785D02*
X34348572Y-53066642D01*
X34348572Y-53066642D02*
X34348572Y-53209500D01*
X34348572Y-53209500D02*
X34277143Y-53423785D01*
X34277143Y-53423785D02*
X33420000Y-54280928D01*
X33420000Y-54280928D02*
X34348572Y-54280928D01*
X34348572Y-49280928D02*
X33491429Y-49280928D01*
X33920000Y-49280928D02*
X33920000Y-47780928D01*
X33920000Y-47780928D02*
X33777143Y-47995214D01*
X33777143Y-47995214D02*
X33634286Y-48138071D01*
X33634286Y-48138071D02*
X33491429Y-48209500D01*
X34205715Y-71880928D02*
X34205715Y-72880928D01*
X33848572Y-71309500D02*
X33491429Y-72380928D01*
X33491429Y-72380928D02*
X34420000Y-72380928D01*
X33420000Y-66380928D02*
X34348572Y-66380928D01*
X34348572Y-66380928D02*
X33848572Y-66952357D01*
X33848572Y-66952357D02*
X34062857Y-66952357D01*
X34062857Y-66952357D02*
X34205715Y-67023785D01*
X34205715Y-67023785D02*
X34277143Y-67095214D01*
X34277143Y-67095214D02*
X34348572Y-67238071D01*
X34348572Y-67238071D02*
X34348572Y-67595214D01*
X34348572Y-67595214D02*
X34277143Y-67738071D01*
X34277143Y-67738071D02*
X34205715Y-67809500D01*
X34205715Y-67809500D02*
X34062857Y-67880928D01*
X34062857Y-67880928D02*
X33634286Y-67880928D01*
X33634286Y-67880928D02*
X33491429Y-67809500D01*
X33491429Y-67809500D02*
X33420000Y-67738071D01*
X34205715Y-90430928D02*
X33920000Y-90430928D01*
X33920000Y-90430928D02*
X33777143Y-90502357D01*
X33777143Y-90502357D02*
X33705715Y-90573785D01*
X33705715Y-90573785D02*
X33562857Y-90788071D01*
X33562857Y-90788071D02*
X33491429Y-91073785D01*
X33491429Y-91073785D02*
X33491429Y-91645214D01*
X33491429Y-91645214D02*
X33562857Y-91788071D01*
X33562857Y-91788071D02*
X33634286Y-91859500D01*
X33634286Y-91859500D02*
X33777143Y-91930928D01*
X33777143Y-91930928D02*
X34062857Y-91930928D01*
X34062857Y-91930928D02*
X34205715Y-91859500D01*
X34205715Y-91859500D02*
X34277143Y-91788071D01*
X34277143Y-91788071D02*
X34348572Y-91645214D01*
X34348572Y-91645214D02*
X34348572Y-91288071D01*
X34348572Y-91288071D02*
X34277143Y-91145214D01*
X34277143Y-91145214D02*
X34205715Y-91073785D01*
X34205715Y-91073785D02*
X34062857Y-91002357D01*
X34062857Y-91002357D02*
X33777143Y-91002357D01*
X33777143Y-91002357D02*
X33634286Y-91073785D01*
X33634286Y-91073785D02*
X33562857Y-91145214D01*
X33562857Y-91145214D02*
X33491429Y-91288071D01*
X34277143Y-85430928D02*
X33562857Y-85430928D01*
X33562857Y-85430928D02*
X33491429Y-86145214D01*
X33491429Y-86145214D02*
X33562857Y-86073785D01*
X33562857Y-86073785D02*
X33705715Y-86002357D01*
X33705715Y-86002357D02*
X34062857Y-86002357D01*
X34062857Y-86002357D02*
X34205715Y-86073785D01*
X34205715Y-86073785D02*
X34277143Y-86145214D01*
X34277143Y-86145214D02*
X34348572Y-86288071D01*
X34348572Y-86288071D02*
X34348572Y-86645214D01*
X34348572Y-86645214D02*
X34277143Y-86788071D01*
X34277143Y-86788071D02*
X34205715Y-86859500D01*
X34205715Y-86859500D02*
X34062857Y-86930928D01*
X34062857Y-86930928D02*
X33705715Y-86930928D01*
X33705715Y-86930928D02*
X33562857Y-86859500D01*
X33562857Y-86859500D02*
X33491429Y-86788071D01*
X33634286Y-115470928D02*
X33920000Y-115470928D01*
X33920000Y-115470928D02*
X34062857Y-115399500D01*
X34062857Y-115399500D02*
X34134286Y-115328071D01*
X34134286Y-115328071D02*
X34277143Y-115113785D01*
X34277143Y-115113785D02*
X34348572Y-114828071D01*
X34348572Y-114828071D02*
X34348572Y-114256642D01*
X34348572Y-114256642D02*
X34277143Y-114113785D01*
X34277143Y-114113785D02*
X34205715Y-114042357D01*
X34205715Y-114042357D02*
X34062857Y-113970928D01*
X34062857Y-113970928D02*
X33777143Y-113970928D01*
X33777143Y-113970928D02*
X33634286Y-114042357D01*
X33634286Y-114042357D02*
X33562857Y-114113785D01*
X33562857Y-114113785D02*
X33491429Y-114256642D01*
X33491429Y-114256642D02*
X33491429Y-114613785D01*
X33491429Y-114613785D02*
X33562857Y-114756642D01*
X33562857Y-114756642D02*
X33634286Y-114828071D01*
X33634286Y-114828071D02*
X33777143Y-114899500D01*
X33777143Y-114899500D02*
X34062857Y-114899500D01*
X34062857Y-114899500D02*
X34205715Y-114828071D01*
X34205715Y-114828071D02*
X34277143Y-114756642D01*
X34277143Y-114756642D02*
X34348572Y-114613785D01*
X33777143Y-109613785D02*
X33634286Y-109542357D01*
X33634286Y-109542357D02*
X33562857Y-109470928D01*
X33562857Y-109470928D02*
X33491429Y-109328071D01*
X33491429Y-109328071D02*
X33491429Y-109256642D01*
X33491429Y-109256642D02*
X33562857Y-109113785D01*
X33562857Y-109113785D02*
X33634286Y-109042357D01*
X33634286Y-109042357D02*
X33777143Y-108970928D01*
X33777143Y-108970928D02*
X34062857Y-108970928D01*
X34062857Y-108970928D02*
X34205715Y-109042357D01*
X34205715Y-109042357D02*
X34277143Y-109113785D01*
X34277143Y-109113785D02*
X34348572Y-109256642D01*
X34348572Y-109256642D02*
X34348572Y-109328071D01*
X34348572Y-109328071D02*
X34277143Y-109470928D01*
X34277143Y-109470928D02*
X34205715Y-109542357D01*
X34205715Y-109542357D02*
X34062857Y-109613785D01*
X34062857Y-109613785D02*
X33777143Y-109613785D01*
X33777143Y-109613785D02*
X33634286Y-109685214D01*
X33634286Y-109685214D02*
X33562857Y-109756642D01*
X33562857Y-109756642D02*
X33491429Y-109899500D01*
X33491429Y-109899500D02*
X33491429Y-110185214D01*
X33491429Y-110185214D02*
X33562857Y-110328071D01*
X33562857Y-110328071D02*
X33634286Y-110399500D01*
X33634286Y-110399500D02*
X33777143Y-110470928D01*
X33777143Y-110470928D02*
X34062857Y-110470928D01*
X34062857Y-110470928D02*
X34205715Y-110399500D01*
X34205715Y-110399500D02*
X34277143Y-110328071D01*
X34277143Y-110328071D02*
X34348572Y-110185214D01*
X34348572Y-110185214D02*
X34348572Y-109899500D01*
X34348572Y-109899500D02*
X34277143Y-109756642D01*
X34277143Y-109756642D02*
X34205715Y-109685214D01*
X34205715Y-109685214D02*
X34062857Y-109613785D01*
X33420000Y-103970928D02*
X34420000Y-103970928D01*
X34420000Y-103970928D02*
X33777143Y-105470928D01*
D12*
X114842855Y-127820234D02*
X114842855Y-126020234D01*
X114842855Y-126020234D02*
X115528569Y-126020234D01*
X115528569Y-126020234D02*
X115699998Y-126105948D01*
X115699998Y-126105948D02*
X115785712Y-126191662D01*
X115785712Y-126191662D02*
X115871426Y-126363091D01*
X115871426Y-126363091D02*
X115871426Y-126620234D01*
X115871426Y-126620234D02*
X115785712Y-126791662D01*
X115785712Y-126791662D02*
X115699998Y-126877377D01*
X115699998Y-126877377D02*
X115528569Y-126963091D01*
X115528569Y-126963091D02*
X114842855Y-126963091D01*
X116557141Y-127734520D02*
X116814284Y-127820234D01*
X116814284Y-127820234D02*
X117242855Y-127820234D01*
X117242855Y-127820234D02*
X117414284Y-127734520D01*
X117414284Y-127734520D02*
X117499998Y-127648805D01*
X117499998Y-127648805D02*
X117585712Y-127477377D01*
X117585712Y-127477377D02*
X117585712Y-127305948D01*
X117585712Y-127305948D02*
X117499998Y-127134520D01*
X117499998Y-127134520D02*
X117414284Y-127048805D01*
X117414284Y-127048805D02*
X117242855Y-126963091D01*
X117242855Y-126963091D02*
X116899998Y-126877377D01*
X116899998Y-126877377D02*
X116728569Y-126791662D01*
X116728569Y-126791662D02*
X116642855Y-126705948D01*
X116642855Y-126705948D02*
X116557141Y-126534520D01*
X116557141Y-126534520D02*
X116557141Y-126363091D01*
X116557141Y-126363091D02*
X116642855Y-126191662D01*
X116642855Y-126191662D02*
X116728569Y-126105948D01*
X116728569Y-126105948D02*
X116899998Y-126020234D01*
X116899998Y-126020234D02*
X117328569Y-126020234D01*
X117328569Y-126020234D02*
X117585712Y-126105948D01*
X118185712Y-126020234D02*
X119299998Y-126020234D01*
X119299998Y-126020234D02*
X118699998Y-126705948D01*
X118699998Y-126705948D02*
X118957141Y-126705948D01*
X118957141Y-126705948D02*
X119128570Y-126791662D01*
X119128570Y-126791662D02*
X119214284Y-126877377D01*
X119214284Y-126877377D02*
X119299998Y-127048805D01*
X119299998Y-127048805D02*
X119299998Y-127477377D01*
X119299998Y-127477377D02*
X119214284Y-127648805D01*
X119214284Y-127648805D02*
X119128570Y-127734520D01*
X119128570Y-127734520D02*
X118957141Y-127820234D01*
X118957141Y-127820234D02*
X118442855Y-127820234D01*
X118442855Y-127820234D02*
X118271427Y-127734520D01*
X118271427Y-127734520D02*
X118185712Y-127648805D01*
X121014284Y-127820234D02*
X119985713Y-127820234D01*
X120499998Y-127820234D02*
X120499998Y-126020234D01*
X120499998Y-126020234D02*
X120328570Y-126277377D01*
X120328570Y-126277377D02*
X120157141Y-126448805D01*
X120157141Y-126448805D02*
X119985713Y-126534520D01*
X122728570Y-127820234D02*
X121699999Y-127820234D01*
X122214284Y-127820234D02*
X122214284Y-126020234D01*
X122214284Y-126020234D02*
X122042856Y-126277377D01*
X122042856Y-126277377D02*
X121871427Y-126448805D01*
X121871427Y-126448805D02*
X121699999Y-126534520D01*
X124271428Y-126020234D02*
X123928570Y-126020234D01*
X123928570Y-126020234D02*
X123757142Y-126105948D01*
X123757142Y-126105948D02*
X123671428Y-126191662D01*
X123671428Y-126191662D02*
X123499999Y-126448805D01*
X123499999Y-126448805D02*
X123414285Y-126791662D01*
X123414285Y-126791662D02*
X123414285Y-127477377D01*
X123414285Y-127477377D02*
X123499999Y-127648805D01*
X123499999Y-127648805D02*
X123585713Y-127734520D01*
X123585713Y-127734520D02*
X123757142Y-127820234D01*
X123757142Y-127820234D02*
X124099999Y-127820234D01*
X124099999Y-127820234D02*
X124271428Y-127734520D01*
X124271428Y-127734520D02*
X124357142Y-127648805D01*
X124357142Y-127648805D02*
X124442856Y-127477377D01*
X124442856Y-127477377D02*
X124442856Y-127048805D01*
X124442856Y-127048805D02*
X124357142Y-126877377D01*
X124357142Y-126877377D02*
X124271428Y-126791662D01*
X124271428Y-126791662D02*
X124099999Y-126705948D01*
X124099999Y-126705948D02*
X123757142Y-126705948D01*
X123757142Y-126705948D02*
X123585713Y-126791662D01*
X123585713Y-126791662D02*
X123499999Y-126877377D01*
X123499999Y-126877377D02*
X123414285Y-127048805D01*
X125214285Y-127134520D02*
X126585714Y-127134520D01*
X127785713Y-126020234D02*
X127957142Y-126020234D01*
X127957142Y-126020234D02*
X128128570Y-126105948D01*
X128128570Y-126105948D02*
X128214285Y-126191662D01*
X128214285Y-126191662D02*
X128299999Y-126363091D01*
X128299999Y-126363091D02*
X128385713Y-126705948D01*
X128385713Y-126705948D02*
X128385713Y-127134520D01*
X128385713Y-127134520D02*
X128299999Y-127477377D01*
X128299999Y-127477377D02*
X128214285Y-127648805D01*
X128214285Y-127648805D02*
X128128570Y-127734520D01*
X128128570Y-127734520D02*
X127957142Y-127820234D01*
X127957142Y-127820234D02*
X127785713Y-127820234D01*
X127785713Y-127820234D02*
X127614285Y-127734520D01*
X127614285Y-127734520D02*
X127528570Y-127648805D01*
X127528570Y-127648805D02*
X127442856Y-127477377D01*
X127442856Y-127477377D02*
X127357142Y-127134520D01*
X127357142Y-127134520D02*
X127357142Y-126705948D01*
X127357142Y-126705948D02*
X127442856Y-126363091D01*
X127442856Y-126363091D02*
X127528570Y-126191662D01*
X127528570Y-126191662D02*
X127614285Y-126105948D01*
X127614285Y-126105948D02*
X127785713Y-126020234D01*
X130014285Y-126020234D02*
X129157142Y-126020234D01*
X129157142Y-126020234D02*
X129071428Y-126877377D01*
X129071428Y-126877377D02*
X129157142Y-126791662D01*
X129157142Y-126791662D02*
X129328571Y-126705948D01*
X129328571Y-126705948D02*
X129757142Y-126705948D01*
X129757142Y-126705948D02*
X129928571Y-126791662D01*
X129928571Y-126791662D02*
X130014285Y-126877377D01*
X130014285Y-126877377D02*
X130099999Y-127048805D01*
X130099999Y-127048805D02*
X130099999Y-127477377D01*
X130099999Y-127477377D02*
X130014285Y-127648805D01*
X130014285Y-127648805D02*
X129928571Y-127734520D01*
X129928571Y-127734520D02*
X129757142Y-127820234D01*
X129757142Y-127820234D02*
X129328571Y-127820234D01*
X129328571Y-127820234D02*
X129157142Y-127734520D01*
X129157142Y-127734520D02*
X129071428Y-127648805D01*
X131814285Y-127820234D02*
X130785714Y-127820234D01*
X131299999Y-127820234D02*
X131299999Y-126020234D01*
X131299999Y-126020234D02*
X131128571Y-126277377D01*
X131128571Y-126277377D02*
X130957142Y-126448805D01*
X130957142Y-126448805D02*
X130785714Y-126534520D01*
X136271429Y-127820234D02*
X135242858Y-127820234D01*
X135757143Y-127820234D02*
X135757143Y-126020234D01*
X135757143Y-126020234D02*
X135585715Y-126277377D01*
X135585715Y-126277377D02*
X135414286Y-126448805D01*
X135414286Y-126448805D02*
X135242858Y-126534520D01*
X137985715Y-127820234D02*
X136957144Y-127820234D01*
X137471429Y-127820234D02*
X137471429Y-126020234D01*
X137471429Y-126020234D02*
X137300001Y-126277377D01*
X137300001Y-126277377D02*
X137128572Y-126448805D01*
X137128572Y-126448805D02*
X136957144Y-126534520D01*
X139100001Y-126020234D02*
X139271430Y-126020234D01*
X139271430Y-126020234D02*
X139442858Y-126105948D01*
X139442858Y-126105948D02*
X139528573Y-126191662D01*
X139528573Y-126191662D02*
X139614287Y-126363091D01*
X139614287Y-126363091D02*
X139700001Y-126705948D01*
X139700001Y-126705948D02*
X139700001Y-127134520D01*
X139700001Y-127134520D02*
X139614287Y-127477377D01*
X139614287Y-127477377D02*
X139528573Y-127648805D01*
X139528573Y-127648805D02*
X139442858Y-127734520D01*
X139442858Y-127734520D02*
X139271430Y-127820234D01*
X139271430Y-127820234D02*
X139100001Y-127820234D01*
X139100001Y-127820234D02*
X138928573Y-127734520D01*
X138928573Y-127734520D02*
X138842858Y-127648805D01*
X138842858Y-127648805D02*
X138757144Y-127477377D01*
X138757144Y-127477377D02*
X138671430Y-127134520D01*
X138671430Y-127134520D02*
X138671430Y-126705948D01*
X138671430Y-126705948D02*
X138757144Y-126363091D01*
X138757144Y-126363091D02*
X138842858Y-126191662D01*
X138842858Y-126191662D02*
X138928573Y-126105948D01*
X138928573Y-126105948D02*
X139100001Y-126020234D01*
X140214287Y-126020234D02*
X140814287Y-127820234D01*
X140814287Y-127820234D02*
X141414287Y-126020234D01*
D13*
X115623333Y-66029819D02*
X115290000Y-65553628D01*
X115051905Y-66029819D02*
X115051905Y-65029819D01*
X115051905Y-65029819D02*
X115432857Y-65029819D01*
X115432857Y-65029819D02*
X115528095Y-65077438D01*
X115528095Y-65077438D02*
X115575714Y-65125057D01*
X115575714Y-65125057D02*
X115623333Y-65220295D01*
X115623333Y-65220295D02*
X115623333Y-65363152D01*
X115623333Y-65363152D02*
X115575714Y-65458390D01*
X115575714Y-65458390D02*
X115528095Y-65506009D01*
X115528095Y-65506009D02*
X115432857Y-65553628D01*
X115432857Y-65553628D02*
X115051905Y-65553628D01*
X116528095Y-65029819D02*
X116051905Y-65029819D01*
X116051905Y-65029819D02*
X116004286Y-65506009D01*
X116004286Y-65506009D02*
X116051905Y-65458390D01*
X116051905Y-65458390D02*
X116147143Y-65410771D01*
X116147143Y-65410771D02*
X116385238Y-65410771D01*
X116385238Y-65410771D02*
X116480476Y-65458390D01*
X116480476Y-65458390D02*
X116528095Y-65506009D01*
X116528095Y-65506009D02*
X116575714Y-65601247D01*
X116575714Y-65601247D02*
X116575714Y-65839342D01*
X116575714Y-65839342D02*
X116528095Y-65934580D01*
X116528095Y-65934580D02*
X116480476Y-65982200D01*
X116480476Y-65982200D02*
X116385238Y-66029819D01*
X116385238Y-66029819D02*
X116147143Y-66029819D01*
X116147143Y-66029819D02*
X116051905Y-65982200D01*
X116051905Y-65982200D02*
X116004286Y-65934580D01*
X75695714Y-135329819D02*
X75695714Y-134329819D01*
X75695714Y-134329819D02*
X76076666Y-134329819D01*
X76076666Y-134329819D02*
X76171904Y-134377438D01*
X76171904Y-134377438D02*
X76219523Y-134425057D01*
X76219523Y-134425057D02*
X76267142Y-134520295D01*
X76267142Y-134520295D02*
X76267142Y-134663152D01*
X76267142Y-134663152D02*
X76219523Y-134758390D01*
X76219523Y-134758390D02*
X76171904Y-134806009D01*
X76171904Y-134806009D02*
X76076666Y-134853628D01*
X76076666Y-134853628D02*
X75695714Y-134853628D01*
X77219523Y-135329819D02*
X76648095Y-135329819D01*
X76933809Y-135329819D02*
X76933809Y-134329819D01*
X76933809Y-134329819D02*
X76838571Y-134472676D01*
X76838571Y-134472676D02*
X76743333Y-134567914D01*
X76743333Y-134567914D02*
X76648095Y-134615533D01*
X77600476Y-134425057D02*
X77648095Y-134377438D01*
X77648095Y-134377438D02*
X77743333Y-134329819D01*
X77743333Y-134329819D02*
X77981428Y-134329819D01*
X77981428Y-134329819D02*
X78076666Y-134377438D01*
X78076666Y-134377438D02*
X78124285Y-134425057D01*
X78124285Y-134425057D02*
X78171904Y-134520295D01*
X78171904Y-134520295D02*
X78171904Y-134615533D01*
X78171904Y-134615533D02*
X78124285Y-134758390D01*
X78124285Y-134758390D02*
X77552857Y-135329819D01*
X77552857Y-135329819D02*
X78171904Y-135329819D01*
X80463333Y-51124580D02*
X80415714Y-51172200D01*
X80415714Y-51172200D02*
X80272857Y-51219819D01*
X80272857Y-51219819D02*
X80177619Y-51219819D01*
X80177619Y-51219819D02*
X80034762Y-51172200D01*
X80034762Y-51172200D02*
X79939524Y-51076961D01*
X79939524Y-51076961D02*
X79891905Y-50981723D01*
X79891905Y-50981723D02*
X79844286Y-50791247D01*
X79844286Y-50791247D02*
X79844286Y-50648390D01*
X79844286Y-50648390D02*
X79891905Y-50457914D01*
X79891905Y-50457914D02*
X79939524Y-50362676D01*
X79939524Y-50362676D02*
X80034762Y-50267438D01*
X80034762Y-50267438D02*
X80177619Y-50219819D01*
X80177619Y-50219819D02*
X80272857Y-50219819D01*
X80272857Y-50219819D02*
X80415714Y-50267438D01*
X80415714Y-50267438D02*
X80463333Y-50315057D01*
X81368095Y-50219819D02*
X80891905Y-50219819D01*
X80891905Y-50219819D02*
X80844286Y-50696009D01*
X80844286Y-50696009D02*
X80891905Y-50648390D01*
X80891905Y-50648390D02*
X80987143Y-50600771D01*
X80987143Y-50600771D02*
X81225238Y-50600771D01*
X81225238Y-50600771D02*
X81320476Y-50648390D01*
X81320476Y-50648390D02*
X81368095Y-50696009D01*
X81368095Y-50696009D02*
X81415714Y-50791247D01*
X81415714Y-50791247D02*
X81415714Y-51029342D01*
X81415714Y-51029342D02*
X81368095Y-51124580D01*
X81368095Y-51124580D02*
X81320476Y-51172200D01*
X81320476Y-51172200D02*
X81225238Y-51219819D01*
X81225238Y-51219819D02*
X80987143Y-51219819D01*
X80987143Y-51219819D02*
X80891905Y-51172200D01*
X80891905Y-51172200D02*
X80844286Y-51124580D01*
X127667142Y-89464580D02*
X127619523Y-89512200D01*
X127619523Y-89512200D02*
X127476666Y-89559819D01*
X127476666Y-89559819D02*
X127381428Y-89559819D01*
X127381428Y-89559819D02*
X127238571Y-89512200D01*
X127238571Y-89512200D02*
X127143333Y-89416961D01*
X127143333Y-89416961D02*
X127095714Y-89321723D01*
X127095714Y-89321723D02*
X127048095Y-89131247D01*
X127048095Y-89131247D02*
X127048095Y-88988390D01*
X127048095Y-88988390D02*
X127095714Y-88797914D01*
X127095714Y-88797914D02*
X127143333Y-88702676D01*
X127143333Y-88702676D02*
X127238571Y-88607438D01*
X127238571Y-88607438D02*
X127381428Y-88559819D01*
X127381428Y-88559819D02*
X127476666Y-88559819D01*
X127476666Y-88559819D02*
X127619523Y-88607438D01*
X127619523Y-88607438D02*
X127667142Y-88655057D01*
X128619523Y-89559819D02*
X128048095Y-89559819D01*
X128333809Y-89559819D02*
X128333809Y-88559819D01*
X128333809Y-88559819D02*
X128238571Y-88702676D01*
X128238571Y-88702676D02*
X128143333Y-88797914D01*
X128143333Y-88797914D02*
X128048095Y-88845533D01*
X128952857Y-88559819D02*
X129571904Y-88559819D01*
X129571904Y-88559819D02*
X129238571Y-88940771D01*
X129238571Y-88940771D02*
X129381428Y-88940771D01*
X129381428Y-88940771D02*
X129476666Y-88988390D01*
X129476666Y-88988390D02*
X129524285Y-89036009D01*
X129524285Y-89036009D02*
X129571904Y-89131247D01*
X129571904Y-89131247D02*
X129571904Y-89369342D01*
X129571904Y-89369342D02*
X129524285Y-89464580D01*
X129524285Y-89464580D02*
X129476666Y-89512200D01*
X129476666Y-89512200D02*
X129381428Y-89559819D01*
X129381428Y-89559819D02*
X129095714Y-89559819D01*
X129095714Y-89559819D02*
X129000476Y-89512200D01*
X129000476Y-89512200D02*
X128952857Y-89464580D01*
X135754761Y-46735057D02*
X135659523Y-46687438D01*
X135659523Y-46687438D02*
X135564285Y-46592200D01*
X135564285Y-46592200D02*
X135421428Y-46449342D01*
X135421428Y-46449342D02*
X135326190Y-46401723D01*
X135326190Y-46401723D02*
X135230952Y-46401723D01*
X135278571Y-46639819D02*
X135183333Y-46592200D01*
X135183333Y-46592200D02*
X135088095Y-46496961D01*
X135088095Y-46496961D02*
X135040476Y-46306485D01*
X135040476Y-46306485D02*
X135040476Y-45973152D01*
X135040476Y-45973152D02*
X135088095Y-45782676D01*
X135088095Y-45782676D02*
X135183333Y-45687438D01*
X135183333Y-45687438D02*
X135278571Y-45639819D01*
X135278571Y-45639819D02*
X135469047Y-45639819D01*
X135469047Y-45639819D02*
X135564285Y-45687438D01*
X135564285Y-45687438D02*
X135659523Y-45782676D01*
X135659523Y-45782676D02*
X135707142Y-45973152D01*
X135707142Y-45973152D02*
X135707142Y-46306485D01*
X135707142Y-46306485D02*
X135659523Y-46496961D01*
X135659523Y-46496961D02*
X135564285Y-46592200D01*
X135564285Y-46592200D02*
X135469047Y-46639819D01*
X135469047Y-46639819D02*
X135278571Y-46639819D01*
X136088095Y-45735057D02*
X136135714Y-45687438D01*
X136135714Y-45687438D02*
X136230952Y-45639819D01*
X136230952Y-45639819D02*
X136469047Y-45639819D01*
X136469047Y-45639819D02*
X136564285Y-45687438D01*
X136564285Y-45687438D02*
X136611904Y-45735057D01*
X136611904Y-45735057D02*
X136659523Y-45830295D01*
X136659523Y-45830295D02*
X136659523Y-45925533D01*
X136659523Y-45925533D02*
X136611904Y-46068390D01*
X136611904Y-46068390D02*
X136040476Y-46639819D01*
X136040476Y-46639819D02*
X136659523Y-46639819D01*
X43413333Y-60764580D02*
X43365714Y-60812200D01*
X43365714Y-60812200D02*
X43222857Y-60859819D01*
X43222857Y-60859819D02*
X43127619Y-60859819D01*
X43127619Y-60859819D02*
X42984762Y-60812200D01*
X42984762Y-60812200D02*
X42889524Y-60716961D01*
X42889524Y-60716961D02*
X42841905Y-60621723D01*
X42841905Y-60621723D02*
X42794286Y-60431247D01*
X42794286Y-60431247D02*
X42794286Y-60288390D01*
X42794286Y-60288390D02*
X42841905Y-60097914D01*
X42841905Y-60097914D02*
X42889524Y-60002676D01*
X42889524Y-60002676D02*
X42984762Y-59907438D01*
X42984762Y-59907438D02*
X43127619Y-59859819D01*
X43127619Y-59859819D02*
X43222857Y-59859819D01*
X43222857Y-59859819D02*
X43365714Y-59907438D01*
X43365714Y-59907438D02*
X43413333Y-59955057D01*
X44365714Y-60859819D02*
X43794286Y-60859819D01*
X44080000Y-60859819D02*
X44080000Y-59859819D01*
X44080000Y-59859819D02*
X43984762Y-60002676D01*
X43984762Y-60002676D02*
X43889524Y-60097914D01*
X43889524Y-60097914D02*
X43794286Y-60145533D01*
X110917142Y-44864580D02*
X110869523Y-44912200D01*
X110869523Y-44912200D02*
X110726666Y-44959819D01*
X110726666Y-44959819D02*
X110631428Y-44959819D01*
X110631428Y-44959819D02*
X110488571Y-44912200D01*
X110488571Y-44912200D02*
X110393333Y-44816961D01*
X110393333Y-44816961D02*
X110345714Y-44721723D01*
X110345714Y-44721723D02*
X110298095Y-44531247D01*
X110298095Y-44531247D02*
X110298095Y-44388390D01*
X110298095Y-44388390D02*
X110345714Y-44197914D01*
X110345714Y-44197914D02*
X110393333Y-44102676D01*
X110393333Y-44102676D02*
X110488571Y-44007438D01*
X110488571Y-44007438D02*
X110631428Y-43959819D01*
X110631428Y-43959819D02*
X110726666Y-43959819D01*
X110726666Y-43959819D02*
X110869523Y-44007438D01*
X110869523Y-44007438D02*
X110917142Y-44055057D01*
X111869523Y-44959819D02*
X111298095Y-44959819D01*
X111583809Y-44959819D02*
X111583809Y-43959819D01*
X111583809Y-43959819D02*
X111488571Y-44102676D01*
X111488571Y-44102676D02*
X111393333Y-44197914D01*
X111393333Y-44197914D02*
X111298095Y-44245533D01*
X112821904Y-44959819D02*
X112250476Y-44959819D01*
X112536190Y-44959819D02*
X112536190Y-43959819D01*
X112536190Y-43959819D02*
X112440952Y-44102676D01*
X112440952Y-44102676D02*
X112345714Y-44197914D01*
X112345714Y-44197914D02*
X112250476Y-44245533D01*
X72276666Y-109246009D02*
X71943333Y-109246009D01*
X71943333Y-109769819D02*
X71943333Y-108769819D01*
X71943333Y-108769819D02*
X72419523Y-108769819D01*
X72752857Y-108865057D02*
X72800476Y-108817438D01*
X72800476Y-108817438D02*
X72895714Y-108769819D01*
X72895714Y-108769819D02*
X73133809Y-108769819D01*
X73133809Y-108769819D02*
X73229047Y-108817438D01*
X73229047Y-108817438D02*
X73276666Y-108865057D01*
X73276666Y-108865057D02*
X73324285Y-108960295D01*
X73324285Y-108960295D02*
X73324285Y-109055533D01*
X73324285Y-109055533D02*
X73276666Y-109198390D01*
X73276666Y-109198390D02*
X72705238Y-109769819D01*
X72705238Y-109769819D02*
X73324285Y-109769819D01*
X116923333Y-67524580D02*
X116875714Y-67572200D01*
X116875714Y-67572200D02*
X116732857Y-67619819D01*
X116732857Y-67619819D02*
X116637619Y-67619819D01*
X116637619Y-67619819D02*
X116494762Y-67572200D01*
X116494762Y-67572200D02*
X116399524Y-67476961D01*
X116399524Y-67476961D02*
X116351905Y-67381723D01*
X116351905Y-67381723D02*
X116304286Y-67191247D01*
X116304286Y-67191247D02*
X116304286Y-67048390D01*
X116304286Y-67048390D02*
X116351905Y-66857914D01*
X116351905Y-66857914D02*
X116399524Y-66762676D01*
X116399524Y-66762676D02*
X116494762Y-66667438D01*
X116494762Y-66667438D02*
X116637619Y-66619819D01*
X116637619Y-66619819D02*
X116732857Y-66619819D01*
X116732857Y-66619819D02*
X116875714Y-66667438D01*
X116875714Y-66667438D02*
X116923333Y-66715057D01*
X117780476Y-66619819D02*
X117590000Y-66619819D01*
X117590000Y-66619819D02*
X117494762Y-66667438D01*
X117494762Y-66667438D02*
X117447143Y-66715057D01*
X117447143Y-66715057D02*
X117351905Y-66857914D01*
X117351905Y-66857914D02*
X117304286Y-67048390D01*
X117304286Y-67048390D02*
X117304286Y-67429342D01*
X117304286Y-67429342D02*
X117351905Y-67524580D01*
X117351905Y-67524580D02*
X117399524Y-67572200D01*
X117399524Y-67572200D02*
X117494762Y-67619819D01*
X117494762Y-67619819D02*
X117685238Y-67619819D01*
X117685238Y-67619819D02*
X117780476Y-67572200D01*
X117780476Y-67572200D02*
X117828095Y-67524580D01*
X117828095Y-67524580D02*
X117875714Y-67429342D01*
X117875714Y-67429342D02*
X117875714Y-67191247D01*
X117875714Y-67191247D02*
X117828095Y-67096009D01*
X117828095Y-67096009D02*
X117780476Y-67048390D01*
X117780476Y-67048390D02*
X117685238Y-67000771D01*
X117685238Y-67000771D02*
X117494762Y-67000771D01*
X117494762Y-67000771D02*
X117399524Y-67048390D01*
X117399524Y-67048390D02*
X117351905Y-67096009D01*
X117351905Y-67096009D02*
X117304286Y-67191247D01*
X77493333Y-50394819D02*
X77160000Y-49918628D01*
X76921905Y-50394819D02*
X76921905Y-49394819D01*
X76921905Y-49394819D02*
X77302857Y-49394819D01*
X77302857Y-49394819D02*
X77398095Y-49442438D01*
X77398095Y-49442438D02*
X77445714Y-49490057D01*
X77445714Y-49490057D02*
X77493333Y-49585295D01*
X77493333Y-49585295D02*
X77493333Y-49728152D01*
X77493333Y-49728152D02*
X77445714Y-49823390D01*
X77445714Y-49823390D02*
X77398095Y-49871009D01*
X77398095Y-49871009D02*
X77302857Y-49918628D01*
X77302857Y-49918628D02*
X76921905Y-49918628D01*
X77826667Y-49394819D02*
X78493333Y-49394819D01*
X78493333Y-49394819D02*
X78064762Y-50394819D01*
X43446666Y-109246009D02*
X43113333Y-109246009D01*
X43113333Y-109769819D02*
X43113333Y-108769819D01*
X43113333Y-108769819D02*
X43589523Y-108769819D01*
X44494285Y-109769819D02*
X43922857Y-109769819D01*
X44208571Y-109769819D02*
X44208571Y-108769819D01*
X44208571Y-108769819D02*
X44113333Y-108912676D01*
X44113333Y-108912676D02*
X44018095Y-109007914D01*
X44018095Y-109007914D02*
X43922857Y-109055533D01*
X89406666Y-109246009D02*
X89073333Y-109246009D01*
X89073333Y-109769819D02*
X89073333Y-108769819D01*
X89073333Y-108769819D02*
X89549523Y-108769819D01*
X89835238Y-108769819D02*
X90454285Y-108769819D01*
X90454285Y-108769819D02*
X90120952Y-109150771D01*
X90120952Y-109150771D02*
X90263809Y-109150771D01*
X90263809Y-109150771D02*
X90359047Y-109198390D01*
X90359047Y-109198390D02*
X90406666Y-109246009D01*
X90406666Y-109246009D02*
X90454285Y-109341247D01*
X90454285Y-109341247D02*
X90454285Y-109579342D01*
X90454285Y-109579342D02*
X90406666Y-109674580D01*
X90406666Y-109674580D02*
X90359047Y-109722200D01*
X90359047Y-109722200D02*
X90263809Y-109769819D01*
X90263809Y-109769819D02*
X89978095Y-109769819D01*
X89978095Y-109769819D02*
X89882857Y-109722200D01*
X89882857Y-109722200D02*
X89835238Y-109674580D01*
X65135714Y-135329819D02*
X65135714Y-134329819D01*
X65135714Y-134329819D02*
X65516666Y-134329819D01*
X65516666Y-134329819D02*
X65611904Y-134377438D01*
X65611904Y-134377438D02*
X65659523Y-134425057D01*
X65659523Y-134425057D02*
X65707142Y-134520295D01*
X65707142Y-134520295D02*
X65707142Y-134663152D01*
X65707142Y-134663152D02*
X65659523Y-134758390D01*
X65659523Y-134758390D02*
X65611904Y-134806009D01*
X65611904Y-134806009D02*
X65516666Y-134853628D01*
X65516666Y-134853628D02*
X65135714Y-134853628D01*
X66659523Y-135329819D02*
X66088095Y-135329819D01*
X66373809Y-135329819D02*
X66373809Y-134329819D01*
X66373809Y-134329819D02*
X66278571Y-134472676D01*
X66278571Y-134472676D02*
X66183333Y-134567914D01*
X66183333Y-134567914D02*
X66088095Y-134615533D01*
X67611904Y-135329819D02*
X67040476Y-135329819D01*
X67326190Y-135329819D02*
X67326190Y-134329819D01*
X67326190Y-134329819D02*
X67230952Y-134472676D01*
X67230952Y-134472676D02*
X67135714Y-134567914D01*
X67135714Y-134567914D02*
X67040476Y-134615533D01*
X91173333Y-67844580D02*
X91125714Y-67892200D01*
X91125714Y-67892200D02*
X90982857Y-67939819D01*
X90982857Y-67939819D02*
X90887619Y-67939819D01*
X90887619Y-67939819D02*
X90744762Y-67892200D01*
X90744762Y-67892200D02*
X90649524Y-67796961D01*
X90649524Y-67796961D02*
X90601905Y-67701723D01*
X90601905Y-67701723D02*
X90554286Y-67511247D01*
X90554286Y-67511247D02*
X90554286Y-67368390D01*
X90554286Y-67368390D02*
X90601905Y-67177914D01*
X90601905Y-67177914D02*
X90649524Y-67082676D01*
X90649524Y-67082676D02*
X90744762Y-66987438D01*
X90744762Y-66987438D02*
X90887619Y-66939819D01*
X90887619Y-66939819D02*
X90982857Y-66939819D01*
X90982857Y-66939819D02*
X91125714Y-66987438D01*
X91125714Y-66987438D02*
X91173333Y-67035057D01*
X91506667Y-66939819D02*
X92173333Y-66939819D01*
X92173333Y-66939819D02*
X91744762Y-67939819D01*
X123163333Y-93959819D02*
X122830000Y-93483628D01*
X122591905Y-93959819D02*
X122591905Y-92959819D01*
X122591905Y-92959819D02*
X122972857Y-92959819D01*
X122972857Y-92959819D02*
X123068095Y-93007438D01*
X123068095Y-93007438D02*
X123115714Y-93055057D01*
X123115714Y-93055057D02*
X123163333Y-93150295D01*
X123163333Y-93150295D02*
X123163333Y-93293152D01*
X123163333Y-93293152D02*
X123115714Y-93388390D01*
X123115714Y-93388390D02*
X123068095Y-93436009D01*
X123068095Y-93436009D02*
X122972857Y-93483628D01*
X122972857Y-93483628D02*
X122591905Y-93483628D01*
X124115714Y-93959819D02*
X123544286Y-93959819D01*
X123830000Y-93959819D02*
X123830000Y-92959819D01*
X123830000Y-92959819D02*
X123734762Y-93102676D01*
X123734762Y-93102676D02*
X123639524Y-93197914D01*
X123639524Y-93197914D02*
X123544286Y-93245533D01*
X77453333Y-57349819D02*
X77120000Y-56873628D01*
X76881905Y-57349819D02*
X76881905Y-56349819D01*
X76881905Y-56349819D02*
X77262857Y-56349819D01*
X77262857Y-56349819D02*
X77358095Y-56397438D01*
X77358095Y-56397438D02*
X77405714Y-56445057D01*
X77405714Y-56445057D02*
X77453333Y-56540295D01*
X77453333Y-56540295D02*
X77453333Y-56683152D01*
X77453333Y-56683152D02*
X77405714Y-56778390D01*
X77405714Y-56778390D02*
X77358095Y-56826009D01*
X77358095Y-56826009D02*
X77262857Y-56873628D01*
X77262857Y-56873628D02*
X76881905Y-56873628D01*
X77834286Y-56445057D02*
X77881905Y-56397438D01*
X77881905Y-56397438D02*
X77977143Y-56349819D01*
X77977143Y-56349819D02*
X78215238Y-56349819D01*
X78215238Y-56349819D02*
X78310476Y-56397438D01*
X78310476Y-56397438D02*
X78358095Y-56445057D01*
X78358095Y-56445057D02*
X78405714Y-56540295D01*
X78405714Y-56540295D02*
X78405714Y-56635533D01*
X78405714Y-56635533D02*
X78358095Y-56778390D01*
X78358095Y-56778390D02*
X77786667Y-57349819D01*
X77786667Y-57349819D02*
X78405714Y-57349819D01*
X150545714Y-77719819D02*
X150545714Y-76719819D01*
X150545714Y-76719819D02*
X150926666Y-76719819D01*
X150926666Y-76719819D02*
X151021904Y-76767438D01*
X151021904Y-76767438D02*
X151069523Y-76815057D01*
X151069523Y-76815057D02*
X151117142Y-76910295D01*
X151117142Y-76910295D02*
X151117142Y-77053152D01*
X151117142Y-77053152D02*
X151069523Y-77148390D01*
X151069523Y-77148390D02*
X151021904Y-77196009D01*
X151021904Y-77196009D02*
X150926666Y-77243628D01*
X150926666Y-77243628D02*
X150545714Y-77243628D01*
X152069523Y-77719819D02*
X151498095Y-77719819D01*
X151783809Y-77719819D02*
X151783809Y-76719819D01*
X151783809Y-76719819D02*
X151688571Y-76862676D01*
X151688571Y-76862676D02*
X151593333Y-76957914D01*
X151593333Y-76957914D02*
X151498095Y-77005533D01*
X152545714Y-77719819D02*
X152736190Y-77719819D01*
X152736190Y-77719819D02*
X152831428Y-77672200D01*
X152831428Y-77672200D02*
X152879047Y-77624580D01*
X152879047Y-77624580D02*
X152974285Y-77481723D01*
X152974285Y-77481723D02*
X153021904Y-77291247D01*
X153021904Y-77291247D02*
X153021904Y-76910295D01*
X153021904Y-76910295D02*
X152974285Y-76815057D01*
X152974285Y-76815057D02*
X152926666Y-76767438D01*
X152926666Y-76767438D02*
X152831428Y-76719819D01*
X152831428Y-76719819D02*
X152640952Y-76719819D01*
X152640952Y-76719819D02*
X152545714Y-76767438D01*
X152545714Y-76767438D02*
X152498095Y-76815057D01*
X152498095Y-76815057D02*
X152450476Y-76910295D01*
X152450476Y-76910295D02*
X152450476Y-77148390D01*
X152450476Y-77148390D02*
X152498095Y-77243628D01*
X152498095Y-77243628D02*
X152545714Y-77291247D01*
X152545714Y-77291247D02*
X152640952Y-77338866D01*
X152640952Y-77338866D02*
X152831428Y-77338866D01*
X152831428Y-77338866D02*
X152926666Y-77291247D01*
X152926666Y-77291247D02*
X152974285Y-77243628D01*
X152974285Y-77243628D02*
X153021904Y-77148390D01*
X150545714Y-87619819D02*
X150545714Y-86619819D01*
X150545714Y-86619819D02*
X150926666Y-86619819D01*
X150926666Y-86619819D02*
X151021904Y-86667438D01*
X151021904Y-86667438D02*
X151069523Y-86715057D01*
X151069523Y-86715057D02*
X151117142Y-86810295D01*
X151117142Y-86810295D02*
X151117142Y-86953152D01*
X151117142Y-86953152D02*
X151069523Y-87048390D01*
X151069523Y-87048390D02*
X151021904Y-87096009D01*
X151021904Y-87096009D02*
X150926666Y-87143628D01*
X150926666Y-87143628D02*
X150545714Y-87143628D01*
X152069523Y-87619819D02*
X151498095Y-87619819D01*
X151783809Y-87619819D02*
X151783809Y-86619819D01*
X151783809Y-86619819D02*
X151688571Y-86762676D01*
X151688571Y-86762676D02*
X151593333Y-86857914D01*
X151593333Y-86857914D02*
X151498095Y-86905533D01*
X152640952Y-87048390D02*
X152545714Y-87000771D01*
X152545714Y-87000771D02*
X152498095Y-86953152D01*
X152498095Y-86953152D02*
X152450476Y-86857914D01*
X152450476Y-86857914D02*
X152450476Y-86810295D01*
X152450476Y-86810295D02*
X152498095Y-86715057D01*
X152498095Y-86715057D02*
X152545714Y-86667438D01*
X152545714Y-86667438D02*
X152640952Y-86619819D01*
X152640952Y-86619819D02*
X152831428Y-86619819D01*
X152831428Y-86619819D02*
X152926666Y-86667438D01*
X152926666Y-86667438D02*
X152974285Y-86715057D01*
X152974285Y-86715057D02*
X153021904Y-86810295D01*
X153021904Y-86810295D02*
X153021904Y-86857914D01*
X153021904Y-86857914D02*
X152974285Y-86953152D01*
X152974285Y-86953152D02*
X152926666Y-87000771D01*
X152926666Y-87000771D02*
X152831428Y-87048390D01*
X152831428Y-87048390D02*
X152640952Y-87048390D01*
X152640952Y-87048390D02*
X152545714Y-87096009D01*
X152545714Y-87096009D02*
X152498095Y-87143628D01*
X152498095Y-87143628D02*
X152450476Y-87238866D01*
X152450476Y-87238866D02*
X152450476Y-87429342D01*
X152450476Y-87429342D02*
X152498095Y-87524580D01*
X152498095Y-87524580D02*
X152545714Y-87572200D01*
X152545714Y-87572200D02*
X152640952Y-87619819D01*
X152640952Y-87619819D02*
X152831428Y-87619819D01*
X152831428Y-87619819D02*
X152926666Y-87572200D01*
X152926666Y-87572200D02*
X152974285Y-87524580D01*
X152974285Y-87524580D02*
X153021904Y-87429342D01*
X153021904Y-87429342D02*
X153021904Y-87238866D01*
X153021904Y-87238866D02*
X152974285Y-87143628D01*
X152974285Y-87143628D02*
X152926666Y-87096009D01*
X152926666Y-87096009D02*
X152831428Y-87048390D01*
X150545714Y-46649819D02*
X150545714Y-45649819D01*
X150545714Y-45649819D02*
X150926666Y-45649819D01*
X150926666Y-45649819D02*
X151021904Y-45697438D01*
X151021904Y-45697438D02*
X151069523Y-45745057D01*
X151069523Y-45745057D02*
X151117142Y-45840295D01*
X151117142Y-45840295D02*
X151117142Y-45983152D01*
X151117142Y-45983152D02*
X151069523Y-46078390D01*
X151069523Y-46078390D02*
X151021904Y-46126009D01*
X151021904Y-46126009D02*
X150926666Y-46173628D01*
X150926666Y-46173628D02*
X150545714Y-46173628D01*
X151498095Y-45745057D02*
X151545714Y-45697438D01*
X151545714Y-45697438D02*
X151640952Y-45649819D01*
X151640952Y-45649819D02*
X151879047Y-45649819D01*
X151879047Y-45649819D02*
X151974285Y-45697438D01*
X151974285Y-45697438D02*
X152021904Y-45745057D01*
X152021904Y-45745057D02*
X152069523Y-45840295D01*
X152069523Y-45840295D02*
X152069523Y-45935533D01*
X152069523Y-45935533D02*
X152021904Y-46078390D01*
X152021904Y-46078390D02*
X151450476Y-46649819D01*
X151450476Y-46649819D02*
X152069523Y-46649819D01*
X152450476Y-45745057D02*
X152498095Y-45697438D01*
X152498095Y-45697438D02*
X152593333Y-45649819D01*
X152593333Y-45649819D02*
X152831428Y-45649819D01*
X152831428Y-45649819D02*
X152926666Y-45697438D01*
X152926666Y-45697438D02*
X152974285Y-45745057D01*
X152974285Y-45745057D02*
X153021904Y-45840295D01*
X153021904Y-45840295D02*
X153021904Y-45935533D01*
X153021904Y-45935533D02*
X152974285Y-46078390D01*
X152974285Y-46078390D02*
X152402857Y-46649819D01*
X152402857Y-46649819D02*
X153021904Y-46649819D01*
X114063333Y-47999819D02*
X113730000Y-47523628D01*
X113491905Y-47999819D02*
X113491905Y-46999819D01*
X113491905Y-46999819D02*
X113872857Y-46999819D01*
X113872857Y-46999819D02*
X113968095Y-47047438D01*
X113968095Y-47047438D02*
X114015714Y-47095057D01*
X114015714Y-47095057D02*
X114063333Y-47190295D01*
X114063333Y-47190295D02*
X114063333Y-47333152D01*
X114063333Y-47333152D02*
X114015714Y-47428390D01*
X114015714Y-47428390D02*
X113968095Y-47476009D01*
X113968095Y-47476009D02*
X113872857Y-47523628D01*
X113872857Y-47523628D02*
X113491905Y-47523628D01*
X114920476Y-46999819D02*
X114730000Y-46999819D01*
X114730000Y-46999819D02*
X114634762Y-47047438D01*
X114634762Y-47047438D02*
X114587143Y-47095057D01*
X114587143Y-47095057D02*
X114491905Y-47237914D01*
X114491905Y-47237914D02*
X114444286Y-47428390D01*
X114444286Y-47428390D02*
X114444286Y-47809342D01*
X114444286Y-47809342D02*
X114491905Y-47904580D01*
X114491905Y-47904580D02*
X114539524Y-47952200D01*
X114539524Y-47952200D02*
X114634762Y-47999819D01*
X114634762Y-47999819D02*
X114825238Y-47999819D01*
X114825238Y-47999819D02*
X114920476Y-47952200D01*
X114920476Y-47952200D02*
X114968095Y-47904580D01*
X114968095Y-47904580D02*
X115015714Y-47809342D01*
X115015714Y-47809342D02*
X115015714Y-47571247D01*
X115015714Y-47571247D02*
X114968095Y-47476009D01*
X114968095Y-47476009D02*
X114920476Y-47428390D01*
X114920476Y-47428390D02*
X114825238Y-47380771D01*
X114825238Y-47380771D02*
X114634762Y-47380771D01*
X114634762Y-47380771D02*
X114539524Y-47428390D01*
X114539524Y-47428390D02*
X114491905Y-47476009D01*
X114491905Y-47476009D02*
X114444286Y-47571247D01*
X54585714Y-135329819D02*
X54585714Y-134329819D01*
X54585714Y-134329819D02*
X54966666Y-134329819D01*
X54966666Y-134329819D02*
X55061904Y-134377438D01*
X55061904Y-134377438D02*
X55109523Y-134425057D01*
X55109523Y-134425057D02*
X55157142Y-134520295D01*
X55157142Y-134520295D02*
X55157142Y-134663152D01*
X55157142Y-134663152D02*
X55109523Y-134758390D01*
X55109523Y-134758390D02*
X55061904Y-134806009D01*
X55061904Y-134806009D02*
X54966666Y-134853628D01*
X54966666Y-134853628D02*
X54585714Y-134853628D01*
X56109523Y-135329819D02*
X55538095Y-135329819D01*
X55823809Y-135329819D02*
X55823809Y-134329819D01*
X55823809Y-134329819D02*
X55728571Y-134472676D01*
X55728571Y-134472676D02*
X55633333Y-134567914D01*
X55633333Y-134567914D02*
X55538095Y-134615533D01*
X56728571Y-134329819D02*
X56823809Y-134329819D01*
X56823809Y-134329819D02*
X56919047Y-134377438D01*
X56919047Y-134377438D02*
X56966666Y-134425057D01*
X56966666Y-134425057D02*
X57014285Y-134520295D01*
X57014285Y-134520295D02*
X57061904Y-134710771D01*
X57061904Y-134710771D02*
X57061904Y-134948866D01*
X57061904Y-134948866D02*
X57014285Y-135139342D01*
X57014285Y-135139342D02*
X56966666Y-135234580D01*
X56966666Y-135234580D02*
X56919047Y-135282200D01*
X56919047Y-135282200D02*
X56823809Y-135329819D01*
X56823809Y-135329819D02*
X56728571Y-135329819D01*
X56728571Y-135329819D02*
X56633333Y-135282200D01*
X56633333Y-135282200D02*
X56585714Y-135234580D01*
X56585714Y-135234580D02*
X56538095Y-135139342D01*
X56538095Y-135139342D02*
X56490476Y-134948866D01*
X56490476Y-134948866D02*
X56490476Y-134710771D01*
X56490476Y-134710771D02*
X56538095Y-134520295D01*
X56538095Y-134520295D02*
X56585714Y-134425057D01*
X56585714Y-134425057D02*
X56633333Y-134377438D01*
X56633333Y-134377438D02*
X56728571Y-134329819D01*
X74313333Y-77254580D02*
X74265714Y-77302200D01*
X74265714Y-77302200D02*
X74122857Y-77349819D01*
X74122857Y-77349819D02*
X74027619Y-77349819D01*
X74027619Y-77349819D02*
X73884762Y-77302200D01*
X73884762Y-77302200D02*
X73789524Y-77206961D01*
X73789524Y-77206961D02*
X73741905Y-77111723D01*
X73741905Y-77111723D02*
X73694286Y-76921247D01*
X73694286Y-76921247D02*
X73694286Y-76778390D01*
X73694286Y-76778390D02*
X73741905Y-76587914D01*
X73741905Y-76587914D02*
X73789524Y-76492676D01*
X73789524Y-76492676D02*
X73884762Y-76397438D01*
X73884762Y-76397438D02*
X74027619Y-76349819D01*
X74027619Y-76349819D02*
X74122857Y-76349819D01*
X74122857Y-76349819D02*
X74265714Y-76397438D01*
X74265714Y-76397438D02*
X74313333Y-76445057D01*
X75170476Y-76683152D02*
X75170476Y-77349819D01*
X74932381Y-76302200D02*
X74694286Y-77016485D01*
X74694286Y-77016485D02*
X75313333Y-77016485D01*
X139621905Y-118804819D02*
X139621905Y-117804819D01*
X139621905Y-117804819D02*
X139860000Y-117804819D01*
X139860000Y-117804819D02*
X140002857Y-117852438D01*
X140002857Y-117852438D02*
X140098095Y-117947676D01*
X140098095Y-117947676D02*
X140145714Y-118042914D01*
X140145714Y-118042914D02*
X140193333Y-118233390D01*
X140193333Y-118233390D02*
X140193333Y-118376247D01*
X140193333Y-118376247D02*
X140145714Y-118566723D01*
X140145714Y-118566723D02*
X140098095Y-118661961D01*
X140098095Y-118661961D02*
X140002857Y-118757200D01*
X140002857Y-118757200D02*
X139860000Y-118804819D01*
X139860000Y-118804819D02*
X139621905Y-118804819D01*
X140526667Y-117804819D02*
X141145714Y-117804819D01*
X141145714Y-117804819D02*
X140812381Y-118185771D01*
X140812381Y-118185771D02*
X140955238Y-118185771D01*
X140955238Y-118185771D02*
X141050476Y-118233390D01*
X141050476Y-118233390D02*
X141098095Y-118281009D01*
X141098095Y-118281009D02*
X141145714Y-118376247D01*
X141145714Y-118376247D02*
X141145714Y-118614342D01*
X141145714Y-118614342D02*
X141098095Y-118709580D01*
X141098095Y-118709580D02*
X141050476Y-118757200D01*
X141050476Y-118757200D02*
X140955238Y-118804819D01*
X140955238Y-118804819D02*
X140669524Y-118804819D01*
X140669524Y-118804819D02*
X140574286Y-118757200D01*
X140574286Y-118757200D02*
X140526667Y-118709580D01*
X141898095Y-106444819D02*
X141898095Y-105444819D01*
X142469523Y-106444819D02*
X142040952Y-105873390D01*
X142469523Y-105444819D02*
X141898095Y-106016247D01*
X53463810Y-43039819D02*
X53463810Y-42039819D01*
X54511428Y-42944580D02*
X54463809Y-42992200D01*
X54463809Y-42992200D02*
X54320952Y-43039819D01*
X54320952Y-43039819D02*
X54225714Y-43039819D01*
X54225714Y-43039819D02*
X54082857Y-42992200D01*
X54082857Y-42992200D02*
X53987619Y-42896961D01*
X53987619Y-42896961D02*
X53940000Y-42801723D01*
X53940000Y-42801723D02*
X53892381Y-42611247D01*
X53892381Y-42611247D02*
X53892381Y-42468390D01*
X53892381Y-42468390D02*
X53940000Y-42277914D01*
X53940000Y-42277914D02*
X53987619Y-42182676D01*
X53987619Y-42182676D02*
X54082857Y-42087438D01*
X54082857Y-42087438D02*
X54225714Y-42039819D01*
X54225714Y-42039819D02*
X54320952Y-42039819D01*
X54320952Y-42039819D02*
X54463809Y-42087438D01*
X54463809Y-42087438D02*
X54511428Y-42135057D01*
X55463809Y-43039819D02*
X54892381Y-43039819D01*
X55178095Y-43039819D02*
X55178095Y-42039819D01*
X55178095Y-42039819D02*
X55082857Y-42182676D01*
X55082857Y-42182676D02*
X54987619Y-42277914D01*
X54987619Y-42277914D02*
X54892381Y-42325533D01*
X136887142Y-69304580D02*
X136839523Y-69352200D01*
X136839523Y-69352200D02*
X136696666Y-69399819D01*
X136696666Y-69399819D02*
X136601428Y-69399819D01*
X136601428Y-69399819D02*
X136458571Y-69352200D01*
X136458571Y-69352200D02*
X136363333Y-69256961D01*
X136363333Y-69256961D02*
X136315714Y-69161723D01*
X136315714Y-69161723D02*
X136268095Y-68971247D01*
X136268095Y-68971247D02*
X136268095Y-68828390D01*
X136268095Y-68828390D02*
X136315714Y-68637914D01*
X136315714Y-68637914D02*
X136363333Y-68542676D01*
X136363333Y-68542676D02*
X136458571Y-68447438D01*
X136458571Y-68447438D02*
X136601428Y-68399819D01*
X136601428Y-68399819D02*
X136696666Y-68399819D01*
X136696666Y-68399819D02*
X136839523Y-68447438D01*
X136839523Y-68447438D02*
X136887142Y-68495057D01*
X137839523Y-69399819D02*
X137268095Y-69399819D01*
X137553809Y-69399819D02*
X137553809Y-68399819D01*
X137553809Y-68399819D02*
X137458571Y-68542676D01*
X137458571Y-68542676D02*
X137363333Y-68637914D01*
X137363333Y-68637914D02*
X137268095Y-68685533D01*
X138220476Y-68495057D02*
X138268095Y-68447438D01*
X138268095Y-68447438D02*
X138363333Y-68399819D01*
X138363333Y-68399819D02*
X138601428Y-68399819D01*
X138601428Y-68399819D02*
X138696666Y-68447438D01*
X138696666Y-68447438D02*
X138744285Y-68495057D01*
X138744285Y-68495057D02*
X138791904Y-68590295D01*
X138791904Y-68590295D02*
X138791904Y-68685533D01*
X138791904Y-68685533D02*
X138744285Y-68828390D01*
X138744285Y-68828390D02*
X138172857Y-69399819D01*
X138172857Y-69399819D02*
X138791904Y-69399819D01*
X69633333Y-73844580D02*
X69585714Y-73892200D01*
X69585714Y-73892200D02*
X69442857Y-73939819D01*
X69442857Y-73939819D02*
X69347619Y-73939819D01*
X69347619Y-73939819D02*
X69204762Y-73892200D01*
X69204762Y-73892200D02*
X69109524Y-73796961D01*
X69109524Y-73796961D02*
X69061905Y-73701723D01*
X69061905Y-73701723D02*
X69014286Y-73511247D01*
X69014286Y-73511247D02*
X69014286Y-73368390D01*
X69014286Y-73368390D02*
X69061905Y-73177914D01*
X69061905Y-73177914D02*
X69109524Y-73082676D01*
X69109524Y-73082676D02*
X69204762Y-72987438D01*
X69204762Y-72987438D02*
X69347619Y-72939819D01*
X69347619Y-72939819D02*
X69442857Y-72939819D01*
X69442857Y-72939819D02*
X69585714Y-72987438D01*
X69585714Y-72987438D02*
X69633333Y-73035057D01*
X69966667Y-72939819D02*
X70585714Y-72939819D01*
X70585714Y-72939819D02*
X70252381Y-73320771D01*
X70252381Y-73320771D02*
X70395238Y-73320771D01*
X70395238Y-73320771D02*
X70490476Y-73368390D01*
X70490476Y-73368390D02*
X70538095Y-73416009D01*
X70538095Y-73416009D02*
X70585714Y-73511247D01*
X70585714Y-73511247D02*
X70585714Y-73749342D01*
X70585714Y-73749342D02*
X70538095Y-73844580D01*
X70538095Y-73844580D02*
X70490476Y-73892200D01*
X70490476Y-73892200D02*
X70395238Y-73939819D01*
X70395238Y-73939819D02*
X70109524Y-73939819D01*
X70109524Y-73939819D02*
X70014286Y-73892200D01*
X70014286Y-73892200D02*
X69966667Y-73844580D01*
X86113333Y-63599819D02*
X85780000Y-63123628D01*
X85541905Y-63599819D02*
X85541905Y-62599819D01*
X85541905Y-62599819D02*
X85922857Y-62599819D01*
X85922857Y-62599819D02*
X86018095Y-62647438D01*
X86018095Y-62647438D02*
X86065714Y-62695057D01*
X86065714Y-62695057D02*
X86113333Y-62790295D01*
X86113333Y-62790295D02*
X86113333Y-62933152D01*
X86113333Y-62933152D02*
X86065714Y-63028390D01*
X86065714Y-63028390D02*
X86018095Y-63076009D01*
X86018095Y-63076009D02*
X85922857Y-63123628D01*
X85922857Y-63123628D02*
X85541905Y-63123628D01*
X86446667Y-62599819D02*
X87065714Y-62599819D01*
X87065714Y-62599819D02*
X86732381Y-62980771D01*
X86732381Y-62980771D02*
X86875238Y-62980771D01*
X86875238Y-62980771D02*
X86970476Y-63028390D01*
X86970476Y-63028390D02*
X87018095Y-63076009D01*
X87018095Y-63076009D02*
X87065714Y-63171247D01*
X87065714Y-63171247D02*
X87065714Y-63409342D01*
X87065714Y-63409342D02*
X87018095Y-63504580D01*
X87018095Y-63504580D02*
X86970476Y-63552200D01*
X86970476Y-63552200D02*
X86875238Y-63599819D01*
X86875238Y-63599819D02*
X86589524Y-63599819D01*
X86589524Y-63599819D02*
X86494286Y-63552200D01*
X86494286Y-63552200D02*
X86446667Y-63504580D01*
X150545714Y-104069819D02*
X150545714Y-103069819D01*
X150545714Y-103069819D02*
X150926666Y-103069819D01*
X150926666Y-103069819D02*
X151021904Y-103117438D01*
X151021904Y-103117438D02*
X151069523Y-103165057D01*
X151069523Y-103165057D02*
X151117142Y-103260295D01*
X151117142Y-103260295D02*
X151117142Y-103403152D01*
X151117142Y-103403152D02*
X151069523Y-103498390D01*
X151069523Y-103498390D02*
X151021904Y-103546009D01*
X151021904Y-103546009D02*
X150926666Y-103593628D01*
X150926666Y-103593628D02*
X150545714Y-103593628D01*
X152069523Y-104069819D02*
X151498095Y-104069819D01*
X151783809Y-104069819D02*
X151783809Y-103069819D01*
X151783809Y-103069819D02*
X151688571Y-103212676D01*
X151688571Y-103212676D02*
X151593333Y-103307914D01*
X151593333Y-103307914D02*
X151498095Y-103355533D01*
X152926666Y-103069819D02*
X152736190Y-103069819D01*
X152736190Y-103069819D02*
X152640952Y-103117438D01*
X152640952Y-103117438D02*
X152593333Y-103165057D01*
X152593333Y-103165057D02*
X152498095Y-103307914D01*
X152498095Y-103307914D02*
X152450476Y-103498390D01*
X152450476Y-103498390D02*
X152450476Y-103879342D01*
X152450476Y-103879342D02*
X152498095Y-103974580D01*
X152498095Y-103974580D02*
X152545714Y-104022200D01*
X152545714Y-104022200D02*
X152640952Y-104069819D01*
X152640952Y-104069819D02*
X152831428Y-104069819D01*
X152831428Y-104069819D02*
X152926666Y-104022200D01*
X152926666Y-104022200D02*
X152974285Y-103974580D01*
X152974285Y-103974580D02*
X153021904Y-103879342D01*
X153021904Y-103879342D02*
X153021904Y-103641247D01*
X153021904Y-103641247D02*
X152974285Y-103546009D01*
X152974285Y-103546009D02*
X152926666Y-103498390D01*
X152926666Y-103498390D02*
X152831428Y-103450771D01*
X152831428Y-103450771D02*
X152640952Y-103450771D01*
X152640952Y-103450771D02*
X152545714Y-103498390D01*
X152545714Y-103498390D02*
X152498095Y-103546009D01*
X152498095Y-103546009D02*
X152450476Y-103641247D01*
X150545714Y-65689819D02*
X150545714Y-64689819D01*
X150545714Y-64689819D02*
X150926666Y-64689819D01*
X150926666Y-64689819D02*
X151021904Y-64737438D01*
X151021904Y-64737438D02*
X151069523Y-64785057D01*
X151069523Y-64785057D02*
X151117142Y-64880295D01*
X151117142Y-64880295D02*
X151117142Y-65023152D01*
X151117142Y-65023152D02*
X151069523Y-65118390D01*
X151069523Y-65118390D02*
X151021904Y-65166009D01*
X151021904Y-65166009D02*
X150926666Y-65213628D01*
X150926666Y-65213628D02*
X150545714Y-65213628D01*
X151498095Y-64785057D02*
X151545714Y-64737438D01*
X151545714Y-64737438D02*
X151640952Y-64689819D01*
X151640952Y-64689819D02*
X151879047Y-64689819D01*
X151879047Y-64689819D02*
X151974285Y-64737438D01*
X151974285Y-64737438D02*
X152021904Y-64785057D01*
X152021904Y-64785057D02*
X152069523Y-64880295D01*
X152069523Y-64880295D02*
X152069523Y-64975533D01*
X152069523Y-64975533D02*
X152021904Y-65118390D01*
X152021904Y-65118390D02*
X151450476Y-65689819D01*
X151450476Y-65689819D02*
X152069523Y-65689819D01*
X152688571Y-64689819D02*
X152783809Y-64689819D01*
X152783809Y-64689819D02*
X152879047Y-64737438D01*
X152879047Y-64737438D02*
X152926666Y-64785057D01*
X152926666Y-64785057D02*
X152974285Y-64880295D01*
X152974285Y-64880295D02*
X153021904Y-65070771D01*
X153021904Y-65070771D02*
X153021904Y-65308866D01*
X153021904Y-65308866D02*
X152974285Y-65499342D01*
X152974285Y-65499342D02*
X152926666Y-65594580D01*
X152926666Y-65594580D02*
X152879047Y-65642200D01*
X152879047Y-65642200D02*
X152783809Y-65689819D01*
X152783809Y-65689819D02*
X152688571Y-65689819D01*
X152688571Y-65689819D02*
X152593333Y-65642200D01*
X152593333Y-65642200D02*
X152545714Y-65594580D01*
X152545714Y-65594580D02*
X152498095Y-65499342D01*
X152498095Y-65499342D02*
X152450476Y-65308866D01*
X152450476Y-65308866D02*
X152450476Y-65070771D01*
X152450476Y-65070771D02*
X152498095Y-64880295D01*
X152498095Y-64880295D02*
X152545714Y-64785057D01*
X152545714Y-64785057D02*
X152593333Y-64737438D01*
X152593333Y-64737438D02*
X152688571Y-64689819D01*
X91323333Y-66349580D02*
X91275714Y-66397200D01*
X91275714Y-66397200D02*
X91132857Y-66444819D01*
X91132857Y-66444819D02*
X91037619Y-66444819D01*
X91037619Y-66444819D02*
X90894762Y-66397200D01*
X90894762Y-66397200D02*
X90799524Y-66301961D01*
X90799524Y-66301961D02*
X90751905Y-66206723D01*
X90751905Y-66206723D02*
X90704286Y-66016247D01*
X90704286Y-66016247D02*
X90704286Y-65873390D01*
X90704286Y-65873390D02*
X90751905Y-65682914D01*
X90751905Y-65682914D02*
X90799524Y-65587676D01*
X90799524Y-65587676D02*
X90894762Y-65492438D01*
X90894762Y-65492438D02*
X91037619Y-65444819D01*
X91037619Y-65444819D02*
X91132857Y-65444819D01*
X91132857Y-65444819D02*
X91275714Y-65492438D01*
X91275714Y-65492438D02*
X91323333Y-65540057D01*
X91894762Y-65873390D02*
X91799524Y-65825771D01*
X91799524Y-65825771D02*
X91751905Y-65778152D01*
X91751905Y-65778152D02*
X91704286Y-65682914D01*
X91704286Y-65682914D02*
X91704286Y-65635295D01*
X91704286Y-65635295D02*
X91751905Y-65540057D01*
X91751905Y-65540057D02*
X91799524Y-65492438D01*
X91799524Y-65492438D02*
X91894762Y-65444819D01*
X91894762Y-65444819D02*
X92085238Y-65444819D01*
X92085238Y-65444819D02*
X92180476Y-65492438D01*
X92180476Y-65492438D02*
X92228095Y-65540057D01*
X92228095Y-65540057D02*
X92275714Y-65635295D01*
X92275714Y-65635295D02*
X92275714Y-65682914D01*
X92275714Y-65682914D02*
X92228095Y-65778152D01*
X92228095Y-65778152D02*
X92180476Y-65825771D01*
X92180476Y-65825771D02*
X92085238Y-65873390D01*
X92085238Y-65873390D02*
X91894762Y-65873390D01*
X91894762Y-65873390D02*
X91799524Y-65921009D01*
X91799524Y-65921009D02*
X91751905Y-65968628D01*
X91751905Y-65968628D02*
X91704286Y-66063866D01*
X91704286Y-66063866D02*
X91704286Y-66254342D01*
X91704286Y-66254342D02*
X91751905Y-66349580D01*
X91751905Y-66349580D02*
X91799524Y-66397200D01*
X91799524Y-66397200D02*
X91894762Y-66444819D01*
X91894762Y-66444819D02*
X92085238Y-66444819D01*
X92085238Y-66444819D02*
X92180476Y-66397200D01*
X92180476Y-66397200D02*
X92228095Y-66349580D01*
X92228095Y-66349580D02*
X92275714Y-66254342D01*
X92275714Y-66254342D02*
X92275714Y-66063866D01*
X92275714Y-66063866D02*
X92228095Y-65968628D01*
X92228095Y-65968628D02*
X92180476Y-65921009D01*
X92180476Y-65921009D02*
X92085238Y-65873390D01*
X106816666Y-109246009D02*
X106483333Y-109246009D01*
X106483333Y-109769819D02*
X106483333Y-108769819D01*
X106483333Y-108769819D02*
X106959523Y-108769819D01*
X107769047Y-109103152D02*
X107769047Y-109769819D01*
X107530952Y-108722200D02*
X107292857Y-109436485D01*
X107292857Y-109436485D02*
X107911904Y-109436485D01*
X150545714Y-56119819D02*
X150545714Y-55119819D01*
X150545714Y-55119819D02*
X150926666Y-55119819D01*
X150926666Y-55119819D02*
X151021904Y-55167438D01*
X151021904Y-55167438D02*
X151069523Y-55215057D01*
X151069523Y-55215057D02*
X151117142Y-55310295D01*
X151117142Y-55310295D02*
X151117142Y-55453152D01*
X151117142Y-55453152D02*
X151069523Y-55548390D01*
X151069523Y-55548390D02*
X151021904Y-55596009D01*
X151021904Y-55596009D02*
X150926666Y-55643628D01*
X150926666Y-55643628D02*
X150545714Y-55643628D01*
X151498095Y-55215057D02*
X151545714Y-55167438D01*
X151545714Y-55167438D02*
X151640952Y-55119819D01*
X151640952Y-55119819D02*
X151879047Y-55119819D01*
X151879047Y-55119819D02*
X151974285Y-55167438D01*
X151974285Y-55167438D02*
X152021904Y-55215057D01*
X152021904Y-55215057D02*
X152069523Y-55310295D01*
X152069523Y-55310295D02*
X152069523Y-55405533D01*
X152069523Y-55405533D02*
X152021904Y-55548390D01*
X152021904Y-55548390D02*
X151450476Y-56119819D01*
X151450476Y-56119819D02*
X152069523Y-56119819D01*
X153021904Y-56119819D02*
X152450476Y-56119819D01*
X152736190Y-56119819D02*
X152736190Y-55119819D01*
X152736190Y-55119819D02*
X152640952Y-55262676D01*
X152640952Y-55262676D02*
X152545714Y-55357914D01*
X152545714Y-55357914D02*
X152450476Y-55405533D01*
X114583333Y-60449819D02*
X114250000Y-59973628D01*
X114011905Y-60449819D02*
X114011905Y-59449819D01*
X114011905Y-59449819D02*
X114392857Y-59449819D01*
X114392857Y-59449819D02*
X114488095Y-59497438D01*
X114488095Y-59497438D02*
X114535714Y-59545057D01*
X114535714Y-59545057D02*
X114583333Y-59640295D01*
X114583333Y-59640295D02*
X114583333Y-59783152D01*
X114583333Y-59783152D02*
X114535714Y-59878390D01*
X114535714Y-59878390D02*
X114488095Y-59926009D01*
X114488095Y-59926009D02*
X114392857Y-59973628D01*
X114392857Y-59973628D02*
X114011905Y-59973628D01*
X115440476Y-59783152D02*
X115440476Y-60449819D01*
X115202381Y-59402200D02*
X114964286Y-60116485D01*
X114964286Y-60116485D02*
X115583333Y-60116485D01*
X146587142Y-48674580D02*
X146539523Y-48722200D01*
X146539523Y-48722200D02*
X146396666Y-48769819D01*
X146396666Y-48769819D02*
X146301428Y-48769819D01*
X146301428Y-48769819D02*
X146158571Y-48722200D01*
X146158571Y-48722200D02*
X146063333Y-48626961D01*
X146063333Y-48626961D02*
X146015714Y-48531723D01*
X146015714Y-48531723D02*
X145968095Y-48341247D01*
X145968095Y-48341247D02*
X145968095Y-48198390D01*
X145968095Y-48198390D02*
X146015714Y-48007914D01*
X146015714Y-48007914D02*
X146063333Y-47912676D01*
X146063333Y-47912676D02*
X146158571Y-47817438D01*
X146158571Y-47817438D02*
X146301428Y-47769819D01*
X146301428Y-47769819D02*
X146396666Y-47769819D01*
X146396666Y-47769819D02*
X146539523Y-47817438D01*
X146539523Y-47817438D02*
X146587142Y-47865057D01*
X147539523Y-48769819D02*
X146968095Y-48769819D01*
X147253809Y-48769819D02*
X147253809Y-47769819D01*
X147253809Y-47769819D02*
X147158571Y-47912676D01*
X147158571Y-47912676D02*
X147063333Y-48007914D01*
X147063333Y-48007914D02*
X146968095Y-48055533D01*
X148396666Y-48103152D02*
X148396666Y-48769819D01*
X148158571Y-47722200D02*
X147920476Y-48436485D01*
X147920476Y-48436485D02*
X148539523Y-48436485D01*
X79641905Y-88694819D02*
X79641905Y-87694819D01*
X79641905Y-87694819D02*
X79880000Y-87694819D01*
X79880000Y-87694819D02*
X80022857Y-87742438D01*
X80022857Y-87742438D02*
X80118095Y-87837676D01*
X80118095Y-87837676D02*
X80165714Y-87932914D01*
X80165714Y-87932914D02*
X80213333Y-88123390D01*
X80213333Y-88123390D02*
X80213333Y-88266247D01*
X80213333Y-88266247D02*
X80165714Y-88456723D01*
X80165714Y-88456723D02*
X80118095Y-88551961D01*
X80118095Y-88551961D02*
X80022857Y-88647200D01*
X80022857Y-88647200D02*
X79880000Y-88694819D01*
X79880000Y-88694819D02*
X79641905Y-88694819D01*
X80594286Y-87790057D02*
X80641905Y-87742438D01*
X80641905Y-87742438D02*
X80737143Y-87694819D01*
X80737143Y-87694819D02*
X80975238Y-87694819D01*
X80975238Y-87694819D02*
X81070476Y-87742438D01*
X81070476Y-87742438D02*
X81118095Y-87790057D01*
X81118095Y-87790057D02*
X81165714Y-87885295D01*
X81165714Y-87885295D02*
X81165714Y-87980533D01*
X81165714Y-87980533D02*
X81118095Y-88123390D01*
X81118095Y-88123390D02*
X80546667Y-88694819D01*
X80546667Y-88694819D02*
X81165714Y-88694819D01*
X150545714Y-119879819D02*
X150545714Y-118879819D01*
X150545714Y-118879819D02*
X150926666Y-118879819D01*
X150926666Y-118879819D02*
X151021904Y-118927438D01*
X151021904Y-118927438D02*
X151069523Y-118975057D01*
X151069523Y-118975057D02*
X151117142Y-119070295D01*
X151117142Y-119070295D02*
X151117142Y-119213152D01*
X151117142Y-119213152D02*
X151069523Y-119308390D01*
X151069523Y-119308390D02*
X151021904Y-119356009D01*
X151021904Y-119356009D02*
X150926666Y-119403628D01*
X150926666Y-119403628D02*
X150545714Y-119403628D01*
X152069523Y-119879819D02*
X151498095Y-119879819D01*
X151783809Y-119879819D02*
X151783809Y-118879819D01*
X151783809Y-118879819D02*
X151688571Y-119022676D01*
X151688571Y-119022676D02*
X151593333Y-119117914D01*
X151593333Y-119117914D02*
X151498095Y-119165533D01*
X152974285Y-118879819D02*
X152498095Y-118879819D01*
X152498095Y-118879819D02*
X152450476Y-119356009D01*
X152450476Y-119356009D02*
X152498095Y-119308390D01*
X152498095Y-119308390D02*
X152593333Y-119260771D01*
X152593333Y-119260771D02*
X152831428Y-119260771D01*
X152831428Y-119260771D02*
X152926666Y-119308390D01*
X152926666Y-119308390D02*
X152974285Y-119356009D01*
X152974285Y-119356009D02*
X153021904Y-119451247D01*
X153021904Y-119451247D02*
X153021904Y-119689342D01*
X153021904Y-119689342D02*
X152974285Y-119784580D01*
X152974285Y-119784580D02*
X152926666Y-119832200D01*
X152926666Y-119832200D02*
X152831428Y-119879819D01*
X152831428Y-119879819D02*
X152593333Y-119879819D01*
X152593333Y-119879819D02*
X152498095Y-119832200D01*
X152498095Y-119832200D02*
X152450476Y-119784580D01*
X118043333Y-94774580D02*
X117995714Y-94822200D01*
X117995714Y-94822200D02*
X117852857Y-94869819D01*
X117852857Y-94869819D02*
X117757619Y-94869819D01*
X117757619Y-94869819D02*
X117614762Y-94822200D01*
X117614762Y-94822200D02*
X117519524Y-94726961D01*
X117519524Y-94726961D02*
X117471905Y-94631723D01*
X117471905Y-94631723D02*
X117424286Y-94441247D01*
X117424286Y-94441247D02*
X117424286Y-94298390D01*
X117424286Y-94298390D02*
X117471905Y-94107914D01*
X117471905Y-94107914D02*
X117519524Y-94012676D01*
X117519524Y-94012676D02*
X117614762Y-93917438D01*
X117614762Y-93917438D02*
X117757619Y-93869819D01*
X117757619Y-93869819D02*
X117852857Y-93869819D01*
X117852857Y-93869819D02*
X117995714Y-93917438D01*
X117995714Y-93917438D02*
X118043333Y-93965057D01*
X118519524Y-94869819D02*
X118710000Y-94869819D01*
X118710000Y-94869819D02*
X118805238Y-94822200D01*
X118805238Y-94822200D02*
X118852857Y-94774580D01*
X118852857Y-94774580D02*
X118948095Y-94631723D01*
X118948095Y-94631723D02*
X118995714Y-94441247D01*
X118995714Y-94441247D02*
X118995714Y-94060295D01*
X118995714Y-94060295D02*
X118948095Y-93965057D01*
X118948095Y-93965057D02*
X118900476Y-93917438D01*
X118900476Y-93917438D02*
X118805238Y-93869819D01*
X118805238Y-93869819D02*
X118614762Y-93869819D01*
X118614762Y-93869819D02*
X118519524Y-93917438D01*
X118519524Y-93917438D02*
X118471905Y-93965057D01*
X118471905Y-93965057D02*
X118424286Y-94060295D01*
X118424286Y-94060295D02*
X118424286Y-94298390D01*
X118424286Y-94298390D02*
X118471905Y-94393628D01*
X118471905Y-94393628D02*
X118519524Y-94441247D01*
X118519524Y-94441247D02*
X118614762Y-94488866D01*
X118614762Y-94488866D02*
X118805238Y-94488866D01*
X118805238Y-94488866D02*
X118900476Y-94441247D01*
X118900476Y-94441247D02*
X118948095Y-94393628D01*
X118948095Y-94393628D02*
X118995714Y-94298390D01*
X146147142Y-79174580D02*
X146099523Y-79222200D01*
X146099523Y-79222200D02*
X145956666Y-79269819D01*
X145956666Y-79269819D02*
X145861428Y-79269819D01*
X145861428Y-79269819D02*
X145718571Y-79222200D01*
X145718571Y-79222200D02*
X145623333Y-79126961D01*
X145623333Y-79126961D02*
X145575714Y-79031723D01*
X145575714Y-79031723D02*
X145528095Y-78841247D01*
X145528095Y-78841247D02*
X145528095Y-78698390D01*
X145528095Y-78698390D02*
X145575714Y-78507914D01*
X145575714Y-78507914D02*
X145623333Y-78412676D01*
X145623333Y-78412676D02*
X145718571Y-78317438D01*
X145718571Y-78317438D02*
X145861428Y-78269819D01*
X145861428Y-78269819D02*
X145956666Y-78269819D01*
X145956666Y-78269819D02*
X146099523Y-78317438D01*
X146099523Y-78317438D02*
X146147142Y-78365057D01*
X147099523Y-79269819D02*
X146528095Y-79269819D01*
X146813809Y-79269819D02*
X146813809Y-78269819D01*
X146813809Y-78269819D02*
X146718571Y-78412676D01*
X146718571Y-78412676D02*
X146623333Y-78507914D01*
X146623333Y-78507914D02*
X146528095Y-78555533D01*
X147956666Y-78269819D02*
X147766190Y-78269819D01*
X147766190Y-78269819D02*
X147670952Y-78317438D01*
X147670952Y-78317438D02*
X147623333Y-78365057D01*
X147623333Y-78365057D02*
X147528095Y-78507914D01*
X147528095Y-78507914D02*
X147480476Y-78698390D01*
X147480476Y-78698390D02*
X147480476Y-79079342D01*
X147480476Y-79079342D02*
X147528095Y-79174580D01*
X147528095Y-79174580D02*
X147575714Y-79222200D01*
X147575714Y-79222200D02*
X147670952Y-79269819D01*
X147670952Y-79269819D02*
X147861428Y-79269819D01*
X147861428Y-79269819D02*
X147956666Y-79222200D01*
X147956666Y-79222200D02*
X148004285Y-79174580D01*
X148004285Y-79174580D02*
X148051904Y-79079342D01*
X148051904Y-79079342D02*
X148051904Y-78841247D01*
X148051904Y-78841247D02*
X148004285Y-78746009D01*
X148004285Y-78746009D02*
X147956666Y-78698390D01*
X147956666Y-78698390D02*
X147861428Y-78650771D01*
X147861428Y-78650771D02*
X147670952Y-78650771D01*
X147670952Y-78650771D02*
X147575714Y-78698390D01*
X147575714Y-78698390D02*
X147528095Y-78746009D01*
X147528095Y-78746009D02*
X147480476Y-78841247D01*
X63193333Y-50044580D02*
X63145714Y-50092200D01*
X63145714Y-50092200D02*
X63002857Y-50139819D01*
X63002857Y-50139819D02*
X62907619Y-50139819D01*
X62907619Y-50139819D02*
X62764762Y-50092200D01*
X62764762Y-50092200D02*
X62669524Y-49996961D01*
X62669524Y-49996961D02*
X62621905Y-49901723D01*
X62621905Y-49901723D02*
X62574286Y-49711247D01*
X62574286Y-49711247D02*
X62574286Y-49568390D01*
X62574286Y-49568390D02*
X62621905Y-49377914D01*
X62621905Y-49377914D02*
X62669524Y-49282676D01*
X62669524Y-49282676D02*
X62764762Y-49187438D01*
X62764762Y-49187438D02*
X62907619Y-49139819D01*
X62907619Y-49139819D02*
X63002857Y-49139819D01*
X63002857Y-49139819D02*
X63145714Y-49187438D01*
X63145714Y-49187438D02*
X63193333Y-49235057D01*
X63574286Y-49235057D02*
X63621905Y-49187438D01*
X63621905Y-49187438D02*
X63717143Y-49139819D01*
X63717143Y-49139819D02*
X63955238Y-49139819D01*
X63955238Y-49139819D02*
X64050476Y-49187438D01*
X64050476Y-49187438D02*
X64098095Y-49235057D01*
X64098095Y-49235057D02*
X64145714Y-49330295D01*
X64145714Y-49330295D02*
X64145714Y-49425533D01*
X64145714Y-49425533D02*
X64098095Y-49568390D01*
X64098095Y-49568390D02*
X63526667Y-50139819D01*
X63526667Y-50139819D02*
X64145714Y-50139819D01*
X146547142Y-59414580D02*
X146499523Y-59462200D01*
X146499523Y-59462200D02*
X146356666Y-59509819D01*
X146356666Y-59509819D02*
X146261428Y-59509819D01*
X146261428Y-59509819D02*
X146118571Y-59462200D01*
X146118571Y-59462200D02*
X146023333Y-59366961D01*
X146023333Y-59366961D02*
X145975714Y-59271723D01*
X145975714Y-59271723D02*
X145928095Y-59081247D01*
X145928095Y-59081247D02*
X145928095Y-58938390D01*
X145928095Y-58938390D02*
X145975714Y-58747914D01*
X145975714Y-58747914D02*
X146023333Y-58652676D01*
X146023333Y-58652676D02*
X146118571Y-58557438D01*
X146118571Y-58557438D02*
X146261428Y-58509819D01*
X146261428Y-58509819D02*
X146356666Y-58509819D01*
X146356666Y-58509819D02*
X146499523Y-58557438D01*
X146499523Y-58557438D02*
X146547142Y-58605057D01*
X147499523Y-59509819D02*
X146928095Y-59509819D01*
X147213809Y-59509819D02*
X147213809Y-58509819D01*
X147213809Y-58509819D02*
X147118571Y-58652676D01*
X147118571Y-58652676D02*
X147023333Y-58747914D01*
X147023333Y-58747914D02*
X146928095Y-58795533D01*
X148404285Y-58509819D02*
X147928095Y-58509819D01*
X147928095Y-58509819D02*
X147880476Y-58986009D01*
X147880476Y-58986009D02*
X147928095Y-58938390D01*
X147928095Y-58938390D02*
X148023333Y-58890771D01*
X148023333Y-58890771D02*
X148261428Y-58890771D01*
X148261428Y-58890771D02*
X148356666Y-58938390D01*
X148356666Y-58938390D02*
X148404285Y-58986009D01*
X148404285Y-58986009D02*
X148451904Y-59081247D01*
X148451904Y-59081247D02*
X148451904Y-59319342D01*
X148451904Y-59319342D02*
X148404285Y-59414580D01*
X148404285Y-59414580D02*
X148356666Y-59462200D01*
X148356666Y-59462200D02*
X148261428Y-59509819D01*
X148261428Y-59509819D02*
X148023333Y-59509819D01*
X148023333Y-59509819D02*
X147928095Y-59462200D01*
X147928095Y-59462200D02*
X147880476Y-59414580D01*
X88757142Y-80274580D02*
X88709523Y-80322200D01*
X88709523Y-80322200D02*
X88566666Y-80369819D01*
X88566666Y-80369819D02*
X88471428Y-80369819D01*
X88471428Y-80369819D02*
X88328571Y-80322200D01*
X88328571Y-80322200D02*
X88233333Y-80226961D01*
X88233333Y-80226961D02*
X88185714Y-80131723D01*
X88185714Y-80131723D02*
X88138095Y-79941247D01*
X88138095Y-79941247D02*
X88138095Y-79798390D01*
X88138095Y-79798390D02*
X88185714Y-79607914D01*
X88185714Y-79607914D02*
X88233333Y-79512676D01*
X88233333Y-79512676D02*
X88328571Y-79417438D01*
X88328571Y-79417438D02*
X88471428Y-79369819D01*
X88471428Y-79369819D02*
X88566666Y-79369819D01*
X88566666Y-79369819D02*
X88709523Y-79417438D01*
X88709523Y-79417438D02*
X88757142Y-79465057D01*
X89709523Y-80369819D02*
X89138095Y-80369819D01*
X89423809Y-80369819D02*
X89423809Y-79369819D01*
X89423809Y-79369819D02*
X89328571Y-79512676D01*
X89328571Y-79512676D02*
X89233333Y-79607914D01*
X89233333Y-79607914D02*
X89138095Y-79655533D01*
X90328571Y-79369819D02*
X90423809Y-79369819D01*
X90423809Y-79369819D02*
X90519047Y-79417438D01*
X90519047Y-79417438D02*
X90566666Y-79465057D01*
X90566666Y-79465057D02*
X90614285Y-79560295D01*
X90614285Y-79560295D02*
X90661904Y-79750771D01*
X90661904Y-79750771D02*
X90661904Y-79988866D01*
X90661904Y-79988866D02*
X90614285Y-80179342D01*
X90614285Y-80179342D02*
X90566666Y-80274580D01*
X90566666Y-80274580D02*
X90519047Y-80322200D01*
X90519047Y-80322200D02*
X90423809Y-80369819D01*
X90423809Y-80369819D02*
X90328571Y-80369819D01*
X90328571Y-80369819D02*
X90233333Y-80322200D01*
X90233333Y-80322200D02*
X90185714Y-80274580D01*
X90185714Y-80274580D02*
X90138095Y-80179342D01*
X90138095Y-80179342D02*
X90090476Y-79988866D01*
X90090476Y-79988866D02*
X90090476Y-79750771D01*
X90090476Y-79750771D02*
X90138095Y-79560295D01*
X90138095Y-79560295D02*
X90185714Y-79465057D01*
X90185714Y-79465057D02*
X90233333Y-79417438D01*
X90233333Y-79417438D02*
X90328571Y-79369819D01*
X96965714Y-135329819D02*
X96965714Y-134329819D01*
X96965714Y-134329819D02*
X97346666Y-134329819D01*
X97346666Y-134329819D02*
X97441904Y-134377438D01*
X97441904Y-134377438D02*
X97489523Y-134425057D01*
X97489523Y-134425057D02*
X97537142Y-134520295D01*
X97537142Y-134520295D02*
X97537142Y-134663152D01*
X97537142Y-134663152D02*
X97489523Y-134758390D01*
X97489523Y-134758390D02*
X97441904Y-134806009D01*
X97441904Y-134806009D02*
X97346666Y-134853628D01*
X97346666Y-134853628D02*
X96965714Y-134853628D01*
X98489523Y-135329819D02*
X97918095Y-135329819D01*
X98203809Y-135329819D02*
X98203809Y-134329819D01*
X98203809Y-134329819D02*
X98108571Y-134472676D01*
X98108571Y-134472676D02*
X98013333Y-134567914D01*
X98013333Y-134567914D02*
X97918095Y-134615533D01*
X99346666Y-134663152D02*
X99346666Y-135329819D01*
X99108571Y-134282200D02*
X98870476Y-134996485D01*
X98870476Y-134996485D02*
X99489523Y-134996485D01*
X114003810Y-94669819D02*
X114003810Y-93669819D01*
X115051428Y-94574580D02*
X115003809Y-94622200D01*
X115003809Y-94622200D02*
X114860952Y-94669819D01*
X114860952Y-94669819D02*
X114765714Y-94669819D01*
X114765714Y-94669819D02*
X114622857Y-94622200D01*
X114622857Y-94622200D02*
X114527619Y-94526961D01*
X114527619Y-94526961D02*
X114480000Y-94431723D01*
X114480000Y-94431723D02*
X114432381Y-94241247D01*
X114432381Y-94241247D02*
X114432381Y-94098390D01*
X114432381Y-94098390D02*
X114480000Y-93907914D01*
X114480000Y-93907914D02*
X114527619Y-93812676D01*
X114527619Y-93812676D02*
X114622857Y-93717438D01*
X114622857Y-93717438D02*
X114765714Y-93669819D01*
X114765714Y-93669819D02*
X114860952Y-93669819D01*
X114860952Y-93669819D02*
X115003809Y-93717438D01*
X115003809Y-93717438D02*
X115051428Y-93765057D01*
X115432381Y-93765057D02*
X115480000Y-93717438D01*
X115480000Y-93717438D02*
X115575238Y-93669819D01*
X115575238Y-93669819D02*
X115813333Y-93669819D01*
X115813333Y-93669819D02*
X115908571Y-93717438D01*
X115908571Y-93717438D02*
X115956190Y-93765057D01*
X115956190Y-93765057D02*
X116003809Y-93860295D01*
X116003809Y-93860295D02*
X116003809Y-93955533D01*
X116003809Y-93955533D02*
X115956190Y-94098390D01*
X115956190Y-94098390D02*
X115384762Y-94669819D01*
X115384762Y-94669819D02*
X116003809Y-94669819D01*
X144261905Y-118769819D02*
X144261905Y-117769819D01*
X144261905Y-117769819D02*
X144500000Y-117769819D01*
X144500000Y-117769819D02*
X144642857Y-117817438D01*
X144642857Y-117817438D02*
X144738095Y-117912676D01*
X144738095Y-117912676D02*
X144785714Y-118007914D01*
X144785714Y-118007914D02*
X144833333Y-118198390D01*
X144833333Y-118198390D02*
X144833333Y-118341247D01*
X144833333Y-118341247D02*
X144785714Y-118531723D01*
X144785714Y-118531723D02*
X144738095Y-118626961D01*
X144738095Y-118626961D02*
X144642857Y-118722200D01*
X144642857Y-118722200D02*
X144500000Y-118769819D01*
X144500000Y-118769819D02*
X144261905Y-118769819D01*
X145690476Y-118103152D02*
X145690476Y-118769819D01*
X145452381Y-117722200D02*
X145214286Y-118436485D01*
X145214286Y-118436485D02*
X145833333Y-118436485D01*
X146538095Y-106409819D02*
X146538095Y-105409819D01*
X147109523Y-106409819D02*
X146680952Y-105838390D01*
X147109523Y-105409819D02*
X146538095Y-105981247D01*
X86575714Y-135329819D02*
X86575714Y-134329819D01*
X86575714Y-134329819D02*
X86956666Y-134329819D01*
X86956666Y-134329819D02*
X87051904Y-134377438D01*
X87051904Y-134377438D02*
X87099523Y-134425057D01*
X87099523Y-134425057D02*
X87147142Y-134520295D01*
X87147142Y-134520295D02*
X87147142Y-134663152D01*
X87147142Y-134663152D02*
X87099523Y-134758390D01*
X87099523Y-134758390D02*
X87051904Y-134806009D01*
X87051904Y-134806009D02*
X86956666Y-134853628D01*
X86956666Y-134853628D02*
X86575714Y-134853628D01*
X88099523Y-135329819D02*
X87528095Y-135329819D01*
X87813809Y-135329819D02*
X87813809Y-134329819D01*
X87813809Y-134329819D02*
X87718571Y-134472676D01*
X87718571Y-134472676D02*
X87623333Y-134567914D01*
X87623333Y-134567914D02*
X87528095Y-134615533D01*
X88432857Y-134329819D02*
X89051904Y-134329819D01*
X89051904Y-134329819D02*
X88718571Y-134710771D01*
X88718571Y-134710771D02*
X88861428Y-134710771D01*
X88861428Y-134710771D02*
X88956666Y-134758390D01*
X88956666Y-134758390D02*
X89004285Y-134806009D01*
X89004285Y-134806009D02*
X89051904Y-134901247D01*
X89051904Y-134901247D02*
X89051904Y-135139342D01*
X89051904Y-135139342D02*
X89004285Y-135234580D01*
X89004285Y-135234580D02*
X88956666Y-135282200D01*
X88956666Y-135282200D02*
X88861428Y-135329819D01*
X88861428Y-135329819D02*
X88575714Y-135329819D01*
X88575714Y-135329819D02*
X88480476Y-135282200D01*
X88480476Y-135282200D02*
X88432857Y-135234580D01*
X58711905Y-86294819D02*
X58711905Y-85294819D01*
X58711905Y-85294819D02*
X58950000Y-85294819D01*
X58950000Y-85294819D02*
X59092857Y-85342438D01*
X59092857Y-85342438D02*
X59188095Y-85437676D01*
X59188095Y-85437676D02*
X59235714Y-85532914D01*
X59235714Y-85532914D02*
X59283333Y-85723390D01*
X59283333Y-85723390D02*
X59283333Y-85866247D01*
X59283333Y-85866247D02*
X59235714Y-86056723D01*
X59235714Y-86056723D02*
X59188095Y-86151961D01*
X59188095Y-86151961D02*
X59092857Y-86247200D01*
X59092857Y-86247200D02*
X58950000Y-86294819D01*
X58950000Y-86294819D02*
X58711905Y-86294819D01*
X60235714Y-86294819D02*
X59664286Y-86294819D01*
X59950000Y-86294819D02*
X59950000Y-85294819D01*
X59950000Y-85294819D02*
X59854762Y-85437676D01*
X59854762Y-85437676D02*
X59759524Y-85532914D01*
X59759524Y-85532914D02*
X59664286Y-85580533D01*
X150545714Y-90639819D02*
X150545714Y-89639819D01*
X150545714Y-89639819D02*
X150926666Y-89639819D01*
X150926666Y-89639819D02*
X151021904Y-89687438D01*
X151021904Y-89687438D02*
X151069523Y-89735057D01*
X151069523Y-89735057D02*
X151117142Y-89830295D01*
X151117142Y-89830295D02*
X151117142Y-89973152D01*
X151117142Y-89973152D02*
X151069523Y-90068390D01*
X151069523Y-90068390D02*
X151021904Y-90116009D01*
X151021904Y-90116009D02*
X150926666Y-90163628D01*
X150926666Y-90163628D02*
X150545714Y-90163628D01*
X152069523Y-90639819D02*
X151498095Y-90639819D01*
X151783809Y-90639819D02*
X151783809Y-89639819D01*
X151783809Y-89639819D02*
X151688571Y-89782676D01*
X151688571Y-89782676D02*
X151593333Y-89877914D01*
X151593333Y-89877914D02*
X151498095Y-89925533D01*
X152402857Y-89639819D02*
X153069523Y-89639819D01*
X153069523Y-89639819D02*
X152640952Y-90639819D01*
X91174761Y-42635057D02*
X91079523Y-42587438D01*
X91079523Y-42587438D02*
X90984285Y-42492200D01*
X90984285Y-42492200D02*
X90841428Y-42349342D01*
X90841428Y-42349342D02*
X90746190Y-42301723D01*
X90746190Y-42301723D02*
X90650952Y-42301723D01*
X90698571Y-42539819D02*
X90603333Y-42492200D01*
X90603333Y-42492200D02*
X90508095Y-42396961D01*
X90508095Y-42396961D02*
X90460476Y-42206485D01*
X90460476Y-42206485D02*
X90460476Y-41873152D01*
X90460476Y-41873152D02*
X90508095Y-41682676D01*
X90508095Y-41682676D02*
X90603333Y-41587438D01*
X90603333Y-41587438D02*
X90698571Y-41539819D01*
X90698571Y-41539819D02*
X90889047Y-41539819D01*
X90889047Y-41539819D02*
X90984285Y-41587438D01*
X90984285Y-41587438D02*
X91079523Y-41682676D01*
X91079523Y-41682676D02*
X91127142Y-41873152D01*
X91127142Y-41873152D02*
X91127142Y-42206485D01*
X91127142Y-42206485D02*
X91079523Y-42396961D01*
X91079523Y-42396961D02*
X90984285Y-42492200D01*
X90984285Y-42492200D02*
X90889047Y-42539819D01*
X90889047Y-42539819D02*
X90698571Y-42539819D01*
X92079523Y-42539819D02*
X91508095Y-42539819D01*
X91793809Y-42539819D02*
X91793809Y-41539819D01*
X91793809Y-41539819D02*
X91698571Y-41682676D01*
X91698571Y-41682676D02*
X91603333Y-41777914D01*
X91603333Y-41777914D02*
X91508095Y-41825533D01*
X26505476Y-57204819D02*
X27172142Y-58204819D01*
X27172142Y-57204819D02*
X26505476Y-58204819D01*
X28076904Y-58204819D02*
X27505476Y-58204819D01*
X27791190Y-58204819D02*
X27791190Y-57204819D01*
X27791190Y-57204819D02*
X27695952Y-57347676D01*
X27695952Y-57347676D02*
X27600714Y-57442914D01*
X27600714Y-57442914D02*
X27505476Y-57490533D01*
X26505476Y-75804819D02*
X27172142Y-76804819D01*
X27172142Y-75804819D02*
X26505476Y-76804819D01*
X27505476Y-75900057D02*
X27553095Y-75852438D01*
X27553095Y-75852438D02*
X27648333Y-75804819D01*
X27648333Y-75804819D02*
X27886428Y-75804819D01*
X27886428Y-75804819D02*
X27981666Y-75852438D01*
X27981666Y-75852438D02*
X28029285Y-75900057D01*
X28029285Y-75900057D02*
X28076904Y-75995295D01*
X28076904Y-75995295D02*
X28076904Y-76090533D01*
X28076904Y-76090533D02*
X28029285Y-76233390D01*
X28029285Y-76233390D02*
X27457857Y-76804819D01*
X27457857Y-76804819D02*
X28076904Y-76804819D01*
X26505476Y-81554819D02*
X27172142Y-82554819D01*
X27172142Y-81554819D02*
X26505476Y-82554819D01*
X27457857Y-81554819D02*
X28076904Y-81554819D01*
X28076904Y-81554819D02*
X27743571Y-81935771D01*
X27743571Y-81935771D02*
X27886428Y-81935771D01*
X27886428Y-81935771D02*
X27981666Y-81983390D01*
X27981666Y-81983390D02*
X28029285Y-82031009D01*
X28029285Y-82031009D02*
X28076904Y-82126247D01*
X28076904Y-82126247D02*
X28076904Y-82364342D01*
X28076904Y-82364342D02*
X28029285Y-82459580D01*
X28029285Y-82459580D02*
X27981666Y-82507200D01*
X27981666Y-82507200D02*
X27886428Y-82554819D01*
X27886428Y-82554819D02*
X27600714Y-82554819D01*
X27600714Y-82554819D02*
X27505476Y-82507200D01*
X27505476Y-82507200D02*
X27457857Y-82459580D01*
X26505476Y-118394819D02*
X27172142Y-119394819D01*
X27172142Y-118394819D02*
X26505476Y-119394819D01*
X27981666Y-118728152D02*
X27981666Y-119394819D01*
X27743571Y-118347200D02*
X27505476Y-119061485D01*
X27505476Y-119061485D02*
X28124523Y-119061485D01*
%TO.C,R5*%
D14*
X112670000Y-68815000D02*
X112670000Y-69585000D01*
X112670000Y-76895000D02*
X112670000Y-76125000D01*
X111300000Y-69585000D02*
X114040000Y-69585000D01*
X114040000Y-76125000D01*
X111300000Y-76125000D01*
X111300000Y-69585000D01*
%TO.C,C5*%
X86890000Y-56545000D02*
X97430000Y-56545000D01*
X86890000Y-61785000D02*
X86890000Y-56545000D01*
X97430000Y-56545000D02*
X97430000Y-61785000D01*
X97430000Y-61785000D02*
X86890000Y-61785000D01*
%TO.C,C13*%
X132865000Y-71015509D02*
X132865000Y-72615509D01*
X133665000Y-71815509D02*
X132065000Y-71815509D01*
D15*
X132136000Y-85828000D02*
G75*
G02*
X124484000Y-85828000I-3826000J6123460D01*
G01*
D14*
X136430000Y-79705000D02*
G75*
G02*
X120190000Y-79705000I-8120000J0D01*
G01*
X120190000Y-79705000D02*
G75*
G02*
X136430000Y-79705000I8120000J0D01*
G01*
%TO.C,Q2*%
X122570000Y-43875000D02*
X132790000Y-43875000D01*
X122570000Y-45255000D02*
X132790000Y-45255000D01*
X122570000Y-48495000D02*
X122570000Y-43875000D01*
X125830000Y-43875000D02*
X125830000Y-45255000D01*
X129530000Y-43875000D02*
X129530000Y-45255000D01*
X132790000Y-43875000D02*
X132790000Y-48495000D01*
X132790000Y-48495000D02*
X122570000Y-48495000D01*
%TO.C,C1*%
X39210000Y-61685000D02*
X47950000Y-61685000D01*
X39210000Y-88425000D02*
X39210000Y-61685000D01*
X47950000Y-61685000D02*
X47950000Y-88425000D01*
X47950000Y-88425000D02*
X39210000Y-88425000D01*
%TO.C,C11*%
X98900354Y-48030000D02*
X99900354Y-48030000D01*
X99400354Y-47530000D02*
X99400354Y-48530000D01*
D15*
X107959000Y-48669000D02*
G75*
G02*
X107959000Y-53141000I-3579420J-2236000D01*
G01*
D14*
X109500000Y-50905000D02*
G75*
G02*
X99260000Y-50905000I-5120000J0D01*
G01*
X99260000Y-50905000D02*
G75*
G02*
X109500000Y-50905000I5120000J0D01*
G01*
%TO.C,F2*%
X69110000Y-94265000D02*
X76110000Y-94265000D01*
X76110000Y-124365000D01*
X69110000Y-124365000D01*
X69110000Y-94265000D01*
%TO.C,C6*%
X100300000Y-56145000D02*
X110840000Y-56145000D01*
X100300000Y-61385000D02*
X100300000Y-56145000D01*
X110840000Y-56145000D02*
X110840000Y-61385000D01*
X110840000Y-61385000D02*
X100300000Y-61385000D01*
%TO.C,R7*%
X73620000Y-47290000D02*
X74390000Y-47290000D01*
X81700000Y-47290000D02*
X80930000Y-47290000D01*
X74390000Y-45920000D02*
X80930000Y-45920000D01*
X80930000Y-48660000D01*
X74390000Y-48660000D01*
X74390000Y-45920000D01*
%TO.C,F1*%
X40280000Y-94265000D02*
X47280000Y-94265000D01*
X47280000Y-124365000D01*
X40280000Y-124365000D01*
X40280000Y-94265000D01*
%TO.C,F3*%
X86240000Y-94265000D02*
X93240000Y-94265000D01*
X93240000Y-124365000D01*
X86240000Y-124365000D01*
X86240000Y-94265000D01*
%TO.C,C7*%
X93890000Y-66115000D02*
X99130000Y-66115000D01*
X93890000Y-66452000D02*
X93890000Y-66115000D01*
X93890000Y-68855000D02*
X93890000Y-68518000D01*
X99130000Y-66115000D02*
X99130000Y-66452000D01*
X99130000Y-68518000D02*
X99130000Y-68855000D01*
X99130000Y-68855000D02*
X93890000Y-68855000D01*
%TO.C,R1*%
X118340000Y-83725000D02*
X118670000Y-83725000D01*
X118340000Y-90265000D02*
X118340000Y-83725000D01*
X118670000Y-90265000D02*
X118340000Y-90265000D01*
X120750000Y-90265000D02*
X121080000Y-90265000D01*
X121080000Y-83725000D02*
X120750000Y-83725000D01*
X121080000Y-90265000D02*
X121080000Y-83725000D01*
%TO.C,R2*%
X88240000Y-67635000D02*
X88240000Y-68405000D01*
X88240000Y-75715000D02*
X88240000Y-74945000D01*
X86870000Y-68405000D02*
X89610000Y-68405000D01*
X89610000Y-74945000D01*
X86870000Y-74945000D01*
X86870000Y-68405000D01*
%TO.C,R6*%
X112860000Y-50285000D02*
X113190000Y-50285000D01*
X112860000Y-56825000D02*
X112860000Y-50285000D01*
X113190000Y-56825000D02*
X112860000Y-56825000D01*
X115270000Y-56825000D02*
X115600000Y-56825000D01*
X115600000Y-50285000D02*
X115270000Y-50285000D01*
X115600000Y-56825000D02*
X115600000Y-50285000D01*
%TO.C,C4*%
X62190000Y-74275000D02*
X72730000Y-74275000D01*
X62190000Y-79515000D02*
X62190000Y-74275000D01*
X72730000Y-74275000D02*
X72730000Y-79515000D01*
X72730000Y-79515000D02*
X62190000Y-79515000D01*
%TO.C,D3*%
X140360000Y-107030000D02*
X140360000Y-108950000D01*
X140360000Y-115110000D02*
X140360000Y-113190000D01*
X141480000Y-109550000D02*
X139240000Y-109550000D01*
X141480000Y-109670000D02*
X139240000Y-109670000D01*
X141480000Y-109790000D02*
X139240000Y-109790000D01*
X139240000Y-108950000D02*
X141480000Y-108950000D01*
X141480000Y-113190000D01*
X139240000Y-113190000D01*
X139240000Y-108950000D01*
%TO.C,IC1*%
X49330000Y-43875000D02*
X59550000Y-43875000D01*
X49330000Y-45255000D02*
X59550000Y-45255000D01*
X49330000Y-48495000D02*
X49330000Y-43875000D01*
X52590000Y-43875000D02*
X52590000Y-45255000D01*
X56290000Y-43875000D02*
X56290000Y-45255000D01*
X59550000Y-43875000D02*
X59550000Y-48495000D01*
X59550000Y-48495000D02*
X49330000Y-48495000D01*
%TO.C,C12*%
X131905000Y-50855509D02*
X131905000Y-52455509D01*
X132705000Y-51655509D02*
X131105000Y-51655509D01*
D15*
X131176000Y-65668000D02*
G75*
G02*
X123524000Y-65668000I-3826000J6123460D01*
G01*
D14*
X135470000Y-59545000D02*
G75*
G02*
X119230000Y-59545000I-8120000J0D01*
G01*
X119230000Y-59545000D02*
G75*
G02*
X135470000Y-59545000I8120000J0D01*
G01*
%TO.C,C3*%
X62982918Y-62260000D02*
X64232918Y-62260000D01*
X63607918Y-61635000D02*
X63607918Y-62885000D01*
D15*
X74439000Y-62936000D02*
G75*
G02*
X74439000Y-68734000I-4641180J-2899000D01*
G01*
D14*
X76170000Y-65835000D02*
G75*
G02*
X63430000Y-65835000I-6370000J0D01*
G01*
X63430000Y-65835000D02*
G75*
G02*
X76170000Y-65835000I6370000J0D01*
G01*
%TO.C,R3*%
X89990000Y-63145000D02*
X90760000Y-63145000D01*
X98070000Y-63145000D02*
X97300000Y-63145000D01*
X90760000Y-61775000D02*
X97300000Y-61775000D01*
X97300000Y-64515000D01*
X90760000Y-64515000D01*
X90760000Y-61775000D01*
%TO.C,C8*%
X101290000Y-64870000D02*
X104530000Y-64870000D01*
X101290000Y-65018000D02*
X101290000Y-64870000D01*
X101290000Y-67110000D02*
X101290000Y-66962000D01*
X104530000Y-64870000D02*
X104530000Y-65018000D01*
X104530000Y-66962000D02*
X104530000Y-67110000D01*
X104530000Y-67110000D02*
X101290000Y-67110000D01*
%TO.C,F4*%
X103650000Y-94265000D02*
X110650000Y-94265000D01*
X110650000Y-124365000D01*
X103650000Y-124365000D01*
X103650000Y-94265000D01*
%TO.C,R4*%
X102460000Y-63145000D02*
X103230000Y-63145000D01*
X110540000Y-63145000D02*
X109770000Y-63145000D01*
X103230000Y-61775000D02*
X109770000Y-61775000D01*
X109770000Y-64515000D01*
X103230000Y-64515000D01*
X103230000Y-61775000D01*
%TO.C,C14*%
X144025000Y-45510225D02*
X144025000Y-46010225D01*
X144275000Y-45760225D02*
X143775000Y-45760225D01*
D16*
X143847000Y-50238000D02*
G75*
G02*
X141253000Y-50238000I-1297000J1920150D01*
G01*
D14*
X145170000Y-48315000D02*
G75*
G02*
X139930000Y-48315000I-2620000J0D01*
G01*
X139930000Y-48315000D02*
G75*
G02*
X145170000Y-48315000I2620000J0D01*
G01*
%TO.C,D2*%
X82126000Y-85314000D02*
X82126000Y-91156000D01*
X83269000Y-84171000D02*
G75*
G02*
X82126000Y-91156000I2921000J-4064000D01*
G01*
%TO.C,C9*%
X109920000Y-81285000D02*
X115160000Y-81285000D01*
X109920000Y-91825000D02*
X109920000Y-81285000D01*
X115160000Y-81285000D02*
X115160000Y-91825000D01*
X115160000Y-91825000D02*
X109920000Y-91825000D01*
%TO.C,C16*%
X143585000Y-76010225D02*
X143585000Y-76510225D01*
X143835000Y-76260225D02*
X143335000Y-76260225D01*
D16*
X143407000Y-80738000D02*
G75*
G02*
X140813000Y-80738000I-1297000J1920150D01*
G01*
D14*
X144730000Y-78815000D02*
G75*
G02*
X139490000Y-78815000I-2620000J0D01*
G01*
X139490000Y-78815000D02*
G75*
G02*
X144730000Y-78815000I2620000J0D01*
G01*
%TO.C,C2*%
X56740000Y-50965000D02*
X69980000Y-50965000D01*
X56740000Y-55205000D02*
X56740000Y-50965000D01*
X69980000Y-50965000D02*
X69980000Y-55205000D01*
X69980000Y-55205000D02*
X56740000Y-55205000D01*
%TO.C,C15*%
X143985000Y-56250225D02*
X143985000Y-56750225D01*
X144235000Y-56500225D02*
X143735000Y-56500225D01*
D16*
X143807000Y-60978000D02*
G75*
G02*
X141213000Y-60978000I-1297000J1920150D01*
G01*
D14*
X145130000Y-59055000D02*
G75*
G02*
X139890000Y-59055000I-2620000J0D01*
G01*
X139890000Y-59055000D02*
G75*
G02*
X145130000Y-59055000I2620000J0D01*
G01*
%TO.C,C10*%
X91460000Y-81195000D02*
X96700000Y-81195000D01*
X91460000Y-91735000D02*
X91460000Y-81195000D01*
X96700000Y-81195000D02*
X96700000Y-91735000D01*
X96700000Y-91735000D02*
X91460000Y-91735000D01*
%TO.C,IC2*%
X101040000Y-70465000D02*
X101040000Y-88365000D01*
X101040000Y-88365000D02*
X106340000Y-88365000D01*
X102690000Y-70465000D02*
X101040000Y-70465000D01*
X106340000Y-70465000D02*
X104690000Y-70465000D01*
X106340000Y-88365000D02*
X106340000Y-70465000D01*
X104690000Y-70465000D02*
G75*
G02*
X102690000Y-70465000I-1000000J0D01*
G01*
%TO.C,D4*%
X145000000Y-106995000D02*
X145000000Y-108915000D01*
X145000000Y-115075000D02*
X145000000Y-113155000D01*
X146120000Y-109515000D02*
X143880000Y-109515000D01*
X146120000Y-109635000D02*
X143880000Y-109635000D01*
X146120000Y-109755000D02*
X143880000Y-109755000D01*
X143880000Y-108915000D02*
X146120000Y-108915000D01*
X146120000Y-113155000D01*
X143880000Y-113155000D01*
X143880000Y-108915000D01*
%TO.C,D1*%
X61196000Y-82914000D02*
X61196000Y-88756000D01*
X62339000Y-81771000D02*
G75*
G02*
X61196000Y-88756000I2921000J-4064000D01*
G01*
%TO.C,Q1*%
X86160000Y-43875000D02*
X96380000Y-43875000D01*
X86160000Y-45255000D02*
X96380000Y-45255000D01*
X86160000Y-48495000D02*
X86160000Y-43875000D01*
X89420000Y-43875000D02*
X89420000Y-45255000D01*
X93120000Y-43875000D02*
X93120000Y-45255000D01*
X96380000Y-43875000D02*
X96380000Y-48495000D01*
X96380000Y-48495000D02*
X86160000Y-48495000D01*
%TO.C,X1*%
X22300000Y-56220000D02*
X22300000Y-45980000D01*
X25320000Y-56220000D02*
X25320000Y-45980000D01*
X30220000Y-56220000D02*
X30220000Y-45980000D01*
X31720000Y-56220000D02*
X31720000Y-45980000D01*
X32340000Y-56220000D02*
X22300000Y-56220000D01*
X32340000Y-53900000D02*
X32340000Y-56220000D01*
X22300000Y-45980000D02*
X32340000Y-45980000D01*
X32340000Y-45980000D02*
X32340000Y-53300000D01*
X32340000Y-53600000D02*
X32950000Y-53160000D01*
X32950000Y-54040000D01*
X32340000Y-53600000D01*
G36*
X32950000Y-54040000D02*
G01*
X32340000Y-53600000D01*
X32950000Y-53160000D01*
X32950000Y-54040000D01*
G37*
%TO.C,X2*%
X22300000Y-74820000D02*
X22300000Y-64580000D01*
X25320000Y-74820000D02*
X25320000Y-64580000D01*
X30220000Y-74820000D02*
X30220000Y-64580000D01*
X31720000Y-74820000D02*
X31720000Y-64580000D01*
X32340000Y-74820000D02*
X22300000Y-74820000D01*
X32340000Y-72500000D02*
X32340000Y-74820000D01*
X22300000Y-64580000D02*
X32340000Y-64580000D01*
X32340000Y-64580000D02*
X32340000Y-71900000D01*
X32340000Y-72200000D02*
X32950000Y-71760000D01*
X32950000Y-72640000D01*
X32340000Y-72200000D01*
G36*
X32950000Y-72640000D02*
G01*
X32340000Y-72200000D01*
X32950000Y-71760000D01*
X32950000Y-72640000D01*
G37*
%TO.C,X3*%
X22300000Y-93870000D02*
X22300000Y-83630000D01*
X25320000Y-93870000D02*
X25320000Y-83630000D01*
X30220000Y-93870000D02*
X30220000Y-83630000D01*
X31720000Y-93870000D02*
X31720000Y-83630000D01*
X32340000Y-93870000D02*
X22300000Y-93870000D01*
X32340000Y-91550000D02*
X32340000Y-93870000D01*
X22300000Y-83630000D02*
X32340000Y-83630000D01*
X32340000Y-83630000D02*
X32340000Y-90950000D01*
X32340000Y-91250000D02*
X32950000Y-90810000D01*
X32950000Y-91690000D01*
X32340000Y-91250000D01*
G36*
X32950000Y-91690000D02*
G01*
X32340000Y-91250000D01*
X32950000Y-90810000D01*
X32950000Y-91690000D01*
G37*
%TO.C,X4*%
X22300000Y-117410000D02*
X22300000Y-102170000D01*
X25320000Y-117410000D02*
X25320000Y-102170000D01*
X30220000Y-117410000D02*
X30220000Y-102170000D01*
X31720000Y-117410000D02*
X31720000Y-102170000D01*
X32340000Y-117410000D02*
X22300000Y-117410000D01*
X32340000Y-115090000D02*
X32340000Y-117410000D01*
X22300000Y-102170000D02*
X32340000Y-102170000D01*
X32340000Y-102170000D02*
X32340000Y-114490000D01*
X32340000Y-114790000D02*
X32950000Y-114350000D01*
X32950000Y-115230000D01*
X32340000Y-114790000D01*
G36*
X32950000Y-115230000D02*
G01*
X32340000Y-114790000D01*
X32950000Y-114350000D01*
X32950000Y-115230000D01*
G37*
%TD*%
M02*
